<?xml version="1.0" encoding="UTF-8"?><svg id="Layer_1" xmlns="http://www.w3.org/2000/svg" viewBox="0 0 500 500"><defs><style>.cls-1{fill:#efeadf;}.cls-2{fill:#c1c6c8;}.cls-3{fill:#ffee02;}.cls-4{fill:#252525;}</style></defs><path class="cls-4" d="M388.09,349.83c5.58-.61,9.21,1.71,13.06,5.39,6.56,6.26,7.65,16.4,1.49,23.37-7.48,8.46-19.48,4.57-26.01,16.91-2.66,5.03-2.47,7.49-7.19,11.67-8.4,7.44-19.97,5.35-24.25-5.29-2.02-5.01-1.03-16.15,3.05-20.02,4.06-3.85,14.03-4.53,19.4-7.67,9.18-5.36,6.53-22.85,20.46-24.37ZM390.27,358.03c-2.59.36-5.05,2.62-6.61,4.6-5.03,6.4.27,14.93,8.18,14.19.94-.09,4.27-1.54,4.91-2.2,4.26-4.4,2.29-11.82-2.18-15.29-1.49-1.15-2.34-1.58-4.3-1.3ZM357.46,385.91c-2.48.36-5.12,2.2-5.61,4.78-1.01,5.35,1.21,12.11,6.89,13.75,3.95,1.14,7.8-4.51,7.78-8.05-.02-4.2-4.27-11.18-9.06-10.49Z"/><path class="cls-4" d="M79.13,304.73c5.95-.75,14.12,4.14,16.6,9.5s1.84,8.11,2.4,13.45c.59,5.63,3.99,7.79,8.15,10.99,4.45,3.42,11.51,6.43,13.51,11.92,2.28,6.27-.17,11.28-4.24,15.98-8.24,9.53-17.26,8.23-25.25-.7-5.5-6.14-3.93-16.86-8.25-24.28-3.37-5.8-12.92-7.51-16.03-14.04-4.61-9.69,2.73-21.5,13.11-22.81ZM80.23,312.66c-2.05.24-3.32.91-4.59,2.52-5.45,6.93.45,15.95,8.85,15.14,3.55-.34,7.75-3.58,7.55-7.47-.33-6.34-5.45-10.92-11.82-10.19ZM104.84,348.2c-5.67.34-8.6,4.94-7.85,10.42.31,2.28,4.47,5.63,6.67,5.91,4.33.54,9.15-2.37,9.43-6.98.33-5.32-2.65-9.68-8.25-9.34Z"/><path class="cls-4" d="M273.42,413.01c7.08-5.09,18.03-.02,26.23-4.53,5.04-2.78,7.22-6.52,11.27-9.78,9.27-7.47,22.37-2.65,25.54,8.62,2.56,9.1-.48,16.75-8.48,21.56-8.52,5.12-14.64-.3-23.23,1.65-9.66,2.19-13.53,14.65-25.02,11.1-2.92-.9-5.56-2.75-7.5-5.08-4.74-5.7-5.37-18.82,1.19-23.53ZM321.38,406.15c-3.43.32-5.06,1.24-6.55,4.38-1.91,4.02-.68,8.6,3.25,10.79,7.76,4.33,15.47-3.64,11.24-11.24-1.79-3.21-4.35-4.27-7.93-3.94ZM282.82,416.52c-5.76,1.08-9.17,8.42-5.39,13.19,7.17,9.04,20.9,2.09,15.98-8.87-1.55-3.46-7.12-4.96-10.59-4.31Z"/><path class="cls-4" d="M427.19,276.03c9.35-.23,16.87,6.6,16.2,16.2-.67,9.61-11.15,12.4-14.17,21.65-1.79,5.48.27,7.55.73,12.55.99,10.85-8.64,20.35-19.67,17.48-1.75-.46-1.99-1.32-3.17-2.02-2.9-1.71-5.12-2.14-6.88-5.42-4.63-8.63-1.92-17.35,5-23.6,1.72-1.55,3.59-2.39,5.2-4.36,4.81-5.86,1.97-9.85,1.5-16.27-.8-11.03,4.64-15.92,15.25-16.18ZM425.54,282.31c-1.29.22-5.25,2.71-5.74,3.83-.34.78-.3,3.25-.21,4.18.53,6.06,7.23,9.18,12.59,6.82,2.89-1.27,3.58-4.18,3.58-7.11,0-4.71-5.8-8.49-10.21-7.73ZM415.36,320.65c-3-.05-8.09,3.05-9.16,6.02.4,3.24.26,6,3.54,7.66,4.76,2.41,10.76.46,11.43-5.28.41-3.5-1.85-8.33-5.81-8.39Z"/><path class="cls-4" d="M129.72,372.26c5.49-.53,12.03,3.18,15.63,7.17,2.45,2.71,6.95,11.46,9.86,12.55,5.24,1.95,11.99,1.53,17.54,3.24,4.93,1.51,10.53,5.04,11.79,10.35,3.55,14.97-14.98,29.7-26.48,16.63-5.57-6.32-5.79-13.13-15.26-16.46-5.26-1.85-14.28-.5-18.87-3.82-10.98-7.96-9.26-28.22,5.77-29.67ZM131.37,379.07c-10.46.74-7.46,19.96,3.95,17.37,2.5-.57,6.27-3.41,6.5-6.08.52-5.97-4.29-11.73-10.45-11.29ZM167.72,403.14c-7.23,1.05-9.34,11.7-1.94,15.46,9.84,4.99,15.84-8.21,9.75-13.03-1.98-1.57-5.28-2.8-7.81-2.44Z"/><path class="cls-4" d="M391.1,121.59c9.05-.93,16.66,3.28,18.06,12.67.7,4.69.43,7.77,2.37,12.39,3.37,8.03,7.65,7.6,13.26,12.72,5.95,5.43,10.35,13.47,5.64,21.22-5.98,9.83-22.67,7.11-28.02-1.85-3.5-5.85-3.29-9.14-3.86-15.55-1.16-13.06-11.68-11.99-18.2-20.08-3.35-4.16-2.77-11.55-.08-15.94,1.69-2.75,7.65-5.25,10.82-5.58ZM392.75,127.59c-11.12.51-8.11,19.01,3.14,14.63,8.29-3.23,6.02-15.05-3.14-14.63ZM413.79,163.67c-4.5.62-8.05,5.38-7.3,9.89.2,1.22,3.19,3.08,4.35,3.58,5.96,2.56,13.27-.78,12.29-7.91-.25-1.84-2.19-3.57-3.72-4.48-1.91-1.13-3.39-1.38-5.62-1.08Z"/><path class="cls-4" d="M325.49,70.74c6.08-.63,9.45.88,13.02,5.68,2.31,3.11,4.12,6.59,7.14,9.26,8.16,7.22,20.79,1.64,29.94,10.8,9.95,9.97,1.39,25.37-12.18,25.03-9.35-.23-12.04-6.81-16.03-13.5-6.7-11.22-25.67-4.76-32.33-14.15-6.69-9.43-1-21.95,10.44-23.13ZM324.66,76.75c-12.91,1.76-5.07,20.6,6.81,14.46,5.15-2.66,3.56-8.1.36-11.66-2.19-2.43-3.81-3.26-7.17-2.81ZM362.13,98.34c-2.71.11-5.87,2.47-6.71,5.07-1.66,5.11,2.37,11.71,7.99,11.26,6.46-.52,10.13-6.1,6.85-12.04-1.69-3.07-4.64-4.44-8.13-4.3Z"/><path class="cls-4" d="M87.35,146.19c10.61-.69,18.96,10.23,15.14,20.33-3.6,9.54-15.68,10.49-15.65,21.55.01,5.82,1.84,11.63-1.56,17.01-4.75,7.5-15.08,9.89-21.67,3.23-6.11-6.17-6.09-13.53-.8-20.23,2.86-3.62,8.01-6.26,9.84-10.39,3.38-7.63.52-16.19,3.5-22.74,2.43-5.33,5.02-8.35,11.2-8.75ZM87.88,154.1c-4.3.72-5.21,7.15-3.26,10.51,4.24,7.33,13.82,1.01,10.09-6.81-1.1-2.31-4.28-4.13-6.83-3.7ZM72.84,190.46c-1.97.34-4.6,2.89-5.45,4.67-1.14,2.38-1.39,4.32,0,6.67,1.72,2.92,5.47,3.68,8.45,2.32,7.79-3.57,4.53-14.95-2.99-13.65Z"/><path class="cls-4" d="M425.54,198.66c10.61-1.44,21.54,5.86,17.84,17.57-1.9,6.02-6.64,7.57-4.73,14.84,1.7,6.47,9.31,11.77,8.49,18.98-1.36,11.94-13.8,18.55-24.24,11.8-7.35-4.75-8.96-11.1-5.54-19.16,1.23-2.91,3.76-6.11,4.12-9.28.59-5.24-5.12-10.21-6.94-14.87-3.56-9.14,1.01-18.53,11-19.88ZM427.18,205.5c-5.28.68-6.96,3.95-6.15,9.02.82,5.22,6.19,4.73,10.12,5.62,5-1.64,5.88-9.54,1.82-12.64-1.77-1.35-3.53-2.29-5.79-2ZM429.37,241.86c-7.64,1.11-7.73,11.51-1.91,14.34,6.23,3.03,13.13.5,12.36-7.17-.56-5.64-5.19-7.94-10.45-7.18Z"/><path class="cls-4" d="M242.64,53.52c8.05-.15,9.41,4.6,15.08,7.45,9.06,4.55,17.11-4.26,26.67-3.99,9.81.27,17.09,9.2,13.94,18.87-2.79,8.57-7.57,12.66-16.91,11.73-10.06-1.01-13.3-13.81-26.08-9.34-5.95,2.09-8.04,4.76-15.24,4.75-4.97,0-8.22-1.19-10.19-5.97-4.29-10.43.18-23.27,12.73-23.5ZM241.27,60.62c-2.25.31-4.62,1.81-5.95,3.62-6.1,8.3,8.71,16.57,13.94,9.29,1.19-1.65,2.2-6.45,1.56-8.4-1.25-3.84-5.94-5.01-9.56-4.52ZM290.19,68.01c-3.92-4.52-12.4-2.43-14.65,2.82-1.62,3.79-1.06,6.71,2.29,9.13,5.09,3.67,15.7-1.31,14.29-8-.12-.59-1.54-3.48-1.94-3.94Z"/><path class="cls-4" d="M204.91,413.26c9.95-.91,14.09,7.62,23.64,6.41,1.73-.22,3.4-1.14,5.01-1.55,5.39-1.38,14.62-3.29,19.4.26,10.16,7.55,5.14,23.52-5.69,27.39-9.66,3.45-15.5-6.51-24.67-6.62-4.76-.06-8.86,2.24-13.19,3.49-21.7,6.24-23.85-27.59-4.49-29.36ZM206.55,419.82c-5.44.58-9.06,5.6-6.28,10.77,3.12,5.8,12,5.07,14.47-.94,1.29-3.13,1.25-4.95-1.29-7.33-1.76-1.64-4.48-2.77-6.91-2.51ZM243.38,422.9c-7.72-.11-11.04,9.72-4.92,14.6,5.19,4.13,12.37,2.33,13.46-4.57.86-5.42-3.12-9.96-8.55-10.03Z"/><path class="cls-4" d="M65.47,228.47c10.08-1.04,14.77,7.72,14,16.73-.62,7.19-4.75,9.67-1.84,17.7,3.07,8.49,9.34,16.81,2.51,25.88-3.87,5.14-15.4,6.98-20.48,3.02-7.21-5.63-5.21-13.15-2.54-20.57.67-1.87,1.96-3.65,2.27-5.65,1.78-11.27-8.38-16.14-6.32-27.36.93-5.07,7.53-9.25,12.4-9.75ZM66.83,235.55c-2.02.22-4.9,2.83-5.83,4.58-1.1,2.09-1.02,5.56.55,7.4,2.04,2.4,7.4,2.52,9.59.27,2.73-2.8,2.41-7.93-.28-10.68-.78-.8-2.92-1.71-4.03-1.58ZM68.76,274.1c-5.83.56-9.33,10.34-2.41,12.12,2.19.56,7.13.11,8.6-1.8,3.67-4.76-.28-10.88-6.19-10.31Z"/><path class="cls-4" d="M136.28,86.04c3.24-.44,4.65.3,7.32,1.84,7.26,4.18,11.19,9.86,7.72,18.39-2.27,5.59-9.4,8.12-14.76,9.85-3.7,1.19-7.02.79-9.35,4.32-5.79,8.75-3.87,21.38-18.86,19.63-10.4-1.22-13.51-12.83-10.06-21.48,3.91-9.79,13.43-7.47,20.65-12.16,3.03-1.97,5.08-8.01,7.07-11.25,2.2-3.58,5.83-8.53,10.27-9.14ZM137.1,95.61c-2.38.35-4.88,2.21-5.13,4.71-.25,2.46.27,3.53,2.06,5.05,3.47,2.95,8.18,4.16,10.19-1.01,2.29-5.89-1.03-9.65-7.12-8.76ZM117.66,130.44c2.04-1.98,2.81-8.37.79-10.58-1.81-1.97-6.71-2.81-9.24-2.38-3.89.66-6.48,6.23-5.54,9.78.57,2.16,4.97,5.22,7.12,5.46s5.27-.71,6.88-2.28Z"/><path class="cls-4" d="M204.63,59.26c6.6-.69,13.33,5.42,14.74,11.62,1.83,8.01-8.02,15.59-15.13,16.7-4.78.75-7.9-.88-12.3-1.3-3.17-.31-4.01.17-6.4,2.01-5.52,4.26-7.07,8.58-15.2,9.4-7.41.75-10.26-3.2-12.34-9.74-3.62-11.37,6.63-19.28,17.29-18.65,3.89.23,7.47,2.07,10.97,2.43,4.64.48,4.94-2.25,7.11-5.14,2.41-3.22,7.15-6.9,11.26-7.33ZM203.25,66.89c-1.74.15-4.68,2.6-5.44,4.13-1.53,3.04-1.32,7.57,1.95,9.36,3.76,2.06,8.53,2.02,11.34-1.54,3.27-4.14.53-10.81-4.42-11.67-.6-.1-2.89-.33-3.43-.28ZM171.27,77.02c-5.86.86-9.28,7.8-5.13,12.36,7.62,8.37,21.16-5.45,10.74-11.29-1.96-1.1-3.32-1.41-5.62-1.08Z"/><path class="cls-4" d="M77.78,214.22c.98.64-.81,4.98-1.01,6.14-.14.81-.29,2.13-.32,2.96-.07,1.97.72,4.17-.26,5.76-.92.56-3.48-1.79-4.58-2.27-3.75-1.65-7.62-1.18-11.36.27-.74.29-1.58,1.35-2.26.77-.62-.96,2.21-5.86,2.62-7.24.57-1.95.67-4,.53-6.02-.12-1.75-1.32-4.32.14-5.6,1.72,1.82,4.33,3.52,6.76,4.17,3.25.87,6.47.56,9.73,1.06Z"/><path class="cls-4" d="M299.57,64.65c.7-.7,5.26,2.71,6.2,3.23,3.13,1.7,6.64,3.17,10.28,2.28l.7.7c.42,1.48-2.28,2.2-3.25,2.94-3.13,2.4-4.47,6.52-4.07,10.37.07.71,1.07,2.48.27,3.05s-5.25-1.4-6.72-1.52c-2.27-.18-4.72,1.01-6.55.81-2.87-.33,1.12-3.44,1.63-4.09,2.55-3.17,4.52-9.67,3.2-13.59-.26-.78-2.25-3.62-1.7-4.18Z"/><path class="cls-4" d="M397.16,335.56c.29.19,2.26,5.17,3.18,6.26,3.17,3.76,8.06,5.39,12.84,5.23,2.19-.07,4.18-1.03,1.76,2.03-1.39,1.75-3.12,3.24-4.43,5.14-1.21,1.76-1.82,3.84-3.09,5.39-.47.11-.53-.37-.69-.67-2.13-4.01-3.1-5.7-7.18-8.13-2.49-1.48-4.96-1.69-7.36-2.75-3.43-1.51-.36-2.86.88-4.45.82-1.05,1.76-2.83,2.2-4.08.27-.78.73-4.73,1.89-3.96Z"/><path class="cls-4" d="M440.41,278.65c-1.46-2.41-4.28-4.28-7.08-4.81-2.95-.56-6.5-.73-9.47-.31-1.39.2-2.83,1.24-4.15.54-1.05-.79,1.06-3.88,1.23-5.1s-.47-5.18,0-5.73c1.05-1.26,3.07.66,4.14,1.11,3.49,1.48,9.47,3.25,13.11,1.91.94-.35,3.21-2.41,3.69-2.32.56.11.45,1.6.41,2.05-.27,3.49-1.64,6.1-1.36,10.11.07,1.05,1.26,2.8-.52,2.56Z"/><path class="cls-4" d="M431.35,183.28c.16,4,.43,7.3,2.41,10.85.46.82,2.52,2.74,1.43,3.53-.81.59-3.84-1.36-4.93-1.67-4.51-1.25-9.79.7-13.6,3.1-.28.05-.96-.08-1.11-.29-.24-.33-.59-4.1-.95-5.19s-1.08-2.44-1.99-3.22c-.86-1.64,4.87-1.02,5.77-1.08,2.79-.19,7.31-1.25,9.43-3.15,1.19-1.06,1.76-3.24,3.55-2.88Z"/><path class="cls-4" d="M95.29,130.57c.3.18,2.06,5.22,2.82,6.34,1.12,1.64,4.64,4.44,6.57,4.91,1.74.43,5.27-.65,4.83,1.52-2.31.74-4.71,3.94-5.09,6.25-.23,1.37.43,3.01-.75,3.89-3.07-4.07-7.21-8.32-12.37-9.49-.71-.16-2.63.19-2.79-.78-.05-.31,2.29-2.17,2.78-2.92,1.56-2.42,3.04-6.87,2.96-9.76l1.05.04Z"/><path class="cls-4" d="M70.59,297c1.87-.24,4.82-1.55,6.4-2.62.75-.51,2.56-2.52,3.4-2.28l4,9.53c-1.26.52-2.61.16-3.92.32-2.65.32-5.38,1.92-7.64,3.3-2.08,1.27-4.08,3.44-6.48,3.77v-4.78c0-.46-.91-4.02-1.15-4.59-.41-.99-1.34-1.41-1.04-2.65,2.03-.18,4.45.25,6.43,0Z"/><path class="cls-4" d="M342.45,394.08c.56.35.01,2.78.07,3.61.22,3.2,2.01,7.68,4.08,10.14.28.83,3.56,3.51,3.56,3.84s-.18.52-.45.66c-3.31.97-6.49,2.53-8.86,5.08l-.94.16c-.6-.16-.05-6.44-.15-7.53-.27-3.04-2.24-6.74-3.68-9.44-.72-1.34-2.94-3.2-.96-4.23,1.15-.6,3.23-.97,4.57-1.44.73-.26,1.87-1.41,2.77-.84Z"/><path class="cls-4" d="M381.32,111.12c1.17-.24,1.21,1.05,1.69,1.73,1.88,2.72,2.61,4.31,5.78,5.7,1,.44,2.73.3,2.33,1.67-.32,1.12-1.96.61-2.8.76-3.75.7-7.17,2.51-9.41,5.63-.55.77-1.8,3.35-2.1,3.64-.26.25-.4.38-.79.26-1.6-2.25-3.41-3.99-5.76-5.46-.69-.43-2.57-.7-2.3-1.73.25-.96,3.53-1.34,4.53-1.77,3.41-1.46,8.65-6.47,8.84-10.44Z"/><path class="cls-4" d="M124.49,370.35c.15.18.25.37.31.6-3.63,2.38-7.13,3.92-9.01,8.15-.76,1.71-1.05,3.41-1.75,5.1-.8.16-1.68-1.63-2.17-2.18-1.42-1.61-3.56-4.25-5.09-5.57-.92-.79-3.48-1.39-1.22-2.37,4.56-1.97,7.33-.52,11.09-5.59.85-1.15,1.28-3.92,2.93-3.21.72.31,4.17,4.2,4.9,5.08Z"/><path class="cls-4" d="M188.83,430.95c-2.42-.74-4.09-3.1-6.45-4.07-1.38-.57-2.78-.58-4.21-.85-.24-1.19.8-.98,1.46-1.41,5.03-3.25,6.39-6.96,7.16-12.8,1.18-2.18,7.76,1.47,8.3,3.46-2.1,3.02-4.22,5.73-5.36,9.31-.74,2.31-.48,4.06-.89,6.36Z"/><path class="cls-4" d="M267.3,419.47c-.09,1.59-1.14,2.86-1.34,4.54-.3,2.58.27,4.59,1.21,6.94.41,1.03,3.32,6,2.85,6.55-3.05.41-6.03.27-9.01,1.24-.62.2-3.32,2.12-3.24.6.04-.8,1.59-3.19,2-4.3,1.29-3.53,1.54-7.98-.44-11.29-.54-.89-1.73-1.23-1.29-2.61l9.26-1.67Z"/><path class="cls-4" d="M227.08,58.4c.19,2.43-1.57,4.56-1.85,6.96-.38,3.26.24,7.09,2.2,9.77.44.6,1.32.55,1.01,1.63-.22.76-2.59,1.06-3.51,1.43-.84.33-4.34,2.94-4.37,1.11-.01-.76.98-2.8,1.1-4.11.37-4.21-.38-8.28-3.71-11.07-.61-.52-4.42-2.43-1.65-2.75,2.48-.29,4.3.51,6.81-.85,1.31-.71,2.42-2.88,3.97-2.11Z"/><path class="cls-4" d="M154.38,81.6c.87,3.36.56,7.07,2.15,10.29,1.19,2.41,3.57,3.31,5.22,5.18.11.6-3.62,2.55-4.34,2.99-.48.29-1.3,1.61-1.93.46-.35-.63-.49-2.93-.96-4.16-2-5.19-5.49-5.3-8.47-8.48-2.29-2.44,1.76-2.44,3.52-3.31.94-.47,4.24-3.38,4.81-2.97Z"/><path class="cls-4" d="M388.9,362.4c8.67-1.5,7.76,13.65-.54,10.8-4.2-1.44-4.82-9.87.54-10.8Z"/><path class="cls-4" d="M358.84,389.73c1.33-.1,2.64.96,3.34,1.99,3.01,4.4-2.93,10.75-6.52,6.8-2.6-2.86-.79-8.48,3.18-8.79Z"/><path class="cls-4" d="M80.77,316.47c2.79-.52,6.5,1.33,6.58,4.44.11,4.46-3.05,6.6-7.21,5.08s-3.31-8.79.63-9.52Z"/><path class="cls-4" d="M103.47,351.47c5.34-.73,7.96,4.06,4.28,7.83-2.07,2.13-4.6,2.09-7.04.52-3.5-2.26-1.14-7.82,2.76-8.36Z"/><path class="cls-4" d="M283.64,420.62c3.21-.66,6.53,1.09,6.06,4.7-.69,5.36-11.31,7.48-10.07-.23.24-1.52,2.5-4.15,4.01-4.46Z"/><path class="cls-4" d="M326.27,410.27c2.83,2.83.35,8.2-3.32,8.66-4.49.56-6.95-2.2-5.47-6.56,1.09-3.2,6.33-4.56,8.78-2.1Z"/><path class="cls-4" d="M426.36,285.04c5.91-.96,9.63,7.4,2.45,9.83-2.87.97-5.59-.3-5.94-3.47-.31-2.81.27-5.84,3.48-6.36Z"/><path class="cls-4" d="M413.24,323.85c4.36-.85,5.95,5.31,3.37,7.75-3.14,2.97-8.22,2.22-7.88-2.66.14-2.04,2.53-4.7,4.51-5.09Z"/><path class="cls-4" d="M136.79,384.85c1.35,1.38,1.72,3.29,1.4,5.17-.78,4.6-7.12,4.93-9.29,1.21-3.55-6.07,2.98-11.38,7.89-6.38Z"/><path class="cls-4" d="M168.81,406.41c2.07-.36,3.26-.04,4.56,1.6,1.92,2.42,1.74,5.74-.8,7.63-2.12,1.58-4.55.55-6.41-.97-3.29-2.7-1.25-7.59,2.65-8.26Z"/><path class="cls-4" d="M413.78,167.49c3.87-.8,8.24,2.46,5.54,6.36-1.65,2.39-6.15,2.17-7.62-.32-1.21-2.06-.5-5.52,2.07-6.05Z"/><path class="cls-4" d="M391.63,130.59c2.44-.5,4.8.13,5.86,2.49,2.85,6.3-6.42,8.44-8.63,3.44-1.07-2.42.08-5.37,2.77-5.92Z"/><path class="cls-4" d="M362.38,102.16c5.69-.98,7.33,6.2,2.26,8-6.59,2.33-8.37-6.95-2.26-8Z"/><path class="cls-4" d="M324.1,79.75c3.63-.75,6.83,1.71,6.37,5.55-.47,3.95-8.7,3.97-9.28-.85-.23-1.91.92-4.29,2.91-4.69Z"/><path class="cls-4" d="M72.29,193.19c6.75-1.74,6.71,10.55-.05,9.48-4.65-.73-3.56-8.55.05-9.48Z"/><path class="cls-4" d="M88.14,157.1c5.11-1.18,7.01,6.5,2.07,7.53-4.72.98-5.23-6.8-2.07-7.53Z"/><path class="cls-4" d="M430.19,244.58c4.61-.83,7.6,2.81,5.95,7.04-1.35,3.46-5.03,3.32-7.65,1.37-2.88-2.15-1.23-7.88,1.7-8.41Z"/><path class="cls-4" d="M427.73,207.95c4.25-.67,6.22,5.01,3.5,7.88-1.5,1.58-6.69.98-7.2-1.3-.57-2.56.88-6.13,3.7-6.58Z"/><path class="cls-4" d="M283.09,67.99c6.69-1.14,7.79,6.28,2.17,8.46-8.16,3.16-8.23-7.43-2.17-8.46Z"/><path class="cls-4" d="M242.36,63.35c4.08-.51,7.07,3.68,4.56,7.02-.63.83-2.58,2.23-3.6,2.41-7.15,1.22-8.33-8.51-.96-9.43Z"/><path class="cls-4" d="M243.17,427.46c6.57-1.36,6.4,8.57.47,8.69-4.93.1-4.49-7.86-.47-8.69Z"/><path class="cls-4" d="M207.1,423.08c2.55-.26,5.14,1.72,4.96,4.41-.23,3.3-2.83,4.45-5.84,3.99-4.17-.65-3.72-7.92.88-8.4Z"/><path class="cls-4" d="M64.25,245.52c-1.51-1.37-.55-6.08,1.76-6.68,4.17-1.08,6.7,4.89,3.07,7.16-1.11.7-3.9.35-4.82-.48Z"/><path class="cls-4" d="M72.27,284.06c-2.09,2.19-7.85,1.66-7.86-2.23-.01-4.38,4.55-6.49,7.68-3.56,1.47,1.38,1.53,4.37.17,5.79Z"/><path class="cls-4" d="M109.75,120.2c2.15-.43,5.18,1.48,5.52,3.64.92,5.87-5.48,9.3-8.06,3.96-.79-1.64-.8-2.41-.32-4.17.39-1.41,1.3-3.12,2.85-3.43Z"/><path class="cls-4" d="M138.74,98.61c3.85-.22,3.7,5.69.18,6.21-4.81.71-4.17-5.98-.18-6.21Z"/><path class="cls-4" d="M208.16,70.76c1.58,1.48,1.2,4.92-.44,6.34-3.43,2.95-8.8-.18-6.68-4.76,1.2-2.59,5.15-3.43,7.12-1.57Z"/><path class="cls-4" d="M172.38,79.22c8.83-.88,6.16,10.32-.31,10.2-5.93-.11-7.26-9.45.31-10.2Z"/><path class="cls-4" d="M161.27,361.35c-1.55,1.78-3.58,2.46-6.09,2.06-2.13-.35-4.15-1.36-6.05-3.02-1.66-1.45-2.65-3.13-2.96-5.05-.75.05-1.58-.12-2.49-.51-.83-.35-1.56-.8-2.18-1.35l-.22-.23,1.5-1.72c.63.32,1.28.41,1.97.25.69-.15,1.27-.51,1.75-1.05l8.3-9.52c.69-.79,1.08-1.55,1.18-2.29.1-.9-.26-1.63-1.08-2.18l1.43-1.65c.3.21.65.49,1.06.84,1.68,1.46,2.53,2.76,2.56,3.89,2.06.41,3.92,1.33,5.58,2.78,1.56,1.36,2.57,3.04,3.02,5.02.48,2.18.07,4.01-1.22,5.5-1.17,1.34-2.8,1.79-4.89,1.36.49,1.03.61,2.23.34,3.62-.25,1.29-.75,2.37-1.51,3.24ZM155.58,343.42c1.15-1.32,1.7-2.47,1.65-3.45-.1.51-.59,1.27-1.48,2.28l-7.38,8.46c-1.12,1.29-1.99,1.96-2.61,2.02.83.35,1.74-.04,2.74-1.19l7.08-8.12ZM157.3,357.75c.78-.89,1.11-1.92,1-3.1-.11-1.18-.62-2.16-1.53-2.95-.63-.55-1.46-.97-2.48-1.27l-3.47,3.98c-1.23,1.41-1.18,2.69.15,3.85.94.82,2.02,1.18,3.24,1.09,1.22-.09,2.25-.62,3.1-1.59ZM158.87,358.97c.72-.82.92-1.98.6-3.47-.07,1.19-.51,2.25-1.33,3.18-.79.9-1.82,1.46-3.11,1.67,1.67.1,2.95-.36,3.84-1.38ZM163.48,348.76c.65-.74,1.02-1.52,1.1-2.33.09-.91-.21-1.68-.91-2.29-.51-.44-1.06-.77-1.64-.96-.77-.21-1.36-.09-1.77.38l-3.79,4.35c.26.25.5.48.74.69,2.42,2.11,4.51,2.17,6.26.16ZM164.99,350.1c.67-.77.85-1.82.53-3.15.03,1.04-.35,2.02-1.14,2.92-.62.71-1.45,1.22-2.49,1.53,1.33-.03,2.36-.46,3.09-1.3Z"/><path class="cls-4" d="M189.64,383.43l-1.05,1.95c-.17-.04-.39-.14-.65-.28-1.79-.96-2.82-2.18-3.1-3.66-1.56.42-3.29.13-5.17-.88-.32-.17-.62-.36-.9-.56l1-1.87c.58.31,1.16.51,1.72.59.78.13,1.29-.03,1.54-.49.14-.26.21-.81.22-1.63-.02-.55-.04-1.1-.05-1.67l-8.76-4.7c-1.12.92-1.77,1.53-1.93,1.83-.63,1.18-.07,2.22,1.68,3.11l-1.01,1.88c-.29-.08-.63-.23-1.01-.43-1.3-.7-2.1-1.66-2.39-2.88-1.56.23-2.91.04-4.06-.58-.43-.23-.79-.53-1.08-.9l.99-1.84c1.4.68,2.68.56,3.83-.35,2.28-1.81,4.58-3.63,6.89-5.45,3.83-3.07,5.87-4.84,6.11-5.29.31-.59.09-1.08-.66-1.48-.23-.12-.46-.25-.71-.38l1.21-2.19c.43.11.9.31,1.43.59,1.73.93,2.72,2.19,2.96,3.77.66-.33,1.46-.45,2.4-.34.85.09,1.63.32,2.35.71.4.21.77.46,1.12.75l-1.1,2.05c-.48-.23-.95-.33-1.41-.28-.56.04-.95.28-1.19.72-.15.29-.23.66-.24,1.12l-.24,15.85c-.02,1.81.39,2.88,1.23,3.21ZM183.11,371.05l.22-8.1-5.96,5.02,5.74,3.08ZM184.61,378.55c.42-.77.63-1.53.65-2.28l.39-12.86c0-.44-.23-.97-.66-1.58l-.38,16.72Z"/><path class="cls-4" d="M220.22,386.37l-4.12,7.37-2.16-.6-.25-1.13c-1.77.22-3.51.09-5.22-.39-1.94-.54-3.26-1.52-3.98-2.94-1.24.88-2.53,1.13-3.87.75-.54-.15-1.04-.41-1.51-.79l.61-2.19c.87.24,1.66.08,2.37-.5.63-.51,1.07-1.2,1.31-2.08l3.3-11.86c.43-1.54-.28-2.7-2.12-3.5l.6-2.16c.44.03.93.12,1.49.27,1.77.49,3,1.38,3.69,2.66,1.21-.75,2.7-.88,4.47-.39.37.1.73.24,1.09.4l-.61,2.19-.09-.02c-.77-.26-1.45-.19-2.04.21-.59.4-1,1.01-1.22,1.82l-3.65,13.09c.69.72,1.6,1.24,2.73,1.55,2.64.73,5.19-.34,7.66-3.23l1.52,1.46ZM205.42,384.38l2.89-10.38c.15-.56.23-1.21.24-1.97,0-.84-.1-1.47-.33-1.89.13.5,0,1.4-.35,2.7l-3.01,10.81c-.46,1.65-.96,2.63-1.49,2.95.96-.02,1.64-.76,2.05-2.23Z"/><path class="cls-4" d="M244.6,374.15l-.86,7.87-2.47,1.05c.03-2.06,0-3.32-.07-3.78-.24-1.79-.89-2.75-1.98-2.87-.55-.06-1.09.1-1.62.48-.53.38-.82.84-.87,1.37l-1.4,12.89c-.08.76.04,1.44.37,2.04.34.68.88,1.04,1.62,1.08l-.24,2.2c-.35.07-.76.08-1.23.03-1.49-.16-2.58-.83-3.27-2-1.1.98-2.63,1.36-4.61,1.14-.26-.03-.52-.07-.79-.12l.24-2.16c.63-.04,1.16-.27,1.61-.68.44-.41.7-.93.77-1.54l1.48-13.62c.14-1.29-.35-2-1.48-2.13-1.21-.13-2.24.61-3.08,2.23-.6,1.16-1.01,2.46-1.23,3.91l-1.98-1.38.87-8.03,1.33-.34c.39.56,1.03.89,1.92.98.53.06,1.29-.06,2.27-.35.98-.29,1.75-.4,2.33-.34,1.17.13,1.99.68,2.46,1.66.27-.34.83-.61,1.67-.81.73-.19,1.36-.25,1.89-.19.68.07,1.41.38,2.18.91.77.53,1.36.83,1.76.87.51.06.83-.22.96-.83l1.47.45ZM232.06,390.08l1.17-10.71c.19-1.74-.04-3-.69-3.78.23.48.27,1.38.12,2.72l-1.22,11.16c-.18,1.7-.51,2.75-.99,3.15.9-.18,1.44-1.03,1.6-2.53Z"/><path class="cls-4" d="M261.57,375.3c-.68.06-1.23.32-1.64.79-.41.46-.6,1.04-.56,1.72l.8,14.11c.08,1.5.85,2.31,2.29,2.44l.12,2.05c-.29.08-.66.13-1.08.16-1.83.1-3.28-.42-4.33-1.58-.33.6-.87,1.08-1.62,1.46-.75.37-1.49.57-2.21.59h-.64s-.12-2.11-.12-2.11c.68-.08,1.2-.4,1.57-.96.37-.56.53-1.19.49-1.89l-.75-13.16c-.13-2.24-1.04-3.25-2.74-3.02l-.12-2.15c.48-.24,1.06-.38,1.75-.42,1.35-.08,2.54.37,3.59,1.34.76-1.07,1.96-1.65,3.61-1.75.47-.03.97,0,1.49.1l.13,2.28ZM256.63,390.65l-.61-10.76c-.03-.6-.17-1.24-.4-1.94-.24-.8-.54-1.36-.9-1.68.3.43.49,1.32.57,2.67l.64,11.21c.1,1.71-.06,2.8-.46,3.27.44-.18.76-.58.96-1.21.16-.5.23-1.02.2-1.55Z"/><path class="cls-4" d="M301.65,385.62l.58,2.24c-.34.16-.76.3-1.28.45-1.92.52-3.48.41-4.67-.33-.3.61-.92,1.2-1.85,1.75-.77.44-1.57.78-2.42,1.01-.41.11-.84.21-1.29.28l-.61-2.23c.91-.33,1.57-.91,1.99-1.73.42-.82.5-1.7.24-2.65l-2.26-8.31-4.18,10.54-9.42-8.01,2.61,9.62c.44,1.61,1.65,2.44,3.64,2.5l.61,2.26c-.32.13-.72.26-1.19.39-1.67.45-2.91.34-3.72-.35-.59,1.07-1.62,1.8-3.06,2.19-.29.08-.59.14-.91.18l-.67-2.48c.81-.29,1.42-.78,1.83-1.47.41-.7.5-1.46.27-2.31l-3.07-11.32c-.61-2.24-1.83-3.1-3.66-2.58l-.66-2.45,7.6-2.06,8.82,7.75,4.43-11.35,6.26-1.7.78,2.75c-.69.16-1.17.53-1.46,1.09-.29.57-.34,1.19-.16,1.87l3.24,11.91c.48,1.75,1.69,2.6,3.64,2.53ZM285.4,383.32l-8.32-7.14c-.46-.39-.95-.53-1.47-.44l9.44,8.24.35-.66ZM294.55,383.73l-3.13-11.51-.4.97,2.8,10.31c.47,1.71.27,2.98-.59,3.82.58-.38.99-.91,1.23-1.58.24-.67.27-1.34.09-2Z"/><path class="cls-4" d="M323.58,363.9c1.51,2.85,2.04,5.76,1.59,8.7-.51,3.24-2.14,5.6-4.9,7.06-2.66,1.41-5.48,1.41-8.45,0-2.72-1.29-4.81-3.32-6.27-6.08-1.5-2.83-2.01-5.74-1.52-8.7.53-3.25,2.17-5.61,4.93-7.07,2.66-1.41,5.47-1.41,8.42,0,2.67,1.3,4.74,3.32,6.19,6.08ZM314.72,379.44c-3.27-2.02-5.68-4.49-7.23-7.42-1.36-2.57-1.98-5.37-1.87-8.41-.33,1.43-.37,3.02-.12,4.75.25,1.73.73,3.26,1.43,4.58,1.55,2.93,4.15,5.1,7.8,6.5ZM318.16,367.59c-.97-1.83-2.04-3.44-3.21-4.82-1.84-2.14-3.36-2.9-4.55-2.26-1.41.74-1.81,2.41-1.22,4.99.39,1.61,1.12,3.42,2.19,5.44.86,1.62,1.96,3.11,3.3,4.45,1.81,1.82,3.33,2.41,4.54,1.76,2.09-1.1,1.74-4.29-1.05-9.55ZM320.42,366.3c-1.53-2.89-3.83-5.09-6.91-6.61l.14.07c2.37,1.77,4.31,4.1,5.84,6.99,1.59,3,2.36,5.78,2.3,8.32.58-3.02.12-5.94-1.38-8.78Z"/><path class="cls-4" d="M352.89,351.08c.7.84.94,1.82.73,2.94-.21,1.13-.75,2.05-1.6,2.76-1.53,1.28-3.22,1.6-5.09.96-1.51-.8-3-1.6-4.48-2.4-1.61-.85-2.87-.9-3.79-.13-.31.26-.54.57-.7.92-.18.46-.14.83.11,1.12l1.85,2.21c.49.59,1.12.96,1.86,1.12s1.41,0,2-.46l1.61,1.92c-.27.34-.63.69-1.07,1.07-1.34,1.13-2.59,1.45-3.75.97.07,1.48-.51,2.73-1.74,3.76-.44.37-.97.67-1.58.91l-1.34-1.6c.47-.5.7-1.09.69-1.77,0-.67-.23-1.28-.67-1.8l-8.45-10.09c-1.12-1.34-2.12-1.65-2.99-.92-.16.14-.32.32-.46.55l-1.6-1.92c.37-.76.91-1.43,1.61-2.02,1.26-1.06,2.65-1.36,4.18-.91.08-.9.42-1.88,1.01-2.94.57-.98,1.23-1.78,1.96-2.4,1.74-1.46,3.65-2.08,5.74-1.86,2.09.22,3.86,1.19,5.32,2.93.88,1.05,1.32,2.21,1.32,3.48,0,1.27-.43,2.43-1.3,3.49,1.1-.25,2.27-.16,3.5.29.92.43,1.82.84,2.71,1.22.89.38,1.54.4,1.95.06.54-.45.66-1.41.37-2.86.91.35,1.6.82,2.08,1.39ZM337.05,361.59l-7.04-8.4c-.38-.46-.87-.89-1.46-1.29-.69-.46-1.28-.71-1.78-.77.48.18,1.16.79,2.03,1.82l7.32,8.74c1.1,1.31,1.63,2.28,1.59,2.9.23-.42.25-.95.05-1.59-.15-.55-.39-1.02-.72-1.41ZM337.38,346.55c-.62-.74-1.27-1.19-1.97-1.36-.79-.21-1.53-.01-2.24.58-1.77,1.48-2.02,2.98-.76,4.48l3.3,3.93c.39-.19.74-.41,1.04-.66,1.15-.96,1.78-2.08,1.9-3.35.12-1.27-.3-2.48-1.26-3.63ZM339.04,345.03c-.74-.88-1.88-1.23-3.42-1.03,1.22.26,2.26.9,3.11,1.91.66.79,1.05,1.72,1.18,2.81.21-1.51-.08-2.75-.88-3.7ZM349.97,356.08c-.89.1-2.28-.39-4.17-1.48-1.78-1.02-3.11-1.37-4.01-1.04.38-.04,1.16.29,2.33.98,1.5.89,2.53,1.45,3.11,1.66,1.19.45,2.1.41,2.74-.12Z"/><path class="cls-4" d="M368.55,325.86l5.76,5.23-1.07,1.36-1.7-.23c-.29,1.97-1.06,3.75-2.29,5.33-1.2,1.53-2.7,2.46-4.5,2.79.12,1.83-.29,3.33-1.21,4.51-.22.29-.48.53-.78.73l-1.87-1.46c.41-.52.41-1.16,0-1.91-.3-.59-.74-1.11-1.33-1.57l-9.22-7.21c-.84-.66-1.65-1.06-2.43-1.2-1.03-.2-1.79.13-2.27.98l-1.84-1.44.37-.53c1.56-2.09,2.93-2.97,4.13-2.63.12-1.92.75-3.61,1.89-5.07.42-.54,1.1-1.14,2.03-1.79.93-.66,1.54-1.16,1.81-1.51.49-.62.51-1.19.07-1.7l1.76-.86,3.9,3.01-.68,1.79c-.96-.48-1.97-.55-3.04-.22-1.07.33-1.94.92-2.61,1.78-.95,1.21-1.26,2.31-.94,3.29.25.72.95,1.51,2.08,2.4.22.17.56.44,1.04.81.47.34.83.61,1.08.8.37-.2.7-.47.97-.83.9-1.15.54-2.4-1.08-3.77l1.46-1.71c.15.09.33.22.55.39,1.67,1.3,2.3,2.4,1.91,3.28,1.21-.33,2.49-.03,3.86.9l-1.58,2.02c-.78-.23-1.33-.33-1.64-.31-.48.06-.94.39-1.41.98-.3.39-.4.77-.29,1.15,1.84,1.44,3.08,2.31,3.72,2.62,1.77.87,3.14.69,4.1-.54,1.04-1.33,1.52-2.68,1.45-4.03-.05-1.45-.72-2.72-2-3.8l1.85-1.85ZM352.29,332.29c-.47-.37-1.04-.7-1.7-1-.77-.33-1.39-.48-1.86-.44.51.08,1.3.53,2.36,1.36l8.84,6.91c1.35,1.05,2.06,1.89,2.16,2.5.32-.86-.12-1.76-1.31-2.69l-8.49-6.64Z"/><path class="cls-4" d="M385,307.48l-.16.34c-2.77-1.27-5.66-1.35-8.68-.24-3.02,1.12-5.17,3.06-6.44,5.83l-.34-.16c1.27-2.77,1.35-5.66.23-8.69-1.12-3.02-3.06-5.17-5.82-6.44l.16-.34c2.77,1.27,5.66,1.36,8.68.24,3.02-1.12,5.16-3.06,6.44-5.83l.34.16c-1.27,2.77-1.35,5.66-.24,8.68s3.06,5.17,5.83,6.44Z"/><path class="cls-4" d="M398.68,255.38l2.27.41c0,.37-.04.82-.13,1.34-.33,1.96-1.08,3.33-2.25,4.11.43.53.7,1.33.81,2.41.08.88.05,1.75-.1,2.62-.07.42-.17.85-.28,1.29l-2.28-.38c.08-.96-.17-1.81-.74-2.53-.57-.72-1.33-1.17-2.3-1.33l-8.49-1.43,7.82,8.22-11.22,5.2,9.83,1.66c1.64.28,2.91-.47,3.8-2.25l2.31.39c-.02.34-.06.76-.15,1.24-.29,1.71-.91,2.78-1.88,3.23.72.99.96,2.22.71,3.7-.05.29-.12.6-.22.91l-2.53-.43c.08-.85-.11-1.61-.57-2.28-.46-.66-1.12-1.07-1.98-1.21l-11.56-1.95c-2.29-.38-3.58.36-3.88,2.24l-2.5-.42,1.31-7.76,10.74-4.76-8.45-8.78,1.08-6.4,2.82.45c-.14.69-.01,1.29.38,1.79.39.5.94.81,1.63.93l12.18,2.05c1.79.3,3.07-.45,3.83-2.25ZM389.78,269.17l-9.97,4.56c-.55.25-.88.64-1.01,1.16l11.44-5.12-.45-.59ZM393.98,261.03l-11.76-1.99.72.77,10.53,1.78c1.75.3,2.82,1.01,3.22,2.14-.1-.69-.41-1.28-.92-1.78-.51-.5-1.1-.8-1.78-.92Z"/><path class="cls-4" d="M387.69,224.21c3.47-.25,6.29.27,8.48,1.55,2.57,1.51,3.97,3.92,4.21,7.22.17,2.39-.36,4.21-1.6,5.45.65.45,1.19,1.09,1.6,1.93.41.84.65,1.67.71,2.5.02.3.02.59,0,.87l-2.04.15c-.2-.69-.6-1.24-1.19-1.65-.59-.41-1.26-.58-2.01-.53l-12.53.9c-1.02.07-1.85.28-2.49.63-.86.49-1.2,1.18-1.01,2.06l-2.2.16c-.09-.34-.15-.75-.19-1.24-.14-1.94.35-3.24,1.46-3.9-1.24-1.22-1.95-3.01-2.12-5.38-.24-3.35.72-5.96,2.87-7.83,1.91-1.68,4.6-2.64,8.07-2.89ZM387.47,230.17c-1.96.14-3.7.5-5.23,1.09-2.27.85-3.36,2.01-3.26,3.46.13,1.86,1.34,2.71,3.62,2.55l11.96-.86c.77-.05,1.44-.26,2.01-.63.7-.46,1.02-1.04.97-1.75-.13-1.8-1.48-2.99-4.05-3.55-1.64-.38-3.65-.48-6.04-.31ZM384.2,240.54c-1.77.13-2.97.55-3.61,1.26.43-.29,1.32-.48,2.66-.58l11.2-.8c1.71-.12,2.8.01,3.28.41-.34-.81-1.26-1.16-2.78-1.06l-10.75.77ZM387.84,228.12c-4.07.29-6.8,1.32-8.17,3.09,2.07-1.31,4.72-2.07,7.94-2.3,3.6-.26,6.53.12,8.76,1.14-1.59-1.58-4.44-2.22-8.53-1.93Z"/><path class="cls-4" d="M142.96,288.33c-.42-.19-.54.09-.83.23-7.61,3.88-15.86,8.07-23.66,13.58-1.21.86-1.45,2.46-.31,3.99,1.48-1,3-2.02,4.52-.46,1.08,1.11.71,1.79-.29,2.79-.49.49-4.8,3.26-5.47,3.55-3.21,1.38-6.09-1.95-2.65-4.12-2.03-2.79-3.2-5.7-.94-8.78.92-1.26,3.97-3.42,5.37-4.35,9.54-6.32,20.53-11.41,30.01-17.75,2.13-1.43,2.46-2.27,3.39-4.66,1.37-3.51,2.15-7.36,3.77-10.82,1.86-3.96,5.88-6.27,6.56-10.77-2.59-.42-4.87-2.71-6.14-4.91-3.81-6.57-3.09-16.54,1.36-22.64,1.57-2.15,2.81-1.62,4.11-2.66.92-.74-.34-2.94-.48-4.07-.15-1.28.15-2.79.08-4.01-.14-2.47-1.02-5.04.06-7.43,1.54-3.42,6.22-7.73,8.54-11.24,3.7-5.59,4.68-10.19,9.98-14.9,1.8-1.6,4.72-2.77,6.75-4.26,2.47-1.81,2.14-1.68,4.97-3.01,4.91-2.31,10.45-11.99,15.01-16.21,5.09-4.71,16.07-12.16,22.77-13.57,12.2-2.57,27.44,1.02,39.99,1.87,3.78.26,7.68-.15,11.42.3,10.94,1.3,21.24,4.29,31.23,8.87,8.92,4.09,24.14,20.59,28.52,29.42,1.11,2.24,1.7,4.85,3.02,6.93,4.16,6.56,9.84,12.54,11.71,20.31,1.2,4.97.94,10.59,1.75,15.72.63,3.99,2.03,7.36,1.82,11.5-.23,4.36-1.64,8.56-2.08,12.86-.29,2.83.22,6.04.13,8.92-.33,10.6-4.59,25.9-9.85,35.13-5.62,9.86-13.55,18.26-21.58,26.17-9.96,9.8-22.59,22.68-36.33,26.14-4.12,1.04-13.14,1.74-17.35,1.31s-8.18-2.11-12.39-.75l-10.21,7.53c-1.19.67-3.87,1.42-5.22,1.36-11.28-.44-22.28-3.74-33.11-6.89-14.75-4.3-28.94-8.99-42.14-16.98-6.28-3.8-11.94-8.58-18-12.69-5.31-3.6-10.76-5.33-13.3-11.97-2.48-6.49,2.99-13.04,5.49-18.61ZM281.63,331.98c.86.17,1.71.36,2.59.41,3.48.2,12.68-1.4,15.55-3.29,3.86-2.54,11.12-9.52,14.62-12.96,1.93-1.9,3.4-4.06,5.42-5.87,4.96-4.44,10.71-8.49,15.06-13.58,4.02-4.71,7.05-13.09,9.35-19.01,2.79-7.18,4.67-18.24,5.16-25.98.15-2.42-.46-5.29-.53-7.77-.22-8.08,2.21-15.91,2.25-23.97.04-8.46-9.44-16.62-12.99-23.83-2.5-5.09-3.71-8.29-7.27-13.03-6.69-8.89-17.47-19.74-27.82-23.97-7.62-3.11-20.64-6.78-28.78-7.48-2.32-.2-5.2.44-7.66.37-8.37-.26-16.8-1.38-25.09-2.26-12.27-1.31-19.75,1.78-28.97,9.36-3.83,3.15-7,7.03-10.1,10.89,2.22.85,4.72.36,7.04.64,1.8.22,6.71.99,7.93,2.04,1.15.99,1.83,3.3,2.04,4.77-.77.3-1.59.56-2.41.67-4.15.54-7.7-.06-11.73-.42-2.4-.22-4.9.82-7.27,1.26-1.05.2-2.55.05-3.51.32-1.28.36-3.13,1.94-4.63,2.53-1.96.77-5.62.97-7.14,1.94-.28.18-4.01,4.57-4.33,5.05-1.11,1.67-1.75,3.91-2.84,5.78-1.01,1.74-2.6,4.02-3.81,5.65-2.18,2.93-7.13,7.45-7.21,11.15-.02.82,1.28,7.88,1.57,8.17,3.24.7,6.64-.61,9.73,1,2.08,1.08,2.51,2.69,3.01,4.86-2.03-.09-3.8.76-5.69,1.16-3.65.76-9.79.85-11.64,4.49-1.28,2.52-2.42,5.95-2.8,8.74-.07.54-.38,3.55-.3,3.72.43.95,3.67-.24,4.5-.54,1.15-.41,2.24-1.01,3.33-1.55-.57-.4-.54-1.42-.78-1.77-.23-.33-1.02-.49-1.17-1.06-.41-1.52.37-1.65,1.59-1.53,2.82.27,5.5,1.82,8.23,2.06,1.05.09,1.86-.38,2.68-.29,2.58.27-.03,3.59-.8,4.63-2.1,2.87-4.78,5.31-6.98,8.08-1.26,1.6-3.64,4.17-2.53,6.22l2.06-.59c.15-.91,1-1.84,1.24-2.59.42-1.26.36-3.41.89-4.46.17-.34,3.85-2.86,4.43-3.15.68-.34,1.5-.34,1.01.5-.52.9-1.97,1.74-.43,2.6,1.19-.54,1.45-1.94,2.04-2.97,1.39-.13,1.58,1.53,2.64,1.79.65.16,2.6-.19,3.2-.5,1.56-.81-.31-3.32,1.06-4.2,2.09,1.64,1.29,4.38,1.52,6.64.11,1.06.65,2.02.58,3.12.17.48.75.08,1.06-.07,2.55-1.21,6.44-3.68,8.93-5.24.63-.39,1.29-.84,1.81-1.36-3.13-.31-5.25,2.08-8.04-.08-1.89-1.47-1.72-2.68-2.24-4.61-.18-.68-.77-1.03-.73-1.92.07-1.91,1.52-2.02,1.86-3.04s-.43-2.04.29-3.71c.69-1.6,5.78-7.12,7.25-8.63,3.14-3.22,7.97-7.72,11.53-10.41,4.76-3.6,6.12-2.12,7.53,3.16,1.74,6.5.53,13.09-.8,19.57l4.08-2.56c.5-4.01.68-8.38,3.27-11.69,1.15.06,1.35.93,1.52,1.88.38,2.11.36,4.88-.06,6.96l8.86-4.87c.54-.72-.12-2.67-.13-3.65-.02-2.14.42-5.2.96-7.27.34-1.3,2.27-4.61,2.24-5.24-.03-.51-1.84-3.86-2.23-4.64-.86-1.71-2.32-3.75-3.01-5.4-.15-.36-.35-.73-.16-1.13l.72-.57,5.63,10.42c2.01-3.22,5.21-5.16,7.97-7.54-.21-10.81-1.6-21.56-1.51-32.4-.36-.36-3.93.54-4.64.72-2.38.59-4.96,1.41-7.34,2.12-1.76.52-9.27,3.5-10.52,2.85-.35-.26-.42-.48-.23-.89.74-1.56,14.9-5.35,17.29-5.87,44.24-9.62,84.58,17.03,96.76,59.55,1.77,6.16,2.91,12.33,2.55,18.8-.5-.07-1.06-.08-1.13-.65l-1.76-15.53c-10.35,2.57-20.39,6.41-30.94,8.1l-.91-1.34c3.27-1.15,6.78-1.4,10.14-2.2,6.98-1.65,13.8-4.03,20.82-5.54l.55-.49c-3.87-13.74-11.02-26.57-20.95-36.83-4.62,5.16-9.16,10.44-14.11,15.28-2.75,2.69-10.11,8.18-11.64,10.88-1.73,3.05-3.68,7.93-4.52,11.32-1.02,4.09-1.49,8.37-3.05,12.34,1.54-.2,11.52-3.54,12.02-2.98-.74,1.65-1.93,1.19-3.39,1.62-1.52.45-9.31,2.79-9.87,3.55-1.02,1.37-1.41,2.73-2.93,4.06-.8.7-5.62,2.1-6.83,2.22-6.04.61-12.14-2.22-17.51-4.59-4.63-2.04-12.71-5.55-15.49-9.8-.38-.58-1.42-3.35-1.83-3.33l-9.86,5.9c-.64,1.03-.7,3.28-1.87,3.91-.51.28-2.22.42-3.05.68-.27.08-1.76,1.11-1.39.23.13-.31.78-.89.01-.95-.97.82-3.22,1.59-4,2.5-.61.72-.56,2.23-1.19,3.38-.4.73-1.74,2.07-2.47,2.48-2.36,1.31-4.67-.27-6.62.28l-9.63,6.03.61,2.11c-1.09-.23-5.21,2.27-5.51,3.03-.17.41-.14.94-.26,1.38-1.51.18-1.25-2.47-2-2.44-.17,0-2.83,1.72-2.83,1.91.9,1.41,1.21,3.16,1.18,4.81,1.1-.28,2.1-.68,3.23-.9.76-.15,3.32-.56,3.91-.39,1.37.4,1.76,4.23,2.08,4.29,1.29-.82,4.88-2.39,6.29-1.91,1.18.41,1.8,4.53,1.73,5.74,1.34-.26,2.33-1.19,3.74-1.44,4.66-.82,3.51,3.09,4.65,6.11,1.14-.6,4.64-2.56,5.79-2.01,1.47.71,2.47,6.09,2.82,6.18,4.43-1.77,4.81.56,6.44,3.98,2.16-.18,3.23-1.09,4.72,1.25-.34-1.92,1.96-3.33,2.37-4.39.23-.59.53-2.35.58-3.01.1-1.58-1.99-4.82-1.26-6.27.62-1.23,2.41-2.14,3.73-1.47-.5,1.11-.34,3.13.86,3.8.25-1.5-.3-3.37,1.59-3.93.31-.09,1.66-.21,1.89-.11.7.28-.26.84-.25,1.28.02,1.02,3.83,3.58,4.83,3.93,4,1.41,11.57-.47,14.2,3.21.47.66.61,1.57,1.13,2.3,1.92,2.73,7.16,5.24,9.98,7.43,4.21,3.27,6.25,6.1,11.53,8.35,1.68.71,2.95,1.53,4.66.49,5.27-3.19,6.75-7.1,6.69-13.12-.03-2.69-2.22-7.04-4.34-8.66-.88-.67-2.01-.89-2.92-1.51-.86-.58-1.81-2.01-2.57-2.41-1.11-.58-2.54-.55-3.46-1.8-1.41-1.9-.74-7.6-.11-9.76,1.64-5.62,3.52-6.61,7.2-10.31,2.97-2.99,2.44-8.6,4.99-11.92.53-.68,1.31-1.03,1.68-1.72.5-.95.44-2.02.79-3,.78-2.2,1.95-3.73,4.36-2.66,2.59,1.15,4.25,9.52,5.53,12.25,2.06,4.39,3.56.51,6.35.58,1.52.04,2.69.68,3.78,1.68,3.22-2.89,4.67-1.22,4.6,2.57-.05,2.92-.7,7.18-1.07,10.21-.07.56-.44.98-.52,1.64-.35,3.04,1.64.75,2.55-.28,2.89-3.27,8.64-14.02,9.91-18.2.62-2.05.36-4.6.94-6.32.09-.27,0-.53.44-.3.2.11,3.36,2.69,3.5,2.87.69.83,1.03,4.48,1.01,5.68-.03,2.55-.31,6.98-.68,9.48-.07.48-.49.84-.51,1.34,1.37-.46,3.34-6.53,3.95-6.56.83-.04,1.09,4.06,1.04,4.78-.41,6.21-3.07,10.15-5.33,15.52-1.08,2.58-1.88,5.27-2.96,7.84-4.75,11.3-14.77,20.7-23.95,28.48-1.24,1.05-3.71,3.1-4.01,4.72-.43,2.33,1.9,3.06-.72,5.66s-9.96,6.54-13.39,8.66c-2.48,1.54-5.94,2.72-7.29,5.55ZM276.04,210.08l17.91-31.97c-.02-.54-7.69-4.05-8.81-4.5-6.4-2.63-14.87-5.05-21.77-5.43-1.64-.09-3.28.09-4.9.23l-1.15,32.84c.24.56,9.78,3.93,11.22,4.65,2.55,1.28,4.75,3.25,7.51,4.18ZM251.95,200.15c1.12.03,2.5.59,3.65.68l1.71-32.51c-1.6-.07-12.5.42-12.84,1.39l1.88,31.75c1.71-.2,3.86-1.36,5.58-1.31ZM303.28,183.9l-8.48-5.45c-.71-.03-3.84,7.05-4.43,8.17-3.22,6.14-6.96,11.99-10.2,18.09-.46.87-3.13,5.87-2.95,6.32,3.51,2.04,5.31,5.62,6.03,9.49,1.01-.8,2.25-1.81,2.95-2.89,1.96-3.01,3.51-7.61,5.21-10.96,3.12-6.15,6.23-12.43,9.48-18.5.41-.76,2.57-3.82,2.39-4.28ZM289.24,214.87c8.63-6.46,15.5-14.92,23.16-22.45.19-.49-2.49-2.87-3.03-3.37-.7-.65-4.95-4.5-5.43-4.28-2.04,3.35-3.43,7.05-5.17,10.55-3.22,6.49-6.88,12.79-9.54,19.54ZM118.06,299.44c40.67-23.4,80.22-48.77,120.91-72.13,1.39-.8,8.59-5.12,9.48-5.11.6,0,.91.53,1.46.26,1.27-.61.67-1.82-.31-2.41-23.76,13.7-47.32,27.76-70.96,41.68-17.8,10.48-35.77,20.59-53.28,31.55-2.49,1.56-9.31,4.94-10.72,7.12-2.02,3.13-.26,5.78,1.24,8.62l-1.31,1.67c.38.51,4.87-2.54,5.05-3.36-.33-.18-.77.2-1.23.16-1.37-.12-2.24-1.88-2.53-3.07-.61-2.45.44-3.44,2.18-4.97ZM265.76,230.13c-3.49-.28-6.28,2.9-7.05,6.05-1.49,6.06,6.57,12.4,11.63,7.32,4.83-4.85,1.99-12.84-4.58-13.36ZM181.42,253.78l-1-.19c.29,1.86-3.34,3.17-3.38,4.39-.02.41.42,1.01.2,1.54.38.49,2.72-.88,2.96-1.26.17-.28-.11-1.93.11-2.73.25-.89.84-1,1.12-1.75ZM173.12,253.54c-1.66.3-3.48,1.7-3.52,3.51l2.35-.1,1.17-3.42ZM176.01,254.86c-.4-.17-.54.04-.82.24-.36.26-2.65,1.99-2.72,2.15-.22.47.31,1.32.58,1.74.3.13,2.23-.93,2.4-1.3.22-.49-.17-1.07-.09-1.53s.63-.79.65-1.31ZM170.4,259.81c-1.03-.1-2.4.31-3.17.99-.23.21-3.48,4.7-3.61,4.98-.23.49-.25,1.04-.35,1.57l4.32-5.07,2.81-2.47ZM164.57,260.29c-.63-.24-.47.04-.71.39-.8,1.14-1.58,2.31-2.35,3.47.49.2.63-.13.91-.43.72-.76,1.65-2.44,2.14-3.43ZM179.03,274.91c.93-1.82,4.3-5.73,4.32-7.62,0-.27-.02-.56-.29-.68s-4.3.17-4.79.33c-.93.31-1.11.8-1.55,1.58-.39.69-2.17,4.42-1.96,4.87s3.74,1.72,4.26,1.51ZM187.85,279.42l4.61-7.87c.22-.7-.04-1.84-.8-2.08-.9-.29-5.55.44-6.31,1.04-1.01.8-2.44,5.17-3.52,6.4-.16.55,0,.29.29.44.65.33,5.41,2.19,5.72,2.06ZM200.62,272.45c-2.22-.2-4.29.76-6.42,1.19l-3.35,7.15c-.49,1.07,2.96,2.07,3.78,2.26,2.24.52,2.38-.27,3.39-2.1.54-.98,2.63-4.74,2.83-5.51.25-.96-.24-2.03-.23-3ZM233.34,290.42l3.44.83c.61-1,1.69-1.68,2.03-2.84.36-1.23-.1-5.59-.83-6.57-.24-.32-1.22-1.29-1.45-.54-.31.97.04,1.9-.35,3-.41,1.17-3.72,5.21-2.84,6.13ZM199.41,284.94c1.18.82,4.5,2.47,5.78,1.62,1.09-.72,3.45-6.93,3.49-8.32,0-.32-.06-.93-.29-1.13-.6-.53-5.4.66-6.11,1.36-.47.47-3.01,6.06-2.85,6.46ZM160.33,269.15l-2.01-.37-.77,2.72c.22.38,3.03-1.5,2.78-2.35ZM216.48,279.8c-.41-.44-1.79,1.17-2.2,1.43-.46.29-2.6,1.23-2.71,1.47-.03.31.06.62-.04.93-.28.9-2.04,5.56-2.02,5.9.08,1.48,3.75,2.07,4.92,1.43l2.58-5.94-.53-5.22ZM239.17,293.89c.96.37,1.99.82,3.05.78,3.6-.15,6.26-12.38.11-7.83l-3.16,7.05ZM172,274.76c-.37-.56-4.17-.73-4.3-.44l-1.59,5.92,1.23,4,2.34-.77c.35-2.46,1.98-5.25,2.44-7.57.07-.37.04-.78-.12-1.12ZM165.28,274.75c-.68.4-4.09,2.06-4.32,2.51-.46.87-.31,3.24.38,4.05,2.36-1.78,3.87-3.41,3.95-6.56ZM221.19,296.57c.32-2.16,3-4.76,3.32-6.82.08-.55-.82-3.68-1.48-3.79-.87.91-2.2,1.5-3.5,1.47l-2.16,7.25c1.39.39,2.7.94,3.82,1.88ZM173.02,286.59l3.99-.7c.76-.96,3.12-5.79,2.31-6.6l-4.93-1.53c-.63,2.96-2.82,5.87-1.37,8.83ZM229.23,289.72c-.25-.25-2.27,1.11-2.47,1.38-.33.46-.61,2.95-.89,3.79-.5,1.43-1.49,2.42-2.18,3.7l3.02.56c.39-2.4,2.82-5.04,3.16-7.37.12-.81-.67-1.28-.63-2.05ZM186.54,283.45c-.67-.77-3.23-1.06-4.15-1.86l-1.75.47c.25,2.12-1.26,3.91-1.78,5.89,2.07,1.56,2.4,2.28,4.8.88,1.6-.94,4.55-3.45,2.89-5.38ZM160.64,283.44c-.75-.98-1.26-3-1.82-4.15-.49-.25-3.59,1.15-4.05,1.76-2.39,5.58-5.78,10.66-8.55,16.03-.51.99-2.19,4.06-2.35,4.9-.21,1.17,5.44,5.36,6.5,6.43,1.12,1.13,2.05,2.71,3.2,3.73,2.55,2.25,9.19,6.16,12.35,8,13.88,8.09,28.11,12.61,43.41,17.22,7.26,2.19,14.67,4.6,22.1,5.92,4.52.8,8.69.37,13.22.05.72-.05,5.86-.93,6.27-1.12.89-.42,4.24-3.21,5.15-4.02,5.96-5.28,13.24-12.05,17.87-18.46.97-1.34,5.24-7.47,5.55-8.57.14-.49.2-4.28.04-4.44-1.54-.57-3.08-.26-4.7-.73-4.32-1.24-4.44-6.7-6.72-7.48-3.69-1.27-2.79,4.18-1.88,6.14,1.66,3.57,8.13,2.64,7.66,8.37-.48,5.8-7.42,7.18-10.83,11.04-1.41,1.59-2.37,3.85-3.82,5.63-3.69,4.55-11.92,10.85-18.05,10.21-4.22-.44-8.42-1.79-12.55-2.6-2.19-.43-5.57-.18-7.23-1.63-.52-.45-.67-1.25-1.33-1.5-1.51-.59-4.04-.44-5.53-1.03-.53-.21-.59-.72-.93-.9-.95-.49-3.34-.07-2.74-1.87.52-.49,8.64,1.52,10.14,1.63s2.85-.83,4.07-.79c2.92.08,7.45,1.64,10.07,1.53.69-.03,2.18-.85,2.99-1.09,3.77-1.11,6.58-1.97,10-4,4.79-2.84,8.97-6.79,12.26-11.27.78-1.06,3.34-4.04,2.54-5.27-.51-.77-1.77.11-2.31.49-3.19,2.27-4.91,5.62-9.09,7.56-1.34.62-3.31.71-3.05-1.21.18-1.3,1.09-1.01,1.84-1.52s6.02-7.41,6.68-8.51c.94-1.56,1.71-3.32,1.6-5.16-2.19-.71-4.04,1.38-5.42,2.81-4.75,4.94-7.11,11.7-15.54,9.72-1.6-.38-2.4-1.22-3.4-1.63-.51-.21-1.34.13-2.19-.25-.48-.21-.75-.84-1.18-.94-.46-.1-1.03.33-1.5.36-2.44.18-4.55-.13-5.98-2.28l.63-1.19c-.29-.42-1.66.96-2.02,1.06-1.55.4-3.9-2.24-4-3.73-2.15.35-2.95,1.96-5.22.84-2.09-1.03-2.1-3.19-3.59-4.8-.35-.13-1.01.55-1.44.71-3.32,1.29-6.66-2.43-5.56-5.67-1.7.85-2.99,2.43-5.06,2.39-1.92-.04-4.53-1.7-4.31-3.86-.9.52-3.69,1.13-4.52.6-.92-.59-2.57-4.75-2.9-4.81l-3.73,1.59-3.74-3.53c-1.22-.18-3.48,1.05-4.55.73-1.19-.35-2.09-4.29-2.33-4.34-3.35,2.26-5.25,1.06-6.02-2.68-1.64.84-3.09,1.33-4.4-.39ZM233.86,292.92c-.3.18-1.3,4.7-1.61,5.5s-1.39,2.16-1.46,2.68c-.18,1.19,1.93,1.04,2.48.4.31-.36,2.24-4.75,2.33-5.27.16-.99-.39-3.38-1.74-3.31ZM191.05,285.81c-1.43.11-2.79,4.07-4.18,4.84.92,3.14,3.15,2.43,5.46,1.2,1.76-.94,3.8-2.39,2.99-4.65l-4.26-1.38ZM233.96,303.62c2.85,1.76,4.57-.52,5.46-3.09.92-2.65.24-3.45-1.73-5.07l-3.73,8.16ZM203.01,290.6c-1.32,0-3.39-2.21-4.43-1.48-.34.24-.88,2.35-1.21,3.03-.35.72-1.03,1.59-1.53,2.25s-1.29.63-.86,1.71c3.98.8,6.69-2.11,8.03-5.51ZM210.96,294.15c-1.32-.09-2.6-1.59-3.71-1.75-.63-.09-2.15.34-2.51.86-.4.58-.71,4.87-.61,5.69.06.5.73,1.07.96,1.55,1.7.54,6.11-5.94,5.87-6.35ZM219.81,298.4c-1.59-.23-3.66-1.87-5.01-2.19-1.98-.46-2.85,4.43-3.69,5.67l.75,1.77c2.19.31,4.4-1.5,5.92-2.94.3-.29,2.17-2.1,2.04-2.31ZM219.38,306.39c.37.15.6.07.94-.07.75-.31,4.2-4.1,4.56-4.89.14-.3.29-.36-.02-.67l-2.46-.84c-.1.79-.25,1.45-.58,2.19-.43.94-3.17,3.53-2.44,4.28ZM230.04,303.68l-1.8-.85c-3.57,3.24-.75,10.12,1.42,2.7.18-.61.27-1.23.37-1.85ZM233.27,305.97l-.68,3.65c1.68-.14,3.1-1.13,3.41-2.88.1-.58.04-.3-.32-.44-.51-.21-1.19-.29-1.71-.59l-.7.27Z"/><path class="cls-3" d="M265.76,230.13c6.57.52,9.4,8.51,4.58,13.36-5.06,5.08-13.12-1.26-11.63-7.32.78-3.15,3.56-6.32,7.05-6.05ZM265.3,233.93c-1.28.13-3.21,3.53-3.08,4.66.06.59,1.62,2.4,2.19,2.7,2.45,1.31,5.57-1.71,5.34-4.11-.19-2.05-2.5-3.44-4.45-3.24Z"/><path class="cls-1" d="M281.63,331.98c1.35-2.83,4.81-4.01,7.29-5.55,3.43-2.13,10.81-6.1,13.39-8.66s.29-3.33.72-5.66c.3-1.62,2.77-3.67,4.01-4.72,9.18-7.77,19.2-17.17,23.95-28.48,1.08-2.57,1.88-5.26,2.96-7.84,2.25-5.38,4.91-9.31,5.33-15.52.05-.72-.21-4.82-1.04-4.78-.61.03-2.59,6.1-3.95,6.56.02-.5.44-.86.51-1.34.37-2.5.65-6.93.68-9.48.01-1.2-.32-4.85-1.01-5.68-.15-.18-3.3-2.76-3.5-2.87-.44-.23-.35.03-.44.3-.57,1.72-.31,4.27-.94,6.32-1.27,4.18-7.02,14.93-9.91,18.2-.91,1.03-2.9,3.32-2.55.28.08-.66.45-1.08.52-1.64.37-3.03,1.02-7.28,1.07-10.21.07-3.8-1.38-5.46-4.6-2.57-1.09-1-2.26-1.64-3.78-1.68-2.79-.07-4.29,3.81-6.35-.58-1.28-2.72-2.94-11.09-5.53-12.25-2.41-1.08-3.58.46-4.36,2.66-.35.99-.29,2.06-.79,3-.36.69-1.15,1.03-1.68,1.72-2.55,3.32-2.02,8.93-4.99,11.92-3.68,3.7-5.56,4.69-7.2,10.31-.63,2.16-1.3,7.86.11,9.76.92,1.25,2.36,1.22,3.46,1.8.76.4,1.71,1.83,2.57,2.41.92.62,2.05.84,2.92,1.51,2.13,1.62,4.31,5.98,4.34,8.66.07,6.02-1.41,9.92-6.69,13.12-1.71,1.04-2.98.23-4.66-.49-5.28-2.25-7.32-5.08-11.53-8.35-2.82-2.19-8.06-4.7-9.98-7.43-.52-.74-.66-1.64-1.13-2.3-2.63-3.69-10.2-1.8-14.2-3.21-.99-.35-4.8-2.92-4.83-3.93-.01-.44.94-1,.25-1.28-.24-.1-1.58.02-1.89.11-1.89.56-1.34,2.43-1.59,3.93-1.19-.67-1.36-2.69-.86-3.8-1.31-.67-3.1.24-3.73,1.47-.73,1.45,1.36,4.69,1.26,6.27-.04.66-.35,2.42-.58,3.01-.41,1.06-2.71,2.47-2.37,4.39-1.49-2.33-2.56-1.42-4.72-1.25-1.62-3.42-2.01-5.75-6.44-3.98-.35-.09-1.35-5.47-2.82-6.18-1.15-.55-4.65,1.41-5.79,2.01-1.14-3.02.01-6.93-4.65-6.11-1.4.25-2.39,1.18-3.74,1.44.07-1.21-.55-5.33-1.73-5.74-1.41-.49-5.01,1.09-6.29,1.91-.32-.06-.71-3.89-2.08-4.29-.59-.17-3.15.24-3.91.39-1.13.22-2.13.62-3.23.9.03-1.65-.27-3.4-1.18-4.81,0-.19,2.65-1.9,2.83-1.91.76-.03.5,2.62,2,2.44.12-.44.1-.96.26-1.38.3-.75,4.41-3.25,5.51-3.03l-.61-2.11,9.63-6.03c1.95-.56,4.26,1.03,6.62-.28.73-.41,2.07-1.74,2.47-2.48.63-1.15.58-2.66,1.19-3.38.78-.91,3.03-1.68,4-2.5.77.06.12.63-.01.95-.38.88,1.12-.14,1.39-.23.83-.26,2.54-.4,3.05-.68,1.17-.64,1.23-2.88,1.87-3.91l9.86-5.9c.41-.02,1.45,2.75,1.83,3.33,2.79,4.25,10.86,7.75,15.49,9.8,5.37,2.37,11.47,5.21,17.51,4.59,1.2-.12,6.03-1.52,6.83-2.22,1.51-1.32,1.91-2.69,2.93-4.06.56-.76,8.35-3.11,9.87-3.55,1.46-.43,2.65.03,3.39-1.62-.5-.56-10.47,2.78-12.02,2.98,1.56-3.97,2.03-8.25,3.05-12.34.85-3.39,2.79-8.27,4.52-11.32,1.53-2.7,8.9-8.19,11.64-10.88,4.95-4.85,9.49-10.13,14.11-15.28,9.93,10.26,17.08,23.09,20.95,36.83l-.55.49c-7.02,1.51-13.84,3.89-20.82,5.54-3.36.79-6.87,1.05-10.14,2.2l.91,1.34c10.55-1.68,20.6-5.53,30.94-8.1l1.76,15.53c.07.57.63.57,1.13.65.36-6.47-.78-12.64-2.55-18.8-12.18-42.51-52.52-69.16-96.76-59.55-2.4.52-16.55,4.31-17.29,5.87-.19.4-.12.62.23.89,1.25.65,8.76-2.33,10.52-2.85,2.38-.7,4.96-1.52,7.34-2.12.71-.18,4.28-1.08,4.64-.72-.09,10.84,1.29,21.59,1.51,32.4-2.76,2.39-5.96,4.33-7.97,7.54l-5.63-10.42-.72.57c-.19.4,0,.77.16,1.13.7,1.66,2.16,3.69,3.01,5.4.39.77,2.2,4.13,2.23,4.64.03.62-1.9,3.94-2.24,5.24-.55,2.08-.98,5.13-.96,7.27.01.98.68,2.93.13,3.65l-8.86,4.87c.42-2.09.44-4.86.06-6.96-.17-.95-.37-1.82-1.52-1.88-2.6,3.31-2.77,7.67-3.27,11.69l-4.08,2.56c1.33-6.47,2.54-13.07.8-19.57-1.41-5.28-2.77-6.76-7.53-3.16-3.56,2.69-8.39,7.19-11.53,10.41-1.47,1.51-6.56,7.03-7.25,8.63-.72,1.67.05,2.67-.29,3.71s-1.79,1.13-1.86,3.04c-.03.89.55,1.24.73,1.92.52,1.94.35,3.15,2.24,4.61,2.79,2.16,4.91-.22,8.04.08-.52.52-1.19.97-1.81,1.36-2.49,1.56-6.37,4.03-8.93,5.24-.31.15-.88.55-1.06.07.07-1.1-.47-2.06-.58-3.12-.23-2.26.57-5-1.52-6.64-1.37.88.49,3.39-1.06,4.2-.59.31-2.55.66-3.2.5-1.06-.27-1.25-1.93-2.64-1.79-.59,1.03-.85,2.43-2.04,2.97-1.54-.85-.09-1.7.43-2.6.49-.84-.33-.84-1.01-.5-.58.29-4.26,2.82-4.43,3.15-.53,1.05-.47,3.2-.89,4.46-.25.74-1.09,1.67-1.24,2.59l-2.06.59c-1.11-2.05,1.27-4.62,2.53-6.22,2.19-2.77,4.88-5.21,6.98-8.08.76-1.04,3.37-4.36.8-4.63-.82-.09-1.63.38-2.68.29-2.73-.23-5.41-1.78-8.23-2.06-1.22-.12-2,.01-1.59,1.53.15.57.94.73,1.17,1.06.24.35.21,1.37.78,1.77-1.09.54-2.18,1.13-3.33,1.55-.83.3-4.06,1.48-4.5.54-.08-.17.23-3.18.3-3.72.38-2.79,1.52-6.22,2.8-8.74,1.86-3.64,7.99-3.73,11.64-4.49,1.89-.4,3.66-1.25,5.69-1.16-.5-2.16-.93-3.78-3.01-4.86-3.09-1.6-6.49-.3-9.73-1-.29-.3-1.59-7.35-1.57-8.17.09-3.7,5.03-8.22,7.21-11.15,1.21-1.63,2.8-3.91,3.81-5.65,1.09-1.87,1.73-4.11,2.84-5.78.32-.48,4.05-4.87,4.33-5.05,1.51-.97,5.18-1.16,7.14-1.94,1.5-.59,3.36-2.17,4.63-2.53.97-.28,2.46-.13,3.51-.32,2.37-.44,4.87-1.48,7.27-1.26,4.03.36,7.57.96,11.73.42.82-.11,1.64-.37,2.41-.67-.21-1.48-.89-3.78-2.04-4.77-1.22-1.05-6.13-1.82-7.93-2.04-2.31-.28-4.82.21-7.04-.64,3.1-3.86,6.27-7.74,10.1-10.89,9.21-7.58,16.7-10.67,28.97-9.36,8.29.88,16.72,2,25.09,2.26,2.46.08,5.34-.57,7.66-.37,8.14.7,21.16,4.37,28.78,7.48,10.35,4.23,21.14,15.08,27.82,23.97,3.57,4.74,4.77,7.94,7.27,13.03,3.55,7.21,13.02,15.36,12.99,23.83-.04,8.06-2.47,15.89-2.25,23.97.07,2.48.69,5.35.53,7.77-.49,7.74-2.37,18.8-5.16,25.98-2.3,5.92-5.32,14.3-9.35,19.01-4.35,5.1-10.11,9.14-15.06,13.58-2.02,1.81-3.49,3.97-5.42,5.87-3.49,3.44-10.76,10.42-14.62,12.96-2.87,1.89-12.07,3.49-15.55,3.29-.88-.05-1.73-.24-2.59-.41ZM219.28,169.44c7.41-5.03,21.91-6.76,30.71-6.35,17.41.82,30.06,2.92,45.49,11.33,8.02,4.37,14.27,10.68,20.77,16.95,3.83,3.7,12.76,11.6,14.73,16.04,4.03,9.08,8.13,26.25,8.81,36.15.11,1.65-.44,5.36-.17,6.49.69,2.85,1.62,2.25,1.13,6.26-1.32,10.68-6.44,25.16-11.23,34.85-.48.97-2.61,3.65-2.21,4.5.85.71,2.74.79,3.63.12.74-.57,3.04-4.01,3.61-4.99,6.4-11.07,9.24-22.94,10.3-35.54.87-10.3,1.92-21.23-.75-31.36-1.71-6.48-4.63-15.01-7.12-21.26-2.5-6.28-10.96-16.33-15.92-21.15-3.13-3.05-6.33-5.04-9.52-7.75-1.21-1.03-2.15-2.46-3.5-3.53-17.86-14.24-38.42-16.61-60.48-14.17-2.97.33-5.11,1.48-7.72,1.89-1.86.29-3.78.18-5.75.59-5.39,1.12-15.62,5.45-19.64,9.17-.64.6-1.41,1.43-.63,2.2l3.91.97c.68-.08,1.07-1.05,1.57-1.39ZM219.77,178.3c-.19,0-.6.33-.26.61,1.31,2.81,2.27,5.93,3.66,8.7.52,1.04,1.33,3.58,2.67,2.07-1.55-3.14-3.04-7.01-4.91-9.98-.21-.33-.79-1.4-1.16-1.39ZM234.07,187.24c-2.31,1.23-8.05,2.58-9.34,4.99-.99,1.87.24,3.73-.04,5.09-.12.56-.92,1.18-1.18,1.79-.73,1.72,1.24,5.87,3.39,3.94,2.02-1.82,2.9-4.96,5.48-6.45.32-.67-1.08-2.63-1.13-3.35-.13-2.01,4.5-3.41,4.66-4.28.06-.67-1.29-1.78-1.85-1.74ZM173.23,212.58c.46.82,2,2.43,2.93,2.71,1.18.35,4.42.64,5.85.81,5.09.61,13.12,1.58,18.1.41,3.41-.8,14.38-8.48,16.08-11.47,1.11-1.96,1.18-7.51.62-9.76s-2.58-5.36-4.52-6.79c-4.98-3.67-18.55-4.03-24.04-1.03-3.18,1.74-7.82,10.21-10.04,13.53-1.8,2.69-6.95,8.06-4.98,11.59ZM194.1,224.26c.47-.41,1.18-1.38.57-1.89l-7.88,1.65-.04.92,1.33.41.31.45c-.07,1.18-1.76,4.68-.57,5.45.12.08.62.24.64-.03.98-2.64,2.63-4.7,4.72-6.53.27-.24.72-.25.92-.42ZM246.35,258.97c.11-.04.68-.81.75-.99.82-2.32-2.82-5.41-4.45-6.81-2.69-2.31-6.3-4.36-8.86-6.66-1.25-1.12-2.16-2.62-3.58-3.58-.21.82.28,1.61.62,2.32,1.74,3.7,9.02,11.67,12.31,14.19.62.47,2.54,1.77,3.23,1.53ZM275.27,251.93c-2.18.04-5.06,2.7-7.06,3.17-1.31.31-4.74-.52-5.22.42-.69,1.35.67,1.71,1.79,1.98,3.17.76,8.38.59,10.89-1.77,1.41-1.33,2.35-3.84-.41-3.79ZM267.86,265.16c-.05-.09-.59-.46-.62-.45-.8,1.39-.65,3.06-1.17,4.54-.74,2.12-3.88,5.31-3.44,7.3.37,1.68,1.84.83,2.92.89,2.78.15,3.95,2.94,6.45,3.78.97-2.97-1.01-4.15-2.22-6.28-.41-.73-1.51-3.15-1.68-3.9-.35-1.55.35-4.88-.24-5.88ZM199.47,266.1l.75-4.03c.2-1.09,6.25-.86,7.2-2.63.2-.38.18-.9.42-1.31.56-.93,2.12-1.77,2.27-3.11.18-1.68-2.23.27-2.97.49-1.74.52-6.89.22-7.99,1.81-.52.75-1.43,7.55-1.07,8.31.1.22.57.47.74.71l.66-.24ZM217.14,267.92c-.7-1.67-1.14-4.73-2.3-6.01-.22-.24-.23-.55-.69-.52-.39.3-.23,3.04-.45,3.63-.25.66-1.04.74-1.32,1.63-.38,1.19.11,2.29-.07,3.13-.13.61-.94,1.26-1.16,2.13-.34,1.38.16,2.68,1.31,3.49.34-.01,1.81-2.55,2.31-3.05.87-.88,2.24-1.17,2.54-2.54.54.04,1.28.09,1.72.42.18.13,1.49,3.42,1.52,3.79.16,2.2-1.85,5.31.41,6.86,1.66-2.94,2.8-4.64,2.17-8.19-.21-1.16-1.4-3.52-1.36-4.35.04-.7.81-1.66.63-2.52l-.91-.47-1.32,2.57h-3.05ZM228.98,268.58c-1.05-.86-3.13.39-3.38,1.57-.47,2.19,1.67,7.65,1.88,10.11,0,.51-1.83,2.15-.98,2.44.78.27,3.28-1.83,3.48-2.63.08-.3-.33-3.49-.42-4.09-.35-2.38-1.71-5.12-.58-7.4ZM207.21,269.36c.37-1.01.53-2.87.75-4.03.12-.66-1.75-1.28-2.25-.37-.18,1.76-.15,3.59-1.01,5.2l.98,1.13c.19.04,1.43-1.65,1.53-1.93Z"/><path class="cls-1" d="M160.64,283.44c1.31,1.72,2.76,1.23,4.4.39.77,3.74,2.67,4.94,6.02,2.68.24.05,1.14,3.99,2.33,4.34,1.07.31,3.33-.91,4.55-.73l3.74,3.53,3.73-1.59c.33.06,1.99,4.22,2.9,4.81.83.54,3.62-.08,4.52-.6-.22,2.16,2.39,3.82,4.31,3.86,2.07.04,3.36-1.54,5.06-2.39-1.11,3.24,2.23,6.97,5.56,5.67.43-.17,1.09-.84,1.44-.71,1.49,1.61,1.5,3.77,3.59,4.8,2.27,1.12,3.07-.48,5.22-.84.1,1.49,2.44,4.13,4,3.73.36-.09,1.74-1.47,2.02-1.06l-.63,1.19c1.43,2.15,3.55,2.46,5.98,2.28.48-.04,1.05-.46,1.5-.36.44.1.7.73,1.18.94.85.37,1.68.04,2.19.25.99.41,1.8,1.26,3.4,1.63,8.43,1.98,10.79-4.79,15.54-9.72,1.38-1.43,3.23-3.52,5.42-2.81.11,1.84-.67,3.6-1.6,5.16-.66,1.1-5.94,8.01-6.68,8.51s-1.66.22-1.84,1.52c-.26,1.92,1.71,1.83,3.05,1.21,4.18-1.94,5.9-5.29,9.09-7.56.54-.38,1.8-1.26,2.31-.49.8,1.23-1.76,4.21-2.54,5.27-3.29,4.48-7.47,8.43-12.26,11.27-3.42,2.03-6.23,2.89-10,4-.81.24-2.3,1.06-2.99,1.09-2.62.1-7.15-1.45-10.07-1.53-1.22-.03-2.52.9-4.07.79s-9.62-2.12-10.14-1.63c-.59,1.8,1.79,1.38,2.74,1.87.34.18.41.69.93.9,1.5.59,4.02.44,5.53,1.03.66.26.81,1.05,1.33,1.5,1.66,1.45,5.04,1.19,7.23,1.63,4.12.81,8.33,2.16,12.55,2.6,6.13.64,14.35-5.65,18.05-10.21,1.45-1.79,2.42-4.04,3.82-5.63,3.41-3.86,10.35-5.23,10.83-11.04.47-5.72-5.99-4.79-7.66-8.37-.91-1.95-1.8-7.41,1.88-6.14,2.27.78,2.4,6.24,6.72,7.48,1.62.46,3.16.15,4.7.73.15.16.09,3.95-.04,4.44-.31,1.1-4.58,7.23-5.55,8.57-4.63,6.41-11.9,13.18-17.87,18.46-.92.81-4.26,3.6-5.15,4.02-.41.19-5.54,1.07-6.27,1.12-4.53.33-8.7.75-13.22-.05-7.43-1.31-14.85-3.73-22.1-5.92-15.29-4.61-29.53-9.13-43.41-17.22-3.16-1.84-9.8-5.75-12.35-8-1.15-1.02-2.09-2.61-3.2-3.73s-6.71-5.26-6.5-6.43c.15-.84,1.83-3.91,2.35-4.9,2.77-5.37,6.15-10.45,8.55-16.03.45-.61,3.56-2.01,4.05-1.76.56,1.15,1.07,3.16,1.82,4.15ZM155.13,298.65c.04-.73.69-1.08.86-1.78.2-.84-.25-1.95-.06-2.62.19-.68,1.41-.59,1.76-1.29.41-.8-.02-1.79.27-2.63-1.35.4-3.63-.07-4.54,1.25-.36.52-.04,1.01-.36,1.66-.89,1.84-4.56,4.03-4.53,6.09.02,1.24.97,2.96,1.94,3.73,3.11,2.47,7.74,5.92,11.28,7.63,2.26,1.09,4.78,1.71,7.09,2.82s4.45,3.03,7.14,3.33c.19-2.45-2.72-2.14-3.91-3.36-.41-.42-.47-1.23-.85-1.83-1.45-2.29-4.2-2.85-6.25-4.27,1.57-.45,1.14-1.14,1.23-2.49-1.16-.16-2.43-.41-3.08-1.52,1-1.24,1.95-2.15,2.01-3.9-1.95.83-4.41.18-4.48,3.08-1.44-.17-1.97-.94-1.35-2.29l1.92-.64.03-4.51c-.74.19-2.57.27-2.73,1.19l.15,1.44c-.97.12-2.17.24-2.34,1.4l-1.2-.49ZM174.11,294.62c-.7.3-2.1.77-2.37,1.53-.3.83.19,1.33.09,1.72-.19.71-2,2.55-.05,3.11.76.22,2.58-1.3,2.83-1.98.47-1.31-.38-1.37-.56-2.23-.12-.57.04-1.52.07-2.14ZM187.19,304.03c-.42.46-5.45.83-6.13.44-.73-.41.01-3.03-.27-4-.63-2.18-2.24.98-2.43,2.09-.32,1.9.99,4.13.84,5.38-.21,1.74-2.25,4.5-1.68,5.98,1.01,2.65,5.42-.52,7.16-.91.89-.2,1.78-.05,2.65-.31.25-.25,1.54-6,1.57-6.82.05-1.1-.21-2.66-1.49-2.82-.09.28-.03.76-.22.96Z"/><path class="cls-1" d="M276.04,210.08c-2.75-.93-4.96-2.91-7.51-4.18-1.43-.72-10.97-4.09-11.22-4.65l1.15-32.84c1.63-.14,3.26-.32,4.9-.23,6.91.38,15.37,2.8,21.77,5.43,1.12.46,8.79,3.96,8.81,4.5l-17.91,31.97ZM273.28,193.74c-.23-.33-.87-.46-1.26-.57-3.35-.92-6.61-.2-9.84-1.57-1.28,1.2-.44,1.85.65,2.6,2.56,1.78,5.95,3.05,8.59,4.78.39,0,.6-.04.84-.37.65-.88,1.69-3.91,1.02-4.89Z"/><path class="cls-1" d="M303.28,183.9c.18.45-1.98,3.52-2.39,4.28-3.26,6.07-6.36,12.35-9.48,18.5-1.7,3.35-3.25,7.95-5.21,10.96-.7,1.08-1.94,2.09-2.95,2.89-.72-3.87-2.52-7.45-6.03-9.49-.18-.45,2.49-5.46,2.95-6.32,3.25-6.11,6.98-11.95,10.2-18.09.59-1.12,3.73-8.2,4.43-8.17l8.48,5.45Z"/><path class="cls-1" d="M251.95,200.15c-1.73-.05-3.88,1.11-5.58,1.31l-1.88-31.75c.34-.98,11.24-1.46,12.84-1.39l-1.71,32.51c-1.16-.09-2.54-.65-3.65-.68Z"/><path class="cls-1" d="M176.68,262.04c-.1.96.28,2.08-.06,3.01-.27.74-2.72,4.28-3.35,5.2-1.18,1.72-1.4,2.49-3.58,1.76-.8-.27-4.13-1.6-3.54-2.62l4.03-6.79c3.06-2.05,4.31-.97,6.5-.56Z"/><path class="cls-1" d="M289.24,214.87c2.66-6.75,6.32-13.05,9.54-19.54,1.74-3.51,3.13-7.21,5.17-10.55.48-.22,4.74,3.63,5.43,4.28.53.5,3.21,2.88,3.03,3.37-7.66,7.53-14.53,15.99-23.16,22.45Z"/><path class="cls-1" d="M200.62,272.45c0,.97.48,2.04.23,3-.2.76-2.29,4.53-2.83,5.51-1.01,1.82-1.15,2.61-3.39,2.1-.82-.19-4.26-1.19-3.78-2.26l3.35-7.15c2.12-.43,4.2-1.39,6.42-1.19Z"/><path class="cls-1" d="M187.85,279.42c-.32.13-5.08-1.73-5.72-2.06-.29-.15-.46.11-.29-.44,1.07-1.23,2.51-5.6,3.52-6.4.76-.61,5.41-1.34,6.31-1.04.76.25,1.02,1.39.8,2.08l-4.61,7.87Z"/><path class="cls-1" d="M199.41,284.94c-.16-.4,2.38-5.99,2.85-6.46.71-.71,5.51-1.9,6.11-1.36.23.2.3.81.29,1.13-.04,1.39-2.4,7.59-3.49,8.32-1.27.85-4.6-.8-5.78-1.62Z"/><path class="cls-1" d="M216.48,279.8l.53,5.22-2.58,5.94c-1.17.64-4.84.05-4.92-1.43-.02-.35,1.75-5,2.02-5.9.09-.31,0-.62.04-.93.11-.24,2.24-1.17,2.71-1.47.42-.26,1.79-1.86,2.2-1.43Z"/><path class="cls-1" d="M179.03,274.91c-.52.21-4.05-1.07-4.26-1.51s1.57-4.18,1.96-4.87c.44-.79.62-1.28,1.55-1.58.49-.16,4.52-.45,4.79-.33s.29.41.29.68c-.02,1.89-3.39,5.8-4.32,7.62Z"/><path class="cls-1" d="M173.02,286.59c-1.46-2.97.74-5.87,1.37-8.83l4.93,1.53c.82.81-1.54,5.64-2.31,6.6l-3.99.7Z"/><path class="cls-1" d="M221.19,296.57c-1.12-.94-2.43-1.49-3.82-1.88l2.16-7.25c1.3.03,2.63-.56,3.5-1.47.66.11,1.57,3.24,1.48,3.79-.32,2.06-3,4.66-3.32,6.82Z"/><path class="cls-1" d="M186.54,283.45c1.67,1.92-1.28,4.44-2.89,5.38-2.4,1.4-2.74.68-4.8-.88.52-1.98,2.03-3.77,1.78-5.89l1.75-.47c.92.8,3.48,1.09,4.15,1.86Z"/><path class="cls-1" d="M172,274.76c.16.35.19.75.12,1.12-.46,2.32-2.09,5.11-2.44,7.57l-2.34.77-1.23-4,1.59-5.92c.14-.29,3.93-.12,4.3.44Z"/><path class="cls-1" d="M191.05,285.81l4.26,1.38c.81,2.26-1.23,3.72-2.99,4.65-2.31,1.23-4.54,1.94-5.46-1.2,1.39-.76,2.75-4.73,4.18-4.84Z"/><path class="cls-1" d="M239.17,293.89l3.16-7.05c6.15-4.55,3.49,7.68-.11,7.83-1.06.04-2.09-.41-3.05-.78Z"/><path class="cls-1" d="M219.81,298.4c.13.21-1.74,2.02-2.04,2.31-1.52,1.44-3.73,3.25-5.92,2.94l-.75-1.77c.85-1.24,1.72-6.13,3.69-5.67,1.36.32,3.42,1.96,5.01,2.19Z"/><path class="cls-1" d="M210.96,294.15c.24.41-4.17,6.88-5.87,6.35-.23-.48-.9-1.04-.96-1.55-.1-.82.21-5.11.61-5.69.36-.52,1.87-.95,2.51-.86,1.11.16,2.39,1.66,3.71,1.75Z"/><path class="cls-1" d="M233.34,290.42c-.88-.92,2.43-4.96,2.84-6.13.39-1.1.04-2.03.35-3,.24-.75,1.22.22,1.45.54.73.99,1.18,5.35.83,6.57-.34,1.16-1.41,1.84-2.03,2.84l-3.44-.83Z"/><path class="cls-1" d="M203.01,290.6c-1.34,3.4-4.05,6.31-8.03,5.51-.43-1.08.38-1.08.86-1.71s1.17-1.53,1.53-2.25c.34-.68.87-2.79,1.21-3.03,1.03-.73,3.1,1.48,4.43,1.48Z"/><path class="cls-1" d="M233.96,303.62l3.73-8.16c1.97,1.62,2.66,2.42,1.73,5.07-.89,2.57-2.61,4.85-5.46,3.09Z"/><path class="cls-1" d="M229.23,289.72c-.04.77.75,1.25.63,2.05-.34,2.34-2.76,4.98-3.16,7.37l-3.02-.56c.69-1.28,1.68-2.27,2.18-3.7.29-.83.56-3.32.89-3.79.2-.27,2.22-1.63,2.47-1.38Z"/><path class="cls-1" d="M233.86,292.92c1.35-.07,1.9,2.31,1.74,3.31-.08.52-2.02,4.91-2.33,5.27-.55.63-2.66.79-2.48-.4.08-.52,1.16-1.88,1.46-2.68s1.31-5.32,1.61-5.5Z"/><path class="cls-1" d="M165.28,274.75c-.08,3.15-1.58,4.78-3.95,6.56-.68-.82-.83-3.19-.38-4.05.24-.45,3.64-2.11,4.32-2.51Z"/><path class="cls-1" d="M219.38,306.39c-.74-.75,2.01-3.34,2.44-4.28.33-.73.49-1.4.58-2.19l2.46.84c.3.31.15.38.02.67-.36.79-3.8,4.58-4.56,4.89-.34.14-.57.22-.94.07Z"/><path class="cls-1" d="M230.04,303.68c-.11.62-.2,1.25-.37,1.85-2.17,7.42-4.99.54-1.42-2.7l1.8.85Z"/><path class="cls-1" d="M181.42,253.78c-.28.75-.87.85-1.12,1.75-.22.8.06,2.44-.11,2.73-.23.39-2.58,1.75-2.96,1.26.21-.52-.22-1.12-.2-1.54.05-1.22,3.68-2.53,3.38-4.39l1,.19Z"/><path class="cls-1" d="M170.4,259.81l-2.81,2.47-4.32,5.07c.1-.52.12-1.07.35-1.57.13-.28,3.38-4.77,3.61-4.98.76-.68,2.13-1.09,3.17-.99Z"/><path class="cls-1" d="M233.27,305.97l.7-.27c.52.3,1.21.39,1.71.59.36.15.42-.14.32.44-.31,1.75-1.74,2.75-3.41,2.88l.68-3.65Z"/><path class="cls-1" d="M176.01,254.86c-.02.52-.57.83-.65,1.31s.31,1.04.09,1.53c-.17.37-2.1,1.43-2.4,1.3-.27-.43-.8-1.27-.58-1.74.07-.16,2.36-1.89,2.72-2.15.29-.2.42-.42.82-.24Z"/><path class="cls-1" d="M173.12,253.54l-1.17,3.42-2.35.1c.04-1.81,1.86-3.21,3.52-3.51Z"/><path class="cls-1" d="M160.33,269.15c.26.85-2.55,2.72-2.78,2.35l.77-2.72,2.01.37Z"/><path class="cls-1" d="M164.57,260.29c-.49.99-1.42,2.67-2.14,3.43-.28.3-.43.62-.91.43.76-1.16,1.55-2.34,2.35-3.47.24-.35.08-.63.71-.39Z"/><path class="cls-4" d="M219.28,169.44c-.5.34-.89,1.31-1.57,1.39l-3.91-.97c-.79-.77-.02-1.6.63-2.2,4.02-3.72,14.25-8.05,19.64-9.17,1.98-.41,3.89-.29,5.75-.59,2.61-.41,4.75-1.56,7.72-1.89,22.06-2.44,42.63-.07,60.48,14.17,1.35,1.07,2.29,2.5,3.5,3.53,3.18,2.71,6.39,4.7,9.52,7.75,4.96,4.83,13.42,14.87,15.92,21.15,2.49,6.25,5.41,14.78,7.12,21.26,2.67,10.13,1.62,21.05.75,31.36-1.06,12.6-3.9,24.47-10.3,35.54-.56.98-2.86,4.42-3.61,4.99-.89.67-2.78.59-3.63-.12-.39-.85,1.73-3.53,2.21-4.5,4.79-9.69,9.91-24.17,11.23-34.85.5-4.01-.44-3.41-1.13-6.26-.27-1.13.28-4.85.17-6.49-.68-9.91-4.78-27.08-8.81-36.15-1.97-4.44-10.9-12.34-14.73-16.04-6.49-6.27-12.75-12.58-20.77-16.95-15.43-8.4-28.08-10.5-45.49-11.33-8.79-.42-23.29,1.32-30.71,6.35Z"/><path class="cls-4" d="M173.23,212.58c-1.97-3.53,3.17-8.9,4.98-11.59,2.23-3.32,6.86-11.79,10.04-13.53,5.49-3,19.06-2.64,24.04,1.03,1.94,1.43,3.94,4.45,4.52,6.79s.49,7.8-.62,9.76c-1.7,2.99-12.67,10.67-16.08,11.47-4.98,1.17-13,.2-18.1-.41-1.42-.17-4.67-.46-5.85-.81-.93-.28-2.47-1.9-2.93-2.71ZM197.3,195.83c-8.87-.47-11.57,12.72-2.12,13.86,1.32.16,3.95.08,5.16-.49,2.08-.97,4-4.67,3.43-6.95-.77-3.05-3.12-6.25-6.48-6.43Z"/><path class="cls-4" d="M234.07,187.24c.56-.04,1.91,1.06,1.85,1.74-.17.87-4.79,2.27-4.66,4.28.04.71,1.44,2.68,1.13,3.35-2.58,1.49-3.46,4.63-5.48,6.45-2.15,1.94-4.11-2.21-3.39-3.94.26-.61,1.06-1.23,1.18-1.79.28-1.36-.95-3.22.04-5.09,1.28-2.41,7.02-3.76,9.34-4.99Z"/><path class="cls-4" d="M217.14,267.92h3.05s1.32-2.56,1.32-2.56l.91.47c.17.86-.6,1.82-.63,2.52-.04.83,1.15,3.18,1.36,4.35.64,3.55-.51,5.25-2.17,8.19-2.27-1.54-.25-4.66-.41-6.86-.03-.37-1.34-3.66-1.52-3.79-.44-.32-1.18-.38-1.72-.42-.3,1.37-1.67,1.66-2.54,2.54-.5.5-1.97,3.03-2.31,3.05-1.16-.82-1.65-2.12-1.31-3.49.21-.87,1.02-1.52,1.16-2.13.18-.84-.31-1.94.07-3.13.29-.89,1.08-.97,1.32-1.63.22-.59.06-3.33.45-3.63.46-.03.47.28.69.52,1.16,1.28,1.6,4.34,2.3,6.01Z"/><path class="cls-4" d="M246.35,258.97c-.69.24-2.61-1.06-3.23-1.53-3.29-2.52-10.57-10.49-12.31-14.19-.34-.72-.83-1.51-.62-2.32,1.43.96,2.33,2.46,3.58,3.58,2.56,2.3,6.17,4.35,8.86,6.66,1.63,1.4,5.27,4.49,4.45,6.81-.07.19-.63.95-.75.99Z"/><path class="cls-4" d="M267.86,265.16c.59,1-.12,4.33.24,5.88.17.75,1.26,3.18,1.68,3.9,1.21,2.13,3.19,3.31,2.22,6.28-2.49-.84-3.66-3.63-6.45-3.78-1.08-.06-2.54.79-2.92-.89-.44-1.99,2.69-5.18,3.44-7.3.52-1.48.37-3.16,1.17-4.54.03-.02.57.36.62.45Z"/><path class="cls-4" d="M199.47,266.1l-.66.24c-.17-.24-.64-.49-.74-.71-.36-.77.55-7.57,1.07-8.31,1.11-1.58,6.26-1.29,7.99-1.81.74-.22,3.16-2.17,2.97-.49-.15,1.34-1.71,2.17-2.27,3.11-.24.4-.22.93-.42,1.31-.96,1.77-7,1.54-7.2,2.63l-.75,4.03Z"/><path class="cls-4" d="M275.27,251.93c2.76-.05,1.81,2.47.41,3.79-2.51,2.36-7.72,2.53-10.89,1.77-1.12-.27-2.48-.63-1.79-1.98.48-.94,3.9-.11,5.22-.42,2-.47,4.88-3.13,7.06-3.17Z"/><path class="cls-4" d="M228.98,268.58c-1.13,2.28.23,5.02.58,7.4.09.6.5,3.79.42,4.09-.2.8-2.7,2.9-3.48,2.63-.86-.3.98-1.94.98-2.44-.21-2.46-2.35-7.92-1.88-10.11.25-1.18,2.34-2.43,3.38-1.57Z"/><path class="cls-4" d="M194.1,224.26c-.19.17-.65.18-.92.42-2.09,1.83-3.74,3.89-4.72,6.53-.02.28-.52.11-.64.03-1.19-.77.5-4.27.57-5.45l-.31-.45-1.33-.41.04-.92,7.88-1.65c.61.51-.09,1.48-.57,1.89Z"/><path class="cls-4" d="M219.77,178.3c.38,0,.96,1.06,1.16,1.39,1.87,2.97,3.36,6.84,4.91,9.98-1.34,1.51-2.15-1.03-2.67-2.07-1.39-2.77-2.35-5.88-3.66-8.7-.35-.28.06-.61.26-.61Z"/><path class="cls-4" d="M207.21,269.36c-.1.28-1.34,1.96-1.53,1.93l-.98-1.13c.87-1.6.83-3.44,1.01-5.2.49-.91,2.37-.29,2.25.37-.21,1.16-.38,3.02-.75,4.03Z"/><path class="cls-4" d="M155.13,298.65l1.2.49c.17-1.16,1.37-1.28,2.34-1.4l-.15-1.44c.16-.92,1.99-1,2.73-1.19l-.03,4.51-1.92.64c-.61,1.35-.09,2.12,1.35,2.29.07-2.9,2.53-2.25,4.48-3.08-.06,1.75-1,2.66-2.01,3.9.65,1.11,1.92,1.36,3.08,1.52-.08,1.36.34,2.04-1.23,2.49,2.05,1.42,4.8,1.98,6.25,4.27.38.6.44,1.41.85,1.83,1.19,1.22,4.1.91,3.91,3.36-2.7-.3-4.77-2.2-7.14-3.33s-4.83-1.73-7.09-2.82c-3.55-1.71-8.18-5.17-11.28-7.63-.97-.77-1.92-2.5-1.94-3.73-.03-2.06,3.65-4.25,4.53-6.09.32-.66,0-1.15.36-1.66.91-1.32,3.19-.85,4.54-1.25-.29.83.13,1.83-.27,2.63-.35.7-1.57.61-1.76,1.29-.19.67.27,1.78.06,2.62-.17.7-.82,1.06-.86,1.78Z"/><path class="cls-4" d="M187.19,304.03c.18-.2.13-.68.22-.96,1.29.16,1.54,1.72,1.49,2.82-.04.82-1.32,6.57-1.57,6.82-.87.25-1.76.1-2.65.31-1.74.39-6.15,3.56-7.16.91-.57-1.49,1.47-4.24,1.68-5.98.15-1.25-1.16-3.48-.84-5.38.19-1.12,1.8-4.27,2.43-2.09.28.96-.46,3.58.27,4,.68.39,5.71.02,6.13-.44Z"/><path class="cls-4" d="M174.11,294.62c-.02.62-.18,1.56-.07,2.14.18.86,1.03.93.56,2.23-.25.68-2.07,2.2-2.83,1.98-1.95-.56-.14-2.4.05-3.11.1-.38-.39-.89-.09-1.72.27-.76,1.67-1.22,2.37-1.53Z"/><path class="cls-4" d="M273.28,193.74c.67.98-.37,4.01-1.02,4.89-.24.33-.45.37-.84.37-2.64-1.73-6.03-3.01-8.59-4.78-1.09-.76-1.93-1.41-.65-2.6,3.23,1.36,6.49.64,9.84,1.57.38.11,1.03.24,1.26.57Z"/><path class="cls-4" d="M265.3,233.93c1.95-.2,4.26,1.19,4.45,3.24.23,2.4-2.89,5.42-5.34,4.11-.56-.3-2.12-2.11-2.19-2.7-.12-1.13,1.81-4.53,3.08-4.66Z"/><path class="cls-3" d="M197.3,195.83c3.36.18,5.71,3.37,6.48,6.43.57,2.27-1.35,5.97-3.43,6.95-1.21.57-3.84.65-5.16.49-9.46-1.14-6.75-14.33,2.12-13.86ZM196.6,199.6c-5.58-.07-4.01,9.41,2.08,6.53.73-.35.98-.64,1.22-1.42.93-2.98.09-5.07-3.3-5.11Z"/><path class="cls-4" d="M196.6,199.6c3.39.05,4.23,2.13,3.3,5.11-.24.78-.49,1.08-1.22,1.42-6.08,2.88-7.66-6.61-2.08-6.53Z"/><path class="cls-4" d="M182.18,263.27s-4.66,2.68-5.4,3.14c-1.66,1.03-5.21,2.74-6.78,3.9-1.01.74-3.7,3.39-3.7,3.39l-4.94-4.22s8.51-4.25,10.99-5.74c1.25-.75,4.97-3.07,4.97-3.07l4.87,2.61Z"/><path class="cls-2" d="M118.06,299.44c-1.75,1.53-2.8,2.52-2.18,4.97.3,1.2,1.16,2.96,2.53,3.07.46.04.89-.34,1.23-.16-.18.82-4.67,3.86-5.05,3.36l1.31-1.67c-1.5-2.84-3.25-5.49-1.24-8.62,1.4-2.18,8.22-5.56,10.72-7.12,17.51-10.97,35.48-21.07,53.28-31.55,23.64-13.92,47.2-27.98,70.96-41.68.98.59,1.57,1.8.31,2.41-.56.27-.87-.26-1.46-.26-.89-.01-8.1,4.31-9.48,5.11-40.69,23.37-80.24,48.73-120.91,72.13Z"/><path class="cls-4" d="M102.02,239.74c3.01.02,5.54,1.04,7.58,3.06,2.04,2.02,3.05,4.53,3.02,7.54,0,1.28-.31,2.46-.91,3.55l3.6.03c.93,0,1.63-.31,2.09-.94.46-.64.64-1.44.54-2.4l2.84.02c.23.72.35,1.54.34,2.44-.01,1.81-.67,3.22-1.95,4.22,1.27,1.32,1.9,3.13,1.88,5.46,0,.48-.05.96-.13,1.44l-2.6-.02c0-.85-.23-1.58-.72-2.17-.49-.59-1.15-.89-1.97-.9l-17.48-.13c-.96,0-1.75.23-2.37.7-.7.55-1.04,1.3-1.02,2.23l-3.2-.02c-.08-.48-.11-1.05-.11-1.72.02-2.37.71-4.1,2.08-5.18-1.56-2.2-2.33-4.44-2.31-6.74.02-3.04,1.07-5.55,3.14-7.54s4.62-2.96,7.66-2.94ZM101.17,246.5c-.59,0-1.11.02-1.56.07-.96.1-1.94.47-2.93,1.1-1.21.74-1.81,1.56-1.82,2.44,0,1.02.34,1.92,1.04,2.7s1.54,1.18,2.53,1.19l9.28.07c.35-.64.53-1.37.54-2.2.01-1.84-.75-3.23-2.29-4.18-1.25-.78-2.84-1.18-4.79-1.2ZM101.21,243.86c-2.14-.02-4.17.81-6.08,2.47,1.93-1.08,4.12-1.61,6.55-1.59,2.49.02,4.69.78,6.6,2.29-.85-.91-1.93-1.67-3.25-2.27-1.32-.6-2.59-.9-3.82-.91ZM113.44,258.75l-13.44-.1c-2.21-.02-3.75.4-4.61,1.25.56-.34,1.68-.51,3.36-.5l14,.11c2.13.02,3.48.29,4.03.83-.34-1.04-1.45-1.57-3.35-1.59Z"/><path class="cls-4" d="M118.36,209.34c2.77.68,4.78,2.39,6.03,5.11,1.19,2.54,1.43,5.23.73,8.05-.31,1.27-.99,2.61-2.02,4.01-1.03,1.41-1.54,2.06-1.51,1.95-.1.42.24.66,1.01.74l-.73,2.95-10.36-2.1.49-2.8c1.72-.07,3.61-.66,5.67-1.78,2.31-1.24,3.65-2.59,4-4.04.28-1.14.14-2.23-.43-3.28-.57-1.05-1.42-1.71-2.56-1.99-1.92-.47-3.57.51-4.97,2.94-2.55,4.45-3.87,6.72-3.95,6.81-1.99,2.28-4.64,3.02-7.96,2.2-2.61-.64-4.5-2.15-5.64-4.52-1.07-2.21-1.28-4.67-.62-7.36.61-2.49,1.94-4.86,3.98-7.13l-1.29-.77.86-2.14,9.35,1.85-.38,2.38c-5.19-.1-8.21,1.54-9.04,4.9-.29,1.19-.08,2.33.64,3.41.72,1.08,1.69,1.78,2.91,2.08.96.24,1.93-.36,2.91-1.79.88-1.54,1.75-3.08,2.62-4.63,1.14-1.94,2.24-3.22,3.3-3.84,2.34-1.37,4.65-1.78,6.93-1.22ZM117.93,213.89c-3-.74-5.56,1.49-7.66,6.68-.76,1.85-1.93,3.25-3.51,4.2-1.66,1.05-3.44,1.35-5.33.91.52.24,1.02.42,1.52.54,1.79.44,3.38.15,4.79-.88,1.07-.75,2.11-2.04,3.13-3.84.78-1.48,1.55-2.97,2.33-4.45.44-.77,1.31-1.39,2.62-1.87,1.31-.47,2.41-.6,3.29-.38.42.1.82.26,1.2.46-.76-.71-1.55-1.17-2.38-1.37Z"/><path class="cls-4" d="M116.34,166.68l2.84,1.47c-.4.84-.48,1.92-.23,3.25.21,1.1.59,2.13,1.11,3.09l5.65,9.98,6.53,3.39c.67.35,1.38.33,2.16-.05s1.34-.97,1.69-1.78l2.36,1.22c-.14.83-.43,1.67-.87,2.52-.93,1.8-2.23,2.7-3.89,2.71.74,1.76.61,3.59-.37,5.49-.37.71-.86,1.37-1.48,1.98l-2.34-1.22.07-.14c.41-.78.55-1.54.44-2.28s-.55-1.3-1.31-1.69l-5.97-3.1-12.14.78c-1.59.11-2.46.16-2.62.17-1.1.21-1.82.63-2.15,1.27-.07.14-.15.29-.22.43l-2.67-1.39c.19-.77.51-1.58.95-2.43,1.07-2.06,2.37-3.12,3.91-3.2-.79-1.37-.69-3.02.31-4.93.26-.5.58-.99.96-1.49l2.75,1.47c-.39.28-.65.56-.8.85-.36.69-.28,1.16.22,1.42.36.19,1.86.2,4.5.04,1.61-.16,3.22-.3,4.83-.42-.61-1.25-1.23-2.52-1.86-3.8-1.07-2-1.94-3.17-2.63-3.53-.97-.5-1.8.1-2.48,1.82l-2.56-1.33c.24-.74.56-1.51.98-2.31,1.02-1.97,2.15-2.93,3.38-2.86-.39-1.79-.17-3.44.69-4.97l.27-.44ZM129.26,192.04l-6.34-3.29-12.46.66c-.53.03-1.16.17-1.89.42-.82.3-1.35.62-1.59.98.5-.43,3.02-.74,7.58-.93,2.76-.1,5.54-.19,8.33-.28,1.35.64,2.32,1.11,2.89,1.41,3.25,1.69,4.92,2.95,5.01,3.77.12-1.23-.38-2.14-1.52-2.73Z"/><path class="cls-4" d="M153.34,153.36c1.8,1.96,2.69,4.39,2.68,7.29,0,2.9-.88,5.37-2.62,7.4-2.57,3-5.72,4.43-9.45,4.28-3.47-.09-6.75-1.46-9.85-4.11-3.24-2.77-5.33-5.83-6.27-9.16-1.07-3.83-.29-7.29,2.34-10.37,1.46-1.7,3.43-3.01,5.94-3.92l-.51-1.44,1.71-1.75,7.42,6.35-1.53,1.79c-4.34-2.27-7.52-2.22-9.55.15-1.51,1.76-1.59,3.99-.24,6.69.99,2.04,2.5,3.93,4.53,5.66,2.11,1.8,4.27,3.04,6.47,3.7,2.9.87,5.15.38,6.72-1.46,1.14-1.34,1.63-2.95,1.47-4.85-.16-1.75-.8-3.33-1.93-4.76l2.69-1.49ZM147.67,170.19c-1.99.16-4.19-.23-6.59-1.16-2.21-.87-4.13-2-5.77-3.41-2.43-2.08-4.41-4.77-5.93-8.08.26,3.06,2.06,6.02,5.4,8.88,1.91,1.63,3.92,2.81,6.03,3.53,2.45.83,4.73.91,6.85.23Z"/><path class="cls-4" d="M178.16,132.65l4.11,9.7-2.25,1.67-1.31-.62c-1.14,1.91-2.6,3.52-4.38,4.84-2.01,1.49-3.99,2.05-5.94,1.66-.09,1.89-.83,3.36-2.22,4.39-.56.41-1.2.71-1.93.89l-1.69-2.28c.9-.67,1.34-1.57,1.32-2.71-.02-1.01-.37-1.97-1.05-2.89l-9.15-12.34c-1.18-1.6-2.88-1.8-5.07-.6l-1.66-2.24c.36-.41.83-.82,1.41-1.25,1.84-1.37,3.66-1.9,5.44-1.59.19-1.76,1.2-3.33,3.04-4.7.39-.29.79-.54,1.23-.76l1.69,2.28-.1.07c-.85.56-1.3,1.28-1.36,2.17-.06.88.23,1.75.86,2.6l10.1,13.62c1.24-.12,2.44-.62,3.62-1.5,2.74-2.03,3.64-5.37,2.69-10.01l2.6-.38ZM164.87,145.69l-8-10.8c-.43-.58-1.01-1.16-1.75-1.74-.82-.65-1.53-1.02-2.11-1.12.59.26,1.39,1.06,2.39,2.41l8.34,11.25c1.27,1.71,1.86,2.95,1.76,3.72.71-.96.51-2.2-.62-3.72Z"/><path class="cls-4" d="M206.76,120.11l3.22,9.16-1.98.86-1.73-1.25c-1.49,1.99-3.38,3.49-5.68,4.49-2.22.97-4.42,1.1-6.6.39-.96,2.08-2.29,3.49-4,4.24-.42.18-.84.3-1.29.35l-1.19-2.71c.76-.33,1.13-1.03,1.13-2.11.02-.82-.16-1.66-.53-2.51l-5.85-13.37c-.53-1.22-1.18-2.14-1.96-2.76-1.01-.83-2.04-.92-3.07-.27l-1.17-2.67.72-.36c2.95-1.38,4.98-1.52,6.09-.44,1.26-2.04,2.96-3.52,5.08-4.45.78-.34,1.88-.59,3.29-.76,1.41-.17,2.37-.36,2.89-.58.9-.39,1.26-1,1.08-1.82l2.44.1,2.5,5.61-1.8,1.57c-.77-1.09-1.84-1.77-3.21-2.05-1.37-.27-2.68-.14-3.92.41-1.76.77-2.76,1.79-2.99,3.05-.14.94.14,2.22.86,3.86.14.32.36.82.66,1.5.31.65.55,1.16.71,1.52.53,0,1.04-.11,1.56-.33,1.66-.73,2.01-2.32,1.05-4.78l2.61-1.01c.11.18.23.44.37.75,1.06,2.42,1.11,4,.15,4.74,1.52.35,2.76,1.44,3.7,3.27l-2.93,1.28c-.72-.72-1.26-1.15-1.62-1.31-.56-.21-1.27-.13-2.12.24-.56.25-.9.61-1.01,1.09,1.17,2.67,2.01,4.36,2.53,5.09,1.43,2,3.04,2.61,4.82,1.83,1.93-.84,3.26-2.03,3.99-3.56.8-1.62.82-3.41.06-5.36l3.13-.93ZM185.12,117.52c-.3-.68-.72-1.39-1.27-2.11-.65-.82-1.24-1.35-1.78-1.58.52.38,1.11,1.35,1.79,2.89l5.61,12.83c.85,1.95,1.15,3.3.88,4.02.86-.75.92-2,.16-3.73l-5.38-12.31Z"/><path class="cls-4" d="M238,113.94c.5,2.81-.25,5.34-2.23,7.59-1.85,2.11-4.2,3.43-7.06,3.93-1.29.23-2.78.16-4.49-.22-1.71-.37-2.51-.57-2.4-.59-.42.07-.51.48-.27,1.22l-2.99.53-2.28-10.32,2.76-.69c.76,1.54,2.07,3.03,3.92,4.46,2.07,1.61,3.84,2.28,5.31,2.02,1.16-.2,2.1-.78,2.82-1.72.73-.94.99-1.99.78-3.15-.34-1.94-1.91-3.06-4.7-3.35-5.11-.53-7.71-.81-7.83-.85-2.89-.89-4.64-3.02-5.24-6.38-.47-2.65.14-4.98,1.85-6.99,1.59-1.88,3.75-3.06,6.48-3.55,2.52-.45,5.23-.2,8.14.75l.18-1.49,2.3-.08,2.1,9.3-2.33.62c-2.01-4.79-4.73-6.88-8.14-6.27-1.21.21-2.16.87-2.86,1.97-.7,1.1-.94,2.27-.72,3.5.17.97,1.11,1.62,2.82,1.94,1.76.17,3.53.35,5.29.52,2.24.25,3.85.74,4.85,1.46,2.2,1.59,3.51,3.53,3.92,5.84ZM233.66,115.4c-.54-3.05-3.61-4.48-9.21-4.3-2,.06-3.75-.45-5.26-1.5-1.63-1.09-2.63-2.59-2.99-4.51,0,.57.03,1.11.12,1.6.32,1.81,1.24,3.15,2.74,4.02,1.12.67,2.71,1.1,4.78,1.3,1.67.11,3.34.22,5.02.33.88.09,1.8.63,2.77,1.64.96,1.01,1.52,1.96,1.68,2.85.07.42.1.85.06,1.29.34-.98.44-1.89.29-2.73Z"/><path class="cls-4" d="M271.4,114.83c-.47,2.62-1.86,4.8-4.18,6.55-2.32,1.75-4.81,2.55-7.47,2.4-3.94-.23-6.99-1.87-9.13-4.93-2.03-2.81-2.93-6.26-2.7-10.33.24-4.26,1.4-7.77,3.49-10.54,2.4-3.18,5.62-4.65,9.67-4.42,2.24.13,4.47.91,6.72,2.35l.83-1.28,2.43.3-.55,9.74-2.36-.13c-.82-4.83-2.79-7.33-5.9-7.51-2.32-.13-4.14,1.15-5.47,3.86-1.02,2.02-1.61,4.37-1.76,7.03-.16,2.77.17,5.23.98,7.39,1.07,2.84,2.81,4.33,5.23,4.46,1.76.1,3.34-.49,4.75-1.77,1.29-1.18,2.17-2.65,2.62-4.42l2.81,1.24ZM254.56,120.52c-1.33-1.49-2.35-3.47-3.07-5.94-.65-2.28-.91-4.5-.78-6.66.18-3.19,1.13-6.4,2.83-9.61-2.28,2.06-3.55,5.29-3.8,9.68-.14,2.5.14,4.82.85,6.94.82,2.45,2.14,4.31,3.97,5.59Z"/><path class="cls-4" d="M307.53,131.65l-.83,2.63c-.22-.01-.51-.08-.86-.19-2.42-.76-3.96-2.02-4.64-3.77-1.82.88-4,.92-6.54.12-.43-.14-.84-.29-1.24-.47l.79-2.52c.79.25,1.54.36,2.24.33.99-.02,1.58-.34,1.77-.95.11-.36.08-1.04-.11-2.05-.16-.66-.31-1.34-.45-2.03l-11.83-3.73c-1.16,1.38-1.81,2.28-1.94,2.69-.5,1.59.42,2.73,2.78,3.42l-.8,2.54c-.38-.04-.82-.13-1.33-.29-1.75-.55-2.95-1.55-3.59-2.98-1.85.65-3.56.72-5.11.24-.58-.19-1.1-.47-1.53-.86l.78-2.49c1.88.51,3.42.07,4.61-1.32,2.38-2.75,4.77-5.51,7.18-8.28,3.98-4.65,6.07-7.29,6.27-7.9.25-.79-.14-1.35-1.15-1.67-.31-.1-.62-.2-.95-.3l.98-2.97c.55.04,1.18.17,1.89.39,2.34.74,3.84,2.05,4.5,3.94.74-.56,1.69-.89,2.87-.97,1.06-.09,2.08.01,3.04.32.54.17,1.05.39,1.55.66l-.87,2.76c-.64-.18-1.24-.18-1.8-.02-.67.18-1.1.57-1.29,1.15-.12.38-.13.86-.03,1.43l3.38,19.48c.39,2.22,1.14,3.44,2.25,3.65ZM296.67,117.99l-1.61-9.97-6.14,7.53,7.76,2.45ZM300.25,126.83c.33-1.04.42-2.02.27-2.94l-2.51-15.85c-.11-.54-.5-1.13-1.17-1.79l3.41,20.58Z"/><path class="cls-4" d="M342.73,134.61c-1.63,2.54-3.84,4.13-6.63,4.77-2.79.65-5.46.16-7.99-1.47-1.08-.69-1.92-1.58-2.52-2.66l-1.95,3.03c-.5.79-.61,1.54-.32,2.27.29.73.87,1.31,1.74,1.73l-1.54,2.39c-.74-.19-1.49-.53-2.25-1.02-1.53-.98-2.37-2.28-2.53-3.91-1.79.37-3.66-.07-5.62-1.33-.4-.26-.79-.55-1.15-.88l1.4-2.19c.72.46,1.46.64,2.22.54.76-.1,1.36-.49,1.81-1.19l9.45-14.71c.52-.81.74-1.6.67-2.38-.09-.89-.54-1.57-1.34-2.05l1.73-2.69c.45.19.95.47,1.51.83,2,1.28,3.09,2.79,3.27,4.53,2.69-.14,5,.41,6.93,1.65,2.56,1.64,4.12,3.87,4.7,6.68.57,2.81.04,5.49-1.6,8.05ZM320.56,134.11l7.26-11.31c1.2-1.86,1.67-3.38,1.41-4.56-.01.66-.47,1.69-1.38,3.11l-7.57,11.78c-1.15,1.8-2.11,2.78-2.86,2.97,1.06.27,2.1-.39,3.13-1.98ZM337.47,130.28c.32-.49.58-.95.78-1.36.43-.87.64-1.89.63-3.07.02-1.42-.35-2.36-1.09-2.84-.86-.55-1.8-.74-2.84-.56-1.04.17-1.82.68-2.35,1.51l-5.02,7.81c.35.64.88,1.18,1.57,1.63,1.55.99,3.13,1.09,4.75.3,1.33-.64,2.52-1.77,3.57-3.41ZM339.68,131.72c1.16-1.8,1.54-3.95,1.15-6.46-.12,2.21-.84,4.34-2.15,6.39-1.34,2.09-3.17,3.55-5.46,4.36,1.22-.23,2.44-.74,3.65-1.54,1.21-.8,2.15-1.71,2.81-2.75Z"/><path class="cls-4" d="M360.43,164.72l-7.43,6.25-1.51-1.55.56-2.06c-2.39-.69-4.46-1.93-6.21-3.73-1.7-1.74-2.6-3.75-2.7-6.03-2.28-.16-4.07-.91-5.38-2.24-.32-.33-.58-.69-.78-1.08l2.12-2.07c.58.59,1.37.7,2.37.31.77-.27,1.49-.73,2.16-1.38l10.45-10.19c.95-.93,1.58-1.86,1.89-2.8.42-1.24.14-2.23-.84-2.97l2.08-2.03.59.54c2.33,2.27,3.18,4.12,2.56,5.55,2.35.46,4.34,1.52,5.96,3.18.6.61,1.22,1.55,1.88,2.81.65,1.26,1.18,2.09,1.57,2.49.69.71,1.38.83,2.09.37l.77,2.32-4.37,4.31-2.1-1.13c.75-1.1,1.01-2.34.78-3.72-.23-1.38-.82-2.56-1.77-3.53-1.34-1.37-2.65-1.95-3.91-1.72-.93.2-2.03.92-3.31,2.17-.25.24-.64.62-1.17,1.15-.5.52-.89.92-1.17,1.2.18.49.47.94.86,1.34,1.27,1.3,2.88,1.06,4.84-.71l1.87,2.09c-.13.17-.33.37-.57.62-1.89,1.84-3.35,2.45-4.38,1.81.21,1.55-.38,3.09-1.75,4.62l-2.24-2.29c.42-.93.63-1.59.65-1.98,0-.6-.32-1.23-.97-1.9-.43-.44-.89-.62-1.38-.56-2.08,2.03-3.37,3.42-3.87,4.16-1.37,2.04-1.37,3.76-.01,5.15,1.47,1.51,3.05,2.33,4.74,2.47,1.8.18,3.48-.43,5.04-1.84l1.98,2.6ZM355.2,143.56c.54-.52,1.04-1.17,1.52-1.93.54-.9.82-1.64.85-2.22-.18.62-.87,1.52-2.07,2.69l-10.02,9.78c-1.53,1.49-2.68,2.24-3.45,2.25,1.01.54,2.2.15,3.55-1.17l9.62-9.39Z"/></svg>