<?xml version="1.0" encoding="UTF-8"?><svg id="Layer_1" xmlns="http://www.w3.org/2000/svg" viewBox="0 0 500 500"><defs><style>.cls-1{fill:#252525;}</style></defs><path d="M388.09,349.83c5.58-.61,9.21,1.71,13.06,5.39,6.56,6.26,7.65,16.4,1.49,23.37-7.48,8.46-19.48,4.57-26.01,16.91-2.66,5.03-2.47,7.49-7.19,11.67-8.4,7.44-19.97,5.35-24.25-5.29-2.02-5.01-1.03-16.15,3.05-20.02,4.06-3.85,14.03-4.53,19.4-7.67,9.18-5.36,6.53-22.85,20.46-24.37ZM390.27,358.03c-2.59.36-5.05,2.62-6.61,4.6-5.03,6.4.27,14.93,8.18,14.19.94-.09,4.27-1.54,4.91-2.2,4.26-4.4,2.29-11.82-2.18-15.29-1.49-1.15-2.34-1.58-4.3-1.3ZM357.46,385.91c-2.48.36-5.12,2.2-5.61,4.78-1.01,5.35,1.21,12.11,6.89,13.75,3.95,1.14,7.8-4.51,7.78-8.05-.02-4.2-4.27-11.18-9.06-10.49Z"/><path d="M79.13,304.73c5.95-.75,14.12,4.14,16.6,9.5s1.84,8.11,2.4,13.45c.59,5.63,3.99,7.79,8.15,10.99,4.45,3.42,11.51,6.43,13.51,11.92,2.28,6.27-.17,11.28-4.24,15.98-8.24,9.53-17.26,8.23-25.25-.7-5.5-6.14-3.93-16.86-8.25-24.28-3.37-5.8-12.92-7.51-16.03-14.04-4.61-9.69,2.73-21.5,13.11-22.81ZM80.23,312.66c-2.05.24-3.32.91-4.59,2.52-5.45,6.93.45,15.95,8.85,15.14,3.55-.34,7.75-3.58,7.55-7.47-.33-6.34-5.45-10.92-11.82-10.19ZM104.84,348.2c-5.67.34-8.6,4.94-7.85,10.42.31,2.28,4.47,5.63,6.67,5.91,4.33.54,9.15-2.37,9.43-6.98.33-5.32-2.65-9.68-8.25-9.34Z"/><path d="M273.42,413.01c7.08-5.09,18.03-.02,26.23-4.53,5.04-2.78,7.22-6.52,11.27-9.78,9.27-7.47,22.37-2.65,25.54,8.62,2.56,9.1-.48,16.75-8.48,21.56-8.52,5.12-14.64-.3-23.23,1.65-9.66,2.19-13.53,14.65-25.02,11.1-2.92-.9-5.56-2.75-7.5-5.08-4.74-5.7-5.37-18.82,1.19-23.53ZM321.38,406.15c-3.43.32-5.06,1.24-6.55,4.38-1.91,4.02-.68,8.6,3.25,10.79,7.76,4.33,15.47-3.64,11.24-11.24-1.79-3.21-4.35-4.27-7.93-3.94ZM282.82,416.52c-5.76,1.08-9.17,8.42-5.39,13.19,7.17,9.04,20.9,2.09,15.98-8.87-1.55-3.46-7.12-4.96-10.59-4.31Z"/><path d="M427.19,276.03c9.35-.23,16.87,6.6,16.2,16.2-.67,9.61-11.15,12.4-14.17,21.65-1.79,5.48.27,7.55.73,12.55.99,10.85-8.64,20.35-19.67,17.48-1.75-.46-1.99-1.32-3.17-2.02-2.9-1.71-5.12-2.14-6.88-5.42-4.63-8.63-1.92-17.35,5-23.6,1.72-1.55,3.59-2.39,5.2-4.36,4.81-5.86,1.97-9.85,1.5-16.27-.8-11.03,4.64-15.92,15.25-16.18ZM425.54,282.31c-1.29.22-5.25,2.71-5.74,3.83-.34.78-.3,3.25-.21,4.18.53,6.06,7.23,9.18,12.59,6.82,2.89-1.27,3.58-4.18,3.58-7.11,0-4.71-5.8-8.49-10.21-7.73ZM415.36,320.65c-3-.05-8.09,3.05-9.16,6.02.4,3.24.26,6,3.54,7.66,4.76,2.41,10.76.46,11.43-5.28.41-3.5-1.85-8.33-5.81-8.39Z"/><path d="M129.72,372.26c5.49-.53,12.03,3.18,15.63,7.17,2.45,2.71,6.95,11.46,9.86,12.55,5.24,1.95,11.99,1.53,17.54,3.24,4.93,1.51,10.53,5.04,11.79,10.35,3.55,14.97-14.98,29.7-26.48,16.63-5.57-6.32-5.79-13.13-15.26-16.46-5.26-1.85-14.28-.5-18.87-3.82-10.98-7.96-9.26-28.22,5.77-29.67ZM131.37,379.07c-10.46.74-7.46,19.96,3.95,17.37,2.5-.57,6.27-3.41,6.5-6.08.52-5.97-4.29-11.73-10.45-11.29ZM167.72,403.14c-7.23,1.05-9.34,11.7-1.94,15.46,9.84,4.99,15.84-8.21,9.75-13.03-1.98-1.57-5.28-2.8-7.81-2.44Z"/><path d="M391.1,121.59c9.05-.93,16.66,3.28,18.06,12.67.7,4.69.43,7.77,2.37,12.39,3.37,8.03,7.65,7.6,13.26,12.72,5.95,5.43,10.35,13.47,5.64,21.22-5.98,9.83-22.67,7.11-28.02-1.85-3.5-5.85-3.29-9.14-3.86-15.55-1.16-13.06-11.68-11.99-18.2-20.08-3.35-4.16-2.77-11.55-.08-15.94,1.69-2.75,7.65-5.25,10.82-5.58ZM392.75,127.59c-11.12.51-8.11,19.01,3.14,14.63,8.29-3.23,6.02-15.05-3.14-14.63ZM413.79,163.67c-4.5.62-8.05,5.38-7.3,9.89.2,1.22,3.19,3.08,4.35,3.58,5.96,2.56,13.27-.78,12.29-7.91-.25-1.84-2.19-3.57-3.72-4.48-1.91-1.13-3.39-1.38-5.62-1.08Z"/><path d="M325.49,70.74c6.08-.63,9.45.88,13.02,5.68,2.31,3.11,4.12,6.59,7.14,9.26,8.16,7.22,20.79,1.64,29.94,10.8,9.95,9.97,1.39,25.37-12.18,25.03-9.35-.23-12.04-6.81-16.03-13.5-6.7-11.22-25.67-4.76-32.33-14.15-6.69-9.43-1-21.95,10.44-23.13ZM324.66,76.75c-12.91,1.76-5.07,20.6,6.81,14.46,5.15-2.66,3.56-8.1.36-11.66-2.19-2.43-3.81-3.26-7.17-2.81ZM362.13,98.34c-2.71.11-5.87,2.47-6.71,5.07-1.66,5.11,2.37,11.71,7.99,11.26,6.46-.52,10.13-6.1,6.85-12.04-1.69-3.07-4.64-4.44-8.13-4.3Z"/><path d="M87.35,146.19c10.61-.69,18.96,10.23,15.14,20.33-3.6,9.54-15.68,10.49-15.65,21.55.01,5.82,1.84,11.63-1.56,17.01-4.75,7.5-15.08,9.89-21.67,3.23-6.11-6.17-6.09-13.53-.8-20.23,2.86-3.62,8.01-6.26,9.84-10.39,3.38-7.63.52-16.19,3.5-22.74,2.43-5.33,5.02-8.35,11.2-8.75ZM87.88,154.1c-4.3.72-5.21,7.15-3.26,10.51,4.24,7.33,13.82,1.01,10.09-6.81-1.1-2.31-4.28-4.13-6.83-3.7ZM72.84,190.46c-1.97.34-4.6,2.89-5.45,4.67-1.14,2.38-1.39,4.32,0,6.67,1.72,2.92,5.47,3.68,8.45,2.32,7.79-3.57,4.53-14.95-2.99-13.65Z"/><path d="M425.54,198.66c10.61-1.44,21.54,5.86,17.84,17.57-1.9,6.02-6.64,7.57-4.73,14.84,1.7,6.47,9.31,11.77,8.49,18.98-1.36,11.94-13.8,18.55-24.24,11.8-7.35-4.75-8.96-11.1-5.54-19.16,1.23-2.91,3.76-6.11,4.12-9.28.59-5.24-5.12-10.21-6.94-14.87-3.56-9.14,1.01-18.53,11-19.88ZM427.18,205.5c-5.28.68-6.96,3.95-6.15,9.02.82,5.22,6.19,4.73,10.12,5.62,5-1.64,5.88-9.54,1.82-12.64-1.77-1.35-3.53-2.29-5.79-2ZM429.37,241.86c-7.64,1.11-7.73,11.51-1.91,14.34,6.23,3.03,13.13.5,12.36-7.17-.56-5.64-5.19-7.94-10.45-7.18Z"/><path d="M242.64,53.52c8.05-.15,9.41,4.6,15.08,7.45,9.06,4.55,17.11-4.26,26.67-3.99,9.81.27,17.09,9.2,13.94,18.87-2.79,8.57-7.57,12.66-16.91,11.73-10.06-1.01-13.3-13.81-26.08-9.34-5.95,2.09-8.04,4.76-15.24,4.75-4.97,0-8.22-1.19-10.19-5.97-4.29-10.43.18-23.27,12.73-23.5ZM241.27,60.62c-2.25.31-4.62,1.81-5.95,3.62-6.1,8.3,8.71,16.57,13.94,9.29,1.19-1.65,2.2-6.45,1.56-8.4-1.25-3.84-5.94-5.01-9.56-4.52ZM290.19,68.01c-3.92-4.52-12.4-2.43-14.65,2.82-1.62,3.79-1.06,6.71,2.29,9.13,5.09,3.67,15.7-1.31,14.29-8-.12-.59-1.54-3.48-1.94-3.94Z"/><path d="M204.91,413.26c9.95-.91,14.09,7.62,23.64,6.41,1.73-.22,3.4-1.14,5.01-1.55,5.39-1.38,14.62-3.29,19.4.26,10.16,7.55,5.14,23.52-5.69,27.39-9.66,3.45-15.5-6.51-24.67-6.62-4.76-.06-8.86,2.24-13.19,3.49-21.7,6.24-23.85-27.59-4.49-29.36ZM206.55,419.82c-5.44.58-9.06,5.6-6.28,10.77,3.12,5.8,12,5.07,14.47-.94,1.29-3.13,1.25-4.95-1.29-7.33-1.76-1.64-4.48-2.77-6.91-2.51ZM243.38,422.9c-7.72-.11-11.04,9.72-4.92,14.6,5.19,4.13,12.37,2.33,13.46-4.57.86-5.42-3.12-9.96-8.55-10.03Z"/><path d="M65.47,228.47c10.08-1.04,14.77,7.72,14,16.73-.62,7.19-4.75,9.67-1.84,17.7,3.07,8.49,9.34,16.81,2.51,25.88-3.87,5.14-15.4,6.98-20.48,3.02-7.21-5.63-5.21-13.15-2.54-20.57.67-1.87,1.96-3.65,2.27-5.65,1.78-11.27-8.38-16.14-6.32-27.36.93-5.07,7.53-9.25,12.4-9.75ZM66.83,235.55c-2.02.22-4.9,2.83-5.83,4.58-1.1,2.09-1.02,5.56.55,7.4,2.04,2.4,7.4,2.52,9.59.27,2.73-2.8,2.41-7.93-.28-10.68-.78-.8-2.92-1.71-4.03-1.58ZM68.76,274.1c-5.83.56-9.33,10.34-2.41,12.12,2.19.56,7.13.11,8.6-1.8,3.67-4.76-.28-10.88-6.19-10.31Z"/><path d="M136.28,86.04c3.24-.44,4.65.3,7.32,1.84,7.26,4.18,11.19,9.86,7.72,18.39-2.27,5.59-9.4,8.12-14.76,9.85-3.7,1.19-7.02.79-9.35,4.32-5.79,8.75-3.87,21.38-18.86,19.63-10.4-1.22-13.51-12.83-10.06-21.48,3.91-9.79,13.43-7.47,20.65-12.16,3.03-1.97,5.08-8.01,7.07-11.25,2.2-3.58,5.83-8.53,10.27-9.14ZM137.1,95.61c-2.38.35-4.88,2.21-5.13,4.71-.25,2.46.27,3.53,2.06,5.05,3.47,2.95,8.18,4.16,10.19-1.01,2.29-5.89-1.03-9.65-7.12-8.76ZM117.66,130.44c2.04-1.98,2.81-8.37.79-10.58-1.81-1.97-6.71-2.81-9.24-2.38-3.89.66-6.48,6.23-5.54,9.78.57,2.16,4.97,5.22,7.12,5.46s5.27-.71,6.88-2.28Z"/><path d="M204.63,59.26c6.6-.69,13.33,5.42,14.74,11.62,1.83,8.01-8.02,15.59-15.13,16.7-4.78.75-7.9-.88-12.3-1.3-3.17-.31-4.01.17-6.4,2.01-5.52,4.26-7.07,8.58-15.2,9.4-7.41.75-10.26-3.2-12.34-9.74-3.62-11.37,6.63-19.28,17.29-18.65,3.89.23,7.47,2.07,10.97,2.43,4.64.48,4.94-2.25,7.11-5.14,2.41-3.22,7.15-6.9,11.26-7.33ZM203.25,66.89c-1.74.15-4.68,2.6-5.44,4.13-1.53,3.04-1.32,7.57,1.95,9.36,3.76,2.06,8.53,2.02,11.34-1.54,3.27-4.14.53-10.81-4.42-11.67-.6-.1-2.89-.33-3.43-.28ZM171.27,77.02c-5.86.86-9.28,7.8-5.13,12.36,7.62,8.37,21.16-5.45,10.74-11.29-1.96-1.1-3.32-1.41-5.62-1.08Z"/><path d="M77.78,214.22c.98.64-.81,4.98-1.01,6.14-.14.81-.29,2.13-.32,2.96-.07,1.97.72,4.17-.26,5.76-.92.56-3.48-1.79-4.58-2.27-3.75-1.65-7.62-1.18-11.36.27-.74.29-1.58,1.35-2.26.77-.62-.96,2.21-5.86,2.62-7.24.57-1.95.67-4,.53-6.02-.12-1.75-1.32-4.32.14-5.6,1.72,1.82,4.33,3.52,6.76,4.17,3.25.87,6.47.56,9.73,1.06Z"/><path d="M299.57,64.65c.7-.7,5.26,2.71,6.2,3.23,3.13,1.7,6.64,3.17,10.28,2.28l.7.7c.42,1.48-2.28,2.2-3.25,2.94-3.13,2.4-4.47,6.52-4.07,10.37.07.71,1.07,2.48.27,3.05s-5.25-1.4-6.72-1.52c-2.27-.18-4.72,1.01-6.55.81-2.87-.33,1.12-3.44,1.63-4.09,2.55-3.17,4.52-9.67,3.2-13.59-.26-.78-2.25-3.62-1.7-4.18Z"/><path d="M397.16,335.56c.29.19,2.26,5.17,3.18,6.26,3.17,3.76,8.06,5.39,12.84,5.23,2.19-.07,4.18-1.03,1.76,2.03-1.39,1.75-3.12,3.24-4.43,5.14-1.21,1.76-1.82,3.84-3.09,5.39-.47.11-.53-.37-.69-.67-2.13-4.01-3.1-5.7-7.18-8.13-2.49-1.48-4.96-1.69-7.36-2.75-3.43-1.51-.36-2.86.88-4.45.82-1.05,1.76-2.83,2.2-4.08.27-.78.73-4.73,1.89-3.96Z"/><path d="M440.41,278.65c-1.46-2.41-4.28-4.28-7.08-4.81-2.95-.56-6.5-.73-9.47-.31-1.39.2-2.83,1.24-4.15.54-1.05-.79,1.06-3.88,1.23-5.1s-.47-5.18,0-5.73c1.05-1.26,3.07.66,4.14,1.11,3.49,1.48,9.47,3.25,13.11,1.91.94-.35,3.21-2.41,3.69-2.32.56.11.45,1.6.41,2.05-.27,3.49-1.64,6.1-1.36,10.11.07,1.05,1.26,2.8-.52,2.56Z"/><path d="M431.35,183.28c.16,4,.43,7.3,2.41,10.85.46.82,2.52,2.74,1.43,3.53-.81.59-3.84-1.36-4.93-1.67-4.51-1.25-9.79.7-13.6,3.1-.28.05-.96-.08-1.11-.29-.24-.33-.59-4.1-.95-5.19s-1.08-2.44-1.99-3.22c-.86-1.64,4.87-1.02,5.77-1.08,2.79-.19,7.31-1.25,9.43-3.15,1.19-1.06,1.76-3.24,3.55-2.88Z"/><path d="M95.29,130.57c.3.18,2.06,5.22,2.82,6.34,1.12,1.64,4.64,4.44,6.57,4.91,1.74.43,5.27-.65,4.83,1.52-2.31.74-4.71,3.94-5.09,6.25-.23,1.37.43,3.01-.75,3.89-3.07-4.07-7.21-8.32-12.37-9.49-.71-.16-2.63.19-2.79-.78-.05-.31,2.29-2.17,2.78-2.92,1.56-2.42,3.04-6.87,2.96-9.76l1.05.04Z"/><path d="M70.59,297c1.87-.24,4.82-1.55,6.4-2.62.75-.51,2.56-2.52,3.4-2.28l4,9.53c-1.26.52-2.61.16-3.92.32-2.65.32-5.38,1.92-7.64,3.3-2.08,1.27-4.08,3.44-6.48,3.77v-4.78c0-.46-.91-4.02-1.15-4.59-.41-.99-1.34-1.41-1.04-2.65,2.03-.18,4.45.25,6.43,0Z"/><path d="M342.45,394.08c.56.35.01,2.78.07,3.61.22,3.2,2.01,7.68,4.08,10.14.28.83,3.56,3.51,3.56,3.84s-.18.52-.45.66c-3.31.97-6.49,2.53-8.86,5.08l-.94.16c-.6-.16-.05-6.44-.15-7.53-.27-3.04-2.24-6.74-3.68-9.44-.72-1.34-2.94-3.2-.96-4.23,1.15-.6,3.23-.97,4.57-1.44.73-.26,1.87-1.41,2.77-.84Z"/><path d="M381.32,111.12c1.17-.24,1.21,1.05,1.69,1.73,1.88,2.72,2.61,4.31,5.78,5.7,1,.44,2.73.3,2.33,1.67-.32,1.12-1.96.61-2.8.76-3.75.7-7.17,2.51-9.41,5.63-.55.77-1.8,3.35-2.1,3.64-.26.25-.4.38-.79.26-1.6-2.25-3.41-3.99-5.76-5.46-.69-.43-2.57-.7-2.3-1.73.25-.96,3.53-1.34,4.53-1.77,3.41-1.46,8.65-6.47,8.84-10.44Z"/><path d="M124.49,370.35c.15.18.25.37.31.6-3.63,2.38-7.13,3.92-9.01,8.15-.76,1.71-1.05,3.41-1.75,5.1-.8.16-1.68-1.63-2.17-2.18-1.42-1.61-3.56-4.25-5.09-5.57-.92-.79-3.48-1.39-1.22-2.37,4.56-1.97,7.33-.52,11.09-5.59.85-1.15,1.28-3.92,2.93-3.21.72.31,4.17,4.2,4.9,5.08Z"/><path d="M188.83,430.95c-2.42-.74-4.09-3.1-6.45-4.07-1.38-.57-2.78-.58-4.21-.85-.24-1.19.8-.98,1.46-1.41,5.03-3.25,6.39-6.96,7.16-12.8,1.18-2.18,7.76,1.47,8.3,3.46-2.1,3.02-4.22,5.73-5.36,9.31-.74,2.31-.48,4.06-.89,6.36Z"/><path d="M267.3,419.47c-.09,1.59-1.14,2.86-1.34,4.54-.3,2.58.27,4.59,1.21,6.94.41,1.03,3.32,6,2.85,6.55-3.05.41-6.03.27-9.01,1.24-.62.2-3.32,2.12-3.24.6.04-.8,1.59-3.19,2-4.3,1.29-3.53,1.54-7.98-.44-11.29-.54-.89-1.73-1.23-1.29-2.61l9.26-1.67Z"/><path d="M227.08,58.4c.19,2.43-1.57,4.56-1.85,6.96-.38,3.26.24,7.09,2.2,9.77.44.6,1.32.55,1.01,1.63-.22.76-2.59,1.06-3.51,1.43-.84.33-4.34,2.94-4.37,1.11-.01-.76.98-2.8,1.1-4.11.37-4.21-.38-8.28-3.71-11.07-.61-.52-4.42-2.43-1.65-2.75,2.48-.29,4.3.51,6.81-.85,1.31-.71,2.42-2.88,3.97-2.11Z"/><path d="M154.38,81.6c.87,3.36.56,7.07,2.15,10.29,1.19,2.41,3.57,3.31,5.22,5.18.11.6-3.62,2.55-4.34,2.99-.48.29-1.3,1.61-1.93.46-.35-.63-.49-2.93-.96-4.16-2-5.19-5.49-5.3-8.47-8.48-2.29-2.44,1.76-2.44,3.52-3.31.94-.47,4.24-3.38,4.81-2.97Z"/><path d="M388.9,362.4c8.67-1.5,7.76,13.65-.54,10.8-4.2-1.44-4.82-9.87.54-10.8Z"/><path d="M358.84,389.73c1.33-.1,2.64.96,3.34,1.99,3.01,4.4-2.93,10.75-6.52,6.8-2.6-2.86-.79-8.48,3.18-8.79Z"/><path d="M80.77,316.47c2.79-.52,6.5,1.33,6.58,4.44.11,4.46-3.05,6.6-7.21,5.08s-3.31-8.79.63-9.52Z"/><path d="M103.47,351.47c5.34-.73,7.96,4.06,4.28,7.83-2.07,2.13-4.6,2.09-7.04.52-3.5-2.26-1.14-7.82,2.76-8.36Z"/><path d="M283.64,420.62c3.21-.66,6.53,1.09,6.06,4.7-.69,5.36-11.31,7.48-10.07-.23.24-1.52,2.5-4.15,4.01-4.46Z"/><path d="M326.27,410.27c2.83,2.83.35,8.2-3.32,8.66-4.49.56-6.95-2.2-5.47-6.56,1.09-3.2,6.33-4.56,8.78-2.1Z"/><path d="M426.36,285.04c5.91-.96,9.63,7.4,2.45,9.83-2.87.97-5.59-.3-5.94-3.47-.31-2.81.27-5.84,3.48-6.36Z"/><path d="M413.24,323.85c4.36-.85,5.95,5.31,3.37,7.75-3.14,2.97-8.22,2.22-7.88-2.66.14-2.04,2.53-4.7,4.51-5.09Z"/><path d="M136.79,384.85c1.35,1.38,1.72,3.29,1.4,5.17-.78,4.6-7.12,4.93-9.29,1.21-3.55-6.07,2.98-11.38,7.89-6.38Z"/><path d="M168.81,406.41c2.07-.36,3.26-.04,4.56,1.6,1.92,2.42,1.74,5.74-.8,7.63-2.12,1.58-4.55.55-6.41-.97-3.29-2.7-1.25-7.59,2.65-8.26Z"/><path d="M413.78,167.49c3.87-.8,8.24,2.46,5.54,6.36-1.65,2.39-6.15,2.17-7.62-.32-1.21-2.06-.5-5.52,2.07-6.05Z"/><path d="M391.63,130.59c2.44-.5,4.8.13,5.86,2.49,2.85,6.3-6.42,8.44-8.63,3.44-1.07-2.42.08-5.37,2.77-5.92Z"/><path d="M362.38,102.16c5.69-.98,7.33,6.2,2.26,8-6.59,2.33-8.37-6.95-2.26-8Z"/><path d="M324.1,79.75c3.63-.75,6.83,1.71,6.37,5.55-.47,3.95-8.7,3.97-9.28-.85-.23-1.91.92-4.29,2.91-4.69Z"/><path d="M72.29,193.19c6.75-1.74,6.71,10.55-.05,9.48-4.65-.73-3.56-8.55.05-9.48Z"/><path d="M88.14,157.1c5.11-1.18,7.01,6.5,2.07,7.53-4.72.98-5.23-6.8-2.07-7.53Z"/><path d="M430.19,244.58c4.61-.83,7.6,2.81,5.95,7.04-1.35,3.46-5.03,3.32-7.65,1.37-2.88-2.15-1.23-7.88,1.7-8.41Z"/><path d="M427.73,207.95c4.25-.67,6.22,5.01,3.5,7.88-1.5,1.58-6.69.98-7.2-1.3-.57-2.56.88-6.13,3.7-6.58Z"/><path d="M283.09,67.99c6.69-1.14,7.79,6.28,2.17,8.46-8.16,3.16-8.23-7.43-2.17-8.46Z"/><path d="M242.36,63.35c4.08-.51,7.07,3.68,4.56,7.02-.63.83-2.58,2.23-3.6,2.41-7.15,1.22-8.33-8.51-.96-9.43Z"/><path d="M243.17,427.46c6.57-1.36,6.4,8.57.47,8.69-4.93.1-4.49-7.86-.47-8.69Z"/><path d="M207.1,423.08c2.55-.26,5.14,1.72,4.96,4.41-.23,3.3-2.83,4.45-5.84,3.99-4.17-.65-3.72-7.92.88-8.4Z"/><path d="M64.25,245.52c-1.51-1.37-.55-6.08,1.76-6.68,4.17-1.08,6.7,4.89,3.07,7.16-1.11.7-3.9.35-4.82-.48Z"/><path d="M72.27,284.06c-2.09,2.19-7.85,1.66-7.86-2.23-.01-4.38,4.55-6.49,7.68-3.56,1.47,1.38,1.53,4.37.17,5.79Z"/><path d="M109.75,120.2c2.15-.43,5.18,1.48,5.52,3.64.92,5.87-5.48,9.3-8.06,3.96-.79-1.64-.8-2.41-.32-4.17.39-1.41,1.3-3.12,2.85-3.43Z"/><path d="M138.74,98.61c3.85-.22,3.7,5.69.18,6.21-4.81.71-4.17-5.98-.18-6.21Z"/><path d="M208.16,70.76c1.58,1.48,1.2,4.92-.44,6.34-3.43,2.95-8.8-.18-6.68-4.76,1.2-2.59,5.15-3.43,7.12-1.57Z"/><path d="M172.38,79.22c8.83-.88,6.16,10.32-.31,10.2-5.93-.11-7.26-9.45.31-10.2Z"/><path d="M154.09,352.79c-1.72,1.61-3.81,2.08-6.27,1.43-2.08-.57-3.99-1.78-5.71-3.62-1.5-1.61-2.31-3.38-2.43-5.32-.76-.03-1.56-.28-2.42-.76-.79-.44-1.46-.96-2.03-1.57l-.2-.26,1.66-1.56c.59.38,1.24.53,1.94.45s1.31-.37,1.84-.87l9.23-8.63c.76-.72,1.24-1.43,1.41-2.15.2-.89-.09-1.64-.85-2.27l1.59-1.49c.28.24.6.55.97.94,1.52,1.62,2.24,3,2.15,4.13,2.01.61,3.76,1.72,5.26,3.33,1.42,1.51,2.25,3.28,2.5,5.3.26,2.22-.33,4-1.77,5.34-1.3,1.21-2.97,1.5-5,.86.39,1.07.37,2.28-.04,3.63-.38,1.26-.99,2.29-1.83,3.07ZM150.26,334.38c1.28-1.2,1.95-2.29,1.99-3.27-.15.49-.72,1.2-1.71,2.12l-8.2,7.66c-1.25,1.17-2.18,1.75-2.8,1.74.79.44,1.74.14,2.84-.9l7.87-7.36ZM150.51,348.81c.86-.81,1.3-1.8,1.31-2.99,0-1.18-.4-2.22-1.22-3.09-.57-.61-1.35-1.12-2.34-1.52l-3.86,3.6c-1.37,1.28-1.45,2.55-.24,3.84.85.91,1.89,1.38,3.11,1.42,1.22.03,2.3-.39,3.24-1.27ZM151.94,350.19c.8-.74,1.12-1.88.96-3.39-.19,1.17-.74,2.18-1.65,3.03-.88.82-1.96,1.27-3.27,1.34,1.66.27,2.97-.06,3.96-.98ZM157.57,340.5c.72-.67,1.17-1.41,1.33-2.2.19-.9-.04-1.69-.67-2.37-.46-.49-.97-.87-1.54-1.12-.74-.29-1.34-.22-1.79.2l-4.21,3.94c.23.28.45.53.67.76,2.19,2.35,4.26,2.61,6.21.8ZM158.94,341.98c.75-.7,1.03-1.73.85-3.08-.08,1.04-.56,1.97-1.43,2.79-.69.64-1.56,1.07-2.63,1.27,1.33.11,2.4-.22,3.21-.98Z"/><path d="M180.05,377.65l-1.24,1.83c-.17-.06-.37-.17-.62-.34-1.68-1.14-2.58-2.46-2.71-3.96-1.6.26-3.28-.21-5.05-1.4-.3-.2-.58-.42-.84-.65l1.19-1.75c.55.37,1.1.63,1.65.77.76.21,1.29.1,1.58-.33.17-.25.3-.78.38-1.6.03-.55.07-1.1.12-1.66l-8.23-5.57c-1.21.8-1.91,1.34-2.11,1.62-.75,1.11-.3,2.2,1.36,3.26l-1.2,1.77c-.28-.11-.6-.29-.96-.53-1.22-.83-1.92-1.86-2.08-3.11-1.57.07-2.9-.26-3.98-.99-.41-.28-.74-.61-.98-1.01l1.17-1.73c1.33.82,2.61.83,3.84.04,2.46-1.57,4.93-3.14,7.41-4.72,4.12-2.67,6.33-4.21,6.62-4.64.37-.55.2-1.06-.5-1.54-.21-.14-.43-.29-.66-.45l1.43-2.06c.41.15.87.4,1.36.73,1.63,1.1,2.48,2.45,2.56,4.06.7-.26,1.5-.3,2.42-.09.84.17,1.59.49,2.27.94.37.25.72.54,1.04.86l-1.3,1.92c-.46-.28-.92-.42-1.38-.42-.56-.01-.98.18-1.25.59-.18.27-.3.63-.35,1.09l-1.86,15.74c-.21,1.79.09,2.9.89,3.31ZM174.83,364.68l1.04-8.03-6.44,4.38,5.4,3.65ZM175.55,372.29c.49-.73.79-1.46.88-2.2l1.7-12.75c.04-.44-.13-.99-.49-1.64l-2.08,16.59Z"/><path d="M210.17,383.7l-4.85,6.92-2.09-.82-.13-1.15c-1.78.04-3.5-.27-5.15-.92-1.87-.73-3.09-1.84-3.65-3.33-1.33.74-2.63.86-3.93.35-.52-.2-.99-.52-1.42-.94l.83-2.12c.84.33,1.64.24,2.41-.25.68-.44,1.19-1.09,1.52-1.94l4.5-11.46c.58-1.48,0-2.72-1.75-3.7l.82-2.08c.43.07.91.21,1.45.42,1.71.67,2.84,1.68,3.4,3.02,1.28-.62,2.77-.6,4.49.07.36.14.7.31,1.04.51l-.83,2.12-.09-.03c-.74-.34-1.42-.34-2.05,0-.63.33-1.09.9-1.4,1.69l-4.96,12.65c.61.79,1.46,1.39,2.56,1.82,2.55,1,5.2.19,7.95-2.43l1.37,1.61ZM195.66,380.21l3.94-10.03c.21-.54.36-1.18.44-1.93.09-.84.05-1.47-.14-1.91.08.51-.13,1.39-.62,2.65l-4.1,10.45c-.63,1.59-1.22,2.52-1.78,2.78.96.08,1.71-.59,2.27-2Z"/><path d="M235.67,374.04l-1.66,7.75-2.56.8c.24-2.05.35-3.3.31-3.77-.05-1.81-.61-2.82-1.67-3.05-.54-.12-1.1,0-1.66.32-.56.33-.9.75-1.01,1.27l-2.71,12.68c-.16.75-.11,1.44.16,2.06.27.71.77,1.13,1.5,1.24l-.46,2.17c-.36.03-.76,0-1.22-.1-1.46-.31-2.48-1.09-3.04-2.32-1.19.86-2.76,1.08-4.7.67-.25-.05-.51-.12-.78-.2l.46-2.13c.63.03,1.18-.15,1.67-.51.48-.37.79-.85.92-1.46l2.87-13.4c.27-1.27-.15-2.03-1.25-2.27-1.19-.25-2.29.38-3.29,1.91-.71,1.09-1.26,2.34-1.62,3.76l-1.83-1.57,1.69-7.9,1.36-.2c.33.59.94.99,1.81,1.17.52.11,1.28.07,2.29-.12,1-.19,1.79-.22,2.35-.1,1.15.25,1.91.88,2.28,1.9.31-.31.89-.52,1.74-.63.75-.11,1.38-.11,1.9,0,.67.14,1.36.52,2.07,1.13.71.61,1.27.96,1.66,1.04.5.11.85-.13,1.04-.73l1.41.6ZM221.57,388.61l2.25-10.54c.37-1.71.27-2.99-.29-3.83.18.5.12,1.4-.16,2.72l-2.35,10.97c-.36,1.67-.79,2.68-1.3,3.03.91-.09,1.53-.87,1.85-2.36Z"/><path d="M252.43,376.92c-.68,0-1.26.2-1.71.61-.46.42-.7.97-.73,1.65l-.64,14.12c-.07,1.5.61,2.39,2.03,2.66l-.09,2.05c-.3.05-.67.07-1.09.05-1.84-.08-3.22-.76-4.15-2.02-.39.56-.97.99-1.76,1.29-.78.3-1.54.42-2.26.36l-.64-.06.1-2.12c.69-.01,1.24-.28,1.66-.79.42-.52.65-1.13.68-1.83l.6-13.17c.1-2.24-.71-3.34-2.42-3.29l.1-2.15c.5-.19,1.1-.27,1.78-.24,1.35.06,2.49.63,3.43,1.7.86-.99,2.12-1.44,3.76-1.37.47.02.96.11,1.47.25l-.1,2.28ZM245.95,391.68l.49-10.76c.03-.6-.04-1.25-.2-1.97-.16-.82-.4-1.41-.72-1.77.26.46.36,1.36.29,2.71l-.51,11.21c-.08,1.71-.34,2.78-.79,3.21.46-.13.81-.5,1.08-1.11.21-.48.33-.99.36-1.52Z"/><path d="M291.25,391.28l.34,2.29c-.35.12-.79.23-1.31.31-1.96.32-3.5.06-4.62-.8-.36.58-1.03,1.1-2.02,1.55-.81.36-1.64.61-2.51.75-.42.07-.86.12-1.31.15l-.37-2.28c.94-.24,1.65-.75,2.15-1.52.5-.77.67-1.64.52-2.61l-1.4-8.5-5.24,10.06-8.55-8.93,1.62,9.84c.27,1.65,1.39,2.6,3.36,2.86l.38,2.31c-.33.1-.74.19-1.22.27-1.71.28-2.93.04-3.66-.73-.7,1-1.79,1.63-3.27,1.87-.3.05-.61.08-.93.09l-.42-2.53c.83-.2,1.49-.63,1.97-1.28.48-.65.65-1.41.5-2.27l-1.9-11.57c-.38-2.29-1.5-3.27-3.38-2.94l-.41-2.5,7.77-1.28,7.98,8.61,5.56-10.84,6.41-1.05.49,2.81c-.7.09-1.22.41-1.57.94-.35.53-.46,1.15-.35,1.84l2,12.18c.29,1.79,1.42,2.76,3.37,2.89ZM275.33,387.33l-7.55-7.96c-.42-.43-.89-.63-1.42-.58l8.55,9.16.42-.62ZM284.39,388.67l-1.93-11.77-.5.93,1.73,10.54c.29,1.75-.04,3-.98,3.74.62-.32,1.08-.8,1.39-1.45.3-.65.4-1.31.29-1.98Z"/><path d="M315.29,371.91c1.21,2.99,1.44,5.93.7,8.82-.84,3.17-2.7,5.35-5.6,6.52-2.79,1.13-5.6.85-8.41-.85-2.57-1.57-4.44-3.79-5.61-6.69-1.2-2.97-1.41-5.91-.63-8.81.86-3.18,2.73-5.36,5.63-6.53,2.79-1.13,5.59-.84,8.38.87,2.52,1.56,4.37,3.79,5.54,6.68ZM304.88,386.47c-3.05-2.34-5.19-5.05-6.43-8.12-1.09-2.7-1.43-5.55-1.01-8.55-.47,1.39-.68,2.96-.6,4.71.07,1.75.39,3.31.95,4.7,1.24,3.07,3.61,5.49,7.09,7.27ZM309.52,375.02c-.78-1.92-1.68-3.63-2.7-5.12-1.61-2.32-3.04-3.22-4.29-2.72-1.47.6-2.05,2.21-1.72,4.84.22,1.64.76,3.51,1.62,5.63.69,1.7,1.63,3.29,2.83,4.76,1.62,1.99,3.06,2.73,4.34,2.22,2.19-.88,2.17-4.09-.07-9.61ZM311.9,373.97c-1.23-3.03-3.29-5.46-6.2-7.28l.14.08c2.17,2,3.87,4.52,5.1,7.55,1.27,3.15,1.75,5.99,1.44,8.52.88-2.94.73-5.9-.48-8.87Z"/><path d="M345.76,362.15c.61.9.75,1.9.42,3s-.95,1.96-1.87,2.58c-1.65,1.11-3.37,1.26-5.16.44-1.42-.95-2.82-1.9-4.21-2.84-1.51-1.01-2.77-1.19-3.76-.52-.34.23-.6.51-.79.84-.22.43-.23.81-.01,1.13l1.62,2.39c.43.64,1.01,1.07,1.73,1.3s1.4.15,2.04-.25l1.4,2.07c-.31.31-.7.63-1.18.95-1.45.98-2.73,1.18-3.83.58-.08,1.48-.79,2.67-2.12,3.56-.48.32-1.03.57-1.67.74l-1.17-1.72c.52-.45.81-1.02.87-1.69.06-.67-.1-1.29-.48-1.86l-7.38-10.9c-.98-1.45-1.94-1.86-2.88-1.22-.18.12-.35.29-.51.5l-1.4-2.07c.45-.71,1.05-1.33,1.81-1.85,1.36-.92,2.78-1.08,4.25-.47.17-.89.61-1.83,1.31-2.82.67-.92,1.4-1.65,2.2-2.18,1.88-1.27,3.84-1.69,5.9-1.27,2.06.43,3.72,1.58,4.99,3.46.77,1.13,1.09,2.33.96,3.59-.13,1.26-.68,2.37-1.65,3.34,1.12-.14,2.27.08,3.46.64.87.52,1.73,1.02,2.58,1.49.85.47,1.49.56,1.94.26.58-.4.8-1.33.66-2.81.87.45,1.51.98,1.93,1.6ZM328.93,370.98l-6.14-9.07c-.34-.5-.78-.98-1.32-1.43-.64-.52-1.2-.84-1.69-.95.46.23,1.07.9,1.83,2.02l6.39,9.45c.96,1.42,1.39,2.43,1.29,3.05.28-.39.35-.92.21-1.58-.09-.56-.29-1.05-.57-1.48ZM330.79,356.06c-.54-.79-1.15-1.31-1.83-1.55-.76-.28-1.52-.17-2.28.35-1.91,1.29-2.32,2.75-1.21,4.38l2.88,4.25c.41-.15.78-.33,1.1-.55,1.24-.84,1.98-1.88,2.23-3.14.25-1.25-.05-2.5-.88-3.74ZM332.59,354.72c-.65-.96-1.74-1.41-3.29-1.37,1.19.38,2.15,1.12,2.9,2.22.58.85.87,1.82.89,2.92.36-1.49.2-2.74-.5-3.77ZM342.34,366.83c-.9.01-2.23-.62-4-1.9-1.66-1.2-2.96-1.68-3.88-1.44.39,0,1.12.4,2.21,1.21,1.4,1.04,2.38,1.7,2.92,1.97,1.14.57,2.05.63,2.74.16Z"/><path d="M363.91,338.67l5.19,5.79-1.2,1.25-1.66-.4c-.49,1.93-1.43,3.62-2.83,5.07-1.35,1.4-2.94,2.17-4.76,2.32-.07,1.83-.62,3.29-1.66,4.37-.25.26-.54.48-.85.65l-1.71-1.65c.46-.48.52-1.11.19-1.91-.24-.61-.62-1.18-1.16-1.7l-8.43-8.11c-.77-.74-1.53-1.22-2.29-1.44-1.01-.31-1.79-.06-2.36.75l-1.68-1.62.42-.49c1.76-1.92,3.22-2.66,4.38-2.19.31-1.9,1.11-3.51,2.4-4.85.47-.49,1.21-1.02,2.2-1.57,1-.56,1.65-1,1.96-1.32.55-.57.63-1.13.24-1.68l1.84-.68,3.57,3.39-.85,1.71c-.9-.57-1.91-.75-3-.53-1.1.22-2.03.72-2.78,1.51-1.07,1.11-1.49,2.17-1.28,3.18.18.74.79,1.6,1.82,2.6.2.19.52.5.95.91.43.39.76.69.99.91.39-.16.74-.4,1.05-.72,1.01-1.05.78-2.34-.69-3.87l1.63-1.55c.14.1.31.25.51.44,1.53,1.47,2.05,2.62,1.56,3.46,1.24-.21,2.48.22,3.75,1.29l-1.78,1.85c-.75-.31-1.29-.47-1.6-.47-.48.01-.98.29-1.5.83-.34.35-.48.73-.41,1.12,1.68,1.62,2.83,2.62,3.43,2.99,1.67,1.05,3.05,1,4.13-.12,1.17-1.22,1.79-2.51,1.86-3.86.1-1.45-.44-2.78-1.6-3.99l2.03-1.65ZM347.08,343.39c-.43-.42-.96-.81-1.59-1.17-.73-.41-1.34-.62-1.8-.62.5.13,1.24.66,2.21,1.59l8.09,7.78c1.23,1.19,1.86,2.09,1.89,2.71.41-.82.06-1.76-1.03-2.81l-7.77-7.47Z"/><path d="M382.15,322.06l-.19.32c-2.62-1.55-5.5-1.92-8.61-1.12-3.12.8-5.45,2.51-7,5.14l-.32-.19c1.55-2.62,1.92-5.5,1.12-8.62-.81-3.12-2.52-5.45-5.13-7l.19-.33c2.62,1.55,5.49,1.93,8.61,1.12,3.12-.8,5.45-2.52,7-5.14l.32.19c-1.55,2.62-1.93,5.5-1.12,8.61s2.51,5.45,5.14,7Z"/><path d="M401.08,271.63l2.22.64c-.04.37-.12.81-.27,1.32-.53,1.92-1.42,3.2-2.66,3.86.38.57.56,1.4.56,2.48-.01.88-.13,1.75-.37,2.59-.12.41-.25.83-.41,1.25l-2.23-.61c.17-.95.02-1.81-.47-2.59-.49-.78-1.21-1.3-2.15-1.56l-8.3-2.29,6.94,8.97-11.69,4.02,9.61,2.65c1.61.45,2.94-.17,4.01-1.85l2.26.62c-.05.34-.14.75-.27,1.22-.46,1.67-1.19,2.68-2.2,3.02.62,1.06.73,2.31.33,3.75-.08.29-.18.58-.31.88l-2.47-.68c.17-.84.05-1.62-.34-2.32s-1.01-1.18-1.85-1.41l-11.3-3.12c-2.24-.62-3.6,0-4.09,1.83l-2.44-.67,2.1-7.59,11.16-3.64-7.51-9.6,1.73-6.26,2.76.73c-.21.67-.14,1.28.2,1.82.34.54.85.9,1.53,1.09l11.9,3.29c1.75.48,3.1-.13,4.04-1.85ZM390.82,284.43l-10.39,3.52c-.57.2-.94.55-1.13,1.05l11.9-3.93-.39-.64ZM395.83,276.77l-11.5-3.18.63.84,10.29,2.84c1.71.47,2.71,1.29,2.98,2.46-.03-.7-.27-1.32-.73-1.87-.46-.55-1.02-.91-1.68-1.09Z"/><path d="M393.33,239.5c3.47.11,6.23.91,8.28,2.4,2.4,1.76,3.55,4.3,3.45,7.62-.07,2.39-.79,4.15-2.15,5.26.61.51,1.07,1.2,1.4,2.08.33.88.48,1.73.45,2.56,0,.3-.04.59-.09.86l-2.04-.06c-.13-.71-.47-1.3-1.02-1.76s-1.2-.71-1.94-.73l-12.56-.39c-1.02-.03-1.87.09-2.54.37-.91.4-1.31,1.05-1.21,1.95l-2.21-.07c-.06-.34-.08-.76-.06-1.25.06-1.94.68-3.19,1.85-3.73-1.12-1.34-1.63-3.2-1.56-5.57.1-3.35,1.32-5.85,3.65-7.49,2.07-1.48,4.84-2.16,8.32-2.05ZM392.51,245.41c-1.97-.06-3.74.12-5.31.55-2.35.61-3.55,1.65-3.59,3.11-.06,1.87,1.06,2.84,3.34,2.91l11.99.37c.77.02,1.46-.12,2.07-.42.74-.39,1.12-.93,1.14-1.64.06-1.8-1.17-3.12-3.66-3.95-1.59-.54-3.58-.85-5.97-.93ZM388.19,255.38c-1.77-.05-3.01.24-3.72.88.46-.24,1.36-.34,2.71-.3l11.22.34c1.71.05,2.78.3,3.22.74-.25-.84-1.14-1.29-2.65-1.33l-10.77-.33ZM393.08,243.4c-4.08-.12-6.89.62-8.44,2.24,2.19-1.09,4.9-1.58,8.13-1.48,3.61.11,6.48.79,8.6,2.03-1.42-1.73-4.19-2.66-8.29-2.79Z"/><path d="M102.02,239.74c3.01.02,5.54,1.04,7.58,3.06,2.04,2.02,3.05,4.53,3.02,7.54,0,1.28-.31,2.46-.91,3.55l3.6.03c.93,0,1.63-.31,2.09-.94.46-.64.64-1.44.54-2.4l2.84.02c.23.72.35,1.54.34,2.44-.01,1.81-.67,3.22-1.95,4.22,1.27,1.32,1.9,3.13,1.88,5.46,0,.48-.05.96-.13,1.44l-2.6-.02c0-.85-.23-1.58-.72-2.17-.49-.59-1.15-.89-1.97-.9l-17.48-.13c-.96,0-1.75.23-2.37.7-.7.55-1.04,1.3-1.02,2.23l-3.2-.02c-.08-.48-.11-1.05-.11-1.72.02-2.37.71-4.1,2.08-5.18-1.56-2.2-2.33-4.44-2.31-6.74.02-3.04,1.07-5.55,3.14-7.54s4.62-2.96,7.66-2.94ZM101.17,246.5c-.59,0-1.11.02-1.56.07-.96.1-1.94.47-2.93,1.1-1.21.74-1.81,1.56-1.82,2.44,0,1.02.34,1.92,1.04,2.7s1.54,1.18,2.53,1.19l9.28.07c.35-.64.53-1.37.54-2.2.01-1.84-.75-3.23-2.29-4.18-1.25-.78-2.84-1.18-4.79-1.2ZM101.21,243.86c-2.14-.02-4.17.81-6.08,2.47,1.93-1.08,4.12-1.61,6.55-1.59,2.49.02,4.69.78,6.6,2.29-.85-.91-1.93-1.67-3.25-2.27-1.32-.6-2.59-.9-3.82-.91ZM113.44,258.75l-13.44-.1c-2.21-.02-3.75.4-4.61,1.25.56-.34,1.68-.51,3.36-.5l14,.11c2.13.02,3.48.29,4.03.83-.34-1.04-1.45-1.57-3.35-1.59Z"/><path d="M118.36,209.34c2.77.68,4.78,2.39,6.03,5.11,1.19,2.54,1.43,5.23.73,8.05-.31,1.27-.99,2.61-2.02,4.01-1.03,1.41-1.54,2.06-1.51,1.95-.1.42.24.66,1.01.74l-.73,2.95-10.36-2.1.49-2.8c1.72-.07,3.61-.66,5.67-1.78,2.31-1.24,3.65-2.59,4-4.04.28-1.14.14-2.23-.43-3.28-.57-1.05-1.42-1.71-2.56-1.99-1.92-.47-3.57.51-4.97,2.94-2.55,4.45-3.87,6.72-3.95,6.81-1.99,2.28-4.64,3.02-7.96,2.2-2.61-.64-4.5-2.15-5.64-4.52-1.07-2.21-1.28-4.67-.62-7.36.61-2.49,1.94-4.86,3.98-7.13l-1.29-.77.86-2.14,9.35,1.85-.38,2.38c-5.19-.1-8.21,1.54-9.04,4.9-.29,1.19-.08,2.33.64,3.41.72,1.08,1.69,1.78,2.91,2.08.96.24,1.93-.36,2.91-1.79.88-1.54,1.75-3.08,2.62-4.63,1.14-1.94,2.24-3.22,3.3-3.84,2.34-1.37,4.65-1.78,6.93-1.22ZM117.93,213.89c-3-.74-5.56,1.49-7.66,6.68-.76,1.85-1.93,3.25-3.51,4.2-1.66,1.05-3.44,1.35-5.33.91.52.24,1.02.42,1.52.54,1.79.44,3.38.15,4.79-.88,1.07-.75,2.11-2.04,3.13-3.84.78-1.48,1.55-2.97,2.33-4.45.44-.77,1.31-1.39,2.62-1.87,1.31-.47,2.41-.6,3.29-.38.42.1.82.26,1.2.46-.76-.71-1.55-1.17-2.38-1.37Z"/><path d="M116.34,166.68l2.84,1.47c-.4.84-.48,1.92-.23,3.25.21,1.1.59,2.13,1.11,3.09l5.65,9.98,6.53,3.39c.67.35,1.38.33,2.16-.05s1.34-.97,1.69-1.78l2.36,1.22c-.14.83-.43,1.67-.87,2.52-.93,1.8-2.23,2.7-3.89,2.71.74,1.76.61,3.59-.37,5.49-.37.71-.86,1.37-1.48,1.98l-2.34-1.22.07-.14c.41-.78.55-1.54.44-2.28s-.55-1.3-1.31-1.69l-5.97-3.1-12.14.78c-1.59.11-2.46.16-2.62.17-1.1.21-1.82.63-2.15,1.27-.07.14-.15.29-.22.43l-2.67-1.39c.19-.77.51-1.58.95-2.43,1.07-2.06,2.37-3.12,3.91-3.2-.79-1.37-.69-3.02.31-4.93.26-.5.58-.99.96-1.49l2.75,1.47c-.39.28-.65.56-.8.85-.36.69-.28,1.16.22,1.42.36.19,1.86.2,4.5.04,1.61-.16,3.22-.3,4.83-.42-.61-1.25-1.23-2.52-1.86-3.8-1.07-2-1.94-3.17-2.63-3.53-.97-.5-1.8.1-2.48,1.82l-2.56-1.33c.24-.74.56-1.51.98-2.31,1.02-1.97,2.15-2.93,3.38-2.86-.39-1.79-.17-3.44.69-4.97l.27-.44ZM129.26,192.04l-6.34-3.29-12.46.66c-.53.03-1.16.17-1.89.42-.82.3-1.35.62-1.59.98.5-.43,3.02-.74,7.58-.93,2.76-.1,5.54-.19,8.33-.28,1.35.64,2.32,1.11,2.89,1.41,3.25,1.69,4.92,2.95,5.01,3.77.12-1.23-.38-2.14-1.52-2.73Z"/><path d="M153.34,153.36c1.8,1.96,2.69,4.39,2.68,7.29,0,2.9-.88,5.37-2.62,7.4-2.57,3-5.72,4.43-9.45,4.28-3.47-.09-6.75-1.46-9.85-4.11-3.24-2.77-5.33-5.83-6.27-9.16-1.07-3.83-.29-7.29,2.34-10.37,1.46-1.7,3.43-3.01,5.94-3.92l-.51-1.44,1.71-1.75,7.42,6.35-1.53,1.79c-4.34-2.27-7.52-2.22-9.55.15-1.51,1.76-1.59,3.99-.24,6.69.99,2.04,2.5,3.93,4.53,5.66,2.11,1.8,4.27,3.04,6.47,3.7,2.9.87,5.15.38,6.72-1.46,1.14-1.34,1.63-2.95,1.47-4.85-.16-1.75-.8-3.33-1.93-4.76l2.69-1.49ZM147.67,170.19c-1.99.16-4.19-.23-6.59-1.16-2.21-.87-4.13-2-5.77-3.41-2.43-2.08-4.41-4.77-5.93-8.08.26,3.06,2.06,6.02,5.4,8.88,1.91,1.63,3.92,2.81,6.03,3.53,2.45.83,4.73.91,6.85.23Z"/><path d="M178.16,132.65l4.11,9.7-2.25,1.67-1.31-.62c-1.14,1.91-2.6,3.52-4.38,4.84-2.01,1.49-3.99,2.05-5.94,1.66-.09,1.89-.83,3.36-2.22,4.39-.56.41-1.2.71-1.93.89l-1.69-2.28c.9-.67,1.34-1.57,1.32-2.71-.02-1.01-.37-1.97-1.05-2.89l-9.15-12.34c-1.18-1.6-2.88-1.8-5.07-.6l-1.66-2.24c.36-.41.83-.82,1.41-1.25,1.84-1.37,3.66-1.9,5.44-1.59.19-1.76,1.2-3.33,3.04-4.7.39-.29.79-.54,1.23-.76l1.69,2.28-.1.07c-.85.56-1.3,1.28-1.36,2.17-.06.88.23,1.75.86,2.6l10.1,13.62c1.24-.12,2.44-.62,3.62-1.5,2.74-2.03,3.64-5.37,2.69-10.01l2.6-.38ZM164.87,145.69l-8-10.8c-.43-.58-1.01-1.16-1.75-1.74-.82-.65-1.53-1.02-2.11-1.12.59.26,1.39,1.06,2.39,2.41l8.34,11.25c1.27,1.71,1.86,2.95,1.76,3.72.71-.96.51-2.2-.62-3.72Z"/><path d="M206.76,120.11l3.22,9.16-1.98.86-1.73-1.25c-1.49,1.99-3.38,3.49-5.68,4.49-2.22.97-4.42,1.1-6.6.39-.96,2.08-2.29,3.49-4,4.24-.42.18-.84.3-1.29.35l-1.19-2.71c.76-.33,1.13-1.03,1.13-2.11.02-.82-.16-1.66-.53-2.51l-5.85-13.37c-.53-1.22-1.18-2.14-1.96-2.76-1.01-.83-2.04-.92-3.07-.27l-1.17-2.67.72-.36c2.95-1.38,4.98-1.52,6.09-.44,1.26-2.04,2.96-3.52,5.08-4.45.78-.34,1.88-.59,3.29-.76,1.41-.17,2.37-.36,2.89-.58.9-.39,1.26-1,1.08-1.82l2.44.1,2.5,5.61-1.8,1.57c-.77-1.09-1.84-1.77-3.21-2.05-1.37-.27-2.68-.14-3.92.41-1.76.77-2.76,1.79-2.99,3.05-.14.94.14,2.22.86,3.86.14.32.36.82.66,1.5.31.65.55,1.16.71,1.52.53,0,1.04-.11,1.56-.33,1.66-.73,2.01-2.32,1.05-4.78l2.61-1.01c.11.18.23.44.37.75,1.06,2.42,1.11,4,.15,4.74,1.52.35,2.76,1.44,3.7,3.27l-2.93,1.28c-.72-.72-1.26-1.15-1.62-1.31-.56-.21-1.27-.13-2.12.24-.56.25-.9.61-1.01,1.09,1.17,2.67,2.01,4.36,2.53,5.09,1.43,2,3.04,2.61,4.82,1.83,1.93-.84,3.26-2.03,3.99-3.56.8-1.62.82-3.41.06-5.36l3.13-.93ZM185.12,117.52c-.3-.68-.72-1.39-1.27-2.11-.65-.82-1.24-1.35-1.78-1.58.52.38,1.11,1.35,1.79,2.89l5.61,12.83c.85,1.95,1.15,3.3.88,4.02.86-.75.92-2,.16-3.73l-5.38-12.31Z"/><path d="M238,113.94c.5,2.81-.25,5.34-2.23,7.59-1.85,2.11-4.2,3.43-7.06,3.93-1.29.23-2.78.16-4.49-.22-1.71-.37-2.51-.57-2.4-.59-.42.07-.51.48-.27,1.22l-2.99.53-2.28-10.32,2.76-.69c.76,1.54,2.07,3.03,3.92,4.46,2.07,1.61,3.84,2.28,5.31,2.02,1.16-.2,2.1-.78,2.82-1.72.73-.94.99-1.99.78-3.15-.34-1.94-1.91-3.06-4.7-3.35-5.11-.53-7.71-.81-7.83-.85-2.89-.89-4.64-3.02-5.24-6.38-.47-2.65.14-4.98,1.85-6.99,1.59-1.88,3.75-3.06,6.48-3.55,2.52-.45,5.23-.2,8.14.75l.18-1.49,2.3-.08,2.1,9.3-2.33.62c-2.01-4.79-4.73-6.88-8.14-6.27-1.21.21-2.16.87-2.86,1.97-.7,1.1-.94,2.27-.72,3.5.17.97,1.11,1.62,2.82,1.94,1.76.17,3.53.35,5.29.52,2.24.25,3.85.74,4.85,1.46,2.2,1.59,3.51,3.53,3.92,5.84ZM233.66,115.4c-.54-3.05-3.61-4.48-9.21-4.3-2,.06-3.75-.45-5.26-1.5-1.63-1.09-2.63-2.59-2.99-4.51,0,.57.03,1.11.12,1.6.32,1.81,1.24,3.15,2.74,4.02,1.12.67,2.71,1.1,4.78,1.3,1.67.11,3.34.22,5.02.33.88.09,1.8.63,2.77,1.64.96,1.01,1.52,1.96,1.68,2.85.07.42.1.85.06,1.29.34-.98.44-1.89.29-2.73Z"/><path d="M271.4,114.83c-.47,2.62-1.86,4.8-4.18,6.55-2.32,1.75-4.81,2.55-7.47,2.4-3.94-.23-6.99-1.87-9.13-4.93-2.03-2.81-2.93-6.26-2.7-10.33.24-4.26,1.4-7.77,3.49-10.54,2.4-3.18,5.62-4.65,9.67-4.42,2.24.13,4.47.91,6.72,2.35l.83-1.28,2.43.3-.55,9.74-2.36-.13c-.82-4.83-2.79-7.33-5.9-7.51-2.32-.13-4.14,1.15-5.47,3.86-1.02,2.02-1.61,4.37-1.76,7.03-.16,2.77.17,5.23.98,7.39,1.07,2.84,2.81,4.33,5.23,4.46,1.76.1,3.34-.49,4.75-1.77,1.29-1.18,2.17-2.65,2.62-4.42l2.81,1.24ZM254.56,120.52c-1.33-1.49-2.35-3.47-3.07-5.94-.65-2.28-.91-4.5-.78-6.66.18-3.19,1.13-6.4,2.83-9.61-2.28,2.06-3.55,5.29-3.8,9.68-.14,2.5.14,4.82.85,6.94.82,2.45,2.14,4.31,3.97,5.59Z"/><path d="M307.53,131.65l-.83,2.63c-.22-.01-.51-.08-.86-.19-2.42-.76-3.96-2.02-4.64-3.77-1.82.88-4,.92-6.54.12-.43-.14-.84-.29-1.24-.47l.79-2.52c.79.25,1.54.36,2.24.33.99-.02,1.58-.34,1.77-.95.11-.36.08-1.04-.11-2.05-.16-.66-.31-1.34-.45-2.03l-11.83-3.73c-1.16,1.38-1.81,2.28-1.94,2.69-.5,1.59.42,2.73,2.78,3.42l-.8,2.54c-.38-.04-.82-.13-1.33-.29-1.75-.55-2.95-1.55-3.59-2.98-1.85.65-3.56.72-5.11.24-.58-.19-1.1-.47-1.53-.86l.78-2.49c1.88.51,3.42.07,4.61-1.32,2.38-2.75,4.77-5.51,7.18-8.28,3.98-4.65,6.07-7.29,6.27-7.9.25-.79-.14-1.35-1.15-1.67-.31-.1-.62-.2-.95-.3l.98-2.97c.55.04,1.18.17,1.89.39,2.34.74,3.84,2.05,4.5,3.94.74-.56,1.69-.89,2.87-.97,1.06-.09,2.08.01,3.04.32.54.17,1.05.39,1.55.66l-.87,2.76c-.64-.18-1.24-.18-1.8-.02-.67.18-1.1.57-1.29,1.15-.12.38-.13.86-.03,1.43l3.38,19.48c.39,2.22,1.14,3.44,2.25,3.65ZM296.67,117.99l-1.61-9.97-6.14,7.53,7.76,2.45ZM300.25,126.83c.33-1.04.42-2.02.27-2.94l-2.51-15.85c-.11-.54-.5-1.13-1.17-1.79l3.41,20.58Z"/><path d="M342.73,134.61c-1.63,2.54-3.84,4.13-6.63,4.77-2.79.65-5.46.16-7.99-1.47-1.08-.69-1.92-1.58-2.52-2.66l-1.95,3.03c-.5.79-.61,1.54-.32,2.27.29.73.87,1.31,1.74,1.73l-1.54,2.39c-.74-.19-1.49-.53-2.25-1.02-1.53-.98-2.37-2.28-2.53-3.91-1.79.37-3.66-.07-5.62-1.33-.4-.26-.79-.55-1.15-.88l1.4-2.19c.72.46,1.46.64,2.22.54.76-.1,1.36-.49,1.81-1.19l9.45-14.71c.52-.81.74-1.6.67-2.38-.09-.89-.54-1.57-1.34-2.05l1.73-2.69c.45.19.95.47,1.51.83,2,1.28,3.09,2.79,3.27,4.53,2.69-.14,5,.41,6.93,1.65,2.56,1.64,4.12,3.87,4.7,6.68.57,2.81.04,5.49-1.6,8.05ZM320.56,134.11l7.26-11.31c1.2-1.86,1.67-3.38,1.41-4.56-.01.66-.47,1.69-1.38,3.11l-7.57,11.78c-1.15,1.8-2.11,2.78-2.86,2.97,1.06.27,2.1-.39,3.13-1.98ZM337.47,130.28c.32-.49.58-.95.78-1.36.43-.87.64-1.89.63-3.07.02-1.42-.35-2.36-1.09-2.84-.86-.55-1.8-.74-2.84-.56-1.04.17-1.82.68-2.35,1.51l-5.02,7.81c.35.64.88,1.18,1.57,1.63,1.55.99,3.13,1.09,4.75.3,1.33-.64,2.52-1.77,3.57-3.41ZM339.68,131.72c1.16-1.8,1.54-3.95,1.15-6.46-.12,2.21-.84,4.34-2.15,6.39-1.34,2.09-3.17,3.55-5.46,4.36,1.22-.23,2.44-.74,3.65-1.54,1.21-.8,2.15-1.71,2.81-2.75Z"/><path d="M360.43,164.72l-7.43,6.25-1.51-1.55.56-2.06c-2.39-.69-4.46-1.93-6.21-3.73-1.7-1.74-2.6-3.75-2.7-6.03-2.28-.16-4.07-.91-5.38-2.24-.32-.33-.58-.69-.78-1.08l2.12-2.07c.58.59,1.37.7,2.37.31.77-.27,1.49-.73,2.16-1.38l10.45-10.19c.95-.93,1.58-1.86,1.89-2.8.42-1.24.14-2.23-.84-2.97l2.08-2.03.59.54c2.33,2.27,3.18,4.12,2.56,5.55,2.35.46,4.34,1.52,5.96,3.18.6.61,1.22,1.55,1.88,2.81.65,1.26,1.18,2.09,1.57,2.49.69.71,1.38.83,2.09.37l.77,2.32-4.37,4.31-2.1-1.13c.75-1.1,1.01-2.34.78-3.72-.23-1.38-.82-2.56-1.77-3.53-1.34-1.37-2.65-1.95-3.91-1.72-.93.2-2.03.92-3.31,2.17-.25.24-.64.62-1.17,1.15-.5.52-.89.92-1.17,1.2.18.49.47.94.86,1.34,1.27,1.3,2.88,1.06,4.84-.71l1.87,2.09c-.13.17-.33.37-.57.62-1.89,1.84-3.35,2.45-4.38,1.81.21,1.55-.38,3.09-1.75,4.62l-2.24-2.29c.42-.93.63-1.59.65-1.98,0-.6-.32-1.23-.97-1.9-.43-.44-.89-.62-1.38-.56-2.08,2.03-3.37,3.42-3.87,4.16-1.37,2.04-1.37,3.76-.01,5.15,1.47,1.51,3.05,2.33,4.74,2.47,1.8.18,3.48-.43,5.04-1.84l1.98,2.6ZM355.2,143.56c.54-.52,1.04-1.17,1.52-1.93.54-.9.82-1.64.85-2.22-.18.62-.87,1.52-2.07,2.69l-10.02,9.78c-1.53,1.49-2.68,2.24-3.45,2.25,1.01.54,2.2.15,3.55-1.17l9.62-9.39Z"/><path class="cls-1" d="M219.28,169.44c-.5.34-.89,1.31-1.57,1.39l-3.91-.97c-.79-.77-.02-1.6.63-2.2,4.02-3.72,14.25-8.05,19.64-9.17,1.98-.41,3.89-.29,5.75-.59,2.61-.41,4.75-1.56,7.72-1.89,22.06-2.44,42.63-.07,60.48,14.17,1.35,1.07,2.29,2.5,3.5,3.53,3.18,2.71,6.39,4.7,9.52,7.75,4.96,4.83,13.42,14.87,15.92,21.15,2.49,6.25,5.41,14.78,7.12,21.26,2.67,10.13,1.62,21.05.75,31.36-1.06,12.6-3.9,24.47-10.3,35.54-.56.98-2.86,4.42-3.61,4.99-.89.67-2.78.59-3.63-.12-.39-.85,1.73-3.53,2.21-4.5,4.79-9.69,9.91-24.17,11.23-34.85.5-4.01-.44-3.41-1.13-6.26-.27-1.13.28-4.85.17-6.49-.68-9.91-4.78-27.08-8.81-36.15-1.97-4.44-10.9-12.34-14.73-16.04-6.49-6.27-12.75-12.58-20.77-16.95-15.43-8.4-28.08-10.5-45.49-11.33-8.79-.42-23.29,1.32-30.71,6.35Z"/><path class="cls-1" d="M173.23,212.58c-1.97-3.53,3.17-8.9,4.98-11.59,2.23-3.32,6.86-11.79,10.04-13.53,5.49-3,19.06-2.64,24.04,1.03,1.94,1.43,3.94,4.45,4.52,6.79s.49,7.8-.62,9.76c-1.7,2.99-12.67,10.67-16.08,11.47-4.98,1.17-13,.2-18.1-.41-1.42-.17-4.67-.46-5.85-.81-.93-.28-2.47-1.9-2.93-2.71ZM197.3,195.83c-8.87-.47-11.57,12.72-2.12,13.86,1.32.16,3.95.08,5.16-.49,2.08-.97,4-4.67,3.43-6.95-.77-3.05-3.12-6.25-6.48-6.43Z"/><path class="cls-1" d="M234.07,187.24c.56-.04,1.91,1.06,1.85,1.74-.17.87-4.79,2.27-4.66,4.28.04.71,1.44,2.68,1.13,3.35-2.58,1.49-3.46,4.63-5.48,6.45-2.15,1.94-4.11-2.21-3.39-3.94.26-.61,1.06-1.23,1.18-1.79.28-1.36-.95-3.22.04-5.09,1.28-2.41,7.02-3.76,9.34-4.99Z"/><path class="cls-1" d="M217.14,267.92h3.05s1.32-2.56,1.32-2.56l.91.47c.17.86-.6,1.82-.63,2.52-.04.83,1.15,3.18,1.36,4.35.64,3.55-.51,5.25-2.17,8.19-2.27-1.54-.25-4.66-.41-6.86-.03-.37-1.34-3.66-1.52-3.79-.44-.32-1.18-.38-1.72-.42-.3,1.37-1.67,1.66-2.54,2.54-.5.5-1.97,3.03-2.31,3.05-1.16-.82-1.65-2.12-1.31-3.49.21-.87,1.02-1.52,1.16-2.13.18-.84-.31-1.94.07-3.13.29-.89,1.08-.97,1.32-1.63.22-.59.06-3.33.45-3.63.46-.03.47.28.69.52,1.16,1.28,1.6,4.34,2.3,6.01Z"/><path class="cls-1" d="M246.35,258.97c-.69.24-2.61-1.06-3.23-1.53-3.29-2.52-10.57-10.49-12.31-14.19-.34-.72-.83-1.51-.62-2.32,1.43.96,2.33,2.46,3.58,3.58,2.56,2.3,6.17,4.35,8.86,6.66,1.63,1.4,5.27,4.49,4.45,6.81-.07.19-.63.95-.75.99Z"/><path class="cls-1" d="M267.86,265.16c.59,1-.12,4.33.24,5.88.17.75,1.26,3.18,1.68,3.9,1.21,2.13,3.19,3.31,2.22,6.28-2.49-.84-3.66-3.63-6.45-3.78-1.08-.06-2.54.79-2.92-.89-.44-1.99,2.69-5.18,3.44-7.3.52-1.48.37-3.16,1.17-4.54.03-.02.57.36.62.45Z"/><path class="cls-1" d="M199.47,266.1l-.66.24c-.17-.24-.64-.49-.74-.71-.36-.77.55-7.57,1.07-8.31,1.11-1.58,6.26-1.29,7.99-1.81.74-.22,3.16-2.17,2.97-.49-.15,1.34-1.71,2.17-2.27,3.11-.24.4-.22.93-.42,1.31-.96,1.77-7,1.54-7.2,2.63l-.75,4.03Z"/><path class="cls-1" d="M275.27,251.93c2.76-.05,1.81,2.47.41,3.79-2.51,2.36-7.72,2.53-10.89,1.77-1.12-.27-2.48-.63-1.79-1.98.48-.94,3.9-.11,5.22-.42,2-.47,4.88-3.13,7.06-3.17Z"/><path class="cls-1" d="M228.98,268.58c-1.13,2.28.23,5.02.58,7.4.09.6.5,3.79.42,4.09-.2.8-2.7,2.9-3.48,2.63-.86-.3.98-1.94.98-2.44-.21-2.46-2.35-7.92-1.88-10.11.25-1.18,2.34-2.43,3.38-1.57Z"/><path class="cls-1" d="M194.1,224.26c-.19.17-.65.18-.92.42-2.09,1.83-3.74,3.89-4.72,6.53-.02.28-.52.11-.64.03-1.19-.77.5-4.27.57-5.45l-.31-.45-1.33-.41.04-.92,7.88-1.65c.61.51-.09,1.48-.57,1.89Z"/><path class="cls-1" d="M219.77,178.3c.38,0,.96,1.06,1.16,1.39,1.87,2.97,3.36,6.84,4.91,9.98-1.34,1.51-2.15-1.03-2.67-2.07-1.39-2.77-2.35-5.88-3.66-8.7-.35-.28.06-.61.26-.61Z"/><path class="cls-1" d="M207.21,269.36c-.1.28-1.34,1.96-1.53,1.93l-.98-1.13c.87-1.6.83-3.44,1.01-5.2.49-.91,2.37-.29,2.25.37-.21,1.16-.38,3.02-.75,4.03Z"/><path class="cls-1" d="M155.13,298.65l1.2.49c.17-1.16,1.37-1.28,2.34-1.4l-.15-1.44c.16-.92,1.99-1,2.73-1.19l-.03,4.51-1.92.64c-.61,1.35-.09,2.12,1.35,2.29.07-2.9,2.53-2.25,4.48-3.08-.06,1.75-1,2.66-2.01,3.9.65,1.11,1.92,1.36,3.08,1.52-.08,1.36.34,2.04-1.23,2.49,2.05,1.42,4.8,1.98,6.25,4.27.38.6.44,1.41.85,1.83,1.19,1.22,4.1.91,3.91,3.36-2.7-.3-4.77-2.2-7.14-3.33s-4.83-1.73-7.09-2.82c-3.55-1.71-8.18-5.17-11.28-7.63-.97-.77-1.92-2.5-1.94-3.73-.03-2.06,3.65-4.25,4.53-6.09.32-.66,0-1.15.36-1.66.91-1.32,3.19-.85,4.54-1.25-.29.83.13,1.83-.27,2.63-.35.7-1.57.61-1.76,1.29-.19.67.27,1.78.06,2.62-.17.7-.82,1.06-.86,1.78Z"/><path class="cls-1" d="M187.19,304.03c.18-.2.13-.68.22-.96,1.29.16,1.54,1.72,1.49,2.82-.04.82-1.32,6.57-1.57,6.82-.87.25-1.76.1-2.65.31-1.74.39-6.15,3.56-7.16.91-.57-1.49,1.47-4.24,1.68-5.98.15-1.25-1.16-3.48-.84-5.38.19-1.12,1.8-4.27,2.43-2.09.28.96-.46,3.58.27,4,.68.39,5.71.02,6.13-.44Z"/><path class="cls-1" d="M174.11,294.62c-.02.62-.18,1.56-.07,2.14.18.86,1.03.93.56,2.23-.25.68-2.07,2.2-2.83,1.98-1.95-.56-.14-2.4.05-3.11.1-.38-.39-.89-.09-1.72.27-.76,1.67-1.22,2.37-1.53Z"/><path class="cls-1" d="M273.28,193.74c.67.98-.37,4.01-1.02,4.89-.24.33-.45.37-.84.37-2.64-1.73-6.03-3.01-8.59-4.78-1.09-.76-1.93-1.41-.65-2.6,3.23,1.36,6.49.64,9.84,1.57.38.11,1.03.24,1.26.57Z"/><path class="cls-1" d="M265.3,233.93c1.95-.2,4.26,1.19,4.45,3.24.23,2.4-2.89,5.42-5.34,4.11-.56-.3-2.12-2.11-2.19-2.7-.12-1.13,1.81-4.53,3.08-4.66Z"/><path class="cls-1" d="M196.6,199.6c3.39.05,4.23,2.13,3.3,5.11-.24.78-.49,1.08-1.22,1.42-6.08,2.88-7.66-6.61-2.08-6.53Z"/><path class="cls-1" d="M358.91,236.79c.22-4.14-1.18-7.51-1.82-11.5-.81-5.13-.55-10.76-1.75-15.72-1.87-7.76-7.56-13.75-11.71-20.31-1.32-2.09-1.91-4.69-3.02-6.93-4.38-8.83-19.6-25.33-28.52-29.42-9.99-4.58-20.29-7.57-31.23-8.87-3.74-.45-7.64-.04-11.42-.3-12.55-.85-27.79-4.44-39.99-1.87-6.7,1.41-17.68,8.86-22.77,13.57-4.56,4.22-10.1,13.9-15.01,16.21-2.83,1.33-2.49,1.2-4.97,3.01-2.02,1.49-4.95,2.66-6.75,4.26-5.3,4.71-6.28,9.31-9.98,14.9-2.32,3.51-7,7.82-8.54,11.24-1.08,2.39-.2,4.96-.06,7.43.07,1.22-.24,2.73-.08,4.01.14,1.13,1.39,3.33.48,4.07-1.3,1.04-2.54.51-4.11,2.66-4.46,6.11-5.17,16.08-1.36,22.64,1.27,2.19,3.55,4.49,6.14,4.91-.68,4.5-4.7,6.81-6.56,10.77-1.63,3.46-2.4,7.31-3.77,10.82-.93,2.4-1.26,3.24-3.39,4.66-9.48,6.34-20.48,11.43-30.01,17.75-1.4.93-4.45,3.09-5.37,4.35-2.25,3.08-1.08,5.99.94,8.78-3.44,2.18-.56,5.5,2.65,4.12.67-.29,4.98-3.06,5.47-3.55,1-1,1.37-1.68.29-2.79-1.52-1.56-3.03-.54-4.52.46-1.14-1.53-.9-3.13.31-3.99,7.8-5.51,16.05-9.7,23.66-13.58.29-.15.41-.43.83-.23-2.5,5.57-7.96,12.12-5.49,18.61,2.53,6.64,7.99,8.36,13.3,11.97,6.06,4.11,11.72,8.89,18,12.69,13.21,7.99,27.39,12.69,42.14,16.98,10.83,3.15,21.83,6.46,33.11,6.89,1.35.05,4.03-.69,5.22-1.36l10.21-7.53c4.21-1.37,8.24.32,12.39.75,4.21.43,13.23-.27,17.35-1.31,13.74-3.46,26.37-16.34,36.33-26.14,8.03-7.91,15.96-16.31,21.58-26.17,5.27-9.24,9.53-24.53,9.85-35.13.09-2.88-.43-6.09-.13-8.92.45-4.3,1.85-8.5,2.08-12.86ZM163.86,260.68c.24-.35.08-.63.71-.39-.49.99-1.42,2.67-2.14,3.43-.28.3-.43.62-.91.43.76-1.16,1.55-2.34,2.35-3.47ZM175.44,257.69c-.17.37-2.1,1.43-2.4,1.3-.27-.43-.8-1.27-.58-1.74.07-.16,2.36-1.89,2.72-2.15.29-.2.42-.42.82-.24-.02.52-.57.83-.65,1.31-.08.46.31,1.04.09,1.53ZM171.96,256.96l-2.35.1c.04-1.81,1.86-3.21,3.52-3.51l-1.17,3.42ZM170.4,259.81l-2.81,2.47-4.32,5.07c.1-.52.12-1.07.35-1.57.13-.28,3.38-4.77,3.61-4.98.76-.68,2.13-1.09,3.17-.99ZM158.31,268.77l2.01.37c.26.85-2.55,2.72-2.78,2.35l.77-2.72ZM118.06,299.44c-1.75,1.53-2.8,2.52-2.18,4.97.3,1.2,1.16,2.96,2.53,3.07.46.04.89-.34,1.23-.16-.18.82-4.67,3.86-5.05,3.36l1.31-1.67c-1.5-2.84-3.25-5.49-1.24-8.62,1.4-2.18,8.22-5.56,10.72-7.12,13.52-8.47,27.32-16.42,41.1-24.44l3.71-6.25c3.06-2.05,4.31-.97,6.5-.56-.03.27-.02.56,0,.85.66-.38,1.31-.77,1.97-1.15,23.64-13.92,47.2-27.98,70.96-41.68.98.59,1.57,1.8.31,2.41-.56.27-.87-.26-1.46-.26-.89-.01-8.1,4.31-9.48,5.11-20.94,12.03-41.58,24.58-62.23,37.12-.02.21-.05.42-.13.61-.27.74-2.72,4.28-3.35,5.2-1.18,1.72-1.4,2.49-3.58,1.76-.52-.17-2.09-.79-2.98-1.48-16.14,9.78-32.3,19.51-48.65,28.92ZM180.42,253.59l1,.19c-.28.75-.87.85-1.12,1.75-.22.8.06,2.44-.11,2.73-.23.39-2.58,1.75-2.96,1.26.21-.52-.22-1.12-.2-1.54.05-1.22,3.68-2.53,3.39-4.39ZM246.37,201.46l-1.88-31.75c.34-.98,11.24-1.46,12.84-1.39l-1.71,32.51c-1.16-.09-2.53-.65-3.65-.68-1.73-.05-3.88,1.11-5.58,1.31ZM211.56,282.7c.11-.24,2.24-1.17,2.71-1.47.42-.26,1.79-1.86,2.2-1.43l.53,5.22-2.58,5.94c-1.17.64-4.84.05-4.92-1.43-.02-.35,1.75-5,2.02-5.9.1-.31,0-.62.04-.93ZM229.87,291.77c-.34,2.34-2.76,4.98-3.16,7.37l-3.02-.56c.69-1.28,1.68-2.27,2.18-3.7.29-.83.56-3.32.89-3.79.2-.27,2.22-1.63,2.47-1.38-.04.77.75,1.25.63,2.05ZM230.04,303.68c-.11.62-.2,1.25-.37,1.85-2.17,7.42-4.99.54-1.42-2.7l1.8.85ZM224.87,301.43c-.36.79-3.8,4.58-4.56,4.89-.34.14-.57.22-.94.07-.74-.75,2.01-3.34,2.44-4.28.33-.73.49-1.4.58-2.19l2.46.84c.3.31.15.38.02.67ZM224.51,289.75c-.32,2.06-3,4.66-3.32,6.82-1.12-.94-2.43-1.49-3.82-1.88l2.16-7.25c1.3.03,2.63-.56,3.5-1.47.66.11,1.57,3.24,1.48,3.79ZM219.81,298.4c.13.21-1.74,2.02-2.04,2.31-1.52,1.44-3.73,3.25-5.92,2.94l-.75-1.77c.85-1.24,1.72-6.13,3.69-5.67,1.36.32,3.42,1.96,5.01,2.19ZM210.96,294.15c.24.41-4.17,6.88-5.87,6.35-.23-.48-.9-1.04-.96-1.55-.1-.82.21-5.11.61-5.69.36-.52,1.87-.95,2.51-.86,1.11.16,2.39,1.66,3.71,1.75ZM205.19,286.56c-1.27.85-4.6-.8-5.78-1.62-.16-.4,2.38-5.99,2.85-6.46.71-.71,5.51-1.9,6.11-1.36.23.2.3.81.29,1.13-.04,1.39-2.4,7.59-3.49,8.32ZM180.63,282.06l1.75-.47c.92.8,3.48,1.09,4.15,1.86,1.67,1.92-1.28,4.44-2.89,5.38-2.4,1.4-2.74.68-4.8-.88.52-1.98,2.03-3.77,1.78-5.89ZM177.01,285.89l-3.99.7c-1.46-2.97.74-5.87,1.37-8.83l4.93,1.53c.82.81-1.54,5.64-2.31,6.6ZM191.05,285.81l4.26,1.38c.81,2.26-1.23,3.72-2.99,4.65-2.31,1.23-4.54,1.94-5.46-1.2,1.39-.76,2.75-4.73,4.18-4.84ZM195.84,294.4c.5-.66,1.17-1.53,1.53-2.25.33-.68.87-2.79,1.21-3.03,1.03-.73,3.1,1.48,4.43,1.48-1.34,3.4-4.05,6.31-8.03,5.51-.43-1.08.38-1.08.86-1.71ZM200.86,275.45c-.2.76-2.29,4.53-2.83,5.51-1.01,1.82-1.15,2.61-3.39,2.1-.82-.19-4.26-1.19-3.78-2.26l3.35-7.15c2.12-.43,4.2-1.39,6.42-1.19,0,.97.48,2.04.23,3ZM192.46,271.55l-4.61,7.87c-.32.13-5.08-1.73-5.72-2.06-.29-.15-.46.11-.29-.44,1.07-1.23,2.51-5.6,3.52-6.4.76-.61,5.41-1.34,6.31-1.04.76.25,1.02,1.39.8,2.08ZM179.03,274.91c-.52.21-4.05-1.07-4.26-1.51-.21-.45,1.57-4.18,1.96-4.87.44-.79.62-1.28,1.55-1.58.49-.16,4.52-.45,4.79-.33.27.12.29.41.29.68-.02,1.89-3.39,5.8-4.32,7.62ZM172.11,275.88c-.46,2.32-2.09,5.11-2.44,7.57l-2.34.77-1.23-4,1.59-5.92c.14-.29,3.93-.12,4.3.44.16.35.19.75.12,1.12ZM165.28,274.75c-.08,3.15-1.58,4.78-3.95,6.56-.68-.82-.83-3.19-.38-4.05.23-.45,3.64-2.11,4.32-2.51ZM279.5,311.14c-.31,1.1-4.58,7.23-5.55,8.57-4.63,6.41-11.91,13.18-17.87,18.46-.92.81-4.26,3.6-5.15,4.02-.41.19-5.54,1.07-6.27,1.12-4.53.33-8.7.75-13.22-.05-7.43-1.31-14.85-3.73-22.1-5.92-15.29-4.61-29.53-9.13-43.41-17.22-3.16-1.84-9.8-5.75-12.35-8-1.15-1.02-2.09-2.61-3.2-3.73-1.06-1.07-6.71-5.26-6.5-6.43.15-.84,1.83-3.91,2.35-4.9,2.77-5.37,6.15-10.45,8.55-16.03.45-.61,3.56-2.01,4.05-1.76.56,1.15,1.07,3.16,1.82,4.15,1.31,1.72,2.76,1.23,4.4.39.77,3.74,2.67,4.94,6.02,2.68.24.05,1.14,3.99,2.33,4.34,1.07.31,3.32-.91,4.55-.73l3.74,3.53,3.73-1.59c.33.06,1.99,4.22,2.9,4.81.83.54,3.62-.08,4.52-.6-.22,2.16,2.39,3.82,4.31,3.86,2.07.04,3.36-1.54,5.06-2.39-1.11,3.24,2.23,6.97,5.56,5.67.43-.17,1.09-.84,1.44-.71,1.49,1.61,1.5,3.77,3.59,4.8,2.27,1.12,3.07-.48,5.22-.84.1,1.49,2.44,4.13,4,3.73.36-.09,1.74-1.47,2.02-1.06l-.63,1.19c1.43,2.15,3.55,2.46,5.98,2.28.48-.04,1.04-.46,1.5-.36.44.1.7.73,1.18.94.85.37,1.68.04,2.19.25.99.41,1.8,1.26,3.4,1.63,8.43,1.98,10.79-4.79,15.54-9.72,1.38-1.43,3.23-3.52,5.42-2.81.11,1.84-.67,3.6-1.6,5.16-.66,1.1-5.94,8.01-6.68,8.51-.74.5-1.66.22-1.84,1.52-.26,1.92,1.71,1.83,3.05,1.21,4.18-1.94,5.9-5.29,9.09-7.56.54-.38,1.79-1.26,2.31-.49.8,1.23-1.76,4.21-2.54,5.27-3.29,4.48-7.47,8.43-12.26,11.27-3.42,2.03-6.23,2.89-10,4-.81.24-2.3,1.06-2.99,1.09-2.62.1-7.15-1.45-10.07-1.53-1.22-.03-2.52.9-4.07.79-1.5-.11-9.62-2.12-10.14-1.63-.59,1.8,1.79,1.38,2.74,1.87.34.18.41.69.93.9,1.5.59,4.02.44,5.53,1.03.66.26.81,1.05,1.33,1.5,1.66,1.45,5.04,1.19,7.23,1.63,4.12.81,8.33,2.16,12.55,2.6,6.13.64,14.35-5.65,18.05-10.21,1.45-1.79,2.42-4.04,3.82-5.63,3.41-3.86,10.35-5.23,10.83-11.04.47-5.72-5.99-4.79-7.66-8.37-.91-1.95-1.8-7.41,1.88-6.14,2.27.78,2.4,6.24,6.72,7.48,1.62.46,3.16.15,4.7.73.15.16.09,3.95-.04,4.44ZM239.42,300.53c-.89,2.57-2.61,4.85-5.46,3.09l3.73-8.16c1.97,1.62,2.66,2.42,1.73,5.07ZM239.17,293.89l3.16-7.05c6.15-4.55,3.49,7.68-.11,7.83-1.06.04-2.09-.41-3.05-.78ZM236,306.73c-.31,1.75-1.74,2.75-3.41,2.88l.68-3.65.7-.27c.52.3,1.21.39,1.71.59.36.15.42-.14.32.44ZM238.81,288.42c-.34,1.16-1.41,1.84-2.03,2.84l-3.44-.83c-.88-.92,2.43-4.96,2.84-6.13.39-1.1.04-2.03.35-3,.24-.75,1.22.22,1.45.54.73.99,1.18,5.35.83,6.57ZM233.86,292.92c1.35-.07,1.9,2.31,1.74,3.31-.08.52-2.02,4.91-2.33,5.27-.55.63-2.66.79-2.48-.4.08-.52,1.16-1.88,1.46-2.68.31-.79,1.31-5.32,1.61-5.5ZM348.84,243.93c.07,2.48.69,5.35.53,7.77-.49,7.74-2.37,18.8-5.16,25.98-2.3,5.92-5.32,14.3-9.35,19.01-4.35,5.1-10.11,9.14-15.06,13.58-2.02,1.81-3.49,3.97-5.42,5.87-3.49,3.44-10.76,10.42-14.62,12.96-2.87,1.89-12.07,3.49-15.55,3.29-.88-.05-1.73-.24-2.59-.41,1.35-2.83,4.81-4.01,7.29-5.55,3.43-2.13,10.81-6.1,13.39-8.66,2.62-2.6.29-3.33.72-5.66.3-1.62,2.77-3.67,4.01-4.72,9.18-7.77,19.2-17.17,23.95-28.48,1.08-2.57,1.88-5.26,2.96-7.84,2.25-5.38,4.91-9.31,5.33-15.52.05-.72-.21-4.82-1.04-4.78-.61.03-2.59,6.1-3.95,6.56.02-.5.44-.86.51-1.34.37-2.5.65-6.93.68-9.48.01-1.2-.32-4.85-1.01-5.68-.15-.18-3.3-2.76-3.5-2.87-.44-.23-.35.03-.44.3-.57,1.72-.31,4.27-.94,6.32-1.27,4.18-7.02,14.93-9.91,18.2-.91,1.03-2.9,3.32-2.55.28.08-.66.45-1.08.52-1.64.37-3.03,1.02-7.28,1.07-10.21.07-3.8-1.38-5.46-4.6-2.57-1.09-1-2.26-1.64-3.78-1.68-2.79-.07-4.29,3.81-6.35-.58-1.28-2.72-2.94-11.09-5.53-12.25-2.41-1.08-3.58.46-4.36,2.66-.35.99-.29,2.06-.79,3-.36.69-1.15,1.03-1.68,1.72-2.55,3.32-2.02,8.93-4.99,11.92-3.68,3.7-5.56,4.69-7.2,10.31-.63,2.16-1.3,7.86.11,9.76.92,1.25,2.36,1.22,3.46,1.8.76.4,1.71,1.83,2.57,2.41.92.62,2.05.84,2.92,1.51,2.13,1.62,4.31,5.98,4.34,8.66.07,6.02-1.41,9.92-6.69,13.12-1.71,1.04-2.98.23-4.66-.49-5.28-2.25-7.32-5.08-11.53-8.35-2.82-2.19-8.06-4.7-9.98-7.43-.52-.74-.66-1.64-1.13-2.3-2.63-3.69-10.2-1.8-14.2-3.21-.99-.35-4.8-2.92-4.83-3.93-.01-.44.94-1,.25-1.28-.24-.1-1.58.02-1.89.11-1.89.56-1.34,2.43-1.59,3.93-1.19-.67-1.36-2.69-.86-3.8-1.31-.67-3.1.24-3.73,1.47-.73,1.45,1.36,4.69,1.26,6.27-.04.66-.35,2.42-.58,3.01-.41,1.06-2.71,2.47-2.37,4.39-1.49-2.33-2.56-1.42-4.72-1.25-1.62-3.42-2.01-5.75-6.44-3.98-.35-.09-1.35-5.47-2.82-6.18-1.15-.55-4.65,1.41-5.79,2.01-1.14-3.02.01-6.93-4.65-6.11-1.4.25-2.39,1.18-3.74,1.44.07-1.21-.55-5.33-1.73-5.74-1.41-.49-5.01,1.09-6.29,1.91-.32-.06-.71-3.89-2.08-4.29-.59-.17-3.15.24-3.91.39-1.13.22-2.13.62-3.23.9.03-1.65-.27-3.4-1.18-4.81,0-.19,2.65-1.9,2.83-1.91.76-.03.5,2.62,2,2.44.12-.44.1-.96.26-1.38.3-.75,4.41-3.25,5.51-3.03l-.61-2.11,9.63-6.03c1.95-.56,4.26,1.03,6.62-.28.73-.41,2.07-1.74,2.47-2.48.63-1.15.58-2.66,1.19-3.38.78-.91,3.03-1.68,4-2.5.77.06.12.63-.01.95-.38.88,1.12-.14,1.39-.23.83-.26,2.54-.4,3.05-.68,1.17-.64,1.23-2.88,1.87-3.91l9.86-5.9c.42-.02,1.45,2.75,1.83,3.33,2.79,4.25,10.86,7.75,15.49,9.8,5.37,2.37,11.47,5.21,17.51,4.59,1.2-.12,6.03-1.52,6.83-2.22,1.51-1.32,1.91-2.69,2.93-4.06.56-.76,8.35-3.11,9.87-3.55,1.46-.43,2.65.03,3.39-1.62-.5-.56-10.47,2.78-12.02,2.98,1.56-3.97,2.03-8.25,3.05-12.34.85-3.39,2.79-8.27,4.52-11.32,1.53-2.7,8.9-8.19,11.65-10.88,4.95-4.85,9.49-10.13,14.11-15.28,9.93,10.26,17.08,23.09,20.95,36.83l-.55.49c-7.02,1.51-13.84,3.89-20.82,5.54-3.36.79-6.87,1.05-10.14,2.2l.91,1.34c10.55-1.68,20.6-5.53,30.94-8.1l1.76,15.53c.07.57.63.57,1.13.65.36-6.47-.78-12.64-2.55-18.8-12.18-42.51-52.52-69.16-96.76-59.55-2.4.52-16.55,4.31-17.29,5.87-.19.4-.12.62.23.89,1.25.65,8.76-2.33,10.52-2.85,2.38-.7,4.96-1.52,7.34-2.12.71-.18,4.28-1.08,4.64-.72-.09,10.84,1.29,21.59,1.51,32.4-2.76,2.39-5.96,4.33-7.97,7.54l-5.63-10.42-.72.57c-.19.4,0,.77.16,1.13.7,1.66,2.16,3.69,3.01,5.4.39.77,2.2,4.13,2.23,4.64.03.62-1.9,3.94-2.24,5.24-.54,2.08-.98,5.13-.96,7.27.01.98.68,2.93.13,3.65l-8.86,4.87c.42-2.09.44-4.86.06-6.96-.17-.95-.37-1.82-1.52-1.88-2.6,3.31-2.77,7.67-3.27,11.69l-4.08,2.56c1.33-6.47,2.54-13.07.8-19.57-1.41-5.28-2.77-6.76-7.53-3.16-3.56,2.69-8.39,7.19-11.53,10.41-1.47,1.51-6.56,7.03-7.25,8.63-.72,1.67.05,2.67-.29,3.71-.34,1.03-1.79,1.13-1.86,3.04-.03.89.55,1.24.73,1.92.52,1.94.35,3.15,2.24,4.61,2.79,2.16,4.91-.22,8.04.08-.52.52-1.19.97-1.81,1.36-2.49,1.56-6.37,4.03-8.93,5.24-.31.15-.88.55-1.06.07.07-1.1-.47-2.06-.58-3.12-.23-2.26.57-5-1.52-6.64-1.37.88.49,3.39-1.06,4.2-.59.31-2.55.66-3.2.5-1.06-.27-1.25-1.93-2.64-1.79-.59,1.03-.85,2.43-2.04,2.97-1.54-.85-.09-1.7.43-2.6.49-.84-.33-.84-1.01-.5-.58.29-4.26,2.82-4.43,3.15-.53,1.05-.47,3.2-.89,4.46-.25.74-1.09,1.67-1.24,2.59l-2.06.59c-1.11-2.05,1.27-4.62,2.53-6.22,2.19-2.77,4.88-5.21,6.98-8.08.76-1.04,3.37-4.36.8-4.63-.82-.09-1.63.38-2.68.29-2.73-.23-5.41-1.78-8.23-2.06-1.22-.12-2,.01-1.59,1.53.15.57.94.73,1.17,1.06.24.35.21,1.37.78,1.77-1.09.54-2.18,1.13-3.33,1.55-.83.3-4.06,1.48-4.5.54-.08-.17.23-3.18.3-3.72.38-2.79,1.52-6.22,2.8-8.74,1.86-3.64,7.99-3.73,11.64-4.49,1.89-.4,3.66-1.25,5.69-1.16-.5-2.16-.93-3.78-3.01-4.86-3.09-1.6-6.49-.3-9.73-1-.29-.3-1.59-7.35-1.57-8.17.09-3.7,5.03-8.22,7.21-11.15,1.21-1.63,2.8-3.91,3.81-5.65,1.09-1.87,1.73-4.11,2.84-5.78.32-.48,4.05-4.87,4.33-5.05,1.51-.97,5.18-1.16,7.14-1.94,1.5-.59,3.36-2.17,4.63-2.53.97-.28,2.46-.13,3.51-.32,2.37-.44,4.87-1.48,7.27-1.26,4.03.36,7.57.96,11.73.42.82-.11,1.64-.37,2.41-.67-.21-1.48-.89-3.78-2.04-4.77-1.22-1.05-6.13-1.82-7.93-2.04-2.31-.28-4.82.21-7.04-.64,3.1-3.86,6.27-7.74,10.1-10.89,9.21-7.58,16.7-10.67,28.97-9.36,8.29.88,16.72,2,25.09,2.26,2.46.08,5.34-.57,7.66-.37,8.14.7,21.16,4.37,28.78,7.48,10.35,4.23,21.14,15.08,27.82,23.97,3.57,4.74,4.77,7.94,7.27,13.03,3.55,7.21,13.02,15.36,12.99,23.83-.04,8.06-2.47,15.89-2.25,23.97ZM300.89,188.17c-3.26,6.07-6.36,12.35-9.48,18.5-1.7,3.35-3.25,7.95-5.21,10.96-.71,1.08-1.94,2.09-2.95,2.89-.72-3.87-2.52-7.45-6.03-9.49-.18-.45,2.49-5.46,2.95-6.32,3.25-6.11,6.98-11.95,10.2-18.09.59-1.12,3.73-8.2,4.43-8.17l8.48,5.45c.18.45-1.98,3.52-2.39,4.28ZM303.94,184.78c.48-.22,4.74,3.63,5.43,4.28.53.5,3.21,2.88,3.03,3.37-7.66,7.53-14.53,15.99-23.16,22.45,2.66-6.75,6.32-13.05,9.54-19.54,1.74-3.51,3.13-7.21,5.17-10.55ZM276.04,210.08c-2.75-.93-4.96-2.91-7.51-4.18-1.43-.72-10.97-4.09-11.22-4.65l1.15-32.84c1.63-.14,3.26-.32,4.91-.23,6.9.38,15.37,2.8,21.77,5.43,1.12.46,8.79,3.96,8.81,4.5l-17.91,31.97ZM270.34,243.5c-5.06,5.08-13.12-1.26-11.63-7.32.78-3.15,3.56-6.32,7.05-6.05,6.57.52,9.4,8.51,4.58,13.36Z"/><path class="cls-1" d="M166.3,273.7s2.69-2.65,3.7-3.39c1.58-1.15,5.12-2.86,6.78-3.9.74-.46,5.4-3.14,5.4-3.14l-1.87-1c-5.34,3.24-10.67,6.48-16.01,9.72l2,1.71Z"/><path class="cls-1" d="M178.96,261.55l-1.64-.88s-3.71,2.33-4.97,3.07c-2.48,1.48-10.99,5.74-10.99,5.74l1.63,1.39c5.22-3.03,10.45-6.07,15.66-9.14.1-.06.21-.12.31-.18Z"/></svg>