<?xml version="1.0" encoding="UTF-8"?><svg id="Layer_1" xmlns="http://www.w3.org/2000/svg" viewBox="0 0 500 500"><defs><style>.cls-1{fill:#fff;}</style></defs><path class="cls-1" d="M388.09,349.83c5.58-.61,9.21,1.71,13.06,5.39,6.56,6.26,7.65,16.4,1.49,23.37-7.48,8.46-19.48,4.57-26.01,16.91-2.66,5.03-2.47,7.49-7.19,11.67-8.4,7.44-19.97,5.35-24.25-5.29-2.02-5.01-1.03-16.15,3.05-20.02,4.06-3.85,14.03-4.53,19.4-7.67,9.18-5.36,6.53-22.85,20.46-24.37ZM390.27,358.03c-2.59.36-5.05,2.62-6.61,4.6-5.03,6.4.27,14.93,8.18,14.19.94-.09,4.27-1.54,4.91-2.2,4.26-4.4,2.29-11.82-2.18-15.29-1.49-1.15-2.34-1.58-4.3-1.3ZM357.46,385.91c-2.48.36-5.12,2.2-5.61,4.78-1.01,5.35,1.21,12.11,6.89,13.75,3.95,1.14,7.8-4.51,7.78-8.05-.02-4.2-4.27-11.18-9.06-10.49Z"/><path class="cls-1" d="M79.13,304.73c5.95-.75,14.12,4.14,16.6,9.5s1.84,8.11,2.4,13.45c.59,5.63,3.99,7.79,8.15,10.99,4.45,3.42,11.51,6.43,13.51,11.92,2.28,6.27-.17,11.28-4.24,15.98-8.24,9.53-17.26,8.23-25.25-.7-5.5-6.14-3.93-16.86-8.25-24.28-3.37-5.8-12.92-7.51-16.03-14.04-4.61-9.69,2.73-21.5,13.11-22.81ZM80.23,312.66c-2.05.24-3.32.91-4.59,2.52-5.45,6.93.45,15.95,8.85,15.14,3.55-.34,7.75-3.58,7.55-7.47-.33-6.34-5.45-10.92-11.82-10.19ZM104.84,348.2c-5.67.34-8.6,4.94-7.85,10.42.31,2.28,4.47,5.63,6.67,5.91,4.33.54,9.15-2.37,9.43-6.98.33-5.32-2.65-9.68-8.25-9.34Z"/><path class="cls-1" d="M273.42,413.01c7.08-5.09,18.03-.02,26.23-4.53,5.04-2.78,7.22-6.52,11.27-9.78,9.27-7.47,22.37-2.65,25.54,8.62,2.56,9.1-.48,16.75-8.48,21.56-8.52,5.12-14.64-.3-23.23,1.65-9.66,2.19-13.53,14.65-25.02,11.1-2.92-.9-5.56-2.75-7.5-5.08-4.74-5.7-5.37-18.82,1.19-23.53ZM321.38,406.15c-3.43.32-5.06,1.24-6.55,4.38-1.91,4.02-.68,8.6,3.25,10.79,7.76,4.33,15.47-3.64,11.24-11.24-1.79-3.21-4.35-4.27-7.93-3.94ZM282.82,416.52c-5.76,1.08-9.17,8.42-5.39,13.19,7.17,9.04,20.9,2.09,15.98-8.87-1.55-3.46-7.12-4.96-10.59-4.31Z"/><path class="cls-1" d="M427.19,276.03c9.35-.23,16.87,6.6,16.2,16.2-.67,9.61-11.15,12.4-14.17,21.65-1.79,5.48.27,7.55.73,12.55.99,10.85-8.64,20.35-19.67,17.48-1.75-.46-1.99-1.32-3.17-2.02-2.9-1.71-5.12-2.14-6.88-5.42-4.63-8.63-1.92-17.35,5-23.6,1.72-1.55,3.59-2.39,5.2-4.36,4.81-5.86,1.97-9.85,1.5-16.27-.8-11.03,4.64-15.92,15.25-16.18ZM425.54,282.31c-1.29.22-5.25,2.71-5.74,3.83-.34.78-.3,3.25-.21,4.18.53,6.06,7.23,9.18,12.59,6.82,2.89-1.27,3.58-4.18,3.58-7.11,0-4.71-5.8-8.49-10.21-7.73ZM415.36,320.65c-3-.05-8.09,3.05-9.16,6.02.4,3.24.26,6,3.54,7.66,4.76,2.41,10.76.46,11.43-5.28.41-3.5-1.85-8.33-5.81-8.39Z"/><path class="cls-1" d="M129.72,372.26c5.49-.53,12.03,3.18,15.63,7.17,2.45,2.71,6.95,11.46,9.86,12.55,5.24,1.95,11.99,1.53,17.54,3.24,4.93,1.51,10.53,5.04,11.79,10.35,3.55,14.97-14.98,29.7-26.48,16.63-5.57-6.32-5.79-13.13-15.26-16.46-5.26-1.85-14.28-.5-18.87-3.82-10.98-7.96-9.26-28.22,5.77-29.67ZM131.37,379.07c-10.46.74-7.46,19.96,3.95,17.37,2.5-.57,6.27-3.41,6.5-6.08.52-5.97-4.29-11.73-10.45-11.29ZM167.72,403.14c-7.23,1.05-9.34,11.7-1.94,15.46,9.84,4.99,15.84-8.21,9.75-13.03-1.98-1.57-5.28-2.8-7.81-2.44Z"/><path class="cls-1" d="M391.1,121.59c9.05-.93,16.66,3.28,18.06,12.67.7,4.69.43,7.77,2.37,12.39,3.37,8.03,7.65,7.6,13.26,12.72,5.95,5.43,10.35,13.47,5.64,21.22-5.98,9.83-22.67,7.11-28.02-1.85-3.5-5.85-3.29-9.14-3.86-15.55-1.16-13.06-11.68-11.99-18.2-20.08-3.35-4.16-2.77-11.55-.08-15.94,1.69-2.75,7.65-5.25,10.82-5.58ZM392.75,127.59c-11.12.51-8.11,19.01,3.14,14.63,8.29-3.23,6.02-15.05-3.14-14.63ZM413.79,163.67c-4.5.62-8.05,5.38-7.3,9.89.2,1.22,3.19,3.08,4.35,3.58,5.96,2.56,13.27-.78,12.29-7.91-.25-1.84-2.19-3.57-3.72-4.48-1.91-1.13-3.39-1.38-5.62-1.08Z"/><path class="cls-1" d="M325.49,70.74c6.08-.63,9.45.88,13.02,5.68,2.31,3.11,4.12,6.59,7.14,9.26,8.16,7.22,20.79,1.64,29.94,10.8,9.95,9.97,1.39,25.37-12.18,25.03-9.35-.23-12.04-6.81-16.03-13.5-6.7-11.22-25.67-4.76-32.33-14.15s-1-21.95,10.44-23.13ZM324.66,76.75c-12.91,1.76-5.07,20.6,6.81,14.46,5.15-2.66,3.56-8.1.36-11.66-2.19-2.43-3.81-3.26-7.17-2.81ZM362.13,98.34c-2.71.11-5.87,2.47-6.71,5.07-1.66,5.11,2.37,11.71,7.99,11.26,6.46-.52,10.13-6.1,6.85-12.04-1.69-3.07-4.64-4.44-8.13-4.3Z"/><path class="cls-1" d="M87.35,146.19c10.61-.69,18.96,10.23,15.14,20.33-3.6,9.54-15.68,10.49-15.65,21.55.01,5.82,1.84,11.63-1.56,17.01-4.75,7.5-15.08,9.89-21.67,3.23-6.11-6.17-6.09-13.53-.8-20.23,2.86-3.62,8.01-6.26,9.84-10.39,3.38-7.63.52-16.19,3.5-22.74,2.43-5.33,5.02-8.35,11.2-8.75ZM87.88,154.1c-4.3.72-5.21,7.15-3.26,10.51,4.24,7.33,13.82,1.01,10.09-6.81-1.1-2.31-4.28-4.13-6.83-3.7ZM72.84,190.46c-1.97.34-4.6,2.89-5.45,4.67-1.14,2.38-1.39,4.32,0,6.67,1.72,2.92,5.47,3.68,8.45,2.32,7.79-3.57,4.53-14.95-2.99-13.65Z"/><path class="cls-1" d="M425.54,198.66c10.61-1.44,21.54,5.86,17.84,17.57-1.9,6.02-6.64,7.57-4.73,14.84,1.7,6.47,9.31,11.77,8.49,18.98-1.36,11.94-13.8,18.55-24.24,11.8-7.35-4.75-8.96-11.1-5.54-19.16,1.23-2.91,3.76-6.11,4.12-9.28.59-5.24-5.12-10.21-6.94-14.87-3.56-9.14,1.01-18.53,11-19.88ZM427.18,205.5c-5.28.68-6.96,3.95-6.15,9.02.82,5.22,6.19,4.73,10.12,5.62,5-1.64,5.88-9.54,1.82-12.64-1.77-1.35-3.53-2.29-5.79-2ZM429.37,241.86c-7.64,1.11-7.73,11.51-1.91,14.34,6.23,3.03,13.13.5,12.36-7.17-.56-5.64-5.19-7.94-10.45-7.18Z"/><path class="cls-1" d="M242.64,53.52c8.05-.15,9.41,4.6,15.08,7.45,9.06,4.55,17.11-4.26,26.67-3.99,9.81.27,17.09,9.2,13.94,18.87-2.79,8.57-7.57,12.66-16.91,11.73-10.06-1.01-13.3-13.81-26.08-9.34-5.95,2.09-8.04,4.76-15.24,4.75-4.97,0-8.22-1.19-10.19-5.97-4.29-10.43.18-23.27,12.73-23.5ZM241.27,60.62c-2.25.31-4.62,1.81-5.95,3.62-6.1,8.3,8.71,16.57,13.94,9.29,1.19-1.65,2.2-6.45,1.56-8.4-1.25-3.84-5.94-5.01-9.56-4.52ZM290.19,68.01c-3.92-4.52-12.4-2.43-14.65,2.82-1.62,3.79-1.06,6.71,2.29,9.13,5.09,3.67,15.7-1.31,14.29-8-.12-.59-1.54-3.48-1.94-3.94Z"/><path class="cls-1" d="M204.91,413.26c9.95-.91,14.09,7.62,23.64,6.41,1.73-.22,3.4-1.14,5.01-1.55,5.39-1.38,14.62-3.29,19.4.26,10.16,7.55,5.14,23.52-5.69,27.39-9.66,3.45-15.5-6.51-24.67-6.62-4.76-.06-8.86,2.24-13.19,3.49-21.7,6.24-23.85-27.59-4.49-29.36ZM206.55,419.82c-5.44.58-9.06,5.6-6.28,10.77,3.12,5.8,12,5.07,14.47-.94,1.29-3.13,1.25-4.95-1.29-7.33-1.76-1.64-4.48-2.77-6.91-2.51ZM243.38,422.9c-7.72-.11-11.04,9.72-4.92,14.6,5.19,4.13,12.37,2.33,13.46-4.57.86-5.42-3.12-9.96-8.55-10.03Z"/><path class="cls-1" d="M65.47,228.47c10.08-1.04,14.77,7.72,14,16.73-.62,7.19-4.75,9.67-1.84,17.7,3.07,8.49,9.34,16.81,2.51,25.88-3.87,5.14-15.4,6.98-20.48,3.02-7.21-5.63-5.21-13.15-2.54-20.57.67-1.87,1.96-3.65,2.27-5.65,1.78-11.27-8.38-16.14-6.32-27.36.93-5.07,7.53-9.25,12.4-9.75ZM66.83,235.55c-2.02.22-4.9,2.83-5.83,4.58-1.1,2.09-1.02,5.56.55,7.4,2.04,2.4,7.4,2.52,9.59.27,2.73-2.8,2.41-7.93-.28-10.68-.78-.8-2.92-1.71-4.03-1.58ZM68.76,274.1c-5.83.56-9.33,10.34-2.41,12.12,2.19.56,7.13.11,8.6-1.8,3.67-4.76-.28-10.88-6.19-10.31Z"/><path class="cls-1" d="M136.28,86.04c3.24-.44,4.65.3,7.32,1.84,7.26,4.18,11.19,9.86,7.72,18.39-2.27,5.59-9.4,8.12-14.76,9.85-3.7,1.19-7.02.79-9.35,4.32-5.79,8.75-3.87,21.38-18.86,19.63-10.4-1.22-13.51-12.83-10.06-21.48,3.91-9.79,13.43-7.47,20.65-12.16,3.03-1.97,5.08-8.01,7.07-11.25,2.2-3.58,5.83-8.53,10.27-9.14ZM137.1,95.61c-2.38.35-4.88,2.21-5.13,4.71-.25,2.46.27,3.53,2.06,5.05,3.47,2.95,8.18,4.16,10.19-1.01,2.29-5.89-1.03-9.65-7.12-8.76ZM117.66,130.44c2.04-1.98,2.81-8.37.79-10.58-1.81-1.97-6.71-2.81-9.24-2.38-3.89.66-6.48,6.23-5.54,9.78.57,2.16,4.97,5.22,7.12,5.46s5.27-.71,6.88-2.28Z"/><path class="cls-1" d="M204.63,59.26c6.6-.69,13.33,5.42,14.74,11.62,1.83,8.01-8.02,15.59-15.13,16.7-4.78.75-7.9-.88-12.3-1.3-3.17-.31-4.01.17-6.4,2.01-5.52,4.26-7.07,8.58-15.2,9.4-7.41.75-10.26-3.2-12.34-9.74-3.62-11.37,6.63-19.28,17.29-18.65,3.89.23,7.47,2.07,10.97,2.43,4.64.48,4.94-2.25,7.11-5.14,2.41-3.22,7.15-6.9,11.26-7.33ZM203.25,66.89c-1.74.15-4.68,2.6-5.44,4.13-1.53,3.04-1.32,7.57,1.95,9.36,3.76,2.06,8.53,2.02,11.34-1.54,3.27-4.14.53-10.81-4.42-11.67-.6-.1-2.89-.33-3.43-.28ZM171.27,77.02c-5.86.86-9.28,7.8-5.13,12.36,7.62,8.37,21.16-5.45,10.74-11.29-1.96-1.1-3.32-1.41-5.62-1.08Z"/><path class="cls-1" d="M77.78,214.22c.98.64-.81,4.98-1.01,6.14-.14.81-.29,2.13-.32,2.96-.07,1.97.72,4.17-.26,5.76-.92.56-3.48-1.79-4.58-2.27-3.75-1.65-7.62-1.18-11.36.27-.74.29-1.58,1.35-2.26.77-.62-.96,2.21-5.86,2.62-7.24.57-1.95.67-4,.53-6.02-.12-1.75-1.32-4.32.14-5.6,1.72,1.82,4.33,3.52,6.76,4.17,3.25.87,6.47.56,9.73,1.06Z"/><path class="cls-1" d="M299.57,64.65c.7-.7,5.26,2.71,6.2,3.23,3.13,1.7,6.64,3.17,10.28,2.28l.7.7c.42,1.48-2.28,2.2-3.25,2.94-3.13,2.4-4.47,6.52-4.07,10.37.07.71,1.07,2.48.27,3.05s-5.25-1.4-6.72-1.52c-2.27-.18-4.72,1.01-6.55.81-2.87-.33,1.12-3.44,1.63-4.09,2.55-3.17,4.52-9.67,3.2-13.59-.26-.78-2.25-3.62-1.7-4.18Z"/><path class="cls-1" d="M397.16,335.56c.29.19,2.26,5.17,3.18,6.26,3.17,3.76,8.06,5.39,12.84,5.23,2.19-.07,4.18-1.03,1.76,2.03-1.39,1.75-3.12,3.24-4.43,5.14-1.21,1.76-1.82,3.84-3.09,5.39-.47.11-.53-.37-.69-.67-2.13-4.01-3.1-5.7-7.18-8.13-2.49-1.48-4.96-1.69-7.36-2.75-3.43-1.51-.36-2.86.88-4.45.82-1.05,1.76-2.83,2.2-4.08.27-.78.73-4.73,1.89-3.96Z"/><path class="cls-1" d="M440.41,278.65c-1.46-2.41-4.28-4.28-7.08-4.81-2.95-.56-6.5-.73-9.47-.31-1.39.2-2.83,1.24-4.15.54-1.05-.79,1.06-3.88,1.23-5.1s-.47-5.18,0-5.73c1.05-1.26,3.07.66,4.14,1.11,3.49,1.48,9.47,3.25,13.11,1.91.94-.35,3.21-2.41,3.69-2.32.56.11.45,1.6.41,2.05-.27,3.49-1.64,6.1-1.36,10.11.07,1.05,1.26,2.8-.52,2.56Z"/><path class="cls-1" d="M431.35,183.28c.16,4,.43,7.3,2.41,10.85.46.82,2.52,2.74,1.43,3.53-.81.59-3.84-1.36-4.93-1.67-4.51-1.25-9.79.7-13.6,3.1-.28.05-.96-.08-1.11-.29-.24-.33-.59-4.1-.95-5.19s-1.08-2.44-1.99-3.22c-.86-1.64,4.87-1.02,5.77-1.08,2.79-.19,7.31-1.25,9.43-3.15,1.19-1.06,1.76-3.24,3.55-2.88Z"/><path class="cls-1" d="M95.29,130.57c.3.18,2.06,5.22,2.82,6.34,1.12,1.64,4.64,4.44,6.57,4.91,1.74.43,5.27-.65,4.83,1.52-2.31.74-4.71,3.94-5.09,6.25-.23,1.37.43,3.01-.75,3.89-3.07-4.07-7.21-8.32-12.37-9.49-.71-.16-2.63.19-2.79-.78-.05-.31,2.29-2.17,2.78-2.92,1.56-2.42,3.04-6.87,2.96-9.76l1.05.04Z"/><path class="cls-1" d="M70.59,297c1.87-.24,4.82-1.55,6.4-2.62.75-.51,2.56-2.52,3.4-2.28l4,9.53c-1.26.52-2.61.16-3.92.32-2.65.32-5.38,1.92-7.64,3.3-2.08,1.27-4.08,3.44-6.48,3.77v-4.78c0-.46-.91-4.02-1.15-4.59-.41-.99-1.34-1.41-1.04-2.65,2.03-.18,4.45.25,6.43,0Z"/><path class="cls-1" d="M342.45,394.08c.56.35.01,2.78.07,3.61.22,3.2,2.01,7.68,4.08,10.14.28.83,3.56,3.51,3.56,3.84s-.18.52-.45.66c-3.31.97-6.49,2.53-8.86,5.08l-.94.16c-.6-.16-.05-6.44-.15-7.53-.27-3.04-2.24-6.74-3.68-9.44-.72-1.34-2.94-3.2-.96-4.23,1.15-.6,3.23-.97,4.57-1.44.73-.26,1.87-1.41,2.77-.84Z"/><path class="cls-1" d="M381.32,111.12c1.17-.24,1.21,1.05,1.69,1.73,1.88,2.72,2.61,4.31,5.78,5.7,1,.44,2.73.3,2.33,1.67-.32,1.12-1.96.61-2.8.76-3.75.7-7.17,2.51-9.41,5.63-.55.77-1.8,3.35-2.1,3.64-.26.25-.4.38-.79.26-1.6-2.25-3.41-3.99-5.76-5.46-.69-.43-2.57-.7-2.3-1.73.25-.96,3.53-1.34,4.53-1.77,3.41-1.46,8.65-6.47,8.84-10.44Z"/><path class="cls-1" d="M124.49,370.35c.15.18.25.37.31.6-3.63,2.38-7.13,3.92-9.01,8.15-.76,1.71-1.05,3.41-1.75,5.1-.8.16-1.68-1.63-2.17-2.18-1.42-1.61-3.56-4.25-5.09-5.57-.92-.79-3.48-1.39-1.22-2.37,4.56-1.97,7.33-.52,11.09-5.59.85-1.15,1.28-3.92,2.93-3.21.72.31,4.17,4.2,4.9,5.08Z"/><path class="cls-1" d="M188.83,430.95c-2.42-.74-4.09-3.1-6.45-4.07-1.38-.57-2.78-.58-4.21-.85-.24-1.19.8-.98,1.46-1.41,5.03-3.25,6.39-6.96,7.16-12.8,1.18-2.18,7.76,1.47,8.3,3.46-2.1,3.02-4.22,5.73-5.36,9.31-.74,2.31-.48,4.06-.89,6.36Z"/><path class="cls-1" d="M267.3,419.47c-.09,1.59-1.14,2.86-1.34,4.54-.3,2.58.27,4.59,1.21,6.94.41,1.03,3.32,6,2.85,6.55-3.05.41-6.03.27-9.01,1.24-.62.2-3.32,2.12-3.24.6.04-.8,1.59-3.19,2-4.3,1.29-3.53,1.54-7.98-.44-11.29-.54-.89-1.73-1.23-1.29-2.61l9.26-1.67Z"/><path class="cls-1" d="M227.08,58.4c.19,2.43-1.57,4.56-1.85,6.96-.38,3.26.24,7.09,2.2,9.77.44.6,1.32.55,1.01,1.63-.22.76-2.59,1.06-3.51,1.43-.84.33-4.34,2.94-4.37,1.11-.01-.76.98-2.8,1.1-4.11.37-4.21-.38-8.28-3.71-11.07-.61-.52-4.42-2.43-1.65-2.75,2.48-.29,4.3.51,6.81-.85,1.31-.71,2.42-2.88,3.97-2.11Z"/><path class="cls-1" d="M154.38,81.6c.87,3.36.56,7.07,2.15,10.29,1.19,2.41,3.57,3.31,5.22,5.18.11.6-3.62,2.55-4.34,2.99-.48.29-1.3,1.61-1.93.46-.35-.63-.49-2.93-.96-4.16-2-5.19-5.49-5.3-8.47-8.48-2.29-2.44,1.76-2.44,3.52-3.31.94-.47,4.24-3.38,4.81-2.97Z"/><path class="cls-1" d="M388.9,362.4c8.67-1.5,7.76,13.65-.54,10.8-4.2-1.44-4.82-9.87.54-10.8Z"/><path class="cls-1" d="M358.84,389.73c1.33-.1,2.64.96,3.34,1.99,3.01,4.4-2.93,10.75-6.52,6.8-2.6-2.86-.79-8.48,3.18-8.79Z"/><path class="cls-1" d="M80.77,316.47c2.79-.52,6.5,1.33,6.58,4.44.11,4.46-3.05,6.6-7.21,5.08-4.22-1.55-3.31-8.79.63-9.52Z"/><path class="cls-1" d="M103.47,351.47c5.34-.73,7.96,4.06,4.28,7.83-2.07,2.13-4.6,2.09-7.04.52-3.5-2.26-1.14-7.82,2.76-8.36Z"/><path class="cls-1" d="M283.64,420.62c3.21-.66,6.53,1.09,6.06,4.7-.69,5.36-11.31,7.48-10.07-.23.24-1.52,2.5-4.15,4.01-4.46Z"/><path class="cls-1" d="M326.27,410.27c2.83,2.83.35,8.2-3.32,8.66-4.49.56-6.95-2.2-5.47-6.56,1.09-3.2,6.33-4.56,8.78-2.1Z"/><path class="cls-1" d="M426.36,285.04c5.91-.96,9.63,7.4,2.45,9.83-2.87.97-5.59-.3-5.94-3.47-.31-2.81.27-5.84,3.48-6.36Z"/><path class="cls-1" d="M413.24,323.85c4.36-.85,5.95,5.31,3.37,7.75-3.14,2.97-8.22,2.22-7.88-2.66.14-2.04,2.53-4.7,4.51-5.09Z"/><path class="cls-1" d="M136.79,384.85c1.35,1.38,1.72,3.29,1.4,5.17-.78,4.6-7.12,4.93-9.29,1.21-3.55-6.07,2.98-11.38,7.89-6.38Z"/><path class="cls-1" d="M168.81,406.41c2.07-.36,3.26-.04,4.56,1.6,1.92,2.42,1.74,5.74-.8,7.63-2.12,1.58-4.55.55-6.41-.97-3.29-2.7-1.25-7.59,2.65-8.26Z"/><path class="cls-1" d="M413.78,167.49c3.87-.8,8.24,2.46,5.54,6.36-1.65,2.39-6.15,2.17-7.62-.32-1.21-2.06-.5-5.52,2.07-6.05Z"/><path class="cls-1" d="M391.63,130.59c2.44-.5,4.8.13,5.86,2.49,2.85,6.3-6.42,8.44-8.63,3.44-1.07-2.42.08-5.37,2.77-5.92Z"/><path class="cls-1" d="M362.38,102.16c5.69-.98,7.33,6.2,2.26,8-6.59,2.33-8.37-6.95-2.26-8Z"/><path class="cls-1" d="M324.1,79.75c3.63-.75,6.83,1.71,6.37,5.55-.47,3.95-8.7,3.97-9.28-.85-.23-1.91.92-4.29,2.91-4.69Z"/><path class="cls-1" d="M72.29,193.19c6.75-1.74,6.71,10.55-.05,9.48-4.65-.73-3.56-8.55.05-9.48Z"/><path class="cls-1" d="M88.14,157.1c5.11-1.18,7.01,6.5,2.07,7.53-4.72.98-5.23-6.8-2.07-7.53Z"/><path class="cls-1" d="M430.19,244.58c4.61-.83,7.6,2.81,5.95,7.04-1.35,3.46-5.03,3.32-7.65,1.37-2.88-2.15-1.23-7.88,1.7-8.41Z"/><path class="cls-1" d="M427.73,207.95c4.25-.67,6.22,5.01,3.5,7.88-1.5,1.58-6.69.98-7.2-1.3-.57-2.56.88-6.13,3.7-6.58Z"/><path class="cls-1" d="M283.09,67.99c6.69-1.14,7.79,6.28,2.17,8.46-8.16,3.16-8.23-7.43-2.17-8.46Z"/><path class="cls-1" d="M242.36,63.35c4.08-.51,7.07,3.68,4.56,7.02-.63.83-2.58,2.23-3.6,2.41-7.15,1.22-8.33-8.51-.96-9.43Z"/><path class="cls-1" d="M243.17,427.46c6.57-1.36,6.4,8.57.47,8.69-4.93.1-4.49-7.86-.47-8.69Z"/><path class="cls-1" d="M207.1,423.08c2.55-.26,5.14,1.72,4.96,4.41-.23,3.3-2.83,4.45-5.84,3.99-4.17-.65-3.72-7.92.88-8.4Z"/><path class="cls-1" d="M64.25,245.52c-1.51-1.37-.55-6.08,1.76-6.68,4.17-1.08,6.7,4.89,3.07,7.16-1.11.7-3.9.35-4.82-.48Z"/><path class="cls-1" d="M72.27,284.06c-2.09,2.19-7.85,1.66-7.86-2.23-.01-4.38,4.55-6.49,7.68-3.56,1.47,1.38,1.53,4.37.17,5.79Z"/><path class="cls-1" d="M109.75,120.2c2.15-.43,5.18,1.48,5.52,3.64.92,5.87-5.48,9.3-8.06,3.96-.79-1.64-.8-2.41-.32-4.17.39-1.41,1.3-3.12,2.85-3.43Z"/><path class="cls-1" d="M138.74,98.61c3.85-.22,3.7,5.69.18,6.21-4.81.71-4.17-5.98-.18-6.21Z"/><path class="cls-1" d="M208.16,70.76c1.58,1.48,1.2,4.92-.44,6.34-3.43,2.95-8.8-.18-6.68-4.76,1.2-2.59,5.15-3.43,7.12-1.57Z"/><path class="cls-1" d="M172.38,79.22c8.83-.88,6.16,10.32-.31,10.2-5.93-.11-7.26-9.45.31-10.2Z"/><path class="cls-1" d="M155.28,360.3c-1.67,1.66-3.74,2.2-6.22,1.62-2.1-.5-4.04-1.65-5.82-3.44-1.55-1.56-2.42-3.31-2.6-5.24-.76,0-1.57-.23-2.45-.69-.8-.41-1.49-.91-2.08-1.5l-.2-.25,1.61-1.61c.6.36,1.25.49,1.95.39.7-.1,1.3-.41,1.82-.92l8.96-8.92c.74-.74,1.19-1.47,1.34-2.2.17-.89-.14-1.64-.92-2.25l1.54-1.54c.29.23.62.53,1,.91,1.57,1.58,2.33,2.93,2.28,4.06,2.02.55,3.81,1.6,5.37,3.16,1.46,1.47,2.35,3.21,2.66,5.22.33,2.21-.21,4.01-1.6,5.4-1.26,1.25-2.92,1.59-4.97,1.01.42,1.06.45,2.27.08,3.63-.34,1.27-.91,2.31-1.73,3.13ZM150.86,342.02c1.24-1.24,1.87-2.35,1.89-3.33-.14.5-.68,1.22-1.64,2.17l-7.95,7.92c-1.21,1.21-2.13,1.82-2.75,1.83.8.41,1.74.08,2.81-.99l7.64-7.6ZM151.57,356.43c.84-.83,1.24-1.84,1.21-3.03-.03-1.18-.47-2.2-1.32-3.05-.59-.59-1.39-1.07-2.39-1.44l-3.74,3.72c-1.32,1.32-1.36,2.6-.12,3.85.88.88,1.93,1.32,3.15,1.32,1.22,0,2.29-.46,3.2-1.37ZM153.05,357.76c.77-.77,1.05-1.91.85-3.42-.15,1.18-.67,2.21-1.55,3.08-.85.84-1.92,1.33-3.22,1.44,1.66.22,2.97-.15,3.92-1.1ZM158.37,347.89c.7-.7,1.12-1.45,1.26-2.24.16-.91-.09-1.69-.75-2.35-.48-.48-1-.84-1.57-1.08-.75-.27-1.35-.18-1.79.26l-4.09,4.07c.24.27.47.52.69.74,2.27,2.28,4.34,2.48,6.23.6ZM159.78,349.34c.73-.72.98-1.76.76-3.1-.05,1.04-.5,1.99-1.34,2.83-.67.66-1.53,1.11-2.59,1.35,1.33.06,2.39-.3,3.18-1.08Z"/><path class="cls-1" d="M182,384.32l-1.18,1.87c-.17-.06-.38-.16-.63-.32-1.72-1.08-2.66-2.38-2.83-3.87-1.59.31-3.29-.1-5.09-1.24-.31-.19-.59-.4-.86-.62l1.13-1.79c.56.35,1.12.59,1.67.71.77.18,1.29.06,1.57-.38.16-.25.27-.79.33-1.61.02-.55.04-1.1.07-1.67l-8.41-5.31c-1.18.83-1.87,1.4-2.05,1.69-.71,1.13-.23,2.21,1.46,3.22l-1.14,1.81c-.29-.1-.61-.27-.97-.5-1.25-.79-1.97-1.8-2.17-3.04-1.57.12-2.91-.17-4.01-.86-.42-.26-.75-.59-1.01-.98l1.11-1.77c1.35.78,2.64.75,3.84-.08,2.41-1.65,4.83-3.3,7.26-4.95,4.04-2.79,6.2-4.41,6.47-4.84.35-.56.17-1.07-.55-1.53-.22-.14-.44-.28-.68-.43l1.37-2.1c.42.14.88.37,1.39.69,1.66,1.05,2.56,2.37,2.69,3.97.69-.29,1.49-.34,2.42-.17.84.15,1.61.44,2.29.87.38.24.74.52,1.07.83l-1.24,1.96c-.46-.27-.93-.39-1.39-.38-.56,0-.97.21-1.23.63-.17.27-.28.64-.31,1.1l-1.36,15.79c-.15,1.8.18,2.9,1,3.29ZM176.37,371.51l.79-8.06-6.3,4.58,5.51,3.48ZM177.34,379.1c.47-.74.74-1.48.81-2.23l1.3-12.8c.02-.44-.16-.98-.54-1.63l-1.56,16.65Z"/><path class="cls-1" d="M212.29,389.42l-4.63,7.06-2.11-.75-.17-1.15c-1.78.09-3.51-.16-5.18-.76-1.89-.67-3.14-1.75-3.76-3.21-1.3.78-2.61.94-3.92.48-.53-.19-1.01-.48-1.45-.89l.77-2.14c.85.3,1.64.19,2.4-.33.66-.46,1.15-1.12,1.46-1.99l4.14-11.6c.54-1.5-.08-2.72-1.87-3.65l.75-2.11c.43.06.92.19,1.46.38,1.73.62,2.89,1.59,3.49,2.91,1.26-.66,2.75-.69,4.49-.07.36.13.71.29,1.05.48l-.77,2.14-.09-.03c-.75-.31-1.43-.29-2.05.06-.62.36-1.07.93-1.35,1.73l-4.57,12.8c.63.77,1.5,1.35,2.61,1.74,2.58.92,5.2.03,7.87-2.68l1.42,1.56ZM197.68,386.39l3.62-10.15c.19-.54.32-1.19.38-1.94.06-.84,0-1.47-.2-1.91.09.51-.09,1.4-.54,2.67l-3.77,10.57c-.57,1.61-1.14,2.56-1.69,2.83.96.05,1.69-.64,2.2-2.07Z"/><path class="cls-1" d="M237.48,378.96l-1.41,7.79-2.54.88c.18-2.05.24-3.31.19-3.77-.11-1.8-.7-2.8-1.77-3-.55-.1-1.1.02-1.65.37-.55.34-.88.78-.97,1.3l-2.31,12.76c-.14.76-.06,1.44.22,2.06.29.7.8,1.1,1.54,1.19l-.39,2.18c-.36.04-.77.02-1.23-.06-1.47-.27-2.51-1.01-3.12-2.23-1.16.9-2.72,1.17-4.68.82-.25-.05-.51-.1-.78-.18l.39-2.14c.63,0,1.18-.18,1.65-.56.47-.38.76-.88.87-1.48l2.44-13.49c.23-1.28-.21-2.02-1.32-2.22-1.2-.22-2.28.45-3.23,2.01-.68,1.11-1.18,2.38-1.5,3.81l-1.88-1.51,1.44-7.95,1.35-.25c.35.58.97.96,1.85,1.12.53.09,1.29.03,2.28-.19,1-.22,1.78-.28,2.35-.18,1.16.21,1.94.82,2.34,1.83.3-.32.87-.55,1.72-.68.74-.14,1.38-.16,1.9-.06.67.12,1.38.48,2.11,1.07.73.59,1.29.92,1.69.99.5.09.84-.16,1.02-.76l1.43.55ZM223.84,393.96l1.92-10.6c.31-1.73.17-3-.42-3.82.19.49.17,1.4-.07,2.72l-2,11.04c-.31,1.68-.71,2.71-1.21,3.07.91-.12,1.5-.92,1.77-2.42Z"/><path class="cls-1" d="M254.34,381.3c-.68.01-1.25.23-1.69.67-.44.43-.67.99-.68,1.68l-.19,14.13c-.02,1.5.68,2.37,2.11,2.6l-.03,2.05c-.3.06-.66.09-1.09.08-1.84-.03-3.24-.65-4.21-1.89-.37.57-.94,1.02-1.72,1.34-.78.32-1.53.47-2.25.44l-.64-.04.03-2.12c.68-.03,1.23-.31,1.63-.84.4-.53.61-1.15.62-1.85l.18-13.18c.03-2.25-.81-3.31-2.52-3.21l.03-2.15c.5-.21,1.09-.31,1.77-.3,1.35.02,2.51.55,3.49,1.59.83-1.02,2.07-1.51,3.72-1.49.47,0,.96.08,1.48.21l-.03,2.28ZM248.34,396.26l.15-10.77c0-.6-.08-1.25-.26-1.96-.18-.82-.44-1.4-.78-1.74.27.45.4,1.35.38,2.7l-.15,11.22c-.02,1.71-.25,2.79-.69,3.23.45-.14.8-.52,1.04-1.14.2-.49.3-1,.31-1.54Z"/><path class="cls-1" d="M293.58,394.43l.42,2.27c-.34.13-.78.25-1.3.36-1.95.38-3.5.17-4.64-.66-.34.59-1,1.13-1.97,1.61-.8.39-1.62.67-2.48.83-.42.08-.86.15-1.3.19l-.45-2.27c.93-.27,1.63-.8,2.11-1.59.48-.79.62-1.66.43-2.62l-1.66-8.45-4.92,10.22-8.83-8.65,1.93,9.78c.32,1.64,1.47,2.55,3.45,2.75l.45,2.3c-.33.11-.73.21-1.21.3-1.7.33-2.93.13-3.68-.61-.67,1.03-1.74,1.68-3.21,1.97-.29.06-.6.1-.92.12l-.5-2.52c.83-.23,1.47-.67,1.93-1.34.46-.66.6-1.43.43-2.28l-2.27-11.51c-.45-2.28-1.6-3.22-3.47-2.84l-.49-2.49,7.72-1.52,8.25,8.36,5.22-11.01,6.37-1.25.58,2.79c-.7.11-1.21.44-1.54.99-.33.54-.42,1.16-.29,1.85l2.39,12.11c.35,1.78,1.5,2.71,3.46,2.78ZM277.54,390.99l-7.79-7.71c-.43-.42-.91-.6-1.44-.54l8.84,8.89.4-.63ZM286.63,392.04l-2.31-11.71-.47.94,2.06,10.48c.34,1.74.06,3-.86,3.76.61-.34,1.06-.83,1.34-1.49.29-.65.36-1.32.23-1.99Z"/><path class="cls-1" d="M317,374.33c1.3,2.95,1.63,5.88.97,8.79-.74,3.2-2.53,5.43-5.39,6.69-2.76,1.22-5.57,1.02-8.43-.59-2.62-1.48-4.56-3.66-5.82-6.51-1.29-2.93-1.59-5.86-.9-8.79.76-3.21,2.56-5.44,5.42-6.7,2.76-1.22,5.56-1.02,8.4.6,2.57,1.48,4.49,3.65,5.75,6.51ZM307.06,389.2c-3.12-2.25-5.34-4.88-6.69-7.92-1.17-2.66-1.6-5.5-1.27-8.52-.43,1.41-.58,2.98-.46,4.72.13,1.74.49,3.3,1.1,4.67,1.34,3.03,3.78,5.38,7.32,7.04ZM311.34,377.61c-.84-1.89-1.79-3.57-2.86-5.04-1.68-2.27-3.14-3.13-4.38-2.58-1.45.64-1.98,2.27-1.57,4.89.27,1.63.87,3.49,1.79,5.58.74,1.68,1.73,3.24,2.98,4.67,1.68,1.94,3.15,2.63,4.4,2.08,2.16-.95,2.04-4.16-.37-9.6ZM313.68,376.49c-1.32-2.99-3.46-5.35-6.42-7.09l.14.08c2.23,1.94,4.01,4.4,5.33,7.39,1.37,3.11,1.94,5.93,1.71,8.47.79-2.97.54-5.92-.75-8.85Z"/><path class="cls-1" d="M347.14,363.61c.64.88.81,1.88.52,2.99s-.89,1.99-1.79,2.64c-1.61,1.17-3.33,1.37-5.15.6-1.45-.91-2.88-1.81-4.3-2.71-1.54-.97-2.8-1.1-3.77-.4-.33.24-.58.53-.76.87-.21.44-.2.82.03,1.13l1.69,2.34c.45.62,1.04,1.04,1.77,1.25.73.21,1.41.1,2.03-.32l1.47,2.03c-.3.32-.68.65-1.15.99-1.42,1.03-2.69,1.26-3.81.7-.04,1.48-.71,2.69-2,3.63-.47.34-1.02.6-1.64.79l-1.22-1.69c.5-.47.78-1.04.82-1.72.04-.68-.14-1.29-.54-1.84l-7.72-10.66c-1.03-1.42-2-1.79-2.92-1.13-.17.12-.34.3-.5.52l-1.47-2.03c.42-.73,1.01-1.36,1.75-1.9,1.33-.97,2.74-1.17,4.23-.61.14-.9.55-1.85,1.22-2.86.64-.94,1.35-1.69,2.13-2.25,1.83-1.33,3.79-1.81,5.86-1.45,2.07.36,3.77,1.46,5.1,3.3.8,1.11,1.16,2.29,1.07,3.56s-.6,2.4-1.54,3.39c1.12-.17,2.27,0,3.47.53.89.49,1.76.96,2.62,1.41.86.44,1.51.51,1.95.2.57-.41.76-1.36.57-2.83.88.42,1.54.93,1.98,1.53ZM330.59,372.97l-6.42-8.87c-.35-.49-.81-.95-1.37-1.39-.66-.5-1.23-.8-1.72-.9.47.21,1.1.87,1.89,1.96l6.69,9.24c1,1.39,1.47,2.39,1.38,3,.26-.4.32-.93.16-1.58-.11-.55-.32-1.04-.62-1.46ZM331.98,357.99c-.56-.78-1.19-1.28-1.87-1.49-.77-.26-1.53-.12-2.27.42-1.87,1.35-2.23,2.83-1.08,4.42l3.01,4.16c.41-.16.77-.36,1.08-.58,1.21-.88,1.92-1.95,2.13-3.21.21-1.26-.12-2.5-1-3.71ZM333.74,356.6c-.68-.94-1.79-1.36-3.33-1.27,1.2.35,2.19,1.05,2.97,2.13.6.83.93,1.8.98,2.89.32-1.5.11-2.75-.62-3.75ZM343.87,368.39c-.9.04-2.25-.55-4.06-1.77-1.7-1.14-3.01-1.58-3.92-1.32.39-.01,1.14.37,2.25,1.14,1.43,1,2.43,1.62,2.98,1.88,1.15.54,2.07.56,2.75.07Z"/><path class="cls-1" d="M364.53,339.57l5.37,5.63-1.16,1.29-1.67-.35c-.43,1.95-1.32,3.66-2.67,5.15-1.3,1.44-2.87,2.27-4.69,2.46-.01,1.83-.52,3.3-1.52,4.42-.24.27-.52.5-.83.68l-1.76-1.59c.45-.49.49-1.13.13-1.91-.26-.61-.66-1.16-1.22-1.66l-8.69-7.84c-.79-.71-1.57-1.17-2.34-1.37-1.01-.27-1.79,0-2.33.82l-1.73-1.56.41-.5c1.7-1.98,3.14-2.76,4.31-2.33.25-1.9,1-3.55,2.25-4.93.46-.51,1.17-1.06,2.15-1.64.98-.59,1.62-1.05,1.92-1.38.53-.59.59-1.15.19-1.69l1.82-.73,3.67,3.27-.8,1.74c-.92-.54-1.93-.69-3.02-.44-1.09.25-2,.78-2.73,1.59-1.03,1.14-1.42,2.21-1.18,3.22.2.73.84,1.58,1.9,2.54.21.19.53.48.98.88.44.37.78.66,1.02.88.39-.17.73-.42,1.03-.76.97-1.08.7-2.36-.81-3.84l1.58-1.6c.14.1.32.24.52.43,1.57,1.42,2.13,2.56,1.67,3.41,1.23-.25,2.49.15,3.78,1.17l-1.72,1.9c-.76-.29-1.3-.43-1.62-.42-.48.03-.97.32-1.47.88-.33.37-.45.74-.38,1.13,1.73,1.56,2.91,2.52,3.53,2.88,1.71.99,3.08.91,4.13-.25,1.13-1.25,1.71-2.56,1.74-3.92.05-1.45-.52-2.76-1.73-3.94l1.98-1.71ZM347.86,344.82c-.44-.4-.99-.77-1.62-1.12-.75-.39-1.35-.57-1.82-.57.5.11,1.26.62,2.26,1.52l8.33,7.52c1.27,1.15,1.93,2.03,1.97,2.65.38-.84,0-1.76-1.12-2.78l-8-7.22Z"/><path class="cls-1" d="M376.83,326.37l-.12.2c-1.63-.98-3.42-1.23-5.37-.75-1.95.48-3.41,1.54-4.4,3.16l-.2-.12c.98-1.63,1.23-3.42.75-5.37-.48-1.95-1.54-3.42-3.16-4.39l.12-.2c1.63.98,3.42,1.23,5.36.75,1.95-.48,3.42-1.54,4.4-3.17l.2.12c-.98,1.63-1.23,3.42-.75,5.36.48,1.95,1.54,3.41,3.16,4.4Z"/><path class="cls-1" d="M396.83,285.68l2.17.79c-.06.36-.17.8-.35,1.3-.65,1.88-1.62,3.1-2.91,3.67.34.59.47,1.43.4,2.51-.07.88-.25,1.74-.53,2.56-.14.4-.3.81-.49,1.22l-2.18-.76c.24-.94.13-1.81-.31-2.62-.44-.81-1.12-1.38-2.04-1.7l-8.14-2.83,6.34,9.4-11.93,3.26,9.42,3.27c1.58.55,2.95.02,4.12-1.59l2.21.77c-.07.34-.19.74-.35,1.2-.57,1.64-1.37,2.59-2.39,2.87.55,1.1.57,2.35.08,3.76-.1.28-.22.57-.36.86l-2.42-.84c.22-.83.16-1.61-.18-2.34s-.93-1.24-1.75-1.53l-11.08-3.85c-2.19-.76-3.59-.24-4.2,1.56l-2.39-.83,2.59-7.44,11.38-2.9-6.87-10.06,2.13-6.13,2.71.91c-.25.66-.23,1.27.08,1.83.3.56.79.95,1.46,1.18l11.66,4.05c1.72.6,3.1.07,4.15-1.58ZM385.76,297.79l-10.59,2.84c-.58.16-.98.48-1.19.97l12.13-3.15-.35-.66ZM391.26,290.47l-11.27-3.92.58.88,10.09,3.51c1.68.58,2.62,1.46,2.82,2.64.02-.7-.19-1.33-.61-1.91-.42-.58-.96-.98-1.6-1.2Z"/><path class="cls-1" d="M391.2,253.11c3.46.33,6.16,1.32,8.1,2.94,2.28,1.92,3.26,4.53,2.94,7.82-.23,2.38-1.06,4.09-2.49,5.11.57.55.99,1.27,1.26,2.17s.36,1.76.28,2.59c-.03.3-.08.58-.15.86l-2.04-.2c-.08-.72-.38-1.33-.9-1.83s-1.15-.79-1.89-.86l-12.51-1.21c-1.02-.1-1.87-.03-2.56.2-.93.34-1.38.96-1.34,1.87l-2.2-.21c-.03-.35-.03-.76.02-1.25.19-1.94.88-3.14,2.09-3.6-1.02-1.41-1.42-3.29-1.19-5.66.32-3.34,1.7-5.75,4.14-7.24,2.17-1.34,4.98-1.84,8.44-1.5ZM389.99,258.95c-1.96-.19-3.74-.12-5.33.2-2.38.46-3.65,1.42-3.79,2.87-.18,1.86.87,2.9,3.15,3.12l11.94,1.15c.77.07,1.46-.02,2.09-.28.76-.34,1.18-.86,1.25-1.56.17-1.79-.96-3.19-3.4-4.18-1.55-.65-3.51-1.08-5.9-1.32ZM385.03,268.62c-1.77-.17-3.02.04-3.77.63.47-.21,1.38-.25,2.72-.12l11.17,1.08c1.7.17,2.76.48,3.16.95-.2-.86-1.05-1.36-2.56-1.5l-10.73-1.04ZM390.7,256.99c-4.06-.39-6.92.17-8.57,1.69,2.26-.94,5-1.26,8.21-.95,3.6.35,6.41,1.21,8.45,2.59-1.31-1.82-4-2.93-8.09-3.33Z"/><path class="cls-1" d="M103.34,256.93c2.39-.34,4.52.17,6.37,1.52s2.95,3.23,3.29,5.62c.14,1.02.05,1.99-.3,2.93l2.86-.41c.74-.1,1.25-.44,1.54-1,.29-.56.34-1.21.14-1.96l2.25-.32c.27.54.46,1.18.56,1.9.21,1.44-.14,2.63-1.04,3.58,1.16.89,1.88,2.26,2.14,4.1.05.38.08.77.07,1.16l-2.06.29c-.1-.68-.37-1.22-.83-1.63-.46-.41-1.01-.57-1.67-.47l-13.87,1.97c-.76.11-1.36.39-1.79.84-.49.52-.67,1.15-.54,1.89l-2.54.36c-.12-.37-.21-.82-.29-1.35-.27-1.88.08-3.33,1.03-4.36-1.5-1.56-2.37-3.25-2.63-5.07-.34-2.41.19-4.53,1.59-6.35,1.4-1.82,3.31-2.9,5.73-3.25ZM103.19,260.29c-1.7.24-3.21,1.14-4.52,2.68,1.41-1.08,3.07-1.76,5.01-2.04,1.97-.28,3.81.06,5.51,1.03-.78-.62-1.73-1.09-2.85-1.41-1.12-.32-2.16-.4-3.14-.27ZM103.47,262.38c-.47.07-.88.15-1.23.24-.75.19-1.48.6-2.19,1.22-.87.73-1.25,1.45-1.15,2.15.12.81.5,1.48,1.15,2.02.65.54,1.37.75,2.15.64l7.37-1.05c.2-.55.26-1.15.17-1.81-.21-1.46-.98-2.47-2.31-3.04-1.08-.47-2.4-.6-3.94-.38ZM114.65,270.64l-10.67,1.52c-1.76.25-2.92.76-3.51,1.54.41-.34,1.27-.6,2.61-.79l11.11-1.58c1.69-.24,2.79-.18,3.3.18-.39-.79-1.34-1.07-2.84-.86Z"/><path class="cls-1" d="M111.68,230.93c2.29.11,4.13,1.14,5.54,3.09,1.33,1.82,1.93,3.89,1.82,6.22-.05,1.05-.37,2.2-.97,3.47-.6,1.27-.89,1.86-.89,1.77-.02.34.29.49.91.43l-.12,2.43-8.47-.05-.05-2.28c1.34-.32,2.74-1.08,4.19-2.27,1.63-1.33,2.47-2.6,2.52-3.8.04-.94-.24-1.78-.84-2.51-.61-.73-1.38-1.12-2.32-1.17-1.58-.08-2.73.95-3.45,3.08-1.32,3.9-2,5.89-2.05,5.97-1.21,2.1-3.19,3.09-5.92,2.96-2.16-.1-3.87-1-5.14-2.69-1.19-1.58-1.73-3.48-1.62-5.7.1-2.05.77-4.13,2.03-6.23l-1.14-.41.34-1.81h7.64s.07,1.94.07,1.94c-4.1.73-6.22,2.48-6.35,5.25-.05.98.3,1.85,1.03,2.59.74.74,1.61,1.14,2.61,1.18.79.04,1.46-.58,2.01-1.86.45-1.35.9-2.7,1.35-4.05.59-1.71,1.26-2.88,2-3.53,1.63-1.44,3.39-2.12,5.27-2.03ZM112.05,234.58c-2.48-.12-4.14,2.03-5,6.44-.31,1.57-1.01,2.85-2.11,3.85-1.14,1.08-2.5,1.59-4.05,1.54.44.11.87.17,1.28.19,1.47.07,2.68-.41,3.63-1.43.72-.76,1.34-1.93,1.87-3.51.38-1.29.76-2.58,1.15-3.86.22-.67.82-1.3,1.77-1.87.96-.58,1.8-.85,2.53-.81.34.02.68.08,1.02.18-.71-.44-1.4-.68-2.08-.71Z"/><path class="cls-1" d="M102.2,198.22l2.49.61c-.16.73-.01,1.59.43,2.57.38.82.86,1.55,1.46,2.2l6.29,6.7,5.73,1.4c.58.14,1.14,0,1.67-.45.53-.44.86-1.01.98-1.71l2.07.5c.05.67-.02,1.38-.2,2.13-.39,1.58-1.22,2.53-2.51,2.85.91,1.24,1.16,2.68.76,4.34-.15.62-.41,1.23-.78,1.83l-2.06-.5.03-.13c.17-.68.14-1.3-.09-1.85s-.68-.91-1.34-1.07l-5.24-1.28-9.31,2.91c-1.22.38-1.89.6-2.01.63-.82.37-1.3.84-1.43,1.4-.03.12-.06.25-.09.37l-2.34-.57c0-.64.1-1.33.28-2.08.44-1.81,1.25-2.88,2.44-3.23-.88-.92-1.11-2.22-.7-3.9.11-.44.26-.88.46-1.34l2.42.62c-.25.29-.4.56-.46.81-.15.6,0,.96.44,1.06.32.08,1.49-.2,3.51-.82,1.22-.43,2.45-.84,3.68-1.25-.71-.86-1.44-1.73-2.17-2.61-1.21-1.35-2.12-2.1-2.72-2.25-.85-.21-1.38.42-1.58,1.89l-2.24-.55c.04-.62.15-1.29.32-1.99.42-1.73,1.12-2.69,2.09-2.87-.65-1.32-.78-2.65-.41-4l.13-.39ZM117.08,215.52l-5.56-1.36-9.58,2.88c-.41.12-.87.35-1.39.68-.58.39-.93.74-1.05,1.06.3-.43,2.21-1.15,5.73-2.17,2.14-.6,4.28-1.2,6.44-1.8,1.18.24,2.02.43,2.52.55,2.86.7,4.39,1.36,4.62,1.98-.14-.98-.7-1.59-1.71-1.84Z"/><path class="cls-1" d="M127.51,180.5c1.83,1.1,3.06,2.77,3.71,5.01.65,2.24.53,4.33-.35,6.28-1.3,2.89-3.4,4.69-6.31,5.42-2.69.71-5.52.4-8.51-.95-3.12-1.4-5.42-3.28-6.89-5.63-1.69-2.71-1.87-5.54-.53-8.5.74-1.64,1.97-3.09,3.68-4.36l-.72-.99.92-1.73,7.14,3.21-.78,1.72c-3.85-.77-6.29-.02-7.31,2.26-.76,1.7-.32,3.43,1.32,5.2,1.22,1.35,2.81,2.46,4.76,3.34,2.03.91,3.96,1.38,5.81,1.38,2.43.02,4.05-.86,4.84-2.64.58-1.29.59-2.64.04-4.06-.51-1.31-1.37-2.38-2.56-3.23l1.74-1.75ZM126.94,194.73c-1.5.57-3.28.76-5.33.59-1.89-.17-3.63-.61-5.21-1.32-2.34-1.05-4.47-2.68-6.38-4.88.89,2.3,2.94,4.17,6.16,5.62,1.83.83,3.65,1.28,5.44,1.36,2.07.09,3.85-.37,5.33-1.37Z"/><path class="cls-1" d="M141.01,158.47l5.64,6.29-1.27,1.85-1.16-.13c-.37,1.74-1.06,3.35-2.06,4.81-1.14,1.66-2.49,2.59-4.07,2.81.42,1.46.24,2.76-.54,3.91-.32.46-.73.85-1.24,1.18l-1.88-1.29c.51-.74.61-1.54.3-2.4-.28-.76-.79-1.4-1.55-1.92l-10.15-6.97c-1.32-.9-2.65-.62-4,.87l-1.85-1.27c.17-.4.42-.84.74-1.32,1.04-1.51,2.28-2.39,3.71-2.62-.32-1.39.04-2.84,1.08-4.35.22-.32.46-.62.73-.9l1.88,1.29-.05.08c-.5.65-.65,1.31-.46,2,.19.69.63,1.27,1.33,1.75l11.2,7.7c.9-.42,1.69-1.11,2.36-2.08,1.55-2.25,1.36-5.02-.57-8.29l1.87-.97ZM134.33,171.82l-8.88-6.1c-.47-.33-1.07-.61-1.78-.86-.79-.28-1.43-.38-1.89-.3.52.04,1.33.45,2.44,1.21l9.25,6.36c1.41.97,2.18,1.76,2.31,2.36.29-.91-.19-1.8-1.44-2.66Z"/><path class="cls-1" d="M158.65,140.87l5.09,5.89-1.22,1.23-1.66-.43c-.53,1.92-1.5,3.59-2.92,5.02-1.38,1.38-2.98,2.12-4.8,2.23-.1,1.83-.68,3.27-1.74,4.33-.26.26-.54.47-.86.64l-1.68-1.67c.47-.47.54-1.1.23-1.9-.23-.62-.6-1.19-1.13-1.72l-8.29-8.26c-.75-.75-1.51-1.25-2.27-1.48-1-.32-1.79-.09-2.37.71l-1.65-1.65.43-.48c1.8-1.89,3.27-2.6,4.42-2.12.34-1.89,1.17-3.49,2.49-4.81.48-.48,1.23-1,2.23-1.53,1-.54,1.67-.97,1.98-1.29.56-.56.65-1.12.27-1.68l1.85-.64,3.51,3.45-.89,1.7c-.89-.59-1.89-.78-2.99-.58-1.1.2-2.04.68-2.81,1.46-1.09,1.09-1.53,2.14-1.33,3.15.17.74.76,1.62,1.77,2.63.2.2.51.5.93.93.42.39.75.7.98.93.39-.15.75-.39,1.06-.7,1.03-1.03.82-2.32-.62-3.88l1.65-1.52c.14.11.3.26.5.45,1.5,1.49,2,2.66,1.5,3.49,1.24-.18,2.48.27,3.72,1.35l-1.81,1.82c-.75-.32-1.28-.49-1.59-.5-.48,0-.98.27-1.51.8-.35.35-.49.72-.43,1.11,1.65,1.65,2.78,2.67,3.38,3.05,1.65,1.08,3.03,1.06,4.13-.04,1.19-1.2,1.83-2.47,1.93-3.83.12-1.45-.39-2.79-1.53-4.02l2.06-1.61ZM141.74,145.3c-.42-.42-.95-.82-1.57-1.2-.73-.42-1.32-.64-1.79-.65.5.13,1.23.68,2.18,1.63l7.95,7.92c1.21,1.21,1.83,2.12,1.84,2.74.42-.82.1-1.76-.98-2.83l-7.63-7.61Z"/><path class="cls-1" d="M179.53,126.37c1.28,1.9,1.56,3.99.84,6.28-.66,2.15-1.96,3.88-3.89,5.18-.87.59-1.99,1.02-3.36,1.3-1.37.28-2.02.4-1.95.35-.28.19-.22.52.2.99l-2.02,1.37-5.03-6.82,1.8-1.41c1.06.88,2.5,1.55,4.33,1.99,2.04.5,3.56.42,4.55-.25.78-.53,1.28-1.25,1.51-2.18.23-.93.07-1.78-.45-2.56-.89-1.31-2.4-1.62-4.53-.92-3.91,1.28-5.92,1.92-6.01,1.93-2.41.29-4.38-.7-5.92-2.97-1.21-1.79-1.52-3.7-.93-5.72.55-1.9,1.75-3.46,3.59-4.71,1.7-1.15,3.77-1.85,6.2-2.1l-.35-1.15,1.66-.81,4.57,6.13-1.5,1.21c-3.04-2.85-5.71-3.5-8.01-1.94-.82.55-1.3,1.34-1.45,2.38-.15,1.03.05,1.96.61,2.8.44.66,1.34.82,2.7.5,1.35-.45,2.7-.89,4.05-1.34,1.72-.54,3.06-.72,4.03-.51,2.13.44,3.72,1.44,4.78,3ZM176.83,128.85c-1.39-2.05-4.1-2.1-8.15-.15-1.44.69-2.89.9-4.34.61-1.55-.27-2.77-1.04-3.66-2.32.18.42.39.8.61,1.13.83,1.22,1.93,1.91,3.32,2.05,1.04.12,2.35-.08,3.93-.6,1.26-.46,2.52-.93,3.78-1.39.67-.22,1.53-.12,2.56.3s1.76.94,2.16,1.54c.19.28.35.59.47.92-.07-.83-.3-1.53-.68-2.09Z"/><path class="cls-1" d="M203.74,115.22c.61,2.04.39,4.11-.63,6.2-1.03,2.09-2.53,3.56-4.49,4.41-2.9,1.26-5.68,1.18-8.32-.24-2.47-1.28-4.35-3.43-5.65-6.43-1.36-3.14-1.79-6.07-1.3-8.8.58-3.14,2.35-5.35,5.34-6.64,1.65-.71,3.53-.96,5.66-.74l.14-1.21,1.85-.66,3.11,7.18-1.74.75c-2.33-3.16-4.64-4.25-6.93-3.25-1.71.74-2.55,2.32-2.53,4.73,0,1.82.42,3.71,1.27,5.67.88,2.04,2,3.69,3.36,4.94,1.79,1.65,3.57,2.09,5.36,1.32,1.29-.56,2.22-1.56,2.76-2.98.5-1.31.6-2.68.28-4.11l2.46-.12ZM193.74,125.36c-1.49-.59-2.94-1.64-4.34-3.15-1.28-1.4-2.27-2.9-2.96-4.49-1.02-2.35-1.5-4.99-1.43-7.91-.89,2.3-.64,5.06.77,8.3.8,1.84,1.83,3.4,3.1,4.67,1.47,1.46,3.09,2.32,4.86,2.58Z"/><path class="cls-1" d="M235.59,112.85l.46,2.16c-.16.08-.38.15-.68.21-1.99.43-3.56.16-4.73-.79-.92,1.33-2.42,2.22-4.51,2.67-.36.08-.71.13-1.05.16l-.44-2.07c.65-.14,1.21-.36,1.7-.66.68-.41.96-.86.86-1.37-.06-.29-.36-.75-.89-1.38-.37-.4-.74-.81-1.12-1.24l-9.72,2.08c-.26,1.43-.36,2.31-.29,2.64.28,1.31,1.38,1.74,3.29,1.28l.45,2.09c-.28.13-.63.23-1.05.32-1.44.31-2.67.09-3.68-.66-1.04,1.18-2.19,1.91-3.47,2.18-.48.1-.95.11-1.41.01l-.44-2.04c1.51-.39,2.41-1.3,2.69-2.75.57-2.86,1.15-5.73,1.73-8.62.94-4.82,1.35-7.48,1.24-7.99-.14-.65-.63-.88-1.46-.71-.25.05-.51.11-.78.17l-.49-2.46c.4-.19.89-.35,1.47-.48,1.92-.41,3.49-.09,4.7.96.29-.68.83-1.29,1.61-1.81.71-.48,1.46-.81,2.25-.98.44-.09.89-.15,1.34-.16l.49,2.27c-.52.13-.94.37-1.26.7-.4.39-.54.83-.44,1.31.07.31.25.65.54,1.01l10.06,12.24c1.15,1.39,2.15,1.95,3.01,1.65ZM222.6,107.63l-5.07-6.32-1.3,7.68,6.38-1.37ZM228.6,112.38c-.18-.86-.51-1.58-.98-2.16l-8.02-10.06c-.29-.33-.8-.59-1.52-.78l10.52,13Z"/><path class="cls-1" d="M260.78,99.74c-.01,2.42-.82,4.44-2.43,6.08s-3.62,2.45-6.04,2.44c-1.03,0-1.98-.24-2.85-.72v2.89c-.02.75.24,1.31.75,1.67.51.37,1.15.51,1.92.43v2.28c-.59.19-1.24.28-1.97.28-1.45,0-2.58-.53-3.39-1.56-1.05,1.02-2.51,1.53-4.37,1.52-.38,0-.77-.04-1.15-.1v-2.08c.7,0,1.27-.19,1.75-.59.47-.39.71-.92.71-1.58l.07-14.01c0-.77-.18-1.4-.57-1.9-.45-.56-1.04-.83-1.79-.81v-2.57c.4-.06.86-.09,1.39-.09,1.9,0,3.29.56,4.16,1.66,1.76-1.25,3.56-1.88,5.4-1.87,2.44.01,4.45.84,6.05,2.5,1.6,1.65,2.39,3.7,2.38,6.14ZM245.57,108.94l.05-10.78c0-1.78-.33-3.01-1.01-3.69.28.45.41,1.35.4,2.7l-.05,11.22c0,1.71-.23,2.79-.66,3.24.84-.27,1.26-1.17,1.26-2.69ZM255.36,99.07c0-.47-.02-.89-.06-1.25-.08-.77-.38-1.55-.89-2.35-.6-.96-1.25-1.45-1.96-1.45-.82,0-1.54.28-2.17.84-.63.57-.94,1.24-.94,2.03l-.04,7.44c.51.28,1.1.42,1.76.43,1.48,0,2.59-.61,3.34-1.84.62-1,.94-2.28.95-3.84ZM257.48,99.1c0-1.71-.66-3.34-2-4.87.87,1.55,1.3,3.3,1.29,5.25,0,1.99-.62,3.76-1.82,5.3.73-.68,1.33-1.55,1.81-2.61s.72-2.08.72-3.07Z"/><path class="cls-1" d="M285.79,111.52l-2.01,7.52-1.7-.32-.58-1.61c-1.88.64-3.81.78-5.79.4-1.91-.36-3.43-1.27-4.54-2.72-1.57.94-3.09,1.27-4.56.99-.36-.07-.69-.18-1.01-.36l.44-2.33c.65.12,1.22-.17,1.7-.88.38-.53.65-1.17.79-1.9l2.18-11.5c.2-1.05.18-1.95-.05-2.71-.29-1.01-.93-1.53-1.92-1.57l.43-2.29.64.09c2.58.42,3.99,1.25,4.23,2.47,1.76-.78,3.55-.99,5.38-.64.67.13,1.51.46,2.52.98,1.01.53,1.73.84,2.18.92.78.15,1.29-.09,1.54-.72l1.57,1.17-.89,4.84-1.9.22c-.02-1.07-.42-2-1.2-2.81-.78-.8-1.71-1.3-2.78-1.51-1.51-.29-2.63-.06-3.36.67-.52.55-.91,1.53-1.18,2.94-.05.27-.13.7-.25,1.29-.09.57-.16,1.01-.22,1.33.35.24.74.4,1.18.49,1.43.27,2.38-.63,2.86-2.69l2.19.51c-.01.17-.04.4-.09.67-.4,2.08-1.08,3.15-2.04,3.2.85.92,1.17,2.2.97,3.84l-2.52-.48c-.15-.8-.31-1.33-.48-1.6-.27-.39-.78-.66-1.51-.8-.48-.09-.87,0-1.16.27-.43,2.29-.64,3.8-.63,4.51.04,1.97.83,3.1,2.36,3.39,1.66.31,3.08.13,4.25-.56,1.27-.71,2.09-1.89,2.46-3.52l2.49.8ZM272.64,100.01c.11-.59.15-1.25.11-1.97-.06-.84-.21-1.46-.46-1.85.17.49.13,1.4-.12,2.72l-2.09,11.03c-.32,1.68-.73,2.7-1.23,3.06.91-.11,1.51-.91,1.79-2.4l2.01-10.59Z"/><path class="cls-1" d="M321.34,131.06c-.58,1.07-1.33,1.76-2.27,2.07-.93.31-1.93.18-2.99-.39-.58-.32-1.35-.93-2.29-1.84-.94-.91-1.73-1.53-2.35-1.87-.66-.36-1.64-.65-2.94-.88-1.3-.23-2.02-.38-2.15-.45-.4-.21-.38-.72.04-1.5.85-1.58,2-2.91,3.44-4,1.57-1.19,3.17-1.82,4.8-1.88,1.87-.08,3.24-.24,4.12-.47,1.58-.41,2.66-1.15,3.24-2.22,1.01-1.88.75-3.23-.78-4.06-.88-.47-1.86-.34-2.94.41.47,1.03.52,1.88.16,2.55-.34.64-.88,1.03-1.6,1.17-.72.14-1.4.04-2.04-.3-1.88-1.02-2.25-2.58-1.12-4.68.74-1.37,2.12-2.1,4.13-2.18,1.71-.07,3.32.29,4.8,1.1,1.81.97,3.07,2.23,3.8,3.76.81,1.7.74,3.42-.2,5.17-.81,1.51-2.07,2.57-3.76,3.18-1.07.42-2.73.5-4.98.25-2.25-.25-4.11-.13-5.58.36.82.27,1.58.6,2.28.98.71.39,1.48,1,2.29,1.84.81.84,1.44,1.38,1.89,1.62,1.03.56,1.96.34,2.79-.64.68.95.75,1.92.21,2.92ZM324.15,118.84c.42-.77.54-1.59.39-2.47-.16-.88-.55-1.66-1.17-2.36.77,1.51.78,2.94.05,4.29-.72,1.29-1.87,2.16-3.45,2.62-.82.21-2.2.37-4.15.46,1.92.14,3.41.12,4.48-.06,1.86-.33,3.14-1.16,3.85-2.48Z"/><path class="cls-1" d="M345.75,140.5c-1.75,2.24-3.98,3.67-6.68,4.3-2.88.65-5.41.12-7.59-1.6-2.19-1.72-3.3-4.05-3.36-7-.03-2.77.83-5.27,2.59-7.51,1.76-2.24,3.97-3.66,6.66-4.28,2.89-.67,5.43-.14,7.61,1.57,2.19,1.72,3.3,4.06,3.34,7.02.04,2.75-.81,5.25-2.57,7.48ZM329.72,138.48c.07-1.47.42-3.02,1.05-4.64s1.41-3.02,2.34-4.2c1.64-2.08,3.73-3.56,6.27-4.41-1.3.17-2.62.67-3.96,1.48-1.33.82-2.42,1.75-3.25,2.81-1.83,2.34-2.66,5.32-2.46,8.95ZM343.97,131.69c.41-.52.55-1.17.42-1.94-.13-.77-.46-1.36-.98-1.77-.57-.45-1.23-.64-1.97-.58-.74.06-1.33.37-1.76.92l-7.02,8.95c-.45.57-.62,1.23-.5,1.96.12.73.46,1.32,1.04,1.77.57.45,1.23.64,1.97.58.74-.06,1.33-.38,1.78-.95l7.02-8.95ZM342.62,138.45c.91-1.16,1.67-2.54,2.29-4.14.62-1.6.94-3.11.98-4.55.13.59-.33,1.9-1.4,3.92-.91,1.68-1.69,2.94-2.35,3.78-2.02,2.57-4.17,4.41-6.44,5.5,2.86-.77,5.17-2.28,6.92-4.51Z"/><path class="cls-1" d="M356.33,162.18c-.91.81-1.86,1.21-2.84,1.18-.98-.03-1.88-.49-2.67-1.38-.44-.5-.95-1.33-1.53-2.51s-1.1-2.03-1.57-2.56c-.5-.56-1.32-1.17-2.47-1.83s-1.77-1.04-1.87-1.15c-.3-.34-.12-.8.55-1.4,1.34-1.19,2.87-2.06,4.59-2.6,1.88-.59,3.6-.63,5.16-.13,1.78.56,3.13.88,4.03.96,1.63.15,2.89-.17,3.8-.98,1.59-1.42,1.81-2.78.65-4.08-.67-.74-1.63-.95-2.9-.61.09,1.12-.15,1.94-.72,2.45-.54.48-1.17.67-1.9.56-.73-.11-1.33-.44-1.82-.98-1.42-1.59-1.24-3.19.54-4.78,1.16-1.04,2.71-1.25,4.62-.65,1.64.52,3.02,1.4,4.14,2.67,1.37,1.53,2.13,3.14,2.29,4.83.18,1.87-.47,3.47-1.95,4.79-1.28,1.14-2.81,1.71-4.62,1.71-1.15.03-2.74-.46-4.77-1.46-2.03-1-3.82-1.52-5.37-1.56.68.54,1.29,1.1,1.81,1.69.54.61,1.05,1.44,1.53,2.51.48,1.06.89,1.79,1.23,2.17.78.88,1.73.99,2.84.34.32,1.12.05,2.06-.79,2.82ZM363.13,151.64c.65-.58,1.05-1.32,1.2-2.19.15-.88.05-1.75-.29-2.62.21,1.68-.26,3.03-1.41,4.05-1.11.97-2.49,1.39-4.14,1.29-.84-.08-2.2-.4-4.06-.98,1.76.78,3.17,1.27,4.23,1.47,1.86.32,3.35-.02,4.46-1.02Z"/><path class="cls-1" d="M371.43,179.02c-1.79,1.12-3.64,1.48-5.54,1.06-1.9-.41-3.41-1.52-4.53-3.31-1.61-2.57-1.89-5.11-.83-7.61.91-2.18,2.71-4.12,5.41-5.81,2.46-1.54,4.98-2.21,7.56-2.01,2.85.21,5.02,1.5,6.51,3.87.75,1.2,1.16,2.31,1.22,3.34.07,1.03-.24,2.12-.9,3.27-.25.41-.55.72-.89.93-.74.47-1.51.62-2.3.47-.79-.15-1.41-.6-1.88-1.34-.38-.6-.49-1.24-.34-1.93.15-.69.52-1.22,1.12-1.59.54-.34,1.2-.45,1.96-.32.16-.63.1-1.17-.18-1.62-.54-.87-1.59-1.21-3.14-1.02-1.27.14-2.38.51-3.32,1.1-.2.13-.39.26-.58.4,1.36,1.09,2.4,2.2,3.12,3.35.99,1.58,1.22,3.21.69,4.9-.5,1.58-1.55,2.86-3.14,3.86ZM361.21,172.86c.26-1.51.96-3.02,2.09-4.52,1.05-1.42,2.26-2.56,3.62-3.41,1.97-1.24,4.3-1.97,6.98-2.21-2.28-.62-4.78-.07-7.5,1.63-1.58.99-2.83,2.18-3.77,3.58-1.04,1.59-1.52,3.24-1.42,4.93ZM368.28,174.6c.8-.5,1.47-1.12,2.01-1.86.71-1,.86-1.84.44-2.51-.43-.69-1.25-.92-2.44-.7-.92.15-1.78.47-2.57.97-.8.5-1.47,1.13-2.02,1.91-.72.98-.87,1.82-.44,2.5.42.67,1.23.9,2.44.7.92-.17,1.79-.51,2.58-1.01ZM369.32,176.56c.69-.43,1.27-1.04,1.73-1.83.47-.79.74-1.58.82-2.38-.53,1.44-1.47,2.59-2.81,3.43-1.36.85-2.91,1.09-4.66.72,1.99.85,3.63.87,4.92.06Z"/><path class="cls-1" d="M290.44,329.95c1.32-2.99,4.89-4.33,7.42-6.01,3.51-2.32,11.08-6.7,13.69-9.44,2.65-2.79.2-3.48.58-5.92.26-1.7,2.78-3.91,4.04-5.04,9.33-8.38,19.48-18.49,24.08-30.42,1.05-2.71,1.8-5.54,2.85-8.26,2.18-5.67,4.83-9.86,5.07-16.34.03-.75-.37-5.01-1.23-4.95-.63.05-2.51,6.43-3.92,6.96,0-.52.43-.91.49-1.41.3-2.62.46-7.24.41-9.9-.02-1.25-.49-5.04-1.23-5.89-.16-.18-3.53-2.78-3.74-2.88-.47-.23-.36.04-.45.33-.55,1.81-.19,4.46-.78,6.61-1.2,4.4-6.85,15.77-9.76,19.27-.92,1.1-2.92,3.55-2.65.37.06-.69.44-1.14.49-1.72.29-3.17.83-7.62.8-10.67-.04-3.96-1.6-5.65-4.87-2.54-1.17-1-2.4-1.64-3.99-1.63-2.91.02-4.35,4.1-6.63-.41-1.42-2.8-3.41-11.47-6.14-12.59-2.54-1.05-3.72.59-4.46,2.91-.33,1.04-.24,2.15-.73,3.16-.36.73-1.17,1.11-1.7,1.84-2.56,3.54-1.83,9.37-4.83,12.58-3.72,3.97-5.65,5.06-7.19,10.96-.59,2.27-1.11,8.24.42,10.17,1,1.27,2.49,1.19,3.67,1.76.81.39,1.84,1.86,2.75,2.43.97.61,2.16.81,3.09,1.48,2.27,1.62,4.68,6.1,4.8,8.9.26,6.27-1.17,10.39-6.56,13.88-1.75,1.13-3.1.33-4.87-.37-5.57-2.18-7.78-5.07-12.27-8.34-3.01-2.19-8.54-4.65-10.63-7.44-.56-.75-.74-1.69-1.25-2.36-2.86-3.76-10.68-1.56-14.89-2.91-1.05-.33-5.09-2.89-5.15-3.95-.02-.45.95-1.07.22-1.34-.25-.09-1.65.07-1.97.18-1.95.64-1.32,2.58-1.53,4.15-1.26-.66-1.5-2.76-1.01-3.94-1.39-.66-3.23.35-3.84,1.65-.72,1.53,1.56,4.84,1.5,6.5-.02.69-.29,2.54-.51,3.16-.39,1.12-2.74,2.66-2.33,4.65-1.62-2.38-2.71-1.41-4.96-1.15-1.8-3.51-2.27-5.93-6.83-3.95-.37-.08-1.57-5.66-3.13-6.35-1.21-.54-4.8,1.61-5.97,2.27-1.28-3.12-.2-7.23-5.04-6.23-1.45.3-2.46,1.3-3.85,1.62.04-1.26-.74-5.54-1.98-5.93-1.49-.46-5.18,1.29-6.5,2.18-.34-.05-.86-4.03-2.3-4.4-.62-.16-3.27.34-4.06.52-1.17.27-2.2.71-3.34,1.04-.02-1.73-.39-3.53-1.38-4.98,0-.2,2.71-2.06,2.89-2.07.79-.05.6,2.72,2.16,2.48.11-.46.07-1.01.23-1.44.29-.79,4.5-3.53,5.65-3.32l-.7-2.18,9.85-6.58c2.01-.64,4.47.94,6.89-.5.75-.45,2.1-1.88,2.5-2.66.62-1.22.53-2.79,1.14-3.56.78-.98,3.1-1.84,4.09-2.73.81.04.15.66.02.99-.36.93,1.16-.18,1.44-.28.86-.29,2.63-.49,3.16-.8,1.2-.7,1.2-3.04,1.83-4.13l10.09-6.46c.43-.03,1.6,2.82,2.02,3.42,3.03,4.35,11.56,7.74,16.45,9.73,5.67,2.31,12.11,5.07,18.39,4.24,1.25-.16,6.23-1.77,7.05-2.53,1.54-1.43,1.91-2.86,2.92-4.32.56-.81,8.61-3.5,10.18-4.01s2.76-.05,3.49-1.79c-.54-.57-10.83,3.23-12.43,3.48,1.51-4.19,1.86-8.66,2.8-12.95.78-3.56,2.65-8.7,4.36-11.94,1.51-2.86,9.02-8.81,11.8-11.7,5.01-5.2,9.58-10.85,14.23-16.36,10.67,10.38,18.52,23.54,22.98,37.73l-.56.53c-7.27,1.79-14.3,4.49-21.52,6.42-3.48.93-7.12,1.31-10.5,2.6l.99,1.37c10.94-2.08,21.29-6.4,31.99-9.4l2.31,16.13c.09.6.67.58,1.2.64.18-6.75-1.21-13.14-3.24-19.51-14.01-43.93-56.87-70.45-102.68-59.06-2.48.62-17.12,5-17.84,6.66-.19.43-.11.66.26.92,1.32.63,9.06-2.7,10.88-3.3,2.46-.8,5.12-1.74,7.58-2.43.73-.21,4.43-1.26,4.81-.89.24,11.3,2.02,22.46,2.57,33.72-2.8,2.57-6.08,4.69-8.07,8.11l-6.19-10.68-.73.61c-.19.42.03.81.2,1.18.78,1.7,2.36,3.78,3.31,5.53.43.8,2.42,4.24,2.47,4.77.06.65-1.85,4.16-2.17,5.53-.5,2.18-.87,5.38-.78,7.61.04,1.02.8,3.03.25,3.8l-9.08,5.35c.37-2.19.31-5.08-.15-7.26-.21-.99-.44-1.88-1.65-1.91-2.6,3.53-2.65,8.08-3.05,12.28l-4.17,2.79c1.18-6.79,2.24-13.7.23-20.41-1.64-5.46-3.1-6.96-7.95-3.06-3.63,2.91-8.52,7.75-11.69,11.21-1.49,1.62-6.62,7.53-7.29,9.22-.7,1.76.13,2.79-.19,3.87-.32,1.08-1.83,1.24-1.84,3.23,0,.93.61,1.28.82,1.98.6,2,.46,3.27,2.48,4.74,2.97,2.17,5.11-.38,8.38-.16-.53.56-1.21,1.04-1.85,1.47-2.54,1.71-6.52,4.4-9.14,5.74-.32.16-.9.6-1.1.11.04-1.15-.55-2.13-.7-3.23-.31-2.35.44-5.23-1.79-6.88-1.4.96.62,3.51-.98,4.41-.61.34-2.64.77-3.32.62-1.11-.25-1.36-1.97-2.81-1.79-.58,1.09-.81,2.56-2.03,3.16-1.63-.84-.15-1.76.37-2.72.48-.9-.37-.87-1.07-.49-.59.32-4.35,3.07-4.52,3.42-.52,1.11-.39,3.35-.79,4.67-.24.78-1.09,1.78-1.22,2.74l-2.13.68c-1.22-2.1,1.18-4.85,2.44-6.56,2.2-2.96,4.92-5.58,7.02-8.63.76-1.11,3.38-4.65.69-4.85-.86-.06-1.69.45-2.78.39-2.85-.16-5.7-1.69-8.64-1.89-1.28-.09-2.08.07-1.61,1.64.18.59,1,.73,1.25,1.07.26.36.26,1.42.87,1.82-1.12.6-2.24,1.25-3.42,1.71-.85.34-4.19,1.67-4.67.7-.09-.17.14-3.32.2-3.89.31-2.92,1.39-6.53,2.65-9.19,1.82-3.85,8.21-4.13,12-5.04,1.96-.47,3.78-1.41,5.9-1.38-.58-2.24-1.09-3.91-3.28-4.97-3.27-1.58-6.77-.11-10.18-.74-.31-.3-1.88-7.61-1.89-8.47-.02-3.86,4.99-8.72,7.17-11.84,1.21-1.73,2.8-4.16,3.8-6,1.08-1.98,1.68-4.34,2.78-6.11.32-.51,4.07-5.2,4.36-5.4,1.55-1.05,5.36-1.37,7.38-2.24,1.55-.67,3.43-2.37,4.75-2.78,1-.32,2.56-.21,3.65-.45,2.45-.53,5.02-1.69,7.53-1.54,4.21.26,7.92.76,12.23.08.85-.14,1.7-.44,2.49-.77-.27-1.53-1.04-3.91-2.28-4.91-1.31-1.06-6.45-1.71-8.33-1.88-2.42-.22-5.02.37-7.35-.45,3.11-4.11,6.3-8.26,10.19-11.66,9.37-8.18,17.07-11.63,29.9-10.65,8.67.67,17.48,1.57,26.21,1.58,2.57,0,5.55-.76,7.98-.62,8.51.48,22.19,3.89,30.23,6.9,10.92,4.08,22.49,15.06,29.74,24.12,3.86,4.83,5.21,8.13,7.98,13.35,3.92,7.41,14.05,15.61,14.27,24.43.21,8.4-2.09,16.63-1.6,25.05.15,2.58.88,5.55.8,8.08-.27,8.08-1.89,19.67-4.57,27.24-2.21,6.24-5.11,15.07-9.15,20.1-4.38,5.45-10.25,9.84-15.28,14.62-2.05,1.95-3.52,4.25-5.46,6.29-3.53,3.69-10.89,11.19-14.83,13.95-2.93,2.06-12.47,4.01-16.1,3.91-.92-.03-1.81-.2-2.71-.34ZM220.44,162.5c7.57-5.47,22.63-7.73,31.8-7.57,18.17.32,31.42,2.12,47.76,10.39,8.49,4.3,15.21,10.68,22.16,17.02,4.11,3.74,13.66,11.69,15.85,16.26,4.48,9.33,9.28,27.1,10.3,37.4.17,1.71-.29,5.6.03,6.77.81,2.95,1.76,2.3,1.37,6.49-1.05,11.17-5.93,26.42-10.62,36.66-.47,1.02-2.6,3.89-2.17,4.76.91.71,2.88.74,3.79.01.76-.61,3.05-4.27,3.6-5.31,6.33-11.73,8.92-24.19,9.63-37.35.59-10.76,1.34-22.18-1.75-32.66-1.98-6.7-5.29-15.5-8.08-21.94-2.8-6.47-11.93-16.67-17.25-21.55-3.35-3.08-6.76-5.05-10.16-7.78-1.29-1.04-2.32-2.49-3.76-3.57-19.05-14.28-40.56-16.12-63.47-12.89-3.08.43-5.27,1.7-7.98,2.21-1.93.36-3.93.3-5.98.79-5.58,1.33-16.11,6.16-20.18,10.16-.65.64-1.43,1.53-.58,2.31l4.1.89c.7-.1,1.08-1.13,1.59-1.5ZM221.22,171.72c-.2,0-.62.36-.25.64,1.45,2.89,2.55,6.11,4.08,8.95.58,1.07,1.5,3.69,2.85,2.07-1.71-3.23-3.39-7.21-5.43-10.25-.23-.34-.87-1.43-1.26-1.42ZM236.4,180.58c-2.37,1.35-8.31,2.94-9.57,5.49-.98,1.98.36,3.88.11,5.31-.1.59-.92,1.25-1.17,1.9-.7,1.82,1.47,6.08,3.65,4,2.05-1.96,2.87-5.26,5.51-6.89.31-.71-1.21-2.71-1.28-3.45-.19-2.09,4.58-3.69,4.73-4.6.05-.71-1.4-1.81-1.98-1.75ZM173.79,208.88c.5.84,2.15,2.47,3.14,2.74,1.24.33,4.63.53,6.12.67,5.33.48,13.72,1.25,18.87-.13,3.53-.94,14.72-9.28,16.4-12.45,1.1-2.08.99-7.86.35-10.19-.67-2.42-2.85-5.5-4.92-6.93-5.3-3.67-19.45-3.63-25.08-.33-3.26,1.91-7.83,10.88-10.05,14.41-1.79,2.86-6.99,8.61-4.83,12.23ZM195.9,220.41c.48-.44,1.19-1.47.53-1.99l-8.16,1.96v.96s1.39.38,1.39.38l.34.45c-.03,1.23-1.69,4.93-.42,5.69.13.08.66.24.67-.06.94-2.78,2.59-4.98,4.71-6.95.27-.26.74-.28.94-.46ZM251.42,254.95c.12-.04.69-.86.75-1.06.78-2.44-3.11-5.55-4.85-6.96-2.88-2.33-6.7-4.35-9.44-6.67-1.34-1.13-2.33-2.66-3.85-3.62-.19.86.34,1.67.71,2.4,1.92,3.8,9.76,11.88,13.26,14.4.66.47,2.71,1.77,3.41,1.5ZM281.33,246.73c-2.27.11-5.19,2.97-7.26,3.52-1.36.36-4.95-.4-5.42.6-.68,1.43.75,1.76,1.93,2.01,3.33.69,8.76.36,11.3-2.18,1.43-1.42,2.33-4.08-.54-3.94ZM274.03,260.75c-.06-.09-.63-.47-.66-.45-.79,1.47-.58,3.21-1.08,4.77-.71,2.23-3.88,5.65-3.36,7.72.44,1.74,1.94.81,3.07.84,2.9.07,4.21,2.94,6.84,3.73.92-3.12-1.18-4.29-2.51-6.47-.45-.75-1.67-3.24-1.87-4.02-.41-1.61.22-5.1-.43-6.12ZM202.78,263.84l.65-4.22c.18-1.14,6.49-1.09,7.43-2.97.2-.4.16-.95.4-1.37.55-.99,2.16-1.91,2.27-3.31.14-1.76-2.32.35-3.08.6-1.8.59-7.17.44-8.27,2.13-.52.79-1.26,7.91-.86,8.7.11.22.61.47.79.71l.68-.27ZM221.26,265.19c-.78-1.72-1.34-4.9-2.58-6.19-.23-.24-.25-.56-.73-.52-.39.33-.15,3.18-.36,3.8-.24.69-1.06.8-1.33,1.74-.36,1.25.18,2.39.02,3.27-.12.64-.94,1.35-1.14,2.26-.31,1.44.25,2.78,1.48,3.6.35-.02,1.81-2.71,2.31-3.25.88-.94,2.3-1.29,2.57-2.72.57.03,1.34.06,1.81.38.2.13,1.66,3.52,1.7,3.9.24,2.28-1.77,5.6.64,7.13,1.64-3.12,2.78-4.92,2.01-8.6-.25-1.21-1.57-3.62-1.55-4.49.02-.73.79-1.75.58-2.64l-.96-.46-1.29,2.72-3.18.08ZM233.62,265.51c-1.12-.86-3.25.51-3.48,1.74-.42,2.3,1.98,7.92,2.27,10.47.02.53-1.84,2.3-.94,2.58.82.26,3.36-2.01,3.55-2.85.07-.32-.45-3.62-.57-4.25-.44-2.46-1.94-5.28-.83-7.69ZM210.95,267c.35-1.06.46-3.01.65-4.22.11-.69-1.87-1.28-2.35-.31-.13,1.84-.04,3.75-.9,5.45l1.06,1.15c.2.03,1.44-1.76,1.53-2.05Z"/><path class="cls-1" d="M162.86,283.11c1.42,1.75,2.91,1.19,4.6.27.92,3.87,2.94,5.06,6.36,2.6.26.04,1.31,4.12,2.56,4.45,1.12.29,3.44-1.05,4.72-.9l4.01,3.56,3.84-1.77c.35.06,2.2,4.33,3.18,4.92.89.53,3.77-.2,4.69-.76-.17,2.26,2.61,3.91,4.61,3.89,2.16-.02,3.46-1.71,5.2-2.64-1.05,3.41,2.54,7.19,5.96,5.74.45-.19,1.11-.91,1.48-.79,1.6,1.63,1.68,3.88,3.89,4.89,2.4,1.1,3.18-.6,5.41-1.04.15,1.55,2.68,4.23,4.28,3.77.38-.11,1.76-1.59,2.08-1.16l-.62,1.26c1.56,2.19,3.77,2.45,6.31,2.19.5-.05,1.07-.52,1.56-.42.46.09.75.74,1.26.94.9.36,1.75-.02,2.29.19,1.05.4,1.91,1.25,3.59,1.59,8.85,1.81,11.1-5.32,15.89-10.61,1.39-1.54,3.26-3.77,5.56-3.1.17,1.92-.58,3.77-1.51,5.43-.65,1.17-5.95,8.53-6.7,9.08s-1.73.28-1.87,1.64c-.21,2.01,1.84,1.85,3.22,1.16,4.29-2.16,5.98-5.69,9.24-8.16.55-.41,1.83-1.37,2.39-.58.88,1.25-1.71,4.45-2.48,5.57-3.29,4.77-7.53,9.01-12.42,12.12-3.5,2.22-6.4,3.21-10.3,4.48-.83.27-2.37,1.18-3.08,1.23-2.73.19-7.5-1.29-10.54-1.29-1.27,0-2.6,1.02-4.22.95-1.56-.06-10.09-1.91-10.62-1.38-.56,1.89,1.91,1.38,2.92,1.86.36.17.44.71,1,.91,1.58.57,4.2.34,5.8.91.69.25.88,1.07,1.43,1.53,1.78,1.46,5.29,1.09,7.59,1.47,4.32.72,8.74,2,13.16,2.33,6.41.48,14.78-6.34,18.49-11.2,1.45-1.91,2.39-4.29,3.81-5.99,3.44-4.13,10.63-5.78,10.94-11.84.31-5.98-6.39-4.81-8.24-8.48-1.01-2-2.11-7.66,1.77-6.45,2.39.75,2.69,6.43,7.23,7.59,1.7.43,3.3.06,4.92.61.17.16.22,4.11.09,4.62-.29,1.16-4.55,7.68-5.52,9.11-4.62,6.82-12,14.1-18.05,19.79-.93.87-4.33,3.88-5.24,4.35-.42.22-5.74,1.29-6.5,1.36-4.71.48-9.04,1.05-13.78.36-7.79-1.14-15.59-3.43-23.22-5.48-16.08-4.33-31.05-8.6-45.77-16.6-3.35-1.82-10.4-5.68-13.12-7.95-1.23-1.03-2.26-2.65-3.45-3.79-1.14-1.08-7.16-5.27-6.98-6.5.13-.88,1.79-4.13,2.29-5.18,2.72-5.68,6.09-11.08,8.41-16.97.45-.65,3.64-2.2,4.16-1.95.62,1.18,1.21,3.26,2.02,4.27ZM157.59,299.13c.02-.76.69-1.15.84-1.89.18-.88-.32-2.02-.15-2.73s1.45-.66,1.8-1.4c.4-.85-.07-1.87.2-2.75-1.4.46-3.78.04-4.69,1.44-.35.55-.02,1.05-.32,1.75-.87,1.95-4.63,4.34-4.53,6.48.06,1.29,1.1,3.06,2.13,3.83,3.31,2.47,8.25,5.93,12,7.61,2.39,1.07,5.03,1.64,7.48,2.72,2.51,1.11,4.73,3.02,7.55,3.25.12-2.56-2.9-2.14-4.18-3.38-.44-.43-.53-1.27-.94-1.88-1.59-2.34-4.47-2.84-6.65-4.26,1.62-.52,1.16-1.22,1.2-2.64-1.21-.13-2.54-.35-3.25-1.49,1.01-1.32,1.96-2.3,1.97-4.13-2.01.93-4.59.32-4.57,3.35-1.51-.13-2.08-.92-1.48-2.35l1.98-.73-.11-4.7c-.77.22-2.67.36-2.81,1.32l.2,1.5c-1,.16-2.25.32-2.39,1.54l-1.26-.47ZM177.25,294.35c-.72.34-2.16.86-2.42,1.67-.28.87.24,1.38.15,1.79-.18.74-2,2.72.04,3.24.8.2,2.65-1.44,2.88-2.15.45-1.38-.44-1.42-.65-2.31-.14-.59,0-1.58,0-2.23ZM191.17,303.75c-.42.49-5.66,1.03-6.38.65-.77-.41-.08-3.16-.4-4.16-.72-2.25-2.31,1.09-2.47,2.26-.27,1.99,1.16,4.27,1.04,5.58-.17,1.82-2.2,4.76-1.56,6.29,1.13,2.73,5.64-.71,7.44-1.17.92-.24,1.85-.11,2.75-.4.26-.27,1.41-6.3,1.43-7.16.02-1.15-.3-2.77-1.64-2.89-.08.3-.01.79-.2,1.01Z"/><path class="cls-1" d="M280.85,203.09c-2.9-.88-5.25-2.88-7.95-4.13-1.52-.7-11.56-3.93-11.83-4.5l.18-34.26c1.69-.2,3.39-.43,5.1-.39,7.21.18,16.1,2.44,22.86,4.98,1.18.44,9.28,3.86,9.32,4.42l-17.68,33.88ZM277.46,186.15c-.25-.34-.92-.45-1.33-.55-3.52-.86-6.89,0-10.31-1.33-1.3,1.29-.4,1.94.76,2.69,2.72,1.77,6.3,3,9.1,4.72.41,0,.62-.06.86-.41.65-.94,1.65-4.13.92-5.13Z"/><path class="cls-1" d="M308.42,174.96c.2.47-1.96,3.72-2.36,4.53-3.21,6.43-6.25,13.07-9.31,19.57-1.67,3.54-3.14,8.39-5.09,11.58-.7,1.15-1.96,2.24-2.99,3.11-.87-4.01-2.86-7.69-6.57-9.7-.2-.46,2.43-5.77,2.88-6.68,3.19-6.47,6.9-12.67,10.07-19.17.58-1.19,3.63-8.66,4.37-8.66l9.01,5.42Z"/><path class="cls-1" d="M255.43,193.49c-1.8,0-4,1.27-5.78,1.54l-2.95-33.03c.32-1.03,11.67-1.87,13.33-1.85l-.78,33.93c-1.21-.05-2.66-.59-3.83-.59Z"/><path class="cls-1" d="M294.75,207.67c2.56-7.12,6.18-13.79,9.33-20.66,1.71-3.71,3.04-7.61,5.06-11.16.5-.25,5.05,3.63,5.79,4.29.57.5,3.44,2.9,3.26,3.42-7.75,8.09-14.65,17.11-23.44,24.11Z"/><path class="cls-1" d="M270.75,224.3c6.86.34,10.06,8.58,5.18,13.79-5.11,5.45-13.71-.9-12.35-7.27.71-3.31,3.51-6.7,7.16-6.52ZM270.39,228.28c-1.33.17-3.23,3.78-3.07,4.95.09.61,1.77,2.45,2.37,2.74,2.6,1.29,5.75-1.95,5.44-4.45-.27-2.13-2.71-3.51-4.74-3.24Z"/><path class="cls-1" d="M204.18,270.42c.02,1.01.57,2.11.34,3.12-.18.8-2.24,4.79-2.78,5.83-.99,1.93-1.12,2.76-3.47,2.29-.86-.17-4.48-1.11-4.01-2.24l3.26-7.56c2.2-.52,4.33-1.58,6.65-1.44Z"/><path class="cls-1" d="M191.09,278.08c-.32.15-5.34-1.64-6.03-1.97-.31-.15-.47.12-.32-.45,1.08-1.32,2.44-5.91,3.47-6.78.78-.66,5.6-1.56,6.55-1.28.8.23,1.11,1.41.9,2.15l-4.56,8.34Z"/><path class="cls-1" d="M203.31,283.47c-.18-.41,2.29-6.31,2.77-6.82.72-.76,5.68-2.15,6.33-1.61.25.21.34.83.34,1.17,0,1.45-2.26,7.99-3.37,8.77-1.3.92-4.81-.69-6.07-1.51Z"/><path class="cls-1" d="M220.93,277.59l.71,5.42-2.51,6.27c-1.2.7-5.04.21-5.17-1.34-.03-.36,1.66-5.27,1.92-6.22.09-.33-.02-.65.01-.97.1-.25,2.3-1.29,2.78-1.61.43-.29,1.81-2,2.25-1.56Z"/><path class="cls-1" d="M181.76,273.65c-.54.23-4.25-.99-4.48-1.44s1.51-4.41,1.89-5.14c.44-.83.61-1.35,1.56-1.7.5-.18,4.7-.61,4.98-.49s.32.42.32.7c.04,1.97-3.36,6.15-4.27,8.07Z"/><path class="cls-1" d="M175.86,286.01c-1.61-3.05.59-6.14,1.15-9.25l5.19,1.44c.88.82-1.43,5.92-2.2,6.95l-4.14.86Z"/><path class="cls-1" d="M226.37,294.92c-1.2-.94-2.58-1.48-4.04-1.84l2.03-7.62c1.36,0,2.73-.66,3.6-1.64.69.09,1.73,3.32,1.66,3.9-.27,2.16-2.98,4.94-3.25,7.21Z"/><path class="cls-1" d="M189.85,282.32c1.8,1.95-1.2,4.67-2.84,5.69-2.46,1.54-2.83.8-5.03-.77.48-2.08,2-3.99,1.67-6.19l1.81-.54c.99.81,3.66,1.03,4.38,1.81Z"/><path class="cls-1" d="M174.43,273.71c.18.36.22.78.16,1.17-.41,2.43-2.02,5.39-2.31,7.97l-2.41.88-1.41-4.13,1.48-6.21c.13-.3,4.09-.24,4.5.33Z"/><path class="cls-1" d="M194.63,284.65l4.49,1.31c.92,2.33-1.17,3.91-2.97,4.94-2.37,1.35-4.67,2.17-5.72-1.08,1.42-.84,2.72-5.01,4.2-5.17Z"/><path class="cls-1" d="M245.01,291.57l3.07-7.44c6.27-4.93,3.87,7.9.13,8.16-1.1.08-2.19-.36-3.2-.72Z"/><path class="cls-1" d="M224.99,296.87c.14.21-1.75,2.16-2.05,2.47-1.54,1.55-3.78,3.5-6.08,3.25l-.83-1.82c.85-1.32,1.6-6.44,3.67-6.02,1.42.29,3.63,1.94,5.29,2.12Z"/><path class="cls-1" d="M215.63,292.72c.26.42-4.14,7.3-5.92,6.79-.25-.49-.97-1.06-1.04-1.58-.13-.85.06-5.33.46-5.95.36-.55,1.92-1.05,2.59-.97,1.16.13,2.54,1.66,3.92,1.71Z"/><path class="cls-1" d="M238.83,288.14c-.94-.93,2.37-5.24,2.77-6.47.37-1.16-.02-2.12.27-3.13.23-.79,1.28.2,1.53.52.79,1.01,1.4,5.54,1.07,6.83-.32,1.22-1.42,1.96-2.02,3.02l-3.62-.76Z"/><path class="cls-1" d="M207.24,289.26c-1.29,3.59-4.02,6.7-8.19,6-.48-1.12.36-1.13.84-1.81.5-.7,1.18-1.63,1.52-2.39.33-.72.82-2.93,1.17-3.19,1.05-.79,3.28,1.44,4.66,1.4Z"/><path class="cls-1" d="M239.89,301.87l3.63-8.62c2.11,1.63,2.84,2.44,1.96,5.23-.85,2.71-2.57,5.14-5.6,3.39Z"/><path class="cls-1" d="M234.54,287.53c-.02.81.82,1.28.72,2.12-.28,2.44-2.72,5.27-3.06,7.78l-3.17-.49c.68-1.36,1.69-2.41,2.16-3.92.28-.88.48-3.48.81-3.97.2-.29,2.27-1.77,2.53-1.52Z"/><path class="cls-1" d="M239.46,290.72c1.4-.12,2.05,2.35,1.91,3.39-.07.54-1.95,5.18-2.26,5.56-.56.68-2.75.91-2.6-.34.06-.54,1.15-2,1.44-2.84s1.2-5.59,1.51-5.78Z"/><path class="cls-1" d="M167.43,273.91c.01,3.29-1.5,5.03-3.91,6.96-.74-.83-.97-3.29-.52-4.21.23-.47,3.73-2.31,4.43-2.74Z"/><path class="cls-1" d="M224.78,305.21c-.79-.76,1.99-3.55,2.41-4.54.32-.78.46-1.47.54-2.3l2.59.8c.33.32.17.39.04.7-.35.83-3.82,4.89-4.6,5.24-.35.16-.59.25-.97.1Z"/><path class="cls-1" d="M235.81,302.05c-.09.65-.17,1.3-.33,1.94-2.03,7.8-5.19.72-1.57-2.77l1.9.83Z"/><path class="cls-1" d="M183.59,251.56c-.27.79-.88.92-1.11,1.85-.21.84.14,2.55-.03,2.84-.23.41-2.63,1.9-3.04,1.41.21-.55-.26-1.16-.26-1.59,0-1.27,3.75-2.75,3.39-4.67l1.05.16Z"/><path class="cls-1" d="M172.3,258.19l-2.85,2.66-4.34,5.42c.09-.55.09-1.12.32-1.64.13-.29,3.38-5.08,3.61-5.3.77-.74,2.19-1.21,3.27-1.13Z"/><path class="cls-1" d="M239.24,304.34l.72-.3c.55.3,1.27.37,1.81.57.38.14.44-.16.35.45-.27,1.84-1.72,2.92-3.46,3.11l.59-3.83Z"/><path class="cls-1" d="M177.99,252.85c0,.54-.57.89-.64,1.38s.36,1.07.14,1.59c-.16.39-2.14,1.55-2.46,1.42-.3-.43-.87-1.3-.66-1.8.07-.17,2.4-2.05,2.77-2.32.29-.22.42-.45.85-.28Z"/><path class="cls-1" d="M174.94,251.57l-1.11,3.6-2.45.17c-.01-1.89,1.84-3.4,3.55-3.77Z"/><path class="cls-1" d="M162.09,268.23c.29.87-2.58,2.92-2.82,2.53l.71-2.86,2.11.33Z"/><path class="cls-1" d="M166.24,258.87c-.48,1.04-1.4,2.82-2.13,3.64-.28.32-.43.66-.94.47.76-1.23,1.54-2.49,2.34-3.69.24-.37.07-.66.73-.42Z"/><path class="cls-1" d="M198.35,190.68c3.5.08,6.06,3.34,6.95,6.5.66,2.35-1.22,6.27-3.36,7.35-1.24.63-3.98.8-5.36.67-9.89-.89-7.48-14.72,1.77-14.51ZM197.73,194.63c-5.82.1-3.88,9.93,2.37,6.74.75-.38,1-.7,1.23-1.52.88-3.14-.06-5.28-3.59-5.22Z"/><path class="cls-1" d="M118.98,301.11c-1.77,1.65-2.84,2.71-2.12,5.25.35,1.24,1.3,3.04,2.74,3.12.48.03.92-.38,1.28-.2-.17.86-4.75,4.17-5.16,3.66l1.31-1.78c-1.65-2.91-3.56-5.62-1.56-8.94,1.39-2.31,8.4-6.05,10.95-7.75,17.9-11.97,36.32-23.06,54.55-34.53,24.2-15.24,48.32-30.62,72.66-45.63,1.04.58,1.7,1.83.39,2.5-.57.3-.91-.24-1.53-.23-.92.02-8.3,4.74-9.72,5.62-41.68,25.61-82.11,53.27-123.77,78.92Z"/><path class="cls-1" d="M118.98,301.11c-1.77,1.65-2.84,2.71-2.12,5.25.35,1.24,1.3,3.04,2.74,3.12.48.03.92-.38,1.28-.2-.17.86-4.75,4.17-5.16,3.66l1.31-1.78c-1.65-2.91-3.56-5.62-1.56-8.94,1.39-2.31,8.4-6.05,10.95-7.75,17.9-11.97,36.32-23.06,54.55-34.53,24.2-15.24,48.32-30.62,72.66-45.63,1.04.58,1.7,1.83.39,2.5-.57.3-.91-.24-1.53-.23-.92.02-8.3,4.74-9.72,5.62-41.68,25.61-82.11,53.27-123.77,78.92Z"/><path class="cls-1" d="M170.7,270.46c.53.22.99.38,1.24.45,2.29.69,2.5-.11,3.67-1.94.4-.63,1.54-2.38,2.38-3.78-1.65.97-3.82,2.17-4.93,3.03-.53.42-1.57,1.44-2.36,2.24Z"/><path class="cls-1" d="M177.94,260.11c-1.76-.42-3.12-.92-5.79.98l-2.09,3.78c2-1.1,4.04-2.26,5.03-2.89.6-.38,1.82-1.19,2.85-1.87Z"/></svg>