<?xml version="1.0" encoding="UTF-8"?><svg id="Layer_1" xmlns="http://www.w3.org/2000/svg" viewBox="0 0 500 500"><defs><style>.cls-1{fill:#efeadf;}.cls-2{fill:#c1c6c8;}.cls-3{fill:#ffee02;}.cls-4{fill:#252525;}</style></defs><path class="cls-4" d="M388.09,349.83c5.58-.61,9.21,1.71,13.06,5.39,6.56,6.26,7.65,16.4,1.49,23.37-7.48,8.46-19.48,4.57-26.01,16.91-2.66,5.03-2.47,7.49-7.19,11.67-8.4,7.44-19.97,5.35-24.25-5.29-2.02-5.01-1.03-16.15,3.05-20.02,4.06-3.85,14.03-4.53,19.4-7.67,9.18-5.36,6.53-22.85,20.46-24.37ZM390.27,358.03c-2.59.36-5.05,2.62-6.61,4.6-5.03,6.4.27,14.93,8.18,14.19.94-.09,4.27-1.54,4.91-2.2,4.26-4.4,2.29-11.82-2.18-15.29-1.49-1.15-2.34-1.58-4.3-1.3ZM357.46,385.91c-2.48.36-5.12,2.2-5.61,4.78-1.01,5.35,1.21,12.11,6.89,13.75,3.95,1.14,7.8-4.51,7.78-8.05-.02-4.2-4.27-11.18-9.06-10.49Z"/><path class="cls-4" d="M79.13,304.73c5.95-.75,14.12,4.14,16.6,9.5s1.84,8.11,2.4,13.45c.59,5.63,3.99,7.79,8.15,10.99,4.45,3.42,11.51,6.43,13.51,11.92,2.28,6.27-.17,11.28-4.24,15.98-8.24,9.53-17.26,8.23-25.25-.7-5.5-6.14-3.93-16.86-8.25-24.28-3.37-5.8-12.92-7.51-16.03-14.04-4.61-9.69,2.73-21.5,13.11-22.81ZM80.23,312.66c-2.05.24-3.32.91-4.59,2.52-5.45,6.93.45,15.95,8.85,15.14,3.55-.34,7.75-3.58,7.55-7.47-.33-6.34-5.45-10.92-11.82-10.19ZM104.84,348.2c-5.67.34-8.6,4.94-7.85,10.42.31,2.28,4.47,5.63,6.67,5.91,4.33.54,9.15-2.37,9.43-6.98.33-5.32-2.65-9.68-8.25-9.34Z"/><path class="cls-4" d="M273.42,413.01c7.08-5.09,18.03-.02,26.23-4.53,5.04-2.78,7.22-6.52,11.27-9.78,9.27-7.47,22.37-2.65,25.54,8.62,2.56,9.1-.48,16.75-8.48,21.56-8.52,5.12-14.64-.3-23.23,1.65-9.66,2.19-13.53,14.65-25.02,11.1-2.92-.9-5.56-2.75-7.5-5.08-4.74-5.7-5.37-18.82,1.19-23.53ZM321.38,406.15c-3.43.32-5.06,1.24-6.55,4.38-1.91,4.02-.68,8.6,3.25,10.79,7.76,4.33,15.47-3.64,11.24-11.24-1.79-3.21-4.35-4.27-7.93-3.94ZM282.82,416.52c-5.76,1.08-9.17,8.42-5.39,13.19,7.17,9.04,20.9,2.09,15.98-8.87-1.55-3.46-7.12-4.96-10.59-4.31Z"/><path class="cls-4" d="M427.19,276.03c9.35-.23,16.87,6.6,16.2,16.2-.67,9.61-11.15,12.4-14.17,21.65-1.79,5.48.27,7.55.73,12.55.99,10.85-8.64,20.35-19.67,17.48-1.75-.46-1.99-1.32-3.17-2.02-2.9-1.71-5.12-2.14-6.88-5.42-4.63-8.63-1.92-17.35,5-23.6,1.72-1.55,3.59-2.39,5.2-4.36,4.81-5.86,1.97-9.85,1.5-16.27-.8-11.03,4.64-15.92,15.25-16.18ZM425.54,282.31c-1.29.22-5.25,2.71-5.74,3.83-.34.78-.3,3.25-.21,4.18.53,6.06,7.23,9.18,12.59,6.82,2.89-1.27,3.58-4.18,3.58-7.11,0-4.71-5.8-8.49-10.21-7.73ZM415.36,320.65c-3-.05-8.09,3.05-9.16,6.02.4,3.24.26,6,3.54,7.66,4.76,2.41,10.76.46,11.43-5.28.41-3.5-1.85-8.33-5.81-8.39Z"/><path class="cls-4" d="M129.72,372.26c5.49-.53,12.03,3.18,15.63,7.17,2.45,2.71,6.95,11.46,9.86,12.55,5.24,1.95,11.99,1.53,17.54,3.24,4.93,1.51,10.53,5.04,11.79,10.35,3.55,14.97-14.98,29.7-26.48,16.63-5.57-6.32-5.79-13.13-15.26-16.46-5.26-1.85-14.28-.5-18.87-3.82-10.98-7.96-9.26-28.22,5.77-29.67ZM131.37,379.07c-10.46.74-7.46,19.96,3.95,17.37,2.5-.57,6.27-3.41,6.5-6.08.52-5.97-4.29-11.73-10.45-11.29ZM167.72,403.14c-7.23,1.05-9.34,11.7-1.94,15.46,9.84,4.99,15.84-8.21,9.75-13.03-1.98-1.57-5.28-2.8-7.81-2.44Z"/><path class="cls-4" d="M391.1,121.59c9.05-.93,16.66,3.28,18.06,12.67.7,4.69.43,7.77,2.37,12.39,3.37,8.03,7.65,7.6,13.26,12.72,5.95,5.43,10.35,13.47,5.64,21.22-5.98,9.83-22.67,7.11-28.02-1.85-3.5-5.85-3.29-9.14-3.86-15.55-1.16-13.06-11.68-11.99-18.2-20.08-3.35-4.16-2.77-11.55-.08-15.94,1.69-2.75,7.65-5.25,10.82-5.58ZM392.75,127.59c-11.12.51-8.11,19.01,3.14,14.63,8.29-3.23,6.02-15.05-3.14-14.63ZM413.79,163.67c-4.5.62-8.05,5.38-7.3,9.89.2,1.22,3.19,3.08,4.35,3.58,5.96,2.56,13.27-.78,12.29-7.91-.25-1.84-2.19-3.57-3.72-4.48-1.91-1.13-3.39-1.38-5.62-1.08Z"/><path class="cls-4" d="M325.49,70.74c6.08-.63,9.45.88,13.02,5.68,2.31,3.11,4.12,6.59,7.14,9.26,8.16,7.22,20.79,1.64,29.94,10.8,9.95,9.97,1.39,25.37-12.18,25.03-9.35-.23-12.04-6.81-16.03-13.5-6.7-11.22-25.67-4.76-32.33-14.15-6.69-9.43-1-21.95,10.44-23.13ZM324.66,76.75c-12.91,1.76-5.07,20.6,6.81,14.46,5.15-2.66,3.56-8.1.36-11.66-2.19-2.43-3.81-3.26-7.17-2.81ZM362.13,98.34c-2.71.11-5.87,2.47-6.71,5.07-1.66,5.11,2.37,11.71,7.99,11.26,6.46-.52,10.13-6.1,6.85-12.04-1.69-3.07-4.64-4.44-8.13-4.3Z"/><path class="cls-4" d="M87.35,146.19c10.61-.69,18.96,10.23,15.14,20.33-3.6,9.54-15.68,10.49-15.65,21.55.01,5.82,1.84,11.63-1.56,17.01-4.75,7.5-15.08,9.89-21.67,3.23-6.11-6.17-6.09-13.53-.8-20.23,2.86-3.62,8.01-6.26,9.84-10.39,3.38-7.63.52-16.19,3.5-22.74,2.43-5.33,5.02-8.35,11.2-8.75ZM87.88,154.1c-4.3.72-5.21,7.15-3.26,10.51,4.24,7.33,13.82,1.01,10.09-6.81-1.1-2.31-4.28-4.13-6.83-3.7ZM72.84,190.46c-1.97.34-4.6,2.89-5.45,4.67-1.14,2.38-1.39,4.32,0,6.67,1.72,2.92,5.47,3.68,8.45,2.32,7.79-3.57,4.53-14.95-2.99-13.65Z"/><path class="cls-4" d="M425.54,198.66c10.61-1.44,21.54,5.86,17.84,17.57-1.9,6.02-6.64,7.57-4.73,14.84,1.7,6.47,9.31,11.77,8.49,18.98-1.36,11.94-13.8,18.55-24.24,11.8-7.35-4.75-8.96-11.1-5.54-19.16,1.23-2.91,3.76-6.11,4.12-9.28.59-5.24-5.12-10.21-6.94-14.87-3.56-9.14,1.01-18.53,11-19.88ZM427.18,205.5c-5.28.68-6.96,3.95-6.15,9.02.82,5.22,6.19,4.73,10.12,5.62,5-1.64,5.88-9.54,1.82-12.64-1.77-1.35-3.53-2.29-5.79-2ZM429.37,241.86c-7.64,1.11-7.73,11.51-1.91,14.34,6.23,3.03,13.13.5,12.36-7.17-.56-5.64-5.19-7.94-10.45-7.18Z"/><path class="cls-4" d="M242.64,53.52c8.05-.15,9.41,4.6,15.08,7.45,9.06,4.55,17.11-4.26,26.67-3.99,9.81.27,17.09,9.2,13.94,18.87-2.79,8.57-7.57,12.66-16.91,11.73-10.06-1.01-13.3-13.81-26.08-9.34-5.95,2.09-8.04,4.76-15.24,4.75-4.97,0-8.22-1.19-10.19-5.97-4.29-10.43.18-23.27,12.73-23.5ZM241.27,60.62c-2.25.31-4.62,1.81-5.95,3.62-6.1,8.3,8.71,16.57,13.94,9.29,1.19-1.65,2.2-6.45,1.56-8.4-1.25-3.84-5.94-5.01-9.56-4.52ZM290.19,68.01c-3.92-4.52-12.4-2.43-14.65,2.82-1.62,3.79-1.06,6.71,2.29,9.13,5.09,3.67,15.7-1.31,14.29-8-.12-.59-1.54-3.48-1.94-3.94Z"/><path class="cls-4" d="M204.91,413.26c9.95-.91,14.09,7.62,23.64,6.41,1.73-.22,3.4-1.14,5.01-1.55,5.39-1.38,14.62-3.29,19.4.26,10.16,7.55,5.14,23.52-5.69,27.39-9.66,3.45-15.5-6.51-24.67-6.62-4.76-.06-8.86,2.24-13.19,3.49-21.7,6.24-23.85-27.59-4.49-29.36ZM206.55,419.82c-5.44.58-9.06,5.6-6.28,10.77,3.12,5.8,12,5.07,14.47-.94,1.29-3.13,1.25-4.95-1.29-7.33-1.76-1.64-4.48-2.77-6.91-2.51ZM243.38,422.9c-7.72-.11-11.04,9.72-4.92,14.6,5.19,4.13,12.37,2.33,13.46-4.57.86-5.42-3.12-9.96-8.55-10.03Z"/><path class="cls-4" d="M65.47,228.47c10.08-1.04,14.77,7.72,14,16.73-.62,7.19-4.75,9.67-1.84,17.7,3.07,8.49,9.34,16.81,2.51,25.88-3.87,5.14-15.4,6.98-20.48,3.02-7.21-5.63-5.21-13.15-2.54-20.57.67-1.87,1.96-3.65,2.27-5.65,1.78-11.27-8.38-16.14-6.32-27.36.93-5.07,7.53-9.25,12.4-9.75ZM66.83,235.55c-2.02.22-4.9,2.83-5.83,4.58-1.1,2.09-1.02,5.56.55,7.4,2.04,2.4,7.4,2.52,9.59.27,2.73-2.8,2.41-7.93-.28-10.68-.78-.8-2.92-1.71-4.03-1.58ZM68.76,274.1c-5.83.56-9.33,10.34-2.41,12.12,2.19.56,7.13.11,8.6-1.8,3.67-4.76-.28-10.88-6.19-10.31Z"/><path class="cls-4" d="M136.28,86.04c3.24-.44,4.65.3,7.32,1.84,7.26,4.18,11.19,9.86,7.72,18.39-2.27,5.59-9.4,8.12-14.76,9.85-3.7,1.19-7.02.79-9.35,4.32-5.79,8.75-3.87,21.38-18.86,19.63-10.4-1.22-13.51-12.83-10.06-21.48,3.91-9.79,13.43-7.47,20.65-12.16,3.03-1.97,5.08-8.01,7.07-11.25,2.2-3.58,5.83-8.53,10.27-9.14ZM137.1,95.61c-2.38.35-4.88,2.21-5.13,4.71-.25,2.46.27,3.53,2.06,5.05,3.47,2.95,8.18,4.16,10.19-1.01,2.29-5.89-1.03-9.65-7.12-8.76ZM117.66,130.44c2.04-1.98,2.81-8.37.79-10.58-1.81-1.97-6.71-2.81-9.24-2.38-3.89.66-6.48,6.23-5.54,9.78.57,2.16,4.97,5.22,7.12,5.46s5.27-.71,6.88-2.28Z"/><path class="cls-4" d="M204.63,59.26c6.6-.69,13.33,5.42,14.74,11.62,1.83,8.01-8.02,15.59-15.13,16.7-4.78.75-7.9-.88-12.3-1.3-3.17-.31-4.01.17-6.4,2.01-5.52,4.26-7.07,8.58-15.2,9.4-7.41.75-10.26-3.2-12.34-9.74-3.62-11.37,6.63-19.28,17.29-18.65,3.89.23,7.47,2.07,10.97,2.43,4.64.48,4.94-2.25,7.11-5.14,2.41-3.22,7.15-6.9,11.26-7.33ZM203.25,66.89c-1.74.15-4.68,2.6-5.44,4.13-1.53,3.04-1.32,7.57,1.95,9.36,3.76,2.06,8.53,2.02,11.34-1.54,3.27-4.14.53-10.81-4.42-11.67-.6-.1-2.89-.33-3.43-.28ZM171.27,77.02c-5.86.86-9.28,7.8-5.13,12.36,7.62,8.37,21.16-5.45,10.74-11.29-1.96-1.1-3.32-1.41-5.62-1.08Z"/><path class="cls-4" d="M77.78,214.22c.98.64-.81,4.98-1.01,6.14-.14.81-.29,2.13-.32,2.96-.07,1.97.72,4.17-.26,5.76-.92.56-3.48-1.79-4.58-2.27-3.75-1.65-7.62-1.18-11.36.27-.74.29-1.58,1.35-2.26.77-.62-.96,2.21-5.86,2.62-7.24.57-1.95.67-4,.53-6.02-.12-1.75-1.32-4.32.14-5.6,1.72,1.82,4.33,3.52,6.76,4.17,3.25.87,6.47.56,9.73,1.06Z"/><path class="cls-4" d="M299.57,64.65c.7-.7,5.26,2.71,6.2,3.23,3.13,1.7,6.64,3.17,10.28,2.28l.7.7c.42,1.48-2.28,2.2-3.25,2.94-3.13,2.4-4.47,6.52-4.07,10.37.07.71,1.07,2.48.27,3.05s-5.25-1.4-6.72-1.52c-2.27-.18-4.72,1.01-6.55.81-2.87-.33,1.12-3.44,1.63-4.09,2.55-3.17,4.52-9.67,3.2-13.59-.26-.78-2.25-3.62-1.7-4.18Z"/><path class="cls-4" d="M397.16,335.56c.29.19,2.26,5.17,3.18,6.26,3.17,3.76,8.06,5.39,12.84,5.23,2.19-.07,4.18-1.03,1.76,2.03-1.39,1.75-3.12,3.24-4.43,5.14-1.21,1.76-1.82,3.84-3.09,5.39-.47.11-.53-.37-.69-.67-2.13-4.01-3.1-5.7-7.18-8.13-2.49-1.48-4.96-1.69-7.36-2.75-3.43-1.51-.36-2.86.88-4.45.82-1.05,1.76-2.83,2.2-4.08.27-.78.73-4.73,1.89-3.96Z"/><path class="cls-4" d="M440.41,278.65c-1.46-2.41-4.28-4.28-7.08-4.81-2.95-.56-6.5-.73-9.47-.31-1.39.2-2.83,1.24-4.15.54-1.05-.79,1.06-3.88,1.23-5.1s-.47-5.18,0-5.73c1.05-1.26,3.07.66,4.14,1.11,3.49,1.48,9.47,3.25,13.11,1.91.94-.35,3.21-2.41,3.69-2.32.56.11.45,1.6.41,2.05-.27,3.49-1.64,6.1-1.36,10.11.07,1.05,1.26,2.8-.52,2.56Z"/><path class="cls-4" d="M431.35,183.28c.16,4,.43,7.3,2.41,10.85.46.82,2.52,2.74,1.43,3.53-.81.59-3.84-1.36-4.93-1.67-4.51-1.25-9.79.7-13.6,3.1-.28.05-.96-.08-1.11-.29-.24-.33-.59-4.1-.95-5.19s-1.08-2.44-1.99-3.22c-.86-1.64,4.87-1.02,5.77-1.08,2.79-.19,7.31-1.25,9.43-3.15,1.19-1.06,1.76-3.24,3.55-2.88Z"/><path class="cls-4" d="M95.29,130.57c.3.18,2.06,5.22,2.82,6.34,1.12,1.64,4.64,4.44,6.57,4.91,1.74.43,5.27-.65,4.83,1.52-2.31.74-4.71,3.94-5.09,6.25-.23,1.37.43,3.01-.75,3.89-3.07-4.07-7.21-8.32-12.37-9.49-.71-.16-2.63.19-2.79-.78-.05-.31,2.29-2.17,2.78-2.92,1.56-2.42,3.04-6.87,2.96-9.76l1.05.04Z"/><path class="cls-4" d="M70.59,297c1.87-.24,4.82-1.55,6.4-2.62.75-.51,2.56-2.52,3.4-2.28l4,9.53c-1.26.52-2.61.16-3.92.32-2.65.32-5.38,1.92-7.64,3.3-2.08,1.27-4.08,3.44-6.48,3.77v-4.78c0-.46-.91-4.02-1.15-4.59-.41-.99-1.34-1.41-1.04-2.65,2.03-.18,4.45.25,6.43,0Z"/><path class="cls-4" d="M342.45,394.08c.56.35.01,2.78.07,3.61.22,3.2,2.01,7.68,4.08,10.14.28.83,3.56,3.51,3.56,3.84s-.18.52-.45.66c-3.31.97-6.49,2.53-8.86,5.08l-.94.16c-.6-.16-.05-6.44-.15-7.53-.27-3.04-2.24-6.74-3.68-9.44-.72-1.34-2.94-3.2-.96-4.23,1.15-.6,3.23-.97,4.57-1.44.73-.26,1.87-1.41,2.77-.84Z"/><path class="cls-4" d="M381.32,111.12c1.17-.24,1.21,1.05,1.69,1.73,1.88,2.72,2.61,4.31,5.78,5.7,1,.44,2.73.3,2.33,1.67-.32,1.12-1.96.61-2.8.76-3.75.7-7.17,2.51-9.41,5.63-.55.77-1.8,3.35-2.1,3.64-.26.25-.4.38-.79.26-1.6-2.25-3.41-3.99-5.76-5.46-.69-.43-2.57-.7-2.3-1.73.25-.96,3.53-1.34,4.53-1.77,3.41-1.46,8.65-6.47,8.84-10.44Z"/><path class="cls-4" d="M124.49,370.35c.15.18.25.37.31.6-3.63,2.38-7.13,3.92-9.01,8.15-.76,1.71-1.05,3.41-1.75,5.1-.8.16-1.68-1.63-2.17-2.18-1.42-1.61-3.56-4.25-5.09-5.57-.92-.79-3.48-1.39-1.22-2.37,4.56-1.97,7.33-.52,11.09-5.59.85-1.15,1.28-3.92,2.93-3.21.72.31,4.17,4.2,4.9,5.08Z"/><path class="cls-4" d="M188.83,430.95c-2.42-.74-4.09-3.1-6.45-4.07-1.38-.57-2.78-.58-4.21-.85-.24-1.19.8-.98,1.46-1.41,5.03-3.25,6.39-6.96,7.16-12.8,1.18-2.18,7.76,1.47,8.3,3.46-2.1,3.02-4.22,5.73-5.36,9.31-.74,2.31-.48,4.06-.89,6.36Z"/><path class="cls-4" d="M267.3,419.47c-.09,1.59-1.14,2.86-1.34,4.54-.3,2.58.27,4.59,1.21,6.94.41,1.03,3.32,6,2.85,6.55-3.05.41-6.03.27-9.01,1.24-.62.2-3.32,2.12-3.24.6.04-.8,1.59-3.19,2-4.3,1.29-3.53,1.54-7.98-.44-11.29-.54-.89-1.73-1.23-1.29-2.61l9.26-1.67Z"/><path class="cls-4" d="M227.08,58.4c.19,2.43-1.57,4.56-1.85,6.96-.38,3.26.24,7.09,2.2,9.77.44.6,1.32.55,1.01,1.63-.22.76-2.59,1.06-3.51,1.43-.84.33-4.34,2.94-4.37,1.11-.01-.76.98-2.8,1.1-4.11.37-4.21-.38-8.28-3.71-11.07-.61-.52-4.42-2.43-1.65-2.75,2.48-.29,4.3.51,6.81-.85,1.31-.71,2.42-2.88,3.97-2.11Z"/><path class="cls-4" d="M154.38,81.6c.87,3.36.56,7.07,2.15,10.29,1.19,2.41,3.57,3.31,5.22,5.18.11.6-3.62,2.55-4.34,2.99-.48.29-1.3,1.61-1.93.46-.35-.63-.49-2.93-.96-4.16-2-5.19-5.49-5.3-8.47-8.48-2.29-2.44,1.76-2.44,3.52-3.31.94-.47,4.24-3.38,4.81-2.97Z"/><path class="cls-4" d="M388.9,362.4c8.67-1.5,7.76,13.65-.54,10.8-4.2-1.44-4.82-9.87.54-10.8Z"/><path class="cls-4" d="M358.84,389.73c1.33-.1,2.64.96,3.34,1.99,3.01,4.4-2.93,10.75-6.52,6.8-2.6-2.86-.79-8.48,3.18-8.79Z"/><path class="cls-4" d="M80.77,316.47c2.79-.52,6.5,1.33,6.58,4.44.11,4.46-3.05,6.6-7.21,5.08s-3.31-8.79.63-9.52Z"/><path class="cls-4" d="M103.47,351.47c5.34-.73,7.96,4.06,4.28,7.83-2.07,2.13-4.6,2.09-7.04.52-3.5-2.26-1.14-7.82,2.76-8.36Z"/><path class="cls-4" d="M283.64,420.62c3.21-.66,6.53,1.09,6.06,4.7-.69,5.36-11.31,7.48-10.07-.23.24-1.52,2.5-4.15,4.01-4.46Z"/><path class="cls-4" d="M326.27,410.27c2.83,2.83.35,8.2-3.32,8.66-4.49.56-6.95-2.2-5.47-6.56,1.09-3.2,6.33-4.56,8.78-2.1Z"/><path class="cls-4" d="M426.36,285.04c5.91-.96,9.63,7.4,2.45,9.83-2.87.97-5.59-.3-5.94-3.47-.31-2.81.27-5.84,3.48-6.36Z"/><path class="cls-4" d="M413.24,323.85c4.36-.85,5.95,5.31,3.37,7.75-3.14,2.97-8.22,2.22-7.88-2.66.14-2.04,2.53-4.7,4.51-5.09Z"/><path class="cls-4" d="M136.79,384.85c1.35,1.38,1.72,3.29,1.4,5.17-.78,4.6-7.12,4.93-9.29,1.21-3.55-6.07,2.98-11.38,7.89-6.38Z"/><path class="cls-4" d="M168.81,406.41c2.07-.36,3.26-.04,4.56,1.6,1.92,2.42,1.74,5.74-.8,7.63-2.12,1.58-4.55.55-6.41-.97-3.29-2.7-1.25-7.59,2.65-8.26Z"/><path class="cls-4" d="M413.78,167.49c3.87-.8,8.24,2.46,5.54,6.36-1.65,2.39-6.15,2.17-7.62-.32-1.21-2.06-.5-5.52,2.07-6.05Z"/><path class="cls-4" d="M391.63,130.59c2.44-.5,4.8.13,5.86,2.49,2.85,6.3-6.42,8.44-8.63,3.44-1.07-2.42.08-5.37,2.77-5.92Z"/><path class="cls-4" d="M362.38,102.16c5.69-.98,7.33,6.2,2.26,8-6.59,2.33-8.37-6.95-2.26-8Z"/><path class="cls-4" d="M324.1,79.75c3.63-.75,6.83,1.71,6.37,5.55-.47,3.95-8.7,3.97-9.28-.85-.23-1.91.92-4.29,2.91-4.69Z"/><path class="cls-4" d="M72.29,193.19c6.75-1.74,6.71,10.55-.05,9.48-4.65-.73-3.56-8.55.05-9.48Z"/><path class="cls-4" d="M88.14,157.1c5.11-1.18,7.01,6.5,2.07,7.53-4.72.98-5.23-6.8-2.07-7.53Z"/><path class="cls-4" d="M430.19,244.58c4.61-.83,7.6,2.81,5.95,7.04-1.35,3.46-5.03,3.32-7.65,1.37-2.88-2.15-1.23-7.88,1.7-8.41Z"/><path class="cls-4" d="M427.73,207.95c4.25-.67,6.22,5.01,3.5,7.88-1.5,1.58-6.69.98-7.2-1.3-.57-2.56.88-6.13,3.7-6.58Z"/><path class="cls-4" d="M283.09,67.99c6.69-1.14,7.79,6.28,2.17,8.46-8.16,3.16-8.23-7.43-2.17-8.46Z"/><path class="cls-4" d="M242.36,63.35c4.08-.51,7.07,3.68,4.56,7.02-.63.83-2.58,2.23-3.6,2.41-7.15,1.22-8.33-8.51-.96-9.43Z"/><path class="cls-4" d="M243.17,427.46c6.57-1.36,6.4,8.57.47,8.69-4.93.1-4.49-7.86-.47-8.69Z"/><path class="cls-4" d="M207.1,423.08c2.55-.26,5.14,1.72,4.96,4.41-.23,3.3-2.83,4.45-5.84,3.99-4.17-.65-3.72-7.92.88-8.4Z"/><path class="cls-4" d="M64.25,245.52c-1.51-1.37-.55-6.08,1.76-6.68,4.17-1.08,6.7,4.89,3.07,7.16-1.11.7-3.9.35-4.82-.48Z"/><path class="cls-4" d="M72.27,284.06c-2.09,2.19-7.85,1.66-7.86-2.23-.01-4.38,4.55-6.49,7.68-3.56,1.47,1.38,1.53,4.37.17,5.79Z"/><path class="cls-4" d="M109.75,120.2c2.15-.43,5.18,1.48,5.52,3.64.92,5.87-5.48,9.3-8.06,3.96-.79-1.64-.8-2.41-.32-4.17.39-1.41,1.3-3.12,2.85-3.43Z"/><path class="cls-4" d="M138.74,98.61c3.85-.22,3.7,5.69.18,6.21-4.81.71-4.17-5.98-.18-6.21Z"/><path class="cls-4" d="M208.16,70.76c1.58,1.48,1.2,4.92-.44,6.34-3.43,2.95-8.8-.18-6.68-4.76,1.2-2.59,5.15-3.43,7.12-1.57Z"/><path class="cls-4" d="M172.38,79.22c8.83-.88,6.16,10.32-.31,10.2-5.93-.11-7.26-9.45.31-10.2Z"/><path class="cls-4" d="M154.09,352.79c-1.72,1.61-3.81,2.08-6.27,1.43-2.08-.57-3.99-1.78-5.71-3.62-1.5-1.61-2.31-3.38-2.43-5.32-.76-.03-1.56-.28-2.42-.76-.79-.44-1.46-.96-2.03-1.57l-.2-.26,1.66-1.56c.59.38,1.24.53,1.94.45.7-.08,1.31-.37,1.84-.87l9.23-8.63c.76-.72,1.24-1.43,1.41-2.15.2-.89-.09-1.64-.85-2.27l1.59-1.49c.28.24.6.55.97.94,1.52,1.62,2.23,3,2.15,4.13,2.01.61,3.76,1.72,5.26,3.33,1.42,1.51,2.25,3.28,2.5,5.3.26,2.22-.34,4-1.77,5.34-1.3,1.21-2.97,1.5-5,.86.39,1.07.38,2.28-.03,3.63-.38,1.26-.99,2.29-1.83,3.07ZM150.26,334.38c1.28-1.2,1.95-2.29,1.99-3.27-.15.49-.72,1.2-1.71,2.12l-8.2,7.66c-1.25,1.17-2.18,1.75-2.8,1.74.79.44,1.74.14,2.84-.9l7.87-7.36ZM150.51,348.81c.86-.81,1.3-1.8,1.31-2.99,0-1.18-.4-2.22-1.22-3.09-.57-.61-1.35-1.12-2.34-1.52l-3.86,3.6c-1.36,1.28-1.45,2.55-.24,3.84.85.91,1.89,1.38,3.11,1.42,1.22.03,2.3-.39,3.24-1.27ZM151.95,350.19c.8-.74,1.12-1.88.95-3.39-.19,1.17-.74,2.18-1.65,3.03-.88.82-1.96,1.27-3.27,1.34,1.65.27,2.97-.06,3.96-.98ZM157.57,340.5c.72-.67,1.17-1.41,1.34-2.2.19-.9-.04-1.69-.67-2.37-.46-.49-.97-.87-1.54-1.12-.74-.29-1.34-.22-1.8.2l-4.21,3.94c.23.28.45.53.67.76,2.19,2.35,4.26,2.61,6.21.8ZM158.94,341.98c.75-.7,1.03-1.73.85-3.08-.08,1.04-.56,1.97-1.43,2.79-.69.64-1.56,1.07-2.63,1.27,1.33.11,2.4-.22,3.21-.98Z"/><path class="cls-4" d="M180.05,377.65l-1.24,1.83c-.17-.06-.37-.17-.62-.34-1.68-1.14-2.58-2.46-2.71-3.96-1.6.26-3.28-.21-5.05-1.4-.3-.2-.58-.42-.84-.65l1.19-1.75c.55.37,1.1.63,1.65.77.76.21,1.29.1,1.58-.33.17-.25.29-.78.38-1.6.03-.55.07-1.1.12-1.66l-8.23-5.57c-1.21.8-1.91,1.34-2.11,1.62-.75,1.11-.3,2.2,1.36,3.26l-1.2,1.77c-.28-.11-.6-.29-.96-.53-1.22-.83-1.92-1.86-2.08-3.11-1.57.07-2.9-.26-3.98-.99-.41-.28-.73-.61-.98-1.01l1.17-1.73c1.33.82,2.61.83,3.84.04,2.46-1.57,4.93-3.14,7.41-4.72,4.12-2.67,6.33-4.21,6.62-4.64.37-.55.2-1.06-.5-1.54-.21-.14-.43-.29-.66-.45l1.43-2.06c.41.15.87.4,1.36.73,1.63,1.1,2.48,2.45,2.56,4.06.7-.26,1.5-.3,2.42-.09.84.17,1.59.49,2.27.94.37.25.72.54,1.04.86l-1.3,1.92c-.46-.28-.91-.42-1.38-.42-.56-.01-.98.18-1.25.59-.18.27-.3.63-.35,1.09l-1.86,15.74c-.21,1.79.09,2.9.89,3.31ZM174.83,364.67l1.04-8.03-6.44,4.38,5.4,3.65ZM175.55,372.29c.49-.73.79-1.46.88-2.2l1.7-12.75c.04-.44-.13-.99-.49-1.64l-2.08,16.59Z"/><path class="cls-4" d="M210.17,383.7l-4.85,6.92-2.09-.82-.13-1.15c-1.78.04-3.5-.27-5.15-.92-1.87-.73-3.09-1.84-3.65-3.33-1.33.74-2.63.86-3.93.35-.52-.2-.99-.52-1.42-.94l.83-2.12c.84.33,1.64.24,2.41-.25.68-.44,1.19-1.09,1.52-1.94l4.5-11.46c.58-1.48,0-2.72-1.75-3.7l.82-2.08c.43.07.92.21,1.45.42,1.71.67,2.84,1.68,3.4,3.02,1.28-.62,2.77-.6,4.48.07.36.14.71.31,1.04.51l-.83,2.12-.09-.03c-.74-.34-1.42-.34-2.05,0-.63.33-1.09.9-1.4,1.69l-4.96,12.65c.61.79,1.46,1.39,2.56,1.82,2.55,1,5.2.19,7.95-2.43l1.37,1.61ZM195.66,380.21l3.94-10.03c.21-.54.36-1.18.44-1.93.09-.84.05-1.47-.14-1.91.07.51-.13,1.39-.63,2.65l-4.1,10.45c-.63,1.59-1.22,2.52-1.78,2.78.96.08,1.71-.59,2.27-2Z"/><path class="cls-4" d="M235.67,374.04l-1.66,7.75-2.57.8c.24-2.05.35-3.3.31-3.77-.05-1.81-.61-2.82-1.68-3.05-.54-.12-1.1,0-1.66.32-.56.33-.9.75-1.01,1.27l-2.71,12.68c-.16.75-.11,1.44.16,2.06.27.71.77,1.13,1.5,1.24l-.46,2.17c-.36.03-.77,0-1.22-.1-1.46-.31-2.48-1.09-3.04-2.32-1.19.86-2.76,1.08-4.7.67-.25-.05-.51-.12-.78-.2l.46-2.13c.63.03,1.18-.15,1.67-.51.48-.37.79-.85.92-1.46l2.87-13.4c.27-1.27-.14-2.03-1.25-2.27-1.19-.25-2.29.38-3.29,1.91-.71,1.09-1.26,2.34-1.62,3.76l-1.83-1.57,1.69-7.9,1.36-.2c.33.59.94.99,1.81,1.17.52.11,1.29.07,2.29-.12,1-.19,1.79-.22,2.35-.1,1.15.25,1.91.88,2.28,1.9.31-.31.89-.52,1.74-.63.75-.11,1.38-.11,1.9,0,.67.14,1.36.52,2.07,1.13.71.61,1.26.96,1.66,1.04.5.11.85-.13,1.04-.73l1.41.6ZM221.57,388.61l2.25-10.54c.37-1.71.27-2.99-.29-3.83.18.5.13,1.4-.16,2.72l-2.35,10.97c-.36,1.67-.79,2.68-1.3,3.03.92-.09,1.53-.87,1.85-2.36Z"/><path class="cls-4" d="M252.44,376.92c-.69,0-1.26.2-1.71.61-.46.42-.7.97-.73,1.65l-.64,14.12c-.07,1.5.61,2.39,2.03,2.66l-.09,2.05c-.3.05-.67.07-1.09.05-1.84-.08-3.22-.76-4.15-2.02-.39.56-.98.99-1.76,1.29-.78.3-1.54.42-2.26.36l-.64-.06.1-2.12c.69-.01,1.24-.28,1.66-.79.42-.52.64-1.13.68-1.83l.6-13.17c.1-2.24-.71-3.34-2.42-3.29l.1-2.15c.5-.19,1.1-.27,1.78-.24,1.35.06,2.49.63,3.43,1.7.86-.99,2.12-1.44,3.77-1.37.47.02.96.11,1.47.25l-.1,2.28ZM245.95,391.68l.49-10.76c.03-.6-.04-1.25-.2-1.97-.16-.82-.4-1.41-.72-1.77.26.46.36,1.36.29,2.71l-.51,11.21c-.08,1.71-.34,2.78-.79,3.21.46-.13.81-.5,1.08-1.11.21-.48.33-.99.36-1.52Z"/><path class="cls-4" d="M291.25,391.28l.34,2.29c-.35.12-.79.23-1.31.31-1.96.32-3.5.06-4.62-.8-.36.58-1.03,1.1-2.02,1.55-.81.36-1.64.61-2.51.75-.42.07-.86.12-1.31.15l-.38-2.28c.94-.24,1.65-.75,2.16-1.52.5-.77.67-1.64.51-2.61l-1.4-8.5-5.24,10.06-8.55-8.93,1.62,9.84c.27,1.65,1.39,2.6,3.36,2.86l.38,2.31c-.33.1-.74.19-1.22.27-1.71.28-2.93.04-3.66-.73-.7,1-1.79,1.63-3.27,1.87-.3.05-.61.08-.93.09l-.42-2.53c.83-.2,1.49-.63,1.97-1.28.48-.65.65-1.41.51-2.27l-1.9-11.57c-.38-2.29-1.5-3.27-3.38-2.94l-.41-2.5,7.77-1.28,7.98,8.61,5.57-10.84,6.4-1.05.49,2.81c-.7.09-1.22.41-1.57.94-.35.53-.46,1.15-.35,1.84l2,12.18c.29,1.79,1.42,2.76,3.37,2.89ZM275.33,387.33l-7.55-7.96c-.42-.43-.89-.63-1.42-.58l8.55,9.16.42-.62ZM284.39,388.67l-1.93-11.77-.5.93,1.73,10.54c.29,1.75-.04,3-.98,3.74.62-.32,1.08-.8,1.39-1.45.31-.65.4-1.31.29-1.98Z"/><path class="cls-4" d="M315.29,371.91c1.21,2.99,1.44,5.93.7,8.82-.84,3.17-2.7,5.35-5.59,6.52-2.79,1.13-5.6.85-8.41-.85-2.57-1.57-4.44-3.79-5.61-6.69-1.2-2.97-1.41-5.91-.62-8.81.86-3.18,2.73-5.36,5.63-6.53,2.79-1.13,5.59-.84,8.38.87,2.52,1.56,4.37,3.79,5.54,6.68ZM304.88,386.47c-3.05-2.34-5.19-5.05-6.43-8.12-1.09-2.7-1.43-5.55-1-8.55-.48,1.39-.68,2.96-.6,4.71.07,1.75.39,3.31.95,4.7,1.24,3.07,3.61,5.49,7.09,7.27ZM309.53,375.02c-.78-1.92-1.68-3.63-2.7-5.12-1.61-2.32-3.04-3.22-4.3-2.72-1.47.6-2.05,2.21-1.72,4.84.22,1.64.76,3.51,1.62,5.63.69,1.7,1.63,3.29,2.83,4.76,1.62,1.99,3.06,2.73,4.34,2.22,2.19-.88,2.17-4.09-.07-9.61ZM311.9,373.97c-1.23-3.03-3.29-5.46-6.2-7.28l.14.08c2.17,2,3.87,4.52,5.1,7.55,1.28,3.15,1.75,5.99,1.44,8.52.89-2.94.73-5.9-.48-8.87Z"/><path class="cls-4" d="M345.76,362.15c.61.9.75,1.9.43,3-.33,1.1-.95,1.96-1.87,2.58-1.65,1.11-3.37,1.26-5.17.44-1.42-.95-2.82-1.9-4.21-2.84-1.51-1.01-2.77-1.19-3.76-.52-.34.23-.6.51-.79.84-.22.43-.23.81,0,1.13l1.62,2.39c.43.64,1.01,1.07,1.74,1.3s1.4.15,2.03-.25l1.4,2.07c-.31.31-.7.63-1.18.95-1.45.98-2.73,1.18-3.83.58-.08,1.48-.79,2.67-2.12,3.56-.48.32-1.04.57-1.67.74l-1.17-1.72c.52-.45.81-1.02.87-1.69.06-.67-.1-1.29-.48-1.86l-7.38-10.9c-.98-1.45-1.94-1.86-2.88-1.22-.18.12-.35.29-.51.5l-1.4-2.07c.45-.71,1.05-1.33,1.81-1.85,1.36-.92,2.78-1.08,4.25-.47.17-.89.61-1.83,1.3-2.82.67-.92,1.4-1.65,2.2-2.18,1.88-1.27,3.84-1.69,5.9-1.27,2.06.43,3.72,1.58,4.99,3.46.77,1.13,1.09,2.33.96,3.59-.13,1.26-.68,2.37-1.65,3.34,1.12-.14,2.27.08,3.46.64.87.52,1.73,1.02,2.58,1.49.85.47,1.49.56,1.94.26.58-.4.8-1.33.66-2.81.87.45,1.51.98,1.93,1.6ZM328.92,370.98l-6.14-9.07c-.34-.5-.78-.98-1.32-1.43-.64-.52-1.2-.84-1.69-.95.46.23,1.08.9,1.83,2.02l6.39,9.45c.96,1.42,1.39,2.43,1.29,3.05.28-.39.35-.92.21-1.58-.09-.56-.28-1.05-.57-1.48ZM330.79,356.06c-.54-.79-1.15-1.31-1.82-1.55-.76-.28-1.52-.17-2.28.35-1.91,1.29-2.32,2.75-1.21,4.38l2.88,4.25c.41-.15.78-.33,1.1-.55,1.24-.84,1.98-1.88,2.23-3.14.25-1.25-.04-2.5-.88-3.74ZM332.59,354.72c-.65-.96-1.74-1.41-3.29-1.37,1.19.38,2.15,1.12,2.9,2.22.57.85.87,1.82.89,2.92.36-1.49.2-2.74-.5-3.77ZM342.34,366.83c-.9.01-2.23-.62-4-1.9-1.66-1.2-2.96-1.68-3.88-1.44.38,0,1.12.4,2.21,1.21,1.4,1.04,2.37,1.7,2.92,1.97,1.13.57,2.05.63,2.74.16Z"/><path class="cls-4" d="M363.91,338.67l5.19,5.79-1.2,1.25-1.66-.4c-.49,1.93-1.43,3.62-2.83,5.07-1.35,1.4-2.94,2.17-4.76,2.32-.07,1.83-.62,3.29-1.66,4.37-.25.26-.53.48-.85.65l-1.71-1.65c.46-.48.52-1.11.19-1.91-.24-.61-.62-1.18-1.16-1.7l-8.44-8.11c-.77-.74-1.53-1.22-2.29-1.44-1.01-.31-1.79-.06-2.36.75l-1.68-1.62.42-.49c1.76-1.92,3.22-2.66,4.38-2.19.31-1.9,1.11-3.51,2.4-4.85.47-.49,1.21-1.02,2.2-1.57.99-.56,1.65-1,1.96-1.32.55-.57.63-1.13.24-1.68l1.84-.68,3.57,3.39-.86,1.71c-.9-.57-1.9-.75-3-.53-1.1.22-2.03.72-2.78,1.51-1.07,1.11-1.49,2.17-1.28,3.18.18.74.79,1.6,1.82,2.6.2.19.52.5.95.91.43.39.76.69.99.91.39-.16.74-.4,1.05-.72,1.01-1.05.78-2.34-.69-3.87l1.62-1.55c.14.1.31.25.51.44,1.53,1.47,2.05,2.62,1.56,3.46,1.24-.21,2.48.22,3.74,1.29l-1.78,1.85c-.75-.31-1.29-.47-1.6-.47-.48.01-.98.29-1.5.83-.34.35-.48.73-.41,1.12,1.68,1.62,2.83,2.62,3.43,2.99,1.67,1.05,3.05,1,4.13-.12,1.17-1.22,1.79-2.51,1.86-3.86.1-1.45-.44-2.78-1.6-3.99l2.03-1.65ZM347.08,343.39c-.43-.42-.96-.81-1.59-1.17-.73-.41-1.33-.62-1.8-.62.5.13,1.24.66,2.21,1.59l8.09,7.78c1.23,1.19,1.86,2.09,1.89,2.71.41-.82.06-1.76-1.03-2.81l-7.77-7.47Z"/><path class="cls-4" d="M382.15,322.06l-.19.32c-2.62-1.55-5.49-1.92-8.61-1.12-3.12.8-5.45,2.51-7,5.14l-.32-.19c1.55-2.62,1.92-5.5,1.12-8.62-.8-3.12-2.52-5.45-5.13-7l.19-.33c2.62,1.55,5.5,1.93,8.61,1.12,3.12-.8,5.45-2.52,7-5.14l.32.19c-1.55,2.62-1.93,5.5-1.12,8.61s2.51,5.45,5.14,7Z"/><path class="cls-4" d="M401.07,271.63l2.22.64c-.04.37-.12.81-.27,1.32-.53,1.92-1.42,3.2-2.66,3.86.38.57.56,1.4.56,2.48,0,.88-.13,1.75-.37,2.59-.11.41-.25.83-.41,1.25l-2.22-.61c.17-.95.02-1.81-.48-2.59-.49-.78-1.21-1.3-2.15-1.56l-8.3-2.29,6.94,8.97-11.69,4.02,9.61,2.65c1.61.45,2.94-.17,4.01-1.85l2.26.62c-.05.34-.14.75-.27,1.22-.46,1.67-1.19,2.68-2.2,3.02.62,1.06.73,2.31.33,3.75-.08.29-.18.58-.31.88l-2.47-.68c.17-.84.05-1.62-.34-2.32-.39-.71-1.01-1.18-1.85-1.41l-11.3-3.12c-2.24-.62-3.6,0-4.09,1.83l-2.44-.67,2.1-7.59,11.17-3.64-7.51-9.6,1.73-6.26,2.76.73c-.21.67-.14,1.28.2,1.82.34.54.85.9,1.53,1.09l11.9,3.29c1.75.48,3.1-.13,4.04-1.85ZM390.82,284.43l-10.38,3.52c-.57.2-.94.55-1.13,1.05l11.9-3.93-.39-.64ZM395.83,276.77l-11.5-3.18.63.84,10.29,2.84c1.71.47,2.7,1.29,2.98,2.46-.03-.7-.28-1.32-.73-1.87-.46-.55-1.02-.91-1.68-1.09Z"/><path class="cls-4" d="M393.33,239.5c3.47.11,6.23.91,8.28,2.4,2.4,1.76,3.55,4.3,3.45,7.62-.07,2.39-.79,4.15-2.15,5.26.61.51,1.07,1.2,1.4,2.08.33.88.48,1.73.45,2.56,0,.3-.04.59-.09.86l-2.05-.06c-.13-.71-.47-1.3-1.02-1.76-.55-.47-1.2-.71-1.94-.73l-12.56-.39c-1.02-.03-1.87.09-2.54.37-.91.4-1.31,1.05-1.21,1.95l-2.21-.07c-.05-.34-.08-.76-.06-1.25.06-1.94.68-3.19,1.85-3.73-1.11-1.34-1.63-3.2-1.56-5.57.1-3.35,1.32-5.85,3.65-7.49,2.07-1.48,4.84-2.16,8.32-2.05ZM392.51,245.41c-1.96-.06-3.74.12-5.31.55-2.35.61-3.55,1.65-3.59,3.11-.06,1.87,1.06,2.84,3.34,2.91l11.99.37c.77.02,1.46-.12,2.07-.42.74-.39,1.12-.93,1.14-1.64.05-1.8-1.17-3.12-3.66-3.95-1.59-.54-3.58-.85-5.97-.93ZM388.19,255.38c-1.77-.05-3.01.24-3.72.88.46-.24,1.36-.34,2.71-.3l11.22.34c1.71.05,2.78.3,3.22.74-.25-.84-1.14-1.29-2.65-1.33l-10.77-.33ZM393.08,243.4c-4.08-.12-6.9.62-8.44,2.24,2.19-1.09,4.9-1.58,8.13-1.48,3.61.11,6.48.79,8.6,2.03-1.42-1.73-4.19-2.66-8.29-2.79Z"/><path class="cls-4" d="M144.7,289.25c-.44-.19-.56.11-.85.27-7.81,4.29-16.28,8.91-24.23,14.91-1.24.93-1.43,2.61-.2,4.17,1.51-1.09,3.06-2.2,4.69-.62,1.16,1.13.8,1.85-.21,2.92-.5.52-4.9,3.56-5.58,3.87-3.31,1.54-6.41-1.83-2.9-4.21-2.2-2.84-3.52-5.84-1.26-9.12.92-1.34,4.03-3.69,5.46-4.7,9.74-6.89,21.04-12.55,30.72-19.45,2.18-1.55,2.49-2.44,3.38-4.97,1.31-3.7,2-7.74,3.59-11.4,1.81-4.18,5.93-6.72,6.49-11.43-2.71-.35-5.16-2.67-6.55-4.92-4.18-6.73-3.75-17.14.7-23.65,1.56-2.29,2.88-1.78,4.2-2.9.93-.8-.45-3.05-.63-4.22-.2-1.33.07-2.91-.04-4.19-.23-2.57-1.23-5.22-.18-7.75,1.5-3.61,6.24-8.26,8.55-11.99,3.68-5.94,4.55-10.78,9.93-15.85,1.82-1.72,4.83-3.04,6.9-4.66,2.52-1.97,2.17-1.82,5.08-3.3,5.05-2.56,10.51-12.83,15.14-17.38,5.16-5.07,16.37-13.18,23.3-14.87,12.63-3.07,28.64.19,41.75.68,3.95.15,8-.4,11.91-.06,11.44,1.01,22.28,3.8,32.84,8.25,9.43,3.98,25.82,20.69,30.67,29.76,1.23,2.3,1.93,5,3.37,7.13,4.54,6.7,10.66,12.76,12.86,20.8,1.41,5.14,1.31,11.01,2.32,16.34.79,4.14,2.35,7.61,2.26,11.93-.1,4.55-1.43,8.97-1.76,13.47-.22,2.96.42,6.29.42,9.29,0,11.06-3.96,27.14-9.15,36.94-5.54,10.45-13.54,19.47-21.66,27.96-10.07,10.54-22.82,24.36-37.04,28.41-4.26,1.21-13.64,2.24-18.04,1.92s-8.59-1.94-12.94-.39l-10.41,8.18c-1.22.73-3.99,1.6-5.4,1.59-11.77-.1-23.34-3.19-34.73-6.13-15.51-4.01-30.45-8.45-44.47-16.36-6.67-3.76-12.72-8.56-19.17-12.66-5.65-3.59-11.39-5.21-14.24-12.05-2.79-6.68,2.7-13.69,5.13-19.57ZM290.64,330.33c.9.15,1.79.32,2.71.34,3.63.1,13.17-1.86,16.1-3.92,3.94-2.77,11.29-10.27,14.82-13.97,1.95-2.04,3.41-4.34,5.46-6.29,5.03-4.79,10.9-9.19,15.27-14.64,4.05-5.04,6.93-13.87,9.14-20.12,2.68-7.57,4.29-19.16,4.55-27.25.08-2.52-.65-5.5-.8-8.08-.49-8.42,1.8-16.65,1.58-25.06-.23-8.82-10.36-17.02-14.3-24.43-2.77-5.22-4.13-8.52-8-13.35-7.25-9.05-18.84-20.02-29.77-24.1-8.04-3-21.73-6.41-30.24-6.88-2.43-.13-5.41.63-7.98.63-8.73,0-17.55-.9-26.22-1.56-12.83-.97-20.54,2.48-29.9,10.68-3.89,3.41-7.08,7.55-10.18,11.67,2.34.81,4.94.23,7.36.44,1.88.17,7.03.81,8.34,1.87,1.23,1,2.01,3.38,2.28,4.91-.79.34-1.64.64-2.49.77-4.31.69-8.03.19-12.24-.07-2.51-.15-5.08,1.01-7.53,1.55-1.09.24-2.65.13-3.65.45-1.32.42-3.2,2.12-4.75,2.79-2.02.87-5.83,1.19-7.38,2.25-.29.2-4.04,4.89-4.35,5.4-1.1,1.77-1.7,4.13-2.78,6.12-1,1.84-2.58,4.27-3.79,6.01-2.18,3.12-7.19,8-7.16,11.85,0,.86,1.58,8.17,1.9,8.47,3.4.62,6.91-.84,10.18.73,2.2,1.06,2.7,2.73,3.29,4.97-2.12-.03-3.94.92-5.9,1.39-3.79.91-10.18,1.2-12,5.05-1.26,2.67-2.33,6.28-2.64,9.2-.06.57-.28,3.72-.2,3.89.48.97,3.81-.36,4.67-.7,1.18-.47,2.3-1.12,3.42-1.72-.6-.4-.6-1.46-.87-1.82-.25-.34-1.08-.48-1.25-1.07-.47-1.57.33-1.73,1.61-1.64,2.95.2,5.79,1.73,8.65,1.88,1.09.06,1.93-.45,2.78-.39,2.69.2.08,3.74-.68,4.85-2.1,3.06-4.82,5.68-7.02,8.64-1.27,1.7-3.66,4.46-2.44,6.56l2.13-.68c.13-.96.98-1.95,1.21-2.74.4-1.33.27-3.56.79-4.67.17-.36,3.92-3.11,4.51-3.43.7-.38,1.55-.41,1.07.49-.51.96-1.99,1.88-.37,2.72,1.22-.6,1.45-2.07,2.03-3.16,1.44-.18,1.7,1.54,2.81,1.79.68.15,2.71-.28,3.32-.62,1.6-.9-.43-3.45.98-4.41,2.23,1.65,1.48,4.53,1.8,6.88.15,1.1.75,2.08.7,3.23.2.49.78.06,1.1-.11,2.62-1.34,6.59-4.04,9.14-5.75.64-.43,1.32-.91,1.85-1.47-3.27-.22-5.41,2.33-8.38.17-2.02-1.47-1.88-2.74-2.48-4.74-.21-.7-.83-1.05-.83-1.98,0-1.99,1.52-2.15,1.84-3.23.32-1.09-.51-2.11.19-3.87.67-1.69,5.8-7.61,7.29-9.23,3.18-3.46,8.06-8.3,11.69-11.22,4.85-3.9,6.31-2.4,7.95,3.06,2.02,6.72.97,13.63-.21,20.42l4.17-2.8c.4-4.2.44-8.75,3.04-12.29,1.2.03,1.44.93,1.65,1.91.46,2.18.53,5.07.16,7.26l9.08-5.36c.54-.77-.21-2.78-.25-3.81-.09-2.23.27-5.43.77-7.61.31-1.36,2.22-4.88,2.16-5.53-.05-.53-2.04-3.97-2.47-4.76-.95-1.75-2.53-3.83-3.31-5.53-.17-.37-.39-.75-.2-1.18l.73-.62,6.2,10.68c2-3.42,5.27-5.54,8.07-8.12-.57-11.26-2.35-22.42-2.6-33.73-.38-.36-4.08.69-4.81.9-2.46.69-5.13,1.63-7.59,2.44-1.82.6-9.55,3.94-10.88,3.31-.37-.26-.45-.49-.26-.92.72-1.65,15.36-6.05,17.84-6.67,45.81-11.43,88.71,15.07,102.76,58.99,2.04,6.37,3.43,12.76,3.26,19.51-.53-.06-1.11-.04-1.2-.64l-2.33-16.13c-10.7,3-21.05,7.33-32,9.42l-.99-1.37c3.37-1.3,7.02-1.68,10.5-2.61,7.22-1.94,14.25-4.64,21.52-6.44l.55-.53c-4.47-14.2-12.33-27.35-23.01-37.73-4.65,5.52-9.21,11.17-14.22,16.38-2.78,2.89-10.28,8.85-11.79,11.71-1.71,3.24-3.58,8.39-4.36,11.95-.94,4.3-1.29,8.77-2.79,12.96,1.6-.25,11.89-4.06,12.43-3.49-.72,1.74-1.98,1.3-3.49,1.79s-9.61,3.21-10.18,4.02c-1.01,1.46-1.39,2.89-2.92,4.32-.81.75-5.8,2.37-7.05,2.53-6.28.83-12.72-1.93-18.4-4.23-4.89-1.98-13.42-5.38-16.46-9.72-.42-.6-1.59-3.45-2.02-3.42l-10.09,6.47c-.63,1.1-.62,3.44-1.83,4.14-.53.31-2.3.51-3.16.8-.28.1-1.8,1.21-1.44.28.13-.33.79-.95-.02-.99-.99.89-3.31,1.76-4.09,2.73-.61.77-.51,2.35-1.14,3.56-.4.78-1.75,2.21-2.5,2.66-2.42,1.44-4.88-.13-6.89.51l-9.85,6.59.7,2.18c-1.15-.2-5.36,2.53-5.64,3.33-.16.44-.12.98-.23,1.44-1.56.23-1.38-2.54-2.17-2.48-.18.01-2.89,1.88-2.89,2.08.99,1.45,1.36,3.25,1.38,4.98,1.14-.32,2.17-.77,3.34-1.04.79-.18,3.44-.69,4.06-.53,1.44.37,1.96,4.35,2.3,4.4,1.32-.89,5.01-2.65,6.5-2.19,1.24.39,2.02,4.67,1.99,5.93,1.39-.32,2.39-1.32,3.85-1.62,4.83-1,3.76,3.11,5.04,6.23,1.17-.67,4.76-2.82,5.97-2.28,1.56.69,2.77,6.27,3.13,6.35,4.56-1.98,5.04.43,6.84,3.94,2.24-.26,3.33-1.24,4.96,1.15-.42-1.99,1.94-3.54,2.33-4.65.22-.62.48-2.47.5-3.16.05-1.65-2.23-4.96-1.51-6.5.61-1.3,2.45-2.31,3.84-1.65-.49,1.17-.25,3.28,1.02,3.94.21-1.57-.42-3.51,1.53-4.15.32-.11,1.72-.27,1.97-.18.73.27-.24.89-.22,1.34.06,1.06,4.11,3.61,5.16,3.95,4.22,1.34,12.04-.86,14.9,2.9.51.67.69,1.61,1.25,2.36,2.09,2.79,7.63,5.24,10.64,7.43,4.49,3.27,6.71,6.16,12.28,8.33,1.77.69,3.12,1.5,4.87.36,5.4-3.5,6.81-7.61,6.55-13.89-.12-2.8-2.53-7.27-4.8-8.89-.94-.67-2.12-.87-3.1-1.48-.92-.58-1.95-2.04-2.75-2.43-1.17-.57-2.67-.49-3.67-1.76-1.53-1.93-1.02-7.9-.43-10.17,1.53-5.91,3.46-7,7.18-10.97,3-3.21,2.27-9.05,4.83-12.59.53-.73,1.34-1.11,1.69-1.84.49-1,.4-2.12.73-3.16.74-2.32,1.91-3.96,4.46-2.91,2.73,1.12,4.73,9.79,6.15,12.59,2.29,4.51,3.73.42,6.64.4,1.59-.01,2.83.62,3.99,1.63,3.27-3.11,4.83-1.42,4.87,2.54.04,3.05-.51,7.51-.79,10.67-.05.58-.43,1.04-.49,1.72-.27,3.18,1.73.73,2.65-.37,2.91-3.5,8.56-14.89,9.75-19.29.58-2.16.23-4.81.78-6.61.09-.29-.02-.55.45-.33.21.1,3.59,2.7,3.74,2.88.75.84,1.21,4.64,1.24,5.89.05,2.66-.1,7.29-.41,9.91-.06.5-.48.89-.49,1.41,1.41-.53,3.28-6.91,3.91-6.96.86-.07,1.26,4.19,1.23,4.95-.23,6.49-2.88,10.68-5.06,16.35-1.05,2.73-1.79,5.55-2.84,8.27-4.59,11.93-14.74,22.05-24.06,30.45-1.26,1.13-3.77,3.35-4.03,5.05-.38,2.44,2.08,3.13-.57,5.92-2.61,2.75-10.17,7.13-13.68,9.46-2.53,1.68-6.1,3.02-7.42,6.02ZM280.94,203.44l17.66-33.9c-.04-.57-8.15-3.97-9.33-4.42-6.76-2.54-15.66-4.79-22.87-4.97-1.71-.04-3.41.19-5.11.4l-.15,34.27c.27.57,10.32,3.79,11.84,4.49,2.7,1.25,5.06,3.24,7.96,4.12ZM255.51,193.85c1.17,0,2.62.54,3.83.59l.75-33.94c-1.67-.02-13.02.83-13.34,1.86l2.97,33.03c1.77-.27,3.98-1.54,5.78-1.54ZM308.49,175.28l-9.01-5.41c-.74,0-3.78,7.47-4.36,8.66-3.17,6.5-6.87,12.72-10.06,19.19-.45.92-3.08,6.22-2.88,6.69,3.72,2.01,5.71,5.69,6.58,9.7,1.03-.87,2.29-1.96,2.99-3.11,1.95-3.2,3.42-8.05,5.09-11.59,3.06-6.51,6.09-13.16,9.3-19.59.4-.81,2.56-4.07,2.36-4.53ZM294.84,208.01c8.79-7.01,15.68-16.04,23.43-24.14.18-.51-2.69-2.91-3.26-3.41-.75-.66-5.3-4.53-5.8-4.29-2.02,3.55-3.35,7.45-5.05,11.17-3.15,6.87-6.76,13.55-9.32,20.67ZM119.1,301.62c41.65-25.69,82.07-53.39,123.74-79.04,1.42-.87,8.8-5.61,9.72-5.62.62-.01.96.53,1.53.23,1.3-.68.64-1.92-.4-2.5-24.33,15.04-48.45,30.44-72.64,45.7-18.22,11.49-36.64,22.6-54.54,34.59-2.55,1.71-9.55,5.45-10.94,7.76-2,3.33-.09,6.03,1.56,8.94l-1.31,1.78c.41.51,5-2.8,5.16-3.66-.35-.17-.79.23-1.28.21-1.43-.08-2.39-1.89-2.74-3.12-.72-2.54.35-3.6,2.12-5.25ZM270.86,224.67c-3.65-.18-6.45,3.22-7.16,6.53-1.36,6.37,7.25,12.72,12.36,7.26,4.88-5.21,1.67-13.45-5.2-13.79ZM183.69,252l-1.05-.16c.36,1.93-3.38,3.41-3.39,4.68,0,.43.47,1.04.26,1.59.41.5,2.81-1,3.04-1.41.17-.3-.18-2.01.03-2.84.23-.94.84-1.07,1.11-1.86ZM175.03,252.02c-1.72.37-3.57,1.88-3.55,3.77l2.45-.18,1.11-3.6ZM178.08,253.3c-.42-.17-.56.06-.85.28-.37.28-2.7,2.16-2.77,2.33-.21.49.36,1.36.66,1.8.32.13,2.3-1.04,2.46-1.43.22-.52-.21-1.1-.14-1.59s.63-.85.64-1.39ZM172.39,258.64c-1.08-.08-2.5.4-3.27,1.13-.23.22-3.48,5.01-3.61,5.31-.23.52-.23,1.1-.32,1.64l4.34-5.42,2.85-2.66ZM166.34,259.33c-.66-.23-.49.05-.73.42-.8,1.21-1.58,2.46-2.33,3.7.51.19.66-.16.94-.47.73-.82,1.65-2.6,2.13-3.65ZM181.87,274.11c.91-1.92,4.3-6.11,4.26-8.08,0-.28-.04-.58-.32-.7s-4.48.31-4.98.5c-.96.35-1.13.87-1.56,1.7-.38.73-2.12,4.67-1.88,5.14s3.95,1.67,4.49,1.44ZM191.21,278.53l4.56-8.35c.21-.73-.1-1.91-.9-2.15-.95-.28-5.77.63-6.55,1.29-1.03.87-2.38,5.47-3.46,6.79-.15.57.01.3.32.45.68.33,5.71,2.12,6.03,1.97ZM204.3,270.85c-2.32-.14-4.45.92-6.65,1.44l-3.26,7.56c-.47,1.13,3.15,2.07,4.01,2.24,2.35.47,2.48-.36,3.47-2.29.53-1.04,2.59-5.03,2.77-5.83.23-1.01-.32-2.11-.34-3.12ZM238.98,288.55l3.62.76c.61-1.06,1.71-1.8,2.02-3.02.33-1.29-.28-5.82-1.07-6.83-.26-.33-1.31-1.31-1.53-.52-.29,1.02.1,1.98-.27,3.14-.39,1.23-3.71,5.55-2.77,6.48ZM203.43,283.91c1.26.82,4.77,2.43,6.07,1.51,1.11-.79,3.37-7.33,3.37-8.78,0-.33-.09-.96-.34-1.17-.65-.54-5.61.85-6.33,1.62-.48.51-2.95,6.41-2.77,6.83ZM162.19,268.69l-2.11-.32-.71,2.86c.25.38,3.12-1.66,2.82-2.54ZM221.06,278.02c-.44-.44-1.83,1.27-2.25,1.56-.47.32-2.67,1.36-2.78,1.61-.03.33.08.65,0,.97-.26.95-1.95,5.86-1.92,6.22.13,1.54,3.97,2.04,5.17,1.33l2.5-6.28-.72-5.42ZM245.16,291.98c1.01.36,2.1.8,3.2.72,3.74-.27,6.13-13.11-.14-8.17l-3.07,7.45ZM174.54,274.17c-.41-.57-4.37-.63-4.5-.32l-1.47,6.22,1.41,4.13,2.41-.88c.29-2.58,1.9-5.54,2.31-7.97.07-.39.02-.81-.16-1.17ZM167.54,274.38c-.7.44-4.2,2.28-4.43,2.75-.45.92-.22,3.38.52,4.21,2.41-1.93,3.92-3.67,3.91-6.96ZM226.51,295.34c.26-2.27,2.98-5.05,3.24-7.21.07-.58-.97-3.81-1.66-3.9-.88.98-2.25,1.63-3.6,1.64l-2.02,7.63c1.46.37,2.84.9,4.04,1.84ZM175.98,286.47l4.14-.86c.76-1.03,3.07-6.13,2.19-6.95l-5.19-1.44c-.56,3.11-2.76,6.21-1.14,9.25ZM234.68,287.95c-.27-.25-2.34,1.23-2.53,1.52-.33.5-.54,3.1-.81,3.98-.47,1.51-1.47,2.57-2.16,3.93l3.17.49c.34-2.51,2.78-5.34,3.05-7.79.1-.85-.74-1.32-.72-2.12ZM189.97,282.77c-.72-.79-3.4-1-4.39-1.81l-1.81.54c.33,2.2-1.19,4.12-1.67,6.2,2.2,1.56,2.58,2.3,5.03.76,1.64-1.03,4.64-3.74,2.84-5.7ZM162.97,283.58c-.81-1-1.41-3.09-2.03-4.27-.52-.25-3.71,1.31-4.16,1.96-2.32,5.89-5.69,11.29-8.4,16.98-.5,1.05-2.16,4.31-2.29,5.18-.18,1.22,5.84,5.41,6.98,6.49,1.2,1.14,2.22,2.76,3.46,3.79,2.73,2.27,9.78,6.12,13.13,7.95,14.73,7.99,29.71,12.25,45.79,16.57,7.63,2.05,15.44,4.33,23.23,5.46,4.74.69,9.07.11,13.78-.37.75-.08,6.08-1.15,6.5-1.37.92-.47,4.31-3.48,5.24-4.35,6.05-5.69,13.42-12.98,18.04-19.81.97-1.43,5.22-7.95,5.51-9.11.13-.51.07-4.46-.1-4.63-1.62-.55-3.22-.18-4.92-.61-4.54-1.15-4.85-6.84-7.24-7.58-3.88-1.21-2.78,4.45-1.77,6.46,1.85,3.67,8.56,2.5,8.25,8.48-.31,6.06-7.5,7.72-10.94,11.85-1.41,1.7-2.35,4.09-3.8,5.99-3.7,4.86-12.08,11.69-18.49,11.21-4.41-.33-8.84-1.6-13.16-2.32-2.3-.38-5.81,0-7.59-1.47-.55-.45-.74-1.28-1.43-1.53-1.6-.57-4.22-.33-5.8-.9-.55-.2-.64-.73-1-.91-1.01-.48-3.48.03-2.92-1.86.52-.53,9.06,1.31,10.62,1.37s2.95-.95,4.22-.96c3.04,0,7.82,1.47,10.55,1.28.71-.05,2.25-.96,3.08-1.23,3.9-1.28,6.8-2.27,10.3-4.49,4.9-3.12,9.13-7.36,12.42-12.14.77-1.13,3.35-4.32,2.48-5.58-.56-.78-1.84.17-2.39.59-3.26,2.47-4.94,6.01-9.24,8.17-1.37.69-3.43.85-3.22-1.16.14-1.36,1.11-1.09,1.87-1.64s6.04-7.91,6.69-9.08c.93-1.66,1.68-3.52,1.51-5.43-2.3-.67-4.17,1.56-5.56,3.1-4.79,5.3-7.04,12.43-15.89,10.63-1.68-.34-2.54-1.2-3.59-1.59-.53-.2-1.39.18-2.29-.19-.51-.2-.8-.86-1.26-.94-.48-.09-1.06.37-1.56.43-2.54.27-4.75.01-6.31-2.18l.62-1.26c-.31-.43-1.7,1.06-2.08,1.16-1.61.46-4.13-2.22-4.29-3.77-2.23.44-3.01,2.13-5.41,1.04-2.21-1.01-2.29-3.26-3.9-4.89-.37-.12-1.04.6-1.48.79-3.42,1.45-7.02-2.33-5.97-5.74-1.74.94-3.04,2.63-5.2,2.65-2,.02-4.78-1.63-4.62-3.89-.92.57-3.81,1.3-4.69.77-.98-.59-2.83-4.87-3.18-4.92l-3.84,1.77-4.01-3.56c-1.28-.15-3.6,1.2-4.72.91-1.25-.33-2.31-4.41-2.57-4.45-3.42,2.46-5.44,1.27-6.36-2.6-1.69.92-3.18,1.48-4.6-.27ZM239.6,291.14c-.31.19-1.21,4.94-1.5,5.78s-1.38,2.3-1.44,2.84c-.15,1.25,2.05,1.02,2.6.34.31-.38,2.19-5.02,2.26-5.57.14-1.04-.51-3.51-1.92-3.39ZM194.75,285.09c-1.48.16-2.78,4.33-4.2,5.17,1.06,3.25,3.36,2.43,5.73,1.08,1.8-1.03,3.89-2.61,2.96-4.95l-4.49-1.31ZM240.05,302.28c3.03,1.75,4.74-.68,5.59-3.39.88-2.79.14-3.6-1.97-5.23l-3.63,8.62ZM207.37,289.7c-1.38.04-3.61-2.2-4.66-1.4-.35.26-.84,2.47-1.17,3.2-.35.77-1.03,1.69-1.52,2.39s-1.32.7-.84,1.81c4.17.7,6.91-2.41,8.19-6ZM215.76,293.15c-1.38-.05-2.77-1.58-3.92-1.71-.66-.07-2.23.43-2.59.98-.4.61-.59,5.1-.46,5.95.08.52.79,1.09,1.05,1.58,1.79.51,6.18-6.38,5.92-6.8ZM225.13,297.29c-1.67-.18-3.87-1.83-5.29-2.12-2.07-.42-2.83,4.71-3.67,6.03l.83,1.82c2.3.25,4.54-1.7,6.08-3.25.31-.31,2.19-2.26,2.05-2.47ZM224.94,305.64c.39.15.62.05.97-.1.78-.35,4.24-4.41,4.6-5.24.13-.31.29-.39-.04-.7l-2.59-.8c-.08.83-.22,1.52-.54,2.3-.41.99-3.19,3.78-2.4,4.54ZM235.96,302.47l-1.9-.83c-3.62,3.49-.46,10.58,1.57,2.77.17-.64.24-1.29.33-1.94ZM239.4,304.75l-.59,3.83c1.74-.2,3.2-1.28,3.46-3.11.09-.61.03-.31-.35-.45-.54-.2-1.25-.27-1.81-.56l-.72.3Z"/><path class="cls-3" d="M270.86,224.67c6.86.33,10.07,8.58,5.2,13.79-5.11,5.46-13.72-.89-12.36-7.26.71-3.31,3.51-6.7,7.16-6.53ZM270.5,228.65c-1.33.18-3.23,3.78-3.07,4.95.09.61,1.77,2.45,2.37,2.74,2.6,1.29,5.76-1.96,5.44-4.46-.27-2.13-2.71-3.51-4.74-3.24Z"/><path class="cls-1" d="M290.64,330.33c1.32-2.99,4.88-4.34,7.42-6.02,3.51-2.33,11.08-6.71,13.68-9.46,2.65-2.79.2-3.48.57-5.92.26-1.7,2.77-3.91,4.03-5.05,9.32-8.39,19.47-18.51,24.06-30.45,1.04-2.72,1.79-5.54,2.84-8.27,2.18-5.67,4.82-9.87,5.06-16.35.03-.75-.37-5.02-1.23-4.95-.63.05-2.5,6.44-3.91,6.96,0-.52.43-.91.49-1.41.3-2.62.45-7.24.41-9.91-.02-1.25-.49-5.05-1.24-5.89-.16-.18-3.53-2.78-3.74-2.88-.47-.23-.36.04-.45.33-.54,1.81-.19,4.46-.78,6.61-1.19,4.4-6.84,15.78-9.75,19.29-.92,1.11-2.92,3.55-2.65.37.06-.69.44-1.14.49-1.72.28-3.17.83-7.62.79-10.67-.05-3.96-1.61-5.65-4.87-2.54-1.17-1-2.41-1.64-3.99-1.63-2.91.02-4.35,4.11-6.64-.4-1.42-2.8-3.42-11.47-6.15-12.59-2.55-1.04-3.72.59-4.46,2.91-.33,1.04-.24,2.16-.73,3.16-.36.73-1.17,1.11-1.69,1.84-2.56,3.54-1.82,9.38-4.83,12.59-3.72,3.97-5.65,5.06-7.18,10.97-.59,2.28-1.1,8.24.43,10.17,1,1.27,2.5,1.19,3.67,1.76.81.39,1.84,1.86,2.75,2.43.97.61,2.16.81,3.1,1.48,2.27,1.62,4.69,6.09,4.8,8.89.26,6.28-1.16,10.39-6.55,13.89-1.75,1.14-3.1.33-4.87-.36-5.58-2.18-7.79-5.06-12.28-8.33-3.01-2.19-8.55-4.64-10.64-7.43-.56-.75-.74-1.69-1.25-2.36-2.86-3.76-10.69-1.55-14.9-2.9-1.05-.33-5.1-2.89-5.16-3.95-.02-.45.95-1.07.22-1.34-.25-.09-1.65.07-1.97.18-1.95.64-1.32,2.58-1.53,4.15-1.26-.66-1.5-2.76-1.02-3.94-1.39-.66-3.23.35-3.84,1.65-.72,1.53,1.56,4.84,1.51,6.5-.02.69-.29,2.54-.5,3.16-.39,1.12-2.74,2.66-2.33,4.65-1.62-2.38-2.71-1.4-4.96-1.15-1.8-3.51-2.28-5.93-6.84-3.94-.37-.08-1.58-5.66-3.13-6.35-1.21-.54-4.8,1.61-5.97,2.28-1.28-3.12-.21-7.23-5.04-6.23-1.45.3-2.46,1.3-3.85,1.62.03-1.26-.74-5.54-1.99-5.93-1.49-.46-5.18,1.29-6.5,2.19-.34-.05-.86-4.03-2.3-4.4-.62-.16-3.27.35-4.06.53-1.17.27-2.2.71-3.34,1.04-.02-1.73-.39-3.53-1.38-4.98,0-.2,2.71-2.06,2.89-2.08.79-.05.6,2.72,2.17,2.48.11-.46.07-1.01.23-1.44.29-.8,4.5-3.53,5.64-3.33l-.7-2.18,9.85-6.59c2.01-.64,4.48.93,6.89-.51.75-.45,2.1-1.88,2.5-2.66.62-1.22.52-2.8,1.14-3.56.78-.98,3.1-1.85,4.09-2.73.81.04.15.66.02.99-.36.93,1.16-.18,1.44-.28.86-.29,2.64-.5,3.16-.8,1.2-.7,1.19-3.04,1.83-4.14l10.09-6.47c.43-.03,1.6,2.82,2.02,3.42,3.04,4.34,11.57,7.74,16.46,9.72,5.68,2.3,12.12,5.06,18.4,4.23,1.25-.17,6.24-1.78,7.05-2.53,1.54-1.43,1.91-2.86,2.92-4.32.56-.81,8.61-3.5,10.18-4.02s2.77-.05,3.49-1.79c-.54-.56-10.83,3.24-12.43,3.49,1.5-4.19,1.85-8.66,2.79-12.96.78-3.56,2.65-8.71,4.36-11.95,1.51-2.86,9.01-8.82,11.79-11.71,5.01-5.21,9.57-10.86,14.22-16.38,10.68,10.38,18.54,23.53,23.01,37.73l-.55.53c-7.27,1.79-14.3,4.5-21.52,6.44-3.48.93-7.12,1.31-10.5,2.61l.99,1.37c10.94-2.09,21.29-6.42,32-9.42l2.33,16.13c.09.6.67.58,1.2.64.17-6.75-1.22-13.15-3.26-19.51-14.05-43.93-56.95-70.43-102.76-58.99-2.48.62-17.12,5.02-17.84,6.67-.19.43-.11.66.26.92,1.32.63,9.06-2.71,10.88-3.31,2.46-.81,5.12-1.74,7.59-2.44.73-.21,4.43-1.26,4.81-.9.25,11.3,2.04,22.46,2.6,33.73-2.8,2.57-6.07,4.7-8.07,8.12l-6.2-10.68-.73.62c-.19.42.03.81.2,1.18.78,1.7,2.36,3.78,3.31,5.53.43.79,2.43,4.24,2.47,4.76.06.65-1.85,4.17-2.16,5.53-.5,2.18-.86,5.38-.77,7.61.04,1.02.8,3.03.25,3.81l-9.08,5.36c.37-2.19.3-5.08-.16-7.26-.21-.99-.45-1.88-1.65-1.91-2.6,3.53-2.65,8.09-3.04,12.29l-4.17,2.8c1.18-6.79,2.23-13.71.21-20.42-1.64-5.46-3.1-6.96-7.95-3.06-3.63,2.92-8.51,7.76-11.69,11.22-1.49,1.62-6.61,7.54-7.29,9.23-.7,1.76.13,2.79-.19,3.87-.32,1.08-1.83,1.24-1.84,3.23,0,.93.61,1.28.83,1.98.6,2,.47,3.27,2.48,4.74,2.98,2.17,5.11-.39,8.38-.17-.53.56-1.21,1.04-1.85,1.47-2.54,1.71-6.51,4.41-9.14,5.75-.32.16-.9.6-1.1.11.04-1.15-.55-2.13-.7-3.23-.32-2.35.43-5.23-1.8-6.88-1.4.96.62,3.51-.98,4.41-.61.34-2.64.77-3.32.62-1.11-.24-1.36-1.97-2.81-1.79-.58,1.09-.8,2.56-2.03,3.16-1.63-.84-.15-1.76.37-2.72.48-.9-.37-.87-1.07-.49-.59.32-4.35,3.07-4.51,3.43-.52,1.11-.39,3.35-.79,4.67-.23.78-1.08,1.78-1.21,2.74l-2.13.68c-1.22-2.1,1.17-4.86,2.44-6.56,2.2-2.96,4.92-5.59,7.02-8.64.76-1.11,3.38-4.65.68-4.85-.86-.06-1.69.45-2.78.39-2.85-.16-5.7-1.69-8.65-1.88-1.28-.08-2.08.08-1.61,1.64.18.59,1,.73,1.25,1.07.26.36.26,1.42.87,1.82-1.12.6-2.24,1.25-3.42,1.72-.85.34-4.19,1.67-4.67.7-.09-.17.14-3.33.2-3.89.31-2.92,1.38-6.53,2.64-9.2,1.82-3.85,8.21-4.14,12-5.05,1.96-.47,3.78-1.42,5.9-1.39-.58-2.24-1.09-3.91-3.29-4.97-3.27-1.57-6.78-.11-10.18-.73-.31-.3-1.89-7.61-1.9-8.47-.03-3.86,4.99-8.73,7.16-11.85,1.21-1.74,2.79-4.17,3.79-6.01,1.08-1.98,1.68-4.34,2.78-6.12.32-.51,4.07-5.21,4.35-5.4,1.55-1.05,5.36-1.38,7.38-2.25,1.55-.67,3.43-2.37,4.75-2.79,1-.32,2.56-.21,3.65-.45,2.45-.53,5.02-1.7,7.53-1.55,4.21.25,7.92.76,12.24.07.85-.14,1.7-.44,2.49-.77-.27-1.53-1.05-3.91-2.28-4.91-1.31-1.06-6.45-1.71-8.34-1.87-2.42-.21-5.02.37-7.36-.44,3.11-4.12,6.29-8.26,10.18-11.67,9.36-8.19,17.06-11.65,29.9-10.68,8.67.66,17.49,1.56,26.22,1.56,2.57,0,5.55-.76,7.98-.63,8.51.47,22.2,3.88,30.24,6.88,10.92,4.08,22.51,15.05,29.77,24.1,3.87,4.83,5.22,8.13,8,13.35,3.93,7.41,14.07,15.6,14.3,24.43.22,8.4-2.07,16.64-1.58,25.06.15,2.58.88,5.56.8,8.08-.26,8.09-1.87,19.67-4.55,27.25-2.21,6.24-5.1,15.08-9.14,20.12-4.37,5.45-10.25,9.85-15.27,14.64-2.05,1.95-3.51,4.25-5.46,6.29-3.53,3.7-10.89,11.2-14.82,13.97-2.93,2.06-12.47,4.02-16.1,3.92-.92-.03-1.81-.2-2.71-.34ZM220.47,162.88c7.57-5.48,22.63-7.75,31.81-7.6,18.18.3,31.43,2.09,47.78,10.36,8.49,4.3,15.22,10.67,22.19,17,4.11,3.73,13.67,11.69,15.86,16.25,4.49,9.33,9.31,27.1,10.33,37.41.17,1.71-.29,5.6.03,6.77.81,2.95,1.76,2.29,1.37,6.49-1.04,11.18-5.91,26.43-10.6,36.68-.47,1.03-2.6,3.89-2.16,4.76.91.71,2.89.74,3.79,0,.76-.61,3.04-4.28,3.6-5.31,6.32-11.74,8.9-24.2,9.6-37.38.58-10.77,1.33-22.19-1.78-32.66-1.99-6.7-5.31-15.5-8.1-21.94-2.81-6.47-11.95-16.67-17.27-21.55-3.36-3.08-6.76-5.05-10.17-7.77-1.29-1.03-2.32-2.49-3.76-3.57-19.07-14.27-40.58-16.1-63.5-12.85-3.08.44-5.27,1.7-7.98,2.22-1.93.37-3.93.31-5.98.8-5.58,1.34-16.11,6.18-20.18,10.18-.65.64-1.43,1.53-.58,2.31l4.1.89c.7-.11,1.08-1.13,1.59-1.5ZM221.27,172.1c-.2,0-.62.37-.25.64,1.46,2.89,2.56,6.11,4.09,8.95.58,1.07,1.5,3.69,2.85,2.07-1.71-3.23-3.39-7.21-5.44-10.25-.23-.34-.87-1.43-1.26-1.42ZM236.45,180.96c-2.37,1.36-8.31,2.95-9.57,5.5-.98,1.99.37,3.88.12,5.31-.1.59-.92,1.26-1.17,1.9-.7,1.82,1.48,6.08,3.65,3.99,2.05-1.96,2.86-5.26,5.51-6.9.31-.71-1.21-2.71-1.28-3.45-.19-2.09,4.58-3.7,4.73-4.61.05-.71-1.4-1.81-1.98-1.75ZM173.84,209.32c.5.84,2.16,2.47,3.14,2.73,1.24.33,4.63.53,6.12.66,5.33.48,13.73,1.23,18.88-.15,3.53-.95,14.72-9.3,16.4-12.47,1.1-2.08.99-7.86.34-10.2s-2.86-5.5-4.92-6.93c-5.31-3.67-19.46-3.61-25.09-.31-3.26,1.91-7.82,10.89-10.04,14.43-1.79,2.86-6.98,8.62-4.82,12.24ZM195.97,220.83c.48-.44,1.19-1.47.53-1.99l-8.16,1.97v.96s1.39.38,1.39.38l.34.45c-.03,1.23-1.68,4.93-.42,5.69.13.08.66.23.67-.06.93-2.78,2.59-4.98,4.71-6.96.27-.26.74-.28.94-.46ZM251.54,255.34c.12-.04.68-.86.75-1.06.78-2.44-3.11-5.55-4.86-6.96-2.88-2.32-6.71-4.35-9.45-6.66-1.34-1.13-2.33-2.66-3.85-3.62-.19.86.34,1.67.72,2.4,1.93,3.8,9.77,11.88,13.28,14.4.66.47,2.71,1.76,3.42,1.49ZM281.46,247.09c-2.27.11-5.19,2.97-7.26,3.53-1.36.36-4.95-.39-5.42.6-.68,1.43.75,1.76,1.93,2.01,3.33.69,8.76.35,11.3-2.19,1.42-1.43,2.33-4.08-.55-3.94ZM274.16,261.12c-.06-.09-.63-.46-.67-.45-.79,1.47-.58,3.21-1.07,4.77-.71,2.23-3.87,5.66-3.35,7.72.44,1.74,1.94.81,3.07.83,2.91.06,4.21,2.94,6.84,3.73.91-3.12-1.19-4.29-2.51-6.47-.45-.75-1.67-3.24-1.87-4.01-.42-1.61.21-5.1-.43-6.12ZM202.9,264.28l.65-4.22c.18-1.14,6.49-1.1,7.43-2.97.2-.4.16-.95.4-1.38.55-.99,2.16-1.91,2.27-3.31.14-1.76-2.32.35-3.08.6-1.8.59-7.17.45-8.28,2.14-.52.79-1.25,7.91-.85,8.7.11.22.61.47.79.71l.68-.27ZM221.38,265.61c-.79-1.72-1.34-4.9-2.59-6.19-.23-.24-.25-.56-.73-.52-.39.33-.15,3.18-.36,3.8-.24.69-1.06.8-1.33,1.74-.36,1.26.19,2.39.02,3.27-.12.64-.94,1.35-1.14,2.26-.31,1.44.25,2.78,1.48,3.6.35-.02,1.8-2.71,2.31-3.25.88-.94,2.3-1.29,2.57-2.73.57.03,1.34.06,1.81.38.2.13,1.66,3.52,1.7,3.9.24,2.28-1.76,5.6.65,7.13,1.63-3.12,2.78-4.92,2-8.61-.25-1.21-1.57-3.62-1.55-4.49.02-.73.79-1.75.58-2.65l-.96-.46-1.29,2.72-3.18.09ZM233.74,265.92c-1.12-.86-3.25.51-3.48,1.75-.42,2.3,1.98,7.92,2.28,10.48.02.53-1.84,2.3-.94,2.58.82.26,3.36-2.01,3.54-2.85.07-.32-.46-3.63-.57-4.25-.44-2.47-1.95-5.28-.84-7.7ZM211.07,267.42c.35-1.06.46-3.01.65-4.22.11-.69-1.87-1.28-2.35-.31-.13,1.84-.04,3.75-.89,5.45l1.06,1.15c.2.03,1.44-1.76,1.53-2.06Z"/><path class="cls-1" d="M162.97,283.58c1.42,1.75,2.91,1.19,4.6.27.92,3.87,2.94,5.06,6.36,2.6.26.04,1.32,4.12,2.57,4.45,1.12.29,3.44-1.05,4.72-.91l4.01,3.56,3.84-1.77c.35.05,2.2,4.33,3.18,4.92.89.53,3.77-.2,4.69-.77-.16,2.26,2.61,3.91,4.62,3.89,2.16-.02,3.46-1.71,5.2-2.65-1.05,3.41,2.55,7.19,5.97,5.74.45-.19,1.11-.91,1.48-.79,1.6,1.63,1.69,3.88,3.9,4.89,2.4,1.09,3.18-.6,5.41-1.04.15,1.55,2.68,4.23,4.29,3.77.38-.11,1.76-1.59,2.08-1.16l-.62,1.26c1.56,2.19,3.77,2.45,6.31,2.18.5-.05,1.07-.52,1.56-.43.46.09.75.74,1.26.94.9.36,1.75-.02,2.29.19,1.05.4,1.92,1.25,3.59,1.59,8.85,1.8,11.1-5.33,15.89-10.63,1.39-1.54,3.26-3.77,5.56-3.1.17,1.92-.58,3.77-1.51,5.43-.65,1.17-5.94,8.54-6.69,9.08s-1.73.28-1.87,1.64c-.21,2.01,1.84,1.85,3.22,1.16,4.29-2.16,5.98-5.7,9.24-8.17.55-.41,1.83-1.37,2.39-.59.88,1.25-1.7,4.45-2.48,5.58-3.29,4.78-7.52,9.02-12.42,12.14-3.5,2.22-6.4,3.22-10.3,4.49-.83.27-2.37,1.18-3.08,1.23-2.73.19-7.5-1.29-10.55-1.28-1.27,0-2.6,1.02-4.22.96s-10.1-1.9-10.62-1.37c-.56,1.9,1.91,1.38,2.92,1.86.36.17.45.71,1,.91,1.58.57,4.2.34,5.8.9.69.25.88,1.07,1.43,1.53,1.78,1.46,5.29,1.08,7.59,1.47,4.32.72,8.75,1.99,13.16,2.32,6.41.47,14.78-6.35,18.49-11.21,1.45-1.91,2.39-4.29,3.8-5.99,3.44-4.13,10.62-5.79,10.94-11.85.31-5.98-6.4-4.81-8.25-8.48-1.01-2-2.12-7.66,1.77-6.46,2.39.75,2.7,6.43,7.24,7.58,1.7.43,3.3.06,4.92.61.17.16.22,4.11.1,4.63-.29,1.16-4.54,7.69-5.51,9.11-4.62,6.82-11.99,14.12-18.04,19.81-.93.87-4.33,3.88-5.24,4.35-.42.22-5.74,1.29-6.5,1.37-4.71.48-9.05,1.06-13.78.37-7.79-1.13-15.59-3.42-23.23-5.46-16.09-4.31-31.07-8.57-45.79-16.57-3.36-1.82-10.4-5.68-13.13-7.95-1.24-1.03-2.26-2.65-3.46-3.79s-7.17-5.27-6.98-6.49c.13-.88,1.79-4.13,2.29-5.18,2.71-5.68,6.08-11.09,8.4-16.98.45-.65,3.64-2.21,4.16-1.96.62,1.18,1.22,3.26,2.03,4.27ZM157.72,299.61c.02-.76.69-1.15.84-1.89.18-.89-.33-2.02-.15-2.73.18-.72,1.45-.66,1.8-1.4.4-.85-.07-1.87.2-2.75-1.4.46-3.78.04-4.69,1.45-.35.55-.01,1.05-.32,1.75-.86,1.95-4.63,4.35-4.53,6.49.06,1.29,1.1,3.06,2.14,3.83,3.32,2.47,8.26,5.93,12.01,7.6,2.39,1.06,5.04,1.64,7.48,2.71s4.73,3.02,7.55,3.25c.12-2.56-2.9-2.14-4.18-3.37-.44-.43-.53-1.27-.95-1.88-1.59-2.34-4.47-2.84-6.65-4.25,1.62-.52,1.16-1.22,1.2-2.64-1.21-.13-2.54-.35-3.26-1.49,1.01-1.32,1.96-2.3,1.97-4.13-2.01.93-4.59.33-4.57,3.35-1.51-.13-2.08-.92-1.48-2.35l1.98-.73-.11-4.7c-.77.22-2.67.36-2.81,1.33l.2,1.5c-1,.16-2.25.32-2.39,1.54l-1.26-.47ZM177.38,294.81c-.72.34-2.16.87-2.42,1.67-.28.88.24,1.38.15,1.79-.18.74-2,2.72.05,3.24.8.2,2.65-1.44,2.88-2.16.45-1.38-.44-1.42-.65-2.31-.14-.59,0-1.58,0-2.23ZM191.31,304.21c-.42.49-5.66,1.04-6.38.66-.77-.41-.08-3.16-.41-4.16-.73-2.25-2.31,1.09-2.47,2.26-.27,1.99,1.16,4.27,1.05,5.58-.17,1.82-2.2,4.76-1.56,6.29,1.14,2.73,5.64-.72,7.44-1.18.92-.24,1.85-.11,2.75-.4.26-.27,1.41-6.3,1.42-7.16.02-1.15-.3-2.77-1.65-2.89-.08.3-.01.79-.2,1.01Z"/><path class="cls-1" d="M280.94,203.44c-2.9-.88-5.26-2.87-7.96-4.12-1.52-.7-11.57-3.92-11.84-4.49l.15-34.27c1.69-.2,3.39-.44,5.11-.4,7.21.18,16.11,2.43,22.87,4.97,1.18.44,9.29,3.85,9.33,4.42l-17.66,33.9ZM277.53,186.49c-.25-.34-.92-.45-1.33-.55-3.52-.85-6.9,0-10.31-1.32-1.3,1.29-.4,1.94.76,2.69,2.72,1.77,6.3,2.99,9.1,4.71.41,0,.62-.06.86-.41.65-.94,1.64-4.13.91-5.13Z"/><path class="cls-1" d="M308.49,175.28c.2.47-1.96,3.73-2.36,4.53-3.2,6.43-6.24,13.08-9.3,19.59-1.66,3.54-3.14,8.39-5.09,11.59-.7,1.15-1.96,2.25-2.99,3.11-.87-4.01-2.86-7.69-6.58-9.7-.2-.46,2.42-5.77,2.88-6.69,3.19-6.47,6.89-12.68,10.06-19.19.58-1.19,3.62-8.67,4.36-8.66l9.01,5.41Z"/><path class="cls-1" d="M255.51,193.85c-1.8,0-4,1.28-5.78,1.54l-2.97-33.03c.32-1.03,11.67-1.88,13.34-1.86l-.75,33.94c-1.21-.05-2.66-.59-3.83-.59Z"/><path class="cls-1" d="M179.01,260.76c-.07,1,.36,2.16.03,3.14-.26.78-2.7,4.55-3.33,5.53-1.17,1.83-1.38,2.64-3.67,1.94-.84-.26-4.35-1.53-3.77-2.62l3.98-7.21c3.13-2.23,4.47-1.15,6.76-.79Z"/><path class="cls-1" d="M294.84,208.01c2.56-7.12,6.17-13.8,9.32-20.67,1.7-3.71,3.03-7.61,5.05-11.17.5-.25,5.05,3.63,5.8,4.29.57.5,3.44,2.9,3.26,3.41-7.75,8.09-14.64,17.13-23.43,24.14Z"/><path class="cls-1" d="M204.3,270.85c.02,1.01.57,2.11.34,3.12-.18.8-2.24,4.79-2.77,5.83-.99,1.93-1.12,2.76-3.47,2.29-.86-.17-4.48-1.1-4.01-2.24l3.26-7.56c2.2-.52,4.33-1.58,6.65-1.44Z"/><path class="cls-1" d="M191.21,278.53c-.32.15-5.35-1.64-6.03-1.97-.31-.15-.47.13-.32-.45,1.08-1.32,2.43-5.92,3.46-6.79.78-.66,5.6-1.57,6.55-1.29.8.23,1.11,1.41.9,2.15l-4.56,8.35Z"/><path class="cls-1" d="M203.43,283.91c-.18-.41,2.29-6.32,2.77-6.83.72-.76,5.68-2.15,6.33-1.62.25.21.34.83.34,1.17,0,1.45-2.26,7.99-3.37,8.78-1.3.92-4.82-.69-6.07-1.51Z"/><path class="cls-1" d="M221.06,278.02l.72,5.42-2.5,6.28c-1.2.7-5.04.21-5.17-1.33-.03-.36,1.66-5.27,1.92-6.22.09-.33-.02-.65,0-.97.1-.25,2.3-1.3,2.78-1.61.43-.29,1.81-2,2.25-1.56Z"/><path class="cls-1" d="M181.87,274.11c-.54.23-4.26-.98-4.49-1.44s1.5-4.41,1.88-5.14c.44-.84.61-1.35,1.56-1.7.5-.18,4.7-.61,4.98-.5s.32.42.32.7c.04,1.97-3.35,6.15-4.26,8.08Z"/><path class="cls-1" d="M175.98,286.47c-1.61-3.05.59-6.14,1.14-9.25l5.19,1.44c.88.82-1.43,5.93-2.19,6.95l-4.14.86Z"/><path class="cls-1" d="M226.51,295.34c-1.2-.94-2.58-1.47-4.04-1.84l2.02-7.63c1.36-.01,2.73-.66,3.6-1.64.69.09,1.74,3.32,1.66,3.9-.27,2.16-2.98,4.95-3.24,7.21Z"/><path class="cls-1" d="M189.97,282.77c1.8,1.95-1.2,4.67-2.84,5.7-2.46,1.54-2.83.8-5.03-.76.48-2.08,2-3.99,1.67-6.2l1.81-.54c.99.81,3.66,1.02,4.39,1.81Z"/><path class="cls-1" d="M174.54,274.17c.18.36.22.78.16,1.17-.41,2.44-2.02,5.4-2.31,7.97l-2.41.88-1.41-4.13,1.47-6.22c.13-.3,4.09-.25,4.5.32Z"/><path class="cls-1" d="M194.75,285.09l4.49,1.31c.92,2.33-1.16,3.91-2.96,4.95-2.36,1.36-4.67,2.17-5.73-1.08,1.42-.84,2.72-5.01,4.2-5.17Z"/><path class="cls-1" d="M245.16,291.98l3.07-7.45c6.27-4.94,3.88,7.9.14,8.17-1.1.08-2.19-.36-3.2-.72Z"/><path class="cls-1" d="M225.13,297.29c.14.21-1.75,2.16-2.05,2.47-1.54,1.55-3.78,3.51-6.08,3.25l-.83-1.82c.85-1.32,1.6-6.45,3.67-6.03,1.42.29,3.63,1.94,5.29,2.12Z"/><path class="cls-1" d="M215.76,293.15c.26.42-4.13,7.31-5.92,6.8-.25-.49-.97-1.06-1.05-1.58-.13-.85.06-5.34.46-5.95.36-.55,1.92-1.05,2.59-.98,1.16.13,2.55,1.66,3.92,1.71Z"/><path class="cls-1" d="M238.98,288.55c-.94-.93,2.37-5.25,2.77-6.48.37-1.16-.02-2.12.27-3.14.22-.79,1.28.19,1.53.52.79,1.01,1.41,5.54,1.07,6.83-.32,1.22-1.41,1.96-2.02,3.02l-3.62-.76Z"/><path class="cls-1" d="M207.37,289.7c-1.29,3.59-4.02,6.71-8.19,6-.48-1.12.36-1.13.84-1.81s1.18-1.63,1.52-2.39c.33-.72.82-2.93,1.17-3.2,1.05-.8,3.28,1.44,4.66,1.4Z"/><path class="cls-1" d="M240.05,302.28l3.63-8.62c2.11,1.63,2.85,2.44,1.97,5.23-.85,2.71-2.57,5.14-5.59,3.39Z"/><path class="cls-1" d="M234.68,287.95c-.02.81.82,1.28.72,2.12-.28,2.45-2.72,5.28-3.05,7.79l-3.17-.49c.68-1.36,1.68-2.42,2.16-3.93.27-.88.48-3.48.81-3.98.2-.29,2.27-1.77,2.53-1.52Z"/><path class="cls-1" d="M239.6,291.14c1.4-.12,2.05,2.35,1.92,3.39-.07.54-1.95,5.18-2.26,5.57-.55.68-2.75.91-2.6-.34.06-.54,1.15-2,1.44-2.84s1.19-5.59,1.5-5.78Z"/><path class="cls-1" d="M167.54,274.38c.01,3.29-1.5,5.03-3.91,6.96-.74-.83-.97-3.29-.52-4.21.23-.47,3.73-2.31,4.43-2.75Z"/><path class="cls-1" d="M224.94,305.64c-.79-.76,1.99-3.55,2.4-4.54.32-.78.46-1.47.54-2.3l2.59.8c.33.31.17.39.04.7-.35.83-3.82,4.89-4.6,5.24-.35.16-.59.25-.97.1Z"/><path class="cls-1" d="M235.96,302.47c-.09.65-.17,1.3-.33,1.94-2.03,7.8-5.19.72-1.57-2.77l1.9.83Z"/><path class="cls-1" d="M183.69,252c-.27.79-.88.92-1.11,1.86-.2.84.14,2.55-.03,2.84-.23.41-2.63,1.91-3.04,1.41.21-.55-.26-1.16-.26-1.59,0-1.27,3.75-2.75,3.39-4.68l1.05.16Z"/><path class="cls-1" d="M172.39,258.64l-2.85,2.66-4.34,5.42c.09-.55.09-1.12.32-1.64.13-.29,3.37-5.08,3.61-5.31.77-.74,2.19-1.21,3.27-1.13Z"/><path class="cls-1" d="M239.4,304.75l.72-.3c.56.3,1.27.36,1.81.56.38.14.44-.16.35.45-.27,1.84-1.72,2.92-3.46,3.11l.59-3.83Z"/><path class="cls-1" d="M178.08,253.3c0,.54-.57.89-.64,1.39s.36,1.07.14,1.59c-.16.39-2.14,1.56-2.46,1.43-.3-.43-.87-1.3-.66-1.8.07-.17,2.4-2.05,2.77-2.33.29-.22.42-.45.85-.28Z"/><path class="cls-1" d="M175.03,252.02l-1.11,3.6-2.45.18c-.02-1.89,1.83-3.41,3.55-3.77Z"/><path class="cls-1" d="M162.19,268.69c.29.87-2.58,2.92-2.82,2.54l.71-2.86,2.11.32Z"/><path class="cls-1" d="M166.34,259.33c-.48,1.05-1.4,2.83-2.13,3.65-.28.32-.43.66-.94.47.76-1.23,1.54-2.49,2.33-3.7.24-.37.07-.66.73-.42Z"/><path class="cls-4" d="M220.47,162.88c-.51.37-.89,1.4-1.59,1.5l-4.1-.89c-.84-.78-.07-1.67.58-2.31,4.07-4.01,14.6-8.85,20.18-10.18,2.05-.49,4.05-.43,5.98-.8,2.71-.51,4.9-1.78,7.98-2.22,22.92-3.25,44.43-1.43,63.5,12.85,1.44,1.08,2.47,2.53,3.76,3.57,3.41,2.72,6.81,4.7,10.17,7.77,5.32,4.88,14.46,15.08,17.27,21.55,2.79,6.44,6.11,15.23,8.1,21.94,3.1,10.47,2.36,21.9,1.78,32.66-.71,13.17-3.29,25.63-9.6,37.38-.56,1.04-2.84,4.7-3.6,5.31-.9.73-2.88.7-3.79,0-.44-.87,1.69-3.74,2.16-4.76,4.69-10.25,9.56-25.51,10.6-36.68.39-4.19-.57-3.54-1.37-6.49-.32-1.17.14-5.06-.03-6.77-1.02-10.31-5.84-28.07-10.33-37.41-2.2-4.56-11.75-12.51-15.86-16.25-6.97-6.33-13.69-12.71-22.19-17-16.35-8.27-29.6-10.05-47.78-10.36-9.18-.15-24.24,2.12-31.81,7.6Z"/><path class="cls-4" d="M173.84,209.32c-2.17-3.62,3.03-9.38,4.82-12.24,2.21-3.53,6.78-12.51,10.04-14.43,5.63-3.3,19.78-3.36,25.09.31,2.07,1.43,4.25,4.51,4.92,6.93s.76,8.12-.34,10.2c-1.67,3.17-12.87,11.52-16.4,12.47-5.15,1.38-13.55.62-18.88.15-1.49-.13-4.88-.33-6.12-.66-.98-.26-2.64-1.9-3.14-2.73ZM198.4,191.09c-9.26-.2-11.66,13.63-1.76,14.52,1.38.12,4.12-.05,5.36-.67,2.14-1.08,4.03-5,3.36-7.35-.89-3.16-3.45-6.41-6.96-6.49Z"/><path class="cls-4" d="M236.45,180.96c.58-.06,2.03,1.05,1.98,1.75-.15.91-4.92,2.52-4.73,4.61.07.74,1.59,2.74,1.28,3.45-2.65,1.63-3.46,4.93-5.51,6.9-2.18,2.09-4.36-2.17-3.65-3.99.25-.65,1.07-1.32,1.17-1.9.25-1.43-1.09-3.33-.12-5.31,1.26-2.55,7.2-4.14,9.57-5.5Z"/><path class="cls-4" d="M221.38,265.61l3.18-.09,1.29-2.72.96.46c.21.89-.56,1.92-.58,2.65-.02.87,1.3,3.28,1.55,4.49.78,3.68-.37,5.49-2,8.61-2.41-1.54-.41-4.85-.65-7.13-.04-.39-1.51-3.77-1.7-3.9-.47-.32-1.24-.35-1.81-.38-.27,1.44-1.69,1.78-2.57,2.73-.5.54-1.96,3.23-2.31,3.25-1.23-.81-1.79-2.15-1.48-3.6.19-.91,1.02-1.62,1.14-2.26.16-.88-.38-2.01-.02-3.27.27-.94,1.09-1.05,1.33-1.74.21-.62-.04-3.47.36-3.8.48-.05.5.27.73.52,1.25,1.29,1.8,4.47,2.59,6.19Z"/><path class="cls-4" d="M251.54,255.34c-.71.27-2.76-1.02-3.42-1.49-3.51-2.52-11.35-10.6-13.28-14.4-.37-.73-.91-1.54-.72-2.4,1.52.95,2.51,2.49,3.85,3.62,2.74,2.31,6.57,4.34,9.45,6.66,1.74,1.41,5.63,4.51,4.86,6.96-.06.2-.63,1.01-.75,1.06Z"/><path class="cls-4" d="M274.16,261.12c.65,1.02.02,4.52.43,6.12.2.78,1.42,3.27,1.87,4.01,1.33,2.18,3.43,3.35,2.51,6.47-2.63-.79-3.94-3.67-6.84-3.73-1.13-.02-2.63.9-3.07-.83-.52-2.06,2.64-5.49,3.35-7.72.49-1.56.29-3.3,1.07-4.77.04-.02.61.36.67.45Z"/><path class="cls-4" d="M202.9,264.28l-.68.27c-.18-.24-.68-.49-.79-.71-.4-.79.33-7.91.85-8.7,1.1-1.69,6.48-1.54,8.28-2.14.76-.25,3.22-2.36,3.08-.6-.11,1.4-1.71,2.32-2.27,3.31-.24.43-.2.97-.4,1.38-.94,1.87-7.25,1.83-7.43,2.97l-.65,4.22Z"/><path class="cls-4" d="M281.46,247.09c2.87-.14,1.97,2.52.55,3.94-2.54,2.54-7.97,2.88-11.3,2.19-1.18-.24-2.61-.58-1.93-2.01.47-.99,4.07-.24,5.42-.6,2.07-.55,4.99-3.42,7.26-3.53Z"/><path class="cls-4" d="M233.74,265.92c-1.11,2.41.4,5.23.84,7.7.11.63.64,3.93.57,4.25-.18.84-2.72,3.11-3.54,2.85-.9-.28.96-2.05.94-2.58-.3-2.56-2.71-8.18-2.28-10.48.23-1.24,2.36-2.6,3.48-1.75Z"/><path class="cls-4" d="M195.97,220.83c-.2.18-.67.21-.94.46-2.12,1.98-3.78,4.17-4.71,6.96-.01.29-.54.14-.67.06-1.26-.76.39-4.47.42-5.69l-.34-.45-1.4-.38v-.96s8.17-1.97,8.17-1.97c.66.52-.05,1.55-.53,1.99Z"/><path class="cls-4" d="M221.27,172.1c.39-.01,1.03,1.08,1.26,1.42,2.04,3.04,3.72,7.02,5.44,10.25-1.35,1.62-2.27-1-2.85-2.07-1.53-2.84-2.64-6.06-4.09-8.95-.37-.28.05-.63.25-.64Z"/><path class="cls-4" d="M211.07,267.42c-.1.3-1.33,2.09-1.53,2.06l-1.06-1.15c.85-1.7.76-3.61.89-5.45.48-.96,2.46-.38,2.35.31-.19,1.22-.3,3.16-.65,4.22Z"/><path class="cls-4" d="M157.72,299.61l1.26.47c.14-1.22,1.39-1.38,2.39-1.54l-.2-1.5c.14-.96,2.04-1.11,2.81-1.33l.11,4.7-1.98.73c-.6,1.43-.02,2.22,1.48,2.35-.02-3.02,2.56-2.43,4.57-3.35,0,1.83-.96,2.81-1.97,4.13.71,1.14,2.04,1.35,3.26,1.49-.04,1.42.42,2.12-1.2,2.64,2.18,1.41,5.07,1.91,6.65,4.25.42.62.5,1.46.95,1.88,1.28,1.23,4.3.82,4.18,3.37-2.82-.23-5.05-2.14-7.55-3.25s-5.09-1.65-7.48-2.71c-3.75-1.67-8.69-5.13-12.01-7.6-1.03-.77-2.08-2.54-2.14-3.83-.1-2.14,3.67-4.54,4.53-6.49.31-.69-.03-1.2.32-1.75.91-1.41,3.29-.99,4.69-1.45-.27.88.2,1.9-.2,2.75-.35.74-1.62.68-1.8,1.4-.18.71.33,1.84.15,2.73-.15.74-.82,1.13-.84,1.89Z"/><path class="cls-4" d="M191.31,304.21c.19-.22.12-.71.2-1.01,1.35.12,1.66,1.74,1.65,2.89-.01.86-1.17,6.89-1.42,7.16-.9.29-1.83.16-2.75.4-1.8.46-6.3,3.91-7.44,1.18-.64-1.53,1.39-4.47,1.56-6.29.12-1.31-1.32-3.59-1.05-5.58.16-1.17,1.74-4.51,2.47-2.26.32,1-.36,3.75.41,4.16.72.38,5.95-.16,6.38-.66Z"/><path class="cls-4" d="M177.38,294.81c0,.64-.14,1.63,0,2.23.21.89,1.1.94.65,2.31-.23.72-2.09,2.36-2.88,2.16-2.05-.52-.22-2.5-.05-3.24.1-.4-.43-.91-.15-1.79.26-.8,1.7-1.33,2.42-1.67Z"/><path class="cls-4" d="M277.53,186.49c.73,1-.26,4.19-.91,5.13-.24.35-.45.4-.86.41-2.8-1.72-6.38-2.94-9.1-4.71-1.16-.75-2.06-1.41-.76-2.69,3.41,1.32,6.79.47,10.31,1.32.4.1,1.08.21,1.33.55Z"/><path class="cls-4" d="M270.5,228.65c2.03-.27,4.48,1.11,4.74,3.24.31,2.5-2.84,5.75-5.44,4.46-.6-.3-2.28-2.13-2.37-2.74-.16-1.17,1.74-4.78,3.07-4.95Z"/><path class="cls-3" d="M198.4,191.09c3.5.08,6.06,3.33,6.96,6.49.67,2.35-1.22,6.27-3.36,7.35-1.24.63-3.98.8-5.36.67-9.89-.88-7.5-14.72,1.76-14.52ZM197.79,195.04c-5.82.1-3.88,9.94,2.37,6.74.75-.38,1-.7,1.23-1.52.87-3.14-.07-5.28-3.6-5.22Z"/><path class="cls-4" d="M197.79,195.04c3.53-.06,4.47,2.08,3.6,5.22-.23.82-.48,1.14-1.23,1.52-6.25,3.2-8.19-6.64-2.37-6.74Z"/><path class="cls-4" d="M184.79,261.87s-4.77,2.94-5.53,3.44c-1.7,1.13-5.34,3.02-6.95,4.28-1.03.8-3.75,3.65-3.75,3.65l-5.28-4.24s8.74-4.71,11.28-6.33c1.28-.82,5.08-3.36,5.08-3.36l5.16,2.56Z"/><path class="cls-2" d="M119.1,301.62c-1.77,1.65-2.83,2.72-2.12,5.25.35,1.24,1.31,3.04,2.74,3.12.48.03.92-.38,1.28-.21-.17.86-4.75,4.18-5.16,3.66l1.31-1.78c-1.65-2.91-3.57-5.61-1.56-8.94,1.39-2.32,8.4-6.06,10.94-7.76,17.9-11.99,36.32-23.09,54.54-34.59,24.2-15.26,48.31-30.66,72.64-45.7,1.04.58,1.7,1.82.4,2.5-.57.3-.91-.24-1.53-.23-.92.02-8.3,4.75-9.72,5.62-41.67,25.65-82.1,53.35-123.74,79.04Z"/><path class="cls-4" d="M103.34,256.93c2.39-.34,4.52.17,6.37,1.52s2.95,3.23,3.29,5.62c.14,1.02.05,1.99-.3,2.93l2.86-.41c.74-.1,1.25-.44,1.54-1,.29-.56.34-1.21.14-1.96l2.25-.32c.27.54.46,1.18.56,1.9.21,1.44-.14,2.63-1.04,3.58,1.16.89,1.88,2.26,2.14,4.1.05.38.08.77.07,1.16l-2.06.29c-.1-.68-.37-1.22-.83-1.63-.46-.41-1.01-.57-1.67-.47l-13.87,1.97c-.76.11-1.36.39-1.79.84-.49.52-.67,1.15-.54,1.89l-2.54.36c-.12-.37-.21-.82-.29-1.35-.27-1.88.08-3.33,1.03-4.36-1.5-1.56-2.37-3.25-2.63-5.07-.34-2.41.19-4.53,1.59-6.35,1.4-1.82,3.31-2.9,5.73-3.25ZM103.19,260.29c-1.7.24-3.21,1.14-4.52,2.68,1.41-1.08,3.07-1.76,5.01-2.04,1.97-.28,3.81.06,5.51,1.03-.78-.62-1.73-1.09-2.85-1.41-1.12-.32-2.16-.4-3.14-.27ZM103.47,262.38c-.47.07-.88.15-1.23.24-.75.19-1.48.6-2.19,1.22-.87.73-1.25,1.45-1.15,2.15.12.81.5,1.48,1.15,2.02.65.54,1.37.75,2.15.64l7.37-1.05c.2-.55.26-1.15.17-1.81-.21-1.46-.98-2.47-2.31-3.04-1.08-.47-2.4-.6-3.94-.38ZM114.65,270.64l-10.67,1.52c-1.76.25-2.92.76-3.51,1.54.41-.34,1.27-.6,2.61-.79l11.11-1.58c1.69-.24,2.79-.18,3.3.18-.39-.79-1.34-1.07-2.84-.86Z"/><path class="cls-4" d="M111.68,230.93c2.29.11,4.13,1.14,5.54,3.09,1.33,1.82,1.93,3.89,1.82,6.22-.05,1.05-.37,2.2-.97,3.47-.6,1.27-.89,1.86-.89,1.77-.02.34.29.49.91.43l-.12,2.43-8.47-.05-.05-2.28c1.34-.32,2.74-1.08,4.19-2.27,1.63-1.33,2.47-2.6,2.52-3.8.04-.94-.24-1.78-.84-2.51-.61-.73-1.38-1.12-2.32-1.17-1.58-.08-2.73.95-3.45,3.08-1.32,3.9-2,5.89-2.05,5.97-1.21,2.1-3.19,3.09-5.92,2.96-2.16-.1-3.87-1-5.14-2.69-1.19-1.58-1.73-3.48-1.62-5.7.1-2.05.77-4.13,2.03-6.23l-1.14-.41.34-1.81h7.64s.07,1.94.07,1.94c-4.1.73-6.22,2.48-6.35,5.25-.05.98.3,1.85,1.03,2.59.74.74,1.61,1.14,2.61,1.18.79.04,1.46-.58,2.01-1.86.45-1.35.9-2.7,1.35-4.05.59-1.71,1.26-2.88,2-3.53,1.63-1.44,3.39-2.12,5.27-2.03ZM112.05,234.58c-2.48-.12-4.14,2.03-5,6.44-.31,1.57-1.01,2.85-2.11,3.85-1.14,1.08-2.5,1.59-4.05,1.54.44.11.87.17,1.28.19,1.47.07,2.68-.41,3.63-1.43.72-.76,1.34-1.93,1.87-3.51.38-1.29.76-2.58,1.15-3.86.22-.67.82-1.3,1.77-1.87.96-.58,1.8-.85,2.53-.81.34.02.68.08,1.02.18-.71-.44-1.4-.68-2.08-.71Z"/><path class="cls-4" d="M102.2,198.22l2.49.61c-.16.73-.01,1.59.43,2.57.38.82.86,1.55,1.46,2.2l6.29,6.7,5.73,1.4c.58.14,1.14,0,1.67-.45.53-.44.86-1.01.98-1.71l2.07.5c.05.67-.02,1.38-.2,2.13-.39,1.58-1.22,2.53-2.51,2.85.91,1.24,1.16,2.68.76,4.34-.15.62-.41,1.23-.78,1.83l-2.06-.5.03-.13c.17-.68.14-1.3-.09-1.85s-.68-.91-1.34-1.07l-5.24-1.28-9.31,2.91c-1.22.38-1.89.6-2.01.63-.82.37-1.3.84-1.43,1.4-.03.12-.06.25-.09.37l-2.34-.57c0-.64.1-1.33.28-2.08.44-1.81,1.25-2.88,2.44-3.23-.88-.92-1.11-2.22-.7-3.9.11-.44.26-.88.46-1.34l2.42.62c-.25.29-.4.56-.46.81-.15.6,0,.96.44,1.06.32.08,1.49-.2,3.51-.82,1.22-.43,2.45-.84,3.68-1.25-.71-.86-1.44-1.73-2.17-2.61-1.21-1.35-2.12-2.1-2.72-2.25-.85-.21-1.38.42-1.58,1.89l-2.24-.55c.04-.62.15-1.29.32-1.99.42-1.73,1.12-2.69,2.09-2.87-.65-1.32-.78-2.65-.41-4l.13-.39ZM117.08,215.52l-5.56-1.36-9.58,2.88c-.41.12-.87.35-1.39.68-.58.39-.93.74-1.05,1.06.3-.43,2.21-1.15,5.73-2.17,2.14-.6,4.28-1.2,6.44-1.8,1.18.24,2.02.43,2.52.55,2.86.7,4.39,1.36,4.62,1.98-.14-.98-.7-1.59-1.71-1.84Z"/><path class="cls-4" d="M127.51,180.5c1.83,1.1,3.06,2.77,3.71,5.01.65,2.24.53,4.33-.35,6.28-1.3,2.89-3.4,4.69-6.31,5.42-2.69.71-5.52.4-8.51-.95-3.12-1.4-5.42-3.28-6.89-5.63-1.69-2.71-1.87-5.54-.53-8.5.74-1.64,1.97-3.09,3.68-4.36l-.72-.99.92-1.73,7.14,3.21-.78,1.72c-3.85-.77-6.29-.02-7.31,2.26-.76,1.7-.32,3.43,1.32,5.2,1.22,1.35,2.81,2.46,4.76,3.34,2.03.91,3.96,1.38,5.81,1.38,2.43.02,4.05-.86,4.84-2.64.58-1.29.59-2.64.04-4.06-.51-1.31-1.37-2.38-2.56-3.23l1.74-1.75ZM126.94,194.73c-1.5.57-3.28.76-5.33.59-1.89-.17-3.63-.61-5.21-1.32-2.34-1.05-4.47-2.68-6.38-4.88.89,2.3,2.94,4.17,6.16,5.62,1.83.83,3.65,1.28,5.44,1.36,2.07.09,3.85-.37,5.33-1.37Z"/><path class="cls-4" d="M141.01,158.47l5.64,6.29-1.27,1.85-1.16-.13c-.37,1.74-1.06,3.35-2.06,4.81-1.14,1.66-2.49,2.59-4.07,2.81.42,1.46.24,2.76-.54,3.91-.32.46-.73.85-1.24,1.18l-1.88-1.29c.51-.74.61-1.54.3-2.4-.28-.76-.79-1.4-1.55-1.92l-10.15-6.97c-1.32-.9-2.65-.62-4,.87l-1.85-1.27c.17-.4.42-.84.74-1.32,1.04-1.51,2.28-2.39,3.71-2.62-.32-1.39.04-2.84,1.08-4.35.22-.32.46-.62.73-.9l1.88,1.29-.05.08c-.5.65-.65,1.31-.46,2,.19.69.63,1.27,1.33,1.75l11.2,7.7c.9-.42,1.69-1.11,2.36-2.08,1.55-2.25,1.36-5.02-.57-8.29l1.87-.97ZM134.33,171.82l-8.88-6.1c-.47-.33-1.07-.61-1.78-.86-.79-.28-1.43-.38-1.89-.3.52.04,1.33.45,2.44,1.21l9.25,6.36c1.41.97,2.18,1.76,2.31,2.36.29-.91-.19-1.8-1.44-2.66Z"/><path class="cls-4" d="M158.65,140.87l5.09,5.89-1.22,1.23-1.66-.43c-.53,1.92-1.5,3.59-2.92,5.02-1.38,1.38-2.98,2.12-4.8,2.23-.1,1.83-.68,3.27-1.74,4.33-.26.26-.54.47-.86.64l-1.68-1.67c.47-.47.54-1.1.23-1.9-.23-.62-.6-1.19-1.13-1.72l-8.29-8.26c-.75-.75-1.51-1.25-2.27-1.48-1-.32-1.79-.09-2.37.71l-1.65-1.65.43-.48c1.8-1.89,3.27-2.6,4.42-2.12.34-1.89,1.17-3.49,2.49-4.81.48-.48,1.23-1,2.23-1.53,1-.54,1.67-.97,1.98-1.29.56-.56.65-1.12.27-1.68l1.85-.64,3.51,3.45-.89,1.7c-.89-.59-1.89-.78-2.99-.58-1.1.2-2.04.68-2.81,1.46-1.09,1.09-1.53,2.14-1.33,3.15.17.74.76,1.62,1.77,2.63.2.2.51.5.93.93.42.39.75.7.98.93.39-.15.75-.39,1.06-.7,1.03-1.03.82-2.32-.62-3.88l1.65-1.52c.14.11.3.26.5.45,1.5,1.49,2,2.66,1.5,3.49,1.24-.18,2.48.27,3.72,1.35l-1.81,1.82c-.75-.32-1.28-.49-1.59-.5-.48,0-.98.27-1.51.8-.35.35-.49.72-.43,1.11,1.65,1.65,2.78,2.67,3.38,3.05,1.65,1.08,3.03,1.06,4.13-.04,1.19-1.2,1.83-2.47,1.93-3.83.12-1.45-.39-2.79-1.53-4.02l2.06-1.61ZM141.74,145.3c-.42-.42-.95-.82-1.57-1.2-.73-.42-1.32-.64-1.79-.65.5.13,1.23.68,2.18,1.63l7.95,7.92c1.21,1.21,1.83,2.12,1.84,2.74.42-.82.1-1.76-.98-2.83l-7.63-7.61Z"/><path class="cls-4" d="M179.53,126.37c1.28,1.9,1.56,3.99.84,6.28-.66,2.15-1.96,3.88-3.89,5.18-.87.59-1.99,1.02-3.36,1.3-1.37.28-2.02.4-1.95.35-.28.19-.22.52.2.99l-2.02,1.37-5.03-6.82,1.8-1.41c1.06.88,2.5,1.55,4.33,1.99,2.04.5,3.56.42,4.55-.25.78-.53,1.28-1.25,1.51-2.18.23-.93.07-1.78-.45-2.56-.89-1.31-2.4-1.62-4.53-.92-3.91,1.28-5.92,1.92-6.01,1.93-2.41.29-4.38-.7-5.92-2.97-1.21-1.79-1.52-3.7-.93-5.72.55-1.9,1.75-3.46,3.59-4.71,1.7-1.15,3.77-1.85,6.2-2.1l-.35-1.15,1.66-.81,4.57,6.13-1.5,1.21c-3.04-2.85-5.71-3.5-8.01-1.94-.82.55-1.3,1.34-1.45,2.38-.15,1.03.05,1.96.61,2.8.44.66,1.34.82,2.7.5,1.35-.45,2.7-.89,4.05-1.34,1.72-.54,3.06-.72,4.03-.51,2.13.44,3.72,1.44,4.78,3ZM176.83,128.85c-1.39-2.05-4.1-2.1-8.15-.15-1.44.69-2.89.9-4.34.61-1.55-.27-2.77-1.04-3.66-2.32.18.42.39.8.61,1.13.83,1.22,1.93,1.91,3.32,2.05,1.04.12,2.35-.08,3.93-.6,1.26-.46,2.52-.93,3.78-1.39.67-.22,1.53-.12,2.56.3s1.76.94,2.16,1.54c.19.28.35.59.47.92-.07-.83-.3-1.53-.68-2.09Z"/><path class="cls-4" d="M203.74,115.22c.61,2.04.39,4.11-.63,6.2-1.03,2.09-2.53,3.56-4.49,4.41-2.9,1.26-5.68,1.18-8.32-.24-2.47-1.28-4.35-3.43-5.65-6.43-1.36-3.14-1.79-6.07-1.3-8.8.58-3.14,2.35-5.35,5.34-6.64,1.65-.71,3.53-.96,5.66-.74l.14-1.21,1.85-.66,3.11,7.18-1.74.75c-2.33-3.16-4.64-4.25-6.93-3.25-1.71.74-2.55,2.32-2.53,4.73,0,1.82.42,3.71,1.27,5.67.88,2.04,2,3.69,3.36,4.94,1.79,1.65,3.57,2.09,5.36,1.32,1.29-.56,2.22-1.56,2.76-2.98.5-1.31.6-2.68.28-4.11l2.46-.12ZM193.74,125.36c-1.49-.59-2.94-1.64-4.34-3.15-1.28-1.4-2.27-2.9-2.96-4.49-1.02-2.35-1.5-4.99-1.43-7.91-.89,2.3-.64,5.06.77,8.3.8,1.84,1.83,3.4,3.1,4.67,1.47,1.46,3.09,2.32,4.86,2.58Z"/><path class="cls-4" d="M235.59,112.85l.46,2.16c-.16.08-.38.15-.68.21-1.99.43-3.56.16-4.73-.79-.92,1.33-2.42,2.22-4.51,2.67-.36.08-.71.13-1.05.16l-.44-2.07c.65-.14,1.21-.36,1.7-.66.68-.41.96-.86.86-1.37-.06-.29-.36-.75-.89-1.38-.37-.4-.74-.81-1.12-1.24l-9.72,2.08c-.26,1.43-.36,2.31-.29,2.64.28,1.31,1.38,1.74,3.29,1.28l.45,2.09c-.28.13-.63.23-1.05.32-1.44.31-2.67.09-3.68-.66-1.04,1.18-2.19,1.91-3.47,2.18-.48.1-.95.11-1.41.01l-.44-2.04c1.51-.39,2.41-1.3,2.69-2.75.57-2.86,1.15-5.73,1.73-8.62.94-4.82,1.35-7.48,1.24-7.99-.14-.65-.63-.88-1.46-.71-.25.05-.51.11-.78.17l-.49-2.46c.4-.19.89-.35,1.47-.48,1.92-.41,3.49-.09,4.7.96.29-.68.83-1.29,1.61-1.81.71-.48,1.46-.81,2.25-.98.44-.09.89-.15,1.34-.16l.49,2.27c-.52.13-.94.37-1.26.7-.4.39-.54.83-.44,1.31.07.31.25.65.54,1.01l10.06,12.24c1.15,1.39,2.15,1.95,3.01,1.65ZM222.6,107.63l-5.07-6.32-1.3,7.68,6.38-1.37ZM228.6,112.38c-.18-.86-.51-1.58-.98-2.16l-8.02-10.06c-.29-.33-.8-.59-1.52-.78l10.52,13Z"/><path class="cls-4" d="M260.78,99.74c-.01,2.42-.82,4.44-2.43,6.08s-3.62,2.45-6.04,2.44c-1.03,0-1.98-.24-2.85-.72v2.89c-.02.75.24,1.31.75,1.67.51.37,1.15.51,1.92.43v2.28c-.59.19-1.24.28-1.97.28-1.45,0-2.58-.53-3.39-1.56-1.05,1.02-2.51,1.53-4.37,1.52-.38,0-.77-.04-1.15-.1v-2.08c.7,0,1.27-.19,1.75-.59.47-.39.71-.92.71-1.58l.07-14.01c0-.77-.18-1.4-.57-1.9-.45-.56-1.04-.83-1.79-.81v-2.57c.4-.06.86-.09,1.39-.09,1.9,0,3.29.56,4.16,1.66,1.76-1.25,3.56-1.88,5.4-1.87,2.44.01,4.45.84,6.05,2.5,1.6,1.65,2.39,3.7,2.38,6.14ZM245.57,108.94l.05-10.78c0-1.78-.33-3.01-1.01-3.69.28.45.41,1.35.4,2.7l-.05,11.22c0,1.71-.23,2.79-.66,3.24.84-.27,1.26-1.17,1.26-2.69ZM255.36,99.07c0-.47-.02-.89-.06-1.25-.08-.77-.38-1.55-.89-2.35-.6-.96-1.25-1.45-1.96-1.45-.82,0-1.54.28-2.17.84-.63.57-.94,1.24-.94,2.03l-.04,7.44c.51.28,1.1.42,1.76.43,1.48,0,2.59-.61,3.34-1.84.62-1,.94-2.28.95-3.84ZM257.48,99.1c0-1.71-.66-3.34-2-4.87.87,1.55,1.3,3.3,1.29,5.25,0,1.99-.62,3.76-1.82,5.3.73-.68,1.33-1.55,1.81-2.61s.72-2.08.72-3.07Z"/><path class="cls-4" d="M285.79,111.52l-2.01,7.52-1.7-.32-.58-1.61c-1.88.64-3.81.78-5.79.4-1.91-.36-3.43-1.27-4.54-2.72-1.57.94-3.09,1.27-4.56.99-.36-.07-.69-.18-1.01-.36l.44-2.33c.65.12,1.22-.17,1.7-.88.38-.53.65-1.17.79-1.9l2.18-11.5c.2-1.05.18-1.95-.05-2.71-.29-1.01-.93-1.53-1.92-1.57l.43-2.29.64.09c2.58.42,3.99,1.25,4.23,2.47,1.76-.78,3.55-.99,5.38-.64.67.13,1.51.46,2.52.98,1.01.53,1.73.84,2.18.92.78.15,1.29-.09,1.54-.72l1.57,1.17-.89,4.84-1.9.22c-.02-1.07-.42-2-1.2-2.81-.78-.8-1.71-1.3-2.78-1.51-1.51-.29-2.63-.06-3.36.67-.52.55-.91,1.53-1.18,2.94-.05.27-.13.7-.25,1.29-.09.57-.16,1.01-.22,1.33.35.24.74.4,1.18.49,1.43.27,2.38-.63,2.86-2.69l2.19.51c-.01.17-.04.4-.09.67-.4,2.08-1.08,3.15-2.04,3.2.85.92,1.17,2.2.97,3.84l-2.52-.48c-.15-.8-.31-1.33-.48-1.6-.27-.39-.78-.66-1.51-.8-.48-.09-.87,0-1.16.27-.43,2.29-.64,3.8-.63,4.51.04,1.97.83,3.1,2.36,3.39,1.66.31,3.08.13,4.25-.56,1.27-.71,2.09-1.89,2.46-3.52l2.49.8ZM272.64,100.01c.11-.59.15-1.25.11-1.97-.06-.84-.21-1.46-.46-1.85.17.49.13,1.4-.12,2.72l-2.09,11.03c-.32,1.68-.73,2.7-1.23,3.06.91-.11,1.51-.91,1.79-2.4l2.01-10.59Z"/><path class="cls-4" d="M321.34,131.06c-.58,1.07-1.33,1.76-2.27,2.07-.93.31-1.93.18-2.99-.39-.58-.32-1.35-.93-2.29-1.84-.94-.91-1.73-1.53-2.35-1.87-.66-.36-1.64-.65-2.94-.88-1.3-.23-2.02-.38-2.15-.45-.4-.21-.38-.72.04-1.5.85-1.58,2-2.91,3.44-4,1.57-1.19,3.17-1.82,4.8-1.88,1.87-.08,3.24-.24,4.12-.47,1.58-.41,2.66-1.15,3.24-2.22,1.01-1.88.75-3.23-.78-4.06-.88-.47-1.86-.34-2.94.41.47,1.03.52,1.88.16,2.55-.34.64-.88,1.03-1.6,1.17-.72.14-1.4.04-2.04-.3-1.88-1.02-2.25-2.58-1.12-4.68.74-1.37,2.12-2.1,4.13-2.18,1.71-.07,3.32.29,4.8,1.1,1.81.97,3.07,2.23,3.8,3.76.81,1.7.74,3.42-.2,5.17-.81,1.51-2.07,2.57-3.76,3.18-1.07.42-2.73.5-4.98.25-2.25-.25-4.11-.13-5.58.36.82.27,1.58.6,2.28.98.71.39,1.48,1,2.29,1.84.81.84,1.44,1.38,1.89,1.62,1.03.56,1.96.34,2.79-.64.68.95.75,1.92.21,2.92ZM324.15,118.84c.42-.77.54-1.59.39-2.47-.16-.88-.55-1.66-1.17-2.36.77,1.51.78,2.94.05,4.29-.72,1.29-1.87,2.16-3.45,2.62-.82.21-2.2.37-4.15.46,1.92.14,3.41.12,4.48-.06,1.86-.33,3.14-1.16,3.85-2.48Z"/><path class="cls-4" d="M345.75,140.5c-1.75,2.24-3.98,3.67-6.68,4.3-2.88.65-5.41.12-7.59-1.6-2.19-1.72-3.3-4.05-3.36-7-.03-2.77.83-5.27,2.59-7.51,1.76-2.24,3.97-3.66,6.66-4.28,2.89-.67,5.43-.14,7.61,1.57,2.19,1.72,3.3,4.06,3.34,7.02.04,2.75-.81,5.25-2.57,7.48ZM329.72,138.48c.07-1.47.42-3.02,1.05-4.64s1.41-3.02,2.34-4.2c1.64-2.08,3.73-3.56,6.27-4.41-1.3.17-2.62.67-3.96,1.48-1.33.82-2.42,1.75-3.25,2.81-1.83,2.34-2.66,5.32-2.46,8.95ZM343.97,131.69c.41-.52.55-1.17.42-1.94-.13-.77-.46-1.36-.98-1.77-.57-.45-1.23-.64-1.97-.58-.74.06-1.33.37-1.76.92l-7.02,8.95c-.45.57-.62,1.23-.5,1.96.12.73.46,1.32,1.04,1.77.57.45,1.23.64,1.97.58.74-.06,1.33-.38,1.78-.95l7.02-8.95ZM342.62,138.45c.91-1.16,1.67-2.54,2.29-4.14.62-1.6.94-3.11.98-4.55.13.59-.33,1.9-1.4,3.92-.91,1.68-1.69,2.94-2.35,3.78-2.02,2.57-4.17,4.41-6.44,5.5,2.86-.77,5.17-2.28,6.92-4.51Z"/><path class="cls-4" d="M356.33,162.18c-.91.81-1.86,1.21-2.84,1.18-.98-.03-1.88-.49-2.67-1.38-.44-.5-.95-1.33-1.53-2.51s-1.1-2.03-1.57-2.56c-.5-.56-1.32-1.17-2.47-1.83s-1.77-1.04-1.87-1.15c-.3-.34-.12-.8.55-1.4,1.34-1.19,2.87-2.06,4.59-2.6,1.88-.59,3.6-.63,5.16-.13,1.78.56,3.13.88,4.03.96,1.63.15,2.89-.17,3.8-.98,1.59-1.42,1.81-2.78.65-4.08-.67-.74-1.63-.95-2.9-.61.09,1.12-.15,1.94-.72,2.45-.54.48-1.17.67-1.9.56-.73-.11-1.33-.44-1.82-.98-1.42-1.59-1.24-3.19.54-4.78,1.16-1.04,2.71-1.25,4.62-.65,1.64.52,3.02,1.4,4.14,2.67,1.37,1.53,2.13,3.14,2.29,4.83.18,1.87-.47,3.47-1.95,4.79-1.28,1.14-2.81,1.71-4.62,1.71-1.15.03-2.74-.46-4.77-1.46-2.03-1-3.82-1.52-5.37-1.56.68.54,1.29,1.1,1.81,1.69.54.61,1.05,1.44,1.53,2.51.48,1.06.89,1.79,1.23,2.17.78.88,1.73.99,2.84.34.32,1.12.05,2.06-.79,2.82ZM363.13,151.64c.65-.58,1.05-1.32,1.2-2.19.15-.88.05-1.75-.29-2.62.21,1.68-.26,3.03-1.41,4.05-1.11.97-2.49,1.39-4.14,1.29-.84-.08-2.2-.4-4.06-.98,1.76.78,3.17,1.27,4.23,1.47,1.86.32,3.35-.02,4.46-1.02Z"/><path class="cls-4" d="M371.43,179.02c-1.79,1.12-3.64,1.48-5.54,1.06-1.9-.41-3.41-1.52-4.53-3.31-1.61-2.57-1.89-5.11-.83-7.61.91-2.18,2.71-4.12,5.41-5.81,2.46-1.54,4.98-2.21,7.56-2.01,2.85.21,5.02,1.5,6.51,3.87.75,1.2,1.16,2.31,1.22,3.34.07,1.03-.24,2.12-.9,3.27-.25.41-.55.72-.89.93-.74.47-1.51.62-2.3.47-.79-.15-1.41-.6-1.88-1.34-.38-.6-.49-1.24-.34-1.93.15-.69.52-1.22,1.12-1.59.54-.34,1.2-.45,1.96-.32.16-.63.1-1.17-.18-1.62-.54-.87-1.59-1.21-3.14-1.02-1.27.14-2.38.51-3.32,1.1-.2.13-.39.26-.58.4,1.36,1.09,2.4,2.2,3.12,3.35.99,1.58,1.22,3.21.69,4.9-.5,1.58-1.55,2.86-3.14,3.86ZM361.21,172.86c.26-1.51.96-3.02,2.09-4.52,1.05-1.42,2.26-2.56,3.62-3.41,1.97-1.24,4.3-1.97,6.98-2.21-2.28-.62-4.78-.07-7.5,1.63-1.58.99-2.83,2.18-3.77,3.58-1.04,1.59-1.52,3.24-1.42,4.93ZM368.28,174.6c.8-.5,1.47-1.12,2.01-1.86.71-1,.86-1.84.44-2.51-.43-.69-1.25-.92-2.44-.7-.92.15-1.78.47-2.57.97-.8.5-1.47,1.13-2.02,1.91-.72.98-.87,1.82-.44,2.5.42.67,1.23.9,2.44.7.92-.17,1.79-.51,2.58-1.01ZM369.32,176.56c.69-.43,1.27-1.04,1.73-1.83.47-.79.74-1.58.82-2.38-.53,1.44-1.47,2.59-2.81,3.43-1.36.85-2.91,1.09-4.66.72,1.99.85,3.63.87,4.92.06Z"/></svg>