<?xml version="1.0" encoding="UTF-8"?><svg id="Layer_1" xmlns="http://www.w3.org/2000/svg" viewBox="0 0 500 500"><path d="M388.09,349.83c5.58-.61,9.21,1.71,13.06,5.39,6.56,6.26,7.65,16.4,1.49,23.37-7.48,8.46-19.48,4.57-26.01,16.91-2.66,5.03-2.47,7.49-7.19,11.67-8.4,7.44-19.97,5.35-24.25-5.29-2.02-5.01-1.03-16.15,3.05-20.02,4.06-3.85,14.03-4.53,19.4-7.67,9.18-5.36,6.53-22.85,20.46-24.37ZM390.27,358.03c-2.59.36-5.05,2.62-6.61,4.6-5.03,6.4.27,14.93,8.18,14.19.94-.09,4.27-1.54,4.91-2.2,4.26-4.4,2.29-11.82-2.18-15.29-1.49-1.15-2.34-1.58-4.3-1.3ZM357.46,385.91c-2.48.36-5.12,2.2-5.61,4.78-1.01,5.35,1.21,12.11,6.89,13.75,3.95,1.14,7.8-4.51,7.78-8.05-.02-4.2-4.27-11.18-9.06-10.49Z"/><path d="M79.13,304.73c5.95-.75,14.12,4.14,16.6,9.5s1.84,8.11,2.4,13.45c.59,5.63,3.99,7.79,8.15,10.99,4.45,3.42,11.51,6.43,13.51,11.92,2.28,6.27-.17,11.28-4.24,15.98-8.24,9.53-17.26,8.23-25.25-.7-5.5-6.14-3.93-16.86-8.25-24.28-3.37-5.8-12.92-7.51-16.03-14.04-4.61-9.69,2.73-21.5,13.11-22.81ZM80.23,312.66c-2.05.24-3.32.91-4.59,2.52-5.45,6.93.45,15.95,8.85,15.14,3.55-.34,7.75-3.58,7.55-7.47-.33-6.34-5.45-10.92-11.82-10.19ZM104.84,348.2c-5.67.34-8.6,4.94-7.85,10.42.31,2.28,4.47,5.63,6.67,5.91,4.33.54,9.15-2.37,9.43-6.98.33-5.32-2.65-9.68-8.25-9.34Z"/><path d="M273.42,413.01c7.08-5.09,18.03-.02,26.23-4.53,5.04-2.78,7.22-6.52,11.27-9.78,9.27-7.47,22.37-2.65,25.54,8.62,2.56,9.1-.48,16.75-8.48,21.56-8.52,5.12-14.64-.3-23.23,1.65-9.66,2.19-13.53,14.65-25.02,11.1-2.92-.9-5.56-2.75-7.5-5.08-4.74-5.7-5.37-18.82,1.19-23.53ZM321.38,406.15c-3.43.32-5.06,1.24-6.55,4.38-1.91,4.02-.68,8.6,3.25,10.79,7.76,4.33,15.47-3.64,11.24-11.24-1.79-3.21-4.35-4.27-7.93-3.94ZM282.82,416.52c-5.76,1.08-9.17,8.42-5.39,13.19,7.17,9.04,20.9,2.09,15.98-8.87-1.55-3.46-7.12-4.96-10.59-4.31Z"/><path d="M427.19,276.03c9.35-.23,16.87,6.6,16.2,16.2-.67,9.61-11.15,12.4-14.17,21.65-1.79,5.48.27,7.55.73,12.55.99,10.85-8.64,20.35-19.67,17.48-1.75-.46-1.99-1.32-3.17-2.02-2.9-1.71-5.12-2.14-6.88-5.42-4.63-8.63-1.92-17.35,5-23.6,1.72-1.55,3.59-2.39,5.2-4.36,4.81-5.86,1.97-9.85,1.5-16.27-.8-11.03,4.64-15.92,15.25-16.18ZM425.54,282.31c-1.29.22-5.25,2.71-5.74,3.83-.34.78-.3,3.25-.21,4.18.53,6.06,7.23,9.18,12.59,6.82,2.89-1.27,3.58-4.18,3.58-7.11,0-4.71-5.8-8.49-10.21-7.73ZM415.36,320.65c-3-.05-8.09,3.05-9.16,6.02.4,3.24.26,6,3.54,7.66,4.76,2.41,10.76.46,11.43-5.28.41-3.5-1.85-8.33-5.81-8.39Z"/><path d="M129.72,372.26c5.49-.53,12.03,3.18,15.63,7.17,2.45,2.71,6.95,11.46,9.86,12.55,5.24,1.95,11.99,1.53,17.54,3.24,4.93,1.51,10.53,5.04,11.79,10.35,3.55,14.97-14.98,29.7-26.48,16.63-5.57-6.32-5.79-13.13-15.26-16.46-5.26-1.85-14.28-.5-18.87-3.82-10.98-7.96-9.26-28.22,5.77-29.67ZM131.37,379.07c-10.46.74-7.46,19.96,3.95,17.37,2.5-.57,6.27-3.41,6.5-6.08.52-5.97-4.29-11.73-10.45-11.29ZM167.72,403.14c-7.23,1.05-9.34,11.7-1.94,15.46,9.84,4.99,15.84-8.21,9.75-13.03-1.98-1.57-5.28-2.8-7.81-2.44Z"/><path d="M391.1,121.59c9.05-.93,16.66,3.28,18.06,12.67.7,4.69.43,7.77,2.37,12.39,3.37,8.03,7.65,7.6,13.26,12.72,5.95,5.43,10.35,13.47,5.64,21.22-5.98,9.83-22.67,7.11-28.02-1.85-3.5-5.85-3.29-9.14-3.86-15.55-1.16-13.06-11.68-11.99-18.2-20.08-3.35-4.16-2.77-11.55-.08-15.94,1.69-2.75,7.65-5.25,10.82-5.58ZM392.75,127.59c-11.12.51-8.11,19.01,3.14,14.63,8.29-3.23,6.02-15.05-3.14-14.63ZM413.79,163.67c-4.5.62-8.05,5.38-7.3,9.89.2,1.22,3.19,3.08,4.35,3.58,5.96,2.56,13.27-.78,12.29-7.91-.25-1.84-2.19-3.57-3.72-4.48-1.91-1.13-3.39-1.38-5.62-1.08Z"/><path d="M325.49,70.74c6.08-.63,9.45.88,13.02,5.68,2.31,3.11,4.12,6.59,7.14,9.26,8.16,7.22,20.79,1.64,29.94,10.8,9.95,9.97,1.39,25.37-12.18,25.03-9.35-.23-12.04-6.81-16.03-13.5-6.7-11.22-25.67-4.76-32.33-14.15-6.69-9.43-1-21.95,10.44-23.13ZM324.66,76.75c-12.91,1.76-5.07,20.6,6.81,14.46,5.15-2.66,3.56-8.1.36-11.66-2.19-2.43-3.81-3.26-7.17-2.81ZM362.13,98.34c-2.71.11-5.87,2.47-6.71,5.07-1.66,5.11,2.37,11.71,7.99,11.26,6.46-.52,10.13-6.1,6.85-12.04-1.69-3.07-4.64-4.44-8.13-4.3Z"/><path d="M87.35,146.19c10.61-.69,18.96,10.23,15.14,20.33-3.6,9.54-15.68,10.49-15.65,21.55.01,5.82,1.84,11.63-1.56,17.01-4.75,7.5-15.08,9.89-21.67,3.23-6.11-6.17-6.09-13.53-.8-20.23,2.86-3.62,8.01-6.26,9.84-10.39,3.38-7.63.52-16.19,3.5-22.74,2.43-5.33,5.02-8.35,11.2-8.75ZM87.88,154.1c-4.3.72-5.21,7.15-3.26,10.51,4.24,7.33,13.82,1.01,10.09-6.81-1.1-2.31-4.28-4.13-6.83-3.7ZM72.84,190.46c-1.97.34-4.6,2.89-5.45,4.67-1.14,2.38-1.39,4.32,0,6.67,1.72,2.92,5.47,3.68,8.45,2.32,7.79-3.57,4.53-14.95-2.99-13.65Z"/><path d="M425.54,198.66c10.61-1.44,21.54,5.86,17.84,17.57-1.9,6.02-6.64,7.57-4.73,14.84,1.7,6.47,9.31,11.77,8.49,18.98-1.36,11.94-13.8,18.55-24.24,11.8-7.35-4.75-8.96-11.1-5.54-19.16,1.23-2.91,3.76-6.11,4.12-9.28.59-5.24-5.12-10.21-6.94-14.87-3.56-9.14,1.01-18.53,11-19.88ZM427.18,205.5c-5.28.68-6.96,3.95-6.15,9.02.82,5.22,6.19,4.73,10.12,5.62,5-1.64,5.88-9.54,1.82-12.64-1.77-1.35-3.53-2.29-5.79-2ZM429.37,241.86c-7.64,1.11-7.73,11.51-1.91,14.34,6.23,3.03,13.13.5,12.36-7.17-.56-5.64-5.19-7.94-10.45-7.18Z"/><path d="M242.64,53.52c8.05-.15,9.41,4.6,15.08,7.45,9.06,4.55,17.11-4.26,26.67-3.99,9.81.27,17.09,9.2,13.94,18.87-2.79,8.57-7.57,12.66-16.91,11.73-10.06-1.01-13.3-13.81-26.08-9.34-5.95,2.09-8.04,4.76-15.24,4.75-4.97,0-8.22-1.19-10.19-5.97-4.29-10.43.18-23.27,12.73-23.5ZM241.27,60.62c-2.25.31-4.62,1.81-5.95,3.62-6.1,8.3,8.71,16.57,13.94,9.29,1.19-1.65,2.2-6.45,1.56-8.4-1.25-3.84-5.94-5.01-9.56-4.52ZM290.19,68.01c-3.92-4.52-12.4-2.43-14.65,2.82-1.62,3.79-1.06,6.71,2.29,9.13,5.09,3.67,15.7-1.31,14.29-8-.12-.59-1.54-3.48-1.94-3.94Z"/><path d="M204.91,413.26c9.95-.91,14.09,7.62,23.64,6.41,1.73-.22,3.4-1.14,5.01-1.55,5.39-1.38,14.62-3.29,19.4.26,10.16,7.55,5.14,23.52-5.69,27.39-9.66,3.45-15.5-6.51-24.67-6.62-4.76-.06-8.86,2.24-13.19,3.49-21.7,6.24-23.85-27.59-4.49-29.36ZM206.55,419.82c-5.44.58-9.06,5.6-6.28,10.77,3.12,5.8,12,5.07,14.47-.94,1.29-3.13,1.25-4.95-1.29-7.33-1.76-1.64-4.48-2.77-6.91-2.51ZM243.38,422.9c-7.72-.11-11.04,9.72-4.92,14.6,5.19,4.13,12.37,2.33,13.46-4.57.86-5.42-3.12-9.96-8.55-10.03Z"/><path d="M65.47,228.47c10.08-1.04,14.77,7.72,14,16.73-.62,7.19-4.75,9.67-1.84,17.7,3.07,8.49,9.34,16.81,2.51,25.88-3.87,5.14-15.4,6.98-20.48,3.02-7.21-5.63-5.21-13.15-2.54-20.57.67-1.87,1.96-3.65,2.27-5.65,1.78-11.27-8.38-16.14-6.32-27.36.93-5.07,7.53-9.25,12.4-9.75ZM66.83,235.55c-2.02.22-4.9,2.83-5.83,4.58-1.1,2.09-1.02,5.56.55,7.4,2.04,2.4,7.4,2.52,9.59.27,2.73-2.8,2.41-7.93-.28-10.68-.78-.8-2.92-1.71-4.03-1.58ZM68.76,274.1c-5.83.56-9.33,10.34-2.41,12.12,2.19.56,7.13.11,8.6-1.8,3.67-4.76-.28-10.88-6.19-10.31Z"/><path d="M136.28,86.04c3.24-.44,4.65.3,7.32,1.84,7.26,4.18,11.19,9.86,7.72,18.39-2.27,5.59-9.4,8.12-14.76,9.85-3.7,1.19-7.02.79-9.35,4.32-5.79,8.75-3.87,21.38-18.86,19.63-10.4-1.22-13.51-12.83-10.06-21.48,3.91-9.79,13.43-7.47,20.65-12.16,3.03-1.97,5.08-8.01,7.07-11.25,2.2-3.58,5.83-8.53,10.27-9.14ZM137.1,95.61c-2.38.35-4.88,2.21-5.13,4.71-.25,2.46.27,3.53,2.06,5.05,3.47,2.95,8.18,4.16,10.19-1.01,2.29-5.89-1.03-9.65-7.12-8.76ZM117.66,130.44c2.04-1.98,2.81-8.37.79-10.58-1.81-1.97-6.71-2.81-9.24-2.38-3.89.66-6.48,6.23-5.54,9.78.57,2.16,4.97,5.22,7.12,5.46s5.27-.71,6.88-2.28Z"/><path d="M204.63,59.26c6.6-.69,13.33,5.42,14.74,11.62,1.83,8.01-8.02,15.59-15.13,16.7-4.78.75-7.9-.88-12.3-1.3-3.17-.31-4.01.17-6.4,2.01-5.52,4.26-7.07,8.58-15.2,9.4-7.41.75-10.26-3.2-12.34-9.74-3.62-11.37,6.63-19.28,17.29-18.65,3.89.23,7.47,2.07,10.97,2.43,4.64.48,4.94-2.25,7.11-5.14,2.41-3.22,7.15-6.9,11.26-7.33ZM203.25,66.89c-1.74.15-4.68,2.6-5.44,4.13-1.53,3.04-1.32,7.57,1.95,9.36,3.76,2.06,8.53,2.02,11.34-1.54,3.27-4.14.53-10.81-4.42-11.67-.6-.1-2.89-.33-3.43-.28ZM171.27,77.02c-5.86.86-9.28,7.8-5.13,12.36,7.62,8.37,21.16-5.45,10.74-11.29-1.96-1.1-3.32-1.41-5.62-1.08Z"/><path d="M77.78,214.22c.98.64-.81,4.98-1.01,6.14-.14.81-.29,2.13-.32,2.96-.07,1.97.72,4.17-.26,5.76-.92.56-3.48-1.79-4.58-2.27-3.75-1.65-7.62-1.18-11.36.27-.74.29-1.58,1.35-2.26.77-.62-.96,2.21-5.86,2.62-7.24.57-1.95.67-4,.53-6.02-.12-1.75-1.32-4.32.14-5.6,1.72,1.82,4.33,3.52,6.76,4.17,3.25.87,6.47.56,9.73,1.06Z"/><path d="M299.57,64.65c.7-.7,5.26,2.71,6.2,3.23,3.13,1.7,6.64,3.17,10.28,2.28l.7.7c.42,1.48-2.28,2.2-3.25,2.94-3.13,2.4-4.47,6.52-4.07,10.37.07.71,1.07,2.48.27,3.05s-5.25-1.4-6.72-1.52c-2.27-.18-4.72,1.01-6.55.81-2.87-.33,1.12-3.44,1.63-4.09,2.55-3.17,4.52-9.67,3.2-13.59-.26-.78-2.25-3.62-1.7-4.18Z"/><path d="M397.16,335.56c.29.19,2.26,5.17,3.18,6.26,3.17,3.76,8.06,5.39,12.84,5.23,2.19-.07,4.18-1.03,1.76,2.03-1.39,1.75-3.12,3.24-4.43,5.14-1.21,1.76-1.82,3.84-3.09,5.39-.47.11-.53-.37-.69-.67-2.13-4.01-3.1-5.7-7.18-8.13-2.49-1.48-4.96-1.69-7.36-2.75-3.43-1.51-.36-2.86.88-4.45.82-1.05,1.76-2.83,2.2-4.08.27-.78.73-4.73,1.89-3.96Z"/><path d="M440.41,278.65c-1.46-2.41-4.28-4.28-7.08-4.81-2.95-.56-6.5-.73-9.47-.31-1.39.2-2.83,1.24-4.15.54-1.05-.79,1.06-3.88,1.23-5.1s-.47-5.18,0-5.73c1.05-1.26,3.07.66,4.14,1.11,3.49,1.48,9.47,3.25,13.11,1.91.94-.35,3.21-2.41,3.69-2.32.56.11.45,1.6.41,2.05-.27,3.49-1.64,6.1-1.36,10.11.07,1.05,1.26,2.8-.52,2.56Z"/><path d="M431.35,183.28c.16,4,.43,7.3,2.41,10.85.46.82,2.52,2.74,1.43,3.53-.81.59-3.84-1.36-4.93-1.67-4.51-1.25-9.79.7-13.6,3.1-.28.05-.96-.08-1.11-.29-.24-.33-.59-4.1-.95-5.19s-1.08-2.44-1.99-3.22c-.86-1.64,4.87-1.02,5.77-1.08,2.79-.19,7.31-1.25,9.43-3.15,1.19-1.06,1.76-3.24,3.55-2.88Z"/><path d="M95.29,130.57c.3.18,2.06,5.22,2.82,6.34,1.12,1.64,4.64,4.44,6.57,4.91,1.74.43,5.27-.65,4.83,1.52-2.31.74-4.71,3.94-5.09,6.25-.23,1.37.43,3.01-.75,3.89-3.07-4.07-7.21-8.32-12.37-9.49-.71-.16-2.63.19-2.79-.78-.05-.31,2.29-2.17,2.78-2.92,1.56-2.42,3.04-6.87,2.96-9.76l1.05.04Z"/><path d="M70.59,297c1.87-.24,4.82-1.55,6.4-2.62.75-.51,2.56-2.52,3.4-2.28l4,9.53c-1.26.52-2.61.16-3.92.32-2.65.32-5.38,1.92-7.64,3.3-2.08,1.27-4.08,3.44-6.48,3.77v-4.78c0-.46-.91-4.02-1.15-4.59-.41-.99-1.34-1.41-1.04-2.65,2.03-.18,4.45.25,6.43,0Z"/><path d="M342.45,394.08c.56.35.01,2.78.07,3.61.22,3.2,2.01,7.68,4.08,10.14.28.83,3.56,3.51,3.56,3.84s-.18.52-.45.66c-3.31.97-6.49,2.53-8.86,5.08l-.94.16c-.6-.16-.05-6.44-.15-7.53-.27-3.04-2.24-6.74-3.68-9.44-.72-1.34-2.94-3.2-.96-4.23,1.15-.6,3.23-.97,4.57-1.44.73-.26,1.87-1.41,2.77-.84Z"/><path d="M381.32,111.12c1.17-.24,1.21,1.05,1.69,1.73,1.88,2.72,2.61,4.31,5.78,5.7,1,.44,2.73.3,2.33,1.67-.32,1.12-1.96.61-2.8.76-3.75.7-7.17,2.51-9.41,5.63-.55.77-1.8,3.35-2.1,3.64-.26.25-.4.38-.79.26-1.6-2.25-3.41-3.99-5.76-5.46-.69-.43-2.57-.7-2.3-1.73.25-.96,3.53-1.34,4.53-1.77,3.41-1.46,8.65-6.47,8.84-10.44Z"/><path d="M124.49,370.35c.15.18.25.37.31.6-3.63,2.38-7.13,3.92-9.01,8.15-.76,1.71-1.05,3.41-1.75,5.1-.8.16-1.68-1.63-2.17-2.18-1.42-1.61-3.56-4.25-5.09-5.57-.92-.79-3.48-1.39-1.22-2.37,4.56-1.97,7.33-.52,11.09-5.59.85-1.15,1.28-3.92,2.93-3.21.72.31,4.17,4.2,4.9,5.08Z"/><path d="M188.83,430.95c-2.42-.74-4.09-3.1-6.45-4.07-1.38-.57-2.78-.58-4.21-.85-.24-1.19.8-.98,1.46-1.41,5.03-3.25,6.39-6.96,7.16-12.8,1.18-2.18,7.76,1.47,8.3,3.46-2.1,3.02-4.22,5.73-5.36,9.31-.74,2.31-.48,4.06-.89,6.36Z"/><path d="M267.3,419.47c-.09,1.59-1.14,2.86-1.34,4.54-.3,2.58.27,4.59,1.21,6.94.41,1.03,3.32,6,2.85,6.55-3.05.41-6.03.27-9.01,1.24-.62.2-3.32,2.12-3.24.6.04-.8,1.59-3.19,2-4.3,1.29-3.53,1.54-7.98-.44-11.29-.54-.89-1.73-1.23-1.29-2.61l9.26-1.67Z"/><path d="M227.08,58.4c.19,2.43-1.57,4.56-1.85,6.96-.38,3.26.24,7.09,2.2,9.77.44.6,1.32.55,1.01,1.63-.22.76-2.59,1.06-3.51,1.43-.84.33-4.34,2.94-4.37,1.11-.01-.76.98-2.8,1.1-4.11.37-4.21-.38-8.28-3.71-11.07-.61-.52-4.42-2.43-1.65-2.75,2.48-.29,4.3.51,6.81-.85,1.31-.71,2.42-2.88,3.97-2.11Z"/><path d="M154.38,81.6c.87,3.36.56,7.07,2.15,10.29,1.19,2.41,3.57,3.31,5.22,5.18.11.6-3.62,2.55-4.34,2.99-.48.29-1.3,1.61-1.93.46-.35-.63-.49-2.93-.96-4.16-2-5.19-5.49-5.3-8.47-8.48-2.29-2.44,1.76-2.44,3.52-3.31.94-.47,4.24-3.38,4.81-2.97Z"/><path d="M388.9,362.4c8.67-1.5,7.76,13.65-.54,10.8-4.2-1.44-4.82-9.87.54-10.8Z"/><path d="M358.84,389.73c1.33-.1,2.64.96,3.34,1.99,3.01,4.4-2.93,10.75-6.52,6.8-2.6-2.86-.79-8.48,3.18-8.79Z"/><path d="M80.77,316.47c2.79-.52,6.5,1.33,6.58,4.44.11,4.46-3.05,6.6-7.21,5.08s-3.31-8.79.63-9.52Z"/><path d="M103.47,351.47c5.34-.73,7.96,4.06,4.28,7.83-2.07,2.13-4.6,2.09-7.04.52-3.5-2.26-1.14-7.82,2.76-8.36Z"/><path d="M283.64,420.62c3.21-.66,6.53,1.09,6.06,4.7-.69,5.36-11.31,7.48-10.07-.23.24-1.52,2.5-4.15,4.01-4.46Z"/><path d="M326.27,410.27c2.83,2.83.35,8.2-3.32,8.66-4.49.56-6.95-2.2-5.47-6.56,1.09-3.2,6.33-4.56,8.78-2.1Z"/><path d="M426.36,285.04c5.91-.96,9.63,7.4,2.45,9.83-2.87.97-5.59-.3-5.94-3.47-.31-2.81.27-5.84,3.48-6.36Z"/><path d="M413.24,323.85c4.36-.85,5.95,5.31,3.37,7.75-3.14,2.97-8.22,2.22-7.88-2.66.14-2.04,2.53-4.7,4.51-5.09Z"/><path d="M136.79,384.85c1.35,1.38,1.72,3.29,1.4,5.17-.78,4.6-7.12,4.93-9.29,1.21-3.55-6.07,2.98-11.38,7.89-6.38Z"/><path d="M168.81,406.41c2.07-.36,3.26-.04,4.56,1.6,1.92,2.42,1.74,5.74-.8,7.63-2.12,1.58-4.55.55-6.41-.97-3.29-2.7-1.25-7.59,2.65-8.26Z"/><path d="M413.78,167.49c3.87-.8,8.24,2.46,5.54,6.36-1.65,2.39-6.15,2.17-7.62-.32-1.21-2.06-.5-5.52,2.07-6.05Z"/><path d="M391.63,130.59c2.44-.5,4.8.13,5.86,2.49,2.85,6.3-6.42,8.44-8.63,3.44-1.07-2.42.08-5.37,2.77-5.92Z"/><path d="M362.38,102.16c5.69-.98,7.33,6.2,2.26,8-6.59,2.33-8.37-6.95-2.26-8Z"/><path d="M324.1,79.75c3.63-.75,6.83,1.71,6.37,5.55-.47,3.95-8.7,3.97-9.28-.85-.23-1.91.92-4.29,2.91-4.69Z"/><path d="M72.29,193.19c6.75-1.74,6.71,10.55-.05,9.48-4.65-.73-3.56-8.55.05-9.48Z"/><path d="M88.14,157.1c5.11-1.18,7.01,6.5,2.07,7.53-4.72.98-5.23-6.8-2.07-7.53Z"/><path d="M430.19,244.58c4.61-.83,7.6,2.81,5.95,7.04-1.35,3.46-5.03,3.32-7.65,1.37-2.88-2.15-1.23-7.88,1.7-8.41Z"/><path d="M427.73,207.95c4.25-.67,6.22,5.01,3.5,7.88-1.5,1.58-6.69.98-7.2-1.3-.57-2.56.88-6.13,3.7-6.58Z"/><path d="M283.09,67.99c6.69-1.14,7.79,6.28,2.17,8.46-8.16,3.16-8.23-7.43-2.17-8.46Z"/><path d="M242.36,63.35c4.08-.51,7.07,3.68,4.56,7.02-.63.83-2.58,2.23-3.6,2.41-7.15,1.22-8.33-8.51-.96-9.43Z"/><path d="M243.17,427.46c6.57-1.36,6.4,8.57.47,8.69-4.93.1-4.49-7.86-.47-8.69Z"/><path d="M207.1,423.08c2.55-.26,5.14,1.72,4.96,4.41-.23,3.3-2.83,4.45-5.84,3.99-4.17-.65-3.72-7.92.88-8.4Z"/><path d="M64.25,245.52c-1.51-1.37-.55-6.08,1.76-6.68,4.17-1.08,6.7,4.89,3.07,7.16-1.11.7-3.9.35-4.82-.48Z"/><path d="M72.27,284.06c-2.09,2.19-7.85,1.66-7.86-2.23-.01-4.38,4.55-6.49,7.68-3.56,1.47,1.38,1.53,4.37.17,5.79Z"/><path d="M109.75,120.2c2.15-.43,5.18,1.48,5.52,3.64.92,5.87-5.48,9.3-8.06,3.96-.79-1.64-.8-2.41-.32-4.17.39-1.41,1.3-3.12,2.85-3.43Z"/><path d="M138.74,98.61c3.85-.22,3.7,5.69.18,6.21-4.81.71-4.17-5.98-.18-6.21Z"/><path d="M208.16,70.76c1.58,1.48,1.2,4.92-.44,6.34-3.43,2.95-8.8-.18-6.68-4.76,1.2-2.59,5.15-3.43,7.12-1.57Z"/><path d="M172.38,79.22c8.83-.88,6.16,10.32-.31,10.2-5.93-.11-7.26-9.45.31-10.2Z"/><path d="M103.34,256.93c2.39-.34,4.52.17,6.37,1.52s2.95,3.23,3.29,5.62c.14,1.02.05,1.99-.3,2.93l2.86-.41c.74-.1,1.25-.44,1.54-1,.29-.56.34-1.21.14-1.96l2.25-.32c.27.54.46,1.18.56,1.9.21,1.44-.14,2.63-1.04,3.58,1.16.89,1.88,2.26,2.14,4.1.05.38.08.77.07,1.16l-2.06.29c-.1-.68-.37-1.22-.83-1.63-.46-.41-1.01-.57-1.67-.47l-13.87,1.97c-.76.11-1.36.39-1.79.84-.49.52-.67,1.15-.54,1.89l-2.54.36c-.12-.37-.21-.82-.29-1.35-.27-1.88.08-3.33,1.03-4.36-1.5-1.56-2.37-3.25-2.63-5.07-.34-2.41.19-4.53,1.59-6.35,1.4-1.82,3.31-2.9,5.73-3.25ZM103.19,260.29c-1.7.24-3.21,1.14-4.52,2.68,1.41-1.08,3.07-1.76,5.01-2.04,1.97-.28,3.81.06,5.51,1.03-.78-.62-1.73-1.09-2.85-1.41-1.12-.32-2.16-.4-3.14-.27ZM103.47,262.38c-.47.07-.88.15-1.23.24-.75.19-1.48.6-2.19,1.22-.87.73-1.25,1.45-1.15,2.15.12.81.5,1.48,1.15,2.02.65.54,1.37.75,2.15.64l7.37-1.05c.2-.55.26-1.15.17-1.81-.21-1.46-.98-2.47-2.31-3.04-1.08-.47-2.4-.6-3.94-.38ZM114.65,270.64l-10.67,1.52c-1.76.25-2.92.76-3.51,1.54.41-.34,1.27-.6,2.61-.79l11.11-1.58c1.69-.24,2.79-.18,3.3.18-.39-.79-1.34-1.07-2.84-.86Z"/><path d="M111.68,230.93c2.29.11,4.13,1.14,5.54,3.09,1.33,1.82,1.93,3.89,1.82,6.22-.05,1.05-.37,2.2-.97,3.47-.6,1.27-.89,1.86-.89,1.77-.02.34.29.49.91.43l-.12,2.43-8.47-.05-.05-2.28c1.34-.32,2.74-1.08,4.19-2.27,1.63-1.33,2.47-2.6,2.52-3.8.04-.94-.24-1.78-.84-2.51-.61-.73-1.38-1.12-2.32-1.17-1.58-.08-2.73.95-3.45,3.08-1.32,3.9-2,5.89-2.05,5.97-1.21,2.1-3.19,3.09-5.92,2.96-2.16-.1-3.87-1-5.14-2.69-1.19-1.58-1.73-3.48-1.62-5.7.1-2.05.77-4.13,2.03-6.23l-1.14-.41.34-1.81h7.64s.07,1.94.07,1.94c-4.1.73-6.22,2.48-6.35,5.25-.05.98.3,1.85,1.03,2.59.74.74,1.61,1.14,2.61,1.18.79.04,1.46-.58,2.01-1.86.45-1.35.9-2.7,1.35-4.05.59-1.71,1.26-2.88,2-3.53,1.63-1.44,3.39-2.12,5.27-2.03ZM112.05,234.58c-2.48-.12-4.14,2.03-5,6.44-.31,1.57-1.01,2.85-2.11,3.85-1.14,1.08-2.5,1.59-4.05,1.54.44.11.87.17,1.28.19,1.47.07,2.68-.41,3.63-1.43.72-.76,1.34-1.93,1.87-3.51.38-1.29.76-2.58,1.15-3.86.22-.67.82-1.3,1.77-1.87.96-.58,1.8-.85,2.53-.81.34.02.68.08,1.02.18-.71-.44-1.4-.68-2.08-.71Z"/><path d="M102.2,198.22l2.49.61c-.16.73-.01,1.59.43,2.57.38.82.86,1.55,1.46,2.2l6.29,6.7,5.73,1.4c.58.14,1.14,0,1.67-.45.53-.44.86-1.01.98-1.71l2.07.5c.05.67-.02,1.38-.2,2.13-.39,1.58-1.22,2.53-2.51,2.85.91,1.24,1.16,2.68.76,4.34-.15.62-.41,1.23-.78,1.83l-2.06-.5.03-.13c.17-.68.14-1.3-.09-1.85s-.68-.91-1.34-1.07l-5.24-1.28-9.31,2.91c-1.22.38-1.89.6-2.01.63-.82.37-1.3.84-1.43,1.4-.03.12-.06.25-.09.37l-2.34-.57c0-.64.1-1.33.28-2.08.44-1.81,1.25-2.88,2.44-3.23-.88-.92-1.11-2.22-.7-3.9.11-.44.26-.88.46-1.34l2.42.62c-.25.29-.4.56-.46.81-.15.6,0,.96.44,1.06.32.08,1.49-.2,3.51-.82,1.22-.43,2.45-.84,3.68-1.25-.71-.86-1.44-1.73-2.17-2.61-1.21-1.35-2.12-2.1-2.72-2.25-.85-.21-1.38.42-1.58,1.89l-2.24-.55c.04-.62.15-1.29.32-1.99.42-1.73,1.12-2.69,2.09-2.87-.65-1.32-.78-2.65-.41-4l.13-.39ZM117.08,215.52l-5.56-1.36-9.58,2.88c-.41.12-.87.35-1.39.68-.58.39-.93.74-1.05,1.06.3-.43,2.21-1.15,5.73-2.17,2.14-.6,4.28-1.2,6.44-1.8,1.18.24,2.02.43,2.52.55,2.86.7,4.39,1.36,4.62,1.98-.14-.98-.7-1.59-1.71-1.84Z"/><path d="M127.51,180.5c1.83,1.1,3.06,2.77,3.71,5.01.65,2.24.53,4.33-.35,6.28-1.3,2.89-3.4,4.69-6.31,5.42-2.69.71-5.52.4-8.51-.95-3.12-1.4-5.42-3.28-6.89-5.63-1.69-2.71-1.87-5.54-.53-8.5.74-1.64,1.97-3.09,3.68-4.36l-.72-.99.92-1.73,7.14,3.21-.78,1.72c-3.85-.77-6.29-.02-7.31,2.26-.76,1.7-.32,3.43,1.32,5.2,1.22,1.35,2.81,2.46,4.76,3.34,2.03.91,3.96,1.38,5.81,1.38,2.43.02,4.05-.86,4.84-2.64.58-1.29.59-2.64.04-4.06-.51-1.31-1.37-2.38-2.56-3.23l1.74-1.75ZM126.94,194.73c-1.5.57-3.28.76-5.33.59-1.89-.17-3.63-.61-5.21-1.32-2.34-1.05-4.47-2.68-6.38-4.88.89,2.3,2.94,4.17,6.16,5.62,1.83.83,3.65,1.28,5.44,1.36,2.07.09,3.85-.37,5.33-1.37Z"/><path d="M141.01,158.47l5.64,6.29-1.27,1.85-1.16-.13c-.37,1.74-1.06,3.35-2.06,4.81-1.14,1.66-2.49,2.59-4.07,2.81.42,1.46.24,2.76-.54,3.91-.32.46-.73.85-1.24,1.18l-1.88-1.29c.51-.74.61-1.54.3-2.4-.28-.76-.79-1.4-1.55-1.92l-10.15-6.97c-1.32-.9-2.65-.62-4,.87l-1.85-1.27c.17-.4.42-.84.74-1.32,1.04-1.51,2.28-2.39,3.71-2.62-.32-1.39.04-2.84,1.08-4.35.22-.32.46-.62.73-.9l1.88,1.29-.05.08c-.5.65-.65,1.31-.46,2,.19.69.63,1.27,1.33,1.75l11.2,7.7c.9-.42,1.69-1.11,2.36-2.08,1.55-2.25,1.36-5.02-.57-8.29l1.87-.97ZM134.33,171.82l-8.88-6.1c-.47-.33-1.07-.61-1.78-.86-.79-.28-1.43-.38-1.89-.3.52.04,1.33.45,2.44,1.21l9.25,6.36c1.41.97,2.18,1.76,2.31,2.36.29-.91-.19-1.8-1.44-2.66Z"/><path d="M158.65,140.87l5.09,5.89-1.22,1.23-1.66-.43c-.53,1.92-1.5,3.59-2.92,5.02-1.38,1.38-2.98,2.12-4.8,2.23-.1,1.83-.68,3.27-1.74,4.33-.26.26-.54.47-.86.64l-1.68-1.67c.47-.47.54-1.1.23-1.9-.23-.62-.6-1.19-1.13-1.72l-8.29-8.26c-.75-.75-1.51-1.25-2.27-1.48-1-.32-1.79-.09-2.37.71l-1.65-1.65.43-.48c1.8-1.89,3.27-2.6,4.42-2.12.34-1.89,1.17-3.49,2.49-4.81.48-.48,1.23-1,2.23-1.53,1-.54,1.67-.97,1.98-1.29.56-.56.65-1.12.27-1.68l1.85-.64,3.51,3.45-.89,1.7c-.89-.59-1.89-.78-2.99-.58-1.1.2-2.04.68-2.81,1.46-1.09,1.09-1.53,2.14-1.33,3.15.17.74.76,1.62,1.77,2.63.2.2.51.5.93.93.42.39.75.7.98.93.39-.15.75-.39,1.06-.7,1.03-1.03.82-2.32-.62-3.88l1.65-1.52c.14.11.3.26.5.45,1.5,1.49,2,2.66,1.5,3.49,1.24-.18,2.48.27,3.72,1.35l-1.81,1.82c-.75-.32-1.28-.49-1.59-.5-.48,0-.98.27-1.51.8-.35.35-.49.72-.43,1.11,1.65,1.65,2.78,2.67,3.38,3.05,1.65,1.08,3.03,1.06,4.13-.04,1.19-1.2,1.83-2.47,1.93-3.83.12-1.45-.39-2.79-1.53-4.02l2.06-1.61ZM141.74,145.3c-.42-.42-.95-.82-1.57-1.2-.73-.42-1.32-.64-1.79-.65.5.13,1.23.68,2.18,1.63l7.95,7.92c1.21,1.21,1.83,2.12,1.84,2.74.42-.82.1-1.76-.98-2.83l-7.63-7.61Z"/><path d="M179.53,126.37c1.28,1.9,1.56,3.99.84,6.28-.66,2.15-1.96,3.88-3.89,5.18-.87.59-1.99,1.02-3.36,1.3-1.37.28-2.02.4-1.95.35-.28.19-.22.52.2.99l-2.02,1.37-5.03-6.82,1.8-1.41c1.06.88,2.5,1.55,4.33,1.99,2.04.5,3.56.42,4.55-.25.78-.53,1.28-1.25,1.51-2.18.23-.93.07-1.78-.45-2.56-.89-1.31-2.4-1.62-4.53-.92-3.91,1.28-5.92,1.92-6.01,1.93-2.41.29-4.38-.7-5.92-2.97-1.21-1.79-1.52-3.7-.93-5.72.55-1.9,1.75-3.46,3.59-4.71,1.7-1.15,3.77-1.85,6.2-2.1l-.35-1.15,1.66-.81,4.57,6.13-1.5,1.21c-3.04-2.85-5.71-3.5-8.01-1.94-.82.55-1.3,1.34-1.45,2.38-.15,1.03.05,1.96.61,2.8.44.66,1.34.82,2.7.5,1.35-.45,2.7-.89,4.05-1.34,1.72-.54,3.06-.72,4.03-.51,2.13.44,3.72,1.44,4.78,3ZM176.83,128.85c-1.39-2.05-4.1-2.1-8.15-.15-1.44.69-2.89.9-4.34.61-1.55-.27-2.77-1.04-3.66-2.32.18.42.39.8.61,1.13.83,1.22,1.93,1.91,3.32,2.05,1.04.12,2.35-.08,3.93-.6,1.26-.46,2.52-.93,3.78-1.39.67-.22,1.53-.12,2.56.3s1.76.94,2.16,1.54c.19.28.35.59.47.92-.07-.83-.3-1.53-.68-2.09Z"/><path d="M203.74,115.22c.61,2.04.39,4.11-.63,6.2-1.03,2.09-2.53,3.56-4.49,4.41-2.9,1.26-5.68,1.18-8.32-.24-2.47-1.28-4.35-3.43-5.65-6.43-1.36-3.14-1.79-6.07-1.3-8.8.58-3.14,2.35-5.35,5.34-6.64,1.65-.71,3.53-.96,5.66-.74l.14-1.21,1.85-.66,3.11,7.18-1.74.75c-2.33-3.16-4.64-4.25-6.93-3.25-1.71.74-2.55,2.32-2.53,4.73,0,1.82.42,3.71,1.27,5.67.88,2.04,2,3.69,3.36,4.94,1.79,1.65,3.57,2.09,5.36,1.32,1.29-.56,2.22-1.56,2.76-2.98.5-1.31.6-2.68.28-4.11l2.46-.12ZM193.74,125.36c-1.49-.59-2.94-1.64-4.34-3.15-1.28-1.4-2.27-2.9-2.96-4.49-1.02-2.35-1.5-4.99-1.43-7.91-.89,2.3-.64,5.06.77,8.3.8,1.84,1.83,3.4,3.1,4.67,1.47,1.46,3.09,2.32,4.86,2.58Z"/><path d="M235.59,112.85l.46,2.16c-.16.08-.38.15-.68.21-1.99.43-3.56.16-4.73-.79-.92,1.33-2.42,2.22-4.51,2.67-.36.08-.71.13-1.05.16l-.44-2.07c.65-.14,1.21-.36,1.7-.66.68-.41.96-.86.86-1.37-.06-.29-.36-.75-.89-1.38-.37-.4-.74-.81-1.12-1.24l-9.72,2.08c-.26,1.43-.36,2.31-.29,2.64.28,1.31,1.38,1.74,3.29,1.28l.45,2.09c-.28.13-.63.23-1.05.32-1.44.31-2.67.09-3.68-.66-1.04,1.18-2.19,1.91-3.47,2.18-.48.1-.95.11-1.41.01l-.44-2.04c1.51-.39,2.41-1.3,2.69-2.75.57-2.86,1.15-5.73,1.73-8.62.94-4.82,1.35-7.48,1.24-7.99-.14-.65-.63-.88-1.46-.71-.25.05-.51.11-.78.17l-.49-2.46c.4-.19.89-.35,1.47-.48,1.92-.41,3.49-.09,4.7.96.29-.68.83-1.29,1.61-1.81.71-.48,1.46-.81,2.25-.98.44-.09.89-.15,1.34-.16l.49,2.27c-.52.13-.94.37-1.26.7-.4.39-.54.83-.44,1.31.07.31.25.65.54,1.01l10.06,12.24c1.15,1.39,2.15,1.95,3.01,1.65ZM222.6,107.63l-5.07-6.32-1.3,7.68,6.38-1.37ZM228.6,112.38c-.18-.86-.51-1.58-.98-2.16l-8.02-10.06c-.29-.33-.8-.59-1.52-.78l10.52,13Z"/><path d="M260.78,99.74c-.01,2.42-.82,4.44-2.43,6.08s-3.62,2.45-6.04,2.44c-1.03,0-1.98-.24-2.85-.72v2.89c-.02.75.24,1.31.75,1.67.51.37,1.15.51,1.92.43v2.28c-.59.19-1.24.28-1.97.28-1.45,0-2.58-.53-3.39-1.56-1.05,1.02-2.51,1.53-4.37,1.52-.38,0-.77-.04-1.15-.1v-2.08c.7,0,1.27-.19,1.75-.59.47-.39.71-.92.71-1.58l.07-14.01c0-.77-.18-1.4-.57-1.9-.45-.56-1.04-.83-1.79-.81v-2.57c.4-.06.86-.09,1.39-.09,1.9,0,3.29.56,4.16,1.66,1.76-1.25,3.56-1.88,5.4-1.87,2.44.01,4.45.84,6.05,2.5,1.6,1.65,2.39,3.7,2.38,6.14ZM245.57,108.94l.05-10.78c0-1.78-.33-3.01-1.01-3.69.28.45.41,1.35.4,2.7l-.05,11.22c0,1.71-.23,2.79-.66,3.24.84-.27,1.26-1.17,1.26-2.69ZM255.36,99.07c0-.47-.02-.89-.06-1.25-.08-.77-.38-1.55-.89-2.35-.6-.96-1.25-1.45-1.96-1.45-.82,0-1.54.28-2.17.84-.63.57-.94,1.24-.94,2.03l-.04,7.44c.51.28,1.1.42,1.76.43,1.48,0,2.59-.61,3.34-1.84.62-1,.94-2.28.95-3.84ZM257.48,99.1c0-1.71-.66-3.34-2-4.87.87,1.55,1.3,3.3,1.29,5.25,0,1.99-.62,3.76-1.82,5.3.73-.68,1.33-1.55,1.81-2.61s.72-2.08.72-3.07Z"/><path d="M285.79,111.52l-2.01,7.52-1.7-.32-.58-1.61c-1.88.64-3.81.78-5.79.4-1.91-.36-3.43-1.27-4.54-2.72-1.57.94-3.09,1.27-4.56.99-.36-.07-.69-.18-1.01-.36l.44-2.33c.65.12,1.22-.17,1.7-.88.38-.53.65-1.17.79-1.9l2.18-11.5c.2-1.05.18-1.95-.05-2.71-.29-1.01-.93-1.53-1.92-1.57l.43-2.29.64.09c2.58.42,3.99,1.25,4.23,2.47,1.76-.78,3.55-.99,5.38-.64.67.13,1.51.46,2.52.98,1.01.53,1.73.84,2.18.92.78.15,1.29-.09,1.54-.72l1.57,1.17-.89,4.84-1.9.22c-.02-1.07-.42-2-1.2-2.81-.78-.8-1.71-1.3-2.78-1.51-1.51-.29-2.63-.06-3.36.67-.52.55-.91,1.53-1.18,2.94-.05.27-.13.7-.25,1.29-.09.57-.16,1.01-.22,1.33.35.24.74.4,1.18.49,1.43.27,2.38-.63,2.86-2.69l2.19.51c-.01.17-.04.4-.09.67-.4,2.08-1.08,3.15-2.04,3.2.85.92,1.17,2.2.97,3.84l-2.52-.48c-.15-.8-.31-1.33-.48-1.6-.27-.39-.78-.66-1.51-.8-.48-.09-.87,0-1.16.27-.43,2.29-.64,3.8-.63,4.51.04,1.97.83,3.1,2.36,3.39,1.66.31,3.08.13,4.25-.56,1.27-.71,2.09-1.89,2.46-3.52l2.49.8ZM272.64,100.01c.11-.59.15-1.25.11-1.97-.06-.84-.21-1.46-.46-1.85.17.49.13,1.4-.12,2.72l-2.09,11.03c-.32,1.68-.73,2.7-1.23,3.06.91-.11,1.51-.91,1.79-2.4l2.01-10.59Z"/><path d="M321.34,131.06c-.58,1.07-1.33,1.76-2.27,2.07-.93.31-1.93.18-2.99-.39-.58-.32-1.35-.93-2.29-1.84-.94-.91-1.73-1.53-2.35-1.87-.66-.36-1.64-.65-2.94-.88-1.3-.23-2.02-.38-2.15-.45-.4-.21-.38-.72.04-1.5.85-1.58,2-2.91,3.44-4,1.57-1.19,3.17-1.82,4.8-1.88,1.87-.08,3.24-.24,4.12-.47,1.58-.41,2.66-1.15,3.24-2.22,1.01-1.88.75-3.23-.78-4.06-.88-.47-1.86-.34-2.94.41.47,1.03.52,1.88.16,2.55-.34.64-.88,1.03-1.6,1.17-.72.14-1.4.04-2.04-.3-1.88-1.02-2.25-2.58-1.12-4.68.74-1.37,2.12-2.1,4.13-2.18,1.71-.07,3.32.29,4.8,1.1,1.81.97,3.07,2.23,3.8,3.76.81,1.7.74,3.42-.2,5.17-.81,1.51-2.07,2.57-3.76,3.18-1.07.42-2.73.5-4.98.25-2.25-.25-4.11-.13-5.58.36.82.27,1.58.6,2.28.98.71.39,1.48,1,2.29,1.84.81.84,1.44,1.38,1.89,1.62,1.03.56,1.96.34,2.79-.64.68.95.75,1.92.21,2.92ZM324.15,118.84c.42-.77.54-1.59.39-2.47-.16-.88-.55-1.66-1.17-2.36.77,1.51.78,2.94.05,4.29-.72,1.29-1.87,2.16-3.45,2.62-.82.21-2.2.37-4.15.46,1.92.14,3.41.12,4.48-.06,1.86-.33,3.14-1.16,3.85-2.48Z"/><path d="M345.75,140.5c-1.75,2.24-3.98,3.67-6.68,4.3-2.88.65-5.41.12-7.59-1.6-2.19-1.72-3.3-4.05-3.36-7-.03-2.77.83-5.27,2.59-7.51,1.76-2.24,3.97-3.66,6.66-4.28,2.89-.67,5.43-.14,7.61,1.57,2.19,1.72,3.3,4.06,3.34,7.02.04,2.75-.81,5.25-2.57,7.48ZM329.72,138.48c.07-1.47.42-3.02,1.05-4.64s1.41-3.02,2.34-4.2c1.64-2.08,3.73-3.56,6.27-4.41-1.3.17-2.62.67-3.96,1.48-1.33.82-2.42,1.75-3.25,2.81-1.83,2.34-2.66,5.32-2.46,8.95ZM343.97,131.69c.41-.52.55-1.17.42-1.94-.13-.77-.46-1.36-.98-1.77-.57-.45-1.23-.64-1.97-.58-.74.06-1.33.37-1.76.92l-7.02,8.95c-.45.57-.62,1.23-.5,1.96.12.73.46,1.32,1.04,1.77.57.45,1.23.64,1.97.58.74-.06,1.33-.38,1.78-.95l7.02-8.95ZM342.62,138.45c.91-1.16,1.67-2.54,2.29-4.14.62-1.6.94-3.11.98-4.55.13.59-.33,1.9-1.4,3.92-.91,1.68-1.69,2.94-2.35,3.78-2.02,2.57-4.17,4.41-6.44,5.5,2.86-.77,5.17-2.28,6.92-4.51Z"/><path d="M356.33,162.18c-.91.81-1.86,1.21-2.84,1.18-.98-.03-1.88-.49-2.67-1.38-.44-.5-.95-1.33-1.53-2.51s-1.1-2.03-1.57-2.56c-.5-.56-1.32-1.17-2.47-1.83s-1.77-1.04-1.87-1.15c-.3-.34-.12-.8.55-1.4,1.34-1.19,2.87-2.06,4.59-2.6,1.88-.59,3.6-.63,5.16-.13,1.78.56,3.13.88,4.03.96,1.63.15,2.89-.17,3.8-.98,1.59-1.42,1.81-2.78.65-4.08-.67-.74-1.63-.95-2.9-.61.09,1.12-.15,1.94-.72,2.45-.54.48-1.17.67-1.9.56-.73-.11-1.33-.44-1.82-.98-1.42-1.59-1.24-3.19.54-4.78,1.16-1.04,2.71-1.25,4.62-.65,1.64.52,3.02,1.4,4.14,2.67,1.37,1.53,2.13,3.14,2.29,4.83.18,1.87-.47,3.47-1.95,4.79-1.28,1.14-2.81,1.71-4.62,1.71-1.15.03-2.74-.46-4.77-1.46-2.03-1-3.82-1.52-5.37-1.56.68.54,1.29,1.1,1.81,1.69.54.61,1.05,1.44,1.53,2.51.48,1.06.89,1.79,1.23,2.17.78.88,1.73.99,2.84.34.32,1.12.05,2.06-.79,2.82ZM363.13,151.64c.65-.58,1.05-1.32,1.2-2.19.15-.88.05-1.75-.29-2.62.21,1.68-.26,3.03-1.41,4.05-1.11.97-2.49,1.39-4.14,1.29-.84-.08-2.2-.4-4.06-.98,1.76.78,3.17,1.27,4.23,1.47,1.86.32,3.35-.02,4.46-1.02Z"/><path d="M371.43,179.02c-1.79,1.12-3.64,1.48-5.54,1.06-1.9-.41-3.41-1.52-4.53-3.31-1.61-2.57-1.89-5.11-.83-7.61.91-2.18,2.71-4.12,5.41-5.81,2.46-1.54,4.98-2.21,7.56-2.01,2.85.21,5.02,1.5,6.51,3.87.75,1.2,1.16,2.31,1.22,3.34.07,1.03-.24,2.12-.9,3.27-.25.41-.55.72-.89.93-.74.47-1.51.62-2.3.47-.79-.15-1.41-.6-1.88-1.34-.38-.6-.49-1.24-.34-1.93.15-.69.52-1.22,1.12-1.59.54-.34,1.2-.45,1.96-.32.16-.63.1-1.17-.18-1.62-.54-.87-1.59-1.21-3.14-1.02-1.27.14-2.38.51-3.32,1.1-.2.13-.39.26-.58.4,1.36,1.09,2.4,2.2,3.12,3.35.99,1.58,1.22,3.21.69,4.9-.5,1.58-1.55,2.86-3.14,3.86ZM361.21,172.86c.26-1.51.96-3.02,2.09-4.52,1.05-1.42,2.26-2.56,3.62-3.41,1.97-1.24,4.3-1.97,6.98-2.21-2.28-.62-4.78-.07-7.5,1.63-1.58.99-2.83,2.18-3.77,3.58-1.04,1.59-1.52,3.24-1.42,4.93ZM368.28,174.6c.8-.5,1.47-1.12,2.01-1.86.71-1,.86-1.84.44-2.51-.43-.69-1.25-.92-2.44-.7-.92.15-1.78.47-2.57.97-.8.5-1.47,1.13-2.02,1.91-.72.98-.87,1.82-.44,2.5.42.67,1.23.9,2.44.7.92-.17,1.79-.51,2.58-1.01ZM369.32,176.56c.69-.43,1.27-1.04,1.73-1.83.47-.79.74-1.58.82-2.38-.53,1.44-1.47,2.59-2.81,3.43-1.36.85-2.91,1.09-4.66.72,1.99.85,3.63.87,4.92.06Z"/><path d="M154.09,352.79c-1.72,1.61-3.81,2.08-6.27,1.43-2.08-.57-3.99-1.78-5.71-3.62-1.5-1.61-2.31-3.38-2.43-5.32-.76-.03-1.56-.28-2.42-.76-.79-.44-1.47-.96-2.03-1.57l-.2-.26,1.66-1.56c.59.38,1.24.53,1.94.45.7-.08,1.31-.37,1.84-.87l9.23-8.63c.77-.72,1.24-1.43,1.41-2.15.2-.89-.09-1.64-.85-2.27l1.59-1.49c.28.24.6.55.97.94,1.52,1.62,2.23,3,2.15,4.13,2,.61,3.76,1.72,5.26,3.33,1.42,1.51,2.25,3.28,2.5,5.3.26,2.22-.33,4-1.77,5.34-1.3,1.21-2.97,1.5-5,.86.39,1.07.38,2.28-.04,3.63-.38,1.26-.99,2.29-1.83,3.07ZM150.26,334.38c1.28-1.2,1.95-2.29,1.99-3.27-.15.49-.72,1.2-1.71,2.12l-8.2,7.66c-1.25,1.17-2.19,1.75-2.81,1.74.79.44,1.74.14,2.84-.9l7.87-7.36ZM150.51,348.81c.86-.81,1.3-1.8,1.31-2.99,0-1.18-.4-2.22-1.22-3.09-.57-.61-1.35-1.12-2.34-1.52l-3.86,3.6c-1.36,1.28-1.44,2.55-.24,3.84.85.91,1.89,1.38,3.11,1.42,1.22.03,2.3-.39,3.24-1.27ZM151.95,350.19c.8-.74,1.12-1.88.95-3.39-.19,1.17-.74,2.18-1.64,3.03-.88.82-1.96,1.27-3.27,1.34,1.65.27,2.97-.06,3.96-.98ZM157.57,340.5c.72-.67,1.17-1.41,1.34-2.2.19-.9-.04-1.69-.67-2.37-.46-.49-.97-.87-1.54-1.12-.74-.29-1.34-.22-1.8.2l-4.21,3.94c.23.28.45.53.67.76,2.19,2.35,4.26,2.61,6.21.8ZM158.94,341.98c.75-.7,1.03-1.73.85-3.08-.08,1.04-.56,1.97-1.43,2.79-.69.64-1.56,1.07-2.63,1.27,1.33.11,2.4-.22,3.21-.98Z"/><path d="M180.05,377.65l-1.24,1.83c-.17-.06-.37-.17-.62-.34-1.68-1.14-2.58-2.46-2.71-3.96-1.6.26-3.28-.21-5.05-1.4-.3-.2-.58-.42-.84-.65l1.19-1.75c.55.37,1.1.63,1.65.77.76.21,1.29.1,1.58-.33.17-.25.3-.78.38-1.6.03-.55.07-1.1.12-1.66l-8.24-5.57c-1.21.8-1.91,1.34-2.11,1.62-.75,1.11-.3,2.2,1.36,3.26l-1.2,1.77c-.29-.11-.6-.29-.96-.53-1.22-.83-1.92-1.86-2.08-3.11-1.57.07-2.9-.26-3.98-.99-.41-.28-.73-.61-.98-1.01l1.17-1.73c1.33.82,2.61.83,3.84.04,2.46-1.57,4.93-3.14,7.41-4.72,4.12-2.67,6.33-4.21,6.62-4.64.37-.55.2-1.06-.5-1.54-.21-.14-.43-.29-.66-.45l1.43-2.06c.41.15.87.4,1.36.73,1.63,1.1,2.48,2.45,2.56,4.06.7-.26,1.5-.3,2.42-.09.84.17,1.59.49,2.27.94.37.25.72.54,1.04.86l-1.3,1.92c-.46-.28-.91-.42-1.38-.42-.56-.01-.98.18-1.25.59-.18.27-.3.63-.35,1.09l-1.86,15.74c-.21,1.79.09,2.9.89,3.31ZM174.83,364.68l1.04-8.03-6.44,4.38,5.4,3.65ZM175.55,372.29c.49-.73.78-1.46.88-2.2l1.7-12.75c.04-.44-.13-.99-.49-1.64l-2.08,16.59Z"/><path d="M210.17,383.7l-4.85,6.92-2.09-.82-.13-1.15c-1.78.04-3.5-.27-5.15-.92-1.87-.73-3.09-1.84-3.66-3.33-1.33.74-2.63.86-3.93.35-.52-.2-.99-.52-1.42-.94l.83-2.12c.83.33,1.64.24,2.41-.25.68-.44,1.18-1.09,1.52-1.94l4.5-11.46c.58-1.48,0-2.72-1.75-3.7l.82-2.08c.43.07.91.21,1.45.42,1.71.67,2.84,1.68,3.4,3.02,1.28-.62,2.77-.6,4.49.07.36.14.7.31,1.04.51l-.83,2.12-.09-.03c-.74-.34-1.42-.34-2.05,0-.62.33-1.09.9-1.4,1.69l-4.96,12.65c.61.79,1.46,1.39,2.56,1.82,2.55,1,5.2.19,7.95-2.43l1.37,1.61ZM195.66,380.21l3.94-10.03c.21-.54.36-1.18.44-1.93.09-.84.05-1.47-.14-1.91.08.51-.13,1.39-.63,2.65l-4.1,10.45c-.62,1.59-1.22,2.52-1.78,2.78.96.08,1.71-.59,2.27-2Z"/><path d="M235.67,374.04l-1.66,7.75-2.57.8c.24-2.05.35-3.3.31-3.77-.05-1.81-.61-2.82-1.67-3.05-.54-.12-1.1,0-1.66.32-.56.33-.9.75-1.01,1.27l-2.71,12.68c-.16.75-.11,1.44.16,2.06.27.71.77,1.13,1.5,1.24l-.46,2.17c-.36.03-.76,0-1.22-.1-1.46-.31-2.48-1.09-3.04-2.32-1.19.86-2.76,1.08-4.7.67-.25-.05-.51-.12-.78-.2l.46-2.13c.63.03,1.18-.15,1.67-.51.48-.37.79-.85.92-1.46l2.87-13.4c.27-1.27-.15-2.03-1.25-2.27-1.19-.25-2.29.38-3.29,1.91-.71,1.09-1.26,2.34-1.62,3.76l-1.83-1.57,1.69-7.9,1.36-.2c.33.59.94.99,1.81,1.17.52.11,1.29.07,2.29-.12,1-.19,1.79-.22,2.35-.1,1.15.25,1.91.88,2.28,1.9.31-.31.89-.52,1.74-.63.75-.11,1.38-.11,1.9,0,.67.14,1.36.52,2.07,1.13.71.61,1.26.96,1.66,1.04.5.11.85-.13,1.04-.73l1.41.6ZM221.57,388.61l2.25-10.54c.37-1.71.27-2.99-.29-3.83.18.5.12,1.4-.16,2.72l-2.35,10.97c-.36,1.67-.79,2.68-1.3,3.03.92-.09,1.53-.87,1.85-2.36Z"/><path d="M252.44,376.92c-.68,0-1.26.2-1.71.61-.46.42-.7.97-.73,1.65l-.64,14.12c-.07,1.5.61,2.39,2.03,2.66l-.09,2.05c-.3.05-.67.07-1.09.05-1.84-.08-3.22-.76-4.15-2.02-.39.56-.97.99-1.76,1.29-.78.3-1.54.42-2.26.36l-.64-.06.1-2.12c.69-.01,1.24-.28,1.66-.79.42-.52.65-1.13.68-1.83l.6-13.17c.1-2.24-.71-3.34-2.42-3.29l.1-2.15c.5-.19,1.1-.27,1.78-.24,1.35.06,2.49.63,3.43,1.7.86-.99,2.12-1.44,3.77-1.37.47.02.96.11,1.47.25l-.1,2.28ZM245.95,391.68l.49-10.76c.03-.6-.04-1.25-.2-1.97-.16-.82-.4-1.41-.72-1.77.26.46.36,1.36.29,2.71l-.51,11.21c-.08,1.71-.34,2.78-.79,3.21.46-.13.81-.5,1.08-1.11.21-.48.33-.99.36-1.52Z"/><path d="M291.25,391.28l.34,2.29c-.35.12-.79.23-1.31.31-1.96.32-3.5.06-4.62-.8-.36.58-1.03,1.1-2.02,1.55-.81.36-1.64.61-2.51.75-.42.07-.86.12-1.31.15l-.38-2.28c.94-.24,1.65-.75,2.16-1.52.5-.77.67-1.64.51-2.61l-1.4-8.5-5.24,10.06-8.55-8.93,1.62,9.84c.27,1.65,1.39,2.6,3.36,2.86l.38,2.31c-.33.1-.74.19-1.22.27-1.71.28-2.93.04-3.66-.73-.7,1-1.79,1.63-3.27,1.87-.3.05-.61.08-.93.09l-.42-2.53c.83-.2,1.49-.63,1.97-1.28.48-.65.65-1.41.5-2.27l-1.9-11.57c-.38-2.29-1.5-3.27-3.38-2.94l-.41-2.5,7.77-1.28,7.98,8.61,5.57-10.84,6.41-1.05.49,2.81c-.7.09-1.22.41-1.57.94-.35.53-.46,1.15-.35,1.84l2,12.18c.29,1.79,1.42,2.76,3.37,2.89ZM275.33,387.33l-7.55-7.96c-.42-.43-.89-.63-1.42-.58l8.55,9.16.42-.62ZM284.39,388.67l-1.93-11.77-.5.93,1.73,10.54c.29,1.75-.04,3-.98,3.74.62-.32,1.08-.8,1.39-1.45s.4-1.31.29-1.98Z"/><path d="M315.29,371.91c1.21,2.99,1.44,5.93.7,8.82-.84,3.17-2.7,5.35-5.59,6.52-2.79,1.13-5.6.85-8.41-.85-2.57-1.57-4.44-3.79-5.61-6.69-1.2-2.97-1.41-5.91-.63-8.81.86-3.18,2.73-5.36,5.63-6.53,2.79-1.13,5.59-.84,8.38.87,2.52,1.56,4.37,3.79,5.54,6.68ZM304.88,386.47c-3.05-2.34-5.19-5.05-6.43-8.12-1.09-2.7-1.43-5.55-1-8.55-.48,1.39-.68,2.96-.6,4.71.07,1.75.39,3.31.95,4.7,1.24,3.07,3.61,5.49,7.09,7.27ZM309.53,375.02c-.78-1.92-1.68-3.63-2.7-5.12-1.61-2.32-3.04-3.22-4.3-2.72-1.47.6-2.05,2.21-1.72,4.84.22,1.64.76,3.51,1.62,5.63.69,1.7,1.63,3.29,2.83,4.76,1.62,1.99,3.06,2.73,4.34,2.22,2.19-.88,2.17-4.09-.07-9.61ZM311.9,373.97c-1.23-3.03-3.29-5.46-6.2-7.28l.14.08c2.17,2,3.87,4.52,5.1,7.55,1.28,3.15,1.75,5.99,1.44,8.52.88-2.94.73-5.9-.48-8.87Z"/><path d="M345.76,362.15c.61.9.75,1.9.43,3-.33,1.1-.95,1.96-1.87,2.58-1.65,1.11-3.37,1.26-5.17.44-1.42-.95-2.82-1.9-4.21-2.84-1.51-1.01-2.77-1.19-3.76-.52-.34.23-.6.51-.79.84-.22.43-.23.81-.01,1.13l1.62,2.39c.43.64,1.01,1.07,1.74,1.3s1.4.15,2.03-.25l1.4,2.07c-.31.31-.7.63-1.18.95-1.45.98-2.73,1.18-3.83.58-.08,1.48-.79,2.67-2.12,3.56-.48.32-1.03.57-1.67.74l-1.17-1.72c.52-.45.81-1.02.87-1.69.06-.67-.1-1.29-.48-1.86l-7.38-10.9c-.98-1.45-1.94-1.86-2.88-1.22-.18.12-.35.29-.51.5l-1.4-2.07c.45-.71,1.05-1.33,1.81-1.85,1.36-.92,2.78-1.08,4.25-.47.17-.89.61-1.83,1.31-2.82.67-.92,1.4-1.65,2.2-2.18,1.88-1.27,3.84-1.69,5.9-1.27,2.06.43,3.72,1.58,4.99,3.46.77,1.13,1.09,2.33.96,3.59-.13,1.26-.68,2.37-1.65,3.34,1.12-.14,2.27.08,3.46.64.87.52,1.73,1.02,2.58,1.49.85.47,1.49.56,1.94.26.58-.4.8-1.33.66-2.81.87.45,1.51.98,1.93,1.6ZM328.93,370.98l-6.14-9.07c-.34-.5-.78-.98-1.32-1.43-.64-.52-1.2-.84-1.69-.95.46.23,1.08.9,1.83,2.02l6.39,9.45c.96,1.42,1.39,2.43,1.29,3.05.28-.39.35-.92.21-1.58-.09-.56-.28-1.05-.57-1.48ZM330.79,356.06c-.54-.79-1.15-1.31-1.83-1.55-.76-.28-1.52-.17-2.28.35-1.91,1.29-2.32,2.75-1.21,4.38l2.88,4.25c.41-.15.78-.33,1.1-.55,1.24-.84,1.98-1.88,2.23-3.14.25-1.25-.05-2.5-.88-3.74ZM332.59,354.72c-.65-.96-1.74-1.41-3.29-1.37,1.19.38,2.15,1.12,2.9,2.22.58.85.87,1.82.89,2.92.36-1.49.2-2.74-.5-3.77ZM342.34,366.83c-.9.01-2.23-.62-4-1.9-1.66-1.2-2.96-1.68-3.88-1.44.39,0,1.12.4,2.21,1.21,1.4,1.04,2.37,1.7,2.92,1.97,1.14.57,2.05.63,2.74.16Z"/><path d="M363.91,338.67l5.19,5.79-1.2,1.25-1.66-.4c-.49,1.93-1.43,3.62-2.83,5.07-1.35,1.4-2.94,2.17-4.76,2.32-.07,1.83-.62,3.29-1.66,4.37-.25.26-.54.48-.85.65l-1.71-1.65c.46-.48.52-1.11.19-1.91-.24-.61-.62-1.18-1.16-1.7l-8.43-8.11c-.77-.74-1.53-1.22-2.29-1.44-1.01-.31-1.79-.06-2.36.75l-1.68-1.62.42-.49c1.76-1.92,3.22-2.66,4.38-2.19.31-1.9,1.11-3.51,2.4-4.85.47-.49,1.21-1.02,2.2-1.57.99-.56,1.65-1,1.96-1.32.55-.57.63-1.13.24-1.68l1.84-.68,3.57,3.39-.86,1.71c-.9-.57-1.91-.75-3-.53-1.1.22-2.03.72-2.78,1.51-1.07,1.11-1.49,2.17-1.28,3.18.18.74.79,1.6,1.82,2.6.2.19.52.5.95.91.43.39.76.69.99.91.39-.16.74-.4,1.05-.72,1.01-1.05.78-2.34-.69-3.87l1.63-1.55c.14.1.31.25.51.44,1.53,1.47,2.05,2.62,1.56,3.46,1.23-.21,2.48.22,3.74,1.29l-1.78,1.85c-.75-.31-1.29-.47-1.6-.47-.48.01-.98.29-1.5.83-.34.35-.48.73-.41,1.12,1.68,1.62,2.83,2.62,3.43,2.99,1.67,1.05,3.05,1,4.13-.12,1.17-1.22,1.79-2.51,1.86-3.86.1-1.45-.44-2.78-1.6-3.99l2.03-1.65ZM347.08,343.39c-.43-.42-.96-.81-1.59-1.17-.73-.41-1.33-.62-1.8-.62.5.13,1.24.66,2.21,1.59l8.09,7.78c1.23,1.19,1.86,2.09,1.89,2.71.41-.82.06-1.76-1.03-2.81l-7.77-7.47Z"/><path d="M382.15,322.06l-.19.32c-2.62-1.55-5.49-1.92-8.61-1.12-3.12.8-5.45,2.51-7,5.14l-.32-.19c1.55-2.62,1.92-5.5,1.12-8.62-.81-3.12-2.52-5.45-5.13-7l.19-.33c2.62,1.55,5.5,1.93,8.61,1.12,3.12-.8,5.45-2.52,7-5.14l.32.19c-1.55,2.62-1.93,5.5-1.12,8.61.8,3.12,2.51,5.45,5.14,7Z"/><path d="M401.08,271.63l2.22.64c-.04.37-.12.81-.27,1.32-.53,1.92-1.42,3.2-2.66,3.86.38.57.56,1.4.56,2.48-.01.88-.13,1.75-.37,2.59-.11.41-.25.83-.41,1.25l-2.23-.61c.17-.95.02-1.81-.48-2.59-.49-.78-1.21-1.3-2.15-1.56l-8.3-2.29,6.94,8.97-11.69,4.02,9.61,2.65c1.61.45,2.94-.17,4.01-1.85l2.26.62c-.05.34-.14.75-.27,1.22-.46,1.67-1.19,2.68-2.2,3.02.62,1.06.73,2.31.33,3.75-.08.29-.18.58-.31.88l-2.47-.68c.17-.84.05-1.62-.34-2.32-.39-.71-1.01-1.18-1.85-1.41l-11.3-3.12c-2.24-.62-3.6,0-4.09,1.83l-2.44-.67,2.1-7.59,11.16-3.64-7.51-9.6,1.73-6.26,2.76.73c-.21.67-.14,1.28.2,1.82.34.54.85.9,1.53,1.09l11.9,3.29c1.75.48,3.1-.13,4.04-1.85ZM390.82,284.43l-10.39,3.52c-.57.2-.94.55-1.13,1.05l11.9-3.93-.39-.64ZM395.83,276.77l-11.5-3.18.63.84,10.29,2.84c1.71.47,2.7,1.29,2.98,2.46-.03-.7-.27-1.32-.73-1.87-.46-.55-1.02-.91-1.68-1.09Z"/><path d="M393.33,239.5c3.47.11,6.23.91,8.28,2.4,2.4,1.76,3.55,4.3,3.45,7.62-.07,2.39-.79,4.15-2.15,5.26.61.51,1.07,1.2,1.4,2.08.33.88.48,1.73.45,2.56,0,.3-.04.59-.09.86l-2.05-.06c-.13-.71-.47-1.3-1.02-1.76-.55-.47-1.2-.71-1.94-.73l-12.56-.39c-1.02-.03-1.87.09-2.54.37-.91.4-1.31,1.05-1.21,1.95l-2.21-.07c-.06-.34-.08-.76-.06-1.25.06-1.94.68-3.19,1.85-3.73-1.11-1.34-1.63-3.2-1.56-5.57.1-3.35,1.32-5.85,3.65-7.49,2.07-1.48,4.84-2.16,8.32-2.05ZM392.51,245.41c-1.97-.06-3.74.12-5.31.55-2.35.61-3.55,1.65-3.59,3.11-.06,1.87,1.06,2.84,3.34,2.91l11.99.37c.77.02,1.46-.12,2.07-.42.74-.39,1.12-.93,1.14-1.64.06-1.8-1.17-3.12-3.66-3.95-1.59-.54-3.58-.85-5.97-.93ZM388.19,255.38c-1.77-.05-3.01.24-3.72.88.46-.24,1.36-.34,2.71-.3l11.22.34c1.71.05,2.78.3,3.22.74-.25-.84-1.14-1.29-2.65-1.33l-10.77-.33ZM393.08,243.4c-4.08-.12-6.9.62-8.44,2.24,2.19-1.09,4.9-1.58,8.13-1.48,3.61.11,6.48.79,8.6,2.03-1.42-1.73-4.19-2.66-8.29-2.79Z"/><path d="M221.61,163.46c-.51.36-.9,1.38-1.6,1.48l-4.08-.93c-.83-.78-.05-1.66.61-2.3,4.1-3.95,14.65-8.66,20.23-9.93,2.05-.47,4.04-.38,5.97-.73,2.71-.48,4.9-1.72,7.98-2.12,22.88-2.99,44.31-.94,63.16,13.5,1.42,1.09,2.43,2.55,3.71,3.6,3.36,2.75,6.74,4.76,10.05,7.86,5.25,4.92,14.25,15.19,16.98,21.66,2.71,6.45,5.93,15.25,7.84,21.96,2.98,10.47,2.11,21.85,1.42,32.58-.85,13.12-3.56,25.52-9.98,37.15-.57,1.03-2.89,4.65-3.65,5.26-.91.72-2.88.67-3.78-.05-.43-.87,1.73-3.71,2.21-4.72,4.78-10.17,9.81-25.32,10.96-36.45.43-4.17-.52-3.53-1.3-6.48-.31-1.17.19-5.04.04-6.75-.91-10.28-5.51-28.05-9.89-37.4-2.14-4.57-11.58-12.6-15.64-16.37-6.87-6.39-13.51-12.82-21.93-17.19-16.21-8.42-29.4-10.35-47.51-10.85-9.15-.25-24.18,1.85-31.79,7.22Z"/><path d="M174.63,209.24c-2.12-3.63,3.12-9.32,4.94-12.14,2.25-3.5,6.89-12.4,10.16-14.27,5.64-3.23,19.76-3.13,25,.58,2.05,1.45,4.19,4.54,4.83,6.96.62,2.33.67,8.1-.45,10.16-1.7,3.14-12.95,11.34-16.48,12.25-5.15,1.32-13.51.47-18.82-.06-1.48-.15-4.86-.38-6.09-.73-.98-.27-2.61-1.92-3.1-2.76ZM199.3,191.33c-9.23-.31-11.77,13.46-1.92,14.45,1.38.14,4.11,0,5.35-.61,2.14-1.05,4.07-4.94,3.43-7.29-.86-3.16-3.37-6.43-6.86-6.55Z"/><path d="M237.35,181.65c.58-.05,2.01,1.07,1.96,1.77-.16.91-4.93,2.46-4.76,4.54.06.74,1.56,2.75,1.24,3.46-2.66,1.6-3.51,4.88-5.57,6.81-2.2,2.06-4.32-2.22-3.6-4.02.26-.64,1.08-1.3,1.19-1.89.26-1.42-1.05-3.33-.06-5.29,1.28-2.53,7.22-4.05,9.6-5.38Z"/><path d="M221.39,265.87l3.17-.05,1.32-2.7.95.47c.2.89-.58,1.9-.61,2.63-.03.86,1.26,3.29,1.5,4.49.73,3.68-.42,5.46-2.09,8.56-2.39-1.56-.35-4.84-.57-7.12-.04-.39-1.46-3.77-1.66-3.91-.47-.33-1.23-.37-1.8-.4-.28,1.43-1.7,1.76-2.59,2.69-.51.53-1.99,3.19-2.34,3.21-1.22-.82-1.76-2.17-1.44-3.6.2-.91,1.03-1.6,1.16-2.24.17-.88-.36-2.01.01-3.26.28-.93,1.1-1.03,1.34-1.72.22-.61,0-3.46.4-3.78.48-.04.49.28.72.52,1.23,1.3,1.75,4.48,2.51,6.2Z"/><path d="M251.57,255.96c-.71.26-2.74-1.05-3.39-1.53-3.47-2.55-11.2-10.69-13.08-14.49-.36-.74-.89-1.55-.69-2.4,1.5.97,2.47,2.5,3.8,3.65,2.71,2.33,6.5,4.39,9.35,6.74,1.72,1.42,5.57,4.56,4.76,6.99-.06.19-.64,1-.76,1.05Z"/><path d="M274.05,261.96c.63,1.03-.03,4.5.36,6.11.19.78,1.38,3.27,1.82,4.02,1.3,2.19,3.38,3.38,2.43,6.48-2.61-.82-3.88-3.7-6.78-3.79-1.12-.04-2.63.87-3.05-.87-.5-2.06,2.69-5.44,3.42-7.66.51-1.55.32-3.29,1.12-4.74.04-.02.6.36.66.45Z"/><path d="M202.99,264.33l-.68.26c-.18-.25-.67-.49-.78-.72-.39-.79.42-7.88.94-8.66,1.12-1.67,6.48-1.47,8.27-2.04.76-.24,3.24-2.32,3.08-.57-.13,1.4-1.73,2.29-2.3,3.28-.24.42-.21.97-.41,1.37-.96,1.86-7.25,1.74-7.44,2.88l-.69,4.2Z"/><path d="M281.48,248.06c2.86-.1,1.94,2.53.5,3.94-2.56,2.51-7.98,2.79-11.29,2.06-1.17-.26-2.59-.6-1.9-2.02.48-.98,4.06-.19,5.41-.54,2.07-.53,5.01-3.35,7.27-3.44Z"/><path d="M233.71,266.31c-1.13,2.39.34,5.22.75,7.68.11.63.59,3.93.52,4.24-.19.84-2.75,3.07-3.56,2.81-.9-.29.98-2.03.97-2.56-.27-2.55-2.61-8.18-2.16-10.47.24-1.23,2.38-2.57,3.48-1.7Z"/><path d="M196.56,220.95c-.2.18-.67.2-.94.45-2.13,1.95-3.81,4.12-4.77,6.88-.02.29-.54.13-.67.05-1.25-.78.43-4.45.48-5.67l-.33-.46-1.39-.4.02-.96,8.15-1.87c.65.52-.06,1.54-.55,1.98Z"/><path d="M222.3,172.66c.39,0,1.02,1.09,1.24,1.42,2,3.05,3.63,7.04,5.31,10.28-1.36,1.6-2.25-1.02-2.82-2.1-1.5-2.85-2.56-6.07-3.98-8.97-.37-.28.05-.63.25-.64Z"/><path d="M211.1,267.56c-.1.29-1.35,2.07-1.55,2.03l-1.04-1.15c.87-1.68.8-3.59.95-5.42.49-.96,2.46-.35,2.34.34-.2,1.21-.33,3.15-.69,4.2Z"/><path d="M157.57,299.06l1.25.48c.15-1.21,1.4-1.36,2.4-1.51l-.18-1.49c.15-.96,2.05-1.08,2.82-1.29l.06,4.68-1.98.71c-.61,1.42-.05,2.21,1.45,2.36.01-3.02,2.58-2.39,4.59-3.29-.02,1.82-.99,2.79-2,4.1.7,1.14,2.02,1.37,3.23,1.52-.06,1.41.4,2.12-1.22,2.62,2.16,1.43,5.03,1.96,6.59,4.31.41.62.48,1.46.92,1.89,1.26,1.24,4.28.86,4.13,3.41-2.81-.26-5.01-2.19-7.49-3.32-2.43-1.1-5.06-1.7-7.43-2.79-3.72-1.7-8.61-5.2-11.88-7.7-1.02-.78-2.04-2.55-2.09-3.84-.07-2.14,3.7-4.49,4.59-6.42.31-.69-.02-1.19.34-1.74.92-1.4,3.29-.95,4.69-1.39-.28.87.18,1.9-.23,2.74-.35.73-1.62.66-1.81,1.38s.31,1.84.12,2.72c-.16.73-.83,1.12-.86,1.87Z"/><path d="M191,304c.19-.21.12-.71.21-1,1.34.14,1.64,1.76,1.61,2.9-.02.85-1.24,6.86-1.49,7.12-.9.28-1.82.14-2.75.37-1.8.44-6.32,3.83-7.43,1.1-.62-1.53,1.44-4.44,1.62-6.25.13-1.3-1.28-3.6-.98-5.57.17-1.17,1.79-4.48,2.49-2.23.31,1-.4,3.73.36,4.15.71.39,5.94-.1,6.36-.58Z"/><path d="M177.21,294.49c0,.64-.16,1.63-.02,2.22.2.89,1.09.94.63,2.31-.24.72-2.11,2.33-2.9,2.12-2.03-.54-.2-2.5,0-3.23.1-.4-.42-.91-.13-1.78.27-.8,1.71-1.31,2.43-1.64Z"/><path d="M278.23,187.62c.72,1-.31,4.18-.96,5.1-.24.34-.46.4-.86.4-2.78-1.75-6.33-3-9.02-4.8-1.15-.76-2.03-1.43-.73-2.69,3.39,1.35,6.76.54,10.26,1.43.4.1,1.08.22,1.32.56Z"/><path d="M270.76,229.56c2.03-.24,4.45,1.16,4.69,3.28.29,2.49-2.89,5.7-5.47,4.38-.59-.3-2.25-2.15-2.33-2.76-.15-1.17,1.78-4.75,3.11-4.91Z"/><path d="M198.65,195.27c3.52-.02,4.44,2.13,3.53,5.25-.24.81-.49,1.13-1.24,1.5-6.26,3.12-8.1-6.71-2.29-6.75Z"/><path d="M368.11,230.62c.14-4.31-1.38-7.78-2.12-11.92-.95-5.32-.79-11.17-2.14-16.31-2.1-8.03-8.13-14.14-12.59-20.87-1.42-2.14-2.08-4.84-3.28-7.15-4.73-9.09-20.89-25.93-30.24-30-10.48-4.56-21.25-7.45-32.64-8.59-3.9-.39-7.94.12-11.87-.07-13.06-.63-28.98-4.05-41.6-1.13-6.93,1.61-18.2,9.57-23.39,14.57-4.66,4.48-10.22,14.66-15.28,17.16-2.91,1.44-2.57,1.29-5.1,3.23-2.07,1.59-5.09,2.87-6.92,4.56-5.41,5-6.34,9.81-10.07,15.69-2.34,3.69-7.11,8.27-8.65,11.85-1.08,2.51-.11,5.16.09,7.73.1,1.27-.19,2.84,0,4.17.16,1.17,1.52,3.43.58,4.22-1.33,1.11-2.63.58-4.22,2.85-4.51,6.44-5.05,16.82-.96,23.56,1.36,2.25,3.78,4.59,6.48,4.97-.62,4.69-4.74,7.17-6.6,11.32-1.62,3.63-2.35,7.65-3.7,11.32-.92,2.51-1.24,3.39-3.43,4.92-9.73,6.78-21.05,12.29-30.83,19.06-1.43.99-4.56,3.3-5.49,4.63-2.28,3.24-1,6.24,1.16,9.1-3.53,2.33-.47,5.73,2.84,4.23.69-.31,5.11-3.28,5.61-3.8,1.02-1.05,1.39-1.77.24-2.91-1.61-1.59-3.16-.5-4.68.57-1.21-1.57-1-3.23.24-4.15,7.99-5.89,16.48-10.4,24.32-14.6.3-.16.42-.45.85-.26-2.48,5.84-8.03,12.76-5.32,19.45,2.77,6.85,8.47,8.53,14.06,12.17,6.38,4.15,12.36,9,18.97,12.83,13.89,8.04,28.73,12.63,44.15,16.8,11.32,3.06,22.82,6.27,34.55,6.49,1.4.03,4.17-.8,5.4-1.52l10.46-8.04c4.35-1.51,8.57.17,12.89.53,4.38.36,13.74-.55,18.01-1.72,14.22-3.88,27.08-17.52,37.23-27.91,8.19-8.38,16.26-17.28,21.9-27.64,5.28-9.71,9.41-25.69,9.53-36.72.03-3-.57-6.32-.32-9.27.38-4.48,1.75-8.88,1.9-13.41ZM165.87,259.42c.25-.37.07-.65.73-.41-.49,1.04-1.42,2.8-2.16,3.61-.28.31-.43.66-.94.46.77-1.22,1.56-2.46,2.37-3.66ZM177.84,256.08c-.17.39-2.15,1.53-2.47,1.4-.29-.44-.86-1.31-.64-1.8.07-.17,2.42-2.02,2.78-2.29.29-.22.43-.44.85-.27-.01.54-.58.88-.65,1.37-.08.48.35,1.07.13,1.59ZM174.2,255.39l-2.44.15c0-1.89,1.87-3.38,3.58-3.72l-1.14,3.58ZM172.64,258.38l-2.87,2.62-4.38,5.36c.1-.54.1-1.12.33-1.63.13-.29,3.42-5.03,3.65-5.25.78-.73,2.2-1.18,3.27-1.09ZM160.27,267.95l2.1.35c.28.87-2.6,2.88-2.84,2.5l.74-2.84ZM119.05,300.64c-1.78,1.63-2.85,2.68-2.17,5.21.33,1.24,1.27,3.05,2.7,3.14.48.03.92-.37,1.27-.19-.17.85-4.78,4.11-5.19,3.59l1.33-1.76c-1.61-2.92-3.49-5.64-1.46-8.93,1.41-2.29,8.43-5.95,10.99-7.62,13.88-9.08,28.06-17.63,42.22-26.23l3.73-6.57c3.14-2.19,4.46-1.1,6.75-.71-.02.28,0,.58.02.88.67-.41,1.35-.82,2.02-1.24,24.28-14.95,48.49-30.04,72.91-44.76,1.03.59,1.67,1.84.37,2.5-.57.29-.91-.25-1.53-.24-.92,0-8.33,4.64-9.75,5.5-21.52,12.93-42.72,26.39-63.92,39.85-.02.22-.05.43-.12.64-.27.77-2.74,4.51-3.38,5.48-1.19,1.81-1.41,2.61-3.68,1.9-.54-.17-2.19-.78-3.13-1.48-16.57,10.5-33.18,20.94-49.98,31.05ZM182.93,251.71l1.05.17c-.27.78-.89.9-1.13,1.84-.21.83.11,2.54-.06,2.84-.24.41-2.65,1.87-3.05,1.37.21-.55-.25-1.16-.24-1.59.02-1.27,3.77-2.7,3.43-4.63ZM250.42,196.19l-2.6-32.96c.33-1.02,11.65-1.75,13.31-1.71l-1.12,33.82c-1.21-.07-2.65-.62-3.81-.63-1.8-.01-4.01,1.23-5.78,1.48ZM215.9,281.33c.11-.25,2.31-1.27,2.78-1.58.43-.28,1.83-1.97,2.26-1.53l.66,5.41-2.56,6.23c-1.2.69-5.03.16-5.14-1.39-.03-.36,1.71-5.24,1.98-6.18.09-.32,0-.65.02-.97ZM235.1,290.4c-.3,2.43-2.77,5.23-3.13,7.73l-3.15-.52c.69-1.35,1.7-2.39,2.19-3.89.28-.87.51-3.46.85-3.95.2-.29,2.28-1.74,2.54-1.49-.03.8.8,1.28.7,2.12ZM235.53,302.76c-.1.65-.18,1.3-.35,1.93-2.1,7.76-5.18.66-1.54-2.78l1.89.85ZM230.11,300.53c-.36.82-3.86,4.84-4.64,5.17-.35.15-.59.24-.97.09-.78-.77,2.02-3.52,2.44-4.5.33-.77.48-1.46.56-2.29l2.57.82c.32.32.17.39.03.7ZM229.5,288.4c-.29,2.15-3.02,4.9-3.31,7.16-1.19-.95-2.56-1.5-4.01-1.88l2.1-7.58c1.35,0,2.72-.63,3.61-1.6.69.1,1.69,3.33,1.62,3.91ZM224.79,297.48c.14.21-1.76,2.14-2.07,2.44-1.55,1.53-3.81,3.45-6.1,3.18l-.81-1.82c.86-1.31,1.66-6.41,3.73-5.97,1.42.3,3.6,1.97,5.25,2.17ZM215.5,293.25c.26.42-4.2,7.24-5.97,6.71-.25-.49-.95-1.06-1.03-1.59-.12-.85.12-5.32.52-5.93.36-.55,1.93-1.03,2.59-.95,1.15.14,2.52,1.68,3.89,1.74ZM209.34,285.48c-1.3.9-4.79-.74-6.04-1.57-.17-.42,2.35-6.27,2.84-6.77.73-.75,5.69-2.08,6.33-1.54.24.21.33.84.33,1.17-.01,1.44-2.34,7.94-3.45,8.72ZM183.74,281.3l1.81-.52c.98.82,3.64,1.06,4.35,1.85,1.77,1.97-1.24,4.64-2.89,5.65-2.47,1.51-2.83.77-5.01-.82.5-2.06,2.03-3.96,1.73-6.16ZM180.05,285.35l-4.14.81c-1.57-3.05.65-6.12,1.24-9.21l5.16,1.49c.87.83-1.49,5.89-2.26,6.91ZM194.64,284.99l4.46,1.35c.89,2.33-1.2,3.89-3.01,4.9-2.37,1.33-4.67,2.11-5.7-1.14,1.43-.82,2.77-4.97,4.25-5.11ZM199.8,293.82c.5-.7,1.19-1.61,1.54-2.37.33-.72.85-2.92,1.2-3.17,1.06-.78,3.26,1.47,4.63,1.45-1.32,3.57-4.08,6.64-8.23,5.89-.47-1.12.37-1.13.86-1.8ZM204.62,274.02c-.19.8-2.29,4.75-2.83,5.78-1.01,1.92-1.15,2.74-3.48,2.25-.86-.18-4.46-1.15-3.97-2.27l3.33-7.5c2.2-.49,4.34-1.53,6.64-1.37.01,1,.54,2.11.31,3.11ZM195.81,270.14l-4.64,8.27c-.33.14-5.31-1.69-5.99-2.03-.31-.15-.47.12-.31-.45,1.09-1.3,2.49-5.87,3.52-6.73.78-.65,5.6-1.5,6.54-1.21.79.24,1.09,1.42.87,2.15ZM181.92,273.9c-.54.22-4.23-1.03-4.46-1.48-.23-.47,1.55-4.38,1.93-5.1.44-.83.62-1.34,1.58-1.68.5-.18,4.69-.56,4.97-.44.28.12.31.42.32.7.02,1.96-3.41,6.1-4.34,8ZM174.75,275.05c-.43,2.42-2.07,5.36-2.39,7.92l-2.41.85-1.36-4.13,1.54-6.18c.13-.3,4.08-.2,4.48.37.17.36.21.78.14,1.16ZM167.63,274.02c-.02,3.28-1.55,5-3.97,6.9-.73-.83-.93-3.29-.47-4.2.24-.47,3.74-2.26,4.44-2.69ZM287.09,309.52c-.3,1.15-4.61,7.61-5.59,9.02-4.68,6.75-12.11,13.94-18.2,19.55-.94.86-4.35,3.82-5.27,4.28-.42.21-5.74,1.22-6.49,1.29-4.7.43-9.03.96-13.74.22-7.75-1.21-15.51-3.58-23.09-5.7-15.99-4.48-30.87-8.88-45.47-17.01-3.32-1.85-10.31-5.77-13-8.06-1.22-1.04-2.22-2.67-3.41-3.82-1.12-1.09-7.09-5.33-6.89-6.55.14-.87,1.83-4.1,2.34-5.14,2.77-5.64,6.18-10.98,8.56-16.83.46-.64,3.65-2.16,4.17-1.91.6,1.18,1.18,3.27,1.98,4.27,1.4,1.76,2.89,1.22,4.58.32.88,3.87,2.88,5.08,6.31,2.66.25.05,1.27,4.12,2.51,4.46,1.12.31,3.44-1.01,4.71-.85l3.96,3.59,3.85-1.73c.34.06,2.15,4.34,3.12,4.94.88.54,3.76-.16,4.69-.71-.19,2.25,2.56,3.92,4.56,3.92,2.15,0,3.46-1.67,5.21-2.58-1.09,3.39,2.46,7.2,5.89,5.78.45-.18,1.12-.9,1.49-.77,1.58,1.64,1.64,3.88,3.83,4.91,2.38,1.12,3.18-.57,5.41-.98.14,1.55,2.63,4.24,4.23,3.8.38-.1,1.77-1.57,2.08-1.14l-.63,1.25c1.53,2.2,3.74,2.48,6.27,2.24.49-.05,1.08-.5,1.56-.41.45.09.74.74,1.25.95.89.37,1.75,0,2.28.21,1.04.41,1.9,1.27,3.56,1.63,8.8,1.89,11.12-5.19,15.96-10.42,1.41-1.52,3.29-3.72,5.58-3.03.15,1.91-.62,3.75-1.56,5.4-.66,1.16-6.01,8.45-6.77,8.98-.76.54-1.72.26-1.88,1.61-.23,2,1.82,1.87,3.19,1.19,4.3-2.11,6.02-5.61,9.3-8.04.55-.41,1.84-1.34,2.39-.56.86,1.26-1.74,4.42-2.53,5.53-3.33,4.73-7.59,8.91-12.51,11.96-3.51,2.18-6.42,3.14-10.31,4.36-.83.26-2.37,1.15-3.08,1.19-2.72.16-7.47-1.37-10.5-1.39-1.27-.01-2.6.99-4.22.91-1.56-.08-10.04-2.01-10.57-1.48-.58,1.88,1.89,1.4,2.89,1.89.36.18.44.71.99.92,1.57.59,4.19.38,5.77.96.69.25.87,1.08,1.41,1.54,1.76,1.47,5.26,1.14,7.55,1.54,4.3.76,8.7,2.08,13.09,2.45,6.38.54,14.8-6.17,18.55-10.98,1.47-1.89,2.43-4.25,3.86-5.93,3.47-4.08,10.65-5.65,11.03-11.69.37-5.96-6.33-4.86-8.13-8.54-.98-2.01-2.03-7.66,1.83-6.42,2.38.77,2.62,6.44,7.13,7.64,1.69.45,3.29.09,4.9.66.16.16.18,4.1.05,4.61ZM245.22,299.3c-.88,2.69-2.62,5.09-5.61,3.32l3.71-8.56c2.08,1.65,2.81,2.46,1.91,5.24ZM244.81,292.41l3.14-7.39c6.3-4.86,3.78,7.91.05,8.14-1.1.07-2.18-.38-3.18-.75ZM241.79,305.82c-.29,1.83-1.75,2.89-3.49,3.07l.63-3.81.72-.29c.55.3,1.26.38,1.79.58.37.14.44-.15.34.45ZM244.33,286.73c-.33,1.21-1.43,1.94-2.05,2.99l-3.6-.79c-.93-.94,2.42-5.2,2.83-6.42.38-1.15,0-2.11.3-3.12.23-.79,1.27.21,1.52.54.78,1.01,1.34,5.54.99,6.82ZM239.28,291.51c1.4-.1,2.02,2.37,1.87,3.4-.08.54-2,5.15-2.31,5.52-.56.67-2.75.88-2.59-.37.07-.54,1.17-1.98,1.47-2.81.3-.83,1.25-5.56,1.56-5.75ZM357.79,238.25c.12,2.57.82,5.55.71,8.06-.35,8.06-2.08,19.59-4.84,27.11-2.27,6.2-5.24,14.97-9.33,19.95-4.42,5.39-10.32,9.71-15.38,14.43-2.07,1.92-3.55,4.2-5.51,6.21-3.56,3.65-10.97,11.05-14.93,13.76-2.94,2.02-12.47,3.87-16.1,3.73-.92-.04-1.8-.21-2.7-.37,1.34-2.97,4.92-4.27,7.46-5.92,3.52-2.28,11.11-6.56,13.74-9.28,2.67-2.76.23-3.47.64-5.89.28-1.69,2.81-3.87,4.08-4.99,9.38-8.26,19.61-18.24,24.32-30.08,1.07-2.7,1.85-5.5,2.92-8.21,2.23-5.63,4.92-9.78,5.22-16.24.04-.75-.32-5-1.18-4.95-.63.04-2.56,6.39-3.97,6.9,0-.52.44-.9.5-1.4.33-2.61.53-7.22.51-9.87,0-1.24-.43-5.03-1.17-5.88-.16-.18-3.49-2.81-3.7-2.91-.47-.23-.36.03-.45.32-.56,1.8-.24,4.44-.85,6.58-1.24,4.37-6.99,15.66-9.93,19.12-.93,1.09-2.95,3.51-2.65.34.07-.68.45-1.13.51-1.71.32-3.15.91-7.59.9-10.63,0-3.95-1.54-5.65-4.83-2.58-1.15-1.01-2.38-1.66-3.96-1.67-2.9-.01-4.38,4.05-6.61-.47-1.38-2.8-3.28-11.47-5.99-12.62-2.53-1.07-3.71.55-4.48,2.85-.34,1.03-.26,2.15-.76,3.14-.36.72-1.17,1.1-1.71,1.82-2.59,3.5-1.92,9.33-4.95,12.49-3.75,3.92-5.68,4.99-7.28,10.86-.61,2.26-1.19,8.2.31,10.14.99,1.28,2.47,1.22,3.64,1.8.8.4,1.81,1.87,2.72,2.46.96.62,2.14.83,3.07,1.51,2.25,1.64,4.61,6.12,4.69,8.92.19,6.26-1.27,10.34-6.68,13.77-1.76,1.11-3.09.3-4.85-.41-5.53-2.23-7.71-5.13-12.15-8.44-2.98-2.22-8.47-4.72-10.52-7.52-.55-.75-.72-1.69-1.22-2.37-2.81-3.78-10.64-1.67-14.82-3.05-1.04-.34-5.05-2.94-5.1-3.99-.02-.45.96-1.06.23-1.33-.25-.1-1.64.05-1.97.16-1.95.62-1.34,2.56-1.57,4.12-1.25-.67-1.47-2.77-.97-3.94-1.38-.67-3.22.31-3.84,1.6-.73,1.52,1.5,4.84,1.43,6.49-.03.69-.31,2.53-.54,3.14-.4,1.11-2.76,2.62-2.37,4.61-1.59-2.39-2.69-1.43-4.93-1.2-1.76-3.52-2.2-5.93-6.77-4.01-.36-.09-1.51-5.66-3.05-6.37-1.2-.55-4.8,1.56-5.98,2.21-1.24-3.12-.13-7.21-4.96-6.26-1.45.29-2.46,1.27-3.85,1.57.05-1.25-.68-5.53-1.91-5.93-1.48-.48-5.18,1.23-6.5,2.11-.34-.06-.81-4.03-2.25-4.41-.62-.17-3.27.31-4.06.48-1.17.25-2.2.69-3.34,1,0-1.72-.35-3.53-1.32-4.98,0-.2,2.72-2.03,2.9-2.04.79-.04.57,2.72,2.13,2.5.11-.46.08-1,.24-1.44.3-.79,4.52-3.47,5.66-3.26l-.68-2.18,9.89-6.46c2.01-.62,4.45.98,6.88-.43.75-.44,2.12-1.85,2.52-2.62.63-1.21.55-2.78,1.17-3.54.79-.97,3.11-1.81,4.11-2.68.8.05.14.66,0,.99-.37.92,1.16-.17,1.44-.26.86-.28,2.63-.47,3.16-.76,1.21-.68,1.22-3.01,1.87-4.1l10.12-6.33c.43-.03,1.56,2.83,1.98,3.43,2.98,4.36,11.45,7.84,16.3,9.87,5.63,2.36,12.03,5.18,18.29,4.42,1.25-.15,6.23-1.71,7.05-2.45,1.55-1.41,1.93-2.83,2.96-4.28.57-.8,8.62-3.4,10.19-3.89,1.51-.48,2.76-.02,3.49-1.75-.53-.57-10.83,3.11-12.43,3.34,1.55-4.16,1.94-8.61,2.92-12.89.81-3.54,2.73-8.65,4.47-11.86,1.54-2.84,9.08-8.7,11.88-11.55,5.05-5.14,9.66-10.72,14.35-16.17,10.53,10.46,18.23,23.65,22.53,37.86l-.56.52c-7.27,1.71-14.3,4.33-21.53,6.18-3.48.89-7.12,1.23-10.49,2.49l.97,1.38c10.93-1.96,21.29-6.17,32-9.04l2.14,16.11c.08.6.66.58,1.19.65.24-6.73-1.07-13.12-3.03-19.49-13.52-43.94-56-70.82-101.78-59.93-2.48.59-17.12,4.82-17.86,6.46-.19.42-.12.65.25.92,1.31.65,9.06-2.6,10.88-3.18,2.46-.78,5.13-1.68,7.59-2.35.73-.2,4.42-1.21,4.8-.84.13,11.27,1.78,22.41,2.23,33.65-2.82,2.54-6.11,4.62-8.13,8l-6.06-10.71-.74.61c-.19.42.02.81.19,1.18.76,1.71,2.32,3.8,3.24,5.55.42.8,2.37,4.25,2.41,4.78.05.65-1.89,4.13-2.22,5.49-.52,2.17-.92,5.35-.85,7.58.03,1.02.76,3.03.21,3.8l-9.11,5.24c.39-2.18.36-5.06-.08-7.24-.2-.99-.42-1.88-1.62-1.92-2.63,3.49-2.73,8.03-3.17,12.21l-4.19,2.74c1.25-6.75,2.37-13.64.43-20.35-1.58-5.46-3.02-6.97-7.89-3.14-3.65,2.87-8.57,7.64-11.77,11.05-1.5,1.6-6.68,7.44-7.36,9.12-.72,1.75.1,2.78-.23,3.86-.33,1.07-1.84,1.22-1.87,3.2-.01.92.6,1.28.8,1.98.58,2,.43,3.27,2.42,4.75,2.94,2.19,5.1-.33,8.36-.08-.53.55-1.21,1.03-1.86,1.45-2.55,1.68-6.54,4.32-9.17,5.63-.32.16-.91.59-1.1.09.06-1.15-.53-2.13-.66-3.23-.29-2.35.49-5.21-1.72-6.87-1.41.94.58,3.51-1.02,4.38-.61.33-2.64.74-3.31.59-1.1-.26-1.34-1.98-2.78-1.81-.59,1.08-.83,2.54-2.06,3.13-1.61-.86-.13-1.76.39-2.71.49-.89-.36-.87-1.06-.5-.6.31-4.37,3.01-4.54,3.37-.53,1.1-.43,3.33-.84,4.65-.24.78-1.1,1.76-1.24,2.72l-2.13.66c-1.2-2.11,1.22-4.83,2.5-6.51,2.22-2.92,4.96-5.52,7.09-8.54.77-1.1,3.42-4.6.73-4.83-.85-.07-1.69.43-2.78.36-2.84-.19-5.66-1.74-8.6-1.97-1.27-.1-2.08.05-1.62,1.62.17.59.99.74,1.24,1.08.26.36.25,1.42.84,1.82-1.12.58-2.25,1.22-3.43,1.68-.86.33-4.19,1.62-4.66.65-.08-.18.17-3.31.24-3.88.34-2.91,1.45-6.5,2.73-9.14,1.85-3.82,8.23-4.04,12.01-4.9,1.96-.45,3.78-1.37,5.89-1.32-.56-2.24-1.04-3.91-3.22-4.99-3.25-1.6-6.75-.18-10.14-.84-.31-.3-1.8-7.61-1.8-8.46.01-3.84,5.06-8.65,7.27-11.74,1.23-1.72,2.83-4.12,3.85-5.95,1.1-1.97,1.72-4.31,2.83-6.07.32-.51,4.11-5.15,4.4-5.34,1.55-1.03,5.36-1.31,7.38-2.16,1.55-.65,3.45-2.32,4.77-2.73,1-.31,2.55-.18,3.65-.41,2.45-.51,5.03-1.64,7.53-1.46,4.19.3,7.89.84,12.2.2.85-.13,1.7-.42,2.49-.74-.25-1.53-1-3.91-2.22-4.92-1.29-1.07-6.41-1.77-8.29-1.96-2.41-.24-5,.31-7.33-.52,3.14-4.07,6.36-8.17,10.28-11.52,9.42-8.06,17.14-11.43,29.92-10.32,8.63.75,17.42,1.74,26.12,1.84,2.56.03,5.54-.7,7.96-.54,8.48.56,22.09,4.11,30.07,7.19,10.84,4.18,22.27,15.25,29.41,24.35,3.8,4.85,5.12,8.16,7.82,13.39,3.84,7.42,13.85,15.71,13.98,24.5.13,8.38-2.25,16.56-1.85,24.96ZM306.82,181.27c-3.26,6.38-6.36,12.97-9.48,19.42-1.7,3.51-3.22,8.33-5.2,11.5-.71,1.14-1.98,2.22-3.01,3.07-.83-4.01-2.77-7.69-6.46-9.74-.2-.46,2.48-5.72,2.94-6.63,3.25-6.41,7.01-12.57,10.24-19.01.59-1.18,3.71-8.6,4.44-8.59l8.93,5.49c.2.47-1.99,3.69-2.4,4.49ZM309.92,177.68c.5-.24,5,3.67,5.73,4.33.56.51,3.4,2.93,3.21,3.44-7.81,7.98-14.78,16.91-23.62,23.8,2.63-7.07,6.3-13.69,9.51-20.5,1.74-3.68,3.1-7.55,5.16-11.07ZM281.44,204.55c-2.88-.91-5.21-2.92-7.89-4.2-1.5-.72-11.49-4.03-11.75-4.61l.53-34.16c1.69-.18,3.38-.4,5.09-.34,7.18.25,16.03,2.59,22.74,5.2,1.17.45,9.22,3.94,9.25,4.5l-17.97,33.6ZM276.19,239.39c-5.15,5.38-13.66-1.04-12.24-7.37.74-3.29,3.57-6.64,7.21-6.43,6.84.41,9.95,8.66,5.03,13.8Z"/><path d="M168.66,272.9s2.74-2.81,3.78-3.6c1.62-1.23,5.27-3.08,6.97-4.19.76-.49,5.55-3.37,5.55-3.37l-1.97-1.01c-5.48,3.48-10.96,6.96-16.45,10.43l2.11,1.74Z"/><path d="M181.58,260.01l-1.73-.88s-3.81,2.49-5.1,3.3c-2.55,1.59-11.31,6.19-11.31,6.19l1.72,1.42c5.37-3.26,10.74-6.52,16.09-9.82.11-.07.21-.13.32-.2Z"/></svg>