<?xml version="1.0" encoding="UTF-8"?><svg id="Layer_1" xmlns="http://www.w3.org/2000/svg" viewBox="0 0 600 250"><defs><style>.cls-1{fill:#fff;}</style></defs><path class="cls-1" d="M241.22,100.82c0,2.95-.98,5.43-2.94,7.44-1.96,2.01-4.42,3.02-7.37,3.02-1.25,0-2.42-.29-3.49-.86v3.53c0,.91.31,1.59.94,2.04.63.44,1.41.61,2.35.51v2.78c-.71.23-1.5.35-2.39.35-1.78,0-3.16-.63-4.15-1.88-1.28,1.25-3.06,1.88-5.33,1.88-.47,0-.94-.04-1.41-.12v-2.55c.84,0,1.54-.24,2.12-.72.57-.48.86-1.13.86-1.94v-17.12c0-.94-.24-1.71-.71-2.31-.55-.68-1.28-1-2.19-.98v-3.13c.47-.08,1.03-.12,1.68-.12,2.32,0,4.02.67,5.09,2,2.14-1.54,4.34-2.31,6.58-2.31,2.98,0,5.45,1.01,7.41,3.02,1.96,2.01,2.94,4.51,2.94,7.48ZM222.69,112.14v-13.17c0-2.17-.42-3.67-1.25-4.51.34.55.51,1.65.51,3.29v13.71c0,2.09-.26,3.41-.78,3.96,1.02-.34,1.53-1.44,1.53-3.29ZM234.6,100.04c0-.57-.03-1.08-.08-1.53-.11-.94-.47-1.89-1.1-2.86-.74-1.18-1.54-1.76-2.4-1.76-1,0-1.88.35-2.64,1.04-.76.69-1.14,1.52-1.14,2.49v9.09c.63.34,1.34.51,2.16.51,1.8,0,3.16-.76,4.08-2.27.76-1.23,1.14-2.79,1.14-4.7ZM237.19,100.05c0-2.09-.82-4.07-2.47-5.93,1.07,1.89,1.61,4.02,1.61,6.41s-.73,4.6-2.19,6.48c.89-.84,1.62-1.91,2.19-3.2.57-1.3.86-2.55.86-3.75Z"/><path class="cls-1" d="M269.63,110.34c0,2.79-1.15,5.11-3.45,6.93-2.14,1.72-4.64,2.59-7.48,2.59-1.28,0-2.71-.33-4.29-.98-1.58-.65-2.32-.98-2.21-.98-.42,0-.58.38-.47,1.14h-2.98l-.43-10.34,2.78-.2c.47,1.62,1.48,3.28,3.02,4.98,1.72,1.91,3.32,2.86,4.78,2.86,1.15,0,2.16-.39,3.02-1.17.86-.78,1.29-1.75,1.29-2.9,0-1.93-1.32-3.28-3.96-4.04-4.83-1.38-7.3-2.1-7.41-2.16-2.64-1.36-3.96-3.71-3.96-7.05,0-2.64.99-4.78,2.98-6.43,1.85-1.54,4.14-2.31,6.86-2.31,2.51,0,5.08.71,7.72,2.12l.43-1.41,2.23.31.43,9.33-2.35.2c-1.12-4.96-3.38-7.45-6.78-7.45-1.2,0-2.23.47-3.09,1.41-.86.94-1.29,2.02-1.29,3.25,0,.97.8,1.75,2.39,2.35,1.67.47,3.34.94,5.02,1.41,2.12.63,3.59,1.37,4.43,2.23,1.85,1.91,2.78,4.01,2.78,6.31ZM265.2,111.01c0-3.03-2.72-4.94-8.15-5.72-1.93-.29-3.54-1.07-4.82-2.35-1.38-1.33-2.09-2.95-2.12-4.86-.1.55-.16,1.07-.16,1.57,0,1.8.65,3.25,1.96,4.35.97.84,2.43,1.53,4.39,2.08,1.59.39,3.19.78,4.78,1.18.84.24,1.63.92,2.39,2.06.76,1.14,1.14,2.15,1.14,3.04,0,.42-.05.84-.16,1.25.5-.89.75-1.75.75-2.59Z"/><path class="cls-1" d="M303.72,90.63v3.13c-.91.03-1.89.45-2.93,1.26-.86.68-1.59,1.47-2.19,2.36l-6.13,9.41v7.21c0,.74.34,1.35,1.02,1.85.68.5,1.45.72,2.31.67v2.6c-.78.25-1.65.38-2.59.38-1.99,0-3.36-.72-4.11-2.16-1.2,1.44-2.85,2.16-4.94,2.16-.78,0-1.58-.13-2.39-.39v-2.59h.16c.86,0,1.59-.22,2.17-.65s.88-1.07.88-1.9v-6.59l-6.15-10.2c-.81-1.33-1.25-2.07-1.33-2.2-.68-.86-1.37-1.3-2.08-1.3h-.47v-2.95c.76-.18,1.61-.27,2.55-.27,2.27,0,3.79.65,4.54,1.96.84-1.31,2.31-1.96,4.43-1.96.55,0,1.12.05,1.72.16l-.04,3.05c-.42-.21-.78-.31-1.1-.31-.76,0-1.14.28-1.14.83,0,.4.67,1.71,2,3.93.86,1.32,1.71,2.66,2.55,4.01.81-1.1,1.63-2.21,2.47-3.33,1.25-1.83,1.88-3.12,1.88-3.88,0-1.07-.9-1.51-2.7-1.33v-2.82c.75-.13,1.57-.2,2.45-.2,2.18,0,3.52.55,4.01,1.65,1.38-1.15,2.92-1.7,4.63-1.65l.51.04ZM287.5,113.31v-7l-6.19-10.54c-.26-.45-.67-.93-1.21-1.46-.63-.58-1.15-.89-1.57-.94.6.24,2.01,2.29,4.23,6.17,1.33,2.36,2.66,4.73,4,7.12.05,1.47.08,2.52.08,3.15,0,3.59-.34,5.61-1.02,6.05,1.12-.45,1.68-1.3,1.68-2.56Z"/><path class="cls-1" d="M330.52,110.5c-.31,2.59-1.55,4.8-3.72,6.64-2.17,1.84-4.56,2.76-7.17,2.76-3.87,0-6.94-1.44-9.21-4.31-2.14-2.64-3.21-5.96-3.21-9.95s.94-7.68,2.82-10.5c2.17-3.24,5.24-4.86,9.21-4.86,2.19,0,4.43.64,6.7,1.92l.75-1.29,2.39.16v9.56h-2.31c-1.07-4.68-3.13-7.01-6.19-7.01-2.27,0-3.98,1.36-5.13,4.08-.89,2.04-1.33,4.36-1.33,6.97s.46,5.11,1.37,7.17c1.2,2.72,2.99,4.08,5.37,4.08,1.72,0,3.24-.67,4.55-2,1.2-1.23,1.97-2.72,2.31-4.47l2.82,1.06ZM314.38,117c-1.38-1.38-2.5-3.26-3.33-5.64-.76-2.19-1.14-4.35-1.14-6.47,0-3.13.74-6.32,2.23-9.56-2.12,2.14-3.17,5.37-3.17,9.68,0,2.46.41,4.7,1.21,6.74.94,2.35,2.34,4.1,4.19,5.25Z"/><path class="cls-1" d="M360.06,109.44l-2.43,10.03h-2.74l-.67-1.25c-2.01.84-4.1,1.25-6.27,1.25-2.46,0-4.34-.72-5.64-2.16-1.18,1.44-2.61,2.16-4.31,2.16-.68,0-1.36-.14-2.04-.43v-2.78c1.1,0,1.97-.45,2.63-1.36.57-.81.86-1.77.86-2.88v-15.05c0-1.95-1.21-3.09-3.64-3.43v-2.74c.52-.11,1.14-.16,1.84-.16,2.25,0,3.98.64,5.21,1.92,1.18-1.28,2.89-1.92,5.13-1.92.47,0,.94.04,1.41.12v2.78h-.12c-.99-.05-1.77.25-2.33.91-.56.66-.84,1.51-.84,2.55v16.61c1.04.62,2.29.93,3.72.93,3.34,0,5.99-2.1,7.95-6.31l2.27,1.21ZM342,111.95v-13.17c0-.71-.12-1.5-.36-2.39-.27-.99-.61-1.7-1.01-2.12.31.55.47,1.65.47,3.29v13.71c0,2.09-.26,3.41-.78,3.96,1.12-.34,1.68-1.44,1.68-3.29Z"/><path class="cls-1" d="M388.31,109.99l-.71,9.48h-2.12l-1.06-1.8c-2.12,1.2-4.4,1.8-6.86,1.8s-4.4-.74-6.07-2.23c-1.67,1.49-3.42,2.23-5.25,2.23-.44,0-.88-.06-1.29-.2v-2.9c.81,0,1.42-.48,1.84-1.45.34-.73.51-1.55.51-2.46v-14.3c0-1.3-.22-2.38-.67-3.24-.58-1.15-1.47-1.63-2.66-1.45v-2.85l.78-.04c3.19-.08,5.07.59,5.64,2,1.93-1.33,4.04-2,6.31-2,.84,0,1.92.2,3.25.61s2.27.61,2.82.61c.97,0,1.53-.41,1.68-1.21l2.16,1.05.04,6.01-2.23.7c-.26-1.28-.95-2.31-2.08-3.1-1.12-.78-2.35-1.17-3.68-1.17-1.88,0-3.17.52-3.88,1.57-.5.78-.75,2.05-.75,3.8v1.61c.03.71.04,1.25.04,1.65.47.21.98.31,1.53.31,1.78,0,2.72-1.29,2.82-3.88l2.74.12c.03.21.04.48.04.82,0,2.59-.58,4.02-1.72,4.31,1.23.92,1.91,2.38,2.04,4.39h-3.13c-.37-.93-.68-1.53-.94-1.81-.42-.41-1.08-.62-2-.62-.6,0-1.04.19-1.33.58,0,2.85.09,4.7.27,5.56.5,2.36,1.7,3.54,3.6,3.54,2.06,0,3.72-.54,4.98-1.64,1.36-1.14,2.08-2.74,2.16-4.79l3.17.39ZM369.9,99.17c0-.73-.1-1.53-.31-2.39-.26-.99-.59-1.7-.98-2.12.31.55.47,1.65.47,3.29v13.71c0,2.09-.26,3.41-.78,3.96,1.07-.34,1.61-1.44,1.61-3.29v-13.17Z"/><path class="cls-1" d="M417.27,110.34c0,2.79-1.15,5.11-3.45,6.93-2.14,1.72-4.64,2.59-7.48,2.59-1.28,0-2.71-.33-4.29-.98-1.58-.65-2.32-.98-2.21-.98-.42,0-.58.38-.47,1.14h-2.98l-.43-10.34,2.78-.2c.47,1.62,1.48,3.28,3.02,4.98,1.72,1.91,3.32,2.86,4.78,2.86,1.15,0,2.16-.39,3.02-1.17.86-.78,1.29-1.75,1.29-2.9,0-1.93-1.32-3.28-3.96-4.04-4.83-1.38-7.3-2.1-7.41-2.16-2.64-1.36-3.96-3.71-3.96-7.05,0-2.64.99-4.78,2.98-6.43,1.85-1.54,4.14-2.31,6.86-2.31,2.51,0,5.08.71,7.72,2.12l.43-1.41,2.23.31.43,9.33-2.35.2c-1.12-4.96-3.38-7.45-6.78-7.45-1.2,0-2.23.47-3.09,1.41-.86.94-1.29,2.02-1.29,3.25,0,.97.8,1.75,2.39,2.35,1.67.47,3.34.94,5.02,1.41,2.12.63,3.59,1.37,4.43,2.23,1.85,1.91,2.78,4.01,2.78,6.31ZM412.84,111.01c0-3.03-2.72-4.94-8.15-5.72-1.93-.29-3.54-1.07-4.82-2.35-1.38-1.33-2.09-2.95-2.12-4.86-.1.55-.16,1.07-.16,1.57,0,1.8.65,3.25,1.96,4.35.97.84,2.43,1.53,4.39,2.08,1.59.39,3.19.78,4.78,1.18.84.24,1.63.92,2.39,2.06.76,1.14,1.14,2.15,1.14,3.04,0,.42-.05.84-.16,1.25.5-.89.75-1.75.75-2.59Z"/><path class="cls-1" d="M447.87,110.5c-.31,2.59-1.55,4.8-3.72,6.64-2.17,1.84-4.56,2.76-7.17,2.76-3.87,0-6.94-1.44-9.21-4.31-2.14-2.64-3.21-5.96-3.21-9.95s.94-7.68,2.82-10.5c2.17-3.24,5.24-4.86,9.21-4.86,2.19,0,4.43.64,6.7,1.92l.75-1.29,2.39.16v9.56h-2.31c-1.07-4.68-3.13-7.01-6.19-7.01-2.27,0-3.98,1.36-5.13,4.08-.89,2.04-1.33,4.36-1.33,6.97s.46,5.11,1.37,7.17c1.2,2.72,2.99,4.08,5.37,4.08,1.72,0,3.24-.67,4.55-2,1.2-1.23,1.97-2.72,2.31-4.47l2.82,1.06ZM431.73,117c-1.38-1.38-2.5-3.26-3.33-5.64-.76-2.19-1.14-4.35-1.14-6.47,0-3.13.74-6.32,2.23-9.56-2.12,2.14-3.17,5.37-3.17,9.68,0,2.46.41,4.7,1.21,6.74.94,2.35,2.34,4.1,4.19,5.25Z"/><path class="cls-1" d="M484.51,116.81v2.7c-.21.05-.5.08-.86.08-2.48,0-4.3-.72-5.45-2.15-1.44,1.36-3.46,2.04-6.07,2.04-.44,0-.88-.03-1.29-.08v-2.59c.81,0,1.54-.12,2.19-.35.91-.31,1.37-.78,1.37-1.41,0-.37-.24-.99-.71-1.88-.34-.57-.68-1.16-1.02-1.76h-12.15c-.68,1.63-1.02,2.66-1.02,3.09,0,1.64,1.2,2.43,3.6,2.37v2.61c-.37.08-.81.12-1.33.12-1.8,0-3.21-.57-4.23-1.72-1.54,1.15-3.11,1.72-4.7,1.72-.6,0-1.16-.12-1.69-.35v-2.55c1.91-.08,3.21-.94,3.92-2.59,1.41-3.27,2.83-6.55,4.27-9.85,2.35-5.52,3.53-8.6,3.53-9.22,0-.81-.52-1.22-1.57-1.22h-.98l.04-3.06c.52-.13,1.15-.19,1.88-.19,2.4,0,4.19.78,5.37,2.35.52-.74,1.32-1.33,2.39-1.75.97-.4,1.95-.6,2.94-.6.55,0,1.1.05,1.65.16v2.84c-.65.03-1.21.2-1.69.51-.57.37-.86.85-.86,1.46,0,.39.13.84.39,1.34l8.89,17.2c1.02,1.96,2.08,2.87,3.17,2.74ZM470.33,107.25l-4.44-8.84-3.52,8.84h7.97ZM476.28,114.45c0-1.07-.21-2.01-.62-2.83l-7.01-14.07c-.26-.47-.8-.91-1.62-1.33l9.25,18.22Z"/><path class="cls-1" d="M514.44,100.82c0,2.95-.98,5.43-2.94,7.44-1.96,2.01-4.42,3.02-7.37,3.02-1.25,0-2.42-.29-3.49-.86v3.53c0,.91.31,1.59.94,2.04.63.44,1.41.61,2.35.51v2.78c-.71.23-1.5.35-2.39.35-1.78,0-3.16-.63-4.15-1.88-1.28,1.25-3.06,1.88-5.33,1.88-.47,0-.94-.04-1.41-.12v-2.55c.84,0,1.54-.24,2.12-.72.57-.48.86-1.13.86-1.94v-17.12c0-.94-.24-1.71-.71-2.31-.55-.68-1.28-1-2.19-.98v-3.13c.47-.08,1.03-.12,1.68-.12,2.32,0,4.02.67,5.09,2,2.14-1.54,4.34-2.31,6.58-2.31,2.98,0,5.45,1.01,7.41,3.02,1.96,2.01,2.94,4.51,2.94,7.48ZM495.91,112.14v-13.17c0-2.17-.42-3.67-1.25-4.51.34.55.51,1.65.51,3.29v13.71c0,2.09-.26,3.41-.78,3.96,1.02-.34,1.53-1.44,1.53-3.29ZM507.82,100.04c0-.57-.03-1.08-.08-1.53-.11-.94-.47-1.89-1.1-2.86-.74-1.18-1.54-1.76-2.4-1.76-1,0-1.88.35-2.64,1.04-.76.69-1.14,1.52-1.14,2.49v9.09c.63.34,1.34.51,2.16.51,1.8,0,3.16-.76,4.08-2.27.76-1.23,1.14-2.79,1.14-4.7ZM510.41,100.05c0-2.09-.82-4.07-2.47-5.93,1.07,1.89,1.61,4.02,1.61,6.41s-.73,4.6-2.19,6.48c.89-.84,1.62-1.91,2.19-3.2.57-1.3.86-2.55.86-3.75Z"/><path class="cls-1" d="M543.4,109.99l-.71,9.48h-2.12l-1.06-1.8c-2.12,1.2-4.4,1.8-6.86,1.8s-4.4-.74-6.07-2.23c-1.67,1.49-3.42,2.23-5.25,2.23-.44,0-.88-.06-1.29-.2v-2.9c.81,0,1.42-.48,1.84-1.45.34-.73.51-1.55.51-2.46v-14.3c0-1.3-.22-2.38-.67-3.24-.58-1.15-1.47-1.63-2.66-1.45v-2.85l.78-.04c3.19-.08,5.07.59,5.64,2,1.93-1.33,4.04-2,6.31-2,.84,0,1.92.2,3.25.61s2.27.61,2.82.61c.97,0,1.53-.41,1.68-1.21l2.16,1.05.04,6.01-2.23.7c-.26-1.28-.95-2.31-2.08-3.1-1.12-.78-2.35-1.17-3.68-1.17-1.88,0-3.17.52-3.88,1.57-.5.78-.75,2.05-.75,3.8v1.61c.03.71.04,1.25.04,1.65.47.21.98.31,1.53.31,1.78,0,2.72-1.29,2.82-3.88l2.74.12c.03.21.04.48.04.82,0,2.59-.58,4.02-1.72,4.31,1.23.92,1.91,2.38,2.04,4.39h-3.13c-.37-.93-.68-1.53-.94-1.81-.42-.41-1.08-.62-2-.62-.6,0-1.04.19-1.33.58,0,2.85.09,4.7.27,5.56.5,2.36,1.7,3.54,3.6,3.54,2.06,0,3.72-.54,4.98-1.64,1.36-1.14,2.08-2.74,2.16-4.79l3.17.39ZM524.98,99.17c0-.73-.1-1.53-.31-2.39-.26-.99-.59-1.7-.98-2.12.31.55.47,1.65.47,3.29v13.71c0,2.09-.26,3.41-.78,3.96,1.07-.34,1.61-1.44,1.61-3.29v-13.17Z"/><path class="cls-1" d="M224.2,132.82c1.25,0,3.69,0,5.52,1.42,1.32,1.02,2.1,2.78,2.1,4.68,0,2.91-1.93,4.1-2.54,4.44,1.49.24,2.37.88,2.95,1.42,1.36,1.29,1.63,3.05,1.63,4.24,0,1.32-.37,3.19-1.93,4.58-1.69,1.49-3.76,1.83-5.73,1.83h-7.59v-22.6h5.59ZM223.01,142.21h1.25c.68,0,3.42-.07,3.42-2.95,0-2.07-1.59-2.85-3.39-2.85h-1.29v5.79ZM223.01,151.84h1.9c.81,0,2.03-.03,3.02-.61,1.08-.64,1.39-1.73,1.39-2.61,0-.71-.24-1.93-1.66-2.58-.95-.44-2.07-.44-3.02-.44h-1.63v6.24Z"/><path class="cls-1" d="M259.44,150.68h-9.12l-2,4.74h-4.78l9.73-22.6h3.46l9.46,22.6h-4.74l-2-4.74ZM258.15,147.09l-3.22-8.13-3.22,8.13h6.44Z"/><path class="cls-1" d="M281.36,132.82v18.81h6.98v3.8h-11.39v-22.6h4.41Z"/><path class="cls-1" d="M306.03,136.62v18.81h-4.41v-18.81h-5.08v-3.8h14.57v3.8h-5.08Z"/><path class="cls-1" d="M326.43,132.82v22.6h-4.41v-22.6h4.41Z"/><path class="cls-1" d="M342.76,132.82h3.19l6,14.37,6.27-14.37h3.19l3.8,22.6h-4.47l-2.03-13.93-6.07,13.93h-1.49l-5.79-13.93-2.3,13.93h-4.47l4.2-22.6Z"/><path class="cls-1" d="M400.37,144.14c0,6.88-4.95,11.79-12.07,11.79s-12.06-4.91-12.06-11.79,4.95-11.83,12.06-11.83,12.07,4.95,12.07,11.83ZM395.83,144.14c0-4.58-3.12-7.83-7.52-7.83s-7.52,3.25-7.52,7.83,3.12,7.79,7.52,7.79,7.52-3.22,7.52-7.79Z"/><path class="cls-1" d="M419.11,132.82c3.12,0,4.71.81,5.76,1.69,1.73,1.46,2.24,3.39,2.24,5.08,0,2.2-.88,4.13-2.64,5.32-.58.41-1.39.78-2.47.98l7.05,9.52h-5.49l-6.03-9.08h-.54v9.08h-4.41v-22.6h6.54ZM416.97,143.23h1.25c.85,0,4.34-.1,4.34-3.42s-3.46-3.39-4.27-3.39h-1.32v6.81Z"/><path class="cls-1" d="M452.69,136.62h-8.13v5.05h7.79v3.79h-7.79v6.17h8.13v3.8h-12.54v-22.6h12.54v3.8Z"/><path class="cls-1" d="M469.74,150.04h-.18c0-1.46-.55-2.74-1.64-3.84-1.09-1.09-2.37-1.64-3.84-1.64v-.18c1.46,0,2.74-.55,3.84-1.64s1.64-2.37,1.64-3.83h.18c0,1.46.55,2.74,1.64,3.84,1.09,1.09,2.37,1.64,3.83,1.64v.18c-1.46,0-2.74.55-3.83,1.64s-1.64,2.37-1.64,3.84Z"/><path class="cls-1" d="M490.54,132.82h3.19l6,14.37,6.27-14.37h3.19l3.8,22.6h-4.47l-2.03-13.93-6.07,13.93h-1.49l-5.79-13.93-2.3,13.93h-4.47l4.2-22.6Z"/><path class="cls-1" d="M529.64,132.82c3.15,0,5.9.34,8.4,2.2,2.75,2.07,4.34,5.35,4.34,9.12s-1.56,7.01-4.54,9.12c-2.64,1.86-5.12,2.17-8.27,2.17h-5.83v-22.6h5.9ZM528.15,151.63h1.36c1.12,0,3.56-.07,5.52-1.49,1.8-1.29,2.81-3.59,2.81-6s-.98-4.68-2.78-6.03c-1.83-1.36-4.07-1.49-5.56-1.49h-1.36v15.01Z"/><path class="cls-1" d="M180.98,160.46c2.09-.23,3.45.64,4.89,2.02,2.45,2.34,2.86,6.14.56,8.75-2.8,3.16-7.29,1.71-9.73,6.33-1,1.88-.92,2.8-2.69,4.37-3.14,2.78-7.47,2-9.08-1.98-.76-1.88-.39-6.04,1.14-7.49,1.52-1.44,5.25-1.69,7.26-2.87,3.43-2.01,2.44-8.55,7.66-9.12ZM181.8,163.53c-.97.14-1.89.98-2.47,1.72-1.88,2.4.1,5.59,3.06,5.31.35-.03,1.6-.58,1.84-.82,1.6-1.65.86-4.42-.82-5.72-.56-.43-.87-.59-1.61-.49ZM169.52,173.96c-.93.13-1.92.82-2.1,1.79-.38,2,.45,4.53,2.58,5.15,1.48.43,2.92-1.69,2.91-3.01,0-1.57-1.6-4.19-3.39-3.93Z"/><path class="cls-1" d="M65.37,143.59c2.23-.28,5.28,1.55,6.21,3.55.92,1.98.69,3.03.9,5.03.22,2.11,1.49,2.91,3.05,4.11,1.67,1.28,4.31,2.41,5.05,4.46.85,2.35-.06,4.22-1.59,5.98-3.08,3.56-6.46,3.08-9.45-.26-2.06-2.3-1.47-6.31-3.09-9.09-1.26-2.17-4.83-2.81-6-5.26-1.73-3.63,1.02-8.04,4.9-8.53ZM65.78,146.56c-.77.09-1.24.34-1.72.94-2.04,2.59.17,5.97,3.31,5.66,1.33-.13,2.9-1.34,2.83-2.8-.12-2.37-2.04-4.09-4.42-3.81ZM74.99,159.86c-2.12.13-3.22,1.85-2.94,3.9.12.85,1.67,2.11,2.49,2.21,1.62.2,3.42-.89,3.53-2.61.12-1.99-.99-3.62-3.09-3.5Z"/><path class="cls-1" d="M138.07,184.11c2.65-1.9,6.75,0,9.82-1.7,1.89-1.04,2.7-2.44,4.22-3.66,3.47-2.79,8.37-.99,9.56,3.23.96,3.41-.18,6.27-3.17,8.07-3.19,1.92-5.48-.11-8.69.62-3.62.82-5.06,5.48-9.36,4.15-1.09-.34-2.08-1.03-2.8-1.9-1.77-2.13-2.01-7.04.44-8.81ZM156.02,181.54c-1.28.12-1.89.47-2.45,1.64-.72,1.51-.26,3.22,1.21,4.04,2.9,1.62,5.79-1.36,4.21-4.21-.67-1.2-1.63-1.6-2.97-1.47ZM141.59,185.42c-2.16.4-3.43,3.15-2.02,4.93,2.68,3.38,7.82.78,5.98-3.32-.58-1.29-2.66-1.86-3.96-1.61Z"/><path class="cls-1" d="M195.61,132.85c3.5-.09,6.31,2.47,6.06,6.06-.25,3.6-4.17,4.64-5.3,8.1-.67,2.05.1,2.82.27,4.7.37,4.06-3.23,7.61-7.36,6.54-.66-.17-.74-.49-1.19-.76-1.08-.64-1.92-.8-2.57-2.03-1.73-3.23-.72-6.49,1.87-8.83.64-.58,1.34-.89,1.95-1.63,1.8-2.19.74-3.68.56-6.09-.3-4.13,1.74-5.96,5.71-6.05ZM194.99,135.2c-.48.08-1.97,1.01-2.15,1.43-.13.29-.11,1.22-.08,1.56.2,2.27,2.71,3.43,4.71,2.55,1.08-.48,1.34-1.56,1.34-2.66,0-1.76-2.17-3.18-3.82-2.89ZM191.19,149.55c-1.12-.02-3.03,1.14-3.43,2.25.15,1.21.1,2.25,1.32,2.87,1.78.9,4.03.17,4.28-1.98.15-1.31-.69-3.12-2.17-3.14Z"/><path class="cls-1" d="M84.3,168.86c2.05-.2,4.5,1.19,5.85,2.68.92,1.01,2.6,4.29,3.69,4.7,1.96.73,4.49.57,6.56,1.21,1.84.57,3.94,1.89,4.41,3.87,1.33,5.6-5.61,11.11-9.91,6.22-2.08-2.37-2.17-4.91-5.71-6.16-1.97-.69-5.34-.19-7.06-1.43-4.11-2.98-3.47-10.56,2.16-11.1ZM84.92,171.41c-3.91.28-2.79,7.47,1.48,6.5.94-.21,2.35-1.28,2.43-2.27.19-2.23-1.61-4.39-3.91-4.23ZM98.52,180.41c-2.7.39-3.5,4.38-.72,5.79,3.68,1.87,5.93-3.07,3.65-4.87-.74-.59-1.98-1.05-2.92-.91Z"/><path class="cls-1" d="M182.11,75.06c3.39-.35,6.23,1.23,6.76,4.74.26,1.76.16,2.91.89,4.64,1.26,3,2.86,2.84,4.96,4.76,2.23,2.03,3.87,5.04,2.11,7.94-2.24,3.68-8.48,2.66-10.49-.69-1.31-2.19-1.23-3.42-1.44-5.82-.43-4.89-4.37-4.49-6.81-7.51-1.25-1.56-1.04-4.32-.03-5.96.63-1.03,2.86-1.97,4.05-2.09ZM182.73,77.3c-4.16.19-3.03,7.11,1.17,5.47,3.1-1.21,2.25-5.63-1.17-5.47ZM190.6,90.81c-1.69.23-3.01,2.01-2.73,3.7.08.46,1.19,1.15,1.63,1.34,2.23.96,4.97-.29,4.6-2.96-.1-.69-.82-1.33-1.39-1.68-.71-.42-1.27-.52-2.1-.4Z"/><path class="cls-1" d="M157.56,56.03c2.28-.23,3.53.33,4.87,2.13.87,1.16,1.54,2.46,2.67,3.47,3.05,2.7,7.78.61,11.2,4.04,3.72,3.73.52,9.49-4.56,9.37-3.5-.09-4.51-2.55-6-5.05-2.51-4.2-9.61-1.78-12.1-5.29s-.38-8.21,3.91-8.66ZM157.25,58.28c-4.83.66-1.9,7.71,2.55,5.41,1.93-.99,1.33-3.03.13-4.36-.82-.91-1.43-1.22-2.68-1.05ZM171.27,66.36c-1.01.04-2.2.93-2.51,1.9-.62,1.91.89,4.38,2.99,4.21,2.42-.19,3.79-2.28,2.56-4.51-.63-1.15-1.74-1.66-3.04-1.61Z"/><path class="cls-1" d="M68.44,84.26c3.97-.26,7.09,3.83,5.67,7.61-1.35,3.57-5.87,3.92-5.86,8.06,0,2.18.69,4.35-.58,6.36-1.78,2.81-5.64,3.7-8.11,1.21-2.29-2.31-2.28-5.06-.3-7.57,1.07-1.35,3-2.34,3.68-3.89,1.26-2.86.19-6.06,1.31-8.51.91-2,1.88-3.12,4.19-3.28ZM68.64,87.22c-1.61.27-1.95,2.68-1.22,3.93,1.59,2.74,5.17.38,3.78-2.55-.41-.87-1.6-1.54-2.56-1.38ZM63.02,100.83c-.74.13-1.72,1.08-2.04,1.75-.43.89-.52,1.62,0,2.49.64,1.09,2.05,1.38,3.16.87,2.92-1.34,1.7-5.59-1.12-5.11Z"/><path class="cls-1" d="M195,103.9c3.97-.54,8.06,2.19,6.68,6.57-.71,2.25-2.48,2.83-1.77,5.55.63,2.42,3.48,4.4,3.18,7.1-.51,4.47-5.16,6.94-9.07,4.42-2.75-1.78-3.35-4.15-2.07-7.17.46-1.09,1.41-2.29,1.54-3.47.22-1.96-1.92-3.82-2.6-5.57-1.33-3.42.38-6.93,4.12-7.44ZM195.61,106.46c-1.98.25-2.6,1.48-2.3,3.38.31,1.96,2.31,1.77,3.79,2.1,1.87-.61,2.2-3.57.68-4.73-.66-.51-1.32-.86-2.17-.75ZM196.43,120.06c-2.86.42-2.89,4.31-.72,5.37,2.33,1.13,4.91.19,4.63-2.68-.21-2.11-1.94-2.97-3.91-2.69Z"/><path class="cls-1" d="M126.56,49.59c3.01-.06,3.52,1.72,5.64,2.79,3.39,1.7,6.4-1.59,9.98-1.49,3.67.1,6.39,3.44,5.22,7.06-1.04,3.21-2.83,4.74-6.33,4.39-3.76-.38-4.98-5.17-9.76-3.49-2.23.78-3.01,1.78-5.7,1.78-1.86,0-3.08-.44-3.81-2.23-1.6-3.9.07-8.71,4.76-8.79ZM126.04,52.24c-.84.12-1.73.68-2.23,1.35-2.28,3.11,3.26,6.2,5.22,3.48.44-.62.82-2.41.59-3.14-.47-1.44-2.22-1.88-3.58-1.69ZM144.35,55.01c-1.47-1.69-4.64-.91-5.48,1.05-.61,1.42-.4,2.51.86,3.41,1.91,1.37,5.87-.49,5.35-2.99-.05-.22-.58-1.3-.73-1.47Z"/><path class="cls-1" d="M112.44,184.2c3.72-.34,5.27,2.85,8.84,2.4.65-.08,1.27-.43,1.87-.58,2.02-.52,5.47-1.23,7.26.1,3.8,2.83,1.92,8.8-2.13,10.25-3.61,1.29-5.8-2.44-9.23-2.48-1.78-.02-3.32.84-4.94,1.3-8.12,2.34-8.92-10.32-1.68-10.99ZM113.05,186.65c-2.04.22-3.39,2.1-2.35,4.03,1.17,2.17,4.49,1.9,5.42-.35.48-1.17.47-1.85-.48-2.74-.66-.61-1.68-1.04-2.58-.94ZM126.83,187.81c-2.89-.04-4.13,3.64-1.84,5.46,1.94,1.55,4.63.87,5.04-1.71.32-2.03-1.17-3.73-3.2-3.75Z"/><path class="cls-1" d="M60.26,115.05c3.77-.39,5.53,2.89,5.24,6.26-.23,2.69-1.78,3.62-.69,6.62,1.15,3.18,3.49,6.29.94,9.69-1.45,1.92-5.76,2.61-7.66,1.13-2.7-2.11-1.95-4.92-.95-7.7.25-.7.73-1.37.85-2.12.66-4.22-3.13-6.04-2.36-10.24.35-1.9,2.82-3.46,4.64-3.65ZM60.77,117.7c-.75.08-1.83,1.06-2.18,1.71-.41.78-.38,2.08.21,2.77.76.9,2.77.94,3.59.1,1.02-1.05.9-2.97-.1-3.99-.29-.3-1.09-.64-1.51-.59ZM61.49,132.13c-2.18.21-3.49,3.87-.9,4.53.82.21,2.67.04,3.22-.67,1.37-1.78-.1-4.07-2.32-3.86Z"/><path class="cls-1" d="M86.75,61.76c1.21-.17,1.74.11,2.74.69,2.72,1.57,4.19,3.69,2.89,6.88-.85,2.09-3.52,3.04-5.52,3.68-1.38.45-2.63.3-3.5,1.62-2.17,3.27-1.45,8-7.06,7.35-3.89-.45-5.06-4.8-3.76-8.04,1.46-3.66,5.03-2.8,7.73-4.55,1.13-.74,1.9-3,2.65-4.21.82-1.34,2.18-3.19,3.84-3.42ZM87.06,65.34c-.89.13-1.83.83-1.92,1.76-.09.92.1,1.32.77,1.89,1.3,1.1,3.06,1.56,3.81-.38.86-2.2-.39-3.61-2.66-3.28ZM79.79,78.37c.76-.74,1.05-3.13.3-3.96-.68-.74-2.51-1.05-3.46-.89-1.45.25-2.42,2.33-2.07,3.66.21.81,1.86,1.95,2.66,2.04s1.97-.27,2.58-.85Z"/><path class="cls-1" d="M112.33,51.73c2.47-.26,4.99,2.03,5.52,4.35.68,3-3,5.83-5.66,6.25-1.79.28-2.96-.33-4.6-.49-1.19-.11-1.5.06-2.39.75-2.06,1.6-2.64,3.21-5.69,3.52-2.77.28-3.84-1.2-4.62-3.64-1.36-4.26,2.48-7.22,6.47-6.98,1.45.09,2.8.77,4.1.91,1.74.18,1.85-.84,2.66-1.92.9-1.21,2.68-2.58,4.21-2.74ZM111.82,54.59c-.65.06-1.75.97-2.04,1.54-.57,1.14-.49,2.83.73,3.5,1.41.77,3.19.76,4.24-.58,1.22-1.55.2-4.05-1.65-4.37-.23-.04-1.08-.12-1.28-.1ZM99.85,58.38c-2.19.32-3.47,2.92-1.92,4.63,2.85,3.13,7.92-2.04,4.02-4.22-.73-.41-1.24-.53-2.1-.4Z"/><path class="cls-1" d="M64.87,109.72c.37.24-.3,1.86-.38,2.3-.05.3-.11.8-.12,1.11-.03.74.27,1.56-.1,2.16-.34.21-1.3-.67-1.71-.85-1.4-.62-2.85-.44-4.25.1-.28.11-.59.5-.84.29-.23-.36.83-2.19.98-2.71.21-.73.25-1.5.2-2.25-.04-.65-.49-1.62.05-2.1.64.68,1.62,1.32,2.53,1.56,1.21.33,2.42.21,3.64.4Z"/><path class="cls-1" d="M147.86,53.75c.26-.26,1.97,1.02,2.32,1.21,1.17.64,2.49,1.19,3.85.85l.26.26c.16.55-.85.82-1.22,1.1-1.17.9-1.67,2.44-1.52,3.88.03.27.4.93.1,1.14s-1.97-.52-2.51-.57c-.85-.07-1.77.38-2.45.3-1.07-.12.42-1.29.61-1.53.96-1.19,1.69-3.62,1.2-5.09-.1-.29-.84-1.36-.64-1.56Z"/><path class="cls-1" d="M184.38,155.12c.11.07.85,1.93,1.19,2.34,1.18,1.41,3.01,2.02,4.8,1.96.82-.03,1.57-.38.66.76-.52.66-1.17,1.21-1.66,1.92-.45.66-.68,1.44-1.16,2.02-.18.04-.2-.14-.26-.25-.8-1.5-1.16-2.13-2.69-3.04-.93-.55-1.86-.63-2.76-1.03-1.28-.57-.14-1.07.33-1.66.31-.39.66-1.06.82-1.53.1-.29.27-1.77.71-1.48Z"/><path class="cls-1" d="M200.56,133.83c-.55-.9-1.6-1.6-2.65-1.8-1.1-.21-2.43-.27-3.54-.12-.52.07-1.06.47-1.55.2-.39-.3.4-1.45.46-1.91s-.18-1.94,0-2.15c.39-.47,1.15.25,1.55.41,1.31.55,3.54,1.22,4.91.71.35-.13,1.2-.9,1.38-.87.21.04.17.6.15.77-.1,1.31-.61,2.28-.51,3.78.03.39.47,1.05-.19.96Z"/><path class="cls-1" d="M197.17,98.14c.06,1.5.16,2.73.9,4.06.17.31.94,1.02.53,1.32-.3.22-1.44-.51-1.85-.62-1.69-.47-3.66.26-5.09,1.16-.11.02-.36-.03-.42-.11-.09-.12-.22-1.53-.36-1.94s-.41-.91-.74-1.2c-.32-.61,1.82-.38,2.16-.4,1.04-.07,2.74-.47,3.53-1.18.44-.4.66-1.21,1.33-1.08Z"/><path class="cls-1" d="M71.42,78.42c.11.07.77,1.95,1.05,2.37.42.62,1.74,1.66,2.46,1.84.65.16,1.97-.24,1.81.57-.86.28-1.76,1.47-1.91,2.34-.09.51.16,1.13-.28,1.46-1.15-1.52-2.7-3.11-4.63-3.55-.27-.06-.98.07-1.04-.29-.02-.12.86-.81,1.04-1.09.59-.91,1.14-2.57,1.11-3.65l.39.02Z"/><path class="cls-1" d="M62.17,140.7c.7-.09,1.8-.58,2.4-.98.28-.19.96-.94,1.27-.85l1.5,3.57c-.47.19-.98.06-1.47.12-.99.12-2.01.72-2.86,1.23-.78.48-1.53,1.29-2.42,1.41v-1.79c0-.17-.34-1.5-.43-1.72-.15-.37-.5-.53-.39-.99.76-.07,1.66.09,2.4,0Z"/><path class="cls-1" d="M163.91,177.02c.21.13,0,1.04.03,1.35.08,1.2.75,2.87,1.53,3.79.1.31,1.33,1.31,1.33,1.44s-.07.19-.17.25c-1.24.36-2.43.95-3.32,1.9l-.35.06c-.23-.06-.02-2.41-.06-2.82-.1-1.14-.84-2.52-1.38-3.53-.27-.5-1.1-1.2-.36-1.58.43-.22,1.21-.36,1.71-.54.27-.1.7-.53,1.04-.31Z"/><path class="cls-1" d="M178.45,71.14c.44-.09.45.39.63.65.7,1.02.98,1.61,2.16,2.13.37.16,1.02.11.87.63-.12.42-.73.23-1.05.29-1.4.26-2.68.94-3.52,2.11-.21.29-.67,1.25-.79,1.36-.1.09-.15.14-.3.1-.6-.84-1.28-1.49-2.16-2.04-.26-.16-.96-.26-.86-.65.09-.36,1.32-.5,1.7-.66,1.28-.55,3.24-2.42,3.31-3.91Z"/><path class="cls-1" d="M82.34,168.14c.06.07.09.14.12.22-1.36.89-2.67,1.47-3.37,3.05-.29.64-.39,1.28-.65,1.91-.3.06-.63-.61-.81-.82-.53-.6-1.33-1.59-1.9-2.09-.34-.3-1.3-.52-.46-.89,1.71-.74,2.74-.19,4.15-2.09.32-.43.48-1.47,1.1-1.2.27.12,1.56,1.57,1.83,1.9Z"/><path class="cls-1" d="M106.42,190.82c-.9-.28-1.53-1.16-2.41-1.52-.52-.21-1.04-.22-1.57-.32-.09-.44.3-.37.55-.53,1.88-1.22,2.39-2.6,2.68-4.79.44-.82,2.91.55,3.1,1.29-.78,1.13-1.58,2.15-2.01,3.48-.28.87-.18,1.52-.33,2.38Z"/><path class="cls-1" d="M135.78,186.52c-.04.6-.43,1.07-.5,1.7-.11.97.1,1.72.45,2.6.15.38,1.24,2.25,1.07,2.45-1.14.15-2.26.1-3.37.47-.23.08-1.24.79-1.21.23.02-.3.59-1.19.75-1.61.48-1.32.58-2.99-.17-4.22-.2-.33-.65-.46-.48-.98l3.46-.63Z"/><path class="cls-1" d="M120.73,51.41c.07.91-.59,1.71-.69,2.61-.14,1.22.09,2.65.82,3.66.16.23.5.2.38.61-.08.28-.97.4-1.31.53-.31.12-1.63,1.1-1.64.41,0-.29.37-1.05.41-1.54.14-1.57-.14-3.1-1.39-4.14-.23-.19-1.65-.91-.62-1.03.93-.11,1.61.19,2.55-.32.49-.27.91-1.08,1.49-.79Z"/><path class="cls-1" d="M93.53,60.09c.33,1.26.21,2.65.8,3.85.44.9,1.33,1.24,1.95,1.94.04.22-1.36.95-1.62,1.12-.18.11-.49.6-.72.17-.13-.24-.18-1.1-.36-1.56-.75-1.94-2.05-1.98-3.17-3.17-.86-.91.66-.91,1.32-1.24.35-.18,1.59-1.26,1.8-1.11Z"/><path class="cls-1" d="M181.29,165.17c3.25-.56,2.9,5.11-.2,4.04-1.57-.54-1.8-3.69.2-4.04Z"/><path class="cls-1" d="M170.04,175.39c.5-.04.99.36,1.25.74,1.13,1.65-1.09,4.02-2.44,2.54-.97-1.07-.3-3.17,1.19-3.29Z"/><path class="cls-1" d="M65.98,147.98c1.04-.19,2.43.5,2.46,1.66.04,1.67-1.14,2.47-2.7,1.9-1.58-.58-1.24-3.29.23-3.56Z"/><path class="cls-1" d="M74.48,161.08c2-.27,2.98,1.52,1.6,2.93-.78.8-1.72.78-2.64.2-1.31-.84-.43-2.93,1.03-3.13Z"/><path class="cls-1" d="M141.9,186.96c1.2-.25,2.44.41,2.27,1.76-.26,2-4.23,2.8-3.77-.09.09-.57.93-1.55,1.5-1.67Z"/><path class="cls-1" d="M157.85,183.08c1.06,1.06.13,3.07-1.24,3.24-1.68.21-2.6-.82-2.05-2.45.41-1.2,2.37-1.71,3.29-.79Z"/><path class="cls-1" d="M195.3,136.22c2.21-.36,3.6,2.77.92,3.68-1.07.36-2.09-.11-2.22-1.3-.11-1.05.1-2.18,1.3-2.38Z"/><path class="cls-1" d="M190.39,150.74c1.63-.32,2.23,1.99,1.26,2.9-1.17,1.11-3.08.83-2.95-1,.05-.76.95-1.76,1.69-1.9Z"/><path class="cls-1" d="M86.95,173.57c.51.52.64,1.23.52,1.93-.29,1.72-2.66,1.85-3.48.45-1.33-2.27,1.11-4.26,2.95-2.39Z"/><path class="cls-1" d="M98.93,181.64c.77-.13,1.22-.01,1.71.6.72.9.65,2.15-.3,2.85-.79.59-1.7.21-2.4-.36-1.23-1.01-.47-2.84.99-3.09Z"/><path class="cls-1" d="M190.59,92.23c1.45-.3,3.08.92,2.07,2.38-.62.89-2.3.81-2.85-.12-.45-.77-.19-2.06.78-2.26Z"/><path class="cls-1" d="M182.31,78.42c.91-.19,1.8.05,2.19.93,1.07,2.36-2.4,3.16-3.23,1.29-.4-.9.03-2.01,1.04-2.22Z"/><path class="cls-1" d="M171.36,67.79c2.13-.37,2.74,2.32.84,2.99-2.47.87-3.13-2.6-.84-2.99Z"/><path class="cls-1" d="M157.04,59.4c1.36-.28,2.56.64,2.38,2.08-.18,1.48-3.26,1.49-3.47-.32-.09-.72.35-1.6,1.09-1.76Z"/><path class="cls-1" d="M62.81,101.85c2.52-.65,2.51,3.95-.02,3.55-1.74-.27-1.33-3.2.02-3.55Z"/><path class="cls-1" d="M68.74,88.35c1.91-.44,2.62,2.43.77,2.82s-1.96-2.55-.77-2.82Z"/><path class="cls-1" d="M196.73,121.08c1.73-.31,2.84,1.05,2.23,2.63-.5,1.29-1.88,1.24-2.86.51-1.08-.8-.46-2.95.64-3.15Z"/><path class="cls-1" d="M195.81,107.37c1.59-.25,2.33,1.87,1.31,2.95-.56.59-2.5.37-2.69-.49-.21-.96.33-2.29,1.38-2.46Z"/><path class="cls-1" d="M141.69,55c2.5-.43,2.92,2.35.81,3.16-3.05,1.18-3.08-2.78-.81-3.16Z"/><path class="cls-1" d="M126.45,53.27c1.53-.19,2.65,1.38,1.71,2.63-.23.31-.96.84-1.35.9-2.68.46-3.12-3.18-.36-3.53Z"/><path class="cls-1" d="M126.75,189.51c2.46-.51,2.4,3.21.18,3.25-1.85.04-1.68-2.94-.18-3.25Z"/><path class="cls-1" d="M113.26,187.87c.95-.1,1.93.64,1.86,1.65-.08,1.23-1.06,1.67-2.19,1.49-1.56-.24-1.39-2.96.33-3.14Z"/><path class="cls-1" d="M59.8,121.43c-.57-.51-.21-2.27.66-2.5,1.56-.41,2.51,1.83,1.15,2.68-.42.26-1.46.13-1.8-.18Z"/><path class="cls-1" d="M62.8,135.85c-.78.82-2.94.62-2.94-.83,0-1.64,1.7-2.43,2.87-1.33.55.51.57,1.63.07,2.17Z"/><path class="cls-1" d="M76.83,74.54c.81-.16,1.94.55,2.07,1.36.35,2.2-2.05,3.48-3.02,1.48-.3-.61-.3-.9-.12-1.56.14-.53.49-1.17,1.07-1.29Z"/><path class="cls-1" d="M87.68,66.46c1.44-.08,1.39,2.13.07,2.32-1.8.27-1.56-2.24-.07-2.32Z"/><path class="cls-1" d="M113.65,56.04c.59.56.45,1.84-.17,2.37-1.28,1.1-3.29-.07-2.5-1.78.45-.97,1.93-1.28,2.67-.59Z"/><path class="cls-1" d="M100.26,59.2c3.3-.33,2.3,3.86-.12,3.82-2.22-.04-2.72-3.53.12-3.82Z"/><path class="cls-1" d="M143.99,153.77c.49-1.12,1.83-1.62,2.78-2.25,1.31-.87,4.15-2.51,5.12-3.54.99-1.04.07-1.3.22-2.22.1-.63,1.04-1.46,1.51-1.89,3.49-3.14,7.29-6.92,9.01-11.39.39-1.02.67-2.07,1.07-3.09.82-2.12,1.81-3.69,1.9-6.12.01-.28-.14-1.88-.46-1.85-.24.02-.94,2.41-1.47,2.61,0-.19.16-.34.18-.53.11-.98.17-2.71.15-3.71,0-.47-.18-1.89-.46-2.2-.06-.07-1.32-1.04-1.4-1.08-.18-.09-.14.01-.17.12-.2.68-.07,1.67-.29,2.48-.45,1.65-2.57,5.9-3.65,7.21-.34.41-1.09,1.33-.99.14.02-.26.16-.43.18-.64.11-1.19.31-2.85.3-3.99-.02-1.48-.6-2.11-1.82-.95-.44-.38-.9-.61-1.49-.61-1.09,0-1.63,1.54-2.48-.15-.53-1.05-1.28-4.29-2.3-4.71-.95-.39-1.39.22-1.67,1.09-.12.39-.09.81-.27,1.18-.13.27-.44.42-.63.69-.96,1.32-.68,3.51-1.81,4.71-1.39,1.48-2.11,1.89-2.69,4.1-.22.85-.41,3.08.16,3.81.37.48.93.45,1.37.66.3.15.69.7,1.03.91.36.23.81.3,1.16.55.85.61,1.75,2.28,1.8,3.33.1,2.35-.44,3.89-2.46,5.2-.66.42-1.16.12-1.82-.14-2.09-.82-2.91-1.9-4.59-3.12-1.13-.82-3.2-1.74-3.98-2.78-.21-.28-.28-.63-.47-.88-1.07-1.41-4-.59-5.58-1.09-.39-.13-1.91-1.08-1.93-1.48,0-.17.36-.4.08-.5-.09-.03-.62.03-.74.07-.73.24-.49.96-.57,1.55-.47-.25-.56-1.03-.38-1.47-.52-.25-1.21.13-1.44.62-.27.57.58,1.81.56,2.43,0,.26-.11.95-.19,1.18-.15.42-1.03.99-.87,1.74-.61-.89-1.01-.53-1.85-.43-.67-1.32-.85-2.22-2.56-1.48-.14-.03-.59-2.12-1.17-2.38-.45-.2-1.8.6-2.23.85-.48-1.17-.08-2.71-1.88-2.33-.54.11-.92.49-1.44.6.01-.47-.28-2.07-.74-2.22-.56-.17-1.94.48-2.43.82-.13-.02-.32-1.51-.86-1.65-.23-.06-1.23.13-1.52.2-.44.1-.82.27-1.25.39,0-.65-.15-1.32-.51-1.86,0-.07,1.01-.77,1.08-.78.29-.02.22,1.02.81.93.04-.17.03-.38.09-.54.11-.3,1.68-1.32,2.11-1.24l-.26-.82,3.69-2.46c.75-.24,1.67.35,2.58-.19.28-.17.79-.7.94-.99.23-.45.2-1.05.43-1.33.29-.37,1.16-.69,1.53-1.02.3.02.05.25,0,.37-.14.35.43-.07.54-.1.32-.11.99-.18,1.18-.3.45-.26.45-1.14.68-1.55l3.78-2.42c.16-.01.6,1.06.75,1.28,1.14,1.63,4.33,2.9,6.16,3.64,2.12.86,4.53,1.9,6.88,1.59.47-.06,2.33-.66,2.64-.95.58-.53.71-1.07,1.09-1.62.21-.3,3.22-1.31,3.81-1.5s1.03-.02,1.31-.67c-.2-.21-4.05,1.21-4.65,1.3.56-1.57.7-3.24,1.05-4.85.29-1.33.99-3.26,1.63-4.47.57-1.07,3.38-3.3,4.42-4.38,1.88-1.95,3.58-4.06,5.33-6.12,3.99,3.89,6.93,8.81,8.6,14.12l-.21.2c-2.72.67-5.35,1.68-8.06,2.4-1.3.35-2.67.49-3.93.97l.37.51c4.1-.78,7.97-2.4,11.98-3.52l.87,6.04c.03.22.25.22.45.24.07-2.53-.45-4.92-1.21-7.3-5.24-16.44-21.29-26.37-38.43-22.11-.93.23-6.41,1.87-6.68,2.49-.07.16-.04.25.1.34.5.24,3.39-1.01,4.07-1.24.92-.3,1.92-.65,2.84-.91.27-.08,1.66-.47,1.8-.33.09,4.23.75,8.41.96,12.62-1.05.96-2.27,1.76-3.02,3.03l-2.32-4-.27.23c-.07.16.01.3.08.44.29.64.88,1.42,1.24,2.07.16.3.91,1.59.92,1.78.02.24-.69,1.56-.81,2.07-.19.82-.32,2.01-.29,2.85.02.38.3,1.14.09,1.42l-3.4,2c.14-.82.12-1.9-.06-2.72-.08-.37-.17-.71-.62-.72-.97,1.32-.99,3.03-1.14,4.6l-1.56,1.05c.44-2.54.84-5.13.09-7.64-.61-2.04-1.16-2.61-2.98-1.15-1.36,1.09-3.19,2.9-4.38,4.19-.56.61-2.48,2.82-2.73,3.45-.26.66.05,1.04-.07,1.45s-.69.46-.69,1.21c0,.35.23.48.31.74.22.75.17,1.22.93,1.77,1.11.81,1.91-.14,3.14-.06-.2.21-.45.39-.69.55-.95.64-2.44,1.65-3.42,2.15-.12.06-.34.22-.41.04.02-.43-.21-.8-.26-1.21-.12-.88.16-1.96-.67-2.57-.52.36.23,1.31-.37,1.65-.23.13-.99.29-1.24.23-.42-.09-.51-.74-1.05-.67-.22.41-.3.96-.76,1.18-.61-.32-.05-.66.14-1.02.18-.34-.14-.33-.4-.18-.22.12-1.63,1.15-1.69,1.28-.2.41-.15,1.25-.3,1.75-.09.29-.41.67-.46,1.02l-.8.25c-.46-.79.44-1.82.92-2.45.82-1.11,1.84-2.09,2.63-3.23.29-.41,1.26-1.74.26-1.81-.32-.02-.63.17-1.04.14-1.07-.06-2.13-.63-3.23-.71-.48-.03-.78.03-.6.61.07.22.38.27.47.4.1.13.1.53.32.68-.42.22-.84.47-1.28.64-.32.13-1.57.63-1.75.26-.03-.07.05-1.24.08-1.46.12-1.09.52-2.44.99-3.44.68-1.44,3.07-1.55,4.49-1.89.73-.18,1.41-.53,2.21-.52-.22-.84-.41-1.46-1.23-1.86-1.22-.59-2.54-.04-3.81-.28-.12-.11-.7-2.85-.71-3.17,0-1.44,1.87-3.27,2.68-4.43.45-.65,1.05-1.56,1.42-2.25.4-.74.63-1.62,1.04-2.29.12-.19,1.52-1.95,1.63-2.02.58-.39,2.01-.51,2.76-.84.58-.25,1.28-.89,1.78-1.04.37-.12.96-.08,1.37-.17.92-.2,1.88-.63,2.82-.58,1.58.1,2.96.29,4.58.03.32-.05.64-.16.93-.29-.1-.57-.39-1.46-.85-1.84-.49-.4-2.41-.64-3.12-.7-.91-.08-1.88.14-2.75-.17,1.16-1.54,2.36-3.09,3.81-4.36,3.51-3.06,6.39-4.36,11.19-3.99,3.24.25,6.54.59,9.81.59.96,0,2.08-.28,2.99-.23,3.18.18,8.31,1.46,11.31,2.58,4.09,1.53,8.42,5.64,11.13,9.03,1.45,1.81,1.95,3.04,2.99,5,1.47,2.77,5.26,5.84,5.34,9.15.08,3.14-.78,6.23-.6,9.38.06.97.33,2.08.3,3.02-.1,3.03-.71,7.36-1.71,10.19-.83,2.34-1.91,5.64-3.43,7.53-1.64,2.04-3.84,3.68-5.72,5.47-.77.73-1.32,1.59-2.05,2.35-1.32,1.38-4.08,4.19-5.55,5.22-1.1.77-4.67,1.5-6.03,1.46-.34,0-.68-.07-1.01-.13ZM117.79,91.09c2.83-2.05,8.47-2.89,11.9-2.83,6.8.12,11.76.79,17.88,3.89,3.18,1.61,5.69,4,8.3,6.37,1.54,1.4,5.11,4.38,5.93,6.09,1.68,3.49,3.48,10.14,3.85,14,.06.64-.11,2.1.01,2.53.3,1.1.66.86.51,2.43-.39,4.18-2.22,9.89-3.98,13.72-.18.38-.97,1.45-.81,1.78.34.27,1.08.28,1.42,0,.28-.23,1.14-1.6,1.35-1.99,2.37-4.39,3.34-9.05,3.61-13.98.22-4.03.5-8.3-.66-12.22-.74-2.51-1.98-5.8-3.03-8.21-1.05-2.42-4.47-6.24-6.46-8.07-1.26-1.15-2.53-1.89-3.8-2.91-.48-.39-.87-.93-1.41-1.34-7.13-5.35-15.18-6.04-23.76-4.83-1.15.16-1.97.64-2.99.83-.72.14-1.47.11-2.24.3-2.09.5-6.03,2.31-7.56,3.8-.24.24-.53.57-.22.86l1.53.33c.26-.04.4-.42.6-.56ZM118.08,94.54c-.08,0-.23.14-.09.24.54,1.08.96,2.29,1.53,3.35.22.4.56,1.38,1.07.78-.64-1.21-1.27-2.7-2.03-3.84-.08-.13-.32-.54-.47-.53ZM123.76,97.86c-.89.51-3.11,1.1-3.58,2.06-.37.74.14,1.45.04,1.99-.04.22-.35.47-.44.71-.26.68.55,2.28,1.37,1.5.77-.73,1.07-1.97,2.06-2.58.12-.27-.45-1.02-.48-1.29-.07-.78,1.72-1.38,1.77-1.72.02-.26-.52-.68-.74-.66ZM100.32,108.45c.19.31.81.93,1.17,1.02.46.12,1.73.2,2.29.25,1.99.18,5.14.47,7.06-.05,1.32-.35,5.51-3.47,6.14-4.66.41-.78.37-2.94.13-3.82s-1.07-2.06-1.84-2.6c-1.98-1.37-7.28-1.36-9.39-.12-1.22.72-2.93,4.07-3.76,5.39-.67,1.07-2.62,3.22-1.81,4.58ZM108.6,112.76c.18-.16.44-.55.2-.74l-3.05.73v.36s.52.14.52.14l.13.17c-.01.46-.63,1.84-.16,2.13.05.03.25.09.25-.02.35-1.04.97-1.86,1.76-2.6.1-.1.28-.11.35-.17ZM129.38,125.7s.26-.32.28-.4c.29-.91-1.16-2.08-1.81-2.6-1.08-.87-2.51-1.63-3.53-2.49-.5-.42-.87-1-1.44-1.35-.07.32.13.62.27.9.72,1.42,3.65,4.45,4.96,5.39.25.18,1.01.66,1.28.56ZM140.58,122.62c-.85.04-1.94,1.11-2.72,1.32-.51.13-1.85-.15-2.03.22-.25.54.28.66.72.75,1.24.26,3.28.13,4.23-.82.53-.53.87-1.53-.2-1.48ZM137.85,127.86s-.24-.17-.25-.17c-.29.55-.22,1.2-.4,1.78-.27.84-1.45,2.12-1.26,2.89.16.65.73.3,1.15.31,1.09.02,1.58,1.1,2.56,1.4.34-1.17-.44-1.61-.94-2.42-.17-.28-.63-1.21-.7-1.5-.16-.6.08-1.91-.16-2.29ZM111.18,129.02l.24-1.58c.07-.43,2.43-.41,2.78-1.11.08-.15.06-.35.15-.51.21-.37.81-.71.85-1.24.05-.66-.87.13-1.15.23-.67.22-2.68.17-3.1.8-.19.3-.47,2.96-.32,3.26.04.08.23.18.3.27l.25-.1ZM118.09,129.53c-.29-.64-.5-1.83-.97-2.32-.09-.09-.09-.21-.27-.19-.15.12-.06,1.19-.13,1.42-.09.26-.4.3-.5.65-.14.47.07.89,0,1.22-.04.24-.35.5-.43.84-.11.54.09,1.04.55,1.35.13,0,.68-1.01.86-1.22.33-.35.86-.48.96-1.02.21,0,.5.02.68.14.07.05.62,1.32.64,1.46.09.85-.66,2.09.24,2.67.61-1.17,1.04-1.84.75-3.22-.09-.45-.59-1.36-.58-1.68,0-.27.3-.66.22-.99l-.36-.17-.48,1.02-1.19.03ZM122.72,129.65c-.42-.32-1.22.19-1.3.65-.16.86.74,2.96.85,3.92,0,.2-.69.86-.35.97.31.1,1.26-.75,1.33-1.07.03-.12-.17-1.36-.21-1.59-.16-.92-.73-1.98-.31-2.88ZM114.23,130.2c.13-.4.17-1.13.24-1.58.04-.26-.7-.48-.88-.12-.05.69-.02,1.4-.34,2.04l.4.43c.07.01.54-.66.57-.77Z"/><path class="cls-1" d="M96.23,136.24c.53.66,1.09.45,1.72.1.34,1.45,1.1,1.89,2.38.97.1.02.49,1.54.96,1.67.42.11,1.29-.39,1.77-.34l1.5,1.33,1.44-.66c.13.02.82,1.62,1.19,1.84.33.2,1.41-.07,1.76-.28-.06.85.98,1.46,1.73,1.46.81,0,1.29-.64,1.95-.99-.39,1.28.95,2.69,2.23,2.15.17-.07.42-.34.55-.29.6.61.63,1.45,1.46,1.83.9.41,1.19-.22,2.03-.39.06.58,1,1.58,1.6,1.41.14-.04.66-.59.78-.44l-.23.47c.58.82,1.41.92,2.36.82.19-.02.4-.19.58-.16.17.03.28.28.47.35.34.14.66,0,.86.07.39.15.72.47,1.34.6,3.31.68,4.15-1.99,5.95-3.97.52-.58,1.22-1.41,2.08-1.16.06.72-.22,1.41-.57,2.03-.24.44-2.23,3.19-2.51,3.4s-.65.1-.7.61c-.08.75.69.69,1.2.44,1.61-.81,2.24-2.13,3.46-3.05.2-.16.69-.51.89-.22.33.47-.64,1.66-.93,2.09-1.23,1.79-2.82,3.37-4.65,4.54-1.31.83-2.4,1.2-3.85,1.68-.31.1-.89.44-1.15.46-1.02.07-2.81-.48-3.95-.48-.48,0-.97.38-1.58.36s-3.78-.72-3.97-.52c-.21.71.71.52,1.09.7.14.06.17.26.37.34.59.21,1.57.13,2.17.34.26.09.33.4.54.57.66.55,1.98.41,2.84.55,1.62.27,3.27.75,4.92.87,2.4.18,5.53-2.37,6.92-4.19.54-.71.9-1.61,1.43-2.24,1.29-1.55,3.98-2.16,4.1-4.43.12-2.24-2.39-1.8-3.08-3.17-.38-.75-.79-2.87.66-2.42.9.28,1.01,2.41,2.71,2.84.64.16,1.24.02,1.84.23.06.06.08,1.54.03,1.73-.11.43-1.7,2.87-2.06,3.41-1.73,2.55-4.49,5.28-6.76,7.41-.35.33-1.62,1.45-1.96,1.63-.16.08-2.15.48-2.43.51-1.76.18-3.39.39-5.16.14-2.91-.43-5.83-1.28-8.69-2.05-6.02-1.62-11.62-3.22-17.13-6.21-1.26-.68-3.89-2.13-4.91-2.98-.46-.38-.84-.99-1.29-1.42s-2.68-1.97-2.61-2.43c.05-.33.67-1.55.86-1.94,1.02-2.13,2.28-4.15,3.15-6.35.17-.24,1.36-.82,1.56-.73.23.44.45,1.22.76,1.6ZM94.26,142.23c0-.28.26-.43.32-.71.07-.33-.12-.76-.05-1.02s.54-.25.67-.52c.15-.32-.03-.7.08-1.03-.52.17-1.42.01-1.76.54-.13.21,0,.39-.12.65-.32.73-1.73,1.63-1.7,2.43.02.48.41,1.15.8,1.43,1.24.93,3.09,2.22,4.49,2.85.9.4,1.88.61,2.8,1.02.94.41,1.77,1.13,2.83,1.22.04-.96-1.08-.8-1.56-1.26-.17-.16-.2-.47-.35-.71-.59-.88-1.67-1.06-2.49-1.59.61-.19.43-.46.45-.99-.45-.05-.95-.13-1.22-.56.38-.49.73-.86.74-1.55-.75.35-1.72.12-1.71,1.25-.56-.05-.78-.35-.55-.88l.74-.27-.04-1.76c-.29.08-1,.13-1.05.5l.07.56c-.38.06-.84.12-.9.57l-.47-.18ZM101.62,140.44c-.27.13-.81.32-.91.62-.11.33.09.52.05.67-.07.28-.75,1.02.02,1.21.3.08.99-.54,1.08-.81.17-.51-.16-.53-.24-.87-.05-.22,0-.59,0-.83ZM106.83,143.96c-.16.18-2.12.39-2.39.24-.29-.15-.03-1.18-.15-1.56-.27-.84-.86.41-.92.84-.1.74.43,1.6.39,2.09-.06.68-.82,1.78-.59,2.35.42,1.02,2.11-.27,2.78-.44.35-.09.69-.04,1.03-.15.1-.1.53-2.36.53-2.68,0-.43-.11-1.04-.62-1.08-.03.11,0,.3-.07.38Z"/><path class="cls-1" d="M140.4,106.28c-1.08-.33-1.97-1.08-2.98-1.54-.57-.26-4.33-1.47-4.43-1.68l.07-12.82c.63-.07,1.27-.16,1.91-.15,2.7.07,6.03.91,8.56,1.87.44.17,3.47,1.44,3.49,1.66l-6.62,12.68ZM139.13,99.94c-.09-.13-.35-.17-.5-.21-1.32-.32-2.58,0-3.86-.5-.49.48-.15.73.28,1.01,1.02.66,2.36,1.12,3.4,1.77.15,0,.23-.02.32-.15.24-.35.62-1.55.34-1.92Z"/><path class="cls-1" d="M150.72,95.75c.08.17-.73,1.39-.88,1.7-1.2,2.41-2.34,4.89-3.48,7.33-.62,1.33-1.18,3.14-1.91,4.34-.26.43-.73.84-1.12,1.16-.33-1.5-1.07-2.88-2.46-3.63-.08-.17.91-2.16,1.08-2.5,1.2-2.42,2.58-4.74,3.77-7.18.22-.44,1.36-3.24,1.63-3.24l3.37,2.03Z"/><path class="cls-1" d="M130.89,102.69c-.67,0-1.5.48-2.16.58l-1.1-12.36c.12-.39,4.37-.7,4.99-.69l-.29,12.7c-.45-.02-1-.22-1.43-.22Z"/><path class="cls-1" d="M145.6,108c.96-2.67,2.31-5.16,3.49-7.73.64-1.39,1.14-2.85,1.89-4.18.19-.09,1.89,1.36,2.17,1.61.21.19,1.29,1.09,1.22,1.28-2.9,3.03-5.48,6.4-8.77,9.03Z"/><path class="cls-1" d="M136.62,114.22c2.57.13,3.77,3.21,1.94,5.16s-5.13-.34-4.62-2.72c.27-1.24,1.32-2.51,2.68-2.44ZM136.48,115.71c-.5.07-1.21,1.41-1.15,1.85.03.23.66.92.89,1.03.97.48,2.15-.73,2.04-1.67-.1-.8-1.01-1.31-1.77-1.21Z"/><path class="cls-1" d="M111.7,131.49c0,.38.21.79.13,1.17-.07.3-.84,1.79-1.04,2.18-.37.72-.42,1.03-1.3.86-.32-.06-1.68-.41-1.5-.84l1.22-2.83c.82-.19,1.62-.59,2.49-.54Z"/><path class="cls-1" d="M106.8,134.35c-.12.05-2-.62-2.26-.74-.11-.06-.18.05-.12-.17.4-.49.91-2.21,1.3-2.54.29-.25,2.1-.58,2.45-.48.3.09.41.53.34.8l-1.71,3.12Z"/><path class="cls-1" d="M111.37,136.37c-.07-.16.86-2.36,1.04-2.55.27-.28,2.13-.8,2.37-.6.09.08.13.31.13.44,0,.54-.85,2.99-1.26,3.28-.49.34-1.8-.26-2.27-.57Z"/><path class="cls-1" d="M117.97,134.17l.27,2.03-.94,2.35c-.45.26-1.89.08-1.93-.5-.01-.14.62-1.97.72-2.33.03-.12,0-.24,0-.36.04-.09.86-.48,1.04-.6.16-.11.68-.75.84-.58Z"/><path class="cls-1" d="M103.31,132.7c-.2.09-1.59-.37-1.68-.54s.56-1.65.71-1.92c.16-.31.23-.51.59-.64.19-.07,1.76-.23,1.86-.18s.12.16.12.26c.01.74-1.26,2.3-1.6,3.02Z"/><path class="cls-1" d="M101.1,137.32c-.6-1.14.22-2.3.43-3.46l1.94.54c.33.31-.54,2.22-.82,2.6l-1.55.32Z"/><path class="cls-1" d="M120,140.65c-.45-.35-.97-.55-1.51-.69l.76-2.85c.51,0,1.02-.25,1.35-.61.26.03.65,1.24.62,1.46-.1.81-1.12,1.85-1.22,2.7Z"/><path class="cls-1" d="M106.34,135.94c.67.73-.45,1.75-1.06,2.13-.92.57-1.06.3-1.88-.29.18-.78.75-1.49.63-2.32l.68-.2c.37.3,1.37.38,1.64.68Z"/><path class="cls-1" d="M100.56,132.72c.07.13.08.29.06.44-.15.91-.76,2.02-.87,2.98l-.9.33-.53-1.54.55-2.33c.05-.11,1.53-.09,1.68.12Z"/><path class="cls-1" d="M108.12,136.81l1.68.49c.34.87-.44,1.46-1.11,1.85-.89.51-1.75.81-2.14-.41.53-.31,1.02-1.88,1.57-1.93Z"/><path class="cls-1" d="M126.98,139.4l1.15-2.79c2.35-1.85,1.45,2.96.05,3.06-.41.03-.82-.13-1.2-.27Z"/><path class="cls-1" d="M119.49,141.38c.05.08-.65.81-.77.92-.58.58-1.42,1.31-2.28,1.22l-.31-.68c.32-.49.6-2.41,1.38-2.25.53.11,1.36.73,1.98.79Z"/><path class="cls-1" d="M115.98,139.83c.1.16-1.55,2.73-2.22,2.54-.09-.18-.36-.4-.39-.59-.05-.32.02-2,.17-2.23.13-.21.72-.39.97-.36.43.05.95.62,1.47.64Z"/><path class="cls-1" d="M124.67,138.12c-.35-.35.89-1.96,1.04-2.42.14-.43,0-.79.1-1.17.08-.3.48.07.57.2.3.38.52,2.07.4,2.55-.12.46-.53.73-.76,1.13l-1.35-.28Z"/><path class="cls-1" d="M112.84,138.54c-.48,1.34-1.51,2.51-3.07,2.24-.18-.42.14-.42.31-.68s.44-.61.57-.9c.12-.27.31-1.1.44-1.2.39-.3,1.23.54,1.74.53Z"/><path class="cls-1" d="M125.07,143.26l1.36-3.23c.79.61,1.06.91.74,1.96s-.96,1.92-2.09,1.27Z"/><path class="cls-1" d="M123.06,137.89c0,.3.31.48.27.79-.1.91-1.02,1.97-1.15,2.91l-1.18-.18c.26-.51.63-.9.81-1.47.1-.33.18-1.3.3-1.49.07-.11.85-.66.95-.57Z"/><path class="cls-1" d="M124.9,139.09c.53-.04.77.88.72,1.27-.03.2-.73,1.94-.85,2.08-.21.25-1.03.34-.97-.13.02-.2.43-.75.54-1.06s.45-2.09.56-2.16Z"/><path class="cls-1" d="M97.94,132.79c0,1.23-.56,1.88-1.46,2.6-.28-.31-.36-1.23-.19-1.58.09-.18,1.4-.86,1.66-1.03Z"/><path class="cls-1" d="M119.41,144.51c-.3-.28.75-1.33.9-1.7.12-.29.17-.55.2-.86l.97.3c.12.12.06.14.01.26-.13.31-1.43,1.83-1.72,1.96-.13.06-.22.09-.36.04Z"/><path class="cls-1" d="M123.54,143.33c-.03.24-.06.49-.12.73-.76,2.92-1.94.27-.59-1.04l.71.31Z"/><path class="cls-1" d="M103.99,124.42c-.1.29-.33.34-.42.69-.08.31.05.95-.01,1.06-.09.15-.99.71-1.14.53.08-.21-.1-.44-.1-.6,0-.48,1.4-1.03,1.27-1.75l.39.06Z"/><path class="cls-1" d="M99.76,126.91l-1.07.99-1.63,2.03c.03-.2.03-.42.12-.61.05-.11,1.26-1.9,1.35-1.98.29-.28.82-.45,1.22-.42Z"/><path class="cls-1" d="M124.82,144.18l.27-.11c.21.11.48.14.68.21.14.05.16-.06.13.17-.1.69-.65,1.09-1.3,1.16l.22-1.43Z"/><path class="cls-1" d="M101.89,124.91c0,.2-.21.33-.24.52s.13.4.05.59c-.06.15-.8.58-.92.53-.11-.16-.33-.49-.25-.67.03-.06.9-.77,1.04-.87.11-.08.16-.17.32-.1Z"/><path class="cls-1" d="M100.75,124.43l-.42,1.35-.92.06c0-.71.69-1.27,1.33-1.41Z"/><path class="cls-1" d="M95.94,130.66c.11.33-.96,1.09-1.06.95l.27-1.07.79.12Z"/><path class="cls-1" d="M97.5,127.16c-.18.39-.52,1.06-.8,1.36-.11.12-.16.25-.35.18.28-.46.58-.93.87-1.38.09-.14.02-.25.27-.16Z"/><path class="cls-1" d="M109.52,101.64c1.31.03,2.27,1.25,2.6,2.43.25.88-.46,2.35-1.26,2.75-.47.23-1.49.3-2.01.25-3.7-.33-2.8-5.51.66-5.43ZM109.29,103.12c-2.18.04-1.45,3.72.89,2.52.28-.14.37-.26.46-.57.33-1.17-.02-1.98-1.35-1.96Z"/><path class="cls-1" d="M79.81,142.97c-.66.62-1.06,1.02-.79,1.97.13.46.49,1.14,1.02,1.17.18,0,.35-.14.48-.08-.06.32-1.78,1.56-1.93,1.37l.49-.66c-.62-1.09-1.33-2.1-.58-3.35.52-.87,3.14-2.26,4.1-2.9,6.7-4.48,13.6-8.63,20.42-12.93,9.06-5.7,18.09-11.46,27.2-17.08.39.22.63.68.15.94-.21.11-.34-.09-.57-.09-.35,0-3.11,1.78-3.64,2.1-15.6,9.59-30.74,19.94-46.33,29.54Z"/><path class="cls-1" d="M79.81,142.97c-.66.62-1.06,1.02-.79,1.97.13.46.49,1.14,1.02,1.17.18,0,.35-.14.48-.08-.06.32-1.78,1.56-1.93,1.37l.49-.66c-.62-1.09-1.33-2.1-.58-3.35.52-.87,3.14-2.26,4.1-2.9,6.7-4.48,13.6-8.63,20.42-12.93,9.06-5.7,18.09-11.46,27.2-17.08.39.22.63.68.15.94-.21.11-.34-.09-.57-.09-.35,0-3.11,1.78-3.64,2.1-15.6,9.59-30.74,19.94-46.33,29.54Z"/><path class="cls-1" d="M99.17,131.5c.2.08.37.14.46.17.86.26.94-.04,1.38-.73.15-.23.58-.89.89-1.41-.62.36-1.43.81-1.85,1.13-.2.16-.59.54-.88.84Z"/><path class="cls-1" d="M101.88,127.63c-.66-.16-1.17-.34-2.17.37l-.78,1.42c.75-.41,1.51-.85,1.88-1.08.23-.14.68-.45,1.07-.7Z"/></svg>