<?xml version="1.0" encoding="UTF-8"?><svg id="Layer_1" xmlns="http://www.w3.org/2000/svg" viewBox="0 0 600 250"><path d="M180.99,162.36c2.09-.23,3.45.64,4.89,2.02,2.45,2.34,2.86,6.14.56,8.75-2.8,3.16-7.29,1.71-9.74,6.33-1,1.88-.92,2.8-2.69,4.37-3.14,2.78-7.47,2-9.08-1.98-.76-1.88-.39-6.04,1.14-7.49,1.52-1.44,5.25-1.69,7.26-2.87,3.44-2.01,2.44-8.55,7.66-9.12ZM181.81,165.43c-.97.14-1.89.98-2.47,1.72-1.88,2.4.1,5.59,3.06,5.31.35-.03,1.6-.58,1.84-.82,1.6-1.65.86-4.42-.82-5.72-.56-.43-.87-.59-1.61-.49ZM169.53,175.86c-.93.13-1.92.82-2.1,1.79-.38,2,.45,4.53,2.58,5.15,1.48.43,2.92-1.69,2.91-3.01,0-1.57-1.6-4.19-3.39-3.93Z"/><path d="M65.36,145.48c2.23-.28,5.29,1.55,6.21,3.56s.69,3.03.9,5.03c.22,2.11,1.49,2.92,3.05,4.11,1.67,1.28,4.31,2.41,5.06,4.46.85,2.35-.06,4.22-1.59,5.98-3.09,3.56-6.46,3.08-9.45-.26-2.06-2.3-1.47-6.31-3.09-9.09-1.26-2.17-4.84-2.81-6-5.26-1.73-3.63,1.02-8.05,4.91-8.54ZM65.77,148.45c-.77.09-1.24.34-1.72.94-2.04,2.59.17,5.97,3.31,5.67,1.33-.13,2.9-1.34,2.83-2.8-.12-2.37-2.04-4.09-4.42-3.81ZM74.98,161.75c-2.12.13-3.22,1.85-2.94,3.9.12.85,1.67,2.11,2.5,2.21,1.62.2,3.42-.89,3.53-2.61.12-1.99-.99-3.62-3.09-3.5Z"/><path d="M138.07,186.01c2.65-1.9,6.75,0,9.82-1.7,1.89-1.04,2.7-2.44,4.22-3.66,3.47-2.79,8.37-.99,9.56,3.23.96,3.41-.18,6.27-3.17,8.07-3.19,1.92-5.48-.11-8.69.62-3.62.82-5.07,5.48-9.37,4.15-1.09-.34-2.08-1.03-2.81-1.9-1.77-2.13-2.01-7.04.44-8.81ZM156.02,183.44c-1.28.12-1.89.47-2.45,1.64-.72,1.51-.26,3.22,1.22,4.04,2.9,1.62,5.79-1.36,4.21-4.21-.67-1.2-1.63-1.6-2.97-1.47ZM141.59,187.32c-2.16.4-3.43,3.15-2.02,4.94,2.68,3.38,7.82.78,5.98-3.32-.58-1.29-2.66-1.86-3.96-1.61Z"/><path d="M195.63,134.74c3.5-.09,6.31,2.47,6.06,6.06s-4.17,4.64-5.3,8.1c-.67,2.05.1,2.83.27,4.7.37,4.06-3.23,7.62-7.36,6.54-.66-.17-.74-.49-1.19-.76-1.08-.64-1.92-.8-2.57-2.03-1.73-3.23-.72-6.49,1.87-8.83.64-.58,1.34-.9,1.95-1.63,1.8-2.19.74-3.68.56-6.09-.3-4.13,1.74-5.96,5.71-6.06ZM195.01,137.09c-.48.08-1.97,1.01-2.15,1.43-.13.29-.11,1.22-.08,1.56.2,2.27,2.71,3.44,4.71,2.55,1.08-.48,1.34-1.56,1.34-2.66,0-1.76-2.17-3.18-3.82-2.89ZM191.2,151.44c-1.12-.02-3.03,1.14-3.43,2.25.15,1.21.1,2.25,1.32,2.87,1.78.9,4.03.17,4.28-1.98.15-1.31-.69-3.12-2.17-3.14Z"/><path d="M84.3,170.75c2.05-.2,4.5,1.19,5.85,2.68.92,1.01,2.6,4.29,3.69,4.7,1.96.73,4.49.57,6.57,1.21,1.84.57,3.94,1.89,4.41,3.87,1.33,5.6-5.61,11.11-9.91,6.23-2.08-2.37-2.17-4.92-5.71-6.16-1.97-.69-5.34-.19-7.06-1.43-4.11-2.98-3.47-10.56,2.16-11.1ZM84.91,173.31c-3.92.28-2.79,7.47,1.48,6.5.94-.21,2.35-1.28,2.43-2.27.19-2.23-1.61-4.39-3.91-4.23ZM98.52,182.31c-2.7.39-3.5,4.38-.73,5.79,3.68,1.87,5.93-3.07,3.65-4.88-.74-.59-1.98-1.05-2.92-.91Z"/><path d="M182.12,76.94c3.39-.35,6.23,1.23,6.76,4.74.26,1.76.16,2.91.89,4.64,1.26,3,2.86,2.84,4.96,4.76,2.23,2.03,3.87,5.04,2.11,7.94-2.24,3.68-8.48,2.66-10.49-.69-1.31-2.19-1.23-3.42-1.44-5.82-.43-4.89-4.37-4.49-6.81-7.51-1.25-1.56-1.04-4.32-.03-5.97.63-1.03,2.86-1.97,4.05-2.09ZM182.73,79.19c-4.16.19-3.03,7.11,1.17,5.48,3.1-1.21,2.25-5.63-1.17-5.48ZM190.61,92.69c-1.69.23-3.01,2.01-2.73,3.7.08.46,1.19,1.15,1.63,1.34,2.23.96,4.97-.29,4.6-2.96-.1-.69-.82-1.33-1.39-1.68-.71-.42-1.27-.52-2.1-.4Z"/><path d="M157.56,57.91c2.28-.23,3.54.33,4.87,2.13.87,1.16,1.54,2.47,2.67,3.47,3.06,2.7,7.78.61,11.2,4.04,3.73,3.73.52,9.49-4.56,9.37-3.5-.09-4.51-2.55-6-5.05-2.51-4.2-9.61-1.78-12.1-5.3s-.38-8.22,3.91-8.66ZM157.25,60.16c-4.83.66-1.9,7.71,2.55,5.41,1.93-1,1.33-3.03.13-4.36-.82-.91-1.43-1.22-2.68-1.05ZM171.27,68.24c-1.01.04-2.2.93-2.51,1.9-.62,1.91.89,4.38,2.99,4.22,2.42-.19,3.79-2.28,2.56-4.51-.63-1.15-1.74-1.66-3.04-1.61Z"/><path d="M68.44,86.15c3.97-.26,7.09,3.83,5.67,7.61-1.35,3.57-5.87,3.93-5.86,8.07,0,2.18.69,4.35-.58,6.36-1.78,2.81-5.64,3.7-8.11,1.21-2.29-2.31-2.28-5.06-.3-7.57,1.07-1.35,3-2.34,3.68-3.89,1.27-2.86.19-6.06,1.31-8.51.91-2,1.88-3.13,4.19-3.28ZM68.63,89.11c-1.61.27-1.95,2.68-1.22,3.93,1.59,2.74,5.17.38,3.78-2.55-.41-.87-1.6-1.54-2.56-1.38ZM63.01,102.72c-.74.13-1.72,1.08-2.04,1.75-.43.89-.52,1.62,0,2.5.64,1.09,2.05,1.38,3.16.87,2.92-1.34,1.7-5.6-1.12-5.11Z"/><path d="M195.01,105.79c3.97-.54,8.06,2.19,6.68,6.57-.71,2.25-2.48,2.83-1.77,5.55.63,2.42,3.48,4.41,3.18,7.11-.51,4.47-5.16,6.94-9.07,4.42-2.75-1.78-3.35-4.15-2.07-7.17.46-1.09,1.41-2.29,1.54-3.47.22-1.96-1.92-3.82-2.6-5.57-1.33-3.42.38-6.93,4.12-7.44ZM195.62,108.34c-1.98.25-2.6,1.48-2.3,3.38.31,1.96,2.32,1.77,3.79,2.1,1.87-.61,2.2-3.57.68-4.73-.66-.51-1.32-.86-2.17-.75ZM196.44,121.95c-2.86.42-2.89,4.31-.72,5.37,2.33,1.13,4.91.19,4.63-2.68-.21-2.11-1.94-2.97-3.91-2.69Z"/><path d="M126.56,51.47c3.01-.06,3.52,1.72,5.64,2.79,3.39,1.7,6.4-1.59,9.98-1.49,3.67.1,6.4,3.44,5.22,7.06-1.04,3.21-2.83,4.74-6.33,4.39-3.76-.38-4.98-5.17-9.76-3.49-2.23.78-3.01,1.78-5.7,1.78-1.86,0-3.08-.45-3.81-2.23-1.61-3.9.07-8.71,4.76-8.8ZM126.04,54.12c-.84.12-1.73.68-2.23,1.35-2.28,3.11,3.26,6.2,5.22,3.48.44-.62.82-2.42.59-3.14-.47-1.44-2.22-1.88-3.58-1.69ZM144.35,56.89c-1.47-1.69-4.64-.91-5.48,1.05-.61,1.42-.4,2.51.86,3.42,1.91,1.37,5.87-.49,5.35-3-.05-.22-.58-1.3-.73-1.47Z"/><path d="M112.43,186.1c3.73-.34,5.27,2.85,8.85,2.4.65-.08,1.27-.43,1.87-.58,2.02-.52,5.47-1.23,7.26.1,3.8,2.83,1.92,8.8-2.13,10.25-3.61,1.29-5.8-2.44-9.23-2.48-1.78-.02-3.32.84-4.94,1.3-8.12,2.34-8.93-10.33-1.68-10.99ZM113.05,188.56c-2.04.22-3.39,2.1-2.35,4.03,1.17,2.17,4.49,1.9,5.42-.35.48-1.17.47-1.85-.48-2.74-.66-.61-1.68-1.04-2.58-.94ZM126.83,189.71c-2.89-.04-4.13,3.64-1.84,5.46,1.94,1.55,4.63.87,5.04-1.71.32-2.03-1.17-3.73-3.2-3.75Z"/><path d="M60.25,116.94c3.77-.39,5.53,2.89,5.24,6.26-.23,2.69-1.78,3.62-.69,6.63,1.15,3.18,3.5,6.29.94,9.69-1.45,1.92-5.76,2.61-7.67,1.13-2.7-2.11-1.95-4.92-.95-7.7.25-.7.73-1.37.85-2.12.66-4.22-3.13-6.04-2.36-10.24.35-1.9,2.82-3.46,4.64-3.65ZM60.76,119.59c-.75.08-1.83,1.06-2.18,1.71-.41.78-.38,2.08.21,2.77.76.9,2.77.94,3.59.1,1.02-1.05.9-2.97-.1-4-.29-.3-1.09-.64-1.51-.59ZM61.48,134.02c-2.18.21-3.49,3.87-.9,4.53.82.21,2.67.04,3.22-.67,1.37-1.78-.1-4.07-2.32-3.86Z"/><path d="M86.75,63.64c1.21-.17,1.74.11,2.74.69,2.72,1.57,4.19,3.69,2.89,6.88-.85,2.09-3.52,3.04-5.52,3.69-1.39.45-2.63.3-3.5,1.62-2.17,3.27-1.45,8-7.06,7.35-3.89-.46-5.06-4.8-3.76-8.04,1.46-3.66,5.03-2.8,7.73-4.55,1.13-.74,1.9-3,2.65-4.21.82-1.34,2.18-3.19,3.84-3.42ZM87.05,67.22c-.89.13-1.83.83-1.92,1.76s.1,1.32.77,1.89c1.3,1.1,3.06,1.56,3.81-.38.86-2.2-.39-3.61-2.66-3.28ZM79.78,80.25c.76-.74,1.05-3.13.3-3.96-.68-.74-2.51-1.05-3.46-.89-1.45.25-2.42,2.33-2.07,3.66.21.81,1.86,1.95,2.66,2.04s1.97-.27,2.58-.85Z"/><path d="M112.33,53.61c2.47-.26,4.99,2.03,5.52,4.35.68,3-3,5.83-5.66,6.25-1.79.28-2.96-.33-4.6-.49-1.19-.11-1.5.06-2.39.75-2.07,1.6-2.64,3.21-5.69,3.52-2.77.28-3.84-1.2-4.62-3.65-1.36-4.26,2.48-7.22,6.47-6.98,1.45.09,2.8.77,4.1.91,1.74.18,1.85-.84,2.66-1.92.9-1.21,2.68-2.58,4.21-2.74ZM111.81,56.47c-.65.06-1.75.97-2.04,1.54-.57,1.14-.49,2.83.73,3.5,1.41.77,3.19.76,4.24-.58,1.22-1.55.2-4.05-1.65-4.37-.23-.04-1.08-.12-1.28-.1ZM99.85,60.26c-2.19.32-3.47,2.92-1.92,4.63,2.85,3.13,7.92-2.04,4.02-4.22-.73-.41-1.24-.53-2.1-.4Z"/><path d="M64.86,111.61c.37.24-.3,1.86-.38,2.3-.05.3-.11.8-.12,1.11-.03.74.27,1.56-.1,2.16-.34.21-1.3-.67-1.71-.85-1.4-.62-2.85-.44-4.25.1-.28.11-.59.5-.84.29-.23-.36.83-2.19.98-2.71.21-.73.25-1.5.2-2.25-.04-.65-.49-1.62.05-2.1.64.68,1.62,1.32,2.53,1.56,1.21.33,2.42.21,3.64.4Z"/><path d="M147.86,55.63c.26-.26,1.97,1.02,2.32,1.21,1.17.64,2.49,1.19,3.85.85l.26.26c.16.55-.85.82-1.22,1.1-1.17.9-1.67,2.44-1.52,3.88.03.27.4.93.1,1.14s-1.97-.52-2.51-.57c-.85-.07-1.77.38-2.45.3-1.07-.12.42-1.29.61-1.53.96-1.19,1.69-3.62,1.2-5.09-.1-.29-.84-1.36-.64-1.56Z"/><path d="M184.38,157.02c.11.07.85,1.93,1.19,2.34,1.19,1.41,3.01,2.02,4.81,1.96.82-.03,1.57-.38.66.76-.52.66-1.17,1.21-1.66,1.92-.45.66-.68,1.44-1.16,2.02-.18.04-.2-.14-.26-.25-.8-1.5-1.16-2.13-2.69-3.04-.93-.55-1.86-.63-2.76-1.03-1.28-.57-.14-1.07.33-1.66.31-.39.66-1.06.83-1.53.1-.29.27-1.77.71-1.48Z"/><path d="M200.57,135.72c-.55-.9-1.6-1.6-2.65-1.8-1.1-.21-2.43-.27-3.54-.12-.52.07-1.06.47-1.55.2-.39-.3.4-1.45.46-1.91s-.18-1.94,0-2.15c.39-.47,1.15.25,1.55.41,1.31.55,3.54,1.22,4.91.71.35-.13,1.2-.9,1.38-.87.21.04.17.6.15.77-.1,1.31-.61,2.28-.51,3.78.03.39.47,1.05-.19.96Z"/><path d="M197.18,100.03c.06,1.5.16,2.73.9,4.06.17.31.94,1.02.53,1.32-.3.22-1.44-.51-1.85-.62-1.69-.47-3.66.26-5.09,1.16-.11.02-.36-.03-.42-.11-.09-.12-.22-1.53-.36-1.94s-.41-.91-.74-1.2c-.32-.61,1.82-.38,2.16-.4,1.04-.07,2.74-.47,3.53-1.18.44-.4.66-1.21,1.33-1.08Z"/><path d="M71.41,80.3c.11.07.77,1.95,1.05,2.37.42.62,1.74,1.66,2.46,1.84.65.16,1.97-.24,1.81.57-.86.28-1.76,1.47-1.91,2.34-.09.51.16,1.13-.28,1.46-1.15-1.52-2.7-3.11-4.63-3.55-.27-.06-.98.07-1.04-.29-.02-.12.86-.81,1.04-1.09.59-.91,1.14-2.57,1.11-3.65l.39.02Z"/><path d="M62.16,142.59c.7-.09,1.8-.58,2.4-.98.28-.19.96-.94,1.27-.85l1.5,3.57c-.47.19-.98.06-1.47.12-.99.12-2.01.72-2.86,1.23-.78.48-1.53,1.29-2.42,1.41v-1.79c0-.17-.34-1.5-.43-1.72-.15-.37-.5-.53-.39-.99.76-.07,1.67.09,2.4,0Z"/><path d="M163.91,178.92c.21.13,0,1.04.03,1.35.08,1.2.75,2.87,1.53,3.79.1.31,1.33,1.31,1.33,1.44s-.07.19-.17.25c-1.24.36-2.43.95-3.32,1.9l-.35.06c-.23-.06-.02-2.41-.06-2.82-.1-1.14-.84-2.52-1.38-3.53-.27-.5-1.1-1.2-.36-1.58.43-.22,1.21-.36,1.71-.54.27-.1.7-.53,1.04-.31Z"/><path d="M178.46,73.02c.44-.09.45.39.63.65.7,1.02.98,1.61,2.16,2.13.37.16,1.02.11.87.63-.12.42-.73.23-1.05.29-1.4.26-2.68.94-3.52,2.11-.21.29-.67,1.26-.79,1.36-.1.09-.15.14-.3.1-.6-.84-1.28-1.49-2.16-2.04-.26-.16-.96-.26-.86-.65.09-.36,1.32-.5,1.7-.66,1.28-.55,3.24-2.42,3.31-3.91Z"/><path d="M82.34,170.04c.06.07.09.14.12.22-1.36.89-2.67,1.47-3.37,3.05-.29.64-.39,1.28-.65,1.91-.3.06-.63-.61-.81-.82-.53-.6-1.33-1.59-1.9-2.09-.34-.3-1.3-.52-.46-.89,1.71-.74,2.75-.19,4.15-2.09.32-.43.48-1.47,1.1-1.2.27.12,1.56,1.57,1.83,1.9Z"/><path d="M106.42,192.72c-.9-.28-1.53-1.16-2.41-1.52-.52-.21-1.04-.22-1.57-.32-.09-.44.3-.37.55-.53,1.88-1.22,2.39-2.61,2.68-4.79.44-.82,2.91.55,3.1,1.29-.78,1.13-1.58,2.15-2.01,3.48-.28.87-.18,1.52-.33,2.38Z"/><path d="M135.79,188.42c-.04.6-.43,1.07-.5,1.7-.11.97.1,1.72.45,2.6.15.38,1.24,2.25,1.07,2.45-1.14.15-2.26.1-3.37.47-.23.08-1.24.79-1.21.23.02-.3.59-1.19.75-1.61.48-1.32.58-2.99-.17-4.22-.2-.33-.65-.46-.48-.98l3.47-.63Z"/><path d="M120.73,53.29c.07.91-.59,1.71-.69,2.61-.14,1.22.09,2.65.82,3.66.16.23.5.2.38.61-.08.28-.97.4-1.31.53-.31.12-1.63,1.1-1.64.41,0-.29.37-1.05.41-1.54.14-1.57-.14-3.1-1.39-4.14-.23-.19-1.65-.91-.62-1.03.93-.11,1.61.19,2.55-.32.49-.27.91-1.08,1.49-.79Z"/><path d="M93.52,61.98c.33,1.26.21,2.65.8,3.85.44.9,1.33,1.24,1.96,1.94.04.22-1.36.95-1.62,1.12-.18.11-.49.6-.72.17-.13-.24-.18-1.1-.36-1.56-.75-1.94-2.05-1.98-3.17-3.17-.86-.91.66-.91,1.32-1.24.35-.18,1.59-1.26,1.8-1.11Z"/><path d="M181.29,167.07c3.25-.56,2.9,5.11-.2,4.04-1.57-.54-1.8-3.69.2-4.04Z"/><path d="M170.04,177.29c.5-.04.99.36,1.25.75,1.13,1.65-1.1,4.02-2.44,2.54-.97-1.07-.3-3.18,1.19-3.29Z"/><path d="M65.97,149.88c1.04-.19,2.43.5,2.46,1.66.04,1.67-1.14,2.47-2.7,1.9-1.58-.58-1.24-3.29.23-3.56Z"/><path d="M74.47,162.98c2-.27,2.98,1.52,1.6,2.93-.78.8-1.72.78-2.64.2-1.31-.84-.43-2.93,1.03-3.13Z"/><path d="M141.9,188.86c1.2-.25,2.44.41,2.27,1.76-.26,2-4.23,2.8-3.77-.09.09-.57.93-1.55,1.5-1.67Z"/><path d="M157.85,184.98c1.06,1.06.13,3.07-1.24,3.24-1.68.21-2.6-.82-2.05-2.45.41-1.2,2.37-1.71,3.29-.79Z"/><path d="M195.31,138.11c2.21-.36,3.6,2.77.92,3.68-1.07.36-2.09-.11-2.22-1.3-.11-1.05.1-2.18,1.3-2.38Z"/><path d="M190.4,152.64c1.63-.32,2.23,1.99,1.26,2.9-1.17,1.11-3.08.83-2.95-1,.05-.76.95-1.76,1.69-1.9Z"/><path d="M86.94,175.47c.51.52.64,1.23.52,1.93-.29,1.72-2.66,1.85-3.48.45-1.33-2.27,1.11-4.26,2.95-2.39Z"/><path d="M98.92,183.54c.77-.13,1.22-.01,1.71.6.72.9.65,2.15-.3,2.85-.79.59-1.7.21-2.4-.36-1.23-1.01-.47-2.84.99-3.09Z"/><path d="M190.6,94.12c1.45-.3,3.08.92,2.07,2.38-.62.89-2.3.81-2.85-.12-.45-.77-.19-2.06.78-2.26Z"/><path d="M182.32,80.31c.91-.19,1.8.05,2.19.93,1.07,2.36-2.4,3.16-3.23,1.29-.4-.9.03-2.01,1.04-2.22Z"/><path d="M171.37,69.67c2.13-.37,2.74,2.32.84,2.99-2.47.87-3.13-2.6-.84-2.99Z"/><path d="M157.04,61.28c1.36-.28,2.56.64,2.38,2.08-.18,1.48-3.26,1.49-3.47-.32-.09-.72.35-1.6,1.09-1.76Z"/><path d="M62.8,103.74c2.52-.65,2.51,3.95-.02,3.55-1.74-.27-1.33-3.2.02-3.55Z"/><path d="M68.73,90.23c1.91-.44,2.62,2.43.77,2.82s-1.96-2.55-.77-2.82Z"/><path d="M196.74,122.97c1.73-.31,2.84,1.05,2.23,2.63-.5,1.29-1.88,1.24-2.86.51-1.08-.8-.46-2.95.64-3.15Z"/><path d="M195.82,109.26c1.59-.25,2.33,1.87,1.31,2.95-.56.59-2.5.37-2.69-.49-.21-.96.33-2.29,1.38-2.46Z"/><path d="M141.69,56.88c2.5-.43,2.92,2.35.81,3.16-3.05,1.18-3.08-2.78-.81-3.16Z"/><path d="M126.45,55.15c1.53-.19,2.65,1.38,1.71,2.63-.23.31-.96.84-1.35.9-2.68.46-3.12-3.18-.36-3.53Z"/><path d="M126.75,191.41c2.46-.51,2.4,3.21.18,3.25-1.85.04-1.68-2.94-.18-3.25Z"/><path d="M113.25,189.78c.95-.1,1.93.64,1.86,1.65-.08,1.23-1.06,1.67-2.19,1.49-1.56-.24-1.39-2.97.33-3.14Z"/><path d="M59.79,123.32c-.57-.51-.21-2.28.66-2.5,1.56-.41,2.51,1.83,1.15,2.68-.42.26-1.46.13-1.8-.18Z"/><path d="M62.79,137.75c-.78.82-2.94.62-2.94-.83,0-1.64,1.7-2.43,2.87-1.33.55.51.57,1.63.07,2.17Z"/><path d="M76.82,76.42c.81-.16,1.94.55,2.07,1.36.35,2.2-2.05,3.48-3.02,1.48-.3-.61-.3-.9-.12-1.56.14-.53.49-1.17,1.07-1.29Z"/><path d="M87.67,68.34c1.44-.08,1.39,2.13.07,2.32-1.8.27-1.56-2.24-.07-2.32Z"/><path d="M113.65,57.92c.59.56.45,1.84-.17,2.37-1.28,1.1-3.29-.07-2.5-1.78.45-.97,1.93-1.28,2.67-.59Z"/><path d="M100.26,61.08c3.3-.33,2.31,3.86-.12,3.82-2.22-.04-2.72-3.54.12-3.82Z"/><path d="M119.3,92.73c-.2.13-.35.51-.61.54l-1.52-.38c-.31-.3,0-.62.24-.86,1.57-1.45,5.56-3.14,7.66-3.57.77-.16,1.52-.11,2.24-.23,1.02-.16,1.85-.61,3.01-.74,8.6-.95,16.61-.03,23.57,5.52.52.42.89.97,1.36,1.38,1.24,1.06,2.49,1.83,3.71,3.02,1.93,1.88,5.23,5.8,6.21,8.25.97,2.44,2.11,5.76,2.78,8.29,1.04,3.95.63,8.21.29,12.22-.41,4.91-1.52,9.54-4.01,13.85-.22.38-1.12,1.72-1.41,1.94-.35.26-1.08.23-1.42-.05-.15-.33.68-1.38.86-1.75,1.87-3.78,3.86-9.42,4.38-13.58.19-1.56-.17-1.33-.44-2.44-.11-.44.11-1.89.07-2.53-.26-3.86-1.86-10.55-3.43-14.09-.77-1.73-4.25-4.81-5.74-6.25-2.53-2.44-4.97-4.9-8.09-6.6-6.01-3.28-10.94-4.09-17.73-4.41-3.43-.16-9.08.51-11.97,2.47Z"/><path d="M101.35,109.54c-.77-1.38,1.24-3.47,1.94-4.52.87-1.29,2.67-4.6,3.91-5.27,2.14-1.17,7.43-1.03,9.37.4.76.56,1.54,1.73,1.76,2.65s.19,3.04-.24,3.81c-.66,1.17-4.94,4.16-6.27,4.47-1.94.46-5.07.08-7.05-.16-.56-.07-1.82-.18-2.28-.32-.36-.11-.96-.74-1.14-1.06ZM110.73,103.01c-3.46-.18-4.51,4.96-.82,5.4.52.06,1.54.03,2.01-.19.81-.38,1.56-1.82,1.34-2.71-.3-1.19-1.22-2.44-2.53-2.5Z"/><path d="M125.06,99.66c.22-.02.74.41.72.68-.06.34-1.87.89-1.82,1.67.02.28.56,1.04.44,1.3-1.01.58-1.35,1.8-2.14,2.51-.84.76-1.6-.86-1.32-1.53.1-.24.41-.48.46-.7.11-.53-.37-1.25.02-1.99.5-.94,2.74-1.47,3.64-1.95Z"/><path d="M118.47,131.11h1.19s.51-1,.51-1l.35.18c.07.34-.23.71-.25.98-.02.32.45,1.24.53,1.69.25,1.38-.2,2.05-.85,3.19-.88-.6-.1-1.82-.16-2.67-.01-.14-.52-1.43-.59-1.48-.17-.13-.46-.15-.67-.16-.12.53-.65.65-.99.99-.19.2-.77,1.18-.9,1.19-.45-.32-.64-.82-.51-1.36.08-.34.4-.59.45-.83.07-.33-.12-.76.03-1.22.11-.35.42-.38.52-.63.09-.23.03-1.3.18-1.41.18-.01.18.11.27.2.45.5.62,1.69.9,2.34Z"/><path d="M129.85,127.62c-.27.09-1.02-.41-1.26-.6-1.28-.98-4.12-4.09-4.8-5.53-.13-.28-.32-.59-.24-.91.56.37.91.96,1.4,1.4,1,.89,2.41,1.69,3.45,2.6.63.55,2.05,1.75,1.73,2.65-.03.07-.25.37-.29.39Z"/><path d="M138.24,130.04c.23.39-.05,1.69.09,2.29.07.29.49,1.24.65,1.52.47.83,1.24,1.29.87,2.45-.97-.33-1.43-1.41-2.51-1.47-.42-.02-.99.31-1.14-.35-.17-.78,1.05-2.02,1.34-2.85.2-.58.15-1.23.46-1.77.01,0,.22.14.24.17Z"/><path d="M111.58,130.4l-.26.09c-.07-.09-.25-.19-.29-.28-.14-.3.21-2.95.42-3.24.43-.62,2.44-.5,3.12-.7.29-.09,1.23-.85,1.16-.19-.06.52-.67.85-.88,1.21-.09.16-.08.36-.16.51-.37.69-2.73.6-2.81,1.03l-.29,1.57Z"/><path d="M141.12,124.88c1.07-.02.71.96.16,1.48-.98.92-3.01.99-4.25.69-.44-.1-.97-.25-.7-.77.19-.37,1.52-.04,2.03-.16.78-.18,1.9-1.22,2.75-1.23Z"/><path d="M123.08,131.37c-.44.89.09,1.96.23,2.88.03.24.19,1.48.16,1.59-.08.31-1.05,1.13-1.36,1.03-.33-.12.38-.75.38-.95-.08-.96-.92-3.09-.73-3.94.1-.46.91-.95,1.32-.61Z"/><path d="M109.49,114.1c-.08.07-.25.07-.36.16-.81.71-1.46,1.52-1.84,2.55,0,.11-.2.04-.25.01-.46-.3.19-1.66.22-2.12l-.12-.17-.52-.16v-.36s3.08-.64,3.08-.64c.24.2-.04.58-.22.74Z"/><path d="M119.49,96.18c.15,0,.37.41.45.54.73,1.16,1.31,2.67,1.91,3.89-.52.59-.84-.4-1.04-.81-.54-1.08-.92-2.29-1.43-3.39-.14-.11.02-.24.1-.24Z"/><path d="M114.6,131.67c-.04.11-.52.77-.6.75l-.38-.44c.34-.62.32-1.34.4-2.03.19-.35.92-.11.88.14-.08.45-.15,1.18-.29,1.57Z"/><path d="M94.3,143.09l.47.19c.07-.45.53-.5.91-.55l-.06-.56c.06-.36.77-.39,1.06-.46v1.76s-.76.25-.76.25c-.24.53-.03.83.53.89.03-1.13.98-.88,1.75-1.2-.02.68-.39,1.04-.78,1.52.25.43.75.53,1.2.59-.03.53.13.8-.48.97.8.55,1.87.77,2.44,1.67.15.23.17.55.33.71.46.48,1.6.35,1.52,1.31-1.05-.12-1.86-.86-2.78-1.3s-1.88-.67-2.76-1.1c-1.38-.67-3.19-2.01-4.4-2.98-.38-.3-.75-.97-.75-1.45-.01-.8,1.42-1.65,1.77-2.37.12-.26,0-.45.14-.65.36-.52,1.24-.33,1.77-.49-.11.33.05.71-.11,1.02-.14.27-.61.24-.69.5s.1.69.02,1.02c-.07.27-.32.41-.34.7Z"/><path d="M106.79,145.19c.07-.08.05-.26.09-.37.5.06.6.67.58,1.1-.01.32-.51,2.56-.61,2.66-.34.1-.68.04-1.03.12-.68.15-2.4,1.39-2.79.36-.22-.58.57-1.65.65-2.33.06-.49-.45-1.36-.33-2.1.07-.44.7-1.67.95-.82.11.38-.18,1.4.1,1.56.26.15,2.23,0,2.39-.17Z"/><path d="M101.7,141.52c0,.24-.07.61-.03.83.07.34.4.36.22.87-.1.27-.81.86-1.1.77-.76-.22-.05-.94.02-1.21.04-.15-.15-.35-.03-.67.11-.3.65-.48.92-.6Z"/><path d="M140.35,102.2c.26.38-.15,1.56-.4,1.91-.09.13-.17.15-.33.14-1.03-.67-2.35-1.17-3.35-1.86-.42-.29-.75-.55-.25-1.02,1.26.53,2.53.25,3.84.61.15.04.4.09.49.22Z"/><path d="M137.24,117.87c.76-.08,1.66.47,1.73,1.26.09.94-1.13,2.11-2.08,1.6-.22-.12-.83-.82-.85-1.05-.05-.44.7-1.77,1.2-1.82Z"/><path d="M110.46,104.48c1.32.02,1.65.83,1.29,1.99-.09.3-.19.42-.48.55-2.37,1.12-2.99-2.58-.81-2.55Z"/><path d="M173.72,118.98c.08-1.61-.46-2.93-.71-4.48-.32-2-.21-4.19-.68-6.13-.73-3.03-2.95-5.36-4.57-7.91-.52-.81-.75-1.83-1.18-2.7-1.71-3.44-7.64-9.87-11.12-11.47-3.89-1.79-7.91-2.95-12.17-3.46-1.46-.17-2.98-.01-4.45-.12-4.89-.33-10.83-1.73-15.59-.73-2.61.55-6.89,3.45-8.88,5.29-1.78,1.65-3.94,5.42-5.85,6.32-1.1.52-.97.47-1.94,1.17-.79.58-1.93,1.04-2.63,1.66-2.07,1.83-2.45,3.63-3.89,5.81-.91,1.37-2.73,3.05-3.33,4.38-.42.93-.08,1.93-.02,2.9.03.48-.09,1.06-.03,1.56.05.44.54,1.3.19,1.58-.51.41-.99.2-1.6,1.04-1.74,2.38-2.02,6.27-.53,8.83.5.85,1.38,1.75,2.39,1.91-.27,1.75-1.83,2.65-2.56,4.2-.63,1.35-.94,2.85-1.47,4.22-.36.93-.49,1.26-1.32,1.82-3.7,2.47-7.98,4.45-11.7,6.92-.54.36-1.73,1.2-2.09,1.69-.88,1.2-.42,2.33.37,3.42-1.34.85-.22,2.14,1.03,1.61.26-.11,1.94-1.19,2.13-1.38.39-.39.53-.65.11-1.09-.59-.61-1.18-.21-1.76.18-.44-.6-.35-1.22.12-1.55,3.04-2.15,6.25-3.78,9.22-5.29.11-.06.16-.17.32-.09-.97,2.17-3.1,4.72-2.14,7.25.99,2.59,3.11,3.26,5.18,4.66,2.36,1.6,4.57,3.47,7.02,4.95,5.15,3.11,10.68,4.95,16.43,6.62,4.22,1.23,8.51,2.52,12.9,2.69.52.02,1.57-.27,2.03-.53l3.98-2.94c1.64-.53,3.21.13,4.83.29,1.64.17,5.16-.11,6.76-.51,5.36-1.35,10.28-6.37,14.16-10.19,3.13-3.08,6.22-6.36,8.41-10.2,2.05-3.6,3.71-9.56,3.84-13.69.03-1.12-.17-2.37-.05-3.48.17-1.68.72-3.31.81-5.01ZM97.7,128.29c.1-.14.03-.24.28-.15-.19.39-.55,1.04-.84,1.34-.11.12-.17.24-.36.17.3-.45.6-.91.91-1.35ZM104.07,127.34c-.09.15-1.01.68-1.15.49.08-.2-.08-.44-.08-.6.02-.47,1.43-.99,1.32-1.71l.39.07c-.11.29-.34.33-.44.68-.09.31.02.95-.04,1.06ZM102.22,127.13c-.06.14-.82.56-.93.51-.11-.17-.31-.5-.23-.68.03-.06.92-.74,1.06-.84.11-.08.16-.16.32-.09,0,.2-.22.33-.25.51-.03.18.12.4.04.6ZM102.26,128.71c-.44.28-.98.61-1.25.77-.34.2-.97.54-1.64.89l.79-1.33c.98-.65,1.48-.49,2.1-.32ZM100.86,126.84l-.92.04c.02-.71.72-1.25,1.37-1.37l-.45,1.33ZM100.25,127.95l-1.1.96-1.68,1.98c.04-.2.05-.42.14-.61.05-.11,1.32-1.86,1.41-1.94.3-.27.83-.43,1.23-.39ZM95.54,131.45l.78.14c.1.33-1,1.06-1.08.92l.3-1.06ZM79.85,143.4c-.68.6-1.09.98-.85,1.94.12.47.45,1.15.99,1.2.18.02.35-.13.48-.06-.07.32-1.82,1.51-1.97,1.31l.51-.65c-.58-1.11-1.27-2.14-.48-3.36.55-.85,3.21-2.17,4.18-2.78,4.83-3.02,9.74-5.88,14.66-8.74h0s.05-.03.08-.05c.43-.25.85-.49,1.28-.74h0c1.33-.78,2.65-1.55,3.98-2.33h0c.26-.15.51-.3.77-.45,9.21-5.43,18.4-10.9,27.66-16.24.38.23.61.7.12.94-.22.1-.34-.1-.57-.1-.35,0-3.16,1.68-3.7,1.99-8.16,4.69-16.21,9.58-24.25,14.47h0c-1.3.79-2.61,1.58-3.91,2.37h0c-6.29,3.81-12.59,7.61-18.96,11.27ZM129.86,105.21l-.73-12.37c.13-.38,4.38-.57,5-.54l-.67,12.67c-.45-.03-.99-.25-1.42-.26-.67-.02-1.51.43-2.18.51ZM116.29,136.87c.04-.09.87-.46,1.06-.57.16-.1.7-.73.86-.56l.21,2.03-1.01,2.32c-.46.25-1.89.02-1.92-.56,0-.14.68-1.95.79-2.3.04-.12,0-.24.02-.36ZM122.2,143.28l-1.18-.22c.27-.5.66-.88.85-1.44.11-.32.22-1.29.35-1.48.08-.11.87-.64.96-.54-.02.3.29.49.25.8-.13.91-1.08,1.94-1.23,2.87ZM123.5,145.05c-.04.24-.08.49-.15.72-.85,2.89-1.95.21-.56-1.05l.7.33ZM121.48,144.17c-.14.31-1.48,1.78-1.78,1.91-.13.05-.22.09-.36.03-.29-.29.78-1.3.95-1.67.13-.29.19-.54.23-.85l.96.33c.12.12.06.15,0,.26ZM120.05,142.28c-.44-.37-.95-.58-1.49-.73l.84-2.83c.51.01,1.03-.22,1.36-.57.26.04.61,1.26.58,1.48-.12.8-1.17,1.81-1.29,2.66ZM119.51,142.99c.05.08-.68.79-.79.9-.59.56-1.45,1.27-2.31,1.15l-.29-.69c.33-.48.67-2.39,1.44-2.21.53.12,1.33.76,1.95.85ZM116.06,141.34c.09.16-1.63,2.68-2.29,2.47-.09-.19-.35-.41-.37-.6-.04-.32.08-1.99.24-2.22.14-.2.73-.37.98-.34.43.06.93.65,1.45.68ZM113.81,138.38c-.5.33-1.79-.31-2.25-.63-.06-.16.93-2.33,1.11-2.52.28-.28,2.15-.74,2.38-.53.09.08.12.32.11.44-.02.54-.93,2.96-1.36,3.24ZM98.26,133.77c-.03,1.23-.62,1.86-1.54,2.56-.27-.32-.32-1.24-.15-1.58.09-.17,1.42-.82,1.69-.98ZM99.2,133.6c.05-.11,1.53-.05,1.68.17.06.13.08.29.05.44-.18.91-.81,1.99-.95,2.95l-.91.3-.48-1.56.62-2.31ZM99.97,132.7c-.09-.03-.26-.1-.44-.18.22-.2.43-.39.56-.48.46-.34,1.37-.8,2.06-1.18-.3.46-.65.96-.78,1.16-.46.67-.55.97-1.39.68ZM101.8,134.95l1.92.6c.32.32-.6,2.2-.9,2.57l-1.56.27c-.57-1.16.29-2.29.53-3.44ZM104.24,136.62l.68-.18c.36.31,1.36.42,1.62.73.65.75-.5,1.73-1.12,2.1-.94.55-1.07.27-1.87-.34.2-.77.79-1.47.69-2.3ZM108.3,138.09l1.66.54c.32.88-.48,1.45-1.16,1.81-.9.48-1.77.76-2.13-.47.54-.3,1.07-1.84,1.63-1.88ZM110.17,141.43c.19-.26.46-.59.6-.88.13-.27.34-1.09.47-1.18.4-.29,1.21.58,1.72.58-.52,1.33-1.58,2.46-3.13,2.15-.17-.42.15-.42.33-.67ZM112.12,134.05c-.08.3-.89,1.76-1.1,2.15-.39.71-.45,1.02-1.32.82-.32-.07-1.66-.46-1.47-.88l1.3-2.79c.83-.17,1.64-.54,2.5-.46,0,.38.19.8.09,1.17ZM108.85,132.53l-1.8,3.07c-.12.05-1.98-.67-2.23-.8-.11-.06-.18.04-.11-.17.42-.48.98-2.18,1.37-2.5.3-.24,2.11-.52,2.46-.41.3.1.4.54.31.81ZM103.61,133.84c-.2.08-1.58-.42-1.66-.59-.08-.18.61-1.63.76-1.9.17-.31.24-.5.6-.62.19-.06,1.76-.17,1.87-.13.11.05.11.16.11.26,0,.74-1.32,2.26-1.69,2.97ZM142.77,147.96c-.12.43-1.78,2.82-2.16,3.34-1.8,2.5-4.64,5.14-6.96,7.19-.36.32-1.66,1.4-2.01,1.57-.16.08-2.16.42-2.44.44-1.77.13-3.39.29-5.15-.02-2.9-.51-5.79-1.45-8.61-2.31-5.96-1.8-11.51-3.56-16.92-6.71-1.23-.72-3.82-2.24-4.81-3.12-.45-.4-.81-1.02-1.25-1.46-.41-.42-2.62-2.05-2.53-2.51.06-.33.71-1.52.91-1.91,1.08-2.09,2.4-4.07,3.33-6.25.18-.24,1.39-.78,1.58-.68.22.45.42,1.23.71,1.62.51.67,1.07.48,1.72.15.3,1.46,1.04,1.92,2.35,1.04.1.02.44,1.55.91,1.69.42.12,1.3-.35,1.77-.29l1.46,1.37,1.45-.62c.13.02.77,1.64,1.13,1.88.32.21,1.41-.03,1.76-.23-.09.84.93,1.49,1.68,1.5.81.02,1.31-.6,1.97-.93-.43,1.26.87,2.72,2.17,2.21.17-.07.43-.33.56-.28.58.63.59,1.47,1.4,1.87.89.44,1.2-.19,2.03-.33.04.58.95,1.61,1.56,1.46.14-.04.68-.57.79-.41l-.25.46c.56.84,1.38.96,2.33.89.19-.01.41-.18.59-.14.17.04.27.28.46.37.33.15.65.01.85.1.39.16.7.49,1.32.64,3.29.77,4.21-1.87,6.06-3.79.54-.56,1.26-1.37,2.11-1.1.04.72-.26,1.4-.62,2.01-.26.43-2.32,3.12-2.6,3.32-.29.2-.65.08-.72.59-.1.75.67.71,1.19.47,1.63-.76,2.3-2.06,3.54-2.95.21-.15.7-.49.9-.19.31.48-.69,1.64-.99,2.05-1.28,1.75-2.91,3.28-4.78,4.39-1.33.79-2.43,1.13-3.9,1.56-.31.09-.9.41-1.16.43-1.02.04-2.79-.57-3.93-.6-.48-.01-.98.35-1.59.31-.58-.04-3.75-.83-3.95-.63-.23.7.7.54,1.07.73.13.07.16.27.36.35.58.23,1.57.17,2.16.4.26.1.32.41.52.59.65.57,1.96.47,2.82.63,1.61.32,3.24.84,4.89,1.02,2.39.25,5.59-2.2,7.03-3.98.56-.7.94-1.58,1.49-2.2,1.33-1.5,4.03-2.04,4.22-4.3.18-2.23-2.34-1.87-2.98-3.26-.35-.76-.7-2.89.73-2.39.89.31.93,2.43,2.62,2.92.63.18,1.23.06,1.83.28.06.06.04,1.54-.02,1.73ZM127.15,143.82c-.35,1-1.02,1.89-2.13,1.2l1.45-3.18c.77.63,1.04.94.68,1.98ZM127.05,141.23l1.23-2.75c2.4-1.77,1.36,2.99-.04,3.05-.41.02-.81-.16-1.19-.3ZM125.82,146.24c-.12.68-.68,1.07-1.33,1.12l.26-1.42.27-.11c.2.12.47.15.67.23.14.06.17-.05.12.17ZM126.91,139.1c-.13.45-.55.72-.79,1.11l-1.34-.32c-.34-.36.95-1.93,1.11-2.39.15-.43.02-.79.14-1.17.09-.29.48.09.57.21.28.38.46,2.08.32,2.56ZM124.98,140.86c.53-.03.74.9.68,1.29-.03.2-.79,1.91-.91,2.05-.21.25-1.04.31-.97-.16.03-.2.45-.73.57-1.04.12-.31.51-2.07.63-2.14ZM170.01,124.79c-.19,3.02-.92,7.33-2.01,10.13-.9,2.31-2.08,5.57-3.64,7.41-1.7,1.99-3.94,3.56-5.87,5.29-.79.71-1.36,1.55-2.11,2.29-1.36,1.34-4.19,4.06-5.7,5.05-1.12.74-4.7,1.36-6.06,1.28-.34-.02-.67-.09-1.01-.16.53-1.1,1.87-1.56,2.84-2.16,1.34-.83,4.21-2.38,5.22-3.38,1.02-1.01.11-1.3.28-2.2.12-.63,1.08-1.43,1.56-1.84,3.58-3.03,7.48-6.69,9.33-11.1.42-1,.73-2.05,1.15-3.06.88-2.09,1.91-3.63,2.08-6.05.02-.28-.08-1.88-.4-1.86-.24.01-1.01,2.38-1.54,2.56,0-.19.17-.33.2-.52.14-.97.25-2.7.27-3.7,0-.47-.13-1.89-.39-2.21-.06-.07-1.29-1.08-1.37-1.12-.17-.09-.14.01-.17.12-.22.67-.12,1.66-.37,2.46-.5,1.63-2.74,5.82-3.86,7.09-.36.4-1.13,1.29-1,.11.03-.26.18-.42.2-.64.14-1.18.4-2.84.42-3.98.03-1.48-.54-2.13-1.79-1-.43-.39-.88-.64-1.47-.65-1.09-.03-1.67,1.49-2.47-.23-.5-1.06-1.15-4.32-2.15-4.77-.94-.42-1.4.18-1.7,1.04-.14.38-.11.8-.31,1.17-.14.27-.45.4-.65.67-1,1.29-.79,3.48-1.95,4.65-1.43,1.44-2.17,1.83-2.81,4.02-.25.84-.51,3.06.04,3.8.36.49.92.47,1.35.7.3.16.67.71,1,.94.36.24.8.33,1.14.59.83.63,1.68,2.33,1.69,3.38.03,2.35-.55,3.87-2.61,5.11-.67.4-1.16.09-1.82-.19-2.06-.88-2.85-1.98-4.49-3.25-1.1-.85-3.14-1.83-3.89-2.9-.2-.29-.26-.64-.44-.9-1.03-1.44-3.97-.7-5.53-1.25-.39-.14-1.87-1.14-1.88-1.53,0-.17.37-.39.1-.5-.09-.04-.62,0-.74.04-.73.22-.52.95-.62,1.53-.46-.26-.53-1.05-.33-1.48-.51-.26-1.21.09-1.45.57-.29.56.53,1.83.49,2.44-.02.26-.14.94-.22,1.17-.16.41-1.06.96-.92,1.71-.58-.91-1-.56-1.84-.49-.63-1.33-.78-2.24-2.51-1.55-.14-.04-.52-2.13-1.1-2.41-.45-.21-1.81.55-2.26.78-.44-1.18,0-2.7-1.81-2.38-.55.1-.93.46-1.46.56.03-.47-.21-2.08-.67-2.24-.55-.19-1.95.42-2.45.74-.13-.02-.28-1.52-.81-1.67-.23-.07-1.23.09-1.52.15-.44.09-.83.24-1.26.35.01-.64-.11-1.32-.46-1.88,0-.07,1.03-.74,1.1-.74.29-.01.19,1.02.78.95.05-.17.04-.38.1-.54.12-.29,1.72-1.27,2.15-1.18l-.24-.82,3.75-2.35c.76-.22,1.66.4,2.58-.11.29-.16.81-.68.96-.97.25-.45.23-1.04.46-1.32.3-.36,1.18-.65,1.56-.97.3.02.05.25,0,.37-.15.34.43-.06.54-.09.32-.1.99-.16,1.19-.26.46-.25.48-1.12.73-1.52l3.84-2.3c.16,0,.57,1.07.72,1.3,1.09,1.66,4.23,3.02,6.04,3.82,2.09.93,4.47,2.03,6.83,1.79.47-.05,2.35-.59,2.66-.87.59-.52.75-1.05,1.14-1.58.22-.3,3.25-1.21,3.85-1.38.57-.17,1.03.01,1.32-.63-.19-.22-4.08,1.09-4.68,1.16.61-1.55.79-3.21,1.19-4.81.33-1.32,1.09-3.22,1.76-4.41.6-1.05,3.47-3.19,4.54-4.24,1.93-1.89,3.7-3.95,5.5-5.96,3.87,4,6.66,9,8.17,14.36l-.21.19c-2.74.59-5.39,1.52-8.11,2.16-1.31.31-2.68.41-3.95.86l.35.52c4.11-.66,8.03-2.16,12.06-3.16l.69,6.05c.03.22.24.22.44.25.14-2.52-.31-4.92-.99-7.33-4.75-16.57-20.47-26.96-37.71-23.21-.93.2-6.45,1.68-6.74,2.29-.07.16-.05.24.09.35.49.25,3.41-.91,4.1-1.11.93-.27,1.93-.59,2.86-.82.28-.07,1.67-.42,1.81-.28-.04,4.22.5,8.41.59,12.63-1.08.93-2.32,1.69-3.11,2.94l-2.19-4.06-.28.22c-.07.16,0,.3.06.44.27.65.84,1.44,1.17,2.11.15.3.86,1.61.87,1.81.01.24-.74,1.53-.87,2.04-.21.81-.38,2-.37,2.83,0,.38.26,1.14.05,1.42l-3.45,1.9c.16-.81.17-1.89.02-2.71-.07-.37-.15-.71-.59-.73-1.01,1.29-1.08,2.99-1.28,4.56l-1.59,1c.52-2.52.99-5.09.31-7.63-.55-2.06-1.08-2.64-2.94-1.23-1.39,1.05-3.27,2.8-4.49,4.06-.57.59-2.56,2.74-2.83,3.37-.28.65.02,1.04-.11,1.44-.13.4-.7.44-.72,1.19-.01.35.21.48.29.75.2.76.14,1.23.87,1.8,1.09.84,1.91-.09,3.13.03-.2.2-.46.38-.71.53-.97.61-2.48,1.57-3.48,2.04-.12.06-.34.21-.41.03.03-.43-.18-.8-.23-1.22-.09-.88.22-1.95-.59-2.59-.53.34.19,1.32-.41,1.64-.23.12-.99.26-1.25.2-.41-.1-.49-.75-1.03-.7-.23.4-.33.95-.79,1.16-.6-.33-.03-.66.17-1.01.19-.33-.13-.33-.39-.2-.23.11-1.66,1.1-1.73,1.23-.21.41-.18,1.25-.35,1.74-.1.29-.43.65-.48,1.01l-.8.23c-.43-.8.49-1.8.99-2.42.85-1.08,1.9-2.03,2.72-3.15.3-.41,1.31-1.7.31-1.8-.32-.03-.64.15-1.04.11-1.06-.09-2.11-.69-3.21-.8-.48-.05-.78,0-.62.6.06.22.37.29.46.41.09.14.08.53.3.69-.43.21-.85.44-1.3.6-.32.12-1.58.58-1.75.21-.03-.07.09-1.24.12-1.45.15-1.09.59-2.43,1.09-3.41.72-1.42,3.11-1.45,4.54-1.75.74-.15,1.43-.49,2.22-.45-.19-.84-.36-1.47-1.17-1.89-1.21-.62-2.53-.12-3.79-.39-.11-.12-.62-2.87-.61-3.19.03-1.44,1.96-3.2,2.81-4.35.47-.63,1.09-1.53,1.49-2.2.42-.73.68-1.6,1.11-2.25.12-.19,1.58-1.9,1.69-1.97.59-.38,2.02-.45,2.78-.75.59-.23,1.31-.85,1.81-.99.38-.11.96-.05,1.37-.13.92-.17,1.9-.58,2.83-.49,1.57.14,2.95.37,4.57.16.32-.04.64-.14.94-.26-.08-.58-.35-1.47-.8-1.86-.48-.41-2.39-.71-3.09-.8-.9-.11-1.88.08-2.74-.25,1.21-1.5,2.44-3.02,3.94-4.24,3.59-2.95,6.51-4.16,11.29-3.65,3.23.34,6.52.78,9.78.88.96.03,2.08-.22,2.99-.14,3.17.27,8.25,1.7,11.22,2.91,4.03,1.65,8.24,5.88,10.84,9.34,1.39,1.85,1.86,3.1,2.83,5.08,1.38,2.81,5.08,5.99,5.06,9.29-.01,3.14-.96,6.19-.88,9.34.03.96.27,2.09.21,3.03ZM151.11,100.03c-1.27,2.37-2.48,4.82-3.7,7.21-.66,1.3-1.27,3.1-2.03,4.27-.27.42-.76.82-1.15,1.13-.28-1.51-.98-2.9-2.35-3.7-.07-.18.97-2.13,1.15-2.47,1.27-2.38,2.72-4.66,3.98-7.05.23-.44,1.45-3.2,1.73-3.19l3.31,2.12c.07.18-.77,1.37-.93,1.67ZM152.3,98.71c.19-.09,1.85,1.41,2.12,1.67.21.19,1.25,1.12,1.18,1.31-2.99,2.94-5.66,6.23-9.03,8.75,1.04-2.63,2.46-5.09,3.72-7.62.68-1.37,1.22-2.81,2.01-4.11ZM141.43,108.57c-1.07-.36-1.93-1.13-2.93-1.63-.56-.28-4.28-1.6-4.37-1.81l.45-12.8c.64-.06,1.27-.12,1.91-.09,2.69.15,5.99,1.09,8.49,2.12.43.18,3.43,1.54,3.43,1.76l-6.98,12.46ZM139.2,121.59c-1.97,1.98-5.11-.49-4.53-2.85.3-1.23,1.39-2.46,2.75-2.36,2.56.2,3.67,3.32,1.78,5.21Z"/><path d="M241.22,102.71c0,2.95-.98,5.43-2.94,7.44-1.96,2.01-4.42,3.02-7.37,3.02-1.25,0-2.42-.29-3.49-.86v3.53c0,.91.31,1.59.94,2.04.63.44,1.41.61,2.35.51v2.78c-.71.23-1.5.35-2.39.35-1.78,0-3.16-.63-4.15-1.88-1.28,1.25-3.06,1.88-5.33,1.88-.47,0-.94-.04-1.41-.12v-2.55c.84,0,1.54-.24,2.12-.72s.86-1.13.86-1.94v-17.12c0-.94-.24-1.71-.71-2.31-.55-.68-1.28-1-2.2-.98v-3.13c.47-.08,1.03-.12,1.69-.12,2.32,0,4.02.67,5.09,2,2.14-1.54,4.34-2.31,6.58-2.31,2.98,0,5.45,1.01,7.41,3.02,1.96,2.01,2.94,4.51,2.94,7.48ZM222.69,114.03v-13.17c0-2.17-.42-3.67-1.25-4.51.34.55.51,1.65.51,3.29v13.71c0,2.09-.26,3.41-.78,3.96,1.02-.34,1.53-1.44,1.53-3.29ZM234.6,101.93c0-.57-.03-1.08-.08-1.53-.11-.94-.47-1.89-1.1-2.86-.74-1.18-1.54-1.76-2.4-1.76-1,0-1.88.35-2.64,1.04-.76.69-1.14,1.52-1.14,2.49v9.09c.63.34,1.35.51,2.16.51,1.8,0,3.16-.76,4.07-2.27.76-1.23,1.14-2.79,1.14-4.7ZM237.19,101.94c0-2.09-.82-4.07-2.47-5.93,1.07,1.89,1.61,4.02,1.61,6.41s-.73,4.6-2.2,6.48c.89-.84,1.62-1.91,2.2-3.2.57-1.3.86-2.55.86-3.75Z"/><path d="M269.63,112.23c0,2.79-1.15,5.11-3.45,6.93-2.14,1.72-4.64,2.59-7.48,2.59-1.28,0-2.71-.33-4.29-.98-1.58-.65-2.32-.98-2.21-.98-.42,0-.57.38-.47,1.14h-2.98l-.43-10.34,2.78-.2c.47,1.62,1.48,3.28,3.02,4.98,1.72,1.91,3.32,2.86,4.78,2.86,1.15,0,2.15-.39,3.02-1.17.86-.78,1.29-1.75,1.29-2.9,0-1.93-1.32-3.28-3.96-4.04-4.83-1.38-7.3-2.1-7.4-2.16-2.64-1.36-3.96-3.71-3.96-7.05,0-2.64.99-4.78,2.98-6.43,1.86-1.54,4.14-2.31,6.86-2.31,2.51,0,5.08.71,7.72,2.12l.43-1.41,2.23.31.43,9.33-2.35.2c-1.12-4.96-3.38-7.45-6.78-7.45-1.2,0-2.23.47-3.09,1.41-.86.94-1.29,2.02-1.29,3.25,0,.97.79,1.75,2.39,2.35,1.67.47,3.34.94,5.02,1.41,2.12.63,3.59,1.37,4.43,2.23,1.86,1.91,2.78,4.01,2.78,6.31ZM265.2,112.9c0-3.03-2.72-4.94-8.15-5.72-1.93-.29-3.54-1.07-4.82-2.35-1.38-1.33-2.09-2.95-2.12-4.86-.11.55-.16,1.07-.16,1.57,0,1.8.65,3.25,1.96,4.35.96.84,2.43,1.53,4.39,2.08,1.59.39,3.19.78,4.78,1.18.84.24,1.63.92,2.39,2.06.76,1.14,1.14,2.15,1.14,3.04,0,.42-.05.84-.16,1.25.5-.89.75-1.75.75-2.59Z"/><path d="M303.72,92.52v3.13c-.91.03-1.89.45-2.93,1.26-.86.68-1.59,1.47-2.19,2.36l-6.13,9.41v7.21c0,.74.34,1.35,1.02,1.85.68.5,1.45.72,2.31.67v2.6c-.79.25-1.65.38-2.59.38-1.99,0-3.36-.72-4.12-2.16-1.2,1.44-2.85,2.16-4.94,2.16-.78,0-1.58-.13-2.39-.39v-2.59h.16c.86,0,1.59-.22,2.17-.65s.88-1.07.88-1.9v-6.59l-6.15-10.2c-.81-1.33-1.25-2.07-1.33-2.2-.68-.86-1.37-1.3-2.08-1.3h-.47v-2.95c.76-.18,1.61-.27,2.55-.27,2.27,0,3.79.65,4.54,1.96.84-1.31,2.31-1.96,4.43-1.96.55,0,1.12.05,1.72.16l-.04,3.05c-.42-.21-.78-.31-1.1-.31-.76,0-1.14.28-1.14.83,0,.4.67,1.71,2,3.93.86,1.32,1.71,2.66,2.55,4.01.81-1.1,1.63-2.21,2.47-3.33,1.25-1.83,1.88-3.12,1.88-3.88,0-1.07-.9-1.51-2.7-1.33v-2.82c.75-.13,1.57-.2,2.45-.2,2.18,0,3.52.55,4.01,1.65,1.38-1.15,2.92-1.7,4.63-1.65l.51.04ZM287.5,115.2v-7l-6.19-10.54c-.26-.45-.67-.93-1.21-1.46-.63-.58-1.15-.89-1.57-.94.6.24,2.01,2.29,4.23,6.17,1.33,2.36,2.66,4.73,4,7.12.05,1.47.08,2.52.08,3.15,0,3.59-.34,5.61-1.02,6.05,1.12-.45,1.69-1.3,1.69-2.56Z"/><path d="M330.52,112.39c-.31,2.59-1.55,4.8-3.72,6.64s-4.56,2.76-7.17,2.76c-3.87,0-6.94-1.44-9.21-4.31-2.14-2.64-3.21-5.96-3.21-9.95s.94-7.68,2.82-10.5c2.17-3.24,5.24-4.86,9.21-4.86,2.2,0,4.43.64,6.7,1.92l.74-1.29,2.39.16v9.56h-2.31c-1.07-4.68-3.13-7.01-6.19-7.01-2.27,0-3.98,1.36-5.13,4.08-.89,2.04-1.33,4.36-1.33,6.97s.46,5.11,1.37,7.17c1.2,2.72,2.99,4.08,5.37,4.08,1.72,0,3.24-.67,4.54-2,1.2-1.23,1.97-2.72,2.31-4.47l2.82,1.06ZM314.38,118.89c-1.38-1.38-2.5-3.26-3.33-5.64-.76-2.19-1.14-4.35-1.14-6.47,0-3.13.74-6.32,2.23-9.56-2.12,2.14-3.17,5.37-3.17,9.68,0,2.46.41,4.7,1.21,6.74.94,2.35,2.34,4.1,4.19,5.25Z"/><path d="M360.06,111.33l-2.43,10.03h-2.74l-.67-1.25c-2.01.84-4.1,1.25-6.27,1.25-2.46,0-4.34-.72-5.64-2.16-1.18,1.44-2.61,2.16-4.31,2.16-.68,0-1.36-.14-2.04-.43v-2.78c1.1,0,1.97-.45,2.63-1.36.57-.81.86-1.77.86-2.88v-15.05c0-1.95-1.21-3.09-3.64-3.43v-2.74c.52-.11,1.14-.16,1.84-.16,2.25,0,3.98.64,5.21,1.92,1.18-1.28,2.89-1.92,5.13-1.92.47,0,.94.04,1.41.12v2.78h-.12c-.99-.05-1.77.25-2.33.91-.56.66-.84,1.51-.84,2.55v16.61c1.04.62,2.29.93,3.72.93,3.34,0,5.99-2.1,7.96-6.31l2.27,1.21ZM342,113.84v-13.17c0-.71-.12-1.5-.36-2.39-.27-.99-.61-1.7-1.01-2.12.31.55.47,1.65.47,3.29v13.71c0,2.09-.26,3.41-.78,3.96,1.12-.34,1.69-1.44,1.69-3.29Z"/><path d="M388.31,111.88l-.71,9.48h-2.12l-1.06-1.8c-2.12,1.2-4.4,1.8-6.86,1.8s-4.4-.74-6.07-2.23c-1.67,1.49-3.42,2.23-5.25,2.23-.45,0-.88-.06-1.29-.2v-2.9c.81,0,1.42-.48,1.84-1.45.34-.73.51-1.55.51-2.46v-14.3c0-1.3-.22-2.38-.67-3.24-.58-1.15-1.47-1.63-2.66-1.45v-2.85l.78-.04c3.19-.08,5.07.59,5.64,2,1.93-1.33,4.04-2,6.31-2,.84,0,1.92.2,3.25.61s2.27.61,2.82.61c.96,0,1.53-.41,1.68-1.21l2.16,1.05.04,6.01-2.23.7c-.26-1.28-.95-2.31-2.08-3.1-1.12-.78-2.35-1.17-3.68-1.17-1.88,0-3.17.52-3.88,1.57-.5.78-.74,2.05-.74,3.8v1.61c.03.71.04,1.25.04,1.65.47.21.98.31,1.53.31,1.78,0,2.72-1.29,2.82-3.88l2.74.12c.03.21.04.48.04.82,0,2.59-.57,4.02-1.72,4.31,1.23.92,1.91,2.38,2.04,4.39h-3.13c-.37-.93-.68-1.53-.94-1.81-.42-.41-1.08-.62-2-.62-.6,0-1.04.19-1.33.58,0,2.85.09,4.7.28,5.56.49,2.36,1.7,3.54,3.6,3.54,2.06,0,3.72-.54,4.98-1.64,1.36-1.14,2.08-2.74,2.15-4.79l3.17.39ZM369.9,101.07c0-.73-.1-1.53-.31-2.39-.26-.99-.59-1.7-.98-2.12.31.55.47,1.65.47,3.29v13.71c0,2.09-.26,3.41-.78,3.96,1.07-.34,1.61-1.44,1.61-3.29v-13.17Z"/><path d="M417.27,112.23c0,2.79-1.15,5.11-3.45,6.93-2.14,1.72-4.64,2.59-7.48,2.59-1.28,0-2.71-.33-4.29-.98-1.58-.65-2.32-.98-2.21-.98-.42,0-.57.38-.47,1.14h-2.98l-.43-10.34,2.78-.2c.47,1.62,1.48,3.28,3.02,4.98,1.72,1.91,3.32,2.86,4.78,2.86,1.15,0,2.15-.39,3.02-1.17.86-.78,1.29-1.75,1.29-2.9,0-1.93-1.32-3.28-3.96-4.04-4.83-1.38-7.3-2.1-7.4-2.16-2.64-1.36-3.96-3.71-3.96-7.05,0-2.64.99-4.78,2.98-6.43,1.86-1.54,4.14-2.31,6.86-2.31,2.51,0,5.08.71,7.72,2.12l.43-1.41,2.23.31.43,9.33-2.35.2c-1.12-4.96-3.38-7.45-6.78-7.45-1.2,0-2.23.47-3.09,1.41-.86.94-1.29,2.02-1.29,3.25,0,.97.79,1.75,2.39,2.35,1.67.47,3.34.94,5.02,1.41,2.12.63,3.59,1.37,4.43,2.23,1.86,1.91,2.78,4.01,2.78,6.31ZM412.84,112.9c0-3.03-2.72-4.94-8.15-5.72-1.93-.29-3.54-1.07-4.82-2.35-1.38-1.33-2.09-2.95-2.12-4.86-.11.55-.16,1.07-.16,1.57,0,1.8.65,3.25,1.96,4.35.96.84,2.43,1.53,4.39,2.08,1.59.39,3.19.78,4.78,1.18.84.24,1.63.92,2.39,2.06.76,1.14,1.14,2.15,1.14,3.04,0,.42-.05.84-.16,1.25.5-.89.75-1.75.75-2.59Z"/><path d="M447.87,112.39c-.31,2.59-1.55,4.8-3.72,6.64-2.17,1.84-4.56,2.76-7.17,2.76-3.87,0-6.94-1.44-9.21-4.31-2.14-2.64-3.21-5.96-3.21-9.95s.94-7.68,2.82-10.5c2.17-3.24,5.24-4.86,9.21-4.86,2.19,0,4.43.64,6.7,1.92l.75-1.29,2.39.16v9.56h-2.31c-1.07-4.68-3.13-7.01-6.19-7.01-2.27,0-3.98,1.36-5.13,4.08-.89,2.04-1.33,4.36-1.33,6.97s.46,5.11,1.37,7.17c1.2,2.72,2.99,4.08,5.37,4.08,1.72,0,3.24-.67,4.55-2,1.2-1.23,1.97-2.72,2.31-4.47l2.82,1.06ZM431.73,118.89c-1.38-1.38-2.49-3.26-3.33-5.64-.76-2.19-1.14-4.35-1.14-6.47,0-3.13.74-6.32,2.23-9.56-2.12,2.14-3.17,5.37-3.17,9.68,0,2.46.4,4.7,1.21,6.74.94,2.35,2.34,4.1,4.19,5.25Z"/><path d="M484.51,118.7v2.7c-.21.05-.5.08-.86.08-2.48,0-4.3-.72-5.45-2.15-1.44,1.36-3.46,2.04-6.07,2.04-.45,0-.88-.03-1.29-.08v-2.59c.81,0,1.54-.12,2.19-.35.91-.31,1.37-.78,1.37-1.41,0-.37-.23-.99-.71-1.88-.34-.57-.68-1.16-1.02-1.76h-12.15c-.68,1.63-1.02,2.66-1.02,3.09,0,1.64,1.2,2.43,3.61,2.37v2.61c-.37.08-.81.12-1.33.12-1.8,0-3.21-.57-4.23-1.72-1.54,1.15-3.11,1.72-4.7,1.72-.6,0-1.16-.12-1.69-.35v-2.55c1.91-.08,3.21-.94,3.92-2.59,1.41-3.27,2.83-6.55,4.27-9.85,2.35-5.52,3.53-8.6,3.53-9.22,0-.81-.52-1.22-1.57-1.22h-.98l.04-3.06c.52-.13,1.15-.19,1.88-.19,2.4,0,4.19.78,5.37,2.35.52-.74,1.32-1.33,2.39-1.75.97-.4,1.95-.6,2.94-.6.55,0,1.1.05,1.65.16v2.84c-.65.03-1.21.2-1.69.51-.57.37-.86.85-.86,1.46,0,.39.13.84.39,1.34l8.89,17.2c1.02,1.96,2.08,2.87,3.17,2.74ZM470.33,109.14l-4.45-8.84-3.52,8.84h7.97ZM476.28,116.35c0-1.07-.21-2.01-.62-2.83l-7.01-14.07c-.26-.47-.8-.91-1.62-1.33l9.25,18.22Z"/><path d="M514.44,102.71c0,2.95-.98,5.43-2.94,7.44-1.96,2.01-4.41,3.02-7.37,3.02-1.25,0-2.42-.29-3.49-.86v3.53c0,.91.31,1.59.94,2.04.63.44,1.41.61,2.35.51v2.78c-.71.23-1.5.35-2.39.35-1.78,0-3.16-.63-4.15-1.88-1.28,1.25-3.06,1.88-5.33,1.88-.47,0-.94-.04-1.41-.12v-2.55c.84,0,1.54-.24,2.12-.72.57-.48.86-1.13.86-1.94v-17.12c0-.94-.23-1.71-.71-2.31-.55-.68-1.28-1-2.19-.98v-3.13c.47-.08,1.03-.12,1.68-.12,2.32,0,4.02.67,5.09,2,2.14-1.54,4.34-2.31,6.58-2.31,2.98,0,5.45,1.01,7.41,3.02,1.96,2.01,2.94,4.51,2.94,7.48ZM495.91,114.03v-13.17c0-2.17-.42-3.67-1.25-4.51.34.55.51,1.65.51,3.29v13.71c0,2.09-.26,3.41-.79,3.96,1.02-.34,1.53-1.44,1.53-3.29ZM507.82,101.93c0-.57-.03-1.08-.08-1.53-.11-.94-.47-1.89-1.1-2.86-.73-1.18-1.54-1.76-2.4-1.76-1,0-1.88.35-2.64,1.04-.76.69-1.14,1.52-1.14,2.49v9.09c.63.34,1.34.51,2.15.51,1.8,0,3.16-.76,4.08-2.27.76-1.23,1.13-2.79,1.13-4.7ZM510.4,101.94c0-2.09-.82-4.07-2.47-5.93,1.07,1.89,1.61,4.02,1.61,6.41s-.73,4.6-2.19,6.48c.89-.84,1.62-1.91,2.19-3.2.57-1.3.86-2.55.86-3.75Z"/><path d="M543.4,111.88l-.71,9.48h-2.12l-1.06-1.8c-2.12,1.2-4.4,1.8-6.86,1.8s-4.4-.74-6.07-2.23c-1.67,1.49-3.42,2.23-5.25,2.23-.44,0-.88-.06-1.29-.2v-2.9c.81,0,1.42-.48,1.84-1.45.34-.73.51-1.55.51-2.46v-14.3c0-1.3-.22-2.38-.67-3.24-.58-1.15-1.47-1.63-2.66-1.45v-2.85l.78-.04c3.19-.08,5.07.59,5.64,2,1.93-1.33,4.04-2,6.31-2,.84,0,1.92.2,3.25.61s2.27.61,2.82.61c.97,0,1.53-.41,1.69-1.21l2.15,1.05.04,6.01-2.23.7c-.26-1.28-.96-2.31-2.08-3.1-1.12-.78-2.35-1.17-3.68-1.17-1.88,0-3.17.52-3.88,1.57-.5.78-.75,2.05-.75,3.8v1.61c.03.71.04,1.25.04,1.65.47.21.98.31,1.53.31,1.78,0,2.72-1.29,2.82-3.88l2.74.12c.03.21.04.48.04.82,0,2.59-.58,4.02-1.72,4.31,1.23.92,1.91,2.38,2.04,4.39h-3.13c-.37-.93-.68-1.53-.94-1.81-.42-.41-1.08-.62-2-.62-.6,0-1.04.19-1.33.58,0,2.85.09,4.7.27,5.56.5,2.36,1.7,3.54,3.61,3.54,2.06,0,3.72-.54,4.97-1.64,1.36-1.14,2.08-2.74,2.16-4.79l3.17.39ZM524.98,101.07c0-.73-.11-1.53-.31-2.39-.26-.99-.59-1.7-.98-2.12.31.55.47,1.65.47,3.29v13.71c0,2.09-.26,3.41-.79,3.96,1.07-.34,1.61-1.44,1.61-3.29v-13.17Z"/><path d="M224.2,134.72c1.25,0,3.7,0,5.53,1.42,1.32,1.02,2.1,2.78,2.1,4.68,0,2.91-1.93,4.1-2.54,4.44,1.49.24,2.37.88,2.95,1.42,1.36,1.29,1.63,3.05,1.63,4.24,0,1.32-.37,3.19-1.93,4.58-1.7,1.49-3.76,1.83-5.73,1.83h-7.59v-22.6h5.59ZM223.01,144.1h1.25c.68,0,3.42-.07,3.42-2.95,0-2.07-1.59-2.85-3.39-2.85h-1.29v5.79ZM223.01,153.73h1.9c.81,0,2.03-.03,3.02-.61,1.08-.64,1.39-1.73,1.39-2.61,0-.71-.24-1.93-1.66-2.58-.95-.44-2.07-.44-3.02-.44h-1.63v6.24Z"/><path d="M259.44,152.58h-9.12l-2,4.74h-4.78l9.73-22.6h3.46l9.46,22.6h-4.74l-2-4.74ZM258.15,148.98l-3.22-8.13-3.22,8.13h6.44Z"/><path d="M281.36,134.72v18.81h6.98v3.8h-11.39v-22.6h4.41Z"/><path d="M306.03,138.51v18.81h-4.4v-18.81h-5.08v-3.8h14.57v3.8h-5.08Z"/><path d="M326.43,134.72v22.6h-4.41v-22.6h4.41Z"/><path d="M342.76,134.72h3.19l6,14.37,6.27-14.37h3.19l3.79,22.6h-4.47l-2.03-13.93-6.07,13.93h-1.49l-5.79-13.93-2.3,13.93h-4.47l4.2-22.6Z"/><path d="M400.37,146.03c0,6.88-4.95,11.79-12.06,11.79s-12.06-4.91-12.06-11.79,4.95-11.83,12.06-11.83,12.06,4.95,12.06,11.83ZM395.83,146.03c0-4.58-3.12-7.83-7.52-7.83s-7.52,3.25-7.52,7.83,3.12,7.79,7.52,7.79,7.52-3.22,7.52-7.79Z"/><path d="M419.11,134.72c3.12,0,4.71.81,5.76,1.69,1.73,1.46,2.24,3.39,2.24,5.08,0,2.2-.88,4.13-2.64,5.32-.58.41-1.39.78-2.47.98l7.05,9.52h-5.49l-6.03-9.08h-.54v9.08h-4.41v-22.6h6.54ZM416.97,145.12h1.25c.85,0,4.34-.1,4.34-3.42s-3.46-3.39-4.27-3.39h-1.32v6.81Z"/><path d="M452.69,138.51h-8.13v5.05h7.79v3.79h-7.79v6.17h8.13v3.8h-12.54v-22.6h12.54v3.8Z"/><path d="M469.74,151.93h-.18c0-1.46-.55-2.74-1.64-3.84-1.09-1.09-2.37-1.64-3.84-1.64v-.18c1.46,0,2.74-.55,3.84-1.64,1.09-1.1,1.64-2.37,1.64-3.83h.18c0,1.46.55,2.74,1.64,3.84,1.09,1.09,2.37,1.64,3.83,1.64v.18c-1.46,0-2.74.55-3.83,1.64-1.09,1.09-1.64,2.37-1.64,3.84Z"/><path d="M490.54,134.72h3.19l6,14.37,6.27-14.37h3.19l3.79,22.6h-4.47l-2.03-13.93-6.07,13.93h-1.49l-5.79-13.93-2.3,13.93h-4.47l4.2-22.6Z"/><path d="M529.64,134.72c3.15,0,5.9.34,8.4,2.2,2.74,2.07,4.34,5.35,4.34,9.12s-1.56,7.01-4.54,9.12c-2.64,1.86-5.12,2.17-8.27,2.17h-5.83v-22.6h5.9ZM528.15,153.52h1.36c1.12,0,3.56-.07,5.53-1.49,1.79-1.29,2.81-3.59,2.81-6s-.98-4.68-2.78-6.03c-1.83-1.36-4.07-1.49-5.56-1.49h-1.36v15.01Z"/></svg>