<?xml version="1.0" encoding="UTF-8"?><svg id="Layer_1" xmlns="http://www.w3.org/2000/svg" viewBox="0 0 600 250"><defs><style>.cls-1{fill:#efeadf;}.cls-2{fill:#c1c6c8;}.cls-3{fill:#ffee02;}.cls-4{fill:#252525;}.cls-5{fill:#252525;}</style></defs><path class="cls-5" d="M181.74,162.34c2.09-.23,3.44.64,4.89,2.02,2.45,2.34,2.86,6.14.56,8.74-2.8,3.16-7.29,1.71-9.73,6.33-1,1.88-.92,2.8-2.69,4.37-3.14,2.78-7.47,2-9.07-1.98-.76-1.88-.39-6.04,1.14-7.49,1.52-1.44,5.25-1.69,7.26-2.87,3.43-2.01,2.44-8.55,7.65-9.12ZM182.56,165.41c-.97.14-1.89.98-2.47,1.72-1.88,2.39.1,5.58,3.06,5.31.35-.03,1.6-.58,1.84-.82,1.59-1.64.86-4.42-.82-5.72-.56-.43-.87-.59-1.61-.49ZM170.29,175.84c-.93.13-1.92.82-2.1,1.79-.38,2,.45,4.53,2.58,5.14,1.48.43,2.92-1.69,2.91-3.01,0-1.57-1.6-4.18-3.39-3.92Z"/><path class="cls-5" d="M66.18,145.47c2.23-.28,5.28,1.55,6.21,3.55.91,1.98.69,3.03.9,5.03.22,2.11,1.49,2.91,3.05,4.11,1.66,1.28,4.31,2.41,5.05,4.46.85,2.35-.06,4.22-1.59,5.98-3.08,3.56-6.46,3.08-9.45-.26-2.06-2.3-1.47-6.31-3.09-9.08-1.26-2.17-4.83-2.81-6-5.25-1.73-3.63,1.02-8.04,4.9-8.53ZM66.59,148.44c-.77.09-1.24.34-1.72.94-2.04,2.59.17,5.97,3.31,5.66,1.33-.13,2.9-1.34,2.83-2.8-.12-2.37-2.04-4.08-4.42-3.81ZM75.79,161.73c-2.12.13-3.22,1.85-2.94,3.9.12.85,1.67,2.11,2.49,2.21,1.62.2,3.42-.89,3.53-2.61.12-1.99-.99-3.62-3.09-3.49Z"/><path class="cls-5" d="M138.85,185.98c2.65-1.9,6.74,0,9.81-1.69,1.89-1.04,2.7-2.44,4.22-3.66,3.47-2.79,8.37-.99,9.55,3.22.96,3.41-.18,6.27-3.17,8.06-3.19,1.92-5.48-.11-8.69.62-3.61.82-5.06,5.48-9.36,4.15-1.09-.34-2.08-1.03-2.8-1.9-1.77-2.13-2.01-7.04.44-8.8ZM156.79,183.41c-1.28.12-1.89.47-2.45,1.64-.72,1.5-.26,3.22,1.21,4.04,2.9,1.62,5.79-1.36,4.2-4.2-.67-1.2-1.63-1.6-2.97-1.47ZM142.37,187.29c-2.16.4-3.43,3.15-2.02,4.93,2.68,3.38,7.82.78,5.98-3.32-.58-1.29-2.66-1.86-3.96-1.61Z"/><path class="cls-5" d="M196.37,134.74c3.5-.09,6.31,2.47,6.06,6.06-.25,3.59-4.17,4.64-5.3,8.1-.67,2.05.1,2.82.27,4.69.37,4.06-3.23,7.61-7.36,6.54-.66-.17-.74-.49-1.19-.76-1.08-.64-1.91-.8-2.57-2.03-1.73-3.23-.72-6.49,1.87-8.83.64-.58,1.34-.89,1.95-1.63,1.8-2.19.74-3.68.56-6.09-.3-4.12,1.74-5.96,5.7-6.05ZM195.75,137.08c-.48.08-1.96,1.01-2.15,1.43-.13.29-.11,1.22-.08,1.56.2,2.27,2.7,3.43,4.71,2.55,1.08-.48,1.34-1.56,1.34-2.66,0-1.76-2.17-3.17-3.82-2.89ZM191.94,151.43c-1.12-.02-3.03,1.14-3.43,2.25.15,1.21.1,2.25,1.32,2.86,1.78.9,4.02.17,4.28-1.98.15-1.31-.69-3.12-2.17-3.14Z"/><path class="cls-5" d="M85.1,170.73c2.05-.2,4.5,1.19,5.85,2.68.92,1.01,2.6,4.29,3.69,4.7,1.96.73,4.48.57,6.56,1.21,1.84.57,3.94,1.89,4.41,3.87,1.33,5.6-5.6,11.11-9.91,6.22-2.08-2.36-2.17-4.91-5.71-6.16-1.97-.69-5.34-.19-7.06-1.43-4.11-2.98-3.47-10.56,2.16-11.1ZM85.72,173.28c-3.91.28-2.79,7.47,1.48,6.5.94-.21,2.34-1.28,2.43-2.27.19-2.23-1.61-4.39-3.91-4.22ZM99.31,182.28c-2.7.39-3.49,4.38-.72,5.78,3.68,1.87,5.92-3.07,3.65-4.87-.74-.59-1.98-1.05-2.92-.91Z"/><path class="cls-5" d="M182.87,76.97c3.39-.35,6.23,1.23,6.76,4.74.26,1.76.16,2.9.89,4.64,1.26,3,2.86,2.84,4.96,4.76,2.23,2.03,3.87,5.04,2.11,7.94-2.24,3.68-8.48,2.66-10.48-.69-1.31-2.19-1.23-3.42-1.44-5.82-.43-4.89-4.37-4.48-6.81-7.51-1.25-1.56-1.04-4.32-.03-5.96.63-1.03,2.86-1.96,4.05-2.09ZM183.49,79.21c-4.16.19-3.03,7.11,1.17,5.47,3.1-1.21,2.25-5.63-1.17-5.47ZM191.36,92.71c-1.68.23-3.01,2.01-2.73,3.7.08.46,1.19,1.15,1.63,1.34,2.23.96,4.97-.29,4.6-2.96-.1-.69-.82-1.33-1.39-1.68-.71-.42-1.27-.52-2.1-.4Z"/><path class="cls-5" d="M158.33,57.95c2.28-.23,3.53.33,4.87,2.13.87,1.16,1.54,2.46,2.67,3.46,3.05,2.7,7.78.61,11.2,4.04,3.72,3.73.52,9.49-4.56,9.36-3.5-.09-4.5-2.55-6-5.05-2.5-4.2-9.6-1.78-12.09-5.29-2.5-3.53-.38-8.21,3.91-8.65ZM158.02,60.19c-4.83.66-1.9,7.71,2.55,5.41,1.93-.99,1.33-3.03.13-4.36-.82-.91-1.43-1.22-2.68-1.05ZM172.03,68.27c-1.01.04-2.2.93-2.51,1.9-.62,1.91.89,4.38,2.99,4.21,2.42-.19,3.79-2.28,2.56-4.5-.63-1.15-1.74-1.66-3.04-1.61Z"/><path class="cls-5" d="M69.25,86.17c3.97-.26,7.09,3.83,5.66,7.61-1.35,3.57-5.87,3.92-5.86,8.06,0,2.18.69,4.35-.58,6.36-1.78,2.81-5.64,3.7-8.11,1.21-2.28-2.31-2.28-5.06-.3-7.57,1.07-1.35,2.99-2.34,3.68-3.89,1.26-2.85.19-6.06,1.31-8.51.91-2,1.88-3.12,4.19-3.27ZM69.45,89.13c-1.61.27-1.95,2.67-1.22,3.93,1.59,2.74,5.17.38,3.78-2.55-.41-.86-1.6-1.54-2.56-1.38ZM63.82,102.73c-.74.13-1.72,1.08-2.04,1.75-.43.89-.52,1.62,0,2.49.64,1.09,2.05,1.38,3.16.87,2.91-1.34,1.7-5.59-1.12-5.11Z"/><path class="cls-5" d="M195.75,105.8c3.97-.54,8.06,2.19,6.67,6.57-.71,2.25-2.48,2.83-1.77,5.55.63,2.42,3.48,4.4,3.17,7.1-.51,4.46-5.16,6.94-9.07,4.41-2.75-1.78-3.35-4.15-2.07-7.17.46-1.09,1.41-2.29,1.54-3.47.22-1.96-1.92-3.82-2.59-5.56-1.33-3.42.38-6.93,4.12-7.44ZM196.37,108.35c-1.98.25-2.6,1.48-2.3,3.37.31,1.95,2.31,1.77,3.79,2.1,1.87-.61,2.2-3.57.68-4.73-.66-.51-1.32-.86-2.17-.75ZM197.19,121.95c-2.86.42-2.89,4.31-.72,5.37,2.33,1.13,4.91.19,4.63-2.68-.21-2.11-1.94-2.97-3.91-2.68Z"/><path class="cls-5" d="M127.34,51.5c3.01-.06,3.52,1.72,5.64,2.79,3.39,1.7,6.4-1.59,9.98-1.49s6.39,3.44,5.21,7.06c-1.04,3.21-2.83,4.74-6.33,4.39-3.76-.38-4.98-5.17-9.76-3.49-2.23.78-3.01,1.78-5.7,1.78-1.86,0-3.08-.44-3.81-2.23-1.6-3.9.07-8.7,4.76-8.79ZM126.82,54.16c-.84.12-1.73.68-2.23,1.35-2.28,3.11,3.26,6.2,5.22,3.48.44-.62.82-2.41.59-3.14-.47-1.44-2.22-1.87-3.58-1.69ZM145.12,56.93c-1.47-1.69-4.64-.91-5.48,1.05-.61,1.42-.4,2.51.86,3.41,1.9,1.37,5.87-.49,5.35-2.99-.05-.22-.58-1.3-.72-1.47Z"/><path class="cls-5" d="M113.22,186.07c3.72-.34,5.27,2.85,8.84,2.4.65-.08,1.27-.43,1.87-.58,2.02-.52,5.47-1.23,7.25.1,3.8,2.82,1.92,8.8-2.13,10.24-3.61,1.29-5.8-2.44-9.23-2.48-1.78-.02-3.31.84-4.93,1.3-8.12,2.33-8.92-10.32-1.68-10.98ZM113.84,188.52c-2.03.22-3.39,2.09-2.35,4.03,1.17,2.17,4.49,1.9,5.41-.35.48-1.17.47-1.85-.48-2.74-.66-.61-1.67-1.04-2.58-.94ZM127.61,189.68c-2.89-.04-4.13,3.64-1.84,5.46,1.94,1.54,4.63.87,5.04-1.71.32-2.03-1.17-3.72-3.2-3.75Z"/><path class="cls-5" d="M61.07,116.95c3.77-.39,5.53,2.89,5.24,6.26-.23,2.69-1.78,3.62-.69,6.62,1.15,3.18,3.49,6.29.94,9.68-1.45,1.92-5.76,2.61-7.66,1.13-2.7-2.1-1.95-4.92-.95-7.69.25-.7.73-1.37.85-2.12.66-4.22-3.13-6.04-2.36-10.24.35-1.9,2.82-3.46,4.64-3.65ZM61.57,119.59c-.75.08-1.83,1.06-2.18,1.71-.41.78-.38,2.08.21,2.77.76.9,2.77.94,3.59.1,1.02-1.05.9-2.96-.1-3.99-.29-.3-1.09-.64-1.51-.59ZM62.29,134.01c-2.18.21-3.49,3.87-.9,4.53.82.21,2.67.04,3.22-.67,1.37-1.78-.1-4.07-2.32-3.86Z"/><path class="cls-5" d="M87.55,63.67c1.21-.17,1.74.11,2.74.69,2.72,1.56,4.19,3.69,2.89,6.88-.85,2.09-3.51,3.04-5.52,3.68-1.38.45-2.63.3-3.5,1.62-2.17,3.27-1.45,8-7.05,7.34-3.89-.45-5.06-4.8-3.76-8.03,1.46-3.66,5.02-2.79,7.72-4.55,1.13-.74,1.9-3,2.64-4.21.82-1.34,2.18-3.19,3.84-3.42ZM87.86,67.25c-.89.13-1.83.83-1.92,1.76s.1,1.32.77,1.89c1.3,1.1,3.06,1.56,3.81-.38.86-2.2-.38-3.61-2.66-3.28ZM80.59,80.28c.76-.74,1.05-3.13.3-3.96-.68-.74-2.51-1.05-3.46-.89-1.45.25-2.42,2.33-2.07,3.66.21.81,1.86,1.95,2.66,2.04.84.09,1.97-.26,2.57-.85Z"/><path class="cls-5" d="M113.12,53.65c2.47-.26,4.99,2.03,5.52,4.35.68,3-3,5.83-5.66,6.25-1.79.28-2.96-.33-4.6-.49-1.19-.11-1.5.06-2.39.75-2.06,1.6-2.64,3.21-5.69,3.52-2.77.28-3.84-1.2-4.61-3.64-1.36-4.25,2.48-7.21,6.47-6.98,1.45.09,2.79.77,4.1.91,1.74.18,1.85-.84,2.66-1.92.9-1.21,2.68-2.58,4.21-2.74ZM112.6,56.51c-.65.06-1.75.97-2.04,1.54-.57,1.14-.49,2.83.73,3.5,1.41.77,3.19.76,4.24-.58,1.22-1.55.2-4.04-1.65-4.36-.23-.04-1.08-.12-1.28-.1ZM100.64,60.3c-2.19.32-3.47,2.92-1.92,4.62,2.85,3.13,7.91-2.04,4.02-4.22-.73-.41-1.24-.53-2.1-.4Z"/><path class="cls-5" d="M65.67,111.62c.37.24-.3,1.86-.38,2.3-.05.3-.11.8-.12,1.11-.03.74.27,1.56-.1,2.16-.34.21-1.3-.67-1.71-.85-1.4-.62-2.85-.44-4.25.1-.28.11-.59.5-.84.29-.23-.36.83-2.19.98-2.71.21-.73.25-1.5.2-2.25-.04-.65-.49-1.62.05-2.1.64.68,1.62,1.32,2.53,1.56,1.21.33,2.42.21,3.64.4Z"/><path class="cls-5" d="M148.63,55.67c.26-.26,1.97,1.02,2.32,1.21,1.17.63,2.49,1.19,3.85.85l.26.26c.16.55-.85.82-1.22,1.1-1.17.9-1.67,2.44-1.52,3.88.03.27.4.93.1,1.14s-1.96-.52-2.51-.57c-.85-.07-1.77.38-2.45.3-1.07-.12.42-1.29.61-1.53.95-1.19,1.69-3.62,1.2-5.08-.1-.29-.84-1.36-.63-1.56Z"/><path class="cls-5" d="M185.14,157c.11.07.85,1.93,1.19,2.34,1.18,1.41,3.01,2.01,4.8,1.95.82-.03,1.56-.38.66.76-.52.66-1.17,1.21-1.66,1.92-.45.66-.68,1.44-1.16,2.02-.18.04-.2-.14-.26-.25-.8-1.5-1.16-2.13-2.69-3.04-.93-.55-1.86-.63-2.75-1.03-1.28-.57-.14-1.07.33-1.66.31-.39.66-1.06.82-1.53.1-.29.27-1.77.71-1.48Z"/><path class="cls-5" d="M201.31,135.72c-.55-.9-1.6-1.6-2.65-1.8-1.1-.21-2.43-.27-3.54-.12-.52.07-1.06.47-1.55.2-.39-.3.4-1.45.46-1.91s-.18-1.94,0-2.14c.39-.47,1.15.25,1.55.41,1.31.55,3.54,1.22,4.9.71.35-.13,1.2-.9,1.38-.87.21.04.17.6.15.77-.1,1.31-.61,2.28-.51,3.78.03.39.47,1.05-.19.96Z"/><path class="cls-5" d="M197.93,100.04c.06,1.5.16,2.73.9,4.06.17.31.94,1.02.53,1.32-.3.22-1.44-.51-1.84-.62-1.69-.47-3.66.26-5.09,1.16-.11.02-.36-.03-.42-.11-.09-.12-.22-1.53-.36-1.94s-.4-.91-.74-1.2c-.32-.61,1.82-.38,2.16-.4,1.04-.07,2.73-.47,3.53-1.18.44-.4.66-1.21,1.33-1.08Z"/><path class="cls-5" d="M72.22,80.33c.11.07.77,1.95,1.05,2.37.42.62,1.74,1.66,2.46,1.84.65.16,1.97-.24,1.81.57-.86.28-1.76,1.47-1.91,2.34-.09.51.16,1.13-.28,1.46-1.15-1.52-2.7-3.11-4.63-3.55-.27-.06-.98.07-1.04-.29-.02-.12.86-.81,1.04-1.09.58-.9,1.14-2.57,1.11-3.65l.39.02Z"/><path class="cls-5" d="M62.98,142.58c.7-.09,1.8-.58,2.39-.98.28-.19.96-.94,1.27-.85l1.5,3.56c-.47.19-.98.06-1.47.12-.99.12-2.01.72-2.86,1.23-.78.48-1.53,1.29-2.42,1.41v-1.79c0-.17-.34-1.5-.43-1.72-.15-.37-.5-.53-.39-.99.76-.07,1.66.09,2.4,0Z"/><path class="cls-5" d="M164.67,178.9c.21.13,0,1.04.03,1.35.08,1.2.75,2.87,1.53,3.79.1.31,1.33,1.31,1.33,1.44s-.07.19-.17.25c-1.24.36-2.43.95-3.32,1.9l-.35.06c-.23-.06-.02-2.41-.06-2.82-.1-1.14-.84-2.52-1.38-3.53-.27-.5-1.1-1.2-.36-1.58.43-.22,1.21-.36,1.71-.54.27-.1.7-.53,1.04-.31Z"/><path class="cls-5" d="M179.21,73.05c.44-.09.45.39.63.65.7,1.02.97,1.61,2.16,2.13.37.16,1.02.11.87.63-.12.42-.73.23-1.05.29-1.4.26-2.68.94-3.52,2.1-.21.29-.67,1.25-.79,1.36-.1.09-.15.14-.3.1-.6-.84-1.28-1.49-2.15-2.04-.26-.16-.96-.26-.86-.65.09-.36,1.32-.5,1.7-.66,1.28-.55,3.24-2.42,3.31-3.9Z"/><path class="cls-5" d="M83.14,170.02c.06.07.09.14.12.22-1.36.89-2.67,1.47-3.37,3.05-.29.64-.39,1.28-.65,1.91-.3.06-.63-.61-.81-.82-.53-.6-1.33-1.59-1.9-2.09-.34-.3-1.3-.52-.46-.89,1.7-.74,2.74-.19,4.15-2.09.32-.43.48-1.47,1.1-1.2.27.12,1.56,1.57,1.83,1.9Z"/><path class="cls-5" d="M107.21,192.68c-.9-.28-1.53-1.16-2.41-1.52-.51-.21-1.04-.22-1.57-.32-.09-.44.3-.37.55-.53,1.88-1.22,2.39-2.6,2.68-4.79.44-.82,2.9.55,3.1,1.29-.78,1.13-1.58,2.14-2.01,3.48-.28.87-.18,1.52-.33,2.38Z"/><path class="cls-5" d="M136.56,188.39c-.04.6-.43,1.07-.5,1.7-.11.96.1,1.72.45,2.59.15.38,1.24,2.24,1.07,2.45-1.14.15-2.26.1-3.37.47-.23.08-1.24.79-1.21.23.02-.3.59-1.19.75-1.61.48-1.32.58-2.98-.17-4.22-.2-.33-.65-.46-.48-.98l3.46-.63Z"/><path class="cls-5" d="M121.52,53.33c.07.91-.59,1.71-.69,2.6-.14,1.22.09,2.65.82,3.66.16.23.49.2.38.61-.08.28-.97.4-1.31.53-.31.12-1.62,1.1-1.64.41,0-.29.37-1.05.41-1.54.14-1.57-.14-3.1-1.39-4.14-.23-.19-1.65-.91-.62-1.03.93-.11,1.61.19,2.55-.32.49-.27.91-1.08,1.49-.79Z"/><path class="cls-5" d="M94.32,62.01c.33,1.26.21,2.65.8,3.85.44.9,1.33,1.24,1.95,1.94.04.22-1.35.95-1.62,1.12-.18.11-.49.6-.72.17-.13-.24-.18-1.1-.36-1.56-.75-1.94-2.05-1.98-3.17-3.17-.86-.91.66-.91,1.32-1.24.35-.18,1.58-1.26,1.8-1.11Z"/><path class="cls-5" d="M182.05,167.04c3.24-.56,2.9,5.11-.2,4.04-1.57-.54-1.8-3.69.2-4.04Z"/><path class="cls-5" d="M170.8,177.27c.5-.04.99.36,1.25.74,1.13,1.64-1.09,4.02-2.44,2.54-.97-1.07-.3-3.17,1.19-3.29Z"/><path class="cls-5" d="M66.79,149.87c1.04-.19,2.43.5,2.46,1.66.04,1.67-1.14,2.47-2.7,1.9s-1.24-3.29.23-3.56Z"/><path class="cls-5" d="M75.28,162.96c2-.27,2.98,1.52,1.6,2.93-.78.8-1.72.78-2.63.2-1.31-.84-.43-2.93,1.03-3.13Z"/><path class="cls-5" d="M142.67,188.82c1.2-.25,2.44.41,2.27,1.76-.26,2-4.23,2.8-3.77-.09.09-.57.93-1.55,1.5-1.67Z"/><path class="cls-5" d="M158.62,184.95c1.06,1.06.13,3.07-1.24,3.24-1.68.21-2.6-.82-2.04-2.45.41-1.2,2.37-1.71,3.29-.79Z"/><path class="cls-5" d="M196.06,138.11c2.21-.36,3.6,2.77.92,3.68-1.07.36-2.09-.11-2.22-1.3-.11-1.05.1-2.18,1.3-2.38Z"/><path class="cls-5" d="M191.15,152.62c1.63-.32,2.22,1.98,1.26,2.9-1.17,1.11-3.07.83-2.95-1,.05-.76.94-1.76,1.69-1.9Z"/><path class="cls-5" d="M87.74,175.44c.51.52.64,1.23.52,1.93-.29,1.72-2.66,1.84-3.47.45-1.33-2.27,1.11-4.26,2.95-2.39Z"/><path class="cls-5" d="M99.72,183.51c.77-.13,1.22-.01,1.71.6.72.9.65,2.15-.3,2.85-.79.59-1.7.21-2.4-.36-1.23-1.01-.47-2.84.99-3.09Z"/><path class="cls-5" d="M191.35,94.14c1.45-.3,3.08.92,2.07,2.38-.62.89-2.3.81-2.85-.12-.45-.77-.19-2.06.77-2.26Z"/><path class="cls-5" d="M183.07,80.33c.91-.19,1.79.05,2.19.93,1.07,2.36-2.4,3.16-3.23,1.29-.4-.9.03-2.01,1.04-2.22Z"/><path class="cls-5" d="M172.13,69.7c2.13-.36,2.74,2.32.84,2.99-2.47.87-3.13-2.6-.84-2.99Z"/><path class="cls-5" d="M157.81,61.31c1.36-.28,2.55.64,2.38,2.08s-3.25,1.48-3.47-.32c-.09-.71.35-1.6,1.09-1.76Z"/><path class="cls-5" d="M63.62,103.75c2.52-.65,2.51,3.95-.02,3.55-1.74-.27-1.33-3.2.02-3.55Z"/><path class="cls-5" d="M69.55,90.25c1.91-.44,2.62,2.43.77,2.82-1.77.37-1.96-2.54-.77-2.82Z"/><path class="cls-5" d="M197.49,122.97c1.72-.31,2.84,1.05,2.22,2.63-.5,1.29-1.88,1.24-2.86.51-1.08-.8-.46-2.95.64-3.14Z"/><path class="cls-5" d="M196.57,109.27c1.59-.25,2.33,1.87,1.31,2.95-.56.59-2.5.37-2.69-.49-.21-.96.33-2.29,1.38-2.46Z"/><path class="cls-5" d="M142.47,56.92c2.5-.43,2.92,2.35.81,3.16-3.05,1.18-3.08-2.78-.81-3.16Z"/><path class="cls-5" d="M127.23,55.18c1.53-.19,2.64,1.38,1.71,2.63-.23.31-.96.84-1.35.9-2.67.46-3.12-3.18-.36-3.53Z"/><path class="cls-5" d="M127.54,191.38c2.46-.51,2.4,3.21.18,3.25-1.85.04-1.68-2.94-.18-3.25Z"/><path class="cls-5" d="M114.04,189.74c.95-.1,1.92.64,1.86,1.65-.08,1.23-1.06,1.67-2.19,1.49-1.56-.24-1.39-2.96.33-3.14Z"/><path class="cls-5" d="M60.61,123.33c-.57-.51-.21-2.27.66-2.5,1.56-.41,2.5,1.83,1.15,2.68-.42.26-1.46.13-1.8-.18Z"/><path class="cls-5" d="M63.61,137.74c-.78.82-2.93.62-2.94-.83,0-1.64,1.7-2.43,2.87-1.33.55.51.57,1.63.07,2.17Z"/><path class="cls-5" d="M77.63,76.45c.81-.16,1.94.55,2.07,1.36.35,2.2-2.05,3.48-3.01,1.48-.3-.61-.3-.9-.12-1.56.14-.53.49-1.17,1.07-1.28Z"/><path class="cls-5" d="M88.47,68.37c1.44-.08,1.39,2.13.07,2.32-1.8.27-1.56-2.24-.07-2.32Z"/><path class="cls-5" d="M114.44,57.95c.59.55.45,1.84-.17,2.37-1.28,1.1-3.29-.07-2.5-1.78.45-.97,1.93-1.28,2.66-.59Z"/><path class="cls-5" d="M101.05,61.12c3.3-.33,2.3,3.86-.12,3.82-2.22-.04-2.72-3.53.12-3.82Z"/><path class="cls-5" d="M90.7,139.68c-.16-.07-.21.04-.32.1-2.92,1.6-6.09,3.33-9.06,5.58-.46.35-.54.97-.07,1.56.57-.41,1.14-.82,1.76-.23.44.42.3.69-.08,1.09-.19.2-1.83,1.33-2.09,1.45-1.24.58-2.4-.69-1.08-1.58-.82-1.06-1.32-2.18-.47-3.41.34-.5,1.51-1.38,2.04-1.76,3.64-2.58,7.87-4.69,11.49-7.28.81-.58.93-.91,1.27-1.86.49-1.38.75-2.9,1.34-4.26.68-1.56,2.22-2.51,2.43-4.28-1.01-.13-1.93-1-2.45-1.84-1.56-2.52-1.4-6.41.26-8.85.59-.86,1.08-.67,1.57-1.09.35-.3-.17-1.14-.23-1.58-.08-.5.03-1.09-.02-1.57-.09-.96-.46-1.95-.07-2.9.56-1.35,2.33-3.09,3.2-4.48,1.38-2.22,1.7-4.03,3.71-5.93.68-.64,1.81-1.14,2.58-1.74.94-.74.81-.68,1.9-1.23,1.89-.96,3.93-4.8,5.66-6.5,1.93-1.9,6.12-4.93,8.72-5.56,4.72-1.15,10.71.07,15.62.25,1.48.06,2.99-.15,4.46-.02,4.28.38,8.33,1.42,12.28,3.09,3.53,1.49,9.66,7.74,11.47,11.13.46.86.72,1.87,1.26,2.67,1.7,2.51,3.99,4.77,4.81,7.78.53,1.92.49,4.12.87,6.11.29,1.55.88,2.85.84,4.46-.04,1.7-.54,3.36-.66,5.04-.08,1.11.16,2.35.16,3.48,0,4.14-1.48,10.15-3.42,13.82-2.07,3.91-5.07,7.28-8.1,10.46-3.77,3.94-8.54,9.11-13.86,10.63-1.6.45-5.1.84-6.75.72-1.62-.12-3.21-.73-4.84-.14l-3.89,3.06c-.46.27-1.49.6-2.02.59-4.4-.04-8.73-1.19-12.99-2.29-5.8-1.5-11.39-3.16-16.64-6.12-2.49-1.41-4.76-3.2-7.17-4.73-2.11-1.34-4.26-1.95-5.33-4.51-1.04-2.5,1.01-5.12,1.92-7.32ZM145.29,155.05c.34.05.67.12,1.01.13,1.36.04,4.93-.7,6.02-1.47,1.47-1.04,4.22-3.84,5.55-5.23.73-.76,1.28-1.62,2.04-2.35,1.88-1.79,4.08-3.44,5.71-5.48,1.51-1.89,2.59-5.19,3.42-7.53,1-2.83,1.6-7.17,1.7-10.19.03-.94-.24-2.06-.3-3.02-.18-3.15.67-6.23.59-9.37-.09-3.3-3.88-6.37-5.35-9.14-1.04-1.95-1.54-3.19-2.99-4.99-2.71-3.38-7.05-7.49-11.13-9.01-3.01-1.12-8.13-2.4-11.31-2.57-.91-.05-2.02.23-2.98.23-3.27,0-6.57-.34-9.81-.58-4.8-.36-7.68.93-11.18,3.99-1.46,1.27-2.65,2.83-3.81,4.37.88.3,1.85.09,2.75.17.7.06,2.63.3,3.12.7.46.37.75,1.26.85,1.84-.3.13-.61.24-.93.29-1.61.26-3,.07-4.58-.02-.94-.06-1.9.38-2.82.58-.41.09-.99.05-1.37.17-.49.16-1.2.79-1.78,1.04-.75.33-2.18.45-2.76.84-.11.07-1.51,1.83-1.63,2.02-.41.66-.64,1.55-1.04,2.29-.37.69-.97,1.6-1.42,2.25-.81,1.17-2.69,2.99-2.68,4.43,0,.32.59,3.06.71,3.17,1.27.23,2.58-.32,3.81.27.82.4,1.01,1.02,1.23,1.86-.79-.01-1.47.34-2.21.52-1.42.34-3.81.45-4.49,1.89-.47,1-.87,2.35-.99,3.44-.02.21-.11,1.39-.07,1.46.18.36,1.43-.14,1.75-.26.44-.17.86-.42,1.28-.64-.23-.15-.23-.55-.32-.68-.09-.13-.4-.18-.47-.4-.18-.59.12-.65.6-.61,1.1.07,2.17.65,3.23.7.41.02.72-.17,1.04-.15,1.01.07.03,1.4-.26,1.81-.78,1.14-1.8,2.13-2.62,3.23-.47.64-1.37,1.67-.91,2.45l.8-.25c.05-.36.37-.73.45-1.02.15-.5.1-1.33.3-1.75.06-.13,1.47-1.16,1.69-1.28.26-.14.58-.15.4.18-.19.36-.75.7-.14,1.02.46-.23.54-.78.76-1.18.54-.07.64.58,1.05.67.25.06,1.01-.11,1.24-.23.6-.34-.16-1.29.36-1.65.83.62.55,1.69.67,2.57.06.41.28.78.26,1.21.07.18.29.02.41-.04.98-.5,2.47-1.51,3.42-2.15.24-.16.49-.34.69-.55-1.22-.08-2.02.87-3.14.06-.75-.55-.7-1.02-.93-1.77-.08-.26-.31-.39-.31-.74,0-.75.57-.8.69-1.21s-.19-.79.07-1.45,2.17-2.85,2.73-3.45c1.19-1.29,3.02-3.11,4.37-4.2,1.81-1.46,2.36-.9,2.98,1.14.75,2.51.36,5.1-.08,7.64l1.56-1.05c.15-1.57.16-3.27,1.14-4.6.45.01.54.35.62.72.17.82.2,1.9.06,2.72l3.4-2c.2-.29-.08-1.04-.1-1.42-.03-.84.1-2.03.29-2.85.12-.51.83-1.83.81-2.07-.02-.2-.76-1.48-.93-1.78-.36-.66-.95-1.43-1.24-2.07-.06-.14-.14-.28-.08-.44l.27-.23,2.32,4c.75-1.28,1.97-2.07,3.02-3.04-.21-4.21-.88-8.39-.97-12.62-.14-.14-1.52.26-1.8.34-.92.26-1.92.61-2.84.91-.68.22-3.57,1.47-4.07,1.24-.14-.1-.17-.18-.1-.34.27-.62,5.74-2.26,6.67-2.5,17.14-4.28,33.18,5.64,38.44,22.07.76,2.38,1.28,4.77,1.22,7.3-.2-.02-.42-.02-.45-.24l-.87-6.03c-4,1.12-7.87,2.74-11.97,3.53l-.37-.51c1.26-.49,2.63-.63,3.93-.98,2.7-.73,5.33-1.74,8.05-2.41l.21-.2c-1.67-5.31-4.61-10.23-8.61-14.11-1.74,2.07-3.45,4.18-5.32,6.13-1.04,1.08-3.85,3.31-4.41,4.38-.64,1.21-1.34,3.14-1.63,4.47-.35,1.61-.48,3.28-1.04,4.85.6-.1,4.45-1.52,4.65-1.31-.27.65-.74.49-1.3.67s-3.6,1.2-3.81,1.5c-.38.55-.52,1.08-1.09,1.62-.3.28-2.17.89-2.64.95-2.35.31-4.76-.72-6.88-1.58-1.83-.74-5.02-2.01-6.16-3.64-.16-.22-.59-1.29-.76-1.28l-3.77,2.42c-.24.41-.23,1.29-.68,1.55-.2.11-.86.19-1.18.3-.11.04-.67.45-.54.1.05-.12.3-.35,0-.37-.37.33-1.24.66-1.53,1.02-.23.29-.19.88-.43,1.33-.15.29-.65.83-.94,1-.9.54-1.83-.05-2.58.19l-3.68,2.46.26.82c-.43-.08-2,.95-2.11,1.25-.06.16-.04.37-.09.54-.59.09-.52-.95-.81-.93-.07,0-1.08.7-1.08.78.37.54.51,1.22.52,1.86.42-.12.81-.29,1.25-.39.3-.07,1.29-.26,1.52-.2.54.14.73,1.63.86,1.65.49-.33,1.88-.99,2.43-.82.46.14.76,1.75.74,2.22.52-.12.9-.49,1.44-.61,1.81-.38,1.41,1.16,1.89,2.33.44-.25,1.78-1.05,2.23-.85.58.26,1.04,2.34,1.17,2.38,1.71-.74,1.88.16,2.56,1.48.84-.1,1.25-.46,1.85.43-.16-.75.73-1.32.87-1.74.08-.23.18-.92.19-1.18.02-.62-.83-1.86-.56-2.43.23-.49.92-.86,1.44-.62-.18.44-.09,1.23.38,1.47.08-.59-.16-1.31.57-1.55.12-.04.64-.1.74-.07.27.1-.09.33-.08.5.02.4,1.54,1.35,1.93,1.48,1.58.5,4.5-.32,5.57,1.08.19.25.26.6.47.88.78,1.04,2.85,1.96,3.98,2.78,1.68,1.22,2.51,2.3,4.59,3.12.66.26,1.17.56,1.82.14,2.02-1.31,2.55-2.85,2.45-5.2-.04-1.05-.95-2.72-1.8-3.33-.35-.25-.79-.32-1.16-.55-.34-.22-.73-.76-1.03-.91-.44-.21-1-.18-1.37-.66-.57-.72-.38-2.95-.16-3.81.57-2.21,1.3-2.62,2.69-4.1,1.12-1.2.85-3.38,1.8-4.71.2-.27.5-.42.63-.69.18-.37.15-.79.27-1.18.28-.87.72-1.48,1.67-1.09,1.02.42,1.77,3.66,2.3,4.71.86,1.69,1.39.16,2.48.15.59,0,1.06.23,1.49.61,1.22-1.16,1.81-.53,1.82.95.01,1.14-.19,2.81-.3,3.99-.02.22-.16.39-.18.64-.1,1.19.65.27.99-.14,1.09-1.31,3.2-5.57,3.65-7.21.22-.81.09-1.8.29-2.47.03-.11,0-.21.17-.12.08.04,1.34,1.01,1.4,1.08.28.32.45,1.74.46,2.2.02,1-.04,2.73-.15,3.71-.02.19-.18.33-.18.53.53-.2,1.23-2.59,1.46-2.61.32-.03.47,1.57.46,1.85-.09,2.43-1.08,3.99-1.89,6.12-.39,1.02-.67,2.08-1.06,3.09-1.72,4.46-5.51,8.25-9,11.39-.47.42-1.41,1.25-1.51,1.89-.14.91.78,1.17-.21,2.21s-3.81,2.67-5.12,3.54c-.95.63-2.28,1.13-2.77,2.25ZM141.66,107.58l6.6-12.68c-.01-.21-3.05-1.49-3.49-1.65-2.53-.95-5.86-1.79-8.55-1.86-.64-.02-1.28.07-1.91.15l-.06,12.82c.1.21,3.86,1.42,4.43,1.68,1.01.47,1.89,1.21,2.98,1.54ZM132.15,104c.44,0,.98.2,1.43.22l.28-12.7c-.62,0-4.87.31-4.99.7l1.11,12.36c.66-.1,1.49-.58,2.16-.58ZM151.97,97.05l-3.37-2.02c-.28,0-1.41,2.8-1.63,3.24-1.18,2.43-2.57,4.76-3.76,7.18-.17.34-1.15,2.33-1.08,2.5,1.39.75,2.14,2.13,2.46,3.63.38-.32.86-.73,1.12-1.16.73-1.2,1.28-3.01,1.9-4.34,1.14-2.43,2.28-4.92,3.48-7.33.15-.3.96-1.52.88-1.7ZM146.86,109.29c3.29-2.62,5.87-6,8.76-9.03.07-.19-1.01-1.09-1.22-1.28-.28-.25-1.98-1.7-2.17-1.6-.76,1.33-1.25,2.79-1.89,4.18-1.18,2.57-2.53,5.07-3.49,7.73ZM81.12,144.31c15.58-9.61,30.7-19.97,46.29-29.57.53-.33,3.29-2.1,3.64-2.1.23,0,.36.2.57.09.49-.25.24-.72-.15-.94-9.1,5.62-18.12,11.39-27.17,17.1-6.82,4.3-13.7,8.45-20.4,12.94-.95.64-3.57,2.04-4.09,2.9-.75,1.25-.03,2.26.59,3.35l-.49.67c.15.19,1.87-1.05,1.93-1.37-.13-.06-.3.09-.48.08-.54-.03-.89-.71-1.02-1.17-.27-.95.13-1.35.79-1.97ZM137.89,115.52c-1.37-.07-2.41,1.2-2.68,2.44-.51,2.38,2.71,4.76,4.62,2.71,1.82-1.95.62-5.03-1.94-5.16ZM105.29,125.75l-.39-.06c.14.72-1.26,1.28-1.27,1.75,0,.16.17.39.1.6.15.19,1.05-.37,1.14-.53.06-.11-.07-.75.01-1.06.09-.35.31-.4.41-.69ZM102.05,125.76c-.64.14-1.33.7-1.33,1.41l.91-.07.41-1.35ZM103.19,126.23c-.16-.06-.21.02-.32.1-.14.1-1.01.81-1.04.87-.08.18.14.51.25.67.12.05.86-.39.92-.53.08-.19-.08-.41-.05-.59s.24-.32.24-.52ZM101.06,128.23c-.4-.03-.93.15-1.22.42-.09.08-1.3,1.87-1.35,1.98-.08.19-.08.41-.12.61l1.62-2.03,1.07-1ZM98.79,128.49c-.25-.09-.18.02-.27.16-.3.45-.59.92-.87,1.38.19.07.25-.06.35-.18.27-.31.62-.97.8-1.36ZM104.61,134.02c.34-.72,1.61-2.29,1.6-3.02,0-.1-.01-.22-.12-.26s-1.67.12-1.86.19c-.36.13-.42.32-.58.64-.14.27-.79,1.75-.7,1.92s1.48.62,1.68.54ZM108.1,135.67l1.71-3.12c.08-.27-.04-.72-.34-.8-.35-.1-2.16.24-2.45.48-.38.33-.89,2.05-1.29,2.54-.06.21,0,.11.12.17.26.12,2.13.79,2.26.74ZM113,132.8c-.87-.05-1.67.35-2.49.54l-1.22,2.83c-.18.42,1.18.77,1.5.84.88.17.93-.13,1.3-.86.2-.39.97-1.88,1.04-2.18.09-.38-.12-.79-.13-1.17ZM125.97,139.42l1.35.28c.23-.4.64-.67.76-1.13.12-.48-.1-2.18-.4-2.55-.1-.12-.49-.49-.57-.19-.11.38.04.74-.1,1.17-.15.46-1.39,2.07-1.03,2.42ZM112.67,137.69c.47.31,1.79.91,2.27.56.42-.29,1.26-2.74,1.26-3.28,0-.13-.03-.36-.13-.44-.24-.2-2.1.32-2.37.6-.18.19-1.1,2.4-1.04,2.55ZM97.24,131.99l-.79-.12-.27,1.07c.09.14,1.17-.62,1.06-.95ZM119.27,135.48c-.17-.16-.68.48-.84.58-.18.12-1,.51-1.04.6,0,.12.03.24,0,.36-.1.36-.73,2.19-.72,2.33.05.58,1.49.76,1.93.5l.94-2.35-.27-2.03ZM128.28,140.7c.38.13.79.3,1.2.27,1.4-.1,2.29-4.9-.05-3.05l-1.15,2.79ZM101.86,134.04c-.15-.21-1.63-.23-1.68-.12l-.55,2.33.53,1.54.9-.33c.11-.96.71-2.07.86-2.98.02-.15,0-.3-.06-.44ZM99.24,134.12c-.26.16-1.57.85-1.66,1.03-.17.34-.08,1.27.19,1.58.9-.72,1.47-1.37,1.46-2.6ZM121.3,141.96c.1-.85,1.11-1.89,1.21-2.7.03-.22-.36-1.42-.62-1.46-.33.37-.84.61-1.35.61l-.76,2.85c.55.14,1.06.34,1.51.69ZM102.4,138.64l1.55-.32c.29-.38,1.15-2.29.82-2.6l-1.94-.54c-.21,1.16-1.03,2.32-.43,3.46ZM124.36,139.2c-.1-.09-.87.46-.95.57-.12.19-.2,1.16-.3,1.49-.18.56-.55.96-.81,1.47l1.18.18c.13-.94,1.04-2,1.14-2.91.04-.32-.28-.49-.27-.79ZM107.64,137.26c-.27-.29-1.27-.37-1.64-.68l-.68.2c.12.82-.44,1.54-.62,2.32.82.58.96.86,1.88.29.61-.38,1.73-1.4,1.06-2.13ZM97.54,137.56c-.3-.37-.53-1.15-.76-1.6-.19-.09-1.39.49-1.56.73-.87,2.2-2.13,4.22-3.14,6.35-.19.39-.81,1.61-.86,1.94-.07.46,2.19,2.02,2.61,2.43.45.43.83,1.03,1.29,1.42,1.02.85,3.66,2.29,4.91,2.97,5.51,2.99,11.11,4.58,17.13,6.2,2.86.77,5.77,1.62,8.69,2.04,1.77.26,3.39.04,5.16-.14.28-.03,2.27-.43,2.43-.51.34-.18,1.61-1.3,1.96-1.63,2.26-2.13,5.02-4.86,6.75-7.41.36-.53,1.95-2.98,2.06-3.41.05-.19.03-1.67-.04-1.73-.61-.21-1.21-.07-1.84-.23-1.7-.43-1.81-2.56-2.71-2.84-1.45-.45-1.04,1.66-.66,2.41.69,1.37,3.2.93,3.09,3.17-.12,2.27-2.81,2.89-4.09,4.43-.53.64-.88,1.53-1.42,2.24-1.39,1.82-4.52,4.37-6.92,4.2-1.65-.12-3.31-.6-4.92-.87-.86-.14-2.17,0-2.84-.55-.21-.17-.28-.48-.54-.57-.6-.21-1.58-.12-2.17-.34-.21-.07-.24-.27-.37-.34-.38-.18-1.3.01-1.09-.7.2-.2,3.39.49,3.97.51s1.1-.36,1.58-.36c1.14,0,2.92.55,3.95.48.27-.02.84-.36,1.15-.46,1.46-.48,2.54-.85,3.85-1.68,1.83-1.17,3.42-2.75,4.65-4.54.29-.42,1.25-1.62.93-2.09-.21-.29-.69.06-.89.22-1.22.93-1.85,2.25-3.46,3.06-.51.26-1.28.32-1.2-.43.05-.51.41-.41.7-.61s2.26-2.96,2.5-3.4c.35-.62.63-1.32.56-2.03-.86-.25-1.56.59-2.08,1.16-1.79,1.98-2.63,4.65-5.94,3.98-.63-.13-.95-.45-1.34-.6-.2-.08-.52.07-.86-.07-.19-.08-.3-.32-.47-.35-.18-.03-.4.14-.58.16-.95.1-1.78,0-2.36-.82l.23-.47c-.12-.16-.64.4-.78.44-.6.17-1.55-.83-1.6-1.41-.83.16-1.13.8-2.02.39-.83-.38-.86-1.22-1.46-1.83-.14-.05-.39.22-.55.3-1.28.54-2.63-.87-2.23-2.15-.65.35-1.14.98-1.95.99-.75,0-1.79-.61-1.73-1.45-.34.21-1.42.49-1.76.29-.37-.22-1.06-1.82-1.19-1.84l-1.44.66-1.5-1.33c-.48-.05-1.34.45-1.77.34-.47-.12-.86-1.65-.96-1.66-1.28.92-2.03.48-2.38-.97-.63.35-1.19.56-1.72-.1ZM126.2,140.39c-.12.07-.45,1.85-.56,2.16s-.52.86-.54,1.06c-.06.47.77.38.97.13.12-.14.82-1.88.84-2.08.05-.39-.19-1.31-.72-1.27ZM109.42,138.13c-.55.06-1.04,1.62-1.57,1.94.4,1.22,1.26.91,2.14.4.67-.39,1.45-.98,1.11-1.85l-1.68-.49ZM126.37,144.56c1.13.65,1.77-.26,2.09-1.27s.05-1.35-.74-1.96l-1.36,3.23ZM114.14,139.85c-.52.01-1.35-.82-1.74-.52-.13.1-.31.93-.44,1.2-.13.29-.38.63-.57.9s-.49.26-.31.68c1.56.26,2.58-.9,3.06-2.25ZM117.28,141.14c-.52-.02-1.03-.59-1.47-.64-.25-.03-.83.16-.97.37-.15.23-.22,1.91-.17,2.23.03.2.3.41.39.59.67.19,2.31-2.39,2.21-2.54ZM120.79,142.69c-.62-.07-1.45-.69-1.98-.79-.78-.16-1.06,1.76-1.37,2.25l.31.68c.86.09,1.7-.64,2.27-1.22.11-.12.82-.85.77-.92ZM120.71,145.81c.14.05.23.02.36-.04.29-.13,1.59-1.65,1.72-1.96.05-.12.11-.14-.01-.26l-.97-.3c-.03.31-.08.57-.2.86-.15.37-1.19,1.41-.9,1.7ZM124.84,144.63l-.71-.31c-1.35,1.31-.17,3.96.59,1.04.06-.24.09-.48.12-.73ZM126.12,145.48l-.22,1.43c.65-.07,1.2-.48,1.3-1.17.03-.23.01-.12-.13-.17-.2-.07-.47-.1-.68-.21l-.27.11Z"/><path class="cls-3" d="M137.89,115.52c2.57.12,3.77,3.21,1.94,5.16-1.91,2.04-5.13-.33-4.62-2.71.27-1.24,1.31-2.51,2.68-2.44ZM137.76,117.01c-.5.07-1.21,1.42-1.15,1.85.03.23.66.91.89,1.03.97.48,2.15-.73,2.04-1.67-.1-.8-1.02-1.31-1.77-1.21Z"/><path class="cls-1" d="M145.29,155.05c.49-1.12,1.83-1.62,2.77-2.25,1.31-.87,4.14-2.51,5.12-3.54s.07-1.3.21-2.21c.1-.63,1.04-1.46,1.51-1.89,3.49-3.14,7.28-6.92,9-11.39.39-1.02.67-2.07,1.06-3.09.81-2.12,1.8-3.69,1.89-6.12.01-.28-.14-1.88-.46-1.85-.24.02-.94,2.41-1.46,2.61,0-.19.16-.34.18-.53.11-.98.17-2.71.15-3.71,0-.47-.18-1.89-.46-2.2-.06-.07-1.32-1.04-1.4-1.08-.18-.09-.14.01-.17.12-.2.68-.07,1.67-.29,2.47-.45,1.65-2.56,5.9-3.65,7.21-.34.41-1.09,1.33-.99.14.02-.26.16-.43.18-.64.11-1.18.31-2.85.3-3.99-.02-1.48-.6-2.11-1.82-.95-.44-.38-.9-.61-1.49-.61-1.09,0-1.63,1.54-2.48-.15-.53-1.05-1.28-4.29-2.3-4.71-.95-.39-1.39.22-1.67,1.09-.12.39-.09.81-.27,1.18-.13.27-.44.42-.63.69-.96,1.32-.68,3.51-1.8,4.71-1.39,1.49-2.11,1.89-2.69,4.1-.22.85-.41,3.08.16,3.81.37.47.93.45,1.37.66.3.15.69.69,1.03.91.36.23.81.3,1.16.55.85.61,1.75,2.28,1.8,3.33.1,2.35-.43,3.89-2.45,5.2-.65.42-1.16.12-1.82-.14-2.09-.81-2.91-1.89-4.59-3.12-1.13-.82-3.2-1.74-3.98-2.78-.21-.28-.28-.63-.47-.88-1.07-1.41-4-.58-5.57-1.08-.39-.12-1.91-1.08-1.93-1.48,0-.17.36-.4.08-.5-.09-.03-.62.03-.74.07-.73.24-.49.96-.57,1.55-.47-.25-.56-1.03-.38-1.47-.52-.25-1.21.13-1.44.62-.27.57.58,1.81.56,2.43,0,.26-.11.95-.19,1.18-.15.42-1.03,1-.87,1.74-.61-.89-1.01-.53-1.85-.43-.67-1.31-.85-2.22-2.56-1.48-.14-.03-.59-2.12-1.17-2.38-.45-.2-1.8.6-2.23.85-.48-1.17-.08-2.7-1.89-2.33-.54.11-.92.49-1.44.61.01-.47-.28-2.07-.74-2.22-.56-.17-1.94.48-2.43.82-.13-.02-.32-1.51-.86-1.65-.23-.06-1.22.13-1.52.2-.44.1-.82.27-1.25.39,0-.65-.15-1.32-.52-1.86,0-.07,1.01-.77,1.08-.78.29-.02.23,1.02.81.93.04-.17.03-.38.09-.54.11-.3,1.68-1.32,2.11-1.25l-.26-.82,3.68-2.46c.75-.24,1.67.35,2.58-.19.28-.17.79-.7.94-1,.23-.45.2-1.05.43-1.33.29-.37,1.16-.69,1.53-1.02.3.02.05.25,0,.37-.14.35.43-.07.54-.1.32-.11.99-.19,1.18-.3.45-.26.45-1.14.68-1.55l3.77-2.42c.16-.01.6,1.05.76,1.28,1.14,1.62,4.33,2.89,6.16,3.64,2.12.86,4.53,1.89,6.88,1.58.47-.06,2.33-.67,2.64-.95.57-.53.71-1.07,1.09-1.62.21-.3,3.22-1.31,3.81-1.5s1.03-.02,1.3-.67c-.2-.21-4.05,1.21-4.65,1.31.56-1.57.69-3.24,1.04-4.85.29-1.33.99-3.26,1.63-4.47.56-1.07,3.37-3.3,4.41-4.38,1.87-1.95,3.58-4.06,5.32-6.13,4,3.88,6.94,8.8,8.61,14.11l-.21.2c-2.72.67-5.35,1.68-8.05,2.41-1.3.35-2.66.49-3.93.98l.37.51c4.09-.78,7.96-2.4,11.97-3.53l.87,6.03c.03.22.25.22.45.24.06-2.53-.46-4.92-1.22-7.3-5.25-16.43-21.3-26.34-38.44-22.07-.93.23-6.4,1.88-6.67,2.5-.07.16-.04.25.1.34.5.24,3.39-1.01,4.07-1.24.92-.3,1.92-.65,2.84-.91.27-.08,1.66-.47,1.8-.34.09,4.23.76,8.4.97,12.62-1.05.96-2.27,1.76-3.02,3.04l-2.32-4-.27.23c-.07.16.01.3.08.44.29.64.88,1.41,1.24,2.07.16.3.91,1.58.93,1.78.02.24-.69,1.56-.81,2.07-.19.82-.32,2.01-.29,2.85.02.38.3,1.13.1,1.42l-3.4,2c.14-.82.11-1.9-.06-2.72-.08-.37-.17-.7-.62-.72-.97,1.32-.99,3.02-1.14,4.6l-1.56,1.05c.44-2.54.83-5.13.08-7.64-.61-2.04-1.16-2.6-2.98-1.14-1.36,1.09-3.18,2.9-4.37,4.2-.56.61-2.47,2.82-2.73,3.45s.05,1.04-.07,1.45-.68.46-.69,1.21c0,.35.23.48.31.74.23.75.17,1.22.93,1.77,1.11.81,1.91-.15,3.14-.06-.2.21-.45.39-.69.55-.95.64-2.44,1.65-3.42,2.15-.12.06-.34.22-.41.04.02-.43-.21-.8-.26-1.21-.12-.88.16-1.96-.67-2.57-.52.36.23,1.31-.36,1.65-.23.13-.99.29-1.24.23-.42-.09-.51-.74-1.05-.67-.22.41-.3.96-.76,1.18-.61-.31-.05-.66.14-1.02.18-.34-.14-.33-.4-.18-.22.12-1.63,1.15-1.69,1.28-.2.41-.15,1.25-.3,1.75-.09.29-.41.67-.45,1.02l-.8.25c-.46-.79.44-1.82.91-2.45.82-1.11,1.84-2.09,2.62-3.23.28-.41,1.26-1.74.26-1.81-.32-.02-.63.17-1.04.15-1.07-.06-2.13-.63-3.23-.7-.48-.03-.78.03-.6.61.07.22.38.27.47.4.1.13.1.53.32.68-.42.22-.84.47-1.28.64-.32.13-1.57.63-1.75.26-.03-.07.05-1.24.07-1.46.12-1.09.52-2.44.99-3.44.68-1.44,3.07-1.55,4.49-1.89.73-.18,1.41-.53,2.21-.52-.22-.84-.41-1.46-1.23-1.86-1.22-.59-2.54-.04-3.81-.27-.12-.11-.71-2.85-.71-3.17-.01-1.44,1.87-3.27,2.68-4.43.45-.65,1.04-1.56,1.42-2.25.4-.74.63-1.62,1.04-2.29.12-.19,1.52-1.95,1.63-2.02.58-.39,2-.51,2.76-.84.58-.25,1.28-.89,1.78-1.04.37-.12.96-.08,1.37-.17.92-.2,1.88-.64,2.82-.58,1.57.09,2.96.28,4.58.02.32-.05.64-.16.93-.29-.1-.57-.39-1.46-.85-1.84-.49-.4-2.41-.64-3.12-.7-.91-.08-1.88.14-2.75-.17,1.16-1.54,2.35-3.09,3.81-4.37,3.5-3.06,6.38-4.36,11.18-3.99,3.24.25,6.54.58,9.81.58.96,0,2.08-.28,2.98-.23,3.18.18,8.3,1.45,11.31,2.57,4.09,1.52,8.42,5.63,11.13,9.01,1.45,1.81,1.95,3.04,2.99,4.99,1.47,2.77,5.26,5.84,5.35,9.14.08,3.14-.78,6.22-.59,9.37.06.96.33,2.08.3,3.02-.1,3.02-.7,7.36-1.7,10.19-.83,2.34-1.91,5.64-3.42,7.53-1.64,2.04-3.83,3.69-5.71,5.48-.77.73-1.31,1.59-2.04,2.35-1.32,1.38-4.07,4.19-5.55,5.23-1.1.77-4.66,1.51-6.02,1.47-.34,0-.68-.07-1.01-.13ZM119.05,92.41c2.83-2.05,8.46-2.9,11.9-2.84,6.8.11,11.76.78,17.87,3.87,3.18,1.61,5.69,3.99,8.3,6.36,1.54,1.4,5.11,4.37,5.93,6.08,1.68,3.49,3.48,10.14,3.86,13.99.06.64-.11,2.09.01,2.53.3,1.1.66.86.51,2.43-.39,4.18-2.21,9.89-3.96,13.72-.18.38-.97,1.46-.81,1.78.34.27,1.08.28,1.42,0,.28-.23,1.14-1.6,1.35-1.99,2.36-4.39,3.33-9.05,3.59-13.98.22-4.03.5-8.3-.67-12.22-.74-2.51-1.99-5.8-3.03-8.21-1.05-2.42-4.47-6.24-6.46-8.06-1.26-1.15-2.53-1.89-3.8-2.91-.48-.39-.87-.93-1.41-1.33-7.13-5.34-15.18-6.02-23.75-4.81-1.15.16-1.97.64-2.99.83-.72.14-1.47.11-2.24.3-2.09.5-6.03,2.31-7.55,3.81-.24.24-.53.57-.22.86l1.53.33c.26-.04.4-.42.6-.56ZM119.34,95.86c-.08,0-.23.14-.09.24.54,1.08.96,2.29,1.53,3.35.22.4.56,1.38,1.07.78-.64-1.21-1.27-2.7-2.03-3.83-.08-.13-.32-.53-.47-.53ZM125.02,99.18c-.89.51-3.11,1.1-3.58,2.06-.37.74.14,1.45.04,1.99-.04.22-.34.47-.44.71-.26.68.55,2.28,1.37,1.49.77-.73,1.07-1.97,2.06-2.58.11-.27-.45-1.01-.48-1.29-.07-.78,1.71-1.38,1.77-1.72.02-.26-.52-.68-.74-.66ZM101.6,109.78c.19.31.81.92,1.17,1.02.46.12,1.73.2,2.29.25,1.99.18,5.13.46,7.06-.05,1.32-.35,5.51-3.48,6.13-4.66.41-.78.37-2.94.13-3.81s-1.07-2.06-1.84-2.59c-1.98-1.37-7.28-1.35-9.38-.12-1.22.72-2.93,4.07-3.75,5.4-.67,1.07-2.61,3.22-1.8,4.58ZM109.88,114.09c.18-.16.44-.55.2-.74l-3.05.74v.36s.52.14.52.14l.13.17c-.01.46-.63,1.84-.16,2.13.05.03.25.09.25-.02.35-1.04.97-1.86,1.76-2.6.1-.1.28-.11.35-.17ZM130.67,127s.26-.32.28-.4c.29-.91-1.16-2.08-1.82-2.6-1.08-.87-2.51-1.63-3.54-2.49-.5-.42-.87-1-1.44-1.35-.07.32.13.62.27.9.72,1.42,3.66,4.44,4.97,5.38.25.18,1.01.66,1.28.56ZM141.86,123.91c-.85.04-1.94,1.11-2.72,1.32-.51.14-1.85-.15-2.03.22-.25.54.28.66.72.75,1.24.26,3.28.13,4.23-.82.53-.53.87-1.53-.2-1.47ZM139.13,129.16s-.24-.17-.25-.17c-.29.55-.22,1.2-.4,1.78-.27.84-1.45,2.12-1.25,2.89.16.65.73.3,1.15.31,1.09.02,1.58,1.1,2.56,1.4.34-1.17-.44-1.61-.94-2.42-.17-.28-.63-1.21-.7-1.5-.16-.6.08-1.91-.16-2.29ZM112.47,130.34l.24-1.58c.07-.43,2.43-.41,2.78-1.11.08-.15.06-.35.15-.51.21-.37.81-.71.85-1.24.05-.66-.87.13-1.15.23-.67.22-2.68.17-3.1.8-.19.3-.47,2.96-.32,3.25.04.08.23.17.3.27l.25-.1ZM119.38,130.84c-.29-.64-.5-1.83-.97-2.32-.09-.09-.1-.21-.27-.19-.15.12-.05,1.19-.13,1.42-.09.26-.4.3-.5.65-.13.47.07.89,0,1.22-.04.24-.35.5-.43.84-.11.54.09,1.04.55,1.35.13,0,.67-1.01.86-1.22.33-.35.86-.48.96-1.02.21,0,.5.02.68.14.07.05.62,1.32.64,1.46.09.85-.66,2.09.24,2.67.61-1.17,1.04-1.84.75-3.22-.1-.45-.59-1.35-.58-1.68,0-.27.29-.66.22-.99l-.36-.17-.48,1.02-1.19.03ZM124.01,130.95c-.42-.32-1.22.19-1.3.65-.16.86.74,2.96.85,3.92,0,.2-.69.86-.35.96.31.1,1.26-.75,1.33-1.07.03-.12-.17-1.36-.21-1.59-.17-.92-.73-1.98-.31-2.88ZM115.53,131.52c.13-.4.17-1.13.24-1.58.04-.26-.7-.48-.88-.12-.05.69-.01,1.4-.33,2.04l.4.43c.07.01.54-.66.57-.77Z"/><path class="cls-1" d="M97.54,137.56c.53.65,1.09.45,1.72.1.34,1.45,1.1,1.89,2.38.97.1.02.49,1.54.96,1.66.42.11,1.29-.39,1.77-.34l1.5,1.33,1.44-.66c.13.02.82,1.62,1.19,1.84.33.2,1.41-.07,1.76-.29-.06.85.98,1.46,1.73,1.45.81,0,1.29-.64,1.95-.99-.39,1.28.95,2.69,2.23,2.15.17-.07.42-.34.55-.3.6.61.63,1.45,1.46,1.83.9.41,1.19-.23,2.02-.39.06.58,1,1.58,1.6,1.41.14-.04.66-.6.78-.44l-.23.47c.58.82,1.41.92,2.36.82.19-.02.4-.19.58-.16.17.03.28.28.47.35.34.14.66,0,.86.07.39.15.72.47,1.34.6,3.31.67,4.15-1.99,5.94-3.98.52-.58,1.22-1.41,2.08-1.16.06.72-.22,1.41-.56,2.03-.24.44-2.22,3.2-2.5,3.4s-.65.1-.7.61c-.08.75.69.69,1.2.43,1.61-.81,2.24-2.13,3.46-3.06.2-.16.69-.51.89-.22.33.47-.64,1.66-.93,2.09-1.23,1.79-2.81,3.37-4.65,4.54-1.31.83-2.39,1.2-3.85,1.68-.31.1-.89.44-1.15.46-1.02.07-2.81-.48-3.95-.48-.48,0-.97.38-1.58.36s-3.78-.71-3.97-.51c-.21.71.71.52,1.09.7.14.06.17.26.37.34.59.21,1.57.13,2.17.34.26.09.33.4.54.57.66.55,1.98.41,2.84.55,1.62.27,3.27.74,4.92.87,2.4.18,5.53-2.38,6.92-4.2.54-.71.89-1.61,1.42-2.24,1.29-1.55,3.97-2.16,4.09-4.43.12-2.24-2.39-1.8-3.09-3.17-.38-.75-.79-2.87.66-2.41.9.28,1.01,2.41,2.71,2.84.64.16,1.24.02,1.84.23.06.06.08,1.54.04,1.73-.11.43-1.7,2.87-2.06,3.41-1.73,2.55-4.49,5.28-6.75,7.41-.35.33-1.62,1.45-1.96,1.63-.16.08-2.15.48-2.43.51-1.76.18-3.38.4-5.16.14-2.91-.42-5.83-1.28-8.69-2.04-6.02-1.61-11.62-3.21-17.13-6.2-1.26-.68-3.89-2.12-4.91-2.97-.46-.38-.85-.99-1.29-1.42s-2.68-1.97-2.61-2.43c.05-.33.67-1.55.86-1.94,1.01-2.13,2.28-4.15,3.14-6.35.17-.24,1.36-.83,1.56-.73.23.44.45,1.22.76,1.6ZM95.57,143.56c0-.28.26-.43.31-.71.07-.33-.12-.76-.06-1.02s.54-.25.67-.52c.15-.32-.03-.7.07-1.03-.52.17-1.41.01-1.75.54-.13.21,0,.39-.12.65-.32.73-1.73,1.63-1.69,2.43.02.48.41,1.14.8,1.43,1.24.92,3.09,2.22,4.49,2.84.9.4,1.88.61,2.8,1.02s1.77,1.13,2.83,1.21c.04-.96-1.08-.8-1.56-1.26-.17-.16-.2-.47-.35-.7-.59-.88-1.67-1.06-2.49-1.59.61-.19.43-.46.45-.99-.45-.05-.95-.13-1.22-.56.38-.49.73-.86.74-1.55-.75.35-1.72.12-1.71,1.25-.56-.05-.78-.34-.56-.88l.74-.27-.04-1.76c-.29.08-1,.14-1.05.5l.07.56c-.38.06-.84.12-.89.58l-.47-.18ZM102.92,141.76c-.27.13-.81.32-.91.62-.11.33.09.52.06.67-.07.28-.75,1.02.02,1.21.3.08.99-.54,1.08-.81.17-.51-.16-.53-.24-.86-.05-.22,0-.59,0-.83ZM108.13,145.28c-.16.18-2.12.39-2.39.25-.29-.15-.03-1.18-.15-1.56-.27-.84-.86.41-.92.85-.1.74.44,1.6.39,2.09-.06.68-.82,1.78-.58,2.35.43,1.02,2.11-.27,2.78-.44.35-.09.69-.04,1.03-.15.1-.1.53-2.36.53-2.68,0-.43-.11-1.04-.62-1.08-.03.11,0,.3-.07.38Z"/><path class="cls-1" d="M141.66,107.58c-1.08-.33-1.97-1.07-2.98-1.54-.57-.26-4.33-1.47-4.43-1.68l.06-12.82c.63-.08,1.27-.16,1.91-.15,2.7.07,6.03.91,8.55,1.86.44.17,3.47,1.44,3.49,1.65l-6.6,12.68ZM140.39,101.25c-.09-.13-.35-.17-.5-.21-1.32-.32-2.58,0-3.86-.49-.48.48-.15.73.28,1.01,1.02.66,2.36,1.12,3.41,1.76.15,0,.23-.02.32-.15.24-.35.61-1.55.34-1.92Z"/><path class="cls-1" d="M151.97,97.05c.08.17-.73,1.39-.88,1.7-1.2,2.41-2.33,4.89-3.48,7.33-.62,1.33-1.17,3.14-1.9,4.34-.26.43-.73.84-1.12,1.16-.33-1.5-1.07-2.88-2.46-3.63-.08-.17.91-2.16,1.08-2.5,1.19-2.42,2.58-4.74,3.76-7.18.22-.44,1.36-3.24,1.63-3.24l3.37,2.02Z"/><path class="cls-1" d="M132.15,104c-.67,0-1.5.48-2.16.58l-1.11-12.36c.12-.39,4.37-.7,4.99-.7l-.28,12.7c-.45-.02-1-.22-1.43-.22Z"/><path class="cls-1" d="M103.53,129.03c-.03.38.13.81.01,1.17-.1.29-1.01,1.7-1.24,2.07-.44.68-.52.99-1.37.73-.32-.1-1.63-.57-1.41-.98l1.49-2.7c1.17-.84,1.67-.43,2.53-.29Z"/><path class="cls-1" d="M146.86,109.29c.96-2.66,2.31-5.16,3.49-7.73.64-1.39,1.13-2.85,1.89-4.18.19-.09,1.89,1.36,2.17,1.6.21.19,1.29,1.08,1.22,1.28-2.9,3.03-5.48,6.41-8.76,9.03Z"/><path class="cls-1" d="M113,132.8c0,.38.21.79.13,1.17-.07.3-.84,1.79-1.04,2.18-.37.72-.42,1.03-1.3.86-.32-.06-1.68-.41-1.5-.84l1.22-2.83c.82-.19,1.62-.59,2.49-.54Z"/><path class="cls-1" d="M108.1,135.67c-.12.05-2-.61-2.26-.74-.11-.06-.18.05-.12-.17.4-.49.91-2.21,1.29-2.54.29-.25,2.09-.59,2.45-.48.3.09.42.53.34.8l-1.71,3.12Z"/><path class="cls-1" d="M112.67,137.69c-.07-.16.86-2.36,1.04-2.55.27-.28,2.13-.81,2.37-.6.09.08.13.31.13.44,0,.54-.84,2.99-1.26,3.28-.49.34-1.8-.26-2.27-.56Z"/><path class="cls-1" d="M119.27,135.48l.27,2.03-.94,2.35c-.45.26-1.89.08-1.93-.5-.01-.14.62-1.97.72-2.33.03-.12,0-.24,0-.36.04-.09.86-.48,1.04-.6.16-.11.68-.75.84-.58Z"/><path class="cls-1" d="M104.61,134.02c-.2.09-1.59-.37-1.68-.54s.56-1.65.7-1.92c.16-.31.23-.51.58-.64.19-.07,1.76-.23,1.86-.19s.12.16.12.26c.01.74-1.25,2.3-1.6,3.02Z"/><path class="cls-1" d="M102.4,138.64c-.6-1.14.22-2.3.43-3.46l1.94.54c.33.31-.54,2.22-.82,2.6l-1.55.32Z"/><path class="cls-1" d="M121.3,141.96c-.45-.35-.97-.55-1.51-.69l.76-2.85c.51,0,1.02-.25,1.35-.61.26.03.65,1.24.62,1.46-.1.81-1.11,1.85-1.21,2.7Z"/><path class="cls-1" d="M107.64,137.26c.67.73-.45,1.75-1.06,2.13-.92.58-1.06.3-1.88-.29.18-.78.75-1.49.62-2.32l.68-.2c.37.3,1.37.38,1.64.68Z"/><path class="cls-1" d="M101.86,134.04c.07.13.08.29.06.44-.15.91-.75,2.02-.86,2.98l-.9.33-.53-1.54.55-2.33c.05-.11,1.53-.09,1.68.12Z"/><path class="cls-1" d="M109.42,138.13l1.68.49c.34.87-.43,1.46-1.11,1.85-.88.51-1.75.81-2.14-.4.53-.31,1.02-1.88,1.57-1.94Z"/><path class="cls-1" d="M128.28,140.7l1.15-2.79c2.35-1.85,1.45,2.95.05,3.05-.41.03-.82-.13-1.2-.27Z"/><path class="cls-1" d="M120.79,142.69c.05.08-.65.81-.77.92-.58.58-1.42,1.31-2.27,1.22l-.31-.68c.32-.49.6-2.41,1.37-2.25.53.11,1.36.72,1.98.79Z"/><path class="cls-1" d="M117.28,141.14c.1.16-1.55,2.73-2.21,2.54-.09-.18-.36-.4-.39-.59-.05-.32.02-2,.17-2.23.13-.21.72-.39.97-.37.43.05.95.62,1.47.64Z"/><path class="cls-1" d="M125.97,139.42c-.35-.35.89-1.96,1.03-2.42.14-.43,0-.79.1-1.17.08-.3.48.07.57.19.3.38.53,2.07.4,2.55-.12.46-.53.73-.76,1.13l-1.35-.28Z"/><path class="cls-1" d="M114.14,139.85c-.48,1.34-1.5,2.51-3.06,2.25-.18-.42.13-.42.31-.68s.44-.61.57-.9c.12-.27.31-1.1.44-1.2.39-.3,1.23.54,1.74.52Z"/><path class="cls-1" d="M126.37,144.56l1.36-3.23c.79.61,1.06.91.74,1.96s-.96,1.92-2.09,1.27Z"/><path class="cls-1" d="M124.36,139.2c0,.3.31.48.27.79-.1.91-1.02,1.97-1.14,2.91l-1.18-.18c.26-.51.63-.9.81-1.47.1-.33.18-1.3.3-1.49.07-.11.85-.66.95-.57Z"/><path class="cls-1" d="M126.2,140.39c.53-.04.77.88.72,1.27-.03.2-.73,1.94-.84,2.08-.21.25-1.03.34-.97-.13.02-.2.43-.75.54-1.06s.45-2.09.56-2.16Z"/><path class="cls-1" d="M99.24,134.12c0,1.23-.56,1.88-1.46,2.6-.28-.31-.36-1.23-.19-1.58.09-.18,1.39-.86,1.66-1.03Z"/><path class="cls-1" d="M120.71,145.81c-.3-.28.74-1.33.9-1.7.12-.29.17-.55.2-.86l.97.3c.12.12.06.14.01.26-.13.31-1.43,1.83-1.72,1.96-.13.06-.22.09-.36.04Z"/><path class="cls-1" d="M124.84,144.63c-.03.24-.06.49-.12.73-.76,2.92-1.94.27-.59-1.04l.71.31Z"/><path class="cls-1" d="M105.29,125.75c-.1.29-.33.34-.41.69-.08.31.05.95-.01,1.06-.09.15-.99.71-1.14.53.08-.21-.1-.44-.1-.6,0-.47,1.4-1.03,1.27-1.75l.39.06Z"/><path class="cls-1" d="M101.06,128.23l-1.07,1-1.62,2.03c.03-.2.03-.42.12-.61.05-.11,1.26-1.9,1.35-1.98.29-.28.82-.45,1.22-.42Z"/><path class="cls-1" d="M126.12,145.48l.27-.11c.21.11.47.14.68.21.14.05.16-.06.13.17-.1.69-.64,1.09-1.3,1.17l.22-1.43Z"/><path class="cls-1" d="M103.19,126.23c0,.2-.21.33-.24.52s.13.4.05.59c-.06.15-.8.58-.92.53-.11-.16-.33-.49-.25-.67.03-.06.9-.77,1.04-.87.11-.08.16-.17.32-.1Z"/><path class="cls-1" d="M102.05,125.76l-.41,1.35-.91.07c0-.71.69-1.27,1.33-1.41Z"/><path class="cls-1" d="M97.24,131.99c.11.33-.96,1.09-1.06.95l.27-1.07.79.12Z"/><path class="cls-1" d="M98.79,128.49c-.18.39-.52,1.06-.8,1.36-.11.12-.16.25-.35.18.28-.46.58-.93.87-1.38.09-.14.02-.25.27-.16Z"/><path class="cls-5" d="M119.05,92.41c-.19.14-.33.52-.6.56l-1.53-.33c-.32-.29-.03-.62.22-.86,1.52-1.5,5.46-3.31,7.55-3.81.77-.18,1.51-.16,2.24-.3,1.01-.19,1.83-.67,2.99-.83,8.57-1.21,16.62-.53,23.75,4.81.54.4.92.95,1.41,1.33,1.27,1.02,2.55,1.76,3.8,2.91,1.99,1.82,5.41,5.64,6.46,8.06,1.05,2.41,2.29,5.7,3.03,8.21,1.16,3.92.88,8.19.67,12.22-.26,4.93-1.23,9.59-3.59,13.98-.21.39-1.06,1.76-1.35,1.99-.34.27-1.08.26-1.42,0-.16-.33.63-1.4.81-1.78,1.75-3.84,3.58-9.54,3.96-13.72.15-1.57-.21-1.32-.51-2.43-.12-.44.05-1.89-.01-2.53-.38-3.85-2.18-10.5-3.86-13.99-.82-1.71-4.4-4.68-5.93-6.08-2.61-2.37-5.12-4.75-8.3-6.36-6.12-3.09-11.07-3.76-17.87-3.87-3.43-.06-9.07.79-11.9,2.84Z"/><path class="cls-5" d="M101.6,109.78c-.81-1.35,1.13-3.51,1.8-4.58.83-1.32,2.53-4.68,3.75-5.4,2.1-1.24,7.4-1.26,9.38.12.77.53,1.59,1.69,1.84,2.59s.28,3.04-.13,3.81c-.63,1.19-4.81,4.31-6.13,4.66-1.93.52-5.07.23-7.06.05-.56-.05-1.82-.12-2.29-.25-.37-.1-.99-.71-1.17-1.02ZM110.79,102.96c-3.46-.08-4.36,5.1-.66,5.43.52.05,1.54-.02,2.01-.25.8-.4,1.51-1.87,1.26-2.75-.33-1.18-1.29-2.4-2.6-2.43Z"/><path class="cls-5" d="M125.02,99.18c.22-.02.76.39.74.66-.05.34-1.84.94-1.77,1.72.03.28.6,1.03.48,1.29-.99.61-1.3,1.85-2.06,2.58-.82.78-1.63-.81-1.37-1.49.09-.24.4-.49.44-.71.09-.53-.41-1.24-.04-1.99.47-.96,2.69-1.55,3.58-2.06Z"/><path class="cls-5" d="M119.38,130.84l1.19-.03.48-1.02.36.17c.08.33-.21.72-.22.99,0,.32.49,1.23.58,1.68.29,1.38-.14,2.05-.75,3.22-.9-.57-.15-1.81-.24-2.67-.02-.14-.56-1.41-.64-1.46-.18-.12-.46-.13-.68-.14-.1.54-.63.67-.96,1.02-.19.2-.73,1.21-.86,1.22-.46-.3-.67-.81-.55-1.35.07-.34.38-.61.43-.84.06-.33-.14-.75,0-1.22.1-.35.41-.39.5-.65.08-.23-.01-1.3.13-1.42.18-.02.19.1.27.19.47.48.67,1.67.97,2.32Z"/><path class="cls-5" d="M130.67,127c-.26.1-1.03-.38-1.28-.56-1.31-.94-4.25-3.96-4.97-5.38-.14-.27-.34-.58-.27-.9.57.36.94.93,1.44,1.35,1.03.86,2.46,1.62,3.54,2.49.65.53,2.11,1.69,1.82,2.6-.02.07-.24.38-.28.4Z"/><path class="cls-5" d="M139.13,129.16c.24.38,0,1.69.16,2.29.07.29.53,1.22.7,1.5.5.81,1.28,1.25.94,2.42-.98-.3-1.47-1.37-2.56-1.4-.42,0-.98.34-1.15-.31-.2-.77.99-2.05,1.25-2.89.18-.58.11-1.23.4-1.78.01,0,.23.13.25.17Z"/><path class="cls-5" d="M112.47,130.34l-.25.1c-.07-.09-.25-.18-.3-.27-.15-.3.12-2.96.32-3.25.41-.63,2.42-.58,3.1-.8.29-.09,1.2-.88,1.15-.23-.04.53-.64.87-.85,1.24-.09.16-.07.36-.15.51-.35.7-2.71.68-2.78,1.11l-.24,1.58Z"/><path class="cls-5" d="M141.86,123.91c1.07-.05.74.94.2,1.47-.95.95-2.98,1.08-4.23.82-.44-.09-.98-.22-.72-.75.18-.37,1.52-.09,2.03-.22.78-.21,1.87-1.28,2.72-1.32Z"/><path class="cls-5" d="M124.01,130.95c-.41.9.15,1.96.31,2.88.04.23.24,1.47.21,1.59-.07.31-1.02,1.16-1.33,1.07-.34-.11.36-.77.35-.96-.11-.96-1.01-3.06-.85-3.92.08-.46.88-.97,1.3-.65Z"/><path class="cls-5" d="M109.88,114.09c-.07.07-.25.08-.35.17-.79.74-1.41,1.56-1.76,2.6,0,.11-.2.05-.25.02-.47-.29.14-1.67.16-2.13l-.13-.17-.52-.14v-.36s3.06-.74,3.06-.74c.25.19-.02.58-.2.74Z"/><path class="cls-5" d="M119.34,95.86c.15,0,.39.4.47.53.76,1.14,1.39,2.63,2.03,3.83-.5.61-.85-.37-1.07-.78-.57-1.06-.99-2.27-1.53-3.35-.14-.1.02-.24.09-.24Z"/><path class="cls-5" d="M115.53,131.52c-.04.11-.5.78-.57.77l-.4-.43c.32-.64.28-1.35.33-2.04.18-.36.92-.14.88.12-.07.45-.11,1.18-.24,1.58Z"/><path class="cls-5" d="M95.57,143.56l.47.18c.05-.46.52-.52.89-.58l-.07-.56c.05-.36.76-.41,1.05-.5l.04,1.76-.74.27c-.22.53,0,.83.56.88,0-1.13.96-.91,1.71-1.25,0,.68-.36,1.05-.74,1.55.27.42.76.51,1.22.56-.02.53.16.79-.45.99.82.53,1.89.72,2.49,1.59.16.23.19.54.35.7.48.46,1.61.31,1.56,1.26-1.06-.09-1.89-.8-2.83-1.21s-1.9-.62-2.8-1.02c-1.4-.62-3.25-1.92-4.49-2.84-.39-.29-.78-.95-.8-1.43-.04-.8,1.37-1.7,1.69-2.43.12-.26-.01-.45.12-.65.34-.53,1.23-.37,1.75-.54-.1.33.07.71-.07,1.03-.13.28-.61.26-.67.52s.12.69.06,1.02c-.06.28-.31.42-.31.71Z"/><path class="cls-5" d="M108.13,145.28c.07-.08.04-.27.07-.38.5.05.62.65.62,1.08,0,.32-.44,2.58-.53,2.68-.34.11-.68.06-1.03.15-.67.17-2.36,1.46-2.78.44-.24-.57.52-1.67.58-2.35.04-.49-.49-1.34-.39-2.09.06-.44.65-1.69.92-.85.12.37-.14,1.4.15,1.56.27.14,2.23-.06,2.39-.25Z"/><path class="cls-5" d="M102.92,141.76c0,.24-.05.61,0,.83.08.33.41.35.24.86-.09.27-.78.88-1.08.81-.77-.19-.08-.94-.02-1.21.04-.15-.16-.34-.06-.67.1-.3.64-.5.91-.62Z"/><path class="cls-5" d="M140.39,101.25c.27.37-.1,1.57-.34,1.92-.09.13-.17.15-.32.15-1.05-.64-2.39-1.1-3.41-1.76-.43-.28-.77-.53-.28-1.01,1.28.49,2.54.17,3.86.49.15.04.4.08.5.21Z"/><path class="cls-5" d="M137.76,117.01c.76-.1,1.67.42,1.77,1.21.12.93-1.06,2.15-2.04,1.67-.22-.11-.85-.8-.89-1.03-.06-.44.65-1.79,1.15-1.85Z"/><path class="cls-3" d="M110.79,102.96c1.31.03,2.27,1.25,2.6,2.43.25.88-.46,2.35-1.26,2.75-.47.24-1.49.3-2.01.25-3.7-.33-2.8-5.51.66-5.43ZM110.56,104.44c-2.18.04-1.45,3.72.89,2.52.28-.14.37-.26.46-.57.33-1.17-.02-1.98-1.35-1.95Z"/><path class="cls-5" d="M110.56,104.44c1.32-.02,1.67.78,1.35,1.95-.09.31-.18.43-.46.57-2.34,1.2-3.07-2.49-.89-2.52Z"/><path class="cls-5" d="M105.7,129.44s-1.79,1.1-2.07,1.29c-.64.42-2,1.13-2.6,1.6-.39.3-1.4,1.37-1.4,1.37l-1.98-1.59s3.27-1.76,4.22-2.37c.48-.31,1.9-1.26,1.9-1.26l1.93.96Z"/><path class="cls-2" d="M81.12,144.31c-.66.62-1.06,1.02-.79,1.97.13.46.49,1.14,1.02,1.17.18,0,.34-.14.48-.08-.06.32-1.78,1.56-1.93,1.37l.49-.67c-.62-1.09-1.33-2.1-.59-3.35.52-.87,3.14-2.27,4.09-2.9,6.7-4.48,13.58-8.64,20.4-12.94,9.05-5.71,18.07-11.47,27.17-17.1.39.22.63.68.15.94-.21.11-.34-.09-.57-.09-.35,0-3.11,1.78-3.64,2.1-15.59,9.6-30.71,19.96-46.29,29.57Z"/><path class="cls-4" d="M241.5,102.71c0,2.95-.98,5.43-2.94,7.44-1.96,2.01-4.42,3.02-7.37,3.02-1.25,0-2.42-.29-3.49-.86v3.53c0,.91.31,1.59.94,2.04.63.44,1.41.61,2.35.51v2.78c-.71.23-1.5.35-2.39.35-1.78,0-3.16-.63-4.15-1.88-1.28,1.25-3.06,1.88-5.33,1.88-.47,0-.94-.04-1.41-.12v-2.55c.84,0,1.54-.24,2.12-.72s.86-1.13.86-1.94v-17.12c0-.94-.24-1.71-.71-2.31-.55-.68-1.28-1-2.2-.98v-3.13c.47-.08,1.03-.12,1.69-.12,2.32,0,4.02.67,5.09,2,2.14-1.54,4.34-2.31,6.58-2.31,2.98,0,5.45,1.01,7.41,3.02,1.96,2.01,2.94,4.51,2.94,7.48ZM222.97,114.03v-13.17c0-2.17-.42-3.67-1.25-4.51.34.55.51,1.65.51,3.29v13.71c0,2.09-.26,3.41-.78,3.96,1.02-.34,1.53-1.44,1.53-3.29ZM234.88,101.93c0-.57-.03-1.08-.08-1.53-.11-.94-.47-1.89-1.1-2.86-.74-1.18-1.54-1.76-2.4-1.76-1,0-1.88.35-2.64,1.04-.76.69-1.14,1.52-1.14,2.49v9.09c.63.34,1.35.51,2.16.51,1.8,0,3.16-.76,4.07-2.27.76-1.23,1.14-2.79,1.14-4.7ZM237.47,101.94c0-2.09-.82-4.07-2.47-5.93,1.07,1.89,1.61,4.02,1.61,6.41s-.73,4.6-2.2,6.48c.89-.84,1.62-1.91,2.2-3.2.57-1.3.86-2.55.86-3.75Z"/><path class="cls-4" d="M269.91,112.23c0,2.79-1.15,5.11-3.45,6.93-2.14,1.72-4.64,2.59-7.48,2.59-1.28,0-2.71-.33-4.29-.98-1.58-.65-2.32-.98-2.21-.98-.42,0-.57.38-.47,1.14h-2.98l-.43-10.34,2.78-.2c.47,1.62,1.48,3.28,3.02,4.98,1.72,1.91,3.32,2.86,4.78,2.86,1.15,0,2.15-.39,3.02-1.17.86-.78,1.29-1.75,1.29-2.9,0-1.93-1.32-3.28-3.96-4.04-4.83-1.38-7.3-2.1-7.4-2.16-2.64-1.36-3.96-3.71-3.96-7.05,0-2.64.99-4.78,2.98-6.43,1.86-1.54,4.14-2.31,6.86-2.31,2.51,0,5.08.71,7.72,2.12l.43-1.41,2.23.31.43,9.33-2.35.2c-1.12-4.96-3.38-7.45-6.78-7.45-1.2,0-2.23.47-3.09,1.41-.86.94-1.29,2.02-1.29,3.25,0,.97.79,1.75,2.39,2.35,1.67.47,3.34.94,5.02,1.41,2.12.63,3.59,1.37,4.43,2.23,1.86,1.91,2.78,4.01,2.78,6.31ZM265.48,112.9c0-3.03-2.72-4.94-8.15-5.72-1.93-.29-3.54-1.07-4.82-2.35-1.38-1.33-2.09-2.95-2.12-4.86-.11.55-.16,1.07-.16,1.57,0,1.8.65,3.25,1.96,4.35.96.84,2.43,1.53,4.39,2.08,1.59.39,3.19.78,4.78,1.18.84.24,1.63.92,2.39,2.06.76,1.14,1.14,2.15,1.14,3.04,0,.42-.05.84-.16,1.25.5-.89.75-1.75.75-2.59Z"/><path class="cls-4" d="M304,92.52v3.13c-.91.03-1.89.45-2.93,1.26-.86.68-1.59,1.47-2.19,2.36l-6.13,9.41v7.21c0,.74.34,1.35,1.02,1.85.68.5,1.45.72,2.31.67v2.6c-.79.25-1.65.38-2.59.38-1.99,0-3.36-.72-4.12-2.16-1.2,1.44-2.85,2.16-4.94,2.16-.78,0-1.58-.13-2.39-.39v-2.59h.16c.86,0,1.59-.22,2.17-.65s.88-1.07.88-1.9v-6.59l-6.15-10.2c-.81-1.33-1.25-2.07-1.33-2.2-.68-.86-1.37-1.3-2.08-1.3h-.47v-2.95c.76-.18,1.61-.27,2.55-.27,2.27,0,3.79.65,4.54,1.96.84-1.31,2.31-1.96,4.43-1.96.55,0,1.12.05,1.72.16l-.04,3.05c-.42-.21-.78-.31-1.1-.31-.76,0-1.14.28-1.14.83,0,.4.67,1.71,2,3.93.86,1.32,1.71,2.66,2.55,4.01.81-1.1,1.63-2.21,2.47-3.33,1.25-1.83,1.88-3.12,1.88-3.88,0-1.07-.9-1.51-2.7-1.33v-2.82c.75-.13,1.57-.2,2.45-.2,2.18,0,3.52.55,4.01,1.65,1.38-1.15,2.92-1.7,4.63-1.65l.51.04ZM287.78,115.2v-7l-6.19-10.54c-.26-.45-.67-.93-1.21-1.46-.63-.58-1.15-.89-1.57-.94.6.24,2.01,2.29,4.23,6.17,1.33,2.36,2.66,4.73,4,7.12.05,1.47.08,2.52.08,3.15,0,3.59-.34,5.61-1.02,6.05,1.12-.45,1.69-1.3,1.69-2.56Z"/><path class="cls-4" d="M330.8,112.39c-.31,2.59-1.55,4.8-3.72,6.64s-4.56,2.76-7.17,2.76c-3.87,0-6.94-1.44-9.21-4.31-2.14-2.64-3.21-5.96-3.21-9.95s.94-7.68,2.82-10.5c2.17-3.24,5.24-4.86,9.21-4.86,2.2,0,4.43.64,6.7,1.92l.74-1.29,2.39.16v9.56h-2.31c-1.07-4.68-3.13-7.01-6.19-7.01-2.27,0-3.98,1.36-5.13,4.08-.89,2.04-1.33,4.36-1.33,6.97s.46,5.11,1.37,7.17c1.2,2.72,2.99,4.08,5.37,4.08,1.72,0,3.24-.67,4.54-2,1.2-1.23,1.97-2.72,2.31-4.47l2.82,1.06ZM314.66,118.89c-1.38-1.38-2.5-3.26-3.33-5.64-.76-2.19-1.14-4.35-1.14-6.47,0-3.13.74-6.32,2.23-9.56-2.12,2.14-3.17,5.37-3.17,9.68,0,2.46.41,4.7,1.21,6.74.94,2.35,2.34,4.1,4.19,5.25Z"/><path class="cls-4" d="M360.34,111.33l-2.43,10.03h-2.74l-.67-1.25c-2.01.84-4.1,1.25-6.27,1.25-2.46,0-4.34-.72-5.64-2.16-1.18,1.44-2.61,2.16-4.31,2.16-.68,0-1.36-.14-2.04-.43v-2.78c1.1,0,1.97-.45,2.63-1.36.57-.81.86-1.77.86-2.88v-15.05c0-1.95-1.21-3.09-3.64-3.43v-2.74c.52-.11,1.14-.16,1.84-.16,2.25,0,3.98.64,5.21,1.92,1.18-1.28,2.89-1.92,5.13-1.92.47,0,.94.04,1.41.12v2.78h-.12c-.99-.05-1.77.25-2.33.91-.56.66-.84,1.51-.84,2.55v16.61c1.04.62,2.29.93,3.72.93,3.34,0,5.99-2.1,7.96-6.31l2.27,1.21ZM342.28,113.84v-13.17c0-.71-.12-1.5-.36-2.39-.27-.99-.61-1.7-1.01-2.12.31.55.47,1.65.47,3.29v13.71c0,2.09-.26,3.41-.78,3.96,1.12-.34,1.69-1.44,1.69-3.29Z"/><path class="cls-4" d="M388.59,111.88l-.71,9.48h-2.12l-1.06-1.8c-2.12,1.2-4.4,1.8-6.86,1.8s-4.4-.74-6.07-2.23c-1.67,1.49-3.42,2.23-5.25,2.23-.45,0-.88-.06-1.29-.2v-2.9c.81,0,1.42-.48,1.84-1.45.34-.73.51-1.55.51-2.46v-14.3c0-1.3-.22-2.38-.67-3.24-.58-1.15-1.47-1.63-2.66-1.45v-2.85l.78-.04c3.19-.08,5.07.59,5.64,2,1.93-1.33,4.04-2,6.31-2,.84,0,1.92.2,3.25.61s2.27.61,2.82.61c.96,0,1.53-.41,1.68-1.21l2.16,1.05.04,6.01-2.23.7c-.26-1.28-.95-2.31-2.08-3.1-1.12-.78-2.35-1.17-3.68-1.17-1.88,0-3.17.52-3.88,1.57-.5.78-.74,2.05-.74,3.8v1.61c.03.71.04,1.25.04,1.65.47.21.98.31,1.53.31,1.78,0,2.72-1.29,2.82-3.88l2.74.12c.03.21.04.48.04.82,0,2.59-.57,4.02-1.72,4.31,1.23.92,1.91,2.38,2.04,4.39h-3.13c-.37-.93-.68-1.53-.94-1.81-.42-.41-1.08-.62-2-.62-.6,0-1.04.19-1.33.58,0,2.85.09,4.7.28,5.56.49,2.36,1.7,3.54,3.6,3.54,2.06,0,3.72-.54,4.98-1.64,1.36-1.14,2.08-2.74,2.15-4.79l3.17.39ZM370.17,101.07c0-.73-.1-1.53-.31-2.39-.26-.99-.59-1.7-.98-2.12.31.55.47,1.65.47,3.29v13.71c0,2.09-.26,3.41-.78,3.96,1.07-.34,1.61-1.44,1.61-3.29v-13.17Z"/><path class="cls-4" d="M417.55,112.23c0,2.79-1.15,5.11-3.45,6.93-2.14,1.72-4.64,2.59-7.48,2.59-1.28,0-2.71-.33-4.29-.98-1.58-.65-2.32-.98-2.21-.98-.42,0-.57.38-.47,1.14h-2.98l-.43-10.34,2.78-.2c.47,1.62,1.48,3.28,3.02,4.98,1.72,1.91,3.32,2.86,4.78,2.86,1.15,0,2.15-.39,3.02-1.17.86-.78,1.29-1.75,1.29-2.9,0-1.93-1.32-3.28-3.96-4.04-4.83-1.38-7.3-2.1-7.4-2.16-2.64-1.36-3.96-3.71-3.96-7.05,0-2.64.99-4.78,2.98-6.43,1.86-1.54,4.14-2.31,6.86-2.31,2.51,0,5.08.71,7.72,2.12l.43-1.41,2.23.31.43,9.33-2.35.2c-1.12-4.96-3.38-7.45-6.78-7.45-1.2,0-2.23.47-3.09,1.41-.86.94-1.29,2.02-1.29,3.25,0,.97.79,1.75,2.39,2.35,1.67.47,3.34.94,5.02,1.41,2.12.63,3.59,1.37,4.43,2.23,1.86,1.91,2.78,4.01,2.78,6.31ZM413.12,112.9c0-3.03-2.72-4.94-8.15-5.72-1.93-.29-3.54-1.07-4.82-2.35-1.38-1.33-2.09-2.95-2.12-4.86-.11.55-.16,1.07-.16,1.57,0,1.8.65,3.25,1.96,4.35.96.84,2.43,1.53,4.39,2.08,1.59.39,3.19.78,4.78,1.18.84.24,1.63.92,2.39,2.06.76,1.14,1.14,2.15,1.14,3.04,0,.42-.05.84-.16,1.25.5-.89.75-1.75.75-2.59Z"/><path class="cls-4" d="M448.15,112.39c-.31,2.59-1.55,4.8-3.72,6.64-2.17,1.84-4.56,2.76-7.17,2.76-3.87,0-6.94-1.44-9.21-4.31-2.14-2.64-3.21-5.96-3.21-9.95s.94-7.68,2.82-10.5c2.17-3.24,5.24-4.86,9.21-4.86,2.19,0,4.43.64,6.7,1.92l.75-1.29,2.39.16v9.56h-2.31c-1.07-4.68-3.13-7.01-6.19-7.01-2.27,0-3.98,1.36-5.13,4.08-.89,2.04-1.33,4.36-1.33,6.97s.46,5.11,1.37,7.17c1.2,2.72,2.99,4.08,5.37,4.08,1.72,0,3.24-.67,4.55-2,1.2-1.23,1.97-2.72,2.31-4.47l2.82,1.06ZM432.01,118.89c-1.38-1.38-2.49-3.26-3.33-5.64-.76-2.19-1.14-4.35-1.14-6.47,0-3.13.74-6.32,2.23-9.56-2.12,2.14-3.17,5.37-3.17,9.68,0,2.46.4,4.7,1.21,6.74.94,2.35,2.34,4.1,4.19,5.25Z"/><path class="cls-4" d="M484.78,118.7v2.7c-.21.05-.5.08-.86.08-2.48,0-4.3-.72-5.45-2.15-1.44,1.36-3.46,2.04-6.07,2.04-.45,0-.88-.03-1.29-.08v-2.59c.81,0,1.54-.12,2.19-.35.91-.31,1.37-.78,1.37-1.41,0-.37-.23-.99-.71-1.88-.34-.57-.68-1.16-1.02-1.76h-12.15c-.68,1.63-1.02,2.66-1.02,3.09,0,1.64,1.2,2.43,3.61,2.37v2.61c-.37.08-.81.12-1.33.12-1.8,0-3.21-.57-4.23-1.72-1.54,1.15-3.11,1.72-4.7,1.72-.6,0-1.16-.12-1.69-.35v-2.55c1.91-.08,3.21-.94,3.92-2.59,1.41-3.27,2.83-6.55,4.27-9.85,2.35-5.52,3.53-8.6,3.53-9.22,0-.81-.52-1.22-1.57-1.22h-.98l.04-3.06c.52-.13,1.15-.19,1.88-.19,2.4,0,4.19.78,5.37,2.35.52-.74,1.32-1.33,2.39-1.75.97-.4,1.95-.6,2.94-.6.55,0,1.1.05,1.65.16v2.84c-.65.03-1.21.2-1.69.51-.57.37-.86.85-.86,1.46,0,.39.13.84.39,1.34l8.89,17.2c1.02,1.96,2.08,2.87,3.17,2.74ZM470.61,109.14l-4.45-8.84-3.52,8.84h7.97ZM476.56,116.35c0-1.07-.21-2.01-.62-2.83l-7.01-14.07c-.26-.47-.8-.91-1.62-1.33l9.25,18.22Z"/><path class="cls-4" d="M514.72,102.71c0,2.95-.98,5.43-2.94,7.44-1.96,2.01-4.41,3.02-7.37,3.02-1.25,0-2.42-.29-3.49-.86v3.53c0,.91.31,1.59.94,2.04.63.44,1.41.61,2.35.51v2.78c-.71.23-1.5.35-2.39.35-1.78,0-3.16-.63-4.15-1.88-1.28,1.25-3.06,1.88-5.33,1.88-.47,0-.94-.04-1.41-.12v-2.55c.84,0,1.54-.24,2.12-.72.57-.48.86-1.13.86-1.94v-17.12c0-.94-.23-1.71-.71-2.31-.55-.68-1.28-1-2.19-.98v-3.13c.47-.08,1.03-.12,1.68-.12,2.32,0,4.02.67,5.09,2,2.14-1.54,4.34-2.31,6.58-2.31,2.98,0,5.45,1.01,7.41,3.02,1.96,2.01,2.94,4.51,2.94,7.48ZM496.19,114.03v-13.17c0-2.17-.42-3.67-1.25-4.51.34.55.51,1.65.51,3.29v13.71c0,2.09-.26,3.41-.79,3.96,1.02-.34,1.53-1.44,1.53-3.29ZM508.1,101.93c0-.57-.03-1.08-.08-1.53-.11-.94-.47-1.89-1.1-2.86-.73-1.18-1.54-1.76-2.4-1.76-1,0-1.88.35-2.64,1.04-.76.69-1.14,1.52-1.14,2.49v9.09c.63.34,1.34.51,2.15.51,1.8,0,3.16-.76,4.08-2.27.76-1.23,1.13-2.79,1.13-4.7ZM510.68,101.94c0-2.09-.82-4.07-2.47-5.93,1.07,1.89,1.61,4.02,1.61,6.41s-.73,4.6-2.19,6.48c.89-.84,1.62-1.91,2.19-3.2.57-1.3.86-2.55.86-3.75Z"/><path class="cls-4" d="M543.67,111.88l-.71,9.48h-2.12l-1.06-1.8c-2.12,1.2-4.4,1.8-6.86,1.8s-4.4-.74-6.07-2.23c-1.67,1.49-3.42,2.23-5.25,2.23-.44,0-.88-.06-1.29-.2v-2.9c.81,0,1.42-.48,1.84-1.45.34-.73.51-1.55.51-2.46v-14.3c0-1.3-.22-2.38-.67-3.24-.58-1.15-1.47-1.63-2.66-1.45v-2.85l.78-.04c3.19-.08,5.07.59,5.64,2,1.93-1.33,4.04-2,6.31-2,.84,0,1.92.2,3.25.61s2.27.61,2.82.61c.97,0,1.53-.41,1.69-1.21l2.15,1.05.04,6.01-2.23.7c-.26-1.28-.96-2.31-2.08-3.1-1.12-.78-2.35-1.17-3.68-1.17-1.88,0-3.17.52-3.88,1.57-.5.78-.75,2.05-.75,3.8v1.61c.03.71.04,1.25.04,1.65.47.21.98.31,1.53.31,1.78,0,2.72-1.29,2.82-3.88l2.74.12c.03.21.04.48.04.82,0,2.59-.58,4.02-1.72,4.31,1.23.92,1.91,2.38,2.04,4.39h-3.13c-.37-.93-.68-1.53-.94-1.81-.42-.41-1.08-.62-2-.62-.6,0-1.04.19-1.33.58,0,2.85.09,4.7.27,5.56.5,2.36,1.7,3.54,3.61,3.54,2.06,0,3.72-.54,4.97-1.64,1.36-1.14,2.08-2.74,2.16-4.79l3.17.39ZM525.26,101.07c0-.73-.11-1.53-.31-2.39-.26-.99-.59-1.7-.98-2.12.31.55.47,1.65.47,3.29v13.71c0,2.09-.26,3.41-.79,3.96,1.07-.34,1.61-1.44,1.61-3.29v-13.17Z"/><path class="cls-4" d="M224.47,134.72c1.25,0,3.7,0,5.53,1.42,1.32,1.02,2.1,2.78,2.1,4.68,0,2.91-1.93,4.1-2.54,4.44,1.49.24,2.37.88,2.95,1.42,1.36,1.29,1.63,3.05,1.63,4.24,0,1.32-.37,3.19-1.93,4.58-1.7,1.49-3.76,1.83-5.73,1.83h-7.59v-22.6h5.59ZM223.29,144.1h1.25c.68,0,3.42-.07,3.42-2.95,0-2.07-1.59-2.85-3.39-2.85h-1.29v5.79ZM223.29,153.73h1.9c.81,0,2.03-.03,3.02-.61,1.08-.64,1.39-1.73,1.39-2.61,0-.71-.24-1.93-1.66-2.58-.95-.44-2.07-.44-3.02-.44h-1.63v6.24Z"/><path class="cls-4" d="M259.72,152.58h-9.12l-2,4.74h-4.78l9.73-22.6h3.46l9.46,22.6h-4.74l-2-4.74ZM258.43,148.98l-3.22-8.13-3.22,8.13h6.44Z"/><path class="cls-4" d="M281.64,134.72v18.81h6.98v3.8h-11.39v-22.6h4.41Z"/><path class="cls-4" d="M306.31,138.51v18.81h-4.4v-18.81h-5.08v-3.8h14.57v3.8h-5.08Z"/><path class="cls-4" d="M326.71,134.72v22.6h-4.41v-22.6h4.41Z"/><path class="cls-4" d="M343.04,134.72h3.19l6,14.37,6.27-14.37h3.19l3.79,22.6h-4.47l-2.03-13.93-6.07,13.93h-1.49l-5.79-13.93-2.3,13.93h-4.47l4.2-22.6Z"/><path class="cls-4" d="M400.65,146.03c0,6.88-4.95,11.79-12.06,11.79s-12.06-4.91-12.06-11.79,4.95-11.83,12.06-11.83,12.06,4.95,12.06,11.83ZM396.11,146.03c0-4.58-3.12-7.83-7.52-7.83s-7.52,3.25-7.52,7.83,3.12,7.79,7.52,7.79,7.52-3.22,7.52-7.79Z"/><path class="cls-4" d="M419.38,134.72c3.12,0,4.71.81,5.76,1.69,1.73,1.46,2.24,3.39,2.24,5.08,0,2.2-.88,4.13-2.64,5.32-.58.41-1.39.78-2.47.98l7.05,9.52h-5.49l-6.03-9.08h-.54v9.08h-4.41v-22.6h6.54ZM417.25,145.12h1.25c.85,0,4.34-.1,4.34-3.42s-3.46-3.39-4.27-3.39h-1.32v6.81Z"/><path class="cls-4" d="M452.97,138.51h-8.13v5.05h7.79v3.79h-7.79v6.17h8.13v3.8h-12.54v-22.6h12.54v3.8Z"/><path class="cls-4" d="M470.02,151.93h-.18c0-1.46-.55-2.74-1.64-3.84-1.09-1.09-2.37-1.64-3.84-1.64v-.18c1.46,0,2.74-.55,3.84-1.64,1.09-1.1,1.64-2.37,1.64-3.83h.18c0,1.46.55,2.74,1.64,3.84,1.09,1.09,2.37,1.64,3.83,1.64v.18c-1.46,0-2.74.55-3.83,1.64-1.09,1.09-1.64,2.37-1.64,3.84Z"/><path class="cls-4" d="M490.82,134.72h3.19l6,14.37,6.27-14.37h3.19l3.79,22.6h-4.47l-2.03-13.93-6.07,13.93h-1.49l-5.79-13.93-2.3,13.93h-4.47l4.2-22.6Z"/><path class="cls-4" d="M529.92,134.72c3.15,0,5.9.34,8.4,2.2,2.74,2.07,4.34,5.35,4.34,9.12s-1.56,7.01-4.54,9.12c-2.64,1.86-5.12,2.17-8.27,2.17h-5.83v-22.6h5.9ZM528.43,153.52h1.36c1.12,0,3.56-.07,5.53-1.49,1.79-1.29,2.81-3.59,2.81-6s-.98-4.68-2.78-6.03c-1.83-1.36-4.07-1.49-5.56-1.49h-1.36v15.01Z"/></svg>