<?xml version="1.0" encoding="UTF-8"?><svg id="Layer_1" xmlns="http://www.w3.org/2000/svg" viewBox="0 0 450 500"><path d="M326.25,267.92c4.09-.45,6.75,1.25,9.57,3.95,4.8,4.59,5.61,12.02,1.09,17.12-5.48,6.2-14.27,3.35-19.06,12.39-1.95,3.69-1.81,5.49-5.27,8.55-6.15,5.45-14.63,3.92-17.77-3.87-1.48-3.67-.76-11.83,2.23-14.66s10.28-3.32,14.21-5.62c6.72-3.93,4.78-16.74,14.99-17.86ZM327.85,273.94c-1.9.27-3.7,1.92-4.84,3.37-3.69,4.69.2,10.94,5.99,10.4.69-.06,3.13-1.13,3.6-1.61,3.12-3.22,1.68-8.66-1.6-11.2-1.09-.85-1.71-1.15-3.15-.95ZM303.81,294.36c-1.82.26-3.75,1.61-4.11,3.5-.74,3.92.89,8.87,5.05,10.08,2.89.84,5.71-3.3,5.7-5.9-.02-3.08-3.13-8.19-6.64-7.69Z"/><path d="M99.9,234.88c4.36-.55,10.35,3.03,12.17,6.96,1.79,3.87,1.35,5.94,1.76,9.86.44,4.13,2.92,5.71,5.97,8.05,3.26,2.51,8.44,4.71,9.9,8.73,1.67,4.59-.13,8.26-3.11,11.71-6.04,6.98-12.65,6.03-18.5-.52-4.03-4.5-2.88-12.35-6.04-17.79-2.47-4.25-9.47-5.5-11.74-10.29-3.38-7.1,2-15.75,9.6-16.71ZM100.7,240.69c-1.5.17-2.43.67-3.36,1.85-3.99,5.07.33,11.69,6.49,11.09,2.6-.25,5.68-2.62,5.53-5.47-.24-4.65-4-8-8.66-7.46ZM118.74,266.73c-4.15.25-6.3,3.62-5.75,7.63.23,1.67,3.27,4.13,4.88,4.33,3.17.4,6.7-1.74,6.91-5.11.24-3.9-1.94-7.09-6.05-6.85Z"/><path d="M242.24,314.21c5.19-3.73,13.21-.01,19.22-3.32,3.69-2.03,5.29-4.78,8.26-7.17,6.79-5.47,16.39-1.94,18.71,6.32,1.88,6.67-.35,12.27-6.21,15.79-6.25,3.75-10.73-.22-17.02,1.21-7.08,1.61-9.92,10.73-18.33,8.13-2.14-.66-4.07-2.01-5.49-3.72-3.47-4.17-3.94-13.79.87-17.24ZM277.38,309.19c-2.51.23-3.71.91-4.8,3.21-1.4,2.95-.5,6.3,2.38,7.91,5.69,3.17,11.34-2.67,8.24-8.23-1.31-2.35-3.18-3.13-5.81-2.88ZM249.12,316.79c-4.22.79-6.72,6.17-3.95,9.66,5.25,6.62,15.31,1.53,11.71-6.5-1.14-2.53-5.21-3.64-7.76-3.16Z"/><path d="M354.9,213.86c6.85-.17,12.36,4.83,11.87,11.87-.49,7.04-8.17,9.08-10.38,15.86-1.31,4.02.2,5.53.53,9.19.72,7.95-6.33,14.91-14.41,12.8-1.29-.33-1.46-.97-2.32-1.48-2.12-1.25-3.75-1.57-5.04-3.97-3.39-6.32-1.41-12.71,3.67-17.29,1.26-1.14,2.63-1.75,3.81-3.2,3.52-4.3,1.45-7.21,1.1-11.92-.59-8.08,3.4-11.66,11.17-11.85ZM353.69,218.45c-.94.16-3.85,1.98-4.2,2.81-.25.57-.22,2.38-.16,3.06.39,4.44,5.3,6.72,9.22,5,2.12-.93,2.62-3.06,2.62-5.21,0-3.45-4.25-6.22-7.48-5.66ZM346.23,246.55c-2.2-.04-5.93,2.24-6.71,4.41.29,2.37.19,4.4,2.59,5.61,3.48,1.76,7.88.34,8.37-3.87.3-2.56-1.36-6.1-4.25-6.15Z"/><path d="M136.96,284.35c4.02-.39,8.81,2.33,11.45,5.25,1.79,1.98,5.09,8.4,7.23,9.2,3.84,1.43,8.78,1.12,12.85,2.37,3.61,1.11,7.71,3.69,8.64,7.59,2.6,10.97-10.97,21.76-19.4,12.19-4.08-4.63-4.24-9.62-11.18-12.06-3.86-1.35-10.46-.36-13.82-2.8-8.04-5.83-6.79-20.68,4.23-21.74ZM138.17,289.35c-7.66.54-5.47,14.62,2.89,12.72,1.83-.42,4.59-2.5,4.76-4.45.38-4.37-3.15-8.59-7.66-8.27ZM164.8,306.98c-5.29.77-6.84,8.57-1.42,11.33,7.21,3.66,11.6-6.02,7.14-9.54-1.45-1.15-3.87-2.05-5.72-1.78Z"/><path d="M328.46,100.71c6.63-.68,12.21,2.4,13.23,9.28.51,3.44.31,5.69,1.74,9.08,2.47,5.88,5.6,5.56,9.71,9.32,4.36,3.98,7.58,9.87,4.13,15.55-4.38,7.2-16.61,5.21-20.53-1.36-2.56-4.29-2.41-6.69-2.82-11.4-.85-9.57-8.56-8.78-13.33-14.71-2.45-3.05-2.03-8.46-.06-11.68,1.24-2.01,5.61-3.85,7.93-4.09ZM329.67,105.11c-8.14.37-5.94,13.93,2.3,10.72,6.07-2.36,4.41-11.02-2.3-10.72ZM345.08,131.54c-3.3.45-5.9,3.94-5.35,7.25.15.89,2.34,2.26,3.19,2.62,4.36,1.87,9.73-.57,9-5.8-.19-1.35-1.6-2.61-2.73-3.28-1.4-.83-2.48-1.01-4.11-.79Z"/><path d="M280.38,63.46c4.46-.46,6.92.64,9.54,4.16,1.7,2.28,3.02,4.83,5.23,6.79,5.98,5.29,15.23,1.2,21.93,7.91,7.29,7.3,1.02,18.58-8.92,18.34-6.85-.17-8.82-4.99-11.75-9.89-4.91-8.22-18.81-3.49-23.68-10.37-4.9-6.91-.73-16.08,7.65-16.95ZM279.78,67.85c-9.46,1.29-3.71,15.09,4.99,10.6,3.77-1.95,2.61-5.93.26-8.54-1.6-1.78-2.79-2.39-5.25-2.06ZM307.23,83.67c-1.98.08-4.3,1.81-4.92,3.71-1.21,3.75,1.74,8.58,5.85,8.25,4.74-.38,7.42-4.47,5.02-8.82-1.24-2.25-3.4-3.25-5.95-3.15Z"/><path d="M105.92,118.73c7.77-.51,13.89,7.49,11.09,14.9-2.64,6.99-11.49,7.68-11.47,15.79.01,4.27,1.35,8.52-1.14,12.46-3.48,5.5-11.05,7.24-15.88,2.37-4.47-4.52-4.46-9.92-.59-14.82,2.09-2.65,5.87-4.58,7.21-7.61,2.48-5.59.38-11.86,2.57-16.66,1.78-3.91,3.68-6.12,8.21-6.41ZM106.3,124.53c-3.15.53-3.81,5.24-2.39,7.7,3.11,5.37,10.13.74,7.4-4.99-.81-1.69-3.13-3.02-5.01-2.71ZM95.29,151.16c-1.45.25-3.37,2.12-3.99,3.42-.84,1.75-1.02,3.16,0,4.88,1.26,2.14,4.01,2.7,6.19,1.7,5.71-2.62,3.32-10.95-2.19-10Z"/><path d="M353.69,157.18c7.78-1.05,15.78,4.29,13.07,12.87-1.39,4.41-4.86,5.55-3.47,10.87,1.24,4.74,6.82,8.62,6.22,13.91-.99,8.74-10.11,13.59-17.76,8.64-5.38-3.48-6.56-8.13-4.06-14.04.9-2.13,2.76-4.48,3.02-6.8.43-3.84-3.75-7.48-5.08-10.9-2.61-6.7.74-13.57,8.06-14.56ZM354.89,162.18c-3.87.5-5.1,2.89-4.51,6.61s4.53,3.47,7.42,4.12c3.67-1.2,4.31-6.99,1.33-9.26-1.3-.99-2.58-1.68-4.24-1.46ZM356.5,188.82c-5.6.81-5.66,8.43-1.4,10.51,4.56,2.22,9.62.37,9.06-5.25-.41-4.13-3.8-5.82-7.66-5.26Z"/><path d="M219.69,50.84c5.89-.11,6.89,3.37,11.05,5.46,6.63,3.34,12.54-3.12,19.54-2.92,7.19.2,12.52,6.74,10.21,13.83-2.05,6.28-5.55,9.28-12.39,8.59-7.37-.74-9.75-10.12-19.11-6.84-4.36,1.53-5.89,3.49-11.16,3.48-3.64,0-6.02-.87-7.46-4.37-3.14-7.64.14-17.05,9.33-17.22ZM218.68,56.04c-1.65.23-3.38,1.33-4.36,2.65-4.47,6.08,6.38,12.14,10.21,6.81.87-1.21,1.61-4.73,1.15-6.15-.92-2.82-4.35-3.67-7-3.31ZM254.52,61.46c-2.87-3.31-9.09-1.78-10.73,2.06-1.19,2.77-.78,4.91,1.68,6.69,3.73,2.69,11.5-.96,10.47-5.86-.09-.43-1.13-2.55-1.42-2.89Z"/><path d="M192.05,314.4c7.29-.67,10.32,5.58,17.32,4.7,1.27-.16,2.49-.84,3.67-1.14,3.95-1.01,10.71-2.41,14.21.19,7.44,5.53,3.77,17.23-4.17,20.06-7.08,2.53-11.35-4.77-18.07-4.85-3.49-.04-6.49,1.64-9.66,2.55-15.9,4.57-17.47-20.21-3.29-21.51ZM193.25,319.2c-3.98.43-6.64,4.1-4.6,7.89,2.28,4.25,8.79,3.71,10.6-.69.95-2.29.92-3.63-.95-5.37-1.29-1.2-3.28-2.03-5.06-1.84ZM220.23,321.46c-5.66-.08-8.09,7.12-3.6,10.7,3.8,3.03,9.06,1.71,9.86-3.35.63-3.97-2.29-7.29-6.26-7.35Z"/><path d="M89.89,179.01c7.39-.76,10.82,5.66,10.25,12.25-.46,5.27-3.48,7.08-1.35,12.97,2.25,6.22,6.84,12.31,1.84,18.96-2.83,3.77-11.28,5.11-15,2.21-5.29-4.12-3.81-9.64-1.86-15.07.49-1.37,1.43-2.68,1.67-4.14,1.3-8.26-6.14-11.83-4.63-20.05.68-3.72,5.52-6.77,9.08-7.14ZM90.89,184.2c-1.48.16-3.59,2.07-4.27,3.36-.81,1.53-.74,4.07.4,5.42,1.49,1.76,5.42,1.84,7.02.2,2-2.05,1.76-5.81-.2-7.82-.57-.58-2.14-1.25-2.95-1.16ZM92.29,212.44c-4.27.41-6.84,7.57-1.77,8.88,1.6.41,5.22.08,6.3-1.32,2.69-3.49-.2-7.97-4.54-7.56Z"/><path d="M141.76,74.66c2.38-.33,3.41.22,5.36,1.34,5.32,3.06,8.2,7.22,5.66,13.48-1.66,4.09-6.88,5.95-10.81,7.21-2.71.87-5.14.58-6.85,3.16-4.24,6.41-2.83,15.67-13.82,14.38-7.62-.89-9.9-9.4-7.37-15.74,2.87-7.17,9.84-5.47,15.13-8.91,2.22-1.44,3.72-5.87,5.18-8.24,1.61-2.62,4.27-6.25,7.52-6.7ZM142.37,81.67c-1.74.25-3.57,1.62-3.76,3.45-.18,1.8.19,2.59,1.51,3.7,2.54,2.16,5.99,3.05,7.46-.74,1.68-4.32-.75-7.07-5.21-6.42ZM128.12,107.19c1.49-1.45,2.06-6.13.58-7.75-1.32-1.44-4.92-2.06-6.77-1.74-2.85.49-4.74,4.56-4.06,7.17.41,1.58,3.64,3.83,5.21,4s3.86-.52,5.04-1.67Z"/><path d="M191.84,55.04c4.84-.51,9.76,3.97,10.8,8.51,1.34,5.87-5.87,11.42-11.08,12.23-3.5.55-5.79-.64-9.01-.95-2.32-.22-2.94.13-4.69,1.48-4.04,3.12-5.18,6.28-11.14,6.89-5.43.55-7.51-2.35-9.04-7.14-2.65-8.33,4.85-14.13,12.67-13.67,2.85.17,5.47,1.51,8.03,1.78,3.4.35,3.62-1.65,5.21-3.77,1.77-2.36,5.24-5.05,8.25-5.37ZM190.83,60.64c-1.27.11-3.43,1.91-3.99,3.02-1.12,2.23-.97,5.55,1.43,6.86,2.75,1.51,6.25,1.48,8.31-1.13,2.4-3.04.39-7.92-3.24-8.55-.44-.08-2.12-.24-2.51-.2ZM167.4,68.06c-4.29.63-6.8,5.72-3.76,9.06,5.58,6.14,15.5-4,7.87-8.27-1.44-.81-2.43-1.04-4.11-.79Z"/><path d="M98.91,168.57c.72.47-.59,3.65-.74,4.5-.1.6-.21,1.56-.23,2.17-.05,1.44.53,3.06-.19,4.22-.67.41-2.55-1.31-3.35-1.67-2.75-1.21-5.58-.86-8.32.2-.54.21-1.16.99-1.65.56-.46-.7,1.62-4.29,1.92-5.3.42-1.43.49-2.93.39-4.41-.09-1.28-.97-3.17.1-4.1,1.26,1.34,3.17,2.58,4.95,3.06,2.38.64,4.74.41,7.13.78Z"/><path d="M261.4,58.99c.51-.51,3.85,1.99,4.55,2.36,2.29,1.24,4.87,2.33,7.53,1.67l.51.51c.31,1.08-1.67,1.61-2.38,2.15-2.29,1.76-3.27,4.78-2.98,7.6.05.52.79,1.82.2,2.23s-3.85-1.02-4.92-1.11c-1.66-.14-3.46.74-4.8.59-2.1-.24.82-2.52,1.2-2.99,1.87-2.32,3.31-7.08,2.34-9.96-.19-.57-1.65-2.65-1.24-3.06Z"/><path d="M332.9,257.47c.21.14,1.66,3.78,2.33,4.58,2.32,2.76,5.9,3.95,9.41,3.83,1.6-.05,3.06-.75,1.29,1.49-1.02,1.29-2.29,2.38-3.24,3.77-.89,1.29-1.33,2.81-2.26,3.95-.35.08-.39-.27-.5-.49-1.56-2.94-2.27-4.18-5.26-5.96-1.82-1.08-3.64-1.24-5.4-2.02-2.51-1.11-.27-2.09.64-3.26.6-.77,1.29-2.07,1.62-2.99.2-.57.53-3.47,1.38-2.9Z"/><path d="M364.58,215.78c-1.07-1.77-3.14-3.14-5.18-3.53-2.16-.41-4.76-.54-6.94-.23-1.02.14-2.08.91-3.04.4-.77-.58.78-2.84.9-3.74.12-.89-.35-3.79,0-4.2.77-.92,2.25.48,3.03.81,2.56,1.08,6.94,2.38,9.61,1.4.69-.25,2.35-1.77,2.71-1.7.41.08.33,1.17.3,1.5-.2,2.56-1.2,4.47-1,7.41.05.77.92,2.05-.38,1.88Z"/><path d="M357.94,145.91c.12,2.93.32,5.35,1.77,7.95.34.6,1.84,2.01,1.05,2.59-.59.43-2.82-1-3.61-1.22-3.3-.92-7.17.51-9.96,2.27-.21.03-.7-.06-.82-.21-.17-.24-.43-3-.7-3.8s-.79-1.79-1.46-2.36c-.63-1.2,3.57-.75,4.23-.79,2.04-.14,5.35-.92,6.91-2.31.87-.78,1.29-2.37,2.6-2.11Z"/><path d="M111.74,107.29c.22.13,1.51,3.83,2.06,4.64.82,1.21,3.4,3.25,4.81,3.6,1.28.32,3.86-.47,3.54,1.12-1.69.54-3.45,2.89-3.73,4.58-.17,1,.31,2.2-.55,2.85-2.25-2.98-5.28-6.1-9.07-6.95-.52-.12-1.92.14-2.04-.57-.04-.23,1.68-1.59,2.03-2.14,1.15-1.77,2.23-5.03,2.16-7.15l.77.03Z"/><path d="M93.64,229.22c1.37-.17,3.53-1.13,4.69-1.92.55-.38,1.88-1.84,2.49-1.67l2.93,6.98c-.92.38-1.91.12-2.87.24-1.94.24-3.94,1.41-5.59,2.42-1.53.93-2.99,2.52-4.75,2.77v-3.5c0-.33-.67-2.94-.84-3.36-.3-.73-.98-1.03-.76-1.94,1.49-.13,3.26.18,4.71,0Z"/><path d="M292.82,300.35c.41.26,0,2.04.05,2.65.16,2.34,1.47,5.62,2.99,7.43.2.61,2.61,2.57,2.61,2.81s-.13.38-.33.48c-2.42.71-4.75,1.86-6.49,3.72l-.69.11c-.44-.12-.04-4.71-.11-5.51-.2-2.22-1.64-4.94-2.7-6.92-.53-.98-2.16-2.35-.71-3.1.84-.44,2.37-.71,3.35-1.06.53-.19,1.37-1.03,2.03-.61Z"/><path d="M321.29,93.04c.85-.17.89.77,1.24,1.27,1.38,1.99,1.91,3.16,4.24,4.18.73.32,2,.22,1.71,1.23-.24.82-1.44.45-2.05.56-2.74.51-5.26,1.84-6.89,4.12-.41.57-1.32,2.46-1.54,2.67-.19.18-.29.28-.58.19-1.17-1.65-2.5-2.92-4.22-4-.5-.31-1.89-.51-1.69-1.26.18-.7,2.58-.98,3.32-1.3,2.5-1.07,6.34-4.74,6.48-7.65Z"/><path d="M133.13,282.96c.11.13.19.27.23.44-2.66,1.75-5.22,2.87-6.6,5.97-.56,1.25-.77,2.5-1.28,3.74-.58.12-1.23-1.2-1.59-1.6-1.04-1.18-2.61-3.12-3.73-4.08-.67-.58-2.55-1.02-.89-1.73,3.34-1.45,5.37-.38,8.12-4.09.62-.84.94-2.88,2.15-2.35.53.23,3.05,3.08,3.59,3.72Z"/><path d="M180.27,327.35c-1.77-.55-3-2.27-4.73-2.98-1.01-.42-2.03-.43-3.08-.62-.17-.87.58-.72,1.07-1.03,3.68-2.38,4.68-5.1,5.25-9.37.86-1.6,5.69,1.07,6.08,2.53-1.54,2.21-3.09,4.2-3.93,6.82-.54,1.7-.35,2.98-.65,4.66Z"/><path d="M237.76,318.94c-.07,1.17-.83,2.09-.98,3.33-.22,1.89.2,3.36.88,5.08.3.75,2.43,4.4,2.09,4.8-2.23.3-4.42.2-6.6.91-.46.15-2.43,1.56-2.37.44.03-.59,1.16-2.33,1.46-3.15.94-2.58,1.13-5.85-.33-8.27-.39-.65-1.27-.9-.94-1.91l6.78-1.23Z"/><path d="M208.29,54.41c.14,1.78-1.15,3.34-1.35,5.1-.28,2.39.18,5.19,1.61,7.16.32.44.97.4.74,1.19-.16.55-1.9.78-2.57,1.04-.61.24-3.18,2.16-3.2.81,0-.56.72-2.05.8-3.01.27-3.08-.28-6.06-2.72-8.11-.45-.38-3.24-1.78-1.21-2.02,1.82-.21,3.15.38,4.99-.62.96-.52,1.77-2.11,2.91-1.54Z"/><path d="M155.03,71.41c.64,2.46.41,5.18,1.57,7.54.87,1.77,2.61,2.42,3.83,3.8.08.44-2.65,1.87-3.18,2.19-.35.21-.96,1.18-1.42.34-.25-.46-.36-2.15-.7-3.05-1.46-3.8-4.02-3.89-6.21-6.21-1.68-1.79,1.29-1.78,2.58-2.43.69-.34,3.1-2.47,3.52-2.17Z"/><path d="M326.84,277.13c6.35-1.1,5.69,10-.4,7.91-3.08-1.06-3.53-7.23.4-7.91Z"/><path d="M304.82,297.15c.97-.07,1.93.7,2.45,1.46,2.21,3.22-2.14,7.87-4.78,4.98-1.91-2.1-.58-6.22,2.33-6.44Z"/><path d="M101.1,243.49c2.04-.38,4.76.97,4.82,3.25.08,3.26-2.24,4.84-5.28,3.72-3.09-1.14-2.43-6.44.46-6.97Z"/><path d="M117.73,269.13c3.91-.54,5.83,2.97,3.14,5.74-1.52,1.56-3.37,1.53-5.16.38-2.57-1.65-.83-5.73,2.02-6.12Z"/><path d="M249.72,319.79c2.35-.48,4.78.8,4.44,3.44-.51,3.92-8.29,5.48-7.38-.17.18-1.12,1.83-3.04,2.94-3.27Z"/><path d="M280.96,312.2c2.07,2.07.25,6.01-2.43,6.34-3.29.41-5.09-1.61-4.01-4.8.8-2.34,4.63-3.34,6.44-1.54Z"/><path d="M354.29,220.46c4.33-.7,7.05,5.42,1.8,7.2-2.1.71-4.1-.22-4.35-2.54-.22-2.06.2-4.28,2.55-4.66Z"/><path d="M344.67,248.89c3.19-.62,4.36,3.89,2.47,5.68-2.3,2.17-6.02,1.62-5.77-1.95.1-1.49,1.85-3.44,3.31-3.73Z"/><path d="M142.14,293.58c.99,1.01,1.26,2.41,1.03,3.79-.57,3.37-5.21,3.61-6.8.89-2.6-4.45,2.18-8.34,5.78-4.68Z"/><path d="M165.6,309.38c1.52-.26,2.39-.03,3.34,1.17,1.41,1.77,1.28,4.2-.58,5.59-1.56,1.16-3.33.4-4.69-.71-2.41-1.98-.92-5.56,1.94-6.05Z"/><path d="M345.07,134.34c2.84-.58,6.04,1.8,4.06,4.66-1.21,1.75-4.51,1.59-5.58-.23-.89-1.51-.37-4.04,1.52-4.43Z"/><path d="M328.85,107.3c1.79-.37,3.51.09,4.3,1.82,2.09,4.62-4.71,6.18-6.32,2.52-.78-1.77.06-3.94,2.03-4.34Z"/><path d="M307.41,86.48c4.17-.71,5.37,4.54,1.65,5.86-4.83,1.71-6.13-5.09-1.65-5.86Z"/><path d="M279.37,70.05c2.66-.55,5,1.25,4.67,4.06-.35,2.89-6.38,2.91-6.8-.63-.17-1.4.68-3.14,2.13-3.44Z"/><path d="M94.89,153.17c4.94-1.28,4.91,7.73-.04,6.95-3.4-.54-2.61-6.26.04-6.95Z"/><path d="M106.5,126.73c3.74-.86,5.14,4.76,1.52,5.52-3.46.72-3.83-4.98-1.52-5.52Z"/><path d="M357.09,190.82c3.38-.61,5.57,2.06,4.36,5.16-.99,2.53-3.69,2.43-5.6,1-2.11-1.57-.9-5.77,1.25-6.16Z"/><path d="M355.29,163.98c3.11-.49,4.56,3.67,2.56,5.77-1.1,1.16-4.9.72-5.27-.95-.42-1.88.64-4.49,2.71-4.82Z"/><path d="M249.33,61.44c4.9-.83,5.71,4.6,1.59,6.2-5.98,2.32-6.03-5.44-1.59-6.2Z"/><path d="M219.48,58.04c2.99-.37,5.18,2.7,3.34,5.14-.46.61-1.89,1.64-2.64,1.76-5.24.89-6.11-6.23-.7-6.91Z"/><path d="M220.08,324.8c4.81-1,4.69,6.28.35,6.37-3.61.07-3.29-5.76-.35-6.37Z"/><path d="M193.65,321.59c1.87-.19,3.77,1.26,3.63,3.23-.17,2.42-2.07,3.26-4.28,2.92-3.05-.47-2.72-5.8.65-6.15Z"/><path d="M88.99,191.51c-1.11-1-.4-4.45,1.29-4.89,3.05-.79,4.91,3.58,2.25,5.25-.81.51-2.85.26-3.53-.36Z"/><path d="M94.87,219.74c-1.53,1.61-5.75,1.21-5.76-1.63,0-3.21,3.34-4.75,5.63-2.61,1.08,1.01,1.12,3.2.13,4.24Z"/><path d="M122.33,99.69c1.58-.32,3.8,1.08,4.05,2.67.68,4.3-4.02,6.82-5.9,2.9-.58-1.2-.59-1.76-.23-3.05.28-1.03.95-2.29,2.09-2.52Z"/><path d="M143.57,83.87c2.82-.16,2.71,4.17.13,4.55-3.52.52-3.06-4.38-.13-4.55Z"/><path d="M194.42,63.47c1.16,1.09.88,3.61-.33,4.64-2.51,2.16-6.45-.13-4.89-3.49.88-1.89,3.77-2.51,5.22-1.15Z"/><path d="M168.21,69.67c6.47-.65,4.51,7.56-.23,7.48-4.34-.08-5.32-6.92.23-7.48Z"/><path d="M204.88,131.91c-.38.26-.68,1-1.2,1.06l-2.98-.74c-.6-.59-.01-1.22.48-1.68,3.07-2.84,10.88-6.15,14.99-7,1.51-.31,2.97-.22,4.39-.45,1.99-.31,3.62-1.19,5.89-1.44,16.84-1.86,32.54-.05,46.17,10.82,1.03.82,1.75,1.91,2.67,2.69,2.43,2.07,4.88,3.59,7.26,5.91,3.78,3.69,10.24,11.35,12.15,16.15,1.9,4.77,4.13,11.28,5.44,16.23,2.04,7.73,1.23,16.07.57,23.93-.81,9.62-2.98,18.68-7.86,27.13-.43.75-2.18,3.37-2.75,3.81-.68.51-2.12.45-2.77-.09-.3-.65,1.32-2.7,1.69-3.43,3.66-7.4,7.56-18.45,8.57-26.6.38-3.06-.33-2.6-.86-4.78-.21-.86.21-3.7.13-4.95-.52-7.56-3.64-20.67-6.72-27.59-1.5-3.39-8.32-9.42-11.24-12.24-4.95-4.79-9.73-9.6-15.85-12.93-11.78-6.41-21.43-8.02-34.72-8.64-6.71-.32-17.78,1.01-23.44,4.85Z"/><path d="M169.73,164.83c-1.5-2.69,2.42-6.79,3.8-8.84,1.7-2.54,5.24-9,7.66-10.33,4.19-2.29,14.55-2.02,18.35.79,1.48,1.09,3.01,3.39,3.45,5.18s.37,5.96-.48,7.45c-1.3,2.28-9.67,8.14-12.27,8.76-3.8.9-9.92.15-13.81-.31-1.09-.13-3.56-.35-4.46-.62-.71-.21-1.89-1.45-2.23-2.07ZM188.1,152.05c-6.77-.36-8.83,9.71-1.61,10.58,1.01.12,3.01.06,3.94-.37,1.59-.74,3.06-3.57,2.62-5.3-.58-2.33-2.38-4.77-4.95-4.9Z"/><path d="M216.17,145.49c.43-.03,1.46.81,1.41,1.33-.13.66-3.66,1.73-3.56,3.27.03.54,1.1,2.04.86,2.55-1.97,1.13-2.64,3.53-4.18,4.92-1.64,1.48-3.14-1.69-2.58-3,.2-.47.81-.94.9-1.37.21-1.04-.73-2.46.03-3.89.98-1.84,5.36-2.87,7.13-3.81Z"/><path d="M203.25,207.08h2.33s1-1.95,1-1.95l.69.36c.13.66-.46,1.39-.48,1.92-.03.63.88,2.43,1.04,3.32.49,2.71-.39,4.01-1.66,6.25-1.73-1.18-.19-3.56-.32-5.23-.02-.28-1.02-2.79-1.16-2.89-.34-.25-.9-.29-1.31-.32-.23,1.04-1.27,1.27-1.94,1.94-.38.38-1.5,2.32-1.76,2.33-.88-.62-1.26-1.62-1-2.66.16-.66.78-1.16.88-1.63.14-.64-.23-1.48.06-2.39.22-.68.82-.74,1.01-1.24.17-.45.05-2.54.34-2.77.35-.03.36.21.52.39.88.97,1.22,3.31,1.76,4.59Z"/><path d="M225.54,200.24c-.52.18-1.99-.81-2.47-1.17-2.51-1.92-8.07-8.01-9.39-10.83-.26-.55-.63-1.15-.47-1.77,1.09.73,1.78,1.87,2.74,2.73,1.95,1.75,4.71,3.32,6.77,5.08,1.24,1.07,4.02,3.43,3.4,5.2-.05.14-.48.73-.57.76Z"/><path d="M241.96,204.97c.45.76-.09,3.3.18,4.49.13.57.97,2.42,1.28,2.98.92,1.62,2.43,2.53,1.69,4.79-1.9-.64-2.8-2.77-4.92-2.88-.82-.04-1.94.6-2.22-.68-.34-1.52,2.06-3.96,2.62-5.57.4-1.13.28-2.41.89-3.47.03-.01.44.27.48.34Z"/><path d="M189.76,205.69l-.5.18c-.13-.18-.49-.37-.56-.54-.28-.59.42-5.78.82-6.35.85-1.21,4.77-.98,6.1-1.38.56-.17,2.41-1.66,2.27-.37-.11,1.03-1.31,1.66-1.73,2.37-.18.31-.16.71-.32,1-.73,1.35-5.34,1.18-5.5,2.01l-.57,3.08Z"/><path d="M247.61,194.87c2.1-.04,1.38,1.88.31,2.9-1.91,1.8-5.9,1.93-8.31,1.35-.86-.2-1.9-.48-1.37-1.51.37-.72,2.98-.08,3.98-.32,1.53-.36,3.73-2.39,5.39-2.42Z"/><path d="M212.29,207.58c-.86,1.74.18,3.83.44,5.65.07.46.38,2.89.32,3.12-.15.61-2.06,2.21-2.66,2.01-.65-.23.75-1.48.75-1.87-.16-1.88-1.8-6.04-1.44-7.71.19-.9,1.78-1.85,2.58-1.2Z"/><path d="M185.66,173.75c-.15.13-.49.14-.7.32-1.59,1.4-2.86,2.97-3.6,4.98-.02.21-.4.09-.49.03-.91-.59.38-3.26.43-4.16l-.24-.34-1.01-.31.03-.7,6.01-1.26c.47.39-.07,1.13-.43,1.44Z"/><path d="M205.25,138.67c.29,0,.73.81.89,1.06,1.43,2.27,2.57,5.22,3.75,7.62-1.02,1.16-1.64-.78-2.04-1.58-1.06-2.11-1.79-4.49-2.79-6.64-.26-.21.05-.46.2-.46Z"/><path d="M195.67,208.17c-.08.21-1.02,1.5-1.17,1.47l-.75-.86c.66-1.22.64-2.62.77-3.97.38-.69,1.81-.22,1.71.28-.16.88-.29,2.31-.57,3.08Z"/><path d="M155.92,230.53l.91.37c.13-.89,1.05-.98,1.78-1.07l-.11-1.1c.12-.7,1.52-.76,2.09-.91l-.02,3.44-1.46.49c-.47,1.03-.07,1.62,1.03,1.75.05-2.21,1.93-1.72,3.42-2.35-.04,1.34-.76,2.03-1.53,2.98.5.85,1.46,1.04,2.35,1.16-.06,1.03.26,1.56-.94,1.9,1.57,1.08,3.66,1.51,4.77,3.26.29.46.33,1.08.65,1.4.91.93,3.13.69,2.98,2.56-2.06-.23-3.64-1.68-5.45-2.54s-3.69-1.32-5.41-2.15c-2.71-1.3-6.24-3.94-8.61-5.83-.74-.59-1.46-1.9-1.48-2.85-.02-1.57,2.78-3.24,3.46-4.65.24-.5,0-.88.28-1.27.7-1.01,2.43-.65,3.46-.96-.22.64.1,1.39-.21,2.01-.27.53-1.2.46-1.35.99s.2,1.36.05,2c-.13.54-.62.81-.66,1.36Z"/><path d="M180.39,234.63c.14-.15.1-.52.17-.73.98.12,1.18,1.31,1.14,2.15-.03.63-1.01,5.02-1.2,5.21-.67.19-1.34.08-2.02.23-1.33.3-4.7,2.72-5.47.7-.43-1.13,1.12-3.24,1.28-4.57.12-.95-.88-2.66-.64-4.11.14-.85,1.38-3.26,1.86-1.6.21.74-.35,2.74.2,3.05.52.3,4.36.01,4.68-.34Z"/><path d="M170.41,227.45c-.02.47-.14,1.19-.05,1.63.14.66.78.71.43,1.71-.19.52-1.58,1.68-2.16,1.51-1.48-.43-.11-1.84.04-2.37.08-.29-.29-.68-.07-1.31.21-.58,1.27-.93,1.81-1.17Z"/><path d="M246.09,150.45c.51.75-.28,3.06-.78,3.73-.18.25-.34.29-.64.28-2.01-1.32-4.6-2.3-6.55-3.65-.83-.58-1.47-1.08-.5-1.99,2.47,1.04,4.96.49,7.51,1.19.29.08.79.18.96.43Z"/><path d="M240,181.13c1.49-.15,3.25.91,3.4,2.48.17,1.83-2.21,4.14-4.08,3.14-.43-.23-1.62-1.61-1.67-2.06-.09-.86,1.38-3.46,2.35-3.56Z"/><path d="M187.57,154.93c2.59.03,3.23,1.62,2.52,3.9-.19.59-.37.82-.93,1.09-4.64,2.2-5.85-5.04-1.59-4.99Z"/><path d="M311.45,183.31c.17-3.16-.9-5.73-1.39-8.78-.62-3.92-.42-8.21-1.33-12-1.43-5.93-5.77-10.49-8.94-15.5-1.01-1.59-1.46-3.58-2.31-5.29-3.34-6.74-14.96-19.34-21.77-22.46-7.63-3.5-15.49-5.78-23.84-6.77-2.85-.34-5.83-.03-8.72-.23-9.58-.65-21.21-3.39-30.52-1.43-5.11,1.08-13.49,6.76-17.38,10.36-3.48,3.22-7.71,10.61-11.46,12.38-2.16,1.02-1.9.91-3.79,2.3-1.55,1.13-3.78,2.03-5.15,3.25-4.05,3.59-4.79,7.11-7.62,11.37-1.77,2.68-5.34,5.97-6.52,8.58-.83,1.83-.15,3.79-.04,5.67.05.93-.18,2.08-.06,3.06.1.86,1.06,2.54.36,3.1-.99.79-1.94.39-3.14,2.03-3.4,4.66-3.95,12.27-1.04,17.28.97,1.67,2.71,3.43,4.68,3.74-.52,3.43-3.59,5.2-5.01,8.22-1.24,2.64-1.84,5.58-2.88,8.26-.71,1.83-.96,2.47-2.59,3.56-7.24,4.84-15.63,8.72-22.91,13.54-1.07.71-3.39,2.36-4.1,3.32-1.72,2.35-.83,4.57.72,6.7-2.62,1.66-.43,4.2,2.02,3.15.51-.22,3.8-2.34,4.17-2.71.76-.76,1.05-1.28.22-2.13-1.16-1.19-2.31-.41-3.45.35-.87-1.17-.69-2.39.24-3.04,5.95-4.21,12.25-7.4,18.06-10.37.22-.11.31-.33.63-.18-1.91,4.25-6.08,9.25-4.19,14.2,1.93,5.07,6.1,6.38,10.15,9.13,4.63,3.14,8.94,6.79,13.74,9.69,10.08,6.1,20.91,9.68,32.17,12.96,8.26,2.41,16.66,4.93,25.27,5.26,1.03.04,3.08-.53,3.98-1.04l7.79-5.75c3.22-1.04,6.29.25,9.46.57,3.21.33,10.1-.21,13.24-1,10.49-2.64,20.13-12.47,27.73-19.95,6.13-6.03,12.18-12.45,16.47-19.97,4.02-7.05,7.27-18.72,7.52-26.82.07-2.2-.33-4.65-.1-6.81.34-3.29,1.42-6.49,1.59-9.82ZM162.58,201.55c.19-.27.06-.48.54-.29-.37.75-1.09,2.04-1.64,2.62-.21.23-.33.48-.7.33.58-.88,1.18-1.79,1.79-2.65ZM171.42,199.27c-.13.28-1.6,1.09-1.83.99-.21-.32-.61-.97-.44-1.33.06-.12,1.8-1.45,2.08-1.64.22-.15.32-.32.63-.18-.02.39-.43.64-.5,1-.06.35.24.79.07,1.17ZM168.76,198.71l-1.79.07c.03-1.38,1.42-2.45,2.68-2.68l-.89,2.61ZM167.57,200.88l-2.14,1.88-3.3,3.87c.08-.4.09-.82.27-1.19.1-.21,2.58-3.64,2.76-3.8.58-.52,1.63-.83,2.42-.76ZM158.35,207.72l1.54.28c.2.65-1.95,2.08-2.12,1.79l.58-2.08ZM127.62,231.13c-1.33,1.17-2.13,1.92-1.67,3.8.23.91.89,2.26,1.93,2.35.35.03.68-.26.94-.12-.14.62-3.57,2.95-3.86,2.56l1-1.27c-1.14-2.17-2.48-4.19-.94-6.58,1.07-1.66,6.28-4.24,8.18-5.43,10.32-6.46,20.85-12.54,31.37-18.65l2.83-4.77c2.34-1.56,3.29-.74,4.96-.43-.02.21-.01.43,0,.65.5-.29,1-.59,1.5-.88,18.04-10.62,36.02-21.35,54.16-31.81.75.45,1.2,1.37.23,1.84-.42.2-.66-.2-1.12-.2-.68,0-6.18,3.29-7.24,3.9-15.98,9.18-31.74,18.76-47.49,28.34-.01.16-.04.32-.1.47-.21.56-2.07,3.27-2.56,3.97-.9,1.31-1.07,1.9-2.73,1.34-.4-.13-1.59-.6-2.27-1.13-12.32,7.47-24.66,14.89-37.13,22.07ZM175.22,196.13l.76.14c-.21.57-.66.65-.85,1.33-.17.61.05,1.87-.08,2.08-.18.29-1.97,1.34-2.26.96.16-.4-.17-.86-.15-1.17.03-.93,2.81-1.93,2.58-3.35ZM225.56,156.34l-1.44-24.23c.26-.75,8.58-1.12,9.8-1.06l-1.31,24.81c-.88-.07-1.93-.49-2.79-.52-1.32-.04-2.96.85-4.26,1ZM198.99,218.35c.08-.18,1.71-.9,2.07-1.12.32-.2,1.37-1.42,1.68-1.09l.4,3.98-1.97,4.54c-.89.49-3.69.04-3.75-1.09-.01-.27,1.33-3.82,1.54-4.51.07-.24,0-.48.03-.71ZM212.96,225.28c-.26,1.78-2.11,3.8-2.41,5.63l-2.31-.43c.53-.98,1.29-1.73,1.66-2.82.22-.64.43-2.54.68-2.89.15-.21,1.7-1.25,1.89-1.05-.03.59.57.95.48,1.57ZM213.1,234.36c-.08.47-.15.95-.29,1.41-1.66,5.66-3.81.41-1.09-2.06l1.37.65ZM209.15,232.65c-.28.6-2.9,3.49-3.48,3.73-.26.11-.43.17-.71.05-.56-.57,1.53-2.55,1.86-3.27.25-.56.37-1.06.45-1.67l1.88.64c.23.24.12.29.01.51ZM208.87,223.73c-.24,1.58-2.29,3.55-2.53,5.2-.86-.72-1.86-1.14-2.92-1.44l1.65-5.54c.99.02,2.01-.43,2.67-1.12.5.08,1.2,2.47,1.13,2.89ZM205.29,230.33c.1.16-1.33,1.54-1.56,1.76-1.16,1.1-2.85,2.48-4.52,2.24l-.57-1.35c.65-.95,1.31-4.68,2.82-4.33,1.04.24,2.61,1.5,3.83,1.67ZM198.53,227.09c.18.31-3.19,5.25-4.48,4.84-.17-.37-.68-.79-.73-1.18-.08-.63.16-3.9.47-4.34.27-.39,1.43-.73,1.91-.66.84.12,1.83,1.27,2.83,1.34ZM194.12,221.3c-.97.65-3.51-.61-4.41-1.24-.12-.31,1.82-4.57,2.18-4.93.54-.54,4.21-1.45,4.67-1.04.18.16.23.62.22.86-.03,1.06-1.83,5.8-2.66,6.35ZM175.38,217.86l1.34-.36c.71.61,2.66.83,3.17,1.42,1.27,1.47-.98,3.39-2.2,4.1-1.83,1.07-2.09.52-3.67-.67.4-1.51,1.55-2.88,1.36-4.5ZM172.62,220.79l-3.05.54c-1.11-2.26.57-4.48,1.04-6.74l3.77,1.17c.62.62-1.18,4.3-1.76,5.04ZM183.34,220.73l3.25,1.06c.62,1.73-.94,2.84-2.28,3.55-1.76.94-3.46,1.48-4.16-.92,1.06-.58,2.1-3.61,3.19-3.69ZM186.99,227.28c.38-.5.9-1.16,1.17-1.72.26-.52.67-2.13.93-2.31.79-.56,2.37,1.13,3.38,1.13-1.02,2.6-3.09,4.82-6.13,4.21-.33-.83.29-.82.65-1.31ZM190.82,212.82c-.15.58-1.75,3.46-2.16,4.2-.77,1.39-.88,1.99-2.59,1.6-.63-.14-3.26-.91-2.88-1.73l2.55-5.46c1.62-.33,3.2-1.06,4.9-.91,0,.74.37,1.56.18,2.29ZM184.41,209.85l-3.52,6c-.24.1-3.87-1.32-4.37-1.58-.22-.11-.35.08-.22-.34.82-.94,1.91-4.27,2.68-4.89.58-.46,4.13-1.02,4.82-.8.58.19.78,1.06.61,1.59ZM174.16,212.41c-.4.16-3.09-.81-3.25-1.15-.16-.35,1.2-3.19,1.49-3.72.34-.6.47-.98,1.18-1.21.37-.12,3.45-.34,3.65-.25.21.09.22.32.22.52-.02,1.44-2.59,4.43-3.3,5.81ZM168.88,213.15c-.35,1.77-1.6,3.9-1.86,5.78l-1.78.59-.94-3.05,1.22-4.52c.1-.22,3-.09,3.28.34.12.26.15.57.09.86ZM163.67,212.29c-.06,2.41-1.21,3.65-3.01,5.01-.52-.62-.64-2.43-.29-3.09.18-.34,2.78-1.61,3.3-1.91ZM250.85,240.06c-.23.84-3.5,5.52-4.23,6.54-3.53,4.89-9.09,10.06-13.64,14.09-.7.62-3.25,2.74-3.93,3.07-.31.15-4.23.82-4.78.86-3.46.25-6.64.58-10.09-.03-5.67-1-11.33-2.85-16.87-4.52-11.67-3.52-22.54-6.97-33.13-13.14-2.41-1.41-7.48-4.39-9.43-6.11-.88-.78-1.59-1.99-2.45-2.85-.81-.82-5.13-4.01-4.96-4.91.12-.64,1.4-2.98,1.79-3.74,2.11-4.1,4.7-7.97,6.52-12.23.35-.46,2.71-1.53,3.09-1.34.43.88.82,2.42,1.39,3.17,1,1.31,2.11.94,3.36.3.59,2.85,2.04,3.77,4.59,2.04.19.04.87,3.04,1.78,3.31.82.24,2.54-.69,3.47-.56l2.86,2.69,2.85-1.21c.25.05,1.52,3.22,2.22,3.67.64.41,2.76-.06,3.45-.46-.17,1.65,1.82,2.92,3.29,2.95,1.58.03,2.57-1.17,3.86-1.82-.85,2.47,1.7,5.32,4.24,4.33.33-.13.83-.64,1.1-.54,1.14,1.23,1.15,2.88,2.74,3.66,1.73.85,2.34-.37,3.98-.64.08,1.14,1.87,3.15,3.05,2.85.28-.07,1.32-1.12,1.55-.81l-.48.91c1.09,1.64,2.71,1.88,4.57,1.74.36-.03.8-.35,1.15-.28.33.07.53.56.9.72.65.28,1.28.03,1.67.19.76.31,1.37.96,2.59,1.25,6.43,1.51,8.24-3.65,11.86-7.42,1.05-1.09,2.47-2.69,4.14-2.15.08,1.41-.51,2.75-1.22,3.94-.5.84-4.54,6.12-5.1,6.5-.57.38-1.27.16-1.4,1.16-.2,1.46,1.31,1.4,2.33.92,3.19-1.48,4.5-4.03,6.94-5.77.41-.29,1.37-.96,1.76-.38.61.94-1.34,3.22-1.94,4.02-2.51,3.42-5.7,6.43-9.36,8.6-2.61,1.55-4.75,2.21-7.63,3.06-.61.18-1.76.81-2.28.83-2,.08-5.46-1.11-7.69-1.17-.93-.03-1.92.69-3.11.61-1.14-.08-7.34-1.62-7.74-1.24-.45,1.37,1.37,1.05,2.09,1.43.26.13.31.53.71.69,1.14.45,3.07.34,4.22.79.5.2.62.8,1.02,1.15,1.27,1.11,3.85.91,5.52,1.24,3.15.62,6.35,1.65,9.58,1.99,4.68.49,10.96-4.32,13.77-7.79,1.11-1.36,1.84-3.09,2.92-4.3,2.61-2.95,7.9-4,8.27-8.42.36-4.37-4.57-3.66-5.84-6.39-.69-1.49-1.38-5.65,1.44-4.68,1.73.6,1.83,4.77,5.13,5.71,1.24.35,2.41.12,3.59.56.12.12.07,3.01-.03,3.39ZM220.26,231.96c-.68,1.96-1.99,3.7-4.17,2.36l2.84-6.23c1.51,1.24,2.03,1.85,1.32,3.87ZM220.06,226.89l2.41-5.38c4.7-3.47,2.66,5.86-.08,5.98-.81.03-1.59-.31-2.33-.6ZM217.65,236.7c-.24,1.34-1.32,2.1-2.6,2.2l.52-2.79.53-.21c.4.23.92.29,1.31.45.27.11.32-.1.24.34ZM219.79,222.72c-.26.88-1.08,1.4-1.55,2.16l-2.63-.63c-.67-.7,1.85-3.79,2.17-4.68.3-.84.03-1.55.27-2.29.18-.57.93.17,1.11.41.56.75.9,4.08.63,5.02ZM216.01,226.15c1.03-.05,1.45,1.77,1.33,2.53-.06.4-1.54,3.75-1.78,4.02-.42.48-2.03.6-1.9-.31.06-.39.88-1.44,1.12-2.04.23-.61,1-4.06,1.23-4.2ZM303.77,188.76c.05,1.89.52,4.08.41,5.93-.37,5.91-1.81,14.35-3.94,19.83-1.75,4.52-4.06,10.91-7.14,14.51-3.32,3.89-7.71,6.98-11.5,10.37-1.54,1.38-2.66,3.03-4.13,4.48-2.67,2.63-8.21,7.95-11.16,9.89-2.19,1.44-9.21,2.67-11.87,2.51-.67-.04-1.32-.18-1.97-.31,1.03-2.16,3.67-3.06,5.56-4.24,2.62-1.62,8.25-4.66,10.22-6.61,2-1.98.22-2.54.55-4.32.23-1.24,2.12-2.8,3.06-3.6,7.01-5.93,14.66-13.11,18.28-21.73.82-1.96,1.44-4.01,2.26-5.98,1.72-4.1,3.75-7.11,4.07-11.85.04-.55-.16-3.68-.79-3.65-.47.02-1.97,4.65-3.02,5.01.01-.38.33-.66.39-1.02.28-1.91.49-5.29.52-7.24.01-.91-.25-3.7-.77-4.33-.11-.13-2.52-2.11-2.67-2.19-.34-.18-.27.02-.34.23-.44,1.31-.24,3.26-.72,4.82-.97,3.19-5.36,11.39-7.56,13.89-.7.79-2.21,2.53-1.95.21.06-.5.35-.82.4-1.25.28-2.31.78-5.56.82-7.79.05-2.9-1.05-4.17-3.51-1.96-.83-.76-1.72-1.25-2.89-1.28-2.13-.05-3.27,2.91-4.84-.44-.98-2.08-2.24-8.47-4.22-9.35-1.84-.82-2.73.35-3.33,2.03-.27.75-.22,1.57-.6,2.29-.28.53-.88.79-1.28,1.31-1.95,2.53-1.54,6.82-3.81,9.1-2.81,2.82-4.24,3.58-5.5,7.87-.48,1.65-.99,6,.08,7.45.7.95,1.8.93,2.64,1.37.58.3,1.3,1.4,1.96,1.84.7.47,1.56.64,2.23,1.15,1.62,1.24,3.29,4.56,3.32,6.61.05,4.6-1.08,7.58-5.1,10.01-1.31.79-2.27.17-3.55-.37-4.03-1.72-5.58-3.88-8.8-6.37-2.15-1.67-6.15-3.59-7.62-5.67-.4-.56-.5-1.25-.86-1.76-2.01-2.82-7.78-1.38-10.84-2.45-.76-.27-3.66-2.23-3.68-3,0-.33.72-.76.19-.98-.18-.07-1.21.02-1.45.09-1.44.43-1.02,1.86-1.21,3-.91-.51-1.04-2.06-.65-2.9-1-.51-2.37.18-2.84,1.12-.56,1.11,1.03,3.58.96,4.79-.03.51-.27,1.85-.44,2.3-.31.81-2.07,1.89-1.81,3.35-1.13-1.78-1.95-1.09-3.6-.95-1.24-2.61-1.53-4.39-4.91-3.04-.26-.07-1.03-4.18-2.15-4.72-.87-.42-3.55,1.07-4.42,1.53-.87-2.31,0-5.29-3.55-4.67-1.07.19-1.83.9-2.85,1.1.05-.92-.42-4.07-1.32-4.38-1.08-.37-3.82.83-4.8,1.45-.25-.05-.54-2.97-1.59-3.27-.45-.13-2.4.18-2.98.29-.86.17-1.63.47-2.46.69.03-1.26-.21-2.59-.9-3.67,0-.14,2.03-1.45,2.16-1.45.58-.02.38,2,1.53,1.87.09-.33.07-.74.2-1.05.23-.58,3.37-2.48,4.2-2.31l-.47-1.61,7.35-4.6c1.49-.42,3.25.78,5.05-.22.56-.31,1.58-1.33,1.89-1.89.48-.88.45-2.03.91-2.58.59-.7,2.31-1.28,3.05-1.91.59.05.09.48,0,.72-.29.67.85-.11,1.06-.17.63-.2,1.94-.3,2.33-.52.9-.49.94-2.2,1.43-2.99l7.52-4.5c.32-.01,1.11,2.1,1.4,2.55,2.13,3.25,8.29,5.92,11.82,7.48,4.1,1.81,8.75,3.98,13.37,3.51.92-.09,4.6-1.16,5.21-1.7,1.16-1.01,1.46-2.05,2.23-3.1.43-.58,6.37-2.37,7.53-2.71,1.12-.33,2.02.02,2.59-1.23-.38-.43-7.99,2.13-9.17,2.28,1.19-3.03,1.55-6.3,2.33-9.42.65-2.59,2.13-6.31,3.45-8.64,1.17-2.06,6.79-6.25,8.89-8.31,3.78-3.7,7.24-7.73,10.77-11.66,7.58,7.83,13.04,17.63,15.99,28.11l-.42.37c-5.36,1.15-10.56,2.97-15.89,4.23-2.57.61-5.24.8-7.74,1.68l.69,1.03c8.05-1.28,15.72-4.22,23.62-6.18l1.34,11.85c.05.44.48.44.86.5.28-4.94-.6-9.64-1.95-14.35-9.29-32.45-40.09-52.79-73.85-45.45-1.83.4-12.64,3.29-13.2,4.48-.15.31-.09.48.17.68.95.49,6.69-1.78,8.03-2.18,1.81-.54,3.79-1.16,5.6-1.61.54-.14,3.27-.82,3.54-.55-.07,8.27.99,16.48,1.15,24.73-2.11,1.82-4.55,3.3-6.09,5.76l-4.29-7.95-.55.43c-.15.31,0,.59.12.87.53,1.26,1.65,2.82,2.3,4.12.3.59,1.68,3.15,1.7,3.54.03.48-1.45,3.01-1.71,4-.42,1.58-.75,3.91-.73,5.55,0,.75.52,2.24.1,2.79l-6.76,3.72c.32-1.59.34-3.71.04-5.32-.13-.73-.28-1.39-1.16-1.44-1.98,2.53-2.12,5.86-2.5,8.92l-3.11,1.95c1.01-4.94,1.94-9.98.61-14.93-1.08-4.03-2.11-5.16-5.75-2.42-2.72,2.05-6.4,5.48-8.8,7.95-1.12,1.15-5.01,5.37-5.54,6.59-.55,1.28.04,2.04-.22,2.83-.26.78-1.37.87-1.42,2.32-.02.68.42.95.56,1.47.4,1.48.27,2.4,1.71,3.52,2.13,1.65,3.75-.17,6.14.06-.4.4-.91.74-1.38,1.04-1.9,1.19-4.86,3.08-6.81,4-.24.11-.67.42-.81.05.06-.84-.36-1.57-.44-2.38-.18-1.73.43-3.82-1.16-5.07-1.05.67.38,2.58-.81,3.2-.45.24-1.95.51-2.44.38-.81-.2-.95-1.47-2.01-1.37-.45.78-.65,1.86-1.55,2.27-1.17-.65-.07-1.29.33-1.98.37-.64-.25-.64-.77-.38-.44.22-3.25,2.15-3.38,2.41-.41.8-.36,2.44-.68,3.4-.19.57-.83,1.28-.95,1.98l-1.57.45c-.85-1.56.97-3.53,1.93-4.74,1.67-2.11,3.72-3.98,5.33-6.17.58-.79,2.57-3.33.61-3.53-.63-.06-1.25.29-2.04.22-2.08-.18-4.13-1.36-6.28-1.57-.93-.09-1.52,0-1.21,1.17.12.43.72.56.89.81.19.27.16,1.04.59,1.35-.83.41-1.67.87-2.54,1.18-.63.23-3.1,1.13-3.43.41-.06-.13.18-2.43.23-2.84.29-2.13,1.16-4.75,2.14-6.67,1.42-2.78,6.1-2.85,8.89-3.43,1.45-.3,2.79-.95,4.34-.88-.38-1.65-.71-2.88-2.29-3.71-2.36-1.22-4.96-.23-7.43-.76-.22-.23-1.21-5.61-1.2-6.24.07-2.82,3.84-6.28,5.5-8.51.92-1.24,2.14-2.99,2.91-4.31.83-1.43,1.32-3.14,2.17-4.41.24-.37,3.09-3.72,3.31-3.85,1.15-.74,3.95-.89,5.45-1.48,1.15-.45,2.56-1.66,3.54-1.93.74-.21,1.88-.1,2.68-.25,1.81-.34,3.71-1.13,5.55-.97,3.07.28,5.78.73,8.95.32.62-.08,1.26-.28,1.84-.51-.16-1.13-.68-2.88-1.56-3.64-.93-.8-4.68-1.39-6.06-1.56-1.77-.21-3.68.16-5.37-.49,2.37-2.94,4.79-5.9,7.71-8.31,7.03-5.78,12.74-8.14,22.11-7.14,6.33.68,12.76,1.53,19.15,1.73,1.88.06,4.08-.43,5.85-.28,6.21.53,16.15,3.33,21.97,5.71,7.9,3.23,16.13,11.51,21.24,18.29,2.72,3.62,3.64,6.06,5.55,9.94,2.71,5.5,9.94,11.73,9.91,18.19-.03,6.15-1.89,12.13-1.72,18.29ZM267.17,146.2c-2.49,4.63-4.86,9.43-7.24,14.12-1.3,2.55-2.48,6.07-3.98,8.37-.54.83-1.48,1.6-2.25,2.21-.55-2.95-1.92-5.69-4.6-7.24-.14-.34,1.9-4.17,2.25-4.83,2.48-4.66,5.33-9.12,7.79-13.81.45-.86,2.85-6.26,3.38-6.24l6.47,4.16c.14.35-1.51,2.68-1.83,3.26ZM269.5,143.61c.37-.17,3.61,2.77,4.15,3.26.41.38,2.45,2.2,2.31,2.57-5.85,5.75-11.09,12.2-17.68,17.13,2.03-5.15,4.82-9.96,7.28-14.91,1.33-2.68,2.39-5.5,3.94-8.06ZM248.21,162.93c-2.1-.71-3.78-2.22-5.73-3.19-1.09-.55-8.37-3.13-8.56-3.55l.88-25.07c1.24-.11,2.49-.24,3.74-.18,5.27.29,11.73,2.13,16.62,4.14.85.35,6.71,3.02,6.72,3.44l-13.67,24.4ZM243.85,188.43c-3.86,3.88-10.02-.96-8.88-5.59.59-2.4,2.72-4.83,5.38-4.62,5.01.4,7.18,6.5,3.49,10.2Z"/><path d="M164.44,211.48s2.05-2.02,2.83-2.59c1.2-.88,3.91-2.18,5.18-2.97.57-.35,4.12-2.39,4.12-2.39l-1.43-.77c-4.07,2.47-8.15,4.95-12.22,7.42l1.53,1.3Z"/><path d="M174.11,202.21l-1.25-.67s-2.83,1.77-3.79,2.35c-1.9,1.13-8.39,4.38-8.39,4.38l1.25,1.06c3.99-2.32,7.98-4.63,11.95-6.98.08-.05.16-.09.24-.14Z"/><path d="M62.64,361.88c0,3.45-1.14,6.34-3.43,8.69-2.29,2.35-5.16,3.52-8.6,3.52-1.46,0-2.82-.34-4.07-1.01v4.12c0,1.07.37,1.86,1.1,2.38.73.52,1.65.72,2.75.59v3.25c-.82.27-1.75.41-2.79.41-2.08,0-3.69-.73-4.85-2.2-1.5,1.46-3.57,2.2-6.22,2.2-.55,0-1.1-.05-1.65-.14v-2.97c.98,0,1.8-.28,2.47-.85.67-.56,1.01-1.32,1.01-2.27v-19.99c0-1.1-.27-2-.82-2.7-.64-.79-1.5-1.17-2.56-1.14v-3.66c.55-.09,1.21-.14,1.97-.14,2.71,0,4.7.78,5.95,2.33,2.5-1.8,5.06-2.7,7.69-2.7,3.48,0,6.36,1.17,8.65,3.52s3.43,5.26,3.43,8.74ZM41,375.11v-15.37c0-2.53-.49-4.29-1.46-5.26.4.64.59,1.92.59,3.84v16.01c0,2.44-.31,3.98-.92,4.62,1.19-.4,1.78-1.68,1.78-3.84ZM54.91,360.97c0-.67-.03-1.27-.09-1.78-.12-1.1-.55-2.21-1.29-3.34-.86-1.37-1.79-2.06-2.81-2.06-1.17,0-2.19.41-3.08,1.21-.89.81-1.33,1.78-1.33,2.91v10.62c.73.4,1.57.59,2.52.59,2.1,0,3.69-.88,4.76-2.65.88-1.43,1.33-3.26,1.33-5.49ZM57.93,360.99c0-2.45-.96-4.76-2.88-6.93,1.25,2.2,1.88,4.7,1.88,7.48s-.85,5.37-2.56,7.57c1.04-.98,1.89-2.23,2.56-3.74s1.01-2.98,1.01-4.38Z"/><path d="M95.81,373c0,3.26-1.34,5.96-4.03,8.1-2.5,2.01-5.42,3.02-8.74,3.02-1.5,0-3.17-.38-5.01-1.14-1.85-.76-2.71-1.14-2.59-1.14-.49,0-.67.44-.55,1.33h-3.48l-.5-12.08,3.25-.23c.55,1.89,1.72,3.83,3.52,5.81,2.01,2.23,3.87,3.34,5.58,3.34,1.34,0,2.52-.46,3.52-1.37,1.01-.92,1.51-2.04,1.51-3.39,0-2.26-1.54-3.83-4.62-4.71-5.64-1.62-8.53-2.46-8.65-2.52-3.08-1.58-4.62-4.33-4.62-8.24,0-3.08,1.16-5.58,3.48-7.5,2.17-1.8,4.83-2.7,8.01-2.7,2.93,0,5.93.82,9.01,2.47l.5-1.65,2.61.37.5,10.89-2.75.23c-1.31-5.79-3.95-8.69-7.92-8.69-1.4,0-2.61.55-3.61,1.65s-1.51,2.36-1.51,3.8c0,1.13.93,2.04,2.79,2.75,1.95.55,3.9,1.1,5.86,1.65,2.47.73,4.19,1.6,5.17,2.61,2.17,2.23,3.25,4.68,3.25,7.37ZM90.64,373.78c0-3.54-3.17-5.77-9.52-6.68-2.26-.33-4.13-1.25-5.63-2.75-1.62-1.56-2.44-3.45-2.47-5.67-.12.64-.18,1.25-.18,1.83,0,2.1.76,3.8,2.29,5.08,1.13.98,2.84,1.79,5.12,2.42,1.86.46,3.72.92,5.58,1.37.98.27,1.91,1.08,2.79,2.4.88,1.33,1.33,2.51,1.33,3.55,0,.49-.06.98-.18,1.46.58-1.04.87-2.04.87-3.02Z"/><path d="M135.62,349.99v3.66c-1.06.03-2.2.52-3.42,1.47-1,.8-1.85,1.72-2.55,2.76l-7.16,10.99v8.42c0,.86.4,1.58,1.19,2.16.79.58,1.69.84,2.7.78v3.04c-.92.29-1.92.44-3.02.44-2.32,0-3.92-.84-4.8-2.52-1.4,1.68-3.33,2.52-5.76,2.52-.92,0-1.85-.15-2.79-.46v-3.02h.18c1.01,0,1.85-.25,2.54-.76.69-.5,1.03-1.24,1.03-2.22v-7.7l-7.18-11.92c-.95-1.56-1.46-2.41-1.56-2.57-.79-1.01-1.6-1.51-2.43-1.51h-.55v-3.44c.88-.21,1.88-.31,2.97-.31,2.65,0,4.42.76,5.31,2.29.98-1.53,2.7-2.29,5.17-2.29.64,0,1.31.06,2.01.19l-.05,3.56c-.49-.24-.92-.37-1.28-.37-.89,0-1.33.33-1.33.97,0,.46.78,2,2.33,4.59,1.01,1.55,2,3.11,2.97,4.68.94-1.28,1.91-2.58,2.88-3.89,1.46-2.13,2.2-3.64,2.2-4.53,0-1.25-1.05-1.77-3.16-1.56v-3.29c.88-.15,1.83-.23,2.86-.23,2.55,0,4.11.64,4.68,1.92,1.61-1.34,3.41-1.98,5.41-1.92l.59.05ZM116.68,376.47v-8.17l-7.23-12.3c-.3-.52-.78-1.09-1.42-1.7-.73-.67-1.34-1.04-1.83-1.1.7.28,2.35,2.68,4.94,7.21,1.56,2.75,3.11,5.53,4.67,8.31.06,1.71.09,2.94.09,3.67,0,4.19-.4,6.55-1.19,7.07,1.31-.52,1.97-1.51,1.97-2.98Z"/><path d="M166.92,373.18c-.37,3.02-1.82,5.6-4.35,7.75-2.53,2.15-5.32,3.23-8.37,3.23-4.51,0-8.1-1.68-10.75-5.03-2.5-3.08-3.75-6.95-3.75-11.62s1.1-8.97,3.29-12.26c2.53-3.78,6.12-5.67,10.75-5.67,2.56,0,5.17.75,7.82,2.24l.87-1.51,2.79.18v11.16h-2.7c-1.25-5.46-3.66-8.19-7.23-8.19-2.65,0-4.65,1.59-5.99,4.76-1.04,2.38-1.56,5.09-1.56,8.14s.53,5.96,1.6,8.37c1.4,3.17,3.49,4.76,6.27,4.76,2.01,0,3.78-.78,5.31-2.33,1.4-1.43,2.3-3.17,2.7-5.22l3.29,1.24ZM148.07,380.78c-1.62-1.62-2.91-3.81-3.89-6.59-.88-2.56-1.33-5.08-1.33-7.55,0-3.66.87-7.38,2.61-11.16-2.47,2.5-3.71,6.27-3.71,11.3,0,2.87.47,5.49,1.42,7.87,1.1,2.75,2.73,4.79,4.9,6.13Z"/><path d="M201.42,371.95l-2.84,11.71h-3.2l-.78-1.46c-2.35.98-4.79,1.46-7.32,1.46-2.87,0-5.06-.84-6.59-2.52-1.37,1.68-3.05,2.52-5.03,2.52-.79,0-1.59-.17-2.38-.5v-3.25c1.28,0,2.3-.53,3.07-1.59.67-.94,1.01-2.06,1.01-3.37v-17.57c0-2.28-1.42-3.61-4.26-4.01v-3.2c.61-.13,1.33-.19,2.15-.19,2.62,0,4.65.75,6.09,2.24,1.37-1.49,3.37-2.24,5.99-2.24.55,0,1.1.05,1.65.14v3.25h-.14c-1.16-.06-2.07.29-2.72,1.07-.66.77-.98,1.76-.98,2.97v19.39c1.22.73,2.67,1.09,4.35,1.09,3.9,0,7-2.45,9.29-7.37l2.65,1.42ZM180.32,374.88v-15.37c0-.82-.14-1.75-.42-2.79-.31-1.16-.71-1.98-1.18-2.47.37.64.55,1.92.55,3.84v16.01c0,2.44-.3,3.98-.92,4.62,1.31-.4,1.97-1.68,1.97-3.84Z"/><path d="M234.4,372.59l-.82,11.07h-2.47l-1.24-2.1c-2.47,1.4-5.14,2.1-8.01,2.1s-5.14-.87-7.09-2.61c-1.95,1.74-4,2.61-6.13,2.61-.52,0-1.02-.08-1.51-.23v-3.39c.95,0,1.66-.56,2.15-1.69.4-.85.6-1.81.6-2.87v-16.7c0-1.52-.26-2.78-.79-3.79-.68-1.34-1.71-1.9-3.1-1.69v-3.33l.92-.05c3.72-.09,5.92.69,6.59,2.33,2.26-1.56,4.71-2.33,7.37-2.33.98,0,2.24.24,3.8.71,1.56.47,2.65.71,3.29.71,1.13,0,1.78-.47,1.97-1.42l2.52,1.22.04,7.02-2.61.82c-.31-1.49-1.11-2.7-2.42-3.62-1.31-.92-2.75-1.37-4.3-1.37-2.2,0-3.71.61-4.53,1.83-.58.92-.87,2.39-.87,4.44v1.88c.03.82.05,1.46.05,1.92.55.25,1.14.37,1.78.37,2.07,0,3.17-1.51,3.29-4.53l3.2.14c.03.25.05.57.05.96,0,3.02-.67,4.7-2.01,5.03,1.43,1.07,2.23,2.78,2.38,5.12h-3.66c-.43-1.08-.79-1.79-1.1-2.12-.49-.48-1.27-.72-2.33-.72-.7,0-1.22.23-1.56.68,0,3.33.11,5.49.32,6.49.58,2.75,1.98,4.13,4.21,4.13,2.41,0,4.35-.64,5.81-1.91,1.59-1.33,2.43-3.2,2.52-5.59l3.71.46ZM212.9,359.96c0-.85-.12-1.78-.37-2.79-.31-1.16-.69-1.98-1.14-2.47.37.64.55,1.92.55,3.84v16.01c0,2.44-.31,3.98-.92,4.62,1.25-.4,1.88-1.68,1.88-3.84v-15.37Z"/><path d="M268.22,373c0,3.26-1.34,5.96-4.03,8.1-2.5,2.01-5.42,3.02-8.74,3.02-1.5,0-3.17-.38-5.01-1.14-1.85-.76-2.71-1.14-2.59-1.14-.49,0-.67.44-.55,1.33h-3.48l-.5-12.08,3.25-.23c.55,1.89,1.72,3.83,3.52,5.81,2.01,2.23,3.87,3.34,5.58,3.34,1.34,0,2.52-.46,3.52-1.37,1.01-.92,1.51-2.04,1.51-3.39,0-2.26-1.54-3.83-4.62-4.71-5.64-1.62-8.53-2.46-8.65-2.52-3.08-1.58-4.62-4.33-4.62-8.24,0-3.08,1.16-5.58,3.48-7.5,2.17-1.8,4.83-2.7,8.01-2.7,2.93,0,5.93.82,9.01,2.47l.5-1.65,2.61.37.5,10.89-2.75.23c-1.31-5.79-3.95-8.69-7.92-8.69-1.4,0-2.61.55-3.61,1.65s-1.51,2.36-1.51,3.8c0,1.13.93,2.04,2.79,2.75,1.95.55,3.9,1.1,5.86,1.65,2.47.73,4.19,1.6,5.17,2.61,2.17,2.23,3.25,4.68,3.25,7.37ZM263.05,373.78c0-3.54-3.17-5.77-9.52-6.68-2.26-.33-4.13-1.25-5.63-2.75-1.62-1.56-2.44-3.45-2.47-5.67-.12.64-.18,1.25-.18,1.83,0,2.1.76,3.8,2.29,5.08,1.13.98,2.84,1.79,5.12,2.42,1.86.46,3.72.92,5.58,1.37.98.27,1.91,1.08,2.79,2.4.88,1.33,1.33,2.51,1.33,3.55,0,.49-.06.98-.18,1.46.58-1.04.87-2.04.87-3.02Z"/><path d="M303.95,373.18c-.37,3.02-1.82,5.6-4.35,7.75-2.53,2.15-5.32,3.23-8.37,3.23-4.51,0-8.1-1.68-10.75-5.03-2.5-3.08-3.75-6.95-3.75-11.62s1.1-8.97,3.29-12.26c2.53-3.78,6.12-5.67,10.75-5.67,2.56,0,5.17.75,7.82,2.24l.87-1.51,2.79.18v11.16h-2.7c-1.25-5.46-3.66-8.19-7.23-8.19-2.65,0-4.65,1.59-5.99,4.76-1.04,2.38-1.56,5.09-1.56,8.14s.53,5.96,1.6,8.37c1.4,3.17,3.49,4.76,6.27,4.76,2.01,0,3.78-.78,5.31-2.33,1.4-1.43,2.3-3.17,2.7-5.22l3.29,1.24ZM285.1,380.78c-1.62-1.62-2.91-3.81-3.89-6.59-.88-2.56-1.33-5.08-1.33-7.55,0-3.66.87-7.38,2.61-11.16-2.47,2.5-3.71,6.27-3.71,11.3,0,2.87.47,5.49,1.42,7.87,1.1,2.75,2.73,4.79,4.9,6.13Z"/><path d="M346.73,380.55v3.16c-.25.06-.58.09-1.01.09-2.9,0-5.02-.84-6.36-2.52-1.68,1.59-4.04,2.38-7.09,2.38-.52,0-1.02-.03-1.51-.09v-3.02c.95,0,1.8-.14,2.56-.41,1.07-.37,1.6-.92,1.6-1.65,0-.43-.27-1.16-.82-2.2-.4-.67-.79-1.36-1.19-2.06h-14.18c-.79,1.91-1.19,3.11-1.19,3.6,0,1.91,1.4,2.83,4.21,2.77v3.05c-.43.09-.95.14-1.56.14-2.1,0-3.75-.67-4.94-2.01-1.8,1.34-3.63,2.01-5.49,2.01-.7,0-1.36-.14-1.97-.41v-2.98c2.23-.09,3.75-1.1,4.58-3.02,1.65-3.82,3.31-7.65,4.99-11.5,2.75-6.45,4.12-10.04,4.12-10.77,0-.95-.61-1.42-1.83-1.42h-1.14l.05-3.58c.61-.15,1.34-.22,2.2-.22,2.81,0,4.9.92,6.27,2.75.61-.87,1.54-1.55,2.79-2.05,1.13-.46,2.27-.7,3.43-.7.64,0,1.28.06,1.92.18v3.31c-.76.03-1.42.23-1.97.6-.67.43-1.01,1-1.01,1.7,0,.46.15.98.46,1.57l10.39,20.09c1.19,2.29,2.42,3.36,3.71,3.2ZM330.18,369.39l-5.19-10.33-4.11,10.33h9.3ZM337.12,377.81c0-1.25-.24-2.35-.72-3.3l-8.19-16.43c-.31-.55-.94-1.06-1.89-1.55l10.8,21.28Z"/><path d="M381.68,361.88c0,3.45-1.14,6.34-3.43,8.69-2.29,2.35-5.16,3.52-8.6,3.52-1.46,0-2.82-.34-4.07-1.01v4.12c0,1.07.37,1.86,1.1,2.38.73.52,1.65.72,2.75.59v3.25c-.82.27-1.75.41-2.79.41-2.08,0-3.69-.73-4.85-2.2-1.5,1.46-3.57,2.2-6.22,2.2-.55,0-1.1-.05-1.65-.14v-2.97c.98,0,1.8-.28,2.47-.85.67-.56,1.01-1.32,1.01-2.27v-19.99c0-1.1-.27-2-.82-2.7-.64-.79-1.5-1.17-2.56-1.14v-3.66c.55-.09,1.21-.14,1.97-.14,2.71,0,4.7.78,5.95,2.33,2.5-1.8,5.06-2.7,7.69-2.7,3.48,0,6.36,1.17,8.65,3.52s3.43,5.26,3.43,8.74ZM360.04,375.11v-15.37c0-2.53-.49-4.29-1.46-5.26.4.64.59,1.92.59,3.84v16.01c0,2.44-.31,3.98-.92,4.62,1.19-.4,1.78-1.68,1.78-3.84ZM373.95,360.97c0-.67-.03-1.27-.09-1.78-.12-1.1-.55-2.21-1.29-3.34-.86-1.37-1.79-2.06-2.81-2.06-1.17,0-2.19.41-3.08,1.21-.89.81-1.33,1.78-1.33,2.91v10.62c.73.4,1.57.59,2.52.59,2.1,0,3.69-.88,4.76-2.65.88-1.43,1.33-3.26,1.33-5.49ZM376.97,360.99c0-2.45-.96-4.76-2.88-6.93,1.25,2.2,1.88,4.7,1.88,7.48s-.85,5.37-2.56,7.57c1.04-.98,1.89-2.23,2.56-3.74s1.01-2.98,1.01-4.38Z"/><path d="M415.5,372.59l-.82,11.07h-2.47l-1.24-2.1c-2.47,1.4-5.14,2.1-8.01,2.1s-5.14-.87-7.09-2.61c-1.95,1.74-4,2.61-6.13,2.61-.52,0-1.02-.08-1.51-.23v-3.39c.95,0,1.66-.56,2.15-1.69.4-.85.6-1.81.6-2.87v-16.7c0-1.52-.26-2.78-.79-3.79-.68-1.34-1.71-1.9-3.1-1.69v-3.33l.92-.05c3.72-.09,5.92.69,6.59,2.33,2.26-1.56,4.71-2.33,7.37-2.33.98,0,2.24.24,3.8.71,1.56.47,2.65.71,3.29.71,1.13,0,1.78-.47,1.97-1.42l2.52,1.22.04,7.02-2.61.82c-.31-1.49-1.11-2.7-2.42-3.62-1.31-.92-2.75-1.37-4.3-1.37-2.2,0-3.71.61-4.53,1.83-.58.92-.87,2.39-.87,4.44v1.88c.03.82.05,1.46.05,1.92.55.25,1.14.37,1.78.37,2.07,0,3.17-1.51,3.29-4.53l3.2.14c.03.25.05.57.05.96,0,3.02-.67,4.7-2.01,5.03,1.43,1.07,2.23,2.78,2.38,5.12h-3.66c-.43-1.08-.79-1.79-1.1-2.12-.49-.48-1.27-.72-2.33-.72-.7,0-1.22.23-1.56.68,0,3.33.11,5.49.32,6.49.58,2.75,1.98,4.13,4.21,4.13,2.41,0,4.35-.64,5.81-1.91,1.59-1.33,2.43-3.2,2.52-5.59l3.71.46ZM393.99,359.96c0-.85-.12-1.78-.37-2.79-.31-1.16-.69-1.98-1.14-2.47.37.64.55,1.92.55,3.84v16.01c0,2.44-.31,3.98-.92,4.62,1.25-.4,1.88-1.68,1.88-3.84v-15.37Z"/><path d="M114.99,397.97c.89,0,2.61,0,3.91,1.01.93.72,1.49,1.96,1.49,3.31,0,2.06-1.37,2.9-1.8,3.14,1.05.17,1.68.62,2.08,1.01.96.91,1.15,2.16,1.15,3,0,.93-.26,2.25-1.37,3.23-1.2,1.05-2.66,1.29-4.05,1.29h-5.37v-15.98h3.95ZM114.15,404.6h.89c.48,0,2.42-.05,2.42-2.08,0-1.46-1.13-2.01-2.4-2.01h-.91v4.1ZM114.15,411.41h1.34c.58,0,1.44-.02,2.13-.43.77-.46.98-1.22.98-1.84,0-.5-.17-1.37-1.17-1.82-.67-.31-1.46-.31-2.13-.31h-1.15v4.41Z"/><path d="M139.9,410.59h-6.44l-1.41,3.35h-3.38l6.88-15.98h2.44l6.68,15.98h-3.35l-1.41-3.35ZM138.99,408.05l-2.28-5.75-2.28,5.75h4.55Z"/><path d="M155.41,397.97v13.29h4.94v2.68h-8.05v-15.98h3.11Z"/><path d="M172.85,400.65v13.3h-3.11v-13.3h-3.59v-2.68h10.3v2.68h-3.59Z"/><path d="M187.27,397.97v15.98h-3.11v-15.98h3.11Z"/><path d="M198.82,397.97h2.25l4.24,10.16,4.43-10.16h2.25l2.68,15.98h-3.16l-1.44-9.85-4.29,9.85h-1.05l-4.1-9.85-1.63,9.85h-3.16l2.97-15.98Z"/><path d="M239.55,405.97c0,4.86-3.5,8.34-8.53,8.34s-8.53-3.47-8.53-8.34,3.5-8.36,8.53-8.36,8.53,3.5,8.53,8.36ZM236.34,405.97c0-3.23-2.2-5.53-5.32-5.53s-5.32,2.3-5.32,5.53,2.2,5.51,5.32,5.51,5.32-2.28,5.32-5.51Z"/><path d="M252.8,397.97c2.2,0,3.33.57,4.07,1.2,1.22,1.03,1.58,2.4,1.58,3.59,0,1.56-.62,2.92-1.87,3.76-.41.29-.98.55-1.75.7l4.98,6.73h-3.88l-4.26-6.42h-.38v6.42h-3.11v-15.98h4.62ZM251.3,405.32h.89c.6,0,3.07-.07,3.07-2.42s-2.44-2.4-3.02-2.4h-.93v4.82Z"/><path d="M276.55,400.65h-5.75v3.57h5.51v2.68h-5.51v4.36h5.75v2.68h-8.86v-15.98h8.86v2.68Z"/><path d="M288.25,410.13h-.13c0-1.04-.39-1.94-1.16-2.71-.77-.77-1.68-1.16-2.71-1.16v-.13c1.04,0,1.94-.39,2.71-1.16.77-.77,1.16-1.68,1.16-2.71h.13c0,1.04.39,1.94,1.16,2.71.77.77,1.68,1.16,2.71,1.16v.13c-1.04,0-1.94.39-2.71,1.16s-1.16,1.68-1.16,2.71Z"/><path d="M302.59,397.97h2.25l4.24,10.16,4.43-10.16h2.25l2.68,15.98h-3.16l-1.44-9.85-4.29,9.85h-1.05l-4.1-9.85-1.63,9.85h-3.16l2.97-15.98Z"/><path d="M330.72,397.97c2.23,0,4.17.24,5.94,1.56,1.94,1.46,3.07,3.79,3.07,6.44s-1.1,4.96-3.21,6.44c-1.87,1.32-3.62,1.53-5.84,1.53h-4.12v-15.98h4.17ZM329.67,411.26h.96c.79,0,2.51-.05,3.9-1.05,1.27-.91,1.99-2.54,1.99-4.24s-.69-3.31-1.96-4.26c-1.29-.96-2.88-1.05-3.93-1.05h-.96v10.61Z"/></svg>