<?xml version="1.0" encoding="UTF-8"?><svg id="Layer_1" xmlns="http://www.w3.org/2000/svg" viewBox="0 0 450 500"><defs><style>.cls-1{fill:#efeadf;}.cls-2{fill:#c1c6c8;}.cls-3{fill:#ffee02;}.cls-4{fill:#252525;}.cls-5{fill:#252525;}</style></defs><path class="cls-4" d="M62.64,361.88c0,3.45-1.14,6.34-3.43,8.69-2.29,2.35-5.16,3.52-8.6,3.52-1.46,0-2.82-.34-4.07-1.01v4.12c0,1.07.37,1.86,1.1,2.38.73.52,1.65.72,2.75.59v3.25c-.82.27-1.75.41-2.79.41-2.08,0-3.69-.73-4.85-2.2-1.5,1.46-3.57,2.2-6.22,2.2-.55,0-1.1-.05-1.65-.14v-2.97c.98,0,1.8-.28,2.47-.85.67-.56,1.01-1.32,1.01-2.27v-19.99c0-1.1-.27-2-.82-2.7-.64-.79-1.5-1.17-2.56-1.14v-3.66c.55-.09,1.21-.14,1.97-.14,2.71,0,4.7.78,5.95,2.33,2.5-1.8,5.06-2.7,7.69-2.7,3.48,0,6.36,1.17,8.65,3.52s3.43,5.26,3.43,8.74ZM41,375.11v-15.37c0-2.53-.49-4.29-1.46-5.26.4.64.59,1.92.59,3.84v16.01c0,2.44-.31,3.98-.92,4.62,1.19-.4,1.78-1.68,1.78-3.84ZM54.91,360.97c0-.67-.03-1.27-.09-1.78-.12-1.1-.55-2.21-1.29-3.34-.86-1.37-1.79-2.06-2.81-2.06-1.17,0-2.19.41-3.08,1.21-.89.81-1.33,1.78-1.33,2.91v10.62c.73.4,1.57.59,2.52.59,2.1,0,3.69-.88,4.76-2.65.88-1.43,1.33-3.26,1.33-5.49ZM57.93,360.99c0-2.45-.96-4.76-2.88-6.93,1.25,2.2,1.88,4.7,1.88,7.48s-.85,5.37-2.56,7.57c1.04-.98,1.89-2.23,2.56-3.74s1.01-2.98,1.01-4.38Z"/><path class="cls-4" d="M95.81,373c0,3.26-1.34,5.96-4.03,8.1-2.5,2.01-5.42,3.02-8.74,3.02-1.5,0-3.17-.38-5.01-1.14-1.85-.76-2.71-1.14-2.59-1.14-.49,0-.67.44-.55,1.33h-3.48l-.5-12.08,3.25-.23c.55,1.89,1.72,3.83,3.52,5.81,2.01,2.23,3.87,3.34,5.58,3.34,1.34,0,2.52-.46,3.52-1.37,1.01-.92,1.51-2.04,1.51-3.39,0-2.26-1.54-3.83-4.62-4.71-5.64-1.62-8.53-2.46-8.65-2.52-3.08-1.58-4.62-4.33-4.62-8.24,0-3.08,1.16-5.58,3.48-7.5,2.17-1.8,4.83-2.7,8.01-2.7,2.93,0,5.93.82,9.01,2.47l.5-1.65,2.61.37.5,10.89-2.75.23c-1.31-5.79-3.95-8.69-7.92-8.69-1.4,0-2.61.55-3.61,1.65s-1.51,2.36-1.51,3.8c0,1.13.93,2.04,2.79,2.75,1.95.55,3.9,1.1,5.86,1.65,2.47.73,4.19,1.6,5.17,2.61,2.17,2.23,3.25,4.68,3.25,7.37ZM90.64,373.78c0-3.54-3.17-5.77-9.52-6.68-2.26-.33-4.13-1.25-5.63-2.75-1.62-1.56-2.44-3.45-2.47-5.67-.12.64-.18,1.25-.18,1.83,0,2.1.76,3.8,2.29,5.08,1.13.98,2.84,1.79,5.12,2.42,1.86.46,3.72.92,5.58,1.37.98.27,1.91,1.08,2.79,2.4.88,1.33,1.33,2.51,1.33,3.55,0,.49-.06.98-.18,1.46.58-1.04.87-2.04.87-3.02Z"/><path class="cls-4" d="M135.62,349.99v3.66c-1.06.03-2.2.52-3.42,1.47-1,.8-1.85,1.72-2.55,2.76l-7.16,10.99v8.42c0,.86.4,1.58,1.19,2.16.79.58,1.69.84,2.7.78v3.04c-.92.29-1.92.44-3.02.44-2.32,0-3.92-.84-4.8-2.52-1.4,1.68-3.33,2.52-5.76,2.52-.92,0-1.85-.15-2.79-.46v-3.02h.18c1.01,0,1.85-.25,2.54-.76.69-.5,1.03-1.24,1.03-2.22v-7.7l-7.18-11.92c-.95-1.56-1.46-2.41-1.56-2.57-.79-1.01-1.6-1.51-2.43-1.51h-.55v-3.44c.88-.21,1.88-.31,2.97-.31,2.65,0,4.42.76,5.31,2.29.98-1.53,2.7-2.29,5.17-2.29.64,0,1.31.06,2.01.19l-.05,3.56c-.49-.24-.92-.37-1.28-.37-.89,0-1.33.33-1.33.97,0,.46.78,2,2.33,4.59,1.01,1.55,2,3.11,2.97,4.68.94-1.28,1.91-2.58,2.88-3.89,1.46-2.13,2.2-3.64,2.2-4.53,0-1.25-1.05-1.77-3.16-1.56v-3.29c.88-.15,1.83-.23,2.86-.23,2.55,0,4.11.64,4.68,1.92,1.61-1.34,3.41-1.98,5.41-1.92l.59.05ZM116.68,376.47v-8.17l-7.23-12.3c-.3-.52-.78-1.09-1.42-1.7-.73-.67-1.34-1.04-1.83-1.1.7.28,2.35,2.68,4.94,7.21,1.56,2.75,3.11,5.53,4.67,8.31.06,1.71.09,2.94.09,3.67,0,4.19-.4,6.55-1.19,7.07,1.31-.52,1.97-1.51,1.97-2.98Z"/><path class="cls-4" d="M166.92,373.18c-.37,3.02-1.82,5.6-4.35,7.75-2.53,2.15-5.32,3.23-8.37,3.23-4.51,0-8.1-1.68-10.75-5.03-2.5-3.08-3.75-6.95-3.75-11.62s1.1-8.97,3.29-12.26c2.53-3.78,6.12-5.67,10.75-5.67,2.56,0,5.17.75,7.82,2.24l.87-1.51,2.79.18v11.16h-2.7c-1.25-5.46-3.66-8.19-7.23-8.19-2.65,0-4.65,1.59-5.99,4.76-1.04,2.38-1.56,5.09-1.56,8.14s.53,5.96,1.6,8.37c1.4,3.17,3.49,4.76,6.27,4.76,2.01,0,3.78-.78,5.31-2.33,1.4-1.43,2.3-3.17,2.7-5.22l3.29,1.24ZM148.07,380.78c-1.62-1.62-2.91-3.81-3.89-6.59-.88-2.56-1.33-5.08-1.33-7.55,0-3.66.87-7.38,2.61-11.16-2.47,2.5-3.71,6.27-3.71,11.3,0,2.87.47,5.49,1.42,7.87,1.1,2.75,2.73,4.79,4.9,6.13Z"/><path class="cls-4" d="M201.42,371.95l-2.84,11.71h-3.2l-.78-1.46c-2.35.98-4.79,1.46-7.32,1.46-2.87,0-5.06-.84-6.59-2.52-1.37,1.68-3.05,2.52-5.03,2.52-.79,0-1.59-.17-2.38-.5v-3.25c1.28,0,2.3-.53,3.07-1.59.67-.94,1.01-2.06,1.01-3.37v-17.57c0-2.28-1.42-3.61-4.26-4.01v-3.2c.61-.13,1.33-.19,2.15-.19,2.62,0,4.65.75,6.09,2.24,1.37-1.49,3.37-2.24,5.99-2.24.55,0,1.1.05,1.65.14v3.25h-.14c-1.16-.06-2.07.29-2.72,1.07-.66.77-.98,1.76-.98,2.97v19.39c1.22.73,2.67,1.09,4.35,1.09,3.9,0,7-2.45,9.29-7.37l2.65,1.42ZM180.32,374.88v-15.37c0-.82-.14-1.75-.42-2.79-.31-1.16-.71-1.98-1.18-2.47.37.64.55,1.92.55,3.84v16.01c0,2.44-.3,3.98-.92,4.62,1.31-.4,1.97-1.68,1.97-3.84Z"/><path class="cls-4" d="M234.4,372.59l-.82,11.07h-2.47l-1.24-2.1c-2.47,1.4-5.14,2.1-8.01,2.1s-5.14-.87-7.09-2.61c-1.95,1.74-4,2.61-6.13,2.61-.52,0-1.02-.08-1.51-.23v-3.39c.95,0,1.66-.56,2.15-1.69.4-.85.6-1.81.6-2.87v-16.7c0-1.52-.26-2.78-.79-3.79-.68-1.34-1.71-1.9-3.1-1.69v-3.33l.92-.05c3.72-.09,5.92.69,6.59,2.33,2.26-1.56,4.71-2.33,7.37-2.33.98,0,2.24.24,3.8.71,1.56.47,2.65.71,3.29.71,1.13,0,1.78-.47,1.97-1.42l2.52,1.22.04,7.02-2.61.82c-.31-1.49-1.11-2.7-2.42-3.62-1.31-.92-2.75-1.37-4.3-1.37-2.2,0-3.71.61-4.53,1.83-.58.92-.87,2.39-.87,4.44v1.88c.03.82.05,1.46.05,1.92.55.25,1.14.37,1.78.37,2.07,0,3.17-1.51,3.29-4.53l3.2.14c.03.25.05.57.05.96,0,3.02-.67,4.7-2.01,5.03,1.43,1.07,2.23,2.78,2.38,5.12h-3.66c-.43-1.08-.79-1.79-1.1-2.12-.49-.48-1.27-.72-2.33-.72-.7,0-1.22.23-1.56.68,0,3.33.11,5.49.32,6.49.58,2.75,1.98,4.13,4.21,4.13,2.41,0,4.35-.64,5.81-1.91,1.59-1.33,2.43-3.2,2.52-5.59l3.71.46ZM212.9,359.96c0-.85-.12-1.78-.37-2.79-.31-1.16-.69-1.98-1.14-2.47.37.64.55,1.92.55,3.84v16.01c0,2.44-.31,3.98-.92,4.62,1.25-.4,1.88-1.68,1.88-3.84v-15.37Z"/><path class="cls-4" d="M268.22,373c0,3.26-1.34,5.96-4.03,8.1-2.5,2.01-5.42,3.02-8.74,3.02-1.5,0-3.17-.38-5.01-1.14-1.85-.76-2.71-1.14-2.59-1.14-.49,0-.67.44-.55,1.33h-3.48l-.5-12.08,3.25-.23c.55,1.89,1.72,3.83,3.52,5.81,2.01,2.23,3.87,3.34,5.58,3.34,1.34,0,2.52-.46,3.52-1.37,1.01-.92,1.51-2.04,1.51-3.39,0-2.26-1.54-3.83-4.62-4.71-5.64-1.62-8.53-2.46-8.65-2.52-3.08-1.58-4.62-4.33-4.62-8.24,0-3.08,1.16-5.58,3.48-7.5,2.17-1.8,4.83-2.7,8.01-2.7,2.93,0,5.93.82,9.01,2.47l.5-1.65,2.61.37.5,10.89-2.75.23c-1.31-5.79-3.95-8.69-7.92-8.69-1.4,0-2.61.55-3.61,1.65s-1.51,2.36-1.51,3.8c0,1.13.93,2.04,2.79,2.75,1.95.55,3.9,1.1,5.86,1.65,2.47.73,4.19,1.6,5.17,2.61,2.17,2.23,3.25,4.68,3.25,7.37ZM263.05,373.78c0-3.54-3.17-5.77-9.52-6.68-2.26-.33-4.13-1.25-5.63-2.75-1.62-1.56-2.44-3.45-2.47-5.67-.12.64-.18,1.25-.18,1.83,0,2.1.76,3.8,2.29,5.08,1.13.98,2.84,1.79,5.12,2.42,1.86.46,3.72.92,5.58,1.37.98.27,1.91,1.08,2.79,2.4.88,1.33,1.33,2.51,1.33,3.55,0,.49-.06.98-.18,1.46.58-1.04.87-2.04.87-3.02Z"/><path class="cls-4" d="M303.95,373.18c-.37,3.02-1.82,5.6-4.35,7.75-2.53,2.15-5.32,3.23-8.37,3.23-4.51,0-8.1-1.68-10.75-5.03-2.5-3.08-3.75-6.95-3.75-11.62s1.1-8.97,3.29-12.26c2.53-3.78,6.12-5.67,10.75-5.67,2.56,0,5.17.75,7.82,2.24l.87-1.51,2.79.18v11.16h-2.7c-1.25-5.46-3.66-8.19-7.23-8.19-2.65,0-4.65,1.59-5.99,4.76-1.04,2.38-1.56,5.09-1.56,8.14s.53,5.96,1.6,8.37c1.4,3.17,3.49,4.76,6.27,4.76,2.01,0,3.78-.78,5.31-2.33,1.4-1.43,2.3-3.17,2.7-5.22l3.29,1.24ZM285.1,380.78c-1.62-1.62-2.91-3.81-3.89-6.59-.88-2.56-1.33-5.08-1.33-7.55,0-3.66.87-7.38,2.61-11.16-2.47,2.5-3.71,6.27-3.71,11.3,0,2.87.47,5.49,1.42,7.87,1.1,2.75,2.73,4.79,4.9,6.13Z"/><path class="cls-4" d="M346.73,380.55v3.16c-.25.06-.58.09-1.01.09-2.9,0-5.02-.84-6.36-2.52-1.68,1.59-4.04,2.38-7.09,2.38-.52,0-1.02-.03-1.51-.09v-3.02c.95,0,1.8-.14,2.56-.41,1.07-.37,1.6-.92,1.6-1.65,0-.43-.27-1.16-.82-2.2-.4-.67-.79-1.36-1.19-2.06h-14.18c-.79,1.91-1.19,3.11-1.19,3.6,0,1.91,1.4,2.83,4.21,2.77v3.05c-.43.09-.95.14-1.56.14-2.1,0-3.75-.67-4.94-2.01-1.8,1.34-3.63,2.01-5.49,2.01-.7,0-1.36-.14-1.97-.41v-2.98c2.23-.09,3.75-1.1,4.58-3.02,1.65-3.82,3.31-7.65,4.99-11.5,2.75-6.45,4.12-10.04,4.12-10.77,0-.95-.61-1.42-1.83-1.42h-1.14l.05-3.58c.61-.15,1.34-.22,2.2-.22,2.81,0,4.9.92,6.27,2.75.61-.87,1.54-1.55,2.79-2.05,1.13-.46,2.27-.7,3.43-.7.64,0,1.28.06,1.92.18v3.31c-.76.03-1.42.23-1.97.6-.67.43-1.01,1-1.01,1.7,0,.46.15.98.46,1.57l10.39,20.09c1.19,2.29,2.42,3.36,3.71,3.2ZM330.18,369.39l-5.19-10.33-4.11,10.33h9.3ZM337.12,377.81c0-1.25-.24-2.35-.72-3.3l-8.19-16.43c-.31-.55-.94-1.06-1.89-1.55l10.8,21.28Z"/><path class="cls-4" d="M381.68,361.88c0,3.45-1.14,6.34-3.43,8.69-2.29,2.35-5.16,3.52-8.6,3.52-1.46,0-2.82-.34-4.07-1.01v4.12c0,1.07.37,1.86,1.1,2.38.73.52,1.65.72,2.75.59v3.25c-.82.27-1.75.41-2.79.41-2.08,0-3.69-.73-4.85-2.2-1.5,1.46-3.57,2.2-6.22,2.2-.55,0-1.1-.05-1.65-.14v-2.97c.98,0,1.8-.28,2.47-.85.67-.56,1.01-1.32,1.01-2.27v-19.99c0-1.1-.27-2-.82-2.7-.64-.79-1.5-1.17-2.56-1.14v-3.66c.55-.09,1.21-.14,1.97-.14,2.71,0,4.7.78,5.95,2.33,2.5-1.8,5.06-2.7,7.69-2.7,3.48,0,6.36,1.17,8.65,3.52s3.43,5.26,3.43,8.74ZM360.04,375.11v-15.37c0-2.53-.49-4.29-1.46-5.26.4.64.59,1.92.59,3.84v16.01c0,2.44-.31,3.98-.92,4.62,1.19-.4,1.78-1.68,1.78-3.84ZM373.95,360.97c0-.67-.03-1.27-.09-1.78-.12-1.1-.55-2.21-1.29-3.34-.86-1.37-1.79-2.06-2.81-2.06-1.17,0-2.19.41-3.08,1.21-.89.81-1.33,1.78-1.33,2.91v10.62c.73.4,1.57.59,2.52.59,2.1,0,3.69-.88,4.76-2.65.88-1.43,1.33-3.26,1.33-5.49ZM376.97,360.99c0-2.45-.96-4.76-2.88-6.93,1.25,2.2,1.88,4.7,1.88,7.48s-.85,5.37-2.56,7.57c1.04-.98,1.89-2.23,2.56-3.74s1.01-2.98,1.01-4.38Z"/><path class="cls-4" d="M415.5,372.59l-.82,11.07h-2.47l-1.24-2.1c-2.47,1.4-5.14,2.1-8.01,2.1s-5.14-.87-7.09-2.61c-1.95,1.74-4,2.61-6.13,2.61-.52,0-1.02-.08-1.51-.23v-3.39c.95,0,1.66-.56,2.15-1.69.4-.85.6-1.81.6-2.87v-16.7c0-1.52-.26-2.78-.79-3.79-.68-1.34-1.71-1.9-3.1-1.69v-3.33l.92-.05c3.72-.09,5.92.69,6.59,2.33,2.26-1.56,4.71-2.33,7.37-2.33.98,0,2.24.24,3.8.71,1.56.47,2.65.71,3.29.71,1.13,0,1.78-.47,1.97-1.42l2.52,1.22.04,7.02-2.61.82c-.31-1.49-1.11-2.7-2.42-3.62-1.31-.92-2.75-1.37-4.3-1.37-2.2,0-3.71.61-4.53,1.83-.58.92-.87,2.39-.87,4.44v1.88c.03.82.05,1.46.05,1.92.55.25,1.14.37,1.78.37,2.07,0,3.17-1.51,3.29-4.53l3.2.14c.03.25.05.57.05.96,0,3.02-.67,4.7-2.01,5.03,1.43,1.07,2.23,2.78,2.38,5.12h-3.66c-.43-1.08-.79-1.79-1.1-2.12-.49-.48-1.27-.72-2.33-.72-.7,0-1.22.23-1.56.68,0,3.33.11,5.49.32,6.49.58,2.75,1.98,4.13,4.21,4.13,2.41,0,4.35-.64,5.81-1.91,1.59-1.33,2.43-3.2,2.52-5.59l3.71.46ZM393.99,359.96c0-.85-.12-1.78-.37-2.79-.31-1.16-.69-1.98-1.14-2.47.37.64.55,1.92.55,3.84v16.01c0,2.44-.31,3.98-.92,4.62,1.25-.4,1.88-1.68,1.88-3.84v-15.37Z"/><path class="cls-4" d="M114.99,397.97c.89,0,2.61,0,3.91,1.01.93.72,1.49,1.96,1.49,3.31,0,2.06-1.37,2.9-1.8,3.14,1.05.17,1.68.62,2.08,1.01.96.91,1.15,2.16,1.15,3,0,.93-.26,2.25-1.37,3.23-1.2,1.05-2.66,1.29-4.05,1.29h-5.37v-15.98h3.95ZM114.15,404.6h.89c.48,0,2.42-.05,2.42-2.08,0-1.46-1.13-2.01-2.4-2.01h-.91v4.1ZM114.15,411.41h1.34c.58,0,1.44-.02,2.13-.43.77-.46.98-1.22.98-1.84,0-.5-.17-1.37-1.17-1.82-.67-.31-1.46-.31-2.13-.31h-1.15v4.41Z"/><path class="cls-4" d="M139.9,410.59h-6.44l-1.41,3.35h-3.38l6.88-15.98h2.44l6.68,15.98h-3.35l-1.41-3.35ZM138.99,408.05l-2.28-5.75-2.28,5.75h4.55Z"/><path class="cls-4" d="M155.41,397.97v13.29h4.94v2.68h-8.05v-15.98h3.11Z"/><path class="cls-4" d="M172.85,400.65v13.3h-3.11v-13.3h-3.59v-2.68h10.3v2.68h-3.59Z"/><path class="cls-4" d="M187.27,397.97v15.98h-3.11v-15.98h3.11Z"/><path class="cls-4" d="M198.82,397.97h2.25l4.24,10.16,4.43-10.16h2.25l2.68,15.98h-3.16l-1.44-9.85-4.29,9.85h-1.05l-4.1-9.85-1.63,9.85h-3.16l2.97-15.98Z"/><path class="cls-4" d="M239.55,405.97c0,4.86-3.5,8.34-8.53,8.34s-8.53-3.47-8.53-8.34,3.5-8.36,8.53-8.36,8.53,3.5,8.53,8.36ZM236.34,405.97c0-3.23-2.2-5.53-5.32-5.53s-5.32,2.3-5.32,5.53,2.2,5.51,5.32,5.51,5.32-2.28,5.32-5.51Z"/><path class="cls-4" d="M252.8,397.97c2.2,0,3.33.57,4.07,1.2,1.22,1.03,1.58,2.4,1.58,3.59,0,1.56-.62,2.92-1.87,3.76-.41.29-.98.55-1.75.7l4.98,6.73h-3.88l-4.26-6.42h-.38v6.42h-3.11v-15.98h4.62ZM251.3,405.32h.89c.6,0,3.07-.07,3.07-2.42s-2.44-2.4-3.02-2.4h-.93v4.82Z"/><path class="cls-4" d="M276.55,400.65h-5.75v3.57h5.51v2.68h-5.51v4.36h5.75v2.68h-8.86v-15.98h8.86v2.68Z"/><path class="cls-4" d="M288.25,410.13h-.13c0-1.04-.39-1.94-1.16-2.71-.77-.77-1.68-1.16-2.71-1.16v-.13c1.04,0,1.94-.39,2.71-1.16.77-.77,1.16-1.68,1.16-2.71h.13c0,1.04.39,1.94,1.16,2.71.77.77,1.68,1.16,2.71,1.16v.13c-1.04,0-1.94.39-2.71,1.16s-1.16,1.68-1.16,2.71Z"/><path class="cls-4" d="M302.59,397.97h2.25l4.24,10.16,4.43-10.16h2.25l2.68,15.98h-3.16l-1.44-9.85-4.29,9.85h-1.05l-4.1-9.85-1.63,9.85h-3.16l2.97-15.98Z"/><path class="cls-4" d="M330.72,397.97c2.23,0,4.17.24,5.94,1.56,1.94,1.46,3.07,3.79,3.07,6.44s-1.1,4.96-3.21,6.44c-1.87,1.32-3.62,1.53-5.84,1.53h-4.12v-15.98h4.17ZM329.67,411.26h.96c.79,0,2.51-.05,3.9-1.05,1.27-.91,1.99-2.54,1.99-4.24s-.69-3.31-1.96-4.26c-1.29-.96-2.88-1.05-3.93-1.05h-.96v10.61Z"/><path class="cls-5" d="M326.2,268c4.09-.45,6.75,1.25,9.57,3.95,4.81,4.59,5.61,12.02,1.09,17.13-5.48,6.2-14.28,3.35-19.06,12.39-1.95,3.69-1.81,5.49-5.27,8.55-6.16,5.45-14.64,3.92-17.78-3.88-1.48-3.67-.76-11.84,2.23-14.67,2.98-2.82,10.28-3.32,14.22-5.62,6.73-3.93,4.79-16.75,15-17.86ZM327.81,274.02c-1.9.27-3.7,1.92-4.84,3.37-3.69,4.69.2,10.94,6,10.4.69-.06,3.13-1.13,3.6-1.61,3.12-3.22,1.68-8.67-1.6-11.21-1.09-.85-1.71-1.16-3.15-.95ZM303.76,294.45c-1.82.26-3.75,1.61-4.11,3.51-.74,3.92.89,8.88,5.05,10.08,2.89.84,5.71-3.31,5.7-5.9-.02-3.08-3.13-8.2-6.64-7.69Z"/><path class="cls-5" d="M99.77,234.95c4.36-.55,10.35,3.03,12.17,6.96,1.79,3.87,1.35,5.94,1.76,9.86.44,4.13,2.92,5.71,5.97,8.05,3.26,2.51,8.44,4.71,9.9,8.73,1.67,4.6-.13,8.26-3.11,11.71-6.04,6.98-12.65,6.03-18.51-.52-4.03-4.5-2.88-12.36-6.04-17.8-2.47-4.25-9.47-5.51-11.75-10.29-3.38-7.11,2-15.75,9.61-16.71ZM100.58,240.76c-1.5.17-2.43.67-3.36,1.85-3.99,5.08.33,11.69,6.49,11.09,2.6-.25,5.68-2.62,5.54-5.48-.24-4.65-4-8-8.66-7.46ZM118.62,266.81c-4.15.25-6.3,3.62-5.75,7.63.23,1.67,3.27,4.13,4.89,4.33,3.17.4,6.7-1.74,6.91-5.12.24-3.9-1.94-7.1-6.05-6.85Z"/><path class="cls-5" d="M242.17,314.31c5.19-3.73,13.22-.01,19.22-3.32,3.7-2.03,5.29-4.78,8.26-7.17,6.79-5.47,16.4-1.94,18.72,6.32,1.88,6.67-.35,12.28-6.22,15.8-6.25,3.76-10.73-.22-17.02,1.21-7.08,1.61-9.92,10.74-18.34,8.13-2.14-.66-4.07-2.01-5.49-3.72-3.47-4.17-3.94-13.79.87-17.25ZM277.32,309.28c-2.51.23-3.71.91-4.8,3.21-1.4,2.95-.5,6.31,2.38,7.91,5.69,3.17,11.34-2.67,8.24-8.24-1.31-2.35-3.19-3.13-5.81-2.88ZM249.05,316.89c-4.22.79-6.72,6.17-3.95,9.67,5.25,6.62,15.32,1.53,11.71-6.5-1.14-2.53-5.22-3.64-7.76-3.16Z"/><path class="cls-5" d="M354.87,213.92c6.85-.17,12.37,4.83,11.87,11.87-.49,7.04-8.17,9.09-10.38,15.86-1.31,4.02.2,5.53.53,9.2.72,7.96-6.33,14.91-14.41,12.81-1.29-.33-1.46-.97-2.33-1.48-2.12-1.25-3.75-1.57-5.04-3.97-3.4-6.32-1.41-12.71,3.67-17.3,1.26-1.14,2.63-1.75,3.81-3.2,3.53-4.3,1.45-7.22,1.1-11.93-.59-8.08,3.4-11.67,11.18-11.86ZM353.65,218.52c-.94.16-3.85,1.98-4.21,2.81-.25.57-.22,2.38-.16,3.06.39,4.44,5.3,6.73,9.23,5,2.12-.93,2.62-3.06,2.62-5.21,0-3.45-4.25-6.22-7.48-5.66ZM346.19,246.62c-2.2-.04-5.93,2.24-6.71,4.41.29,2.37.19,4.4,2.59,5.61,3.49,1.76,7.88.34,8.38-3.87.3-2.57-1.36-6.1-4.26-6.15Z"/><path class="cls-5" d="M136.85,284.44c4.02-.39,8.82,2.33,11.46,5.26,1.79,1.98,5.09,8.4,7.23,9.2,3.84,1.43,8.79,1.12,12.86,2.37,3.61,1.11,7.72,3.7,8.64,7.59,2.6,10.97-10.98,21.76-19.41,12.19-4.08-4.63-4.24-9.63-11.18-12.06-3.86-1.35-10.46-.36-13.83-2.8-8.04-5.83-6.79-20.68,4.23-21.74ZM138.06,289.44c-7.67.54-5.47,14.63,2.9,12.73,1.84-.42,4.59-2.5,4.76-4.45.38-4.37-3.15-8.59-7.66-8.28ZM164.7,307.07c-5.3.77-6.85,8.58-1.42,11.33,7.21,3.66,11.61-6.02,7.14-9.55-1.45-1.15-3.87-2.05-5.72-1.78Z"/><path class="cls-5" d="M328.42,100.72c6.64-.68,12.21,2.4,13.24,9.28.51,3.44.32,5.69,1.74,9.08,2.47,5.88,5.6,5.57,9.71,9.32,4.36,3.98,7.59,9.87,4.13,15.56-4.38,7.21-16.61,5.21-20.54-1.36-2.56-4.29-2.41-6.7-2.83-11.4-.85-9.57-8.56-8.79-13.34-14.71-2.46-3.05-2.03-8.46-.06-11.68,1.24-2.01,5.61-3.85,7.93-4.09ZM329.62,105.13c-8.15.37-5.94,13.93,2.3,10.72,6.07-2.36,4.41-11.03-2.3-10.72ZM345.04,131.57c-3.3.45-5.9,3.94-5.35,7.25.15.89,2.34,2.26,3.19,2.62,4.37,1.87,9.73-.57,9.01-5.8-.19-1.35-1.6-2.61-2.73-3.28-1.4-.83-2.48-1.01-4.12-.79Z"/><path class="cls-5" d="M280.32,63.46c4.46-.46,6.92.65,9.54,4.17,1.7,2.28,3.02,4.83,5.23,6.79,5.98,5.29,15.24,1.2,21.94,7.91,7.3,7.3,1.02,18.59-8.93,18.35-6.85-.17-8.82-4.99-11.75-9.89-4.91-8.23-18.81-3.49-23.69-10.37-4.9-6.91-.74-16.09,7.66-16.95ZM279.72,67.86c-9.46,1.29-3.71,15.1,4.99,10.6,3.77-1.95,2.61-5.93.26-8.54-1.6-1.78-2.79-2.39-5.25-2.06ZM307.18,83.68c-1.98.08-4.3,1.81-4.92,3.72-1.21,3.75,1.74,8.58,5.85,8.26,4.74-.38,7.42-4.47,5.02-8.82-1.24-2.25-3.4-3.25-5.96-3.15Z"/><path class="cls-5" d="M105.79,118.76c7.78-.51,13.89,7.5,11.1,14.9-2.64,6.99-11.49,7.69-11.47,15.79.01,4.27,1.35,8.53-1.14,12.46-3.48,5.5-11.05,7.25-15.88,2.37-4.48-4.52-4.46-9.92-.59-14.83,2.09-2.65,5.87-4.58,7.21-7.62,2.48-5.59.38-11.87,2.57-16.67,1.78-3.91,3.68-6.12,8.21-6.42ZM106.18,124.56c-3.15.53-3.82,5.24-2.39,7.7,3.11,5.37,10.13.74,7.4-4.99-.81-1.69-3.13-3.02-5.01-2.71ZM95.16,151.2c-1.45.25-3.37,2.12-3.99,3.42-.84,1.75-1.02,3.17,0,4.89,1.26,2.14,4.01,2.7,6.19,1.7,5.71-2.62,3.32-10.96-2.19-10Z"/><path class="cls-5" d="M353.66,157.21c7.78-1.05,15.79,4.29,13.08,12.87-1.39,4.41-4.87,5.55-3.47,10.87,1.24,4.74,6.82,8.63,6.22,13.91-.99,8.75-10.11,13.6-17.77,8.65-5.38-3.48-6.56-8.14-4.06-14.04.9-2.13,2.76-4.48,3.02-6.8.43-3.84-3.75-7.49-5.08-10.9-2.61-6.7.74-13.58,8.06-14.57ZM354.86,162.22c-3.87.5-5.1,2.89-4.51,6.61s4.53,3.47,7.42,4.12c3.67-1.2,4.31-6.99,1.33-9.27-1.3-.99-2.58-1.68-4.24-1.46ZM356.46,188.87c-5.6.81-5.66,8.44-1.4,10.51,4.56,2.22,9.62.37,9.06-5.25-.41-4.13-3.8-5.82-7.66-5.26Z"/><path class="cls-5" d="M219.61,50.84c5.9-.11,6.9,3.37,11.05,5.46,6.64,3.34,12.54-3.12,19.55-2.93,7.19.2,12.52,6.74,10.21,13.83-2.05,6.28-5.55,9.28-12.4,8.59-7.37-.74-9.75-10.12-19.12-6.84-4.36,1.53-5.89,3.49-11.17,3.48-3.64,0-6.03-.87-7.47-4.37-3.14-7.64.14-17.05,9.33-17.23ZM218.6,56.04c-1.65.23-3.39,1.33-4.36,2.65-4.47,6.09,6.39,12.14,10.22,6.81.87-1.21,1.61-4.73,1.15-6.15-.92-2.82-4.36-3.67-7.01-3.31ZM254.45,61.46c-2.87-3.31-9.09-1.78-10.74,2.06-1.19,2.78-.78,4.92,1.68,6.69,3.73,2.69,11.5-.96,10.47-5.87-.09-.43-1.13-2.55-1.42-2.89Z"/><path class="cls-5" d="M191.95,314.49c7.3-.67,10.33,5.58,17.32,4.7,1.27-.16,2.49-.84,3.67-1.14,3.95-1.01,10.72-2.41,14.21.19,7.45,5.53,3.77,17.24-4.17,20.07-7.08,2.53-11.36-4.77-18.08-4.85-3.49-.04-6.49,1.64-9.67,2.55-15.9,4.57-17.48-20.22-3.29-21.52ZM193.15,319.3c-3.99.43-6.64,4.1-4.6,7.89,2.29,4.25,8.79,3.71,10.61-.69.95-2.29.92-3.63-.95-5.37-1.29-1.2-3.28-2.03-5.06-1.84ZM220.15,321.56c-5.66-.08-8.09,7.12-3.6,10.7,3.8,3.03,9.06,1.71,9.87-3.35.63-3.98-2.29-7.3-6.26-7.35Z"/><path class="cls-5" d="M89.76,179.06c7.39-.76,10.83,5.66,10.26,12.26-.46,5.27-3.48,7.09-1.35,12.98,2.25,6.22,6.84,12.32,1.84,18.97-2.84,3.77-11.29,5.12-15.01,2.21-5.29-4.12-3.81-9.64-1.86-15.07.49-1.37,1.43-2.68,1.67-4.14,1.3-8.26-6.14-11.83-4.63-20.05.68-3.72,5.52-6.78,9.09-7.14ZM90.76,184.25c-1.48.16-3.59,2.07-4.27,3.36-.81,1.53-.74,4.07.4,5.43,1.49,1.76,5.43,1.84,7.03.2,2-2.05,1.76-5.81-.2-7.82-.57-.58-2.14-1.25-2.96-1.16ZM92.16,212.5c-4.27.41-6.84,7.58-1.77,8.88,1.6.41,5.22.08,6.31-1.32,2.69-3.49-.2-7.97-4.54-7.56Z"/><path class="cls-5" d="M141.65,74.67c2.38-.33,3.41.22,5.36,1.35,5.32,3.07,8.2,7.22,5.66,13.48-1.67,4.09-6.89,5.95-10.82,7.22-2.71.87-5.14.58-6.85,3.16-4.25,6.41-2.83,15.67-13.82,14.39-7.62-.89-9.9-9.41-7.37-15.74,2.87-7.17,9.84-5.48,15.13-8.91,2.22-1.44,3.72-5.87,5.18-8.24,1.61-2.62,4.27-6.25,7.53-6.7ZM142.25,81.68c-1.74.25-3.58,1.62-3.76,3.45s.19,2.59,1.51,3.7c2.55,2.16,6,3.05,7.47-.74,1.68-4.32-.75-7.07-5.22-6.42ZM128.01,107.21c1.49-1.45,2.06-6.14.58-7.76-1.32-1.44-4.92-2.06-6.78-1.74-2.85.49-4.75,4.56-4.06,7.17.41,1.58,3.64,3.83,5.22,4s3.86-.52,5.04-1.67Z"/><path class="cls-5" d="M191.75,55.04c4.84-.51,9.77,3.97,10.81,8.52,1.34,5.87-5.88,11.43-11.09,12.24-3.5.55-5.79-.64-9.02-.95-2.32-.22-2.94.13-4.69,1.48-4.04,3.13-5.18,6.29-11.14,6.89-5.43.55-7.52-2.35-9.04-7.14-2.66-8.34,4.86-14.13,12.67-13.67,2.85.17,5.48,1.51,8.04,1.78,3.4.35,3.62-1.65,5.21-3.77,1.77-2.36,5.24-5.05,8.25-5.37ZM190.74,60.64c-1.27.11-3.43,1.91-3.99,3.03-1.12,2.23-.97,5.55,1.43,6.86,2.75,1.51,6.25,1.48,8.31-1.13,2.4-3.04.39-7.93-3.24-8.55-.44-.08-2.12-.24-2.51-.2ZM167.3,68.06c-4.3.63-6.8,5.72-3.76,9.06,5.59,6.14,15.51-4,7.87-8.27-1.44-.81-2.43-1.04-4.12-.79Z"/><path class="cls-5" d="M98.78,168.62c.72.47-.59,3.65-.74,4.5-.1.6-.21,1.56-.23,2.17-.05,1.44.53,3.06-.19,4.22-.67.41-2.55-1.31-3.35-1.67-2.75-1.21-5.59-.86-8.33.2-.54.21-1.16.99-1.65.56-.46-.7,1.62-4.29,1.92-5.3.42-1.43.49-2.93.39-4.41-.09-1.28-.97-3.17.1-4.11,1.26,1.34,3.17,2.58,4.95,3.06,2.38.64,4.74.41,7.13.78Z"/><path class="cls-5" d="M261.33,58.99c.51-.51,3.85,1.99,4.55,2.36,2.29,1.24,4.87,2.33,7.54,1.67l.51.51c.31,1.08-1.67,1.61-2.38,2.16-2.29,1.76-3.27,4.78-2.98,7.6.05.52.79,1.82.2,2.23s-3.85-1.02-4.92-1.11c-1.66-.14-3.46.74-4.8.59-2.1-.24.82-2.52,1.2-2.99,1.87-2.32,3.31-7.08,2.34-9.96-.19-.57-1.65-2.66-1.24-3.06Z"/><path class="cls-5" d="M332.85,257.54c.21.14,1.66,3.79,2.33,4.59,2.32,2.76,5.9,3.95,9.41,3.83,1.6-.05,3.07-.75,1.29,1.49-1.02,1.29-2.29,2.38-3.25,3.77-.89,1.29-1.33,2.82-2.27,3.95-.35.08-.39-.27-.5-.49-1.56-2.94-2.27-4.18-5.26-5.96-1.82-1.08-3.64-1.24-5.4-2.02-2.51-1.11-.27-2.09.64-3.26.6-.77,1.29-2.07,1.62-2.99.2-.57.53-3.47,1.38-2.91Z"/><path class="cls-5" d="M364.55,215.84c-1.07-1.77-3.14-3.14-5.19-3.53-2.16-.41-4.76-.54-6.94-.23-1.02.14-2.08.91-3.04.4-.77-.58.78-2.84.9-3.74s-.35-3.79,0-4.2c.77-.92,2.25.48,3.03.81,2.56,1.08,6.94,2.38,9.61,1.4.69-.25,2.35-1.77,2.71-1.7.41.08.33,1.17.3,1.5-.2,2.56-1.2,4.47-1,7.41.05.77.92,2.05-.38,1.88Z"/><path class="cls-5" d="M357.91,145.94c.12,2.93.32,5.35,1.77,7.95.34.6,1.85,2.01,1.05,2.59-.59.43-2.82-1-3.61-1.22-3.3-.92-7.17.52-9.97,2.27-.21.03-.7-.06-.82-.21-.17-.24-.43-3-.7-3.81s-.79-1.79-1.46-2.36c-.63-1.2,3.57-.75,4.23-.79,2.04-.14,5.36-.92,6.91-2.31.87-.78,1.29-2.37,2.6-2.11Z"/><path class="cls-5" d="M111.61,107.31c.22.13,1.51,3.83,2.07,4.65.82,1.21,3.4,3.25,4.81,3.6,1.28.32,3.87-.47,3.54,1.12-1.69.54-3.45,2.89-3.73,4.58-.17,1,.31,2.21-.55,2.85-2.25-2.98-5.28-6.1-9.07-6.96-.52-.12-1.93.14-2.04-.57-.04-.23,1.68-1.59,2.03-2.14,1.15-1.77,2.23-5.03,2.17-7.15l.77.03Z"/><path class="cls-5" d="M93.51,229.29c1.37-.17,3.53-1.13,4.69-1.92.55-.38,1.88-1.85,2.49-1.67l2.93,6.98c-.92.38-1.92.12-2.87.24-1.94.24-3.94,1.41-5.6,2.42-1.53.93-2.99,2.52-4.75,2.77v-3.51c0-.33-.67-2.95-.84-3.36-.3-.73-.98-1.03-.76-1.94,1.49-.13,3.26.18,4.71,0Z"/><path class="cls-5" d="M292.76,300.44c.41.26,0,2.04.05,2.65.16,2.34,1.47,5.63,2.99,7.43.2.61,2.61,2.57,2.61,2.81s-.13.38-.33.48c-2.43.71-4.75,1.86-6.5,3.72l-.69.11c-.44-.12-.04-4.72-.11-5.52-.2-2.23-1.64-4.94-2.7-6.92-.53-.98-2.16-2.35-.71-3.1.84-.44,2.37-.71,3.35-1.06.53-.19,1.37-1.03,2.03-.61Z"/><path class="cls-5" d="M321.24,93.05c.85-.17.89.77,1.24,1.27,1.38,1.99,1.91,3.16,4.24,4.18.73.32,2,.22,1.71,1.23-.24.82-1.44.45-2.05.56-2.75.51-5.26,1.84-6.9,4.12-.41.57-1.32,2.46-1.54,2.67-.19.18-.29.28-.58.19-1.17-1.65-2.5-2.92-4.22-4-.5-.31-1.89-.51-1.69-1.26.18-.7,2.59-.98,3.32-1.3,2.5-1.07,6.34-4.75,6.48-7.65Z"/><path class="cls-5" d="M133.01,283.04c.11.13.19.27.23.44-2.66,1.75-5.22,2.87-6.6,5.97-.56,1.25-.77,2.5-1.28,3.74-.58.12-1.23-1.2-1.59-1.6-1.04-1.18-2.61-3.12-3.73-4.09-.67-.58-2.55-1.02-.89-1.73,3.34-1.45,5.38-.38,8.13-4.1.62-.84.94-2.88,2.15-2.35.53.23,3.05,3.08,3.59,3.72Z"/><path class="cls-5" d="M180.17,327.46c-1.77-.55-3-2.27-4.73-2.98-1.01-.42-2.03-.43-3.08-.63-.17-.87.58-.72,1.07-1.03,3.68-2.38,4.68-5.1,5.25-9.38.86-1.6,5.69,1.08,6.08,2.54-1.54,2.22-3.09,4.2-3.93,6.82-.54,1.7-.35,2.98-.65,4.66Z"/><path class="cls-5" d="M237.68,319.04c-.07,1.17-.83,2.09-.98,3.33-.22,1.89.2,3.36.88,5.08.3.75,2.43,4.4,2.09,4.8-2.24.3-4.42.2-6.6.91-.46.15-2.43,1.56-2.38.44.03-.59,1.16-2.33,1.46-3.15.94-2.59,1.13-5.85-.33-8.27-.39-.65-1.27-.9-.94-1.91l6.79-1.23Z"/><path class="cls-5" d="M208.2,54.41c.14,1.78-1.15,3.34-1.35,5.1-.28,2.39.18,5.2,1.61,7.16.32.44.97.4.74,1.19-.16.55-1.9.78-2.57,1.04-.61.24-3.18,2.16-3.21.81,0-.56.72-2.05.81-3.01.27-3.08-.28-6.07-2.72-8.12-.45-.38-3.24-1.78-1.21-2.02,1.82-.21,3.15.38,4.99-.62.96-.52,1.78-2.11,2.91-1.54Z"/><path class="cls-5" d="M154.92,71.42c.64,2.46.41,5.18,1.57,7.54.87,1.77,2.61,2.42,3.83,3.8.08.44-2.65,1.87-3.18,2.19-.35.21-.96,1.18-1.42.34-.25-.46-.36-2.15-.7-3.05-1.46-3.8-4.02-3.89-6.21-6.22-1.68-1.79,1.29-1.79,2.58-2.43.69-.34,3.1-2.47,3.53-2.17Z"/><path class="cls-5" d="M326.8,277.22c6.36-1.1,5.69,10-.4,7.91-3.08-1.06-3.53-7.23.4-7.91Z"/><path class="cls-5" d="M304.77,297.25c.97-.07,1.93.7,2.45,1.46,2.21,3.22-2.14,7.88-4.78,4.98-1.91-2.1-.58-6.22,2.33-6.44Z"/><path class="cls-5" d="M100.97,243.56c2.04-.38,4.77.97,4.82,3.26.08,3.27-2.24,4.84-5.28,3.72s-2.43-6.44.46-6.98Z"/><path class="cls-5" d="M117.61,269.21c3.91-.54,5.83,2.97,3.14,5.74-1.52,1.56-3.37,1.53-5.16.38-2.57-1.65-.83-5.73,2.02-6.12Z"/><path class="cls-5" d="M249.65,319.89c2.35-.49,4.79.8,4.44,3.44-.51,3.92-8.29,5.48-7.38-.17.18-1.12,1.83-3.04,2.94-3.27Z"/><path class="cls-5" d="M280.9,312.3c2.07,2.07.25,6.01-2.43,6.35-3.29.41-5.09-1.61-4.01-4.81.8-2.34,4.64-3.34,6.44-1.54Z"/><path class="cls-5" d="M354.25,220.52c4.33-.7,7.06,5.43,1.8,7.21-2.1.71-4.1-.22-4.35-2.55-.22-2.06.2-4.28,2.55-4.66Z"/><path class="cls-5" d="M344.64,248.96c3.19-.62,4.36,3.89,2.47,5.68-2.3,2.18-6.02,1.62-5.77-1.95.1-1.49,1.85-3.45,3.31-3.73Z"/><path class="cls-5" d="M142.03,293.67c.99,1.01,1.26,2.41,1.03,3.79-.57,3.37-5.21,3.61-6.81.89-2.6-4.45,2.18-8.34,5.78-4.68Z"/><path class="cls-5" d="M165.49,309.47c1.52-.26,2.39-.03,3.34,1.17,1.41,1.77,1.28,4.2-.58,5.59-1.56,1.16-3.34.4-4.7-.71-2.41-1.98-.92-5.56,1.94-6.05Z"/><path class="cls-5" d="M345.03,134.37c2.84-.58,6.04,1.8,4.06,4.66-1.21,1.75-4.51,1.59-5.58-.23-.89-1.51-.37-4.04,1.52-4.43Z"/><path class="cls-5" d="M328.8,107.32c1.79-.37,3.52.09,4.3,1.82,2.09,4.62-4.71,6.18-6.33,2.52-.78-1.77.06-3.94,2.03-4.34Z"/><path class="cls-5" d="M307.36,86.49c4.17-.72,5.37,4.54,1.65,5.86-4.83,1.71-6.13-5.09-1.65-5.86Z"/><path class="cls-5" d="M279.31,70.06c2.66-.55,5,1.25,4.67,4.07s-6.38,2.91-6.8-.63c-.17-1.4.68-3.14,2.13-3.44Z"/><path class="cls-5" d="M94.76,153.21c4.94-1.28,4.91,7.73-.04,6.95-3.41-.54-2.61-6.27.04-6.95Z"/><path class="cls-5" d="M106.37,126.75c3.74-.86,5.14,4.77,1.52,5.52s-3.83-4.99-1.52-5.52Z"/><path class="cls-5" d="M357.06,190.87c3.38-.61,5.57,2.06,4.36,5.16-.99,2.54-3.69,2.43-5.61,1-2.11-1.57-.9-5.78,1.25-6.16Z"/><path class="cls-5" d="M355.26,164.02c3.11-.49,4.56,3.67,2.56,5.77-1.1,1.16-4.9.72-5.28-.95-.42-1.88.64-4.49,2.71-4.82Z"/><path class="cls-5" d="M249.25,61.45c4.91-.83,5.71,4.6,1.59,6.2-5.98,2.32-6.03-5.44-1.59-6.2Z"/><path class="cls-5" d="M219.4,58.04c2.99-.37,5.18,2.7,3.34,5.15-.46.61-1.89,1.64-2.64,1.77-5.24.89-6.11-6.23-.7-6.91Z"/><path class="cls-5" d="M220,324.9c4.81-1,4.69,6.28.35,6.37-3.62.07-3.29-5.76-.35-6.37Z"/><path class="cls-5" d="M193.56,321.69c1.87-.19,3.77,1.26,3.63,3.23-.17,2.42-2.07,3.26-4.28,2.92-3.06-.47-2.73-5.81.65-6.15Z"/><path class="cls-5" d="M88.86,191.56c-1.11-1-.4-4.46,1.29-4.89,3.05-.79,4.91,3.58,2.25,5.25-.81.51-2.85.26-3.53-.36Z"/><path class="cls-5" d="M94.74,219.8c-1.53,1.61-5.75,1.21-5.76-1.63,0-3.21,3.34-4.76,5.63-2.61,1.08,1.01,1.12,3.2.13,4.24Z"/><path class="cls-5" d="M122.21,99.71c1.58-.32,3.8,1.08,4.05,2.67.68,4.31-4.02,6.82-5.91,2.9-.58-1.2-.59-1.76-.23-3.05.28-1.03.95-2.29,2.09-2.52Z"/><path class="cls-5" d="M143.46,83.88c2.82-.16,2.71,4.17.13,4.55-3.52.52-3.06-4.38-.13-4.55Z"/><path class="cls-5" d="M194.33,63.47c1.16,1.09.88,3.61-.33,4.64-2.51,2.16-6.45-.13-4.89-3.49.88-1.9,3.77-2.51,5.22-1.15Z"/><path class="cls-5" d="M168.11,69.67c6.47-.65,4.51,7.57-.23,7.48-4.34-.08-5.32-6.92.23-7.48Z"/><path class="cls-5" d="M147.82,223.6c-.32-.14-.41.08-.63.2-5.73,3.14-11.93,6.53-17.76,10.93-.91.68-1.05,1.91-.15,3.05,1.11-.8,2.24-1.62,3.44-.46.85.83.59,1.35-.15,2.14-.36.38-3.59,2.61-4.09,2.84-2.42,1.13-4.7-1.34-2.12-3.09-1.61-2.08-2.58-4.28-.93-6.68.67-.98,2.95-2.71,4-3.45,7.14-5.05,15.42-9.19,22.52-14.26,1.6-1.14,1.82-1.79,2.48-3.64.96-2.71,1.47-5.67,2.63-8.35,1.33-3.07,4.34-4.93,4.76-8.38-1.99-.26-3.78-1.96-4.8-3.61-3.06-4.93-2.75-12.56.51-17.33,1.15-1.68,2.11-1.3,3.08-2.13.68-.58-.33-2.24-.46-3.1-.15-.98.05-2.14-.03-3.07-.17-1.88-.9-3.82-.13-5.68,1.1-2.65,4.57-6.05,6.26-8.79,2.7-4.36,3.34-7.9,7.28-11.62,1.34-1.26,3.54-2.23,5.05-3.41,1.85-1.44,1.59-1.33,3.72-2.42,3.7-1.88,7.7-9.4,11.09-12.74,3.78-3.72,12-9.66,17.08-10.9,9.26-2.25,20.99.14,30.6.5,2.89.11,5.86-.29,8.73-.04,8.39.74,16.33,2.78,24.07,6.05,6.91,2.92,18.92,15.17,22.48,21.81.9,1.69,1.41,3.66,2.47,5.23,3.33,4.91,7.81,9.35,9.42,15.24,1.03,3.77.96,8.07,1.7,11.97.58,3.03,1.73,5.57,1.66,8.74-.07,3.33-1.05,6.58-1.29,9.88-.16,2.17.31,4.61.31,6.81,0,8.11-2.9,19.89-6.71,27.07-4.06,7.66-9.93,14.27-15.88,20.5-7.38,7.72-16.73,17.85-27.15,20.82-3.13.89-10,1.64-13.22,1.41s-6.3-1.42-9.48-.28l-7.63,5.99c-.89.54-2.93,1.17-3.96,1.16-8.63-.07-17.11-2.34-25.45-4.49-11.37-2.94-22.32-6.2-32.59-11.99-4.89-2.76-9.32-6.28-14.05-9.28-4.14-2.63-8.35-3.82-10.44-8.83-2.04-4.9,1.98-10.03,3.76-14.34ZM254.78,253.72c.66.11,1.31.23,1.99.25,2.66.07,9.66-1.37,11.8-2.88,2.89-2.03,8.28-7.53,10.86-10.24,1.43-1.49,2.5-3.18,4-4.61,3.68-3.51,7.99-6.73,11.19-10.73,2.97-3.7,5.08-10.17,6.7-14.74,1.96-5.55,3.14-14.04,3.34-19.97.06-1.85-.48-4.03-.59-5.92-.36-6.17,1.32-12.2,1.16-18.36-.17-6.47-7.6-12.48-10.48-17.9-2.03-3.83-3.02-6.25-5.86-9.78-5.32-6.63-13.81-14.67-21.81-17.66-5.89-2.2-15.93-4.7-22.16-5.04-1.78-.1-3.96.46-5.85.46-6.4,0-12.87-.66-19.22-1.14-9.41-.71-15.05,1.82-21.91,7.83-2.85,2.5-5.19,5.54-7.46,8.55,1.71.6,3.62.17,5.39.32,1.38.12,5.15.6,6.11,1.37.9.73,1.47,2.48,1.67,3.6-.58.25-1.2.47-1.83.57-3.16.51-5.88.14-8.97-.05-1.84-.11-3.72.74-5.52,1.14-.8.17-1.94.1-2.68.33-.97.31-2.35,1.55-3.48,2.04-1.48.64-4.27.87-5.41,1.65-.21.14-2.96,3.58-3.19,3.96-.81,1.3-1.25,3.03-2.03,4.48-.73,1.35-1.89,3.13-2.78,4.4-1.6,2.29-5.27,5.86-5.25,8.69,0,.63,1.16,5.99,1.39,6.21,2.49.46,5.06-.62,7.46.54,1.61.77,1.98,2,2.41,3.64-1.55-.02-2.88.67-4.32,1.02-2.77.67-7.46.88-8.79,3.7-.92,1.95-1.71,4.6-1.94,6.74-.04.42-.21,2.72-.15,2.85.35.71,2.8-.27,3.42-.51.87-.34,1.69-.82,2.51-1.26-.44-.3-.44-1.07-.64-1.33-.18-.25-.79-.35-.92-.79-.35-1.15.24-1.27,1.18-1.2,2.16.14,4.25,1.27,6.34,1.38.8.04,1.41-.33,2.04-.28,1.98.14.06,2.74-.5,3.55-1.54,2.24-3.53,4.17-5.14,6.33-.93,1.25-2.69,3.27-1.79,4.81l1.56-.5c.1-.7.72-1.43.89-2.01.29-.97.2-2.61.58-3.42.12-.26,2.87-2.28,3.31-2.51.51-.28,1.13-.3.78.36-.38.7-1.46,1.38-.27,2,.9-.44,1.06-1.52,1.49-2.32,1.06-.13,1.24,1.13,2.06,1.31.5.11,1.99-.21,2.43-.46,1.17-.66-.31-2.53.71-3.23,1.64,1.21,1.09,3.32,1.32,5.04.11.81.55,1.53.51,2.37.14.36.57.04.81-.08,1.92-.98,4.83-2.96,6.7-4.21.47-.31.97-.67,1.35-1.08-2.4-.16-3.96,1.71-6.14.12-1.48-1.08-1.38-2-1.82-3.47-.16-.52-.61-.77-.61-1.45,0-1.46,1.11-1.58,1.35-2.37.24-.8-.38-1.55.14-2.84.49-1.24,4.25-5.58,5.34-6.77,2.33-2.54,5.91-6.08,8.57-8.22,3.56-2.86,4.63-1.76,5.83,2.24,1.48,4.92.71,9.99-.15,14.97l3.06-2.05c.29-3.08.32-6.42,2.23-9.01.88.02,1.05.68,1.21,1.4.34,1.6.39,3.72.12,5.32l6.66-3.93c.4-.57-.16-2.04-.19-2.79-.07-1.64.2-3.98.56-5.58.23-1,1.63-3.58,1.59-4.05-.03-.39-1.5-2.91-1.81-3.49-.7-1.28-1.86-2.81-2.43-4.06-.12-.27-.28-.55-.15-.86l.54-.45,4.54,7.83c1.46-2.5,3.86-4.06,5.92-5.95-.42-8.26-1.72-16.44-1.91-24.72-.28-.27-2.99.51-3.53.66-1.8.51-3.76,1.2-5.56,1.79-1.33.44-7,2.89-7.97,2.43-.27-.19-.33-.36-.19-.67.53-1.21,11.26-4.44,13.08-4.89,33.57-8.38,65.02,11.04,75.31,43.24,1.49,4.67,2.51,9.35,2.39,14.3-.39-.05-.81-.03-.88-.47l-1.71-11.82c-7.84,2.2-15.43,5.38-23.45,6.91l-.72-1.01c2.47-.95,5.14-1.23,7.69-1.91,5.29-1.42,10.45-3.4,15.78-4.72l.41-.39c-3.28-10.41-9.04-20.05-16.87-27.65-3.41,4.05-6.75,8.19-10.42,12-2.04,2.12-7.54,6.49-8.64,8.59-1.25,2.37-2.62,6.15-3.19,8.76-.69,3.15-.94,6.43-2.05,9.5,1.17-.19,8.72-2.97,9.11-2.56-.53,1.28-1.45.95-2.56,1.31s-7.05,2.35-7.46,2.94c-.74,1.07-1.02,2.12-2.14,3.17-.59.55-4.25,1.74-5.16,1.86-4.6.61-9.33-1.41-13.49-3.1-3.58-1.45-9.84-3.94-12.06-7.12-.31-.44-1.16-2.53-1.48-2.5l-7.39,4.74c-.46.81-.46,2.52-1.34,3.03-.39.22-1.69.37-2.32.59-.21.07-1.32.89-1.06.2.1-.24.58-.69-.01-.72-.72.65-2.42,1.29-3,2-.45.56-.38,1.72-.83,2.61-.29.57-1.28,1.62-1.83,1.95-1.77,1.06-3.58-.1-5.05.37l-7.22,4.83.51,1.6c-.84-.15-3.92,1.86-4.14,2.44-.12.32-.09.72-.17,1.06-1.15.17-1.01-1.86-1.59-1.82-.13,0-2.12,1.38-2.12,1.52.72,1.06,1,2.38,1.01,3.65.83-.24,1.59-.57,2.45-.76.58-.13,2.52-.5,2.98-.39,1.06.27,1.44,3.19,1.69,3.23.96-.65,3.67-1.94,4.76-1.6.91.28,1.48,3.42,1.46,4.35,1.02-.23,1.75-.97,2.82-1.19,3.54-.74,2.76,2.28,3.7,4.56.86-.49,3.49-2.07,4.38-1.67,1.14.51,2.03,4.59,2.3,4.66,3.34-1.45,3.69.32,5.01,2.89,1.65-.19,2.44-.91,3.63.84-.3-1.46,1.42-2.59,1.71-3.41.16-.45.35-1.81.37-2.32.04-1.21-1.63-3.64-1.11-4.76.45-.95,1.8-1.69,2.81-1.21-.36.86-.18,2.4.74,2.89.15-1.15-.31-2.57,1.12-3.04.24-.08,1.26-.2,1.44-.13.54.2-.18.65-.16.98.04.78,3.01,2.65,3.78,2.89,3.09.98,8.82-.63,10.92,2.12.38.49.5,1.18.92,1.73,1.53,2.04,5.59,3.84,7.8,5.45,3.29,2.4,4.92,4.51,9,6.11,1.3.51,2.29,1.1,3.57.26,3.95-2.56,4.99-5.58,4.8-10.18-.09-2.05-1.86-5.33-3.52-6.52-.69-.49-1.56-.63-2.27-1.08-.67-.42-1.43-1.5-2.02-1.78-.86-.42-1.95-.36-2.69-1.29-1.12-1.42-.74-5.79-.31-7.46,1.12-4.33,2.54-5.13,5.26-8.04,2.2-2.35,1.66-6.63,3.54-9.22.39-.54.98-.82,1.24-1.35.36-.73.29-1.55.53-2.31.54-1.7,1.4-2.9,3.27-2.13,2,.82,3.47,7.18,4.51,9.23,1.68,3.31,2.73.31,4.86.3,1.16,0,2.07.46,2.93,1.19,2.39-2.28,3.54-1.04,3.57,1.86.03,2.23-.37,5.5-.58,7.82-.04.43-.32.76-.36,1.26-.2,2.33,1.27.54,1.94-.27,2.13-2.57,6.27-10.91,7.15-14.14.43-1.58.17-3.52.57-4.85.06-.21-.01-.41.33-.24.16.08,2.63,1.98,2.74,2.11.55.62.89,3.4.91,4.32.04,1.95-.08,5.34-.3,7.26-.04.37-.36.65-.36,1.03,1.03-.39,2.4-5.07,2.87-5.1.63-.05.92,3.07.9,3.63-.17,4.75-2.11,7.82-3.71,11.98-.77,2-1.32,4.07-2.08,6.06-3.37,8.75-10.8,16.16-17.63,22.31-.92.83-2.77,2.46-2.96,3.7-.28,1.79,1.52,2.29-.42,4.34-1.91,2.02-7.46,5.23-10.03,6.93-1.86,1.23-4.47,2.21-5.44,4.41ZM247.67,160.72l12.94-24.85c-.03-.41-5.97-2.91-6.84-3.24-4.95-1.86-11.47-3.51-16.76-3.64-1.26-.03-2.5.14-3.74.29l-.11,25.12c.2.42,7.56,2.78,8.68,3.29,1.98.92,3.71,2.37,5.83,3.02ZM229.04,153.69c.86,0,1.92.39,2.81.43l.55-24.88c-1.22-.01-9.54.61-9.77,1.37l2.18,24.21c1.3-.19,2.91-1.13,4.24-1.13ZM267.87,140.08l-6.61-3.97c-.54,0-2.77,5.48-3.2,6.35-2.32,4.77-5.04,9.32-7.37,14.06-.33.67-2.26,4.56-2.11,4.9,2.73,1.48,4.19,4.17,4.83,7.11.75-.63,1.68-1.44,2.19-2.28,1.43-2.34,2.51-5.9,3.73-8.5,2.24-4.77,4.47-9.64,6.81-14.36.29-.59,1.88-2.98,1.73-3.32ZM257.87,164.07c6.44-5.14,11.49-11.76,17.17-17.69.13-.38-1.97-2.13-2.39-2.5-.55-.48-3.89-3.32-4.25-3.14-1.48,2.6-2.45,5.46-3.7,8.18-2.31,5.03-4.95,9.93-6.83,15.15ZM129.06,232.67c30.52-18.83,60.15-39.13,90.69-57.93,1.04-.64,6.45-4.11,7.13-4.12.46,0,.71.38,1.12.17.95-.5.47-1.41-.29-1.83-17.83,11.02-35.51,22.31-53.24,33.5-13.35,8.42-26.85,16.56-39.97,25.35-1.87,1.25-7,3.99-8.02,5.69-1.47,2.44-.06,4.42,1.15,6.55l-.96,1.3c.3.38,3.66-2.05,3.78-2.68-.26-.13-.58.17-.93.15-1.05-.06-1.75-1.38-2.01-2.29-.52-1.86.25-2.64,1.55-3.85ZM240.29,176.27c-2.68-.13-4.73,2.36-5.25,4.78-1,4.67,5.31,9.32,9.06,5.32,3.57-3.82,1.22-9.86-3.81-10.1ZM176.4,196.31l-.77-.12c.27,1.41-2.48,2.5-2.48,3.43,0,.32.34.76.19,1.17.3.36,2.06-.73,2.23-1.03.12-.22-.13-1.47.02-2.09.17-.69.62-.78.81-1.36ZM170.06,196.32c-1.26.27-2.62,1.38-2.6,2.77l1.79-.13.81-2.64ZM172.29,197.26c-.31-.12-.41.04-.62.2-.27.2-1.98,1.58-2.03,1.71-.15.36.27,1,.49,1.32.23.09,1.68-.76,1.8-1.05.16-.38-.16-.81-.1-1.17s.46-.62.47-1.02ZM168.12,201.17c-.79-.06-1.83.29-2.4.83-.17.16-2.55,3.67-2.64,3.89-.17.38-.17.8-.23,1.2l3.18-3.97,2.09-1.95ZM163.68,201.68c-.49-.17-.36.04-.54.31-.58.89-1.16,1.81-1.71,2.71.38.14.48-.11.69-.35.53-.6,1.21-1.91,1.56-2.67ZM175.07,212.51c.67-1.41,3.15-4.48,3.13-5.92,0-.2-.03-.43-.24-.51s-3.28.23-3.65.36c-.7.26-.83.63-1.15,1.25-.28.53-1.55,3.42-1.38,3.77s2.89,1.22,3.29,1.05ZM181.91,215.75l3.34-6.12c.16-.54-.07-1.4-.66-1.57-.7-.2-4.23.46-4.8.94-.75.64-1.75,4.01-2.54,4.97-.11.42,0,.22.23.33.5.24,4.18,1.55,4.42,1.44ZM191.51,210.12c-1.7-.1-3.26.68-4.87,1.06l-2.39,5.54c-.35.83,2.31,1.51,2.94,1.64,1.72.34,1.82-.26,2.54-1.68.39-.76,1.9-3.69,2.03-4.27.17-.74-.23-1.55-.25-2.29ZM216.92,223.09l2.65.55c.45-.78,1.25-1.32,1.48-2.21.24-.94-.2-4.27-.79-5-.19-.24-.96-.96-1.12-.38-.21.75.08,1.45-.2,2.3-.29.9-2.72,4.06-2.03,4.75ZM190.87,219.69c.92.6,3.5,1.78,4.45,1.1.81-.58,2.47-5.37,2.47-6.44,0-.25-.07-.71-.25-.86-.47-.39-4.11.63-4.64,1.18-.35.37-2.16,4.7-2.03,5ZM160.65,208.54l-1.55-.24-.52,2.1c.18.28,2.28-1.22,2.07-1.86ZM203.79,215.37c-.32-.32-1.34.93-1.65,1.14-.35.23-1.96,1-2.03,1.18-.02.24.06.48,0,.71-.19.7-1.43,4.29-1.41,4.56.1,1.13,2.91,1.49,3.79.98l1.84-4.6-.53-3.97ZM221.45,225.61c.74.26,1.54.58,2.35.53,2.74-.2,4.5-9.61-.1-5.98l-2.25,5.46ZM169.69,212.55c-.3-.42-3.2-.46-3.3-.24l-1.08,4.56,1.04,3.02,1.77-.65c.21-1.89,1.39-4.06,1.69-5.84.05-.29.01-.59-.12-.86ZM164.56,212.71c-.51.32-3.08,1.67-3.24,2.01-.33.67-.16,2.48.38,3.09,1.76-1.42,2.87-2.69,2.86-5.1ZM207.79,228.07c.19-1.66,2.18-3.7,2.38-5.29.05-.42-.71-2.79-1.22-2.86-.64.72-1.65,1.2-2.64,1.2l-1.48,5.59c1.07.27,2.08.66,2.96,1.35ZM170.75,221.57l3.03-.63c.56-.75,2.25-4.49,1.61-5.1l-3.8-1.06c-.41,2.28-2.02,4.55-.84,6.78ZM213.77,222.65c-.19-.19-1.71.9-1.86,1.11-.24.36-.39,2.27-.59,2.91-.35,1.11-1.08,1.88-1.58,2.88l2.32.36c.25-1.84,2.04-3.92,2.24-5.71.07-.62-.54-.96-.53-1.55ZM181.01,218.86c-.53-.58-2.49-.73-3.21-1.33l-1.33.4c.24,1.61-.87,3.02-1.22,4.54,1.61,1.15,1.89,1.69,3.69.56,1.2-.75,3.4-2.74,2.08-4.17ZM161.22,219.45c-.6-.73-1.03-2.26-1.49-3.13-.38-.18-2.72.96-3.05,1.44-1.7,4.32-4.17,8.28-6.16,12.44-.37.77-1.58,3.16-1.68,3.8-.13.9,4.28,3.97,5.12,4.76.88.83,1.63,2.02,2.54,2.78,2,1.66,7.16,4.49,9.62,5.82,10.79,5.86,21.77,8.98,33.56,12.14,5.59,1.5,11.31,3.17,17.02,4,3.47.5,6.65.08,10.1-.27.55-.06,4.45-.84,4.76-1,.67-.35,3.16-2.55,3.84-3.19,4.43-4.17,9.84-9.52,13.22-14.52.71-1.05,3.83-5.83,4.04-6.68.09-.38.05-3.27-.07-3.39-1.19-.4-2.36-.13-3.61-.45-3.33-.84-3.55-5.01-5.31-5.56-2.85-.89-2.03,3.26-1.3,4.73,1.35,2.69,6.27,1.83,6.05,6.21-.23,4.44-5.5,5.66-8.02,8.68-1.04,1.25-1.72,2.99-2.79,4.39-2.71,3.56-8.85,8.57-13.55,8.22-3.24-.24-6.48-1.17-9.65-1.7-1.68-.28-4.26,0-5.56-1.07-.4-.33-.54-.94-1.05-1.12-1.17-.42-3.09-.24-4.25-.66-.41-.15-.47-.54-.73-.66-.74-.35-2.55.02-2.14-1.37.38-.39,6.64.96,7.79,1.01s2.16-.7,3.09-.7c2.23,0,5.73,1.08,7.73.94.52-.04,1.65-.7,2.26-.9,2.85-.94,4.98-1.66,7.55-3.29,3.59-2.28,6.69-5.4,9.1-8.9.57-.82,2.46-3.17,1.82-4.09-.41-.57-1.35.13-1.75.43-2.39,1.81-3.62,4.41-6.77,5.99-1.01.51-2.51.62-2.36-.85.1-1,.81-.8,1.37-1.2s4.43-5.8,4.9-6.66c.68-1.22,1.23-2.58,1.1-3.98-1.69-.49-3.05,1.15-4.08,2.27-3.51,3.88-5.16,9.11-11.65,7.79-1.23-.25-1.86-.88-2.63-1.17-.39-.15-1.02.13-1.68-.14-.37-.15-.59-.63-.92-.69-.35-.07-.78.27-1.14.31-1.86.2-3.48,0-4.63-1.6l.45-.92c-.23-.31-1.25.77-1.52.85-1.18.34-3.03-1.62-3.14-2.76-1.63.32-2.21,1.56-3.97.76-1.62-.74-1.68-2.39-2.86-3.58-.27-.09-.76.44-1.09.58-2.51,1.06-5.15-1.7-4.38-4.21-1.28.69-2.23,1.93-3.81,1.94-1.47.01-3.5-1.19-3.38-2.85-.68.42-2.79.95-3.44.56-.72-.43-2.08-3.57-2.33-3.61l-2.81,1.3-2.94-2.61c-.94-.11-2.64.88-3.46.67-.92-.24-1.69-3.23-1.88-3.26-2.5,1.8-3.99.93-4.66-1.9-1.24.68-2.33,1.09-3.37-.2ZM217.38,224.99c-.23.14-.88,3.62-1.1,4.24s-1.01,1.68-1.06,2.08c-.11.92,1.5.75,1.91.25.23-.28,1.6-3.68,1.65-4.08.1-.76-.38-2.57-1.41-2.49ZM184.51,220.56c-1.09.12-2.04,3.18-3.08,3.79.78,2.38,2.46,1.78,4.2.79,1.32-.76,2.85-1.91,2.17-3.62l-3.29-.96ZM217.71,233.16c2.22,1.28,3.48-.5,4.1-2.49.64-2.05.1-2.64-1.44-3.84l-2.66,6.32ZM193.76,223.93c-1.01.03-2.64-1.61-3.42-1.03-.25.19-.62,1.81-.86,2.34-.25.56-.75,1.24-1.12,1.75s-.97.51-.62,1.33c3.06.51,5.06-1.77,6-4.4ZM199.91,226.46c-1.01-.04-2.03-1.16-2.88-1.25-.49-.05-1.63.31-1.89.72-.29.45-.43,3.73-.33,4.36.06.38.58.8.77,1.16,1.31.37,4.53-4.68,4.34-4.98ZM206.77,229.5c-1.22-.14-2.84-1.34-3.88-1.55-1.52-.31-2.07,3.45-2.69,4.42l.61,1.33c1.68.18,3.33-1.25,4.46-2.39.22-.23,1.61-1.66,1.5-1.81ZM206.63,235.62c.28.11.46.04.71-.08.57-.25,3.11-3.23,3.37-3.84.1-.23.21-.28-.03-.51l-1.9-.58c-.06.61-.16,1.12-.4,1.69-.3.73-2.34,2.77-1.76,3.33ZM214.71,233.29l-1.39-.61c-2.65,2.56-.33,7.75,1.15,2.03.12-.47.18-.95.24-1.42ZM217.23,234.97l-.43,2.81c1.28-.14,2.34-.94,2.54-2.28.06-.45.02-.23-.26-.33-.39-.15-.92-.19-1.32-.41l-.53.22Z"/><path class="cls-3" d="M240.29,176.27c5.03.24,7.38,6.28,3.81,10.1-3.74,4-10.05-.65-9.06-5.32.52-2.42,2.57-4.91,5.25-4.78ZM240.02,179.19c-.97.13-2.37,2.77-2.25,3.63.06.45,1.3,1.79,1.74,2.01,1.91.94,4.22-1.44,3.99-3.27-.2-1.56-1.99-2.57-3.48-2.37Z"/><path class="cls-1" d="M254.78,253.72c.96-2.19,3.58-3.18,5.44-4.41,2.57-1.71,8.12-4.92,10.03-6.93,1.94-2.05.14-2.55.42-4.34.19-1.24,2.03-2.87,2.96-3.7,6.83-6.15,14.27-13.57,17.63-22.31.77-1.99,1.31-4.06,2.08-6.06,1.59-4.16,3.54-7.23,3.71-11.98.02-.55-.27-3.68-.9-3.63-.46.04-1.83,4.72-2.87,5.1,0-.38.31-.67.36-1.03.22-1.92.33-5.31.3-7.26-.02-.91-.36-3.7-.91-4.32-.12-.13-2.59-2.03-2.74-2.11-.34-.17-.27.03-.33.24-.4,1.33-.14,3.27-.57,4.85-.87,3.23-5.01,11.57-7.15,14.14-.67.81-2.14,2.6-1.94.27.04-.5.32-.83.36-1.26.21-2.32.61-5.59.58-7.82-.03-2.9-1.18-4.14-3.57-1.86-.86-.74-1.76-1.2-2.93-1.19-2.13.01-3.19,3.01-4.86-.3-1.04-2.05-2.5-8.41-4.51-9.23-1.87-.77-2.72.43-3.27,2.13-.24.76-.17,1.58-.53,2.31-.26.53-.85.82-1.24,1.35-1.87,2.6-1.33,6.87-3.54,9.22-2.72,2.91-4.14,3.71-5.26,8.04-.43,1.67-.81,6.04.31,7.46.73.93,1.83.87,2.69,1.29.59.29,1.35,1.36,2.02,1.78.71.45,1.58.59,2.27,1.08,1.66,1.19,3.44,4.47,3.52,6.52.19,4.6-.85,7.62-4.8,10.18-1.28.83-2.27.24-3.57-.26-4.09-1.59-5.71-3.71-9-6.11-2.21-1.61-6.26-3.4-7.8-5.45-.41-.55-.54-1.24-.92-1.73-2.1-2.76-7.83-1.14-10.92-2.12-.77-.24-3.74-2.12-3.78-2.89-.02-.33.7-.78.16-.98-.18-.07-1.21.05-1.44.13-1.43.47-.97,1.89-1.12,3.04-.93-.48-1.1-2.03-.74-2.89-1.02-.48-2.37.26-2.81,1.21-.53,1.12,1.15,3.55,1.11,4.76-.02.51-.21,1.86-.37,2.32-.29.82-2.01,1.95-1.71,3.41-1.19-1.75-1.99-1.03-3.63-.84-1.32-2.58-1.67-4.34-5.01-2.89-.27-.06-1.16-4.15-2.3-4.66-.89-.39-3.52,1.18-4.38,1.67-.94-2.28-.15-5.3-3.7-4.56-1.07.22-1.8.95-2.82,1.19.02-.92-.55-4.06-1.46-4.35-1.09-.34-3.8.95-4.76,1.6-.25-.04-.63-2.95-1.69-3.23-.46-.12-2.4.25-2.98.39-.85.2-1.61.52-2.45.76-.01-1.27-.29-2.59-1.01-3.65,0-.14,1.98-1.51,2.12-1.52.58-.04.44,1.99,1.59,1.82.08-.34.05-.74.17-1.06.21-.58,3.3-2.59,4.14-2.44l-.51-1.6,7.22-4.83c1.48-.47,3.28.69,5.05-.37.55-.33,1.54-1.38,1.83-1.95.46-.89.38-2.05.83-2.61.57-.72,2.27-1.35,3-2,.59.03.11.48.01.72-.27.68.85-.13,1.06-.2.63-.21,1.93-.36,2.32-.59.88-.51.87-2.23,1.34-3.03l7.39-4.74c.32-.02,1.17,2.07,1.48,2.5,2.23,3.18,8.48,5.67,12.06,7.12,4.16,1.69,8.88,3.71,13.49,3.1.92-.12,4.57-1.31,5.16-1.86,1.13-1.05,1.4-2.1,2.14-3.17.41-.59,6.31-2.57,7.46-2.94s2.03-.04,2.56-1.31c-.39-.41-7.94,2.37-9.11,2.56,1.1-3.07,1.36-6.35,2.05-9.5.57-2.61,1.94-6.38,3.19-8.76,1.11-2.1,6.61-6.47,8.64-8.59,3.67-3.82,7.01-7.96,10.42-12,7.83,7.6,13.59,17.24,16.87,27.65l-.41.39c-5.33,1.31-10.48,3.3-15.78,4.72-2.55.68-5.22.96-7.69,1.91l.72,1.01c8.02-1.53,15.61-4.71,23.45-6.91l1.71,11.82c.07.44.49.42.88.47.13-4.95-.89-9.63-2.39-14.3-10.29-32.2-41.74-51.62-75.31-43.24-1.82.45-12.55,3.68-13.08,4.89-.14.31-.08.48.19.67.97.46,6.64-1.99,7.97-2.43,1.8-.59,3.76-1.28,5.56-1.79.54-.15,3.24-.92,3.53-.66.18,8.28,1.49,16.46,1.91,24.72-2.05,1.89-4.45,3.45-5.92,5.95l-4.54-7.83-.54.45c-.14.31.02.59.15.86.57,1.25,1.73,2.77,2.43,4.06.32.58,1.78,3.1,1.81,3.49.04.48-1.36,3.05-1.59,4.05-.37,1.6-.63,3.94-.56,5.58.03.75.59,2.22.19,2.79l-6.66,3.93c.27-1.6.22-3.72-.12-5.32-.15-.72-.33-1.38-1.21-1.4-1.91,2.59-1.94,5.93-2.23,9.01l-3.06,2.05c.86-4.98,1.63-10.04.15-14.97-1.2-4-2.27-5.1-5.83-2.24-2.66,2.14-6.24,5.69-8.57,8.22-1.09,1.19-4.85,5.53-5.34,6.77-.51,1.29.1,2.04-.14,2.84-.23.79-1.34.91-1.35,2.37,0,.68.45.93.61,1.45.44,1.47.34,2.4,1.82,3.47,2.18,1.59,3.75-.28,6.14-.12-.39.41-.88.77-1.35,1.08-1.86,1.25-4.77,3.23-6.7,4.21-.23.12-.66.44-.81.08.03-.84-.41-1.56-.51-2.37-.23-1.72.32-3.83-1.32-5.04-1.03.7.46,2.58-.71,3.23-.45.25-1.93.57-2.43.46-.81-.18-1-1.44-2.06-1.31-.43.8-.59,1.88-1.49,2.32-1.19-.62-.11-1.29.27-2,.35-.66-.27-.64-.78-.36-.44.24-3.19,2.25-3.31,2.51-.38.81-.29,2.45-.58,3.42-.17.57-.79,1.3-.89,2.01l-1.56.5c-.9-1.54.86-3.56,1.79-4.81,1.61-2.17,3.6-4.1,5.14-6.33.56-.81,2.47-3.41.5-3.55-.63-.05-1.24.33-2.04.28-2.09-.11-4.18-1.24-6.34-1.38-.94-.06-1.53.06-1.18,1.2.13.43.74.54.92.79.19.26.19,1.04.64,1.33-.82.44-1.64.92-2.51,1.26-.63.25-3.07,1.23-3.42.51-.06-.13.1-2.44.15-2.85.23-2.14,1.01-4.79,1.94-6.74,1.33-2.82,6.02-3.03,8.79-3.7,1.44-.35,2.77-1.04,4.32-1.02-.43-1.64-.8-2.87-2.41-3.64-2.4-1.15-4.97-.08-7.46-.54-.23-.22-1.38-5.58-1.39-6.21-.02-2.83,3.65-6.4,5.25-8.69.89-1.27,2.05-3.05,2.78-4.4.79-1.45,1.23-3.18,2.03-4.48.23-.38,2.98-3.82,3.19-3.96,1.13-.77,3.93-1.01,5.41-1.65,1.13-.49,2.51-1.74,3.48-2.04.73-.23,1.88-.16,2.68-.33,1.8-.39,3.68-1.25,5.52-1.14,3.09.18,5.81.55,8.97.05.62-.1,1.25-.32,1.83-.57-.2-1.12-.77-2.87-1.67-3.6-.96-.78-4.73-1.25-6.11-1.37-1.77-.16-3.68.27-5.39-.32,2.28-3.02,4.61-6.06,7.46-8.55,6.86-6,12.51-8.54,21.91-7.83,6.35.48,12.82,1.14,19.22,1.14,1.88,0,4.07-.56,5.85-.46,6.24.34,16.27,2.84,22.16,5.04,8.01,2.99,16.5,11.03,21.81,17.66,2.83,3.54,3.83,5.96,5.86,9.78,2.88,5.43,10.31,11.44,10.48,17.9.16,6.16-1.52,12.2-1.16,18.36.11,1.89.65,4.07.59,5.92-.19,5.93-1.37,14.42-3.34,19.97-1.62,4.58-3.73,11.05-6.7,14.74-3.21,4-7.51,7.22-11.19,10.73-1.5,1.43-2.57,3.12-4,4.61-2.59,2.71-7.98,8.21-10.86,10.24-2.15,1.51-9.14,2.95-11.8,2.88-.67-.02-1.33-.14-1.99-.25ZM203.36,130.99c5.55-4.01,16.58-5.68,23.31-5.57,13.32.22,23.03,1.53,35.02,7.59,6.23,3.15,11.15,7.82,16.26,12.46,3.01,2.74,10.02,8.57,11.63,11.91,3.29,6.84,6.82,19.86,7.57,27.42.12,1.26-.21,4.1.02,4.96.59,2.16,1.29,1.68,1.01,4.75-.76,8.19-4.33,19.37-7.77,26.89-.34.75-1.91,2.85-1.59,3.49.67.52,2.12.54,2.78,0,.56-.45,2.23-3.13,2.64-3.89,4.63-8.6,6.52-17.74,7.04-27.39.42-7.89.97-16.26-1.3-23.94-1.46-4.91-3.89-11.36-5.94-16.08-2.06-4.74-8.76-12.22-12.66-15.79-2.46-2.25-4.96-3.7-7.45-5.7-.95-.76-1.7-1.83-2.76-2.62-13.97-10.46-29.74-11.8-46.54-9.42-2.26.32-3.87,1.25-5.85,1.62-1.42.27-2.88.22-4.38.58-4.09.98-11.81,4.53-14.79,7.46-.48.47-1.04,1.12-.43,1.69l3.01.65c.51-.08.79-.83,1.17-1.1ZM203.94,137.75c-.15,0-.45.27-.18.47,1.07,2.12,1.88,4.48,3,6.56.42.79,1.1,2.71,2.09,1.52-1.26-2.36-2.49-5.29-3.98-7.51-.17-.25-.64-1.05-.92-1.04ZM215.07,144.24c-1.74.99-6.09,2.16-7.02,4.03-.72,1.45.27,2.85.09,3.89-.08.43-.68.92-.86,1.4-.51,1.33,1.08,4.46,2.68,2.93,1.5-1.44,2.1-3.86,4.04-5.05.23-.52-.89-1.99-.94-2.53-.14-1.53,3.36-2.71,3.46-3.38.03-.52-1.03-1.33-1.45-1.28ZM169.18,165.02c.37.61,1.58,1.81,2.3,2,.91.24,3.39.39,4.49.48,3.9.35,10.06.9,13.83-.11,2.58-.69,10.79-6.81,12.02-9.14.8-1.52.72-5.76.25-7.47s-2.09-4.03-3.61-5.08c-3.89-2.69-14.26-2.65-18.39-.23-2.39,1.4-5.73,7.98-7.36,10.57-1.31,2.09-5.12,6.32-3.53,8.97ZM185.4,173.46c.35-.32.87-1.08.39-1.46l-5.98,1.44v.71s1.02.28,1.02.28l.25.33c-.02.9-1.23,3.61-.31,4.17.1.06.48.17.49-.04.68-2.04,1.9-3.65,3.45-5.1.2-.19.55-.21.69-.34ZM226.13,198.76c.09-.03.5-.63.55-.78.57-1.79-2.28-4.07-3.56-5.1-2.11-1.7-4.92-3.19-6.93-4.88-.98-.83-1.71-1.95-2.82-2.65-.14.63.25,1.22.52,1.76,1.41,2.78,7.16,8.7,9.73,10.55.48.35,1.98,1.29,2.5,1.1ZM248.06,192.71c-1.66.08-3.8,2.18-5.32,2.58-.99.26-3.63-.29-3.97.44-.5,1.05.55,1.29,1.42,1.47,2.44.51,6.42.26,8.28-1.61,1.04-1.05,1.71-2.99-.4-2.89ZM242.71,202.99c-.04-.07-.46-.34-.49-.33-.58,1.08-.42,2.35-.79,3.5-.52,1.64-2.84,4.15-2.46,5.66.32,1.27,1.42.59,2.25.61,2.13.05,3.09,2.15,5.01,2.73.67-2.29-.87-3.15-1.84-4.74-.33-.55-1.23-2.37-1.37-2.94-.3-1.18.16-3.74-.32-4.49ZM190.48,205.3l.48-3.1c.13-.84,4.75-.81,5.44-2.18.15-.29.12-.7.29-1.01.41-.73,1.58-1.4,1.66-2.43.1-1.29-1.7.26-2.26.44-1.32.43-5.26.33-6.07,1.57-.38.58-.92,5.8-.62,6.38.08.16.45.34.58.52l.5-.2ZM204.02,206.28c-.58-1.26-.98-3.59-1.9-4.54-.17-.18-.19-.41-.54-.38-.29.24-.11,2.33-.26,2.78-.17.51-.77.59-.97,1.28-.26.92.14,1.75.02,2.4-.09.47-.69.99-.83,1.65-.22,1.06.18,2.04,1.09,2.64.26-.02,1.32-1.99,1.69-2.38.65-.69,1.69-.95,1.88-2,.42.02.98.04,1.32.28.14.1,1.22,2.58,1.25,2.86.18,1.67-1.29,4.1.48,5.23,1.2-2.29,2.03-3.61,1.47-6.31-.19-.88-1.15-2.65-1.14-3.29.01-.53.58-1.28.43-1.94l-.71-.34-.95,1.99-2.33.06ZM213.08,206.51c-.82-.63-2.38.37-2.55,1.28-.31,1.68,1.45,5.8,1.67,7.68.02.39-1.35,1.68-.69,1.89.6.19,2.46-1.48,2.6-2.09.05-.23-.34-2.66-.42-3.12-.32-1.81-1.43-3.87-.62-5.64ZM196.47,207.61c.26-.78.34-2.21.48-3.1.08-.51-1.37-.94-1.72-.23-.1,1.35-.03,2.75-.65,3.99l.78.84c.15.02,1.05-1.29,1.12-1.51Z"/><path class="cls-1" d="M161.22,219.45c1.04,1.28,2.14.87,3.37.2.68,2.84,2.16,3.71,4.66,1.9.19.03.96,3.02,1.88,3.26.82.22,2.52-.77,3.46-.67l2.94,2.61,2.81-1.3c.25.04,1.62,3.18,2.33,3.61.65.39,2.76-.15,3.44-.56-.12,1.66,1.91,2.86,3.38,2.85,1.58-.02,2.53-1.25,3.81-1.94-.77,2.5,1.87,5.27,4.38,4.21.33-.14.81-.67,1.09-.58,1.18,1.19,1.24,2.84,2.86,3.58,1.76.8,2.33-.44,3.97-.76.11,1.14,1.96,3.1,3.14,2.76.28-.08,1.29-1.17,1.52-.85l-.45.92c1.14,1.61,2.77,1.8,4.63,1.6.36-.04.79-.38,1.14-.31.33.06.55.54.92.69.66.26,1.28-.01,1.68.14.77.29,1.4.92,2.63,1.17,6.49,1.32,8.13-3.91,11.65-7.79,1.02-1.13,2.39-2.76,4.08-2.27.13,1.4-.43,2.76-1.1,3.98-.48.86-4.35,6.26-4.9,6.66s-1.26.2-1.37,1.2c-.15,1.47,1.35,1.36,2.36.85,3.15-1.58,4.38-4.18,6.77-5.99.4-.3,1.34-1,1.75-.43.64.92-1.25,3.26-1.82,4.09-2.41,3.5-5.51,6.61-9.1,8.9-2.56,1.63-4.69,2.36-7.55,3.29-.61.2-1.73.87-2.26.9-2,.14-5.5-.94-7.73-.94-.93,0-1.91.75-3.09.7s-7.4-1.4-7.79-1.01c-.41,1.39,1.4,1.01,2.14,1.37.27.13.33.52.73.66,1.16.42,3.08.25,4.25.66.51.18.65.79,1.05,1.12,1.3,1.07,3.88.79,5.56,1.07,3.17.53,6.41,1.46,9.65,1.7,4.7.35,10.83-4.65,13.55-8.22,1.07-1.4,1.75-3.15,2.79-4.39,2.52-3.03,7.79-4.24,8.02-8.68.23-4.38-4.69-3.52-6.05-6.21-.74-1.47-1.55-5.62,1.3-4.73,1.75.55,1.98,4.71,5.31,5.56,1.25.32,2.42.04,3.61.45.12.12.16,3.01.07,3.39-.21.85-3.33,5.63-4.04,6.68-3.38,5-8.79,10.35-13.22,14.52-.68.64-3.17,2.85-3.84,3.19-.31.16-4.21.95-4.76,1-3.45.35-6.63.78-10.1.27-5.71-.83-11.43-2.5-17.02-4-11.79-3.16-22.77-6.28-33.56-12.14-2.46-1.33-7.62-4.16-9.62-5.82-.91-.75-1.66-1.94-2.54-2.78s-5.25-3.86-5.12-4.76c.1-.64,1.31-3.03,1.68-3.8,1.99-4.17,4.46-8.12,6.16-12.44.33-.47,2.67-1.62,3.05-1.44.45.86.89,2.39,1.49,3.13ZM157.37,231.2c.02-.56.5-.84.62-1.38.13-.65-.24-1.48-.11-2s1.06-.48,1.32-1.03c.29-.62-.05-1.37.15-2.01-1.02.34-2.77.03-3.44,1.06-.26.4-.01.77-.24,1.28-.63,1.43-3.39,3.19-3.32,4.76.04.94.81,2.24,1.57,2.81,2.43,1.81,6.05,4.35,8.8,5.57,1.75.78,3.69,1.2,5.48,1.99s3.47,2.21,5.54,2.38c.09-1.87-2.12-1.57-3.06-2.47-.33-.31-.39-.93-.69-1.38-1.16-1.71-3.28-2.08-4.88-3.12,1.19-.38.85-.9.88-1.93-.89-.1-1.86-.26-2.39-1.09.74-.97,1.44-1.69,1.44-3.03-1.47.68-3.37.24-3.35,2.46-1.11-.1-1.52-.68-1.09-1.72l1.45-.54-.08-3.44c-.56.16-1.96.27-2.06.97l.15,1.1c-.74.12-1.65.23-1.75,1.13l-.93-.34ZM171.77,227.68c-.53.25-1.58.63-1.78,1.22-.21.64.18,1.01.11,1.31-.13.54-1.47,2,.03,2.38.58.15,1.94-1.05,2.11-1.58.33-1.01-.32-1.04-.48-1.69-.1-.44,0-1.16,0-1.63ZM181.98,234.57c-.31.36-4.15.76-4.67.48-.56-.3-.06-2.32-.3-3.05-.53-1.65-1.69.8-1.81,1.66-.2,1.46.85,3.13.77,4.09-.12,1.34-1.61,3.49-1.14,4.61.83,2,4.13-.53,5.45-.87.68-.17,1.36-.08,2.02-.29.19-.19,1.03-4.62,1.04-5.25.01-.84-.22-2.03-1.21-2.12-.06.22,0,.58-.15.74Z"/><path class="cls-1" d="M247.67,160.72c-2.12-.65-3.85-2.1-5.83-3.02-1.11-.52-8.48-2.87-8.68-3.29l.11-25.12c1.24-.15,2.49-.32,3.74-.29,5.28.13,11.81,1.78,16.76,3.64.86.32,6.81,2.82,6.84,3.24l-12.94,24.85ZM245.18,148.3c-.18-.25-.68-.33-.97-.4-2.58-.63-5.05,0-7.56-.97-.95.94-.29,1.42.56,1.97,2,1.3,4.62,2.19,6.67,3.45.3,0,.46-.05.63-.3.48-.69,1.2-3.03.67-3.76Z"/><path class="cls-1" d="M267.87,140.08c.15.34-1.43,2.73-1.73,3.32-2.35,4.71-4.57,9.59-6.81,14.36-1.22,2.6-2.3,6.15-3.73,8.5-.51.84-1.44,1.65-2.19,2.28-.64-2.94-2.1-5.63-4.83-7.11-.15-.34,1.78-4.23,2.11-4.9,2.34-4.74,5.05-9.3,7.37-14.06.42-.87,2.66-6.35,3.2-6.35l6.61,3.97Z"/><path class="cls-1" d="M229.04,153.69c-1.32,0-2.94.94-4.24,1.13l-2.18-24.21c.23-.76,8.55-1.38,9.77-1.37l-.55,24.88c-.89-.04-1.95-.43-2.81-.43Z"/><path class="cls-1" d="M172.97,202.73c-.05.74.26,1.58.03,2.3-.19.57-1.98,3.33-2.44,4.05-.86,1.34-1.01,1.93-2.69,1.42-.62-.19-3.19-1.12-2.77-1.92l2.92-5.28c2.29-1.64,3.27-.84,4.95-.58Z"/><path class="cls-1" d="M257.87,164.07c1.87-5.22,4.52-10.12,6.83-15.15,1.25-2.72,2.22-5.58,3.7-8.18.36-.18,3.7,2.66,4.25,3.14.42.37,2.52,2.13,2.39,2.5-5.68,5.93-10.73,12.55-17.17,17.69Z"/><path class="cls-1" d="M191.51,210.12c.02.74.42,1.55.25,2.29-.13.59-1.64,3.51-2.03,4.27-.73,1.42-.82,2.02-2.54,1.68-.63-.13-3.29-.81-2.94-1.64l2.39-5.54c1.61-.38,3.18-1.16,4.87-1.06Z"/><path class="cls-1" d="M181.91,215.75c-.24.11-3.92-1.2-4.42-1.44-.23-.11-.35.09-.23-.33.79-.96,1.78-4.34,2.54-4.97.57-.48,4.1-1.15,4.8-.94.59.17.81,1.04.66,1.57l-3.34,6.12Z"/><path class="cls-1" d="M190.87,219.69c-.13-.3,1.68-4.63,2.03-5,.53-.56,4.17-1.58,4.64-1.18.18.15.25.61.25.86,0,1.06-1.65,5.86-2.47,6.44-.95.68-3.53-.51-4.45-1.1Z"/><path class="cls-1" d="M203.79,215.37l.53,3.97-1.84,4.6c-.88.52-3.69.15-3.79-.98-.02-.27,1.22-3.86,1.41-4.56.07-.24-.01-.48,0-.71.08-.19,1.69-.95,2.03-1.18.31-.21,1.33-1.46,1.65-1.14Z"/><path class="cls-1" d="M175.07,212.51c-.39.17-3.12-.72-3.29-1.05s1.1-3.23,1.38-3.77c.32-.61.44-.99,1.15-1.25.37-.13,3.45-.45,3.65-.36s.23.31.24.51c.03,1.44-2.46,4.51-3.13,5.92Z"/><path class="cls-1" d="M170.75,221.57c-1.18-2.23.43-4.5.84-6.78l3.8,1.06c.64.6-1.05,4.34-1.61,5.1l-3.03.63Z"/><path class="cls-1" d="M207.79,228.07c-.88-.69-1.89-1.08-2.96-1.35l1.48-5.59c.99,0,2-.49,2.64-1.2.51.07,1.27,2.44,1.22,2.86-.2,1.58-2.18,3.63-2.38,5.29Z"/><path class="cls-1" d="M181.01,218.86c1.32,1.43-.88,3.42-2.08,4.17-1.8,1.13-2.08.59-3.69-.56.35-1.52,1.46-2.93,1.22-4.54l1.33-.4c.72.59,2.68.75,3.21,1.33Z"/><path class="cls-1" d="M169.69,212.55c.13.26.16.57.12.86-.3,1.78-1.48,3.96-1.69,5.84l-1.77.65-1.04-3.02,1.08-4.56c.1-.22,3-.18,3.3.24Z"/><path class="cls-1" d="M184.51,220.56l3.29.96c.68,1.71-.85,2.87-2.17,3.62-1.73.99-3.42,1.59-4.2-.79,1.04-.62,1.99-3.67,3.08-3.79Z"/><path class="cls-1" d="M221.45,225.61l2.25-5.46c4.59-3.62,2.84,5.79.1,5.98-.81.06-1.61-.26-2.35-.53Z"/><path class="cls-1" d="M206.77,229.5c.1.15-1.28,1.58-1.5,1.81-1.13,1.14-2.77,2.57-4.46,2.39l-.61-1.33c.62-.97,1.17-4.72,2.69-4.42,1.04.21,2.66,1.42,3.88,1.55Z"/><path class="cls-1" d="M199.91,226.46c.19.31-3.03,5.36-4.34,4.98-.19-.36-.71-.77-.77-1.16-.1-.63.04-3.91.33-4.36.26-.4,1.41-.77,1.89-.72.85.09,1.87,1.21,2.88,1.25Z"/><path class="cls-1" d="M216.92,223.09c-.69-.68,1.74-3.85,2.03-4.75.27-.85-.02-1.55.2-2.3.16-.58.94.14,1.12.38.58.74,1.03,4.06.79,5-.23.89-1.04,1.44-1.48,2.21l-2.65-.55Z"/><path class="cls-1" d="M193.76,223.93c-.94,2.63-2.94,4.92-6,4.4-.35-.82.26-.83.62-1.33s.86-1.19,1.12-1.75c.24-.53.6-2.15.86-2.34.77-.58,2.41,1.06,3.42,1.03Z"/><path class="cls-1" d="M217.71,233.16l2.66-6.32c1.55,1.2,2.09,1.79,1.44,3.84-.62,1.98-1.88,3.77-4.1,2.49Z"/><path class="cls-1" d="M213.77,222.65c-.01.59.6.93.53,1.55-.2,1.79-1.99,3.87-2.24,5.71l-2.32-.36c.5-1,1.23-1.77,1.58-2.88.2-.64.35-2.55.59-2.91.14-.21,1.66-1.3,1.86-1.11Z"/><path class="cls-1" d="M217.38,224.99c1.03-.09,1.51,1.72,1.41,2.49-.05.4-1.43,3.8-1.65,4.08-.41.5-2.02.67-1.91-.25.05-.4.84-1.47,1.06-2.08s.87-4.1,1.1-4.24Z"/><path class="cls-1" d="M164.56,212.71c.01,2.41-1.1,3.69-2.86,5.1-.54-.61-.71-2.41-.38-3.09.17-.35,2.73-1.69,3.24-2.01Z"/><path class="cls-1" d="M206.63,235.62c-.58-.56,1.46-2.6,1.76-3.33.24-.57.34-1.08.4-1.69l1.9.58c.24.23.13.28.03.51-.26.61-2.8,3.59-3.37,3.84-.26.11-.43.18-.71.08Z"/><path class="cls-1" d="M214.71,233.29c-.07.48-.12.96-.24,1.42-1.48,5.72-3.8.53-1.15-2.03l1.39.61Z"/><path class="cls-1" d="M176.4,196.31c-.2.58-.64.67-.81,1.36-.15.61.1,1.87-.02,2.09-.17.3-1.93,1.4-2.23,1.03.15-.41-.19-.85-.19-1.17,0-.93,2.75-2.02,2.48-3.43l.77.12Z"/><path class="cls-1" d="M168.12,201.17l-2.09,1.95-3.18,3.97c.07-.4.07-.82.23-1.2.09-.22,2.47-3.73,2.64-3.89.57-.54,1.6-.88,2.4-.83Z"/><path class="cls-1" d="M217.23,234.97l.53-.22c.41.22.93.27,1.32.41.28.1.32-.11.26.33-.2,1.35-1.26,2.14-2.54,2.28l.43-2.81Z"/><path class="cls-1" d="M172.29,197.26c0,.4-.42.65-.47,1.02s.26.78.1,1.17c-.12.28-1.57,1.14-1.8,1.05-.22-.32-.64-.95-.49-1.32.05-.12,1.76-1.5,2.03-1.71.21-.16.31-.33.62-.2Z"/><path class="cls-1" d="M170.06,196.32l-.81,2.64-1.79.13c-.01-1.39,1.34-2.5,2.6-2.77Z"/><path class="cls-1" d="M160.65,208.54c.22.64-1.89,2.14-2.07,1.86l.52-2.1,1.55.24Z"/><path class="cls-1" d="M163.68,201.68c-.35.77-1.03,2.07-1.56,2.67-.21.23-.31.49-.69.35.55-.9,1.13-1.82,1.71-2.71.18-.27.05-.48.54-.31Z"/><path class="cls-5" d="M203.36,130.99c-.37.27-.65,1.02-1.17,1.1l-3.01-.65c-.62-.57-.05-1.22.43-1.69,2.98-2.94,10.7-6.48,14.79-7.46,1.5-.36,2.97-.32,4.38-.58,1.98-.38,3.59-1.3,5.85-1.62,16.8-2.38,32.57-1.04,46.54,9.42,1.05.79,1.81,1.86,2.76,2.62,2.5,2,4.99,3.44,7.45,5.7,3.9,3.57,10.6,11.05,12.66,15.79,2.05,4.72,4.48,11.16,5.94,16.08,2.28,7.68,1.73,16.05,1.3,23.94-.52,9.65-2.41,18.79-7.04,27.39-.41.76-2.08,3.44-2.64,3.89-.66.54-2.11.51-2.78,0-.32-.64,1.24-2.74,1.59-3.49,3.43-7.51,7.01-18.69,7.77-26.89.28-3.07-.41-2.59-1.01-4.75-.24-.86.1-3.71-.02-4.96-.75-7.55-4.28-20.57-7.57-27.42-1.61-3.34-8.62-9.17-11.63-11.91-5.11-4.64-10.03-9.31-16.26-12.46-11.98-6.06-21.7-7.37-35.02-7.59-6.73-.11-17.77,1.55-23.31,5.57Z"/><path class="cls-5" d="M169.18,165.02c-1.59-2.65,2.22-6.87,3.53-8.97,1.62-2.59,4.97-9.17,7.36-10.57,4.12-2.42,14.5-2.46,18.39.23,1.52,1.05,3.12,3.3,3.61,5.08s.56,5.95-.25,7.47c-1.23,2.33-9.43,8.45-12.02,9.14-3.77,1.01-9.93.46-13.83.11-1.09-.1-3.58-.24-4.49-.48-.72-.19-1.93-1.39-2.3-2ZM187.18,151.66c-6.79-.15-8.54,9.99-1.29,10.64,1.01.09,3.02-.03,3.93-.49,1.57-.79,2.95-3.66,2.46-5.39-.66-2.32-2.53-4.7-5.1-4.76Z"/><path class="cls-5" d="M215.07,144.24c.43-.04,1.48.77,1.45,1.28-.11.67-3.61,1.85-3.46,3.38.05.54,1.17,2.01.94,2.53-1.94,1.2-2.54,3.62-4.04,5.05-1.6,1.53-3.19-1.59-2.68-2.93.18-.48.78-.97.86-1.4.18-1.05-.8-2.44-.09-3.89.92-1.87,5.28-3.04,7.02-4.03Z"/><path class="cls-5" d="M204.02,206.28l2.33-.06.95-1.99.71.34c.15.65-.41,1.4-.43,1.94-.01.64.95,2.41,1.14,3.29.57,2.7-.27,4.02-1.47,6.31-1.77-1.13-.3-3.55-.48-5.23-.03-.28-1.11-2.76-1.25-2.86-.35-.24-.91-.26-1.32-.28-.19,1.05-1.24,1.31-1.88,2-.37.4-1.44,2.36-1.69,2.38-.9-.6-1.31-1.58-1.09-2.64.14-.67.75-1.19.83-1.65.12-.64-.28-1.48-.02-2.4.2-.69.8-.77.97-1.28.15-.45-.03-2.55.26-2.78.35-.04.37.2.54.38.91.95,1.32,3.28,1.9,4.54Z"/><path class="cls-5" d="M226.13,198.76c-.52.2-2.02-.75-2.5-1.1-2.57-1.85-8.32-7.77-9.73-10.55-.27-.54-.67-1.13-.52-1.76,1.11.7,1.84,1.82,2.82,2.65,2.01,1.69,4.82,3.18,6.93,4.88,1.28,1.03,4.13,3.31,3.56,5.1-.05.14-.46.74-.55.78Z"/><path class="cls-5" d="M242.71,202.99c.47.75.01,3.31.32,4.49.15.57,1.04,2.4,1.37,2.94.97,1.6,2.51,2.46,1.84,4.74-1.92-.58-2.88-2.69-5.01-2.73-.83-.02-1.93.66-2.25-.61-.38-1.51,1.94-4.02,2.46-5.66.36-1.14.21-2.42.79-3.5.03-.01.45.26.49.33Z"/><path class="cls-5" d="M190.48,205.3l-.5.2c-.13-.18-.5-.36-.58-.52-.29-.58.24-5.8.62-6.38.81-1.24,4.75-1.13,6.07-1.57.56-.18,2.36-1.73,2.26-.44-.08,1.03-1.26,1.7-1.66,2.43-.17.31-.14.71-.29,1.01-.69,1.37-5.31,1.34-5.44,2.18l-.48,3.1Z"/><path class="cls-5" d="M248.06,192.71c2.1-.1,1.44,1.84.4,2.89-1.86,1.86-5.84,2.11-8.28,1.61-.86-.18-1.91-.42-1.42-1.47.34-.73,2.98-.18,3.97-.44,1.52-.4,3.66-2.51,5.32-2.58Z"/><path class="cls-5" d="M213.08,206.51c-.81,1.77.29,3.83.62,5.64.08.46.47,2.88.42,3.12-.13.62-1.99,2.28-2.6,2.09-.66-.21.7-1.5.69-1.89-.22-1.87-1.98-5.99-1.67-7.68.17-.91,1.73-1.91,2.55-1.28Z"/><path class="cls-5" d="M185.4,173.46c-.15.13-.49.15-.69.34-1.55,1.45-2.77,3.06-3.45,5.1,0,.21-.4.1-.49.04-.93-.56.28-3.27.31-4.17l-.25-.33-1.02-.28v-.71s5.99-1.44,5.99-1.44c.48.38-.03,1.14-.39,1.46Z"/><path class="cls-5" d="M203.94,137.75c.29-.01.76.79.92,1.04,1.5,2.23,2.73,5.15,3.98,7.51-.99,1.19-1.66-.73-2.09-1.52-1.12-2.08-1.93-4.44-3-6.56-.27-.2.03-.47.18-.47Z"/><path class="cls-5" d="M196.47,207.61c-.07.22-.98,1.53-1.12,1.51l-.78-.84c.62-1.24.56-2.65.65-3.99.35-.71,1.8-.28,1.72.23-.14.89-.22,2.32-.48,3.1Z"/><path class="cls-5" d="M157.37,231.2l.93.34c.1-.89,1.02-1.01,1.75-1.13l-.15-1.1c.1-.71,1.5-.81,2.06-.97l.08,3.44-1.45.54c-.44,1.05-.02,1.63,1.09,1.72-.02-2.22,1.88-1.78,3.35-2.46,0,1.34-.7,2.06-1.44,3.03.52.83,1.5.99,2.39,1.09-.03,1.04.31,1.55-.88,1.93,1.6,1.04,3.71,1.4,4.88,3.12.31.45.37,1.07.69,1.38.94.9,3.15.6,3.06,2.47-2.07-.17-3.7-1.57-5.54-2.38s-3.73-1.21-5.48-1.99c-2.75-1.22-6.37-3.76-8.8-5.57-.76-.56-1.52-1.86-1.57-2.81-.07-1.57,2.69-3.33,3.32-4.76.23-.51-.02-.88.24-1.28.67-1.03,2.41-.72,3.44-1.06-.2.64.15,1.39-.15,2.01-.25.54-1.19.5-1.32,1.03s.24,1.35.11,2c-.11.54-.6.83-.62,1.38Z"/><path class="cls-5" d="M181.98,234.57c.14-.16.09-.52.15-.74.99.09,1.22,1.28,1.21,2.12,0,.63-.85,5.05-1.04,5.25-.66.21-1.34.12-2.02.29-1.32.34-4.62,2.87-5.45.87-.47-1.12,1.02-3.28,1.14-4.61.09-.96-.97-2.63-.77-4.09.12-.86,1.28-3.31,1.81-1.66.24.73-.27,2.75.3,3.05.53.28,4.36-.12,4.67-.48Z"/><path class="cls-5" d="M171.77,227.68c0,.47-.1,1.2,0,1.63.16.65.81.69.48,1.69-.17.53-1.53,1.73-2.11,1.58-1.5-.38-.16-1.83-.03-2.38.07-.3-.32-.67-.11-1.31.19-.59,1.25-.97,1.78-1.22Z"/><path class="cls-5" d="M245.18,148.3c.54.73-.19,3.07-.67,3.76-.18.25-.33.3-.63.3-2.05-1.26-4.68-2.16-6.67-3.45-.85-.55-1.51-1.03-.56-1.97,2.5.97,4.98.34,7.56.97.3.07.79.16.97.4Z"/><path class="cls-5" d="M240.02,179.19c1.49-.2,3.28.81,3.48,2.37.23,1.83-2.08,4.21-3.99,3.27-.44-.22-1.67-1.56-1.74-2.01-.12-.86,1.27-3.5,2.25-3.63Z"/><path class="cls-3" d="M187.18,151.66c2.57.06,4.44,2.44,5.1,4.76.49,1.72-.89,4.59-2.46,5.39-.91.46-2.92.59-3.93.49-7.25-.65-5.49-10.79,1.29-10.64ZM186.73,154.56c-4.27.07-2.84,7.29,1.74,4.94.55-.28.73-.51.9-1.11.64-2.3-.05-3.87-2.64-3.83Z"/><path class="cls-5" d="M186.73,154.56c2.59-.04,3.28,1.53,2.64,3.83-.17.6-.35.83-.9,1.11-4.58,2.34-6.01-4.87-1.74-4.94Z"/><path class="cls-5" d="M177.21,203.54s-3.5,2.15-4.05,2.52c-1.24.83-3.91,2.22-5.09,3.13-.76.59-2.75,2.68-2.75,2.68l-3.87-3.11s6.4-3.45,8.27-4.64c.94-.6,3.72-2.46,3.72-2.46l3.78,1.88Z"/><path class="cls-2" d="M129.06,232.67c-1.3,1.21-2.08,1.99-1.55,3.85.26.91.96,2.23,2.01,2.29.35.02.68-.28.93-.15-.12.63-3.48,3.06-3.78,2.68l.96-1.3c-1.21-2.13-2.61-4.12-1.15-6.55,1.02-1.7,6.15-4.44,8.02-5.69,13.12-8.79,26.62-16.92,39.97-25.35,17.73-11.19,35.41-22.47,53.24-33.5.76.43,1.24,1.34.29,1.83-.42.22-.67-.18-1.12-.17-.68.01-6.08,3.48-7.13,4.12-30.54,18.8-60.17,39.1-90.69,57.93Z"/></svg>