<?xml version="1.0" encoding="UTF-8"?><svg id="Layer_1" xmlns="http://www.w3.org/2000/svg" viewBox="0 0 450 500"><defs><style>.cls-1{fill:#fff;}</style></defs><path class="cls-1" d="M62.64,361.88c0,3.45-1.14,6.34-3.43,8.69-2.29,2.35-5.16,3.52-8.6,3.52-1.46,0-2.82-.34-4.07-1.01v4.12c0,1.07.37,1.86,1.1,2.38.73.52,1.65.72,2.75.59v3.25c-.82.27-1.75.41-2.79.41-2.08,0-3.69-.73-4.85-2.2-1.5,1.46-3.57,2.2-6.22,2.2-.55,0-1.1-.05-1.65-.14v-2.97c.98,0,1.8-.28,2.47-.85.67-.56,1.01-1.32,1.01-2.27v-19.99c0-1.1-.27-2-.82-2.7-.64-.79-1.5-1.17-2.56-1.14v-3.66c.55-.09,1.21-.14,1.97-.14,2.71,0,4.7.78,5.95,2.33,2.5-1.8,5.06-2.7,7.69-2.7,3.48,0,6.36,1.17,8.65,3.52s3.43,5.26,3.43,8.74ZM41,375.11v-15.37c0-2.53-.49-4.29-1.46-5.26.4.64.59,1.92.59,3.84v16.01c0,2.44-.31,3.98-.92,4.62,1.19-.4,1.78-1.68,1.78-3.84ZM54.91,360.97c0-.67-.03-1.27-.09-1.78-.12-1.1-.55-2.21-1.29-3.34-.86-1.37-1.79-2.06-2.81-2.06-1.17,0-2.19.41-3.08,1.21-.89.81-1.33,1.78-1.33,2.91v10.62c.73.4,1.57.59,2.52.59,2.1,0,3.69-.88,4.76-2.65.88-1.43,1.33-3.26,1.33-5.49ZM57.93,360.99c0-2.45-.96-4.76-2.88-6.93,1.25,2.2,1.88,4.7,1.88,7.48s-.85,5.37-2.56,7.57c1.04-.98,1.89-2.23,2.56-3.74s1.01-2.98,1.01-4.38Z"/><path class="cls-1" d="M95.81,373c0,3.26-1.34,5.96-4.03,8.1-2.5,2.01-5.42,3.02-8.74,3.02-1.5,0-3.17-.38-5.01-1.14-1.85-.76-2.71-1.14-2.59-1.14-.49,0-.67.44-.55,1.33h-3.48l-.5-12.08,3.25-.23c.55,1.89,1.72,3.83,3.52,5.81,2.01,2.23,3.87,3.34,5.58,3.34,1.34,0,2.52-.46,3.52-1.37,1.01-.92,1.51-2.04,1.51-3.39,0-2.26-1.54-3.83-4.62-4.71-5.64-1.62-8.53-2.46-8.65-2.52-3.08-1.58-4.62-4.33-4.62-8.24,0-3.08,1.16-5.58,3.48-7.5,2.17-1.8,4.83-2.7,8.01-2.7,2.93,0,5.93.82,9.01,2.47l.5-1.65,2.61.37.5,10.89-2.75.23c-1.31-5.79-3.95-8.69-7.92-8.69-1.4,0-2.61.55-3.61,1.65s-1.51,2.36-1.51,3.8c0,1.13.93,2.04,2.79,2.75,1.95.55,3.9,1.1,5.86,1.65,2.47.73,4.19,1.6,5.17,2.61,2.17,2.23,3.25,4.68,3.25,7.37ZM90.64,373.78c0-3.54-3.17-5.77-9.52-6.68-2.26-.33-4.13-1.25-5.63-2.75-1.62-1.56-2.44-3.45-2.47-5.67-.12.64-.18,1.25-.18,1.83,0,2.1.76,3.8,2.29,5.08,1.13.98,2.84,1.79,5.12,2.42,1.86.46,3.72.92,5.58,1.37.98.27,1.91,1.08,2.79,2.4.88,1.33,1.33,2.51,1.33,3.55,0,.49-.06.98-.18,1.46.58-1.04.87-2.04.87-3.02Z"/><path class="cls-1" d="M135.62,349.99v3.66c-1.06.03-2.2.52-3.42,1.47-1,.8-1.85,1.72-2.55,2.76l-7.16,10.99v8.42c0,.86.4,1.58,1.19,2.16.79.58,1.69.84,2.7.78v3.04c-.92.29-1.92.44-3.02.44-2.32,0-3.92-.84-4.8-2.52-1.4,1.68-3.33,2.52-5.76,2.52-.92,0-1.85-.15-2.79-.46v-3.02h.18c1.01,0,1.85-.25,2.54-.76.69-.5,1.03-1.24,1.03-2.22v-7.7l-7.18-11.92c-.95-1.56-1.46-2.41-1.56-2.57-.79-1.01-1.6-1.51-2.43-1.51h-.55v-3.44c.88-.21,1.88-.31,2.97-.31,2.65,0,4.42.76,5.31,2.29.98-1.53,2.7-2.29,5.17-2.29.64,0,1.31.06,2.01.19l-.05,3.56c-.49-.24-.92-.37-1.28-.37-.89,0-1.33.33-1.33.97,0,.46.78,2,2.33,4.59,1.01,1.55,2,3.11,2.97,4.68.94-1.28,1.91-2.58,2.88-3.89,1.46-2.13,2.2-3.64,2.2-4.53,0-1.25-1.05-1.77-3.16-1.56v-3.29c.88-.15,1.83-.23,2.86-.23,2.55,0,4.11.64,4.68,1.92,1.61-1.34,3.41-1.98,5.41-1.92l.59.05ZM116.68,376.47v-8.17l-7.23-12.3c-.3-.52-.78-1.09-1.42-1.7-.73-.67-1.34-1.04-1.83-1.1.7.28,2.35,2.68,4.94,7.21,1.56,2.75,3.11,5.53,4.67,8.31.06,1.71.09,2.94.09,3.67,0,4.19-.4,6.55-1.19,7.07,1.31-.52,1.97-1.51,1.97-2.98Z"/><path class="cls-1" d="M166.92,373.18c-.37,3.02-1.82,5.6-4.35,7.75-2.53,2.15-5.32,3.23-8.37,3.23-4.51,0-8.1-1.68-10.75-5.03-2.5-3.08-3.75-6.95-3.75-11.62s1.1-8.97,3.29-12.26c2.53-3.78,6.12-5.67,10.75-5.67,2.56,0,5.17.75,7.82,2.24l.87-1.51,2.79.18v11.16h-2.7c-1.25-5.46-3.66-8.19-7.23-8.19-2.65,0-4.65,1.59-5.99,4.76-1.04,2.38-1.56,5.09-1.56,8.14s.53,5.96,1.6,8.37c1.4,3.17,3.49,4.76,6.27,4.76,2.01,0,3.78-.78,5.31-2.33,1.4-1.43,2.3-3.17,2.7-5.22l3.29,1.24ZM148.07,380.78c-1.62-1.62-2.91-3.81-3.89-6.59-.88-2.56-1.33-5.08-1.33-7.55,0-3.66.87-7.38,2.61-11.16-2.47,2.5-3.71,6.27-3.71,11.3,0,2.87.47,5.49,1.42,7.87,1.1,2.75,2.73,4.79,4.9,6.13Z"/><path class="cls-1" d="M201.42,371.95l-2.84,11.71h-3.2l-.78-1.46c-2.35.98-4.79,1.46-7.32,1.46-2.87,0-5.06-.84-6.59-2.52-1.37,1.68-3.05,2.52-5.03,2.52-.79,0-1.59-.17-2.38-.5v-3.25c1.28,0,2.3-.53,3.07-1.59.67-.94,1.01-2.06,1.01-3.37v-17.57c0-2.28-1.42-3.61-4.26-4.01v-3.2c.61-.13,1.33-.19,2.15-.19,2.62,0,4.65.75,6.09,2.24,1.37-1.49,3.37-2.24,5.99-2.24.55,0,1.1.05,1.65.14v3.25h-.14c-1.16-.06-2.07.29-2.72,1.07-.66.77-.98,1.76-.98,2.97v19.39c1.22.73,2.67,1.09,4.35,1.09,3.9,0,7-2.45,9.29-7.37l2.65,1.42ZM180.32,374.88v-15.37c0-.82-.14-1.75-.42-2.79-.31-1.16-.71-1.98-1.18-2.47.37.64.55,1.92.55,3.84v16.01c0,2.44-.3,3.98-.92,4.62,1.31-.4,1.97-1.68,1.97-3.84Z"/><path class="cls-1" d="M234.4,372.59l-.82,11.07h-2.47l-1.24-2.1c-2.47,1.4-5.14,2.1-8.01,2.1s-5.14-.87-7.09-2.61c-1.95,1.74-4,2.61-6.13,2.61-.52,0-1.02-.08-1.51-.23v-3.39c.95,0,1.66-.56,2.15-1.69.4-.85.6-1.81.6-2.87v-16.7c0-1.52-.26-2.78-.79-3.79-.68-1.34-1.71-1.9-3.1-1.69v-3.33l.92-.05c3.72-.09,5.92.69,6.59,2.33,2.26-1.56,4.71-2.33,7.37-2.33.98,0,2.24.24,3.8.71,1.56.47,2.65.71,3.29.71,1.13,0,1.78-.47,1.97-1.42l2.52,1.22.04,7.02-2.61.82c-.31-1.49-1.11-2.7-2.42-3.62-1.31-.92-2.75-1.37-4.3-1.37-2.2,0-3.71.61-4.53,1.83-.58.92-.87,2.39-.87,4.44v1.88c.03.82.05,1.46.05,1.92.55.25,1.14.37,1.78.37,2.07,0,3.17-1.51,3.29-4.53l3.2.14c.03.25.05.57.05.96,0,3.02-.67,4.7-2.01,5.03,1.43,1.07,2.23,2.78,2.38,5.12h-3.66c-.43-1.08-.79-1.79-1.1-2.12-.49-.48-1.27-.72-2.33-.72-.7,0-1.22.23-1.56.68,0,3.33.11,5.49.32,6.49.58,2.75,1.98,4.13,4.21,4.13,2.41,0,4.35-.64,5.81-1.91,1.59-1.33,2.43-3.2,2.52-5.59l3.71.46ZM212.9,359.96c0-.85-.12-1.78-.37-2.79-.31-1.16-.69-1.98-1.14-2.47.37.64.55,1.92.55,3.84v16.01c0,2.44-.31,3.98-.92,4.62,1.25-.4,1.88-1.68,1.88-3.84v-15.37Z"/><path class="cls-1" d="M268.22,373c0,3.26-1.34,5.96-4.03,8.1-2.5,2.01-5.42,3.02-8.74,3.02-1.5,0-3.17-.38-5.01-1.14-1.85-.76-2.71-1.14-2.59-1.14-.49,0-.67.44-.55,1.33h-3.48l-.5-12.08,3.25-.23c.55,1.89,1.72,3.83,3.52,5.81,2.01,2.23,3.87,3.34,5.58,3.34,1.34,0,2.52-.46,3.52-1.37,1.01-.92,1.51-2.04,1.51-3.39,0-2.26-1.54-3.83-4.62-4.71-5.64-1.62-8.53-2.46-8.65-2.52-3.08-1.58-4.62-4.33-4.62-8.24,0-3.08,1.16-5.58,3.48-7.5,2.17-1.8,4.83-2.7,8.01-2.7,2.93,0,5.93.82,9.01,2.47l.5-1.65,2.61.37.5,10.89-2.75.23c-1.31-5.79-3.95-8.69-7.92-8.69-1.4,0-2.61.55-3.61,1.65s-1.51,2.36-1.51,3.8c0,1.13.93,2.04,2.79,2.75,1.95.55,3.9,1.1,5.86,1.65,2.47.73,4.19,1.6,5.17,2.61,2.17,2.23,3.25,4.68,3.25,7.37ZM263.05,373.78c0-3.54-3.17-5.77-9.52-6.68-2.26-.33-4.13-1.25-5.63-2.75-1.62-1.56-2.44-3.45-2.47-5.67-.12.64-.18,1.25-.18,1.83,0,2.1.76,3.8,2.29,5.08,1.13.98,2.84,1.79,5.12,2.42,1.86.46,3.72.92,5.58,1.37.98.27,1.91,1.08,2.79,2.4.88,1.33,1.33,2.51,1.33,3.55,0,.49-.06.98-.18,1.46.58-1.04.87-2.04.87-3.02Z"/><path class="cls-1" d="M303.95,373.18c-.37,3.02-1.82,5.6-4.35,7.75-2.53,2.15-5.32,3.23-8.37,3.23-4.51,0-8.1-1.68-10.75-5.03-2.5-3.08-3.75-6.95-3.75-11.62s1.1-8.97,3.29-12.26c2.53-3.78,6.12-5.67,10.75-5.67,2.56,0,5.17.75,7.82,2.24l.87-1.51,2.79.18v11.16h-2.7c-1.25-5.46-3.66-8.19-7.23-8.19-2.65,0-4.65,1.59-5.99,4.76-1.04,2.38-1.56,5.09-1.56,8.14s.53,5.96,1.6,8.37c1.4,3.17,3.49,4.76,6.27,4.76,2.01,0,3.78-.78,5.31-2.33,1.4-1.43,2.3-3.17,2.7-5.22l3.29,1.24ZM285.1,380.78c-1.62-1.62-2.91-3.81-3.89-6.59-.88-2.56-1.33-5.08-1.33-7.55,0-3.66.87-7.38,2.61-11.16-2.47,2.5-3.71,6.27-3.71,11.3,0,2.87.47,5.49,1.42,7.87,1.1,2.75,2.73,4.79,4.9,6.13Z"/><path class="cls-1" d="M346.73,380.55v3.16c-.25.06-.58.09-1.01.09-2.9,0-5.02-.84-6.36-2.52-1.68,1.59-4.04,2.38-7.09,2.38-.52,0-1.02-.03-1.51-.09v-3.02c.95,0,1.8-.14,2.56-.41,1.07-.37,1.6-.92,1.6-1.65,0-.43-.27-1.16-.82-2.2-.4-.67-.79-1.36-1.19-2.06h-14.18c-.79,1.91-1.19,3.11-1.19,3.6,0,1.91,1.4,2.83,4.21,2.77v3.05c-.43.09-.95.14-1.56.14-2.1,0-3.75-.67-4.94-2.01-1.8,1.34-3.63,2.01-5.49,2.01-.7,0-1.36-.14-1.97-.41v-2.98c2.23-.09,3.75-1.1,4.58-3.02,1.65-3.82,3.31-7.65,4.99-11.5,2.75-6.45,4.12-10.04,4.12-10.77,0-.95-.61-1.42-1.83-1.42h-1.14l.05-3.58c.61-.15,1.34-.22,2.2-.22,2.81,0,4.9.92,6.27,2.75.61-.87,1.54-1.55,2.79-2.05,1.13-.46,2.27-.7,3.43-.7.64,0,1.28.06,1.92.18v3.31c-.76.03-1.42.23-1.97.6-.67.43-1.01,1-1.01,1.7,0,.46.15.98.46,1.57l10.39,20.09c1.19,2.29,2.42,3.36,3.71,3.2ZM330.18,369.39l-5.19-10.33-4.11,10.33h9.3ZM337.12,377.81c0-1.25-.24-2.35-.72-3.3l-8.19-16.43c-.31-.55-.94-1.06-1.89-1.55l10.8,21.28Z"/><path class="cls-1" d="M381.69,361.88c0,3.45-1.14,6.34-3.43,8.69-2.29,2.35-5.16,3.52-8.6,3.52-1.46,0-2.82-.34-4.07-1.01v4.12c0,1.07.37,1.86,1.1,2.38.73.52,1.65.72,2.75.59v3.25c-.82.27-1.75.41-2.79.41-2.08,0-3.69-.73-4.85-2.2-1.5,1.46-3.57,2.2-6.22,2.2-.55,0-1.1-.05-1.65-.14v-2.97c.98,0,1.8-.28,2.47-.85.67-.56,1.01-1.32,1.01-2.27v-19.99c0-1.1-.27-2-.82-2.7-.64-.79-1.5-1.17-2.56-1.14v-3.66c.55-.09,1.21-.14,1.97-.14,2.71,0,4.7.78,5.95,2.33,2.5-1.8,5.06-2.7,7.69-2.7,3.48,0,6.36,1.17,8.65,3.52s3.43,5.26,3.43,8.74ZM360.04,375.11v-15.37c0-2.53-.49-4.29-1.46-5.26.4.64.59,1.92.59,3.84v16.01c0,2.44-.31,3.98-.92,4.62,1.19-.4,1.78-1.68,1.78-3.84ZM373.95,360.97c0-.67-.03-1.27-.09-1.78-.12-1.1-.55-2.21-1.29-3.34-.86-1.37-1.79-2.06-2.81-2.06-1.17,0-2.19.41-3.08,1.21-.89.81-1.33,1.78-1.33,2.91v10.62c.73.4,1.57.59,2.52.59,2.1,0,3.69-.88,4.76-2.65.88-1.43,1.33-3.26,1.33-5.49ZM376.97,360.99c0-2.45-.96-4.76-2.88-6.93,1.25,2.2,1.88,4.7,1.88,7.48s-.85,5.37-2.56,7.57c1.04-.98,1.89-2.23,2.56-3.74s1.01-2.98,1.01-4.38Z"/><path class="cls-1" d="M415.5,372.59l-.82,11.07h-2.47l-1.24-2.1c-2.47,1.4-5.14,2.1-8.01,2.1s-5.14-.87-7.09-2.61c-1.95,1.74-4,2.61-6.13,2.61-.52,0-1.02-.08-1.51-.23v-3.39c.95,0,1.66-.56,2.15-1.69.4-.85.6-1.81.6-2.87v-16.7c0-1.52-.26-2.78-.79-3.79-.68-1.34-1.71-1.9-3.1-1.69v-3.33l.92-.05c3.72-.09,5.92.69,6.59,2.33,2.26-1.56,4.71-2.33,7.37-2.33.98,0,2.24.24,3.8.71,1.56.47,2.65.71,3.29.71,1.13,0,1.78-.47,1.97-1.42l2.52,1.22.04,7.02-2.61.82c-.31-1.49-1.11-2.7-2.42-3.62-1.31-.92-2.75-1.37-4.3-1.37-2.2,0-3.71.61-4.53,1.83-.58.92-.87,2.39-.87,4.44v1.88c.03.82.05,1.46.05,1.92.55.25,1.14.37,1.78.37,2.07,0,3.17-1.51,3.29-4.53l3.2.14c.03.25.05.57.05.96,0,3.02-.67,4.7-2.01,5.03,1.43,1.07,2.23,2.78,2.38,5.12h-3.66c-.43-1.08-.79-1.79-1.1-2.12-.49-.48-1.27-.72-2.33-.72-.7,0-1.22.23-1.56.68,0,3.33.11,5.49.32,6.49.58,2.75,1.98,4.13,4.21,4.13,2.41,0,4.35-.64,5.81-1.91,1.59-1.33,2.43-3.2,2.52-5.59l3.71.46ZM393.99,359.96c0-.85-.12-1.78-.37-2.79-.31-1.16-.69-1.98-1.14-2.47.37.64.55,1.92.55,3.84v16.01c0,2.44-.31,3.98-.92,4.62,1.25-.4,1.88-1.68,1.88-3.84v-15.37Z"/><path class="cls-1" d="M114.99,397.97c.89,0,2.61,0,3.91,1.01.93.72,1.49,1.96,1.49,3.31,0,2.06-1.37,2.9-1.8,3.14,1.05.17,1.68.62,2.08,1.01.96.91,1.15,2.16,1.15,3,0,.93-.26,2.25-1.37,3.23-1.2,1.05-2.66,1.29-4.05,1.29h-5.37v-15.98h3.95ZM114.15,404.6h.89c.48,0,2.42-.05,2.42-2.08,0-1.46-1.13-2.01-2.4-2.01h-.91v4.1ZM114.15,411.41h1.34c.58,0,1.44-.02,2.13-.43.77-.46.98-1.22.98-1.84,0-.5-.17-1.37-1.17-1.82-.67-.31-1.46-.31-2.13-.31h-1.15v4.41Z"/><path class="cls-1" d="M139.9,410.59h-6.44l-1.41,3.35h-3.38l6.88-15.98h2.44l6.68,15.98h-3.35l-1.41-3.35ZM138.99,408.05l-2.28-5.75-2.28,5.75h4.55Z"/><path class="cls-1" d="M155.41,397.97v13.29h4.94v2.68h-8.05v-15.98h3.11Z"/><path class="cls-1" d="M172.85,400.65v13.3h-3.11v-13.3h-3.59v-2.68h10.3v2.68h-3.59Z"/><path class="cls-1" d="M187.27,397.97v15.98h-3.11v-15.98h3.11Z"/><path class="cls-1" d="M198.82,397.97h2.25l4.24,10.16,4.43-10.16h2.25l2.68,15.98h-3.16l-1.44-9.85-4.29,9.85h-1.05l-4.1-9.85-1.63,9.85h-3.16l2.97-15.98Z"/><path class="cls-1" d="M239.55,405.97c0,4.86-3.5,8.34-8.53,8.34s-8.53-3.47-8.53-8.34,3.5-8.36,8.53-8.36,8.53,3.5,8.53,8.36ZM236.34,405.97c0-3.23-2.2-5.53-5.32-5.53s-5.32,2.3-5.32,5.53,2.2,5.51,5.32,5.51,5.32-2.28,5.32-5.51Z"/><path class="cls-1" d="M252.8,397.97c2.2,0,3.33.57,4.07,1.2,1.22,1.03,1.58,2.4,1.58,3.59,0,1.56-.62,2.92-1.87,3.76-.41.29-.98.55-1.75.7l4.98,6.73h-3.88l-4.26-6.42h-.38v6.42h-3.11v-15.98h4.62ZM251.29,405.32h.89c.6,0,3.07-.07,3.07-2.42s-2.44-2.4-3.02-2.4h-.93v4.82Z"/><path class="cls-1" d="M276.55,400.65h-5.75v3.57h5.51v2.68h-5.51v4.36h5.75v2.68h-8.86v-15.98h8.86v2.68Z"/><path class="cls-1" d="M288.25,410.13h-.13c0-1.04-.39-1.94-1.16-2.71-.77-.77-1.68-1.16-2.71-1.16v-.13c1.04,0,1.94-.39,2.71-1.16.77-.77,1.16-1.68,1.16-2.71h.13c0,1.04.39,1.94,1.16,2.71.77.77,1.68,1.16,2.71,1.16v.13c-1.04,0-1.94.39-2.71,1.16s-1.16,1.68-1.16,2.71Z"/><path class="cls-1" d="M302.59,397.97h2.25l4.24,10.16,4.43-10.16h2.25l2.68,15.98h-3.16l-1.44-9.85-4.29,9.85h-1.05l-4.1-9.85-1.63,9.85h-3.16l2.97-15.98Z"/><path class="cls-1" d="M330.72,397.97c2.23,0,4.17.24,5.94,1.56,1.94,1.46,3.07,3.79,3.07,6.44s-1.1,4.96-3.21,6.44c-1.87,1.32-3.62,1.53-5.84,1.53h-4.12v-15.98h4.17ZM329.67,411.26h.96c.79,0,2.51-.05,3.9-1.05,1.27-.91,1.99-2.54,1.99-4.24s-.69-3.31-1.96-4.26c-1.29-.96-2.88-1.05-3.93-1.05h-.96v10.61Z"/><path class="cls-1" d="M326.37,268.36c4.09-.45,6.76,1.25,9.59,3.96,4.81,4.6,5.62,12.04,1.09,17.16-5.49,6.21-14.3,3.35-19.1,12.41-1.95,3.7-1.81,5.5-5.28,8.57-6.17,5.46-14.66,3.93-17.8-3.88-1.48-3.68-.76-11.85,2.24-14.69s10.3-3.32,14.24-5.63c6.74-3.94,4.79-16.77,15.02-17.89ZM327.98,274.39c-1.9.27-3.71,1.92-4.85,3.38-3.7,4.7.2,10.96,6.01,10.42.69-.06,3.14-1.13,3.6-1.61,3.13-3.23,1.68-8.68-1.6-11.22-1.09-.85-1.72-1.16-3.16-.95ZM303.89,294.85c-1.82.26-3.76,1.62-4.12,3.51-.74,3.93.89,8.89,5.06,10.1,2.9.84,5.72-3.31,5.71-5.91-.02-3.09-3.14-8.21-6.65-7.7Z"/><path class="cls-1" d="M99.56,235.25c4.37-.55,10.37,3.04,12.19,6.97s1.35,5.95,1.76,9.88c.44,4.14,2.93,5.72,5.98,8.07,3.27,2.51,8.45,4.72,9.92,8.75,1.67,4.6-.13,8.28-3.11,11.73-6.05,6.99-12.67,6.04-18.54-.52-4.04-4.51-2.89-12.38-6.05-17.83-2.48-4.26-9.48-5.52-11.77-10.31-3.39-7.12,2-15.78,9.62-16.74ZM100.37,241.08c-1.51.17-2.44.67-3.37,1.85-4,5.08.33,11.71,6.5,11.11,2.6-.25,5.69-2.63,5.55-5.49-.24-4.66-4-8.02-8.68-7.48ZM118.44,267.17c-4.16.25-6.31,3.63-5.76,7.65.23,1.67,3.28,4.14,4.89,4.34,3.18.4,6.72-1.74,6.93-5.13.24-3.91-1.94-7.11-6.06-6.86Z"/><path class="cls-1" d="M242.19,314.74c5.2-3.73,13.24-.01,19.26-3.33,3.7-2.04,5.3-4.79,8.27-7.18,6.8-5.48,16.42-1.94,18.75,6.33,1.88,6.68-.35,12.3-6.23,15.83-6.26,3.76-10.75-.22-17.05,1.21-7.09,1.61-9.94,10.75-18.37,8.15-2.14-.66-4.08-2.02-5.5-3.73-3.48-4.18-3.94-13.82.87-17.28ZM277.4,309.71c-2.52.24-3.72.91-4.81,3.22-1.4,2.95-.5,6.32,2.38,7.92,5.7,3.18,11.36-2.67,8.25-8.25-1.31-2.36-3.19-3.14-5.82-2.89ZM249.09,317.32c-4.23.79-6.73,6.18-3.96,9.68,5.26,6.63,15.34,1.54,11.73-6.51-1.14-2.54-5.22-3.64-7.78-3.17Z"/><path class="cls-1" d="M355.08,214.19c6.86-.17,12.39,4.84,11.89,11.89-.5,7.05-8.18,9.1-10.4,15.89-1.31,4.02.2,5.54.53,9.21.73,7.97-6.34,14.94-14.44,12.83-1.29-.34-1.46-.97-2.33-1.48-2.13-1.26-3.76-1.57-5.05-3.98-3.4-6.33-1.41-12.74,3.67-17.33,1.26-1.14,2.63-1.76,3.82-3.2,3.53-4.3,1.45-7.23,1.1-11.95-.59-8.1,3.41-11.69,11.2-11.88ZM353.86,218.79c-.95.16-3.86,1.99-4.21,2.81-.25.57-.22,2.39-.16,3.07.39,4.45,5.31,6.74,9.24,5.01,2.12-.93,2.63-3.07,2.63-5.22,0-3.45-4.25-6.23-7.5-5.67ZM346.39,246.95c-2.2-.04-5.94,2.24-6.72,4.42.29,2.38.19,4.41,2.6,5.62,3.49,1.77,7.9.34,8.39-3.88.3-2.57-1.36-6.11-4.26-6.16Z"/><path class="cls-1" d="M136.7,284.83c4.03-.39,8.83,2.33,11.48,5.26,1.8,1.99,5.1,8.42,7.24,9.22,3.84,1.43,8.8,1.12,12.88,2.38,3.62,1.11,7.73,3.7,8.66,7.6,2.61,10.99-11,21.8-19.44,12.21-4.09-4.64-4.25-9.64-11.2-12.08-3.86-1.36-10.48-.36-13.85-2.81-8.06-5.84-6.8-20.72,4.24-21.78ZM137.91,289.83c-7.68.54-5.48,14.65,2.9,12.75,1.84-.42,4.6-2.5,4.77-4.46.38-4.38-3.15-8.61-7.67-8.29ZM164.6,307.5c-5.3.77-6.86,8.59-1.42,11.35,7.22,3.67,11.63-6.03,7.16-9.56-1.45-1.15-3.88-2.06-5.73-1.79Z"/><path class="cls-1" d="M328.59,100.81c6.65-.68,12.23,2.41,13.26,9.3.52,3.45.32,5.7,1.74,9.1,2.47,5.89,5.61,5.58,9.73,9.34,4.37,3.99,7.6,9.89,4.14,15.58-4.39,7.22-16.64,5.22-20.57-1.36-2.57-4.3-2.41-6.71-2.83-11.42-.85-9.59-8.58-8.8-13.36-14.74-2.46-3.06-2.04-8.48-.06-11.7,1.24-2.02,5.62-3.86,7.95-4.1ZM329.8,105.22c-8.16.37-5.95,13.95,2.3,10.74,6.08-2.37,4.42-11.05-2.3-10.74ZM345.24,131.7c-3.31.45-5.91,3.95-5.36,7.26.15.89,2.34,2.26,3.19,2.63,4.37,1.88,9.75-.57,9.02-5.81-.19-1.35-1.61-2.62-2.73-3.29-1.4-.83-2.49-1.02-4.12-.79Z"/><path class="cls-1" d="M280.41,63.48c4.47-.46,6.93.65,9.56,4.17,1.7,2.28,3.02,4.84,5.24,6.8,5.99,5.3,15.26,1.2,21.98,7.93,7.31,7.32,1.02,18.62-8.94,18.38-6.87-.17-8.84-5-11.77-9.91-4.92-8.24-18.84-3.5-23.73-10.39-4.91-6.93-.74-16.11,7.67-16.98ZM279.81,67.89c-9.48,1.29-3.72,15.12,5,10.62,3.78-1.95,2.61-5.94.26-8.56-1.61-1.79-2.8-2.4-5.26-2.06ZM307.32,83.74c-1.99.08-4.31,1.82-4.93,3.72-1.22,3.75,1.74,8.6,5.86,8.27,4.74-.38,7.44-4.48,5.03-8.84-1.24-2.25-3.41-3.26-5.97-3.15Z"/><path class="cls-1" d="M105.59,118.87c7.79-.51,13.92,7.51,11.12,14.93-2.64,7-11.51,7.7-11.49,15.82.01,4.27,1.35,8.54-1.14,12.48-3.49,5.51-11.07,7.26-15.91,2.37-4.48-4.53-4.47-9.94-.59-14.85,2.1-2.65,5.88-4.59,7.22-7.63,2.48-5.6.38-11.89,2.57-16.69,1.78-3.92,3.69-6.13,8.22-6.43ZM105.98,124.68c-3.16.53-3.82,5.25-2.39,7.72,3.11,5.38,10.15.74,7.41-5-.81-1.7-3.14-3.03-5.02-2.71ZM94.94,151.37c-1.45.25-3.37,2.13-4,3.43-.84,1.75-1.02,3.17,0,4.89,1.27,2.14,4.02,2.7,6.2,1.7,5.72-2.62,3.33-10.97-2.2-10.02Z"/><path class="cls-1" d="M353.87,157.39c7.79-1.06,15.81,4.3,13.1,12.89-1.39,4.42-4.87,5.56-3.47,10.89,1.25,4.75,6.83,8.64,6.23,13.94-1,8.76-10.13,13.62-17.79,8.66-5.39-3.49-6.57-8.15-4.07-14.06.91-2.14,2.76-4.48,3.02-6.81.43-3.85-3.76-7.5-5.09-10.92-2.61-6.71.74-13.6,8.08-14.59ZM355.07,162.41c-3.88.5-5.11,2.9-4.52,6.62.61,3.84,4.54,3.47,7.43,4.13,3.67-1.2,4.32-7,1.34-9.28-1.3-.99-2.59-1.68-4.25-1.47ZM356.68,189.1c-5.61.82-5.67,8.45-1.4,10.53,4.57,2.23,9.64.37,9.08-5.26-.41-4.14-3.81-5.83-7.67-5.27Z"/><path class="cls-1" d="M219.6,50.84c5.91-.11,6.91,3.38,11.07,5.47,6.65,3.34,12.56-3.13,19.58-2.93,7.2.2,12.54,6.75,10.23,13.86-2.05,6.29-5.56,9.3-12.42,8.61-7.38-.74-9.76-10.14-19.15-6.85-4.37,1.53-5.9,3.49-11.19,3.48-3.65,0-6.04-.87-7.48-4.38-3.15-7.65.14-17.08,9.35-17.25ZM218.59,56.05c-1.65.23-3.39,1.33-4.37,2.66-4.48,6.1,6.4,12.16,10.24,6.82.87-1.21,1.61-4.74,1.15-6.16-.92-2.82-4.36-3.68-7.02-3.32ZM254.5,61.48c-2.88-3.32-9.1-1.78-10.75,2.07-1.19,2.78-.78,4.92,1.68,6.7,3.74,2.69,11.52-.96,10.49-5.87-.09-.43-1.13-2.55-1.42-2.89Z"/><path class="cls-1" d="M191.9,314.93c7.31-.67,10.35,5.59,17.35,4.71,1.27-.16,2.5-.84,3.68-1.14,3.96-1.02,10.74-2.42,14.24.19,7.46,5.54,3.77,17.27-4.18,20.1-7.09,2.53-11.38-4.78-18.11-4.86-3.49-.04-6.5,1.65-9.68,2.56-15.93,4.58-17.51-20.25-3.3-21.56ZM193.1,319.74c-3.99.43-6.65,4.11-4.61,7.91,2.29,4.26,8.81,3.72,10.63-.69.95-2.3.92-3.63-.95-5.38-1.29-1.2-3.29-2.03-5.07-1.84ZM220.14,322.01c-5.67-.08-8.11,7.14-3.61,10.72,3.81,3.03,9.08,1.71,9.88-3.35.63-3.98-2.29-7.31-6.27-7.36Z"/><path class="cls-1" d="M89.54,179.27c7.4-.76,10.85,5.67,10.27,12.28-.46,5.28-3.49,7.1-1.35,13,2.26,6.23,6.86,12.34,1.84,19-2.84,3.77-11.31,5.12-15.04,2.22-5.3-4.13-3.82-9.66-1.86-15.1.49-1.37,1.44-2.68,1.67-4.15,1.3-8.27-6.15-11.85-4.64-20.09.68-3.72,5.53-6.79,9.1-7.16ZM90.54,184.47c-1.48.16-3.6,2.08-4.28,3.36-.81,1.53-.75,4.08.41,5.44,1.5,1.76,5.44,1.85,7.04.2,2-2.06,1.77-5.82-.2-7.84-.57-.59-2.14-1.25-2.96-1.16ZM91.95,212.77c-4.28.41-6.85,7.59-1.77,8.89,1.61.41,5.23.08,6.32-1.32,2.69-3.5-.2-7.99-4.54-7.57Z"/><path class="cls-1" d="M141.51,74.71c2.38-.33,3.42.22,5.37,1.35,5.33,3.07,8.22,7.24,5.67,13.5-1.67,4.1-6.9,5.96-10.83,7.23-2.72.88-5.15.58-6.87,3.17-4.25,6.42-2.84,15.7-13.84,14.41-7.63-.89-9.92-9.42-7.38-15.77,2.87-7.18,9.86-5.48,15.16-8.93,2.22-1.44,3.73-5.88,5.19-8.26,1.62-2.62,4.28-6.26,7.54-6.71ZM142.12,81.74c-1.75.26-3.58,1.62-3.77,3.46-.18,1.81.2,2.59,1.51,3.71,2.55,2.16,6.01,3.06,7.48-.74,1.68-4.32-.76-7.08-5.22-6.43ZM127.85,107.3c1.5-1.46,2.07-6.15.58-7.77-1.33-1.45-4.93-2.07-6.79-1.75-2.85.49-4.75,4.57-4.07,7.18.42,1.58,3.65,3.83,5.22,4.01,1.64.18,3.87-.52,5.05-1.67Z"/><path class="cls-1" d="M191.7,55.05c4.85-.51,9.78,3.98,10.82,8.53,1.34,5.88-5.89,11.44-11.1,12.26-3.51.55-5.8-.64-9.03-.96-2.33-.22-2.95.13-4.69,1.48-4.05,3.13-5.19,6.3-11.16,6.9-5.44.55-7.53-2.35-9.06-7.15-2.66-8.35,4.86-14.16,12.69-13.69,2.85.17,5.48,1.52,8.05,1.78,3.41.35,3.63-1.65,5.22-3.77,1.77-2.37,5.25-5.06,8.27-5.38ZM190.68,60.66c-1.28.11-3.43,1.91-4,3.03-1.12,2.23-.97,5.56,1.43,6.87,2.76,1.51,6.26,1.48,8.32-1.13,2.4-3.04.39-7.94-3.24-8.56-.44-.08-2.12-.24-2.52-.21ZM167.21,68.09c-4.3.63-6.81,5.73-3.76,9.08,5.59,6.15,15.53-4,7.89-8.29-1.44-.81-2.44-1.04-4.12-.79Z"/><path class="cls-1" d="M98.57,168.81c.72.47-.6,3.66-.74,4.51-.1.6-.21,1.57-.23,2.17-.05,1.45.53,3.06-.19,4.23-.67.41-2.55-1.31-3.36-1.67-2.75-1.21-5.59-.86-8.34.2-.54.21-1.16.99-1.66.56-.46-.7,1.62-4.3,1.92-5.31.42-1.43.49-2.93.39-4.42-.09-1.28-.97-3.17.1-4.11,1.26,1.34,3.18,2.58,4.96,3.06,2.38.64,4.75.41,7.14.78Z"/><path class="cls-1" d="M261.39,59.01c.51-.51,3.86,1.99,4.55,2.37,2.3,1.25,4.88,2.33,7.55,1.68l.51.51c.31,1.08-1.67,1.61-2.39,2.16-2.3,1.76-3.28,4.79-2.99,7.61.05.52.79,1.82.2,2.24s-3.86-1.03-4.93-1.11c-1.67-.14-3.47.74-4.81.59-2.11-.24.82-2.53,1.2-3,1.87-2.33,3.32-7.1,2.35-9.98-.19-.57-1.65-2.66-1.25-3.07Z"/><path class="cls-1" d="M333.03,257.88c.21.14,1.66,3.79,2.33,4.59,2.32,2.76,5.91,3.95,9.43,3.84,1.61-.05,3.07-.75,1.29,1.49-1.02,1.29-2.29,2.38-3.25,3.77-.89,1.29-1.33,2.82-2.27,3.95-.35.08-.39-.27-.51-.49-1.56-2.94-2.28-4.19-5.27-5.97-1.82-1.09-3.64-1.24-5.41-2.02-2.52-1.11-.27-2.1.65-3.26.6-.77,1.29-2.08,1.62-3,.2-.57.54-3.47,1.39-2.91Z"/><path class="cls-1" d="M364.78,216.11c-1.07-1.77-3.14-3.14-5.19-3.53-2.17-.41-4.77-.54-6.95-.23-1.02.14-2.08.91-3.05.4-.77-.58.78-2.85.9-3.75s-.35-3.8,0-4.21c.77-.92,2.26.48,3.04.81,2.57,1.09,6.95,2.39,9.63,1.4.69-.25,2.35-1.77,2.71-1.7.41.08.33,1.17.3,1.5-.2,2.56-1.2,4.47-1,7.42.05.77.92,2.05-.38,1.88Z"/><path class="cls-1" d="M358.13,146.1c.12,2.94.32,5.36,1.77,7.96.34.6,1.85,2.01,1.05,2.59-.6.43-2.82-1-3.62-1.22-3.31-.92-7.18.52-9.98,2.28-.21.03-.7-.06-.82-.21-.17-.24-.43-3.01-.7-3.81-.28-.83-.79-1.79-1.46-2.36-.63-1.2,3.58-.75,4.23-.79,2.05-.14,5.37-.92,6.92-2.31.87-.78,1.29-2.38,2.6-2.11Z"/><path class="cls-1" d="M111.43,107.4c.22.13,1.51,3.83,2.07,4.65.82,1.21,3.41,3.26,4.82,3.61,1.28.32,3.87-.47,3.55,1.12-1.69.54-3.46,2.89-3.74,4.59-.17,1.01.31,2.21-.55,2.86-2.26-2.99-5.29-6.11-9.08-6.97-.52-.12-1.93.14-2.05-.57-.04-.23,1.68-1.59,2.04-2.15,1.15-1.78,2.23-5.04,2.17-7.16l.77.03Z"/><path class="cls-1" d="M93.29,229.58c1.37-.17,3.54-1.13,4.7-1.92.55-.38,1.88-1.85,2.5-1.67l2.93,7c-.92.38-1.92.12-2.88.24-1.95.24-3.95,1.41-5.61,2.42-1.53.93-3,2.52-4.76,2.77v-3.51c0-.33-.67-2.95-.84-3.37-.3-.73-.98-1.03-.76-1.95,1.49-.13,3.27.18,4.72,0Z"/><path class="cls-1" d="M292.87,300.85c.41.26,0,2.04.05,2.65.16,2.35,1.47,5.64,3,7.44.2.61,2.61,2.57,2.61,2.82s-.13.38-.33.48c-2.43.71-4.76,1.86-6.51,3.73l-.69.11c-.44-.12-.04-4.72-.11-5.52-.2-2.23-1.64-4.95-2.7-6.93-.53-.99-2.16-2.35-.71-3.11.85-.44,2.37-.71,3.36-1.06.53-.19,1.37-1.03,2.04-.61Z"/><path class="cls-1" d="M321.4,93.12c.86-.17.89.77,1.24,1.27,1.38,2,1.91,3.16,4.24,4.18.73.32,2,.22,1.71,1.23-.24.82-1.44.45-2.06.56-2.75.51-5.27,1.84-6.91,4.13-.41.57-1.32,2.46-1.54,2.67-.19.18-.29.28-.58.19-1.18-1.65-2.5-2.93-4.23-4.01-.5-.31-1.89-.51-1.69-1.27.18-.7,2.59-.98,3.33-1.3,2.5-1.07,6.35-4.75,6.49-7.66Z"/><path class="cls-1" d="M132.86,283.43c.11.13.19.27.23.44-2.66,1.75-5.23,2.88-6.61,5.98-.56,1.26-.77,2.5-1.28,3.74-.58.12-1.23-1.2-1.59-1.6-1.04-1.18-2.61-3.12-3.73-4.09-.67-.58-2.55-1.02-.9-1.74,3.34-1.45,5.38-.38,8.14-4.1.62-.84.94-2.88,2.15-2.36.53.23,3.06,3.08,3.6,3.73Z"/><path class="cls-1" d="M180.1,327.91c-1.77-.55-3-2.27-4.74-2.99-1.01-.42-2.04-.43-3.09-.63-.17-.87.59-.72,1.07-1.04,3.69-2.39,4.69-5.11,5.26-9.39.86-1.6,5.7,1.08,6.09,2.54-1.54,2.22-3.1,4.21-3.94,6.84-.54,1.7-.35,2.98-.65,4.67Z"/><path class="cls-1" d="M237.7,319.49c-.07,1.17-.84,2.1-.98,3.33-.22,1.89.2,3.37.89,5.09.3.75,2.44,4.4,2.09,4.81-2.24.3-4.43.2-6.61.91-.46.15-2.44,1.56-2.38.44.03-.59,1.17-2.34,1.47-3.16.95-2.59,1.13-5.86-.33-8.29-.39-.66-1.27-.91-.94-1.91l6.8-1.23Z"/><path class="cls-1" d="M208.17,54.42c.14,1.79-1.15,3.35-1.36,5.11-.28,2.39.18,5.21,1.61,7.17.32.44.97.4.74,1.19-.16.56-1.9.78-2.58,1.05-.61.24-3.19,2.16-3.21.81,0-.56.72-2.05.81-3.02.27-3.09-.28-6.08-2.72-8.13-.45-.38-3.24-1.79-1.21-2.02,1.82-.21,3.15.38,5-.62.96-.52,1.78-2.12,2.92-1.55Z"/><path class="cls-1" d="M154.8,71.45c.64,2.47.41,5.19,1.58,7.56.87,1.77,2.62,2.43,3.83,3.8.08.44-2.66,1.87-3.18,2.19-.35.21-.96,1.18-1.42.34-.25-.46-.36-2.15-.7-3.06-1.47-3.81-4.03-3.89-6.22-6.23-1.68-1.79,1.29-1.79,2.58-2.43.69-.34,3.11-2.48,3.53-2.18Z"/><path class="cls-1" d="M326.97,277.59c6.37-1.1,5.7,10.02-.4,7.93-3.09-1.06-3.54-7.25.4-7.93Z"/><path class="cls-1" d="M304.9,297.65c.97-.07,1.93.71,2.45,1.46,2.21,3.23-2.15,7.89-4.79,4.99-1.91-2.1-.58-6.23,2.34-6.45Z"/><path class="cls-1" d="M100.76,243.88c2.05-.38,4.77.97,4.83,3.26.08,3.27-2.24,4.85-5.29,3.73s-2.43-6.45.46-6.99Z"/><path class="cls-1" d="M117.43,269.57c3.92-.54,5.84,2.98,3.14,5.75-1.52,1.56-3.38,1.54-5.17.38-2.57-1.66-.83-5.74,2.03-6.13Z"/><path class="cls-1" d="M249.69,320.33c2.36-.49,4.79.8,4.45,3.45-.51,3.93-8.3,5.49-7.4-.17.18-1.12,1.83-3.05,2.94-3.28Z"/><path class="cls-1" d="M280.99,312.73c2.07,2.08.25,6.02-2.44,6.36-3.29.41-5.1-1.61-4.01-4.81.8-2.35,4.64-3.35,6.45-1.54Z"/><path class="cls-1" d="M354.47,220.8c4.34-.7,7.07,5.43,1.8,7.22-2.11.71-4.1-.22-4.36-2.55-.23-2.06.2-4.29,2.56-4.67Z"/><path class="cls-1" d="M344.83,249.29c3.2-.62,4.37,3.89,2.47,5.69-2.3,2.18-6.03,1.63-5.78-1.95.1-1.5,1.85-3.45,3.31-3.73Z"/><path class="cls-1" d="M141.89,294.07c.99,1.01,1.26,2.41,1.03,3.79-.57,3.38-5.22,3.62-6.82.89-2.6-4.46,2.19-8.36,5.79-4.69Z"/><path class="cls-1" d="M165.39,309.9c1.52-.26,2.39-.03,3.35,1.17,1.41,1.77,1.28,4.21-.59,5.6-1.56,1.16-3.34.4-4.7-.71-2.42-1.98-.92-5.57,1.94-6.06Z"/><path class="cls-1" d="M345.23,134.51c2.84-.59,6.05,1.8,4.07,4.67-1.21,1.76-4.52,1.59-5.59-.23-.89-1.52-.37-4.05,1.52-4.44Z"/><path class="cls-1" d="M328.97,107.42c1.79-.37,3.52.09,4.3,1.83,2.09,4.63-4.72,6.19-6.34,2.52-.78-1.77.06-3.94,2.03-4.35Z"/><path class="cls-1" d="M307.5,86.55c4.18-.72,5.38,4.55,1.66,5.87-4.84,1.71-6.14-5.1-1.66-5.87Z"/><path class="cls-1" d="M279.4,70.09c2.66-.55,5.01,1.25,4.67,4.07-.35,2.9-6.39,2.91-6.81-.63-.17-1.4.68-3.15,2.14-3.45Z"/><path class="cls-1" d="M94.54,153.37c4.95-1.28,4.92,7.74-.04,6.96-3.41-.54-2.62-6.28.04-6.96Z"/><path class="cls-1" d="M106.18,126.88c3.75-.87,5.15,4.77,1.52,5.53-3.47.72-3.84-4.99-1.52-5.53Z"/><path class="cls-1" d="M357.28,191.1c3.39-.61,5.58,2.06,4.37,5.17-.99,2.54-3.7,2.44-5.62,1-2.11-1.58-.91-5.78,1.25-6.17Z"/><path class="cls-1" d="M355.47,164.21c3.12-.49,4.56,3.68,2.57,5.78-1.1,1.16-4.91.72-5.28-.95-.42-1.88.65-4.5,2.72-4.83Z"/><path class="cls-1" d="M249.29,61.46c4.91-.83,5.72,4.61,1.59,6.21-5.99,2.32-6.04-5.45-1.59-6.21Z"/><path class="cls-1" d="M219.39,58.06c3-.37,5.19,2.7,3.35,5.15-.46.61-1.89,1.64-2.65,1.77-5.25.9-6.12-6.24-.7-6.92Z"/><path class="cls-1" d="M219.99,325.35c4.82-1,4.7,6.29.35,6.38-3.62.07-3.3-5.77-.35-6.38Z"/><path class="cls-1" d="M193.51,322.14c1.87-.19,3.78,1.26,3.64,3.24-.17,2.42-2.08,3.27-4.29,2.93-3.06-.48-2.73-5.82.65-6.16Z"/><path class="cls-1" d="M88.64,191.79c-1.11-1.01-.4-4.46,1.29-4.9,3.06-.8,4.92,3.59,2.25,5.26-.82.51-2.86.26-3.54-.36Z"/><path class="cls-1" d="M94.53,220.08c-1.53,1.61-5.76,1.22-5.77-1.64,0-3.21,3.34-4.76,5.64-2.61,1.08,1.01,1.12,3.21.13,4.25Z"/><path class="cls-1" d="M122.04,99.79c1.58-.32,3.81,1.08,4.06,2.68.68,4.31-4.03,6.83-5.92,2.9-.58-1.2-.59-1.77-.23-3.06.28-1.03.95-2.29,2.09-2.52Z"/><path class="cls-1" d="M143.32,83.94c2.83-.16,2.72,4.18.13,4.56-3.53.52-3.06-4.39-.13-4.56Z"/><path class="cls-1" d="M194.28,63.49c1.16,1.09.88,3.61-.33,4.65-2.52,2.17-6.46-.13-4.9-3.5.88-1.9,3.78-2.52,5.23-1.16Z"/><path class="cls-1" d="M168.02,69.7c6.48-.65,4.52,7.58-.23,7.49-4.35-.08-5.33-6.93.23-7.49Z"/><path class="cls-1" d="M253.8,255.23c.97-2.2,3.59-3.18,5.45-4.41,2.58-1.71,8.13-4.92,10.05-6.94,1.95-2.05.15-2.56.42-4.35.19-1.25,2.04-2.87,2.96-3.7,6.85-6.16,14.3-13.58,17.68-22.34.77-1.99,1.32-4.07,2.09-6.07,1.6-4.16,3.55-7.24,3.72-12,.02-.55-.27-3.68-.9-3.63-.47.04-1.84,4.72-2.88,5.11,0-.38.32-.67.36-1.03.22-1.92.34-5.32.3-7.27-.02-.92-.36-3.7-.9-4.32-.12-.13-2.59-2.04-2.75-2.12-.34-.17-.27.03-.33.24-.4,1.33-.14,3.27-.57,4.86-.88,3.23-5.03,11.58-7.17,14.15-.67.81-2.15,2.6-1.95.27.04-.5.32-.84.36-1.26.21-2.33.61-5.6.59-7.83-.03-2.91-1.18-4.15-3.58-1.87-.86-.74-1.76-1.2-2.93-1.2-2.14.01-3.19,3.01-4.87-.3-1.04-2.05-2.5-8.42-4.51-9.25-1.87-.77-2.73.43-3.27,2.13-.24.76-.18,1.58-.54,2.32-.26.54-.86.82-1.24,1.35-1.88,2.6-1.34,6.88-3.55,9.24-2.73,2.91-4.15,3.71-5.28,8.05-.43,1.67-.81,6.05.31,7.47.74.93,1.83.88,2.69,1.3.59.29,1.35,1.36,2.02,1.79.71.45,1.58.6,2.27,1.09,1.67,1.19,3.44,4.48,3.52,6.53.19,4.61-.86,7.63-4.82,10.19-1.29.83-2.27.24-3.58-.27-4.09-1.6-5.71-3.72-9.01-6.12-2.21-1.61-6.27-3.41-7.81-5.46-.41-.55-.54-1.24-.92-1.74-2.1-2.76-7.84-1.15-10.94-2.14-.77-.25-3.74-2.12-3.78-2.9-.02-.33.7-.78.16-.98-.18-.07-1.21.05-1.45.13-1.43.47-.97,1.89-1.12,3.04-.93-.49-1.1-2.03-.74-2.89-1.02-.48-2.37.25-2.82,1.21-.53,1.13,1.14,3.56,1.1,4.77-.02.51-.21,1.86-.37,2.32-.29.82-2.02,1.95-1.71,3.42-1.19-1.75-1.99-1.03-3.64-.85-1.32-2.58-1.67-4.35-5.02-2.9-.27-.06-1.15-4.16-2.3-4.67-.89-.4-3.52,1.18-4.38,1.67-.94-2.29-.15-5.31-3.7-4.57-1.07.22-1.81.95-2.83,1.19.03-.92-.54-4.07-1.45-4.35-1.09-.34-3.81.95-4.77,1.6-.25-.04-.63-2.96-1.69-3.23-.46-.12-2.4.25-2.98.38-.86.19-1.62.52-2.45.76-.01-1.27-.29-2.59-1.01-3.66,0-.14,1.99-1.51,2.12-1.52.58-.04.44,2,1.59,1.82.08-.34.05-.74.17-1.06.21-.58,3.3-2.59,4.15-2.44l-.51-1.6,7.23-4.83c1.48-.47,3.29.69,5.06-.37.55-.33,1.54-1.38,1.84-1.95.46-.89.39-2.05.84-2.61.57-.72,2.28-1.35,3-2,.59.03.11.48.01.73-.27.68.85-.13,1.06-.2.63-.21,1.93-.36,2.32-.59.88-.51.88-2.23,1.34-3.04l7.41-4.74c.32-.02,1.17,2.07,1.48,2.51,2.23,3.19,8.49,5.69,12.08,7.15,4.17,1.69,8.9,3.73,13.51,3.12.92-.12,4.58-1.3,5.17-1.86,1.13-1.05,1.4-2.1,2.15-3.17.41-.59,6.32-2.57,7.47-2.94s2.03-.04,2.56-1.31c-.39-.42-7.95,2.37-9.13,2.56,1.11-3.07,1.37-6.36,2.06-9.51.57-2.61,1.95-6.39,3.21-8.77,1.11-2.1,6.62-6.47,8.66-8.59,3.68-3.82,7.03-7.96,10.45-12.02,7.83,7.62,13.6,17.28,16.87,27.71l-.41.39c-5.34,1.31-10.5,3.29-15.81,4.71-2.55.68-5.23.96-7.71,1.91l.72,1.01c8.04-1.53,15.64-4.7,23.49-6.9l1.7,11.85c.07.44.49.43.88.47.13-4.96-.89-9.65-2.38-14.33-10.29-32.26-41.77-51.73-75.4-43.37-1.82.45-12.57,3.67-13.1,4.89-.14.31-.08.48.19.67.97.47,6.65-1.99,7.99-2.42,1.8-.59,3.76-1.28,5.57-1.79.54-.15,3.25-.92,3.53-.66.18,8.3,1.48,16.49,1.89,24.76-2.06,1.89-4.46,3.45-5.93,5.95l-4.54-7.84-.54.45c-.14.31.02.59.15.86.57,1.25,1.73,2.78,2.43,4.06.32.58,1.78,3.11,1.81,3.5.04.48-1.36,3.06-1.59,4.06-.37,1.6-.64,3.95-.57,5.59.03.75.58,2.23.18,2.79l-6.67,3.93c.27-1.61.23-3.73-.11-5.33-.15-.72-.33-1.38-1.21-1.41-1.91,2.59-1.95,5.94-2.24,9.02l-3.06,2.05c.87-4.98,1.64-10.06.17-14.99-1.2-4.01-2.27-5.11-5.84-2.25-2.66,2.14-6.25,5.69-8.59,8.23-1.09,1.19-4.86,5.53-5.35,6.77s.1,2.05-.14,2.84-1.34.91-1.35,2.37c0,.68.45.94.61,1.45.44,1.47.34,2.4,1.82,3.48,2.18,1.59,3.75-.28,6.15-.12-.39.41-.89.77-1.36,1.08-1.87,1.25-4.79,3.23-6.71,4.22-.23.12-.66.44-.81.08.03-.84-.41-1.57-.51-2.37-.23-1.73.32-3.84-1.32-5.05-1.03.7.45,2.58-.72,3.24-.45.25-1.94.57-2.43.46-.82-.18-1-1.45-2.06-1.31-.43.8-.59,1.88-1.49,2.32-1.19-.62-.11-1.3.27-2,.35-.66-.27-.64-.78-.36-.44.24-3.19,2.25-3.32,2.51-.38.81-.29,2.46-.58,3.43-.17.57-.8,1.31-.89,2.01l-1.56.5c-.9-1.54.87-3.56,1.8-4.82,1.61-2.17,3.61-4.1,5.16-6.34.56-.81,2.48-3.41.5-3.56-.63-.05-1.24.33-2.04.28-2.09-.12-4.18-1.24-6.35-1.39-.94-.06-1.53.05-1.18,1.21.13.43.74.54.92.79.19.26.19,1.04.64,1.34-.82.44-1.64.92-2.51,1.26-.63.25-3.08,1.23-3.43.51-.06-.13.1-2.44.15-2.86.23-2.14,1.02-4.8,1.95-6.75,1.34-2.83,6.03-3.03,8.81-3.7,1.44-.35,2.77-1.04,4.33-1.02-.43-1.64-.8-2.87-2.41-3.65-2.4-1.16-4.98-.08-7.47-.54-.23-.22-1.38-5.59-1.39-6.22-.02-2.83,3.67-6.41,5.27-8.7.89-1.27,2.05-3.06,2.79-4.41.79-1.46,1.23-3.19,2.04-4.49.23-.38,2.99-3.82,3.2-3.96,1.14-.77,3.93-1.01,5.42-1.64,1.14-.49,2.52-1.74,3.49-2.04.73-.23,1.88-.15,2.68-.33,1.8-.39,3.69-1.24,5.53-1.13,3.09.19,5.82.56,8.98.06.62-.1,1.25-.32,1.83-.57-.2-1.12-.77-2.87-1.67-3.61-.96-.78-4.74-1.26-6.12-1.38-1.78-.16-3.68.27-5.4-.33,2.29-3.02,4.62-6.06,7.48-8.56,6.88-6.01,12.53-8.54,21.95-7.82,6.36.49,12.84,1.15,19.25,1.16,1.89,0,4.07-.56,5.86-.46,6.25.35,16.29,2.86,22.2,5.07,8.02,3,16.52,11.06,21.84,17.71,2.84,3.55,3.83,5.97,5.86,9.8,2.88,5.44,10.32,11.46,10.48,17.94.16,6.17-1.53,12.21-1.18,18.39.11,1.89.65,4.08.58,5.93-.2,5.94-1.39,14.44-3.36,20-1.62,4.58-3.75,11.06-6.72,14.76-3.21,4-7.53,7.23-11.22,10.74-1.51,1.43-2.58,3.12-4.01,4.62-2.6,2.71-8,8.22-10.89,10.25-2.15,1.51-9.16,2.95-11.82,2.87-.68-.02-1.33-.14-1.99-.25ZM202.39,132.26c5.56-4.02,16.62-5.67,23.35-5.56,13.34.23,23.07,1.55,35.07,7.63,6.23,3.16,11.17,7.84,16.28,12.5,3.01,2.74,10.03,8.59,11.64,11.94,3.29,6.85,6.82,19.9,7.56,27.47.12,1.26-.22,4.11.02,4.97.59,2.17,1.29,1.69,1.01,4.76-.77,8.2-4.35,19.4-7.8,26.92-.34.75-1.91,2.85-1.59,3.49.67.52,2.12.55,2.78,0,.56-.45,2.24-3.14,2.65-3.9,4.65-8.62,6.55-17.76,7.07-27.43.43-7.9.99-16.29-1.29-23.98-1.46-4.92-3.89-11.38-5.94-16.11-2.06-4.75-8.76-12.24-12.66-15.83-2.46-2.26-4.96-3.71-7.46-5.71-.95-.76-1.7-1.83-2.76-2.62-13.99-10.49-29.78-11.84-46.61-9.47-2.26.32-3.87,1.25-5.86,1.62-1.42.27-2.89.22-4.39.58-4.1.98-11.83,4.52-14.82,7.46-.48.47-1.05,1.12-.43,1.7l3.01.65c.52-.08.79-.83,1.17-1.1ZM202.97,139.03c-.15,0-.45.27-.18.47,1.07,2.12,1.87,4.49,3,6.57.42.79,1.1,2.71,2.09,1.52-1.26-2.37-2.49-5.3-3.98-7.53-.17-.25-.64-1.05-.92-1.04ZM214.11,145.54c-1.74.99-6.11,2.16-7.03,4.03-.72,1.46.27,2.85.08,3.9-.08.43-.68.92-.86,1.4-.52,1.34,1.08,4.47,2.68,2.93,1.5-1.44,2.1-3.86,4.05-5.06.23-.52-.89-1.99-.94-2.54-.14-1.53,3.37-2.71,3.47-3.38.03-.52-1.03-1.33-1.45-1.29ZM168.13,166.32c.37.61,1.58,1.82,2.3,2.01.91.24,3.4.39,4.49.49,3.91.35,10.08.91,13.86-.1,2.59-.69,10.81-6.82,12.04-9.14.81-1.53.73-5.77.25-7.49-.49-1.78-2.09-4.04-3.61-5.09-3.89-2.7-14.29-2.66-18.42-.24-2.4,1.4-5.75,7.99-7.38,10.58-1.32,2.1-5.13,6.32-3.54,8.98ZM184.37,174.78c.35-.32.87-1.08.39-1.46l-5.99,1.44v.71s1.02.28,1.02.28l.25.33c-.03.9-1.24,3.62-.31,4.18.1.06.48.17.49-.04.69-2.04,1.91-3.66,3.46-5.1.2-.19.55-.21.69-.34ZM225.14,200.15c.09-.03.5-.63.55-.78.57-1.79-2.28-4.08-3.56-5.11-2.11-1.71-4.92-3.2-6.93-4.89-.98-.83-1.71-1.96-2.82-2.66-.14.63.25,1.22.52,1.76,1.41,2.79,7.17,8.73,9.74,10.58.48.35,1.99,1.3,2.51,1.1ZM247.11,194.11c-1.67.08-3.81,2.18-5.33,2.58-1,.26-3.64-.29-3.98.44-.5,1.05.55,1.3,1.42,1.48,2.44.51,6.43.26,8.3-1.6,1.05-1.05,1.71-2.99-.4-2.89ZM241.75,204.41c-.04-.07-.46-.34-.49-.33-.58,1.08-.43,2.36-.79,3.5-.52,1.64-2.85,4.15-2.46,5.67.32,1.28,1.42.6,2.25.61,2.13.05,3.09,2.16,5.02,2.74.67-2.29-.87-3.15-1.84-4.75-.33-.55-1.23-2.38-1.37-2.95-.3-1.18.16-3.74-.31-4.5ZM189.43,206.68l.48-3.1c.13-.84,4.76-.8,5.45-2.18.15-.29.12-.7.29-1.01.41-.73,1.58-1.4,1.67-2.43.1-1.29-1.7.26-2.26.44-1.32.43-5.27.33-6.08,1.56-.38.58-.92,5.81-.63,6.39.08.16.45.34.58.52l.5-.2ZM202.99,207.67c-.58-1.26-.98-3.6-1.9-4.55-.17-.18-.19-.41-.54-.38-.29.24-.11,2.34-.26,2.79-.17.51-.78.59-.97,1.28-.27.92.13,1.75.01,2.4-.09.47-.69.99-.84,1.66-.23,1.06.18,2.04,1.09,2.64.26-.02,1.33-1.99,1.7-2.38.65-.69,1.69-.95,1.89-2,.42.02.98.04,1.33.28.14.1,1.22,2.58,1.25,2.87.17,1.68-1.3,4.11.47,5.24,1.2-2.29,2.04-3.61,1.47-6.32-.19-.89-1.15-2.66-1.14-3.3.01-.54.58-1.29.43-1.94l-.71-.34-.95,2-2.33.06ZM212.07,207.91c-.82-.63-2.39.37-2.55,1.28-.31,1.69,1.45,5.81,1.67,7.69.02.39-1.35,1.69-.69,1.89.6.19,2.47-1.48,2.6-2.09.05-.23-.33-2.66-.42-3.12-.32-1.81-1.43-3.88-.61-5.65ZM195.42,209c.26-.78.34-2.21.48-3.1.08-.51-1.37-.94-1.73-.23-.1,1.35-.03,2.75-.66,4l.78.84c.15.02,1.06-1.29,1.13-1.51Z"/><path class="cls-1" d="M160.11,220.83c1.04,1.29,2.14.88,3.38.2.67,2.84,2.16,3.72,4.67,1.91.19.03.96,3.03,1.88,3.27.83.22,2.52-.77,3.47-.66l2.94,2.61,2.82-1.3c.25.04,1.62,3.18,2.33,3.62.65.39,2.77-.14,3.45-.56-.12,1.66,1.91,2.87,3.39,2.86,1.58-.01,2.54-1.25,3.82-1.94-.77,2.5,1.87,5.28,4.38,4.22.33-.14.82-.67,1.09-.58,1.18,1.2,1.24,2.85,2.86,3.59,1.76.8,2.34-.44,3.97-.76.11,1.14,1.96,3.11,3.15,2.77.28-.08,1.29-1.17,1.53-.85l-.46.92c1.14,1.61,2.77,1.8,4.63,1.61.36-.04.79-.38,1.14-.31.34.06.55.54.92.69.66.27,1.29-.01,1.68.14.77.29,1.41.92,2.64,1.17,6.5,1.33,8.15-3.91,11.67-7.79,1.02-1.13,2.39-2.77,4.08-2.27.13,1.41-.43,2.77-1.11,3.99-.48.86-4.37,6.27-4.92,6.66s-1.27.2-1.37,1.2c-.15,1.47,1.35,1.36,2.36.85,3.15-1.58,4.39-4.18,6.79-5.99.4-.3,1.35-1,1.75-.43.64.92-1.25,3.27-1.82,4.09-2.42,3.5-5.53,6.62-9.12,8.9-2.57,1.63-4.7,2.36-7.56,3.29-.61.2-1.74.87-2.26.9-2,.14-5.51-.95-7.74-.95-.93,0-1.91.75-3.1.7s-7.41-1.4-7.8-1.01c-.41,1.39,1.4,1.01,2.14,1.37.27.13.33.52.73.67,1.16.42,3.09.25,4.26.67.51.18.65.79,1.05,1.12,1.3,1.07,3.88.8,5.57,1.08,3.17.53,6.42,1.47,9.66,1.71,4.7.35,10.86-4.65,13.58-8.22,1.07-1.4,1.76-3.15,2.8-4.4,2.53-3.03,7.8-4.24,8.04-8.69.23-4.39-4.7-3.53-6.05-6.23-.74-1.47-1.55-5.63,1.3-4.74,1.76.55,1.98,4.72,5.31,5.57,1.25.32,2.42.05,3.62.45.12.12.16,3.02.07,3.4-.21.85-3.34,5.64-4.05,6.69-3.39,5.01-8.81,10.36-13.25,14.53-.68.64-3.18,2.85-3.85,3.19-.31.16-4.22.94-4.77,1-3.46.35-6.64.77-10.12.27-5.72-.84-11.45-2.52-17.05-4.03-11.81-3.18-22.8-6.31-33.61-12.19-2.46-1.34-7.63-4.17-9.63-5.84-.91-.76-1.66-1.95-2.54-2.78-.84-.8-5.26-3.87-5.12-4.77.1-.64,1.31-3.03,1.68-3.8,1.99-4.17,4.47-8.13,6.18-12.46.33-.47,2.68-1.62,3.06-1.44.45.87.89,2.4,1.49,3.13ZM156.24,232.6c.02-.56.51-.84.62-1.38.14-.65-.24-1.48-.11-2s1.06-.48,1.32-1.03c.29-.62-.05-1.37.15-2.02-1.03.34-2.78.03-3.44,1.06-.26.4-.01.77-.24,1.28-.64,1.43-3.4,3.19-3.33,4.76.04.95.81,2.25,1.57,2.81,2.43,1.82,6.06,4.36,8.81,5.58,1.76.78,3.7,1.2,5.49,2,1.84.81,3.47,2.22,5.54,2.39.09-1.88-2.13-1.57-3.07-2.48-.33-.31-.39-.93-.69-1.38-1.17-1.72-3.28-2.09-4.88-3.13,1.19-.38.85-.9.88-1.94-.89-.1-1.87-.26-2.39-1.09.74-.97,1.44-1.69,1.45-3.03-1.48.68-3.37.24-3.36,2.46-1.11-.1-1.53-.68-1.09-1.73l1.45-.54-.08-3.45c-.56.16-1.96.26-2.06.97l.15,1.1c-.74.11-1.65.23-1.76,1.13l-.93-.35ZM170.67,229.08c-.53.25-1.59.63-1.78,1.22-.21.64.18,1.02.11,1.31-.13.54-1.47,2,.03,2.38.58.15,1.94-1.05,2.12-1.58.33-1.01-.32-1.04-.48-1.7-.1-.44,0-1.16,0-1.64ZM180.89,235.99c-.31.36-4.16.76-4.68.48-.56-.3-.06-2.32-.29-3.05-.53-1.66-1.7.8-1.81,1.66-.2,1.46.85,3.14.76,4.1-.12,1.34-1.62,3.49-1.15,4.62.83,2,4.14-.52,5.46-.86.68-.17,1.36-.08,2.02-.29.19-.2,1.04-4.63,1.05-5.26.01-.84-.22-2.03-1.21-2.12-.06.22,0,.58-.15.74Z"/><path class="cls-1" d="M246.76,162.07c-2.13-.65-3.86-2.11-5.84-3.03-1.11-.52-8.49-2.88-8.69-3.3l.13-25.16c1.24-.15,2.49-.32,3.75-.29,5.29.13,11.83,1.79,16.78,3.66.86.33,6.82,2.83,6.84,3.25l-12.98,24.88ZM244.27,149.63c-.18-.25-.68-.33-.97-.4-2.58-.63-5.06,0-7.57-.97-.95.94-.29,1.42.56,1.98,2,1.3,4.62,2.2,6.68,3.47.3,0,.46-.05.63-.3.48-.69,1.21-3.03.67-3.77Z"/><path class="cls-1" d="M267,141.41c.15.34-1.44,2.74-1.73,3.33-2.35,4.72-4.59,9.6-6.84,14.37-1.22,2.6-2.31,6.16-3.74,8.51-.51.84-1.44,1.65-2.19,2.28-.64-2.94-2.1-5.64-4.83-7.12-.15-.34,1.78-4.23,2.12-4.91,2.34-4.75,5.07-9.31,7.4-14.08.43-.87,2.67-6.36,3.21-6.36l6.61,3.98Z"/><path class="cls-1" d="M228.09,155.02c-1.32,0-2.94.94-4.24,1.13l-2.16-24.25c.23-.76,8.57-1.38,9.79-1.36l-.57,24.92c-.89-.04-1.95-.44-2.81-.43Z"/><path class="cls-1" d="M256.96,165.43c1.88-5.23,4.54-10.13,6.85-15.17,1.25-2.72,2.23-5.59,3.71-8.19.36-.18,3.71,2.67,4.25,3.15.42.37,2.52,2.13,2.39,2.51-5.69,5.94-10.76,12.56-17.21,17.71Z"/><path class="cls-1" d="M239.34,177.65c5.04.25,7.39,6.3,3.81,10.12s-10.07-.66-9.07-5.34c.52-2.43,2.58-4.92,5.26-4.79ZM239.07,180.57c-.97.13-2.37,2.78-2.25,3.64.06.45,1.3,1.8,1.74,2.01,1.91.95,4.23-1.44,4-3.27-.2-1.56-1.99-2.58-3.48-2.38Z"/><path class="cls-1" d="M190.46,211.51c.02.74.42,1.55.25,2.29-.13.59-1.65,3.52-2.04,4.28-.73,1.42-.82,2.02-2.55,1.68-.63-.13-3.29-.81-2.94-1.64l2.4-5.55c1.61-.38,3.18-1.16,4.88-1.06Z"/><path class="cls-1" d="M180.84,217.14c-.24.11-3.92-1.21-4.43-1.45-.23-.11-.35.09-.23-.33.79-.97,1.79-4.34,2.55-4.98.57-.48,4.11-1.15,4.81-.94.59.17.81,1.04.66,1.58l-3.35,6.12Z"/><path class="cls-1" d="M189.81,221.1c-.13-.3,1.68-4.64,2.04-5.01.53-.56,4.17-1.58,4.65-1.18.18.15.25.61.25.86,0,1.06-1.66,5.87-2.48,6.44-.95.68-3.54-.51-4.46-1.11Z"/><path class="cls-1" d="M202.76,216.78l.52,3.98-1.84,4.61c-.88.52-3.7.15-3.8-.98-.02-.27,1.22-3.87,1.41-4.56.07-.24-.01-.48,0-.72.08-.19,1.69-.95,2.04-1.18.31-.21,1.33-1.47,1.65-1.14Z"/><path class="cls-1" d="M173.99,213.89c-.39.17-3.12-.72-3.29-1.06s1.11-3.24,1.39-3.77c.32-.61.45-.99,1.15-1.25.37-.13,3.45-.45,3.66-.36s.23.31.24.51c.03,1.44-2.46,4.52-3.14,5.93Z"/><path class="cls-1" d="M169.65,222.96c-1.18-2.24.43-4.51.85-6.79l3.81,1.06c.64.6-1.05,4.35-1.61,5.1l-3.04.63Z"/><path class="cls-1" d="M206.75,229.5c-.88-.69-1.89-1.08-2.97-1.35l1.49-5.6c1,0,2-.49,2.65-1.2.51.07,1.27,2.44,1.22,2.86-.2,1.59-2.19,3.63-2.38,5.29Z"/><path class="cls-1" d="M179.93,220.25c1.32,1.43-.88,3.43-2.09,4.18-1.81,1.13-2.08.58-3.7-.56.35-1.52,1.47-2.93,1.23-4.55l1.33-.4c.73.59,2.69.75,3.22,1.33Z"/><path class="cls-1" d="M168.6,213.93c.13.26.16.57.12.86-.3,1.79-1.48,3.96-1.7,5.85l-1.77.65-1.04-3.03,1.09-4.56c.1-.22,3-.18,3.3.24Z"/><path class="cls-1" d="M183.44,221.96l3.29.96c.67,1.71-.86,2.87-2.18,3.63-1.74.99-3.43,1.59-4.2-.8,1.04-.62,2-3.68,3.09-3.8Z"/><path class="cls-1" d="M220.44,227.04l2.26-5.47c4.61-3.62,2.84,5.8.09,5.99-.81.06-1.61-.26-2.35-.53Z"/><path class="cls-1" d="M205.73,230.93c.1.15-1.28,1.59-1.51,1.81-1.13,1.14-2.78,2.57-4.47,2.39l-.61-1.33c.62-.97,1.18-4.73,2.7-4.42,1.05.21,2.66,1.42,3.89,1.56Z"/><path class="cls-1" d="M198.86,227.89c.19.31-3.04,5.36-4.35,4.99-.19-.36-.71-.78-.77-1.16-.09-.63.05-3.92.34-4.37.26-.4,1.41-.77,1.9-.72.85.09,1.87,1.22,2.88,1.25Z"/><path class="cls-1" d="M215.9,224.52c-.69-.68,1.74-3.85,2.03-4.75.27-.85-.02-1.55.2-2.3.17-.58.94.14,1.13.38.58.74,1.03,4.07.78,5.01-.23.89-1.04,1.44-1.49,2.22l-2.65-.56Z"/><path class="cls-1" d="M192.7,225.35c-.95,2.64-2.95,4.92-6.02,4.4-.35-.82.27-.83.62-1.33s.86-1.19,1.12-1.76c.24-.53.6-2.15.86-2.35.77-.58,2.41,1.06,3.42,1.03Z"/><path class="cls-1" d="M216.68,234.61l2.67-6.33c1.55,1.2,2.09,1.79,1.44,3.84s-1.89,3.77-4.11,2.49Z"/><path class="cls-1" d="M212.74,224.08c-.02.59.6.94.53,1.56-.21,1.79-2,3.87-2.25,5.71l-2.32-.36c.5-1,1.24-1.77,1.58-2.88.2-.64.35-2.55.6-2.92.14-.21,1.66-1.3,1.86-1.11Z"/><path class="cls-1" d="M216.36,226.42c1.03-.08,1.51,1.73,1.41,2.49-.05.4-1.43,3.8-1.66,4.08-.41.5-2.02.67-1.91-.25.05-.4.84-1.47,1.06-2.08s.88-4.1,1.11-4.24Z"/><path class="cls-1" d="M163.46,214.08c0,2.41-1.1,3.69-2.87,5.11-.54-.61-.71-2.42-.38-3.09.17-.35,2.74-1.69,3.25-2.02Z"/><path class="cls-1" d="M205.58,237.06c-.58-.56,1.46-2.61,1.77-3.33.24-.57.34-1.08.4-1.69l1.9.59c.24.23.13.28.03.51-.26.61-2.81,3.59-3.38,3.85-.26.11-.43.18-.71.08Z"/><path class="cls-1" d="M213.68,234.74c-.07.48-.12.96-.24,1.43-1.49,5.73-3.81.53-1.15-2.03l1.4.61Z"/><path class="cls-1" d="M175.33,197.66c-.2.58-.65.67-.82,1.36-.15.62.1,1.87-.02,2.09-.17.3-1.93,1.4-2.24,1.03.15-.41-.19-.85-.19-1.17,0-.93,2.76-2.02,2.49-3.43l.77.12Z"/><path class="cls-1" d="M167.04,202.53l-2.09,1.95-3.19,3.98c.07-.4.07-.82.23-1.21.09-.22,2.48-3.73,2.65-3.89.57-.54,1.61-.89,2.4-.83Z"/><path class="cls-1" d="M216.2,236.42l.53-.22c.41.22.93.27,1.33.42.28.1.32-.11.26.33-.2,1.35-1.27,2.14-2.54,2.28l.43-2.81Z"/><path class="cls-1" d="M171.22,198.61c0,.4-.42.65-.47,1.02s.26.78.1,1.17c-.12.28-1.57,1.14-1.8,1.05-.22-.32-.64-.96-.49-1.32.05-.12,1.76-1.5,2.03-1.71.21-.16.31-.33.62-.2Z"/><path class="cls-1" d="M168.98,197.67l-.81,2.64-1.8.13c-.01-1.39,1.35-2.5,2.61-2.77Z"/><path class="cls-1" d="M159.54,209.9c.22.64-1.89,2.14-2.07,1.86l.52-2.1,1.55.24Z"/><path class="cls-1" d="M162.59,203.03c-.35.77-1.03,2.07-1.56,2.68-.21.23-.31.49-.69.35.56-.9,1.13-1.83,1.72-2.71.18-.27.05-.48.54-.31Z"/><path class="cls-1" d="M186.17,152.95c2.57.06,4.45,2.45,5.1,4.77.49,1.73-.9,4.6-2.47,5.39-.91.46-2.92.58-3.94.49-7.26-.66-5.49-10.81,1.3-10.66ZM185.72,155.85c-4.27.07-2.85,7.3,1.74,4.95.55-.28.73-.51.9-1.12.64-2.3-.05-3.88-2.64-3.84Z"/><path class="cls-1" d="M127.89,234.05c-1.3,1.21-2.08,1.99-1.56,3.86.26.91.96,2.24,2.01,2.29.35.02.68-.28.94-.15-.12.63-3.49,3.06-3.79,2.68l.96-1.3c-1.21-2.14-2.62-4.12-1.14-6.57,1.02-1.7,6.17-4.44,8.04-5.69,13.15-8.79,26.67-16.93,40.06-25.36,17.77-11.19,35.48-22.48,53.36-33.51.76.43,1.24,1.34.29,1.84-.42.22-.67-.18-1.13-.17-.68.01-6.1,3.48-7.14,4.12-30.61,18.81-60.3,39.12-90.89,57.95Z"/><path class="cls-1" d="M127.89,234.05c-1.3,1.21-2.08,1.99-1.56,3.86.26.91.96,2.24,2.01,2.29.35.02.68-.28.94-.15-.12.63-3.49,3.06-3.79,2.68l.96-1.3c-1.21-2.14-2.62-4.12-1.14-6.57,1.02-1.7,6.17-4.44,8.04-5.69,13.15-8.79,26.67-16.93,40.06-25.36,17.77-11.19,35.48-22.48,53.36-33.51.76.43,1.24,1.34.29,1.84-.42.22-.67-.18-1.13-.17-.68.01-6.1,3.48-7.14,4.12-30.61,18.81-60.3,39.12-90.89,57.95Z"/><path class="cls-1" d="M165.86,211.54c.39.16.73.28.91.33,1.68.51,1.84-.08,2.7-1.42.3-.46,1.13-1.75,1.75-2.77-1.21.71-2.81,1.59-3.62,2.23-.39.31-1.15,1.06-1.73,1.64Z"/><path class="cls-1" d="M171.18,203.94c-1.29-.31-2.29-.67-4.25.72l-1.54,2.78c1.47-.81,2.96-1.66,3.69-2.12.44-.28,1.34-.87,2.09-1.38Z"/></svg>